<?xml version="1.0" encoding="UTF-8" standalone="no"?>
<!DOCTYPE svg PUBLIC "-//W3C//DTD SVG 1.1//EN"
 "http://www.w3.org/Graphics/SVG/1.1/DTD/svg11.dtd">
<!-- Generated by graphviz version 2.47.3 (20210619.1520)
 -->
<!-- Title: dependencies Pages: 1 -->
<svg width="1312pt" height="247pt"
 viewBox="0.00 0.00 1312.00 246.80" xmlns="http://www.w3.org/2000/svg" xmlns:xlink="http://www.w3.org/1999/xlink">
<g id="graph0" class="graph" transform="scale(1 1) rotate(0) translate(4 242.8)">
<title>dependencies</title>
<polygon fill="white" stroke="transparent" points="-4,4 -4,-242.8 1308,-242.8 1308,4 -4,4"/>
<text text-anchor="middle" x="652" y="-8.2" font-family="sans-serif" font-size="14.00">dependencies</text>
<g id="clust1" class="cluster">
<title>cluster_SharedModule</title>
<polygon fill="none" stroke="black" stroke-dasharray="1,5" points="8,-32.8 8,-230.8 1296,-230.8 1296,-32.8 8,-32.8"/>
</g>
<g id="clust13" class="cluster">
<title>cluster_SharedModule_exports</title>
<polygon fill="none" stroke="black" points="71,-170.8 71,-222.8 1233,-222.8 1233,-170.8 71,-170.8"/>
</g>
<g id="clust2" class="cluster">
<title>cluster_SharedModule_declarations</title>
<polygon fill="none" stroke="black" points="16,-40.8 16,-92.8 1288,-92.8 1288,-40.8 16,-40.8"/>
</g>
<!-- AdsComponent -->
<g id="node1" class="node">
<title>AdsComponent</title>
<polygon fill="#ffffb3" stroke="black" points="1279.88,-84.8 1176.12,-84.8 1176.12,-48.8 1279.88,-48.8 1279.88,-84.8"/>
<text text-anchor="middle" x="1228" y="-62.6" font-family="Times,serif" font-size="14.00">AdsComponent</text>
</g>
<!-- SharedModule -->
<g id="node10" class="node">
<title>SharedModule</title>
<polygon fill="#8dd3c7" stroke="black" points="684.42,-149.8 681.42,-153.8 660.42,-153.8 657.42,-149.8 585.58,-149.8 585.58,-113.8 684.42,-113.8 684.42,-149.8"/>
<text text-anchor="middle" x="635" y="-127.6" font-family="Times,serif" font-size="14.00">SharedModule</text>
</g>
<!-- AdsComponent&#45;&gt;SharedModule -->
<g id="edge1" class="edge">
<title>AdsComponent&#45;&gt;SharedModule</title>
<path fill="none" stroke="black" d="M1200.38,-84.91C1200.38,-104.14 1200.38,-131.8 1200.38,-131.8 1200.38,-131.8 694.68,-131.8 694.68,-131.8"/>
<polygon fill="black" stroke="black" points="694.68,-128.3 684.68,-131.8 694.68,-135.3 694.68,-128.3"/>
</g>
<!-- AdsModalComponent -->
<g id="node2" class="node">
<title>AdsModalComponent</title>
<polygon fill="#ffffb3" stroke="black" points="1158.43,-84.8 1017.57,-84.8 1017.57,-48.8 1158.43,-48.8 1158.43,-84.8"/>
<text text-anchor="middle" x="1088" y="-62.6" font-family="Times,serif" font-size="14.00">AdsModalComponent</text>
</g>
<!-- AdsModalComponent&#45;&gt;SharedModule -->
<g id="edge2" class="edge">
<title>AdsModalComponent&#45;&gt;SharedModule</title>
<path fill="none" stroke="black" d="M1058.38,-85.1C1058.38,-103.07 1058.38,-127.8 1058.38,-127.8 1058.38,-127.8 694.4,-127.8 694.4,-127.8"/>
<polygon fill="black" stroke="black" points="694.4,-124.3 684.4,-127.8 694.4,-131.3 694.4,-124.3"/>
</g>
<!-- AmazonAdsComponent -->
<g id="node3" class="node">
<title>AmazonAdsComponent</title>
<polygon fill="#ffffb3" stroke="black" points="999.81,-84.8 848.19,-84.8 848.19,-48.8 999.81,-48.8 999.81,-84.8"/>
<text text-anchor="middle" x="924" y="-62.6" font-family="Times,serif" font-size="14.00">AmazonAdsComponent</text>
</g>
<!-- AmazonAdsComponent&#45;&gt;SharedModule -->
<g id="edge3" class="edge">
<title>AmazonAdsComponent&#45;&gt;SharedModule</title>
<path fill="none" stroke="black" d="M892.88,-84.83C892.88,-101.2 892.88,-122.8 892.88,-122.8 892.88,-122.8 694.42,-122.8 694.42,-122.8"/>
<polygon fill="black" stroke="black" points="694.42,-119.3 684.42,-122.8 694.42,-126.3 694.42,-119.3"/>
</g>
<!-- LoadingComponent -->
<g id="node4" class="node">
<title>LoadingComponent</title>
<polygon fill="#ffffb3" stroke="black" points="829.99,-84.8 702.01,-84.8 702.01,-48.8 829.99,-48.8 829.99,-84.8"/>
<text text-anchor="middle" x="766" y="-62.6" font-family="Times,serif" font-size="14.00">LoadingComponent</text>
</g>
<!-- LoadingComponent&#45;&gt;SharedModule -->
<g id="edge4" class="edge">
<title>LoadingComponent&#45;&gt;SharedModule</title>
<path fill="none" stroke="black" d="M733.38,-84.99C733.38,-99.98 733.38,-118.8 733.38,-118.8 733.38,-118.8 694.48,-118.8 694.48,-118.8"/>
<polygon fill="black" stroke="black" points="694.48,-115.3 684.48,-118.8 694.48,-122.3 694.48,-115.3"/>
</g>
<!-- MdescapePipe -->
<g id="node5" class="node">
<title>MdescapePipe</title>
<polygon fill="#ffffb3" stroke="black" points="683.64,-84.8 586.36,-84.8 586.36,-48.8 683.64,-48.8 683.64,-84.8"/>
<text text-anchor="middle" x="635" y="-62.6" font-family="Times,serif" font-size="14.00">MdescapePipe</text>
</g>
<!-- MdescapePipe&#45;&gt;SharedModule -->
<g id="edge5" class="edge">
<title>MdescapePipe&#45;&gt;SharedModule</title>
<path fill="none" stroke="black" d="M635,-84.91C635,-84.91 635,-103.79 635,-103.79"/>
<polygon fill="black" stroke="black" points="631.5,-103.79 635,-113.79 638.5,-103.79 631.5,-103.79"/>
</g>
<!-- MessageComponent -->
<g id="node6" class="node">
<title>MessageComponent</title>
<polygon fill="#ffffb3" stroke="black" points="568.31,-84.8 437.69,-84.8 437.69,-48.8 568.31,-48.8 568.31,-84.8"/>
<text text-anchor="middle" x="503" y="-62.6" font-family="Times,serif" font-size="14.00">MessageComponent</text>
</g>
<!-- MessageComponent&#45;&gt;SharedModule -->
<g id="edge6" class="edge">
<title>MessageComponent&#45;&gt;SharedModule</title>
<path fill="none" stroke="black" d="M541.29,-84.99C541.29,-99.98 541.29,-118.8 541.29,-118.8 541.29,-118.8 575.68,-118.8 575.68,-118.8"/>
<polygon fill="black" stroke="black" points="575.68,-122.3 585.68,-118.8 575.68,-115.3 575.68,-122.3"/>
</g>
<!-- NavComponent -->
<g id="node7" class="node">
<title>NavComponent</title>
<polygon fill="#ffffb3" stroke="black" points="420.15,-84.8 315.85,-84.8 315.85,-48.8 420.15,-48.8 420.15,-84.8"/>
<text text-anchor="middle" x="368" y="-62.6" font-family="Times,serif" font-size="14.00">NavComponent</text>
</g>
<!-- NavComponent&#45;&gt;SharedModule -->
<g id="edge7" class="edge">
<title>NavComponent&#45;&gt;SharedModule</title>
<path fill="none" stroke="black" d="M391.71,-84.83C391.71,-101.2 391.71,-122.8 391.71,-122.8 391.71,-122.8 575.77,-122.8 575.77,-122.8"/>
<polygon fill="black" stroke="black" points="575.77,-126.3 585.77,-122.8 575.77,-119.3 575.77,-126.3"/>
</g>
<!-- ProfileComponent -->
<g id="node8" class="node">
<title>ProfileComponent</title>
<polygon fill="#ffffb3" stroke="black" points="297.93,-84.8 178.07,-84.8 178.07,-48.8 297.93,-48.8 297.93,-84.8"/>
<text text-anchor="middle" x="238" y="-62.6" font-family="Times,serif" font-size="14.00">ProfileComponent</text>
</g>
<!-- ProfileComponent&#45;&gt;SharedModule -->
<g id="edge8" class="edge">
<title>ProfileComponent&#45;&gt;SharedModule</title>
<path fill="none" stroke="black" d="M267.32,-85.1C267.32,-103.07 267.32,-127.8 267.32,-127.8 267.32,-127.8 575.41,-127.8 575.41,-127.8"/>
<polygon fill="black" stroke="black" points="575.41,-131.3 585.41,-127.8 575.41,-124.3 575.41,-131.3"/>
</g>
<!-- TweetBtnComponent -->
<g id="node9" class="node">
<title>TweetBtnComponent</title>
<polygon fill="#ffffb3" stroke="black" points="160.04,-84.8 23.96,-84.8 23.96,-48.8 160.04,-48.8 160.04,-84.8"/>
<text text-anchor="middle" x="92" y="-62.6" font-family="Times,serif" font-size="14.00">TweetBtnComponent</text>
</g>
<!-- TweetBtnComponent&#45;&gt;SharedModule -->
<g id="edge9" class="edge">
<title>TweetBtnComponent&#45;&gt;SharedModule</title>
<path fill="none" stroke="black" d="M119.62,-84.91C119.62,-104.14 119.62,-131.8 119.62,-131.8 119.62,-131.8 575.58,-131.8 575.58,-131.8"/>
<polygon fill="black" stroke="black" points="575.58,-135.3 585.58,-131.8 575.58,-128.3 575.58,-135.3"/>
</g>
<!-- AdsComponent  -->
<g id="node11" class="node">
<title>AdsComponent </title>
<polygon fill="#fb8072" stroke="black" points="1224.88,-214.8 1117.12,-214.8 1117.12,-178.8 1224.88,-178.8 1224.88,-214.8"/>
<text text-anchor="middle" x="1171" y="-192.6" font-family="Times,serif" font-size="14.00">AdsComponent </text>
</g>
<!-- SharedModule&#45;&gt;AdsComponent  -->
<g id="edge10" class="edge">
<title>SharedModule&#45;&gt;AdsComponent </title>
<path fill="none" stroke="black" stroke-dasharray="5,2" d="M684.58,-136.8C811.42,-136.8 1137.76,-136.8 1137.76,-136.8 1137.76,-136.8 1137.76,-168.8 1137.76,-168.8"/>
<polygon fill="black" stroke="black" points="1134.26,-168.8 1137.76,-178.8 1141.26,-168.8 1134.26,-168.8"/>
</g>
<!-- AdsModalComponent  -->
<g id="node12" class="node">
<title>AdsModalComponent </title>
<polygon fill="#fb8072" stroke="black" points="1098.93,-214.8 955.07,-214.8 955.07,-178.8 1098.93,-178.8 1098.93,-214.8"/>
<text text-anchor="middle" x="1027" y="-192.6" font-family="Times,serif" font-size="14.00">AdsModalComponent </text>
</g>
<!-- SharedModule&#45;&gt;AdsModalComponent  -->
<g id="edge11" class="edge">
<title>SharedModule&#45;&gt;AdsModalComponent </title>
<path fill="none" stroke="black" stroke-dasharray="5,2" d="M684.41,-140.8C779.22,-140.8 977.34,-140.8 977.34,-140.8 977.34,-140.8 977.34,-168.77 977.34,-168.77"/>
<polygon fill="black" stroke="black" points="973.84,-168.77 977.34,-178.77 980.84,-168.77 973.84,-168.77"/>
</g>
<!-- AmazonAdsComponent  -->
<g id="node13" class="node">
<title>AmazonAdsComponent </title>
<polygon fill="#fb8072" stroke="black" points="937.31,-214.8 782.69,-214.8 782.69,-178.8 937.31,-178.8 937.31,-214.8"/>
<text text-anchor="middle" x="860" y="-192.6" font-family="Times,serif" font-size="14.00">AmazonAdsComponent </text>
</g>
<!-- SharedModule&#45;&gt;AmazonAdsComponent  -->
<g id="edge12" class="edge">
<title>SharedModule&#45;&gt;AmazonAdsComponent </title>
<path fill="none" stroke="black" stroke-dasharray="5,2" d="M684.55,-145.8C735.14,-145.8 806.3,-145.8 806.3,-145.8 806.3,-145.8 806.3,-168.68 806.3,-168.68"/>
<polygon fill="black" stroke="black" points="802.8,-168.68 806.3,-178.68 809.8,-168.68 802.8,-168.68"/>
</g>
<!-- LoadingComponent  -->
<g id="node14" class="node">
<title>LoadingComponent </title>
<polygon fill="#fb8072" stroke="black" points="764.99,-214.8 633.01,-214.8 633.01,-178.8 764.99,-178.8 764.99,-214.8"/>
<text text-anchor="middle" x="699" y="-192.6" font-family="Times,serif" font-size="14.00">LoadingComponent </text>
</g>
<!-- SharedModule&#45;&gt;LoadingComponent  -->
<g id="edge13" class="edge">
<title>SharedModule&#45;&gt;LoadingComponent </title>
<path fill="none" stroke="black" stroke-dasharray="5,2" d="M658.73,-149.91C658.73,-149.91 658.73,-168.79 658.73,-168.79"/>
<polygon fill="black" stroke="black" points="655.23,-168.79 658.73,-178.79 662.23,-168.79 655.23,-168.79"/>
</g>
<!-- MdescapePipe  -->
<g id="node15" class="node">
<title>MdescapePipe </title>
<polygon fill="#fb8072" stroke="black" points="615.64,-214.8 514.36,-214.8 514.36,-178.8 615.64,-178.8 615.64,-214.8"/>
<text text-anchor="middle" x="565" y="-192.6" font-family="Times,serif" font-size="14.00">MdescapePipe </text>
</g>
<!-- SharedModule&#45;&gt;MdescapePipe  -->
<g id="edge14" class="edge">
<title>SharedModule&#45;&gt;MdescapePipe </title>
<path fill="none" stroke="black" stroke-dasharray="5,2" d="M600.68,-149.91C600.68,-149.91 600.68,-168.79 600.68,-168.79"/>
<polygon fill="black" stroke="black" points="597.18,-168.79 600.68,-178.79 604.18,-168.79 597.18,-168.79"/>
</g>
<!-- MessageComponent  -->
<g id="node16" class="node">
<title>MessageComponent </title>
<polygon fill="#fb8072" stroke="black" points="496.81,-214.8 363.19,-214.8 363.19,-178.8 496.81,-178.8 496.81,-214.8"/>
<text text-anchor="middle" x="430" y="-192.6" font-family="Times,serif" font-size="14.00">MessageComponent </text>
</g>
<!-- SharedModule&#45;&gt;MessageComponent  -->
<g id="edge15" class="edge">
<title>SharedModule&#45;&gt;MessageComponent </title>
<path fill="none" stroke="black" stroke-dasharray="5,2" d="M585.61,-145.8C536.17,-145.8 467.38,-145.8 467.38,-145.8 467.38,-145.8 467.38,-168.68 467.38,-168.68"/>
<polygon fill="black" stroke="black" points="463.88,-168.68 467.38,-178.68 470.88,-168.68 463.88,-168.68"/>
</g>
<!-- NavComponent  -->
<g id="node17" class="node">
<title>NavComponent </title>
<polygon fill="#fb8072" stroke="black" points="345.15,-214.8 236.85,-214.8 236.85,-178.8 345.15,-178.8 345.15,-214.8"/>
<text text-anchor="middle" x="291" y="-192.6" font-family="Times,serif" font-size="14.00">NavComponent </text>
</g>
<!-- SharedModule&#45;&gt;NavComponent  -->
<g id="edge16" class="edge">
<title>SharedModule&#45;&gt;NavComponent </title>
<path fill="none" stroke="black" stroke-dasharray="5,2" d="M585.72,-140.8C499.5,-140.8 330.38,-140.8 330.38,-140.8 330.38,-140.8 330.38,-168.77 330.38,-168.77"/>
<polygon fill="black" stroke="black" points="326.88,-168.77 330.38,-178.77 333.88,-168.77 326.88,-168.77"/>
</g>
<!-- TweetBtnComponent  -->
<g id="node18" class="node">
<title>TweetBtnComponent </title>
<polygon fill="#fb8072" stroke="black" points="219.04,-214.8 78.96,-214.8 78.96,-178.8 219.04,-178.8 219.04,-214.8"/>
<text text-anchor="middle" x="149" y="-192.6" font-family="Times,serif" font-size="14.00">TweetBtnComponent </text>
</g>
<!-- SharedModule&#45;&gt;TweetBtnComponent  -->
<g id="edge17" class="edge">
<title>SharedModule&#45;&gt;TweetBtnComponent </title>
<path fill="none" stroke="black" stroke-dasharray="5,2" d="M585.37,-136.8C471,-136.8 198.65,-136.8 198.65,-136.8 198.65,-136.8 198.65,-168.8 198.65,-168.8"/>
<polygon fill="black" stroke="black" points="195.15,-168.8 198.65,-178.8 202.15,-168.8 195.15,-168.8"/>
</g>
</g>
</svg>
