<?xml version="1.0" encoding="UTF-8" standalone="no"?>
<!DOCTYPE svg PUBLIC "-//W3C//DTD SVG 1.1//EN"
 "http://www.w3.org/Graphics/SVG/1.1/DTD/svg11.dtd">
<!-- Generated by graphviz version 2.47.3 (20210619.1520)
 -->
<!-- Title: dependencies Pages: 1 -->
<svg width="498pt" height="247pt"
 viewBox="0.00 0.00 498.00 246.80" xmlns="http://www.w3.org/2000/svg" xmlns:xlink="http://www.w3.org/1999/xlink">
<g id="graph0" class="graph" transform="scale(1 1) rotate(0) translate(4 242.8)">
<title>dependencies</title>
<polygon fill="white" stroke="transparent" points="-4,4 -4,-242.8 494,-242.8 494,4 -4,4"/>
<text text-anchor="middle" x="245" y="-8.2" font-family="sans-serif" font-size="14.00">dependencies</text>
<g id="clust1" class="cluster">
<title>cluster_SharedModule</title>
<polygon fill="none" stroke="black" stroke-dasharray="1,5" points="8,-32.8 8,-230.8 482,-230.8 482,-32.8 8,-32.8"/>
</g>
<g id="clust7" class="cluster">
<title>cluster_SharedModule_exports</title>
<polygon fill="none" stroke="black" points="16,-170.8 16,-222.8 474,-222.8 474,-170.8 16,-170.8"/>
</g>
<g id="clust2" class="cluster">
<title>cluster_SharedModule_declarations</title>
<polygon fill="none" stroke="black" points="22,-40.8 22,-92.8 468,-92.8 468,-40.8 22,-40.8"/>
</g>
<!-- LoadingComponent -->
<g id="node1" class="node">
<title>LoadingComponent</title>
<polygon fill="#ffffb3" stroke="black" points="459.99,-84.8 332.01,-84.8 332.01,-48.8 459.99,-48.8 459.99,-84.8"/>
<text text-anchor="middle" x="396" y="-62.6" font-family="Times,serif" font-size="14.00">LoadingComponent</text>
</g>
<!-- SharedModule -->
<g id="node4" class="node">
<title>SharedModule</title>
<polygon fill="#8dd3c7" stroke="black" points="298.42,-149.8 295.42,-153.8 274.42,-153.8 271.42,-149.8 199.58,-149.8 199.58,-113.8 298.42,-113.8 298.42,-149.8"/>
<text text-anchor="middle" x="249" y="-127.6" font-family="Times,serif" font-size="14.00">SharedModule</text>
</g>
<!-- LoadingComponent&#45;&gt;SharedModule -->
<g id="edge1" class="edge">
<title>LoadingComponent&#45;&gt;SharedModule</title>
<path fill="none" stroke="black" d="M418.08,-84.82C418.08,-102.17 418.08,-125.8 418.08,-125.8 418.08,-125.8 308.36,-125.8 308.36,-125.8"/>
<polygon fill="black" stroke="black" points="308.36,-122.3 298.36,-125.8 308.36,-129.3 308.36,-122.3"/>
</g>
<!-- MessageComponent -->
<g id="node2" class="node">
<title>MessageComponent</title>
<polygon fill="#ffffb3" stroke="black" points="314.31,-84.8 183.69,-84.8 183.69,-48.8 314.31,-48.8 314.31,-84.8"/>
<text text-anchor="middle" x="249" y="-62.6" font-family="Times,serif" font-size="14.00">MessageComponent</text>
</g>
<!-- MessageComponent&#45;&gt;SharedModule -->
<g id="edge2" class="edge">
<title>MessageComponent&#45;&gt;SharedModule</title>
<path fill="none" stroke="black" d="M249,-84.91C249,-84.91 249,-103.79 249,-103.79"/>
<polygon fill="black" stroke="black" points="245.5,-103.79 249,-113.79 252.5,-103.79 245.5,-103.79"/>
</g>
<!-- TweetBtnComponent -->
<g id="node3" class="node">
<title>TweetBtnComponent</title>
<polygon fill="#ffffb3" stroke="black" points="166.04,-84.8 29.96,-84.8 29.96,-48.8 166.04,-48.8 166.04,-84.8"/>
<text text-anchor="middle" x="98" y="-62.6" font-family="Times,serif" font-size="14.00">TweetBtnComponent</text>
</g>
<!-- TweetBtnComponent&#45;&gt;SharedModule -->
<g id="edge3" class="edge">
<title>TweetBtnComponent&#45;&gt;SharedModule</title>
<path fill="none" stroke="black" d="M119.26,-84.82C119.26,-102.17 119.26,-125.8 119.26,-125.8 119.26,-125.8 189.58,-125.8 189.58,-125.8"/>
<polygon fill="black" stroke="black" points="189.58,-129.3 199.58,-125.8 189.58,-122.3 189.58,-129.3"/>
</g>
<!-- LoadingComponent  -->
<g id="node5" class="node">
<title>LoadingComponent </title>
<polygon fill="#fb8072" stroke="black" points="465.99,-214.8 334.01,-214.8 334.01,-178.8 465.99,-178.8 465.99,-214.8"/>
<text text-anchor="middle" x="400" y="-192.6" font-family="Times,serif" font-size="14.00">LoadingComponent </text>
</g>
<!-- SharedModule&#45;&gt;LoadingComponent  -->
<g id="edge4" class="edge">
<title>SharedModule&#45;&gt;LoadingComponent </title>
<path fill="none" stroke="black" stroke-dasharray="5,2" d="M298.53,-137.8C334.24,-137.8 376.17,-137.8 376.17,-137.8 376.17,-137.8 376.17,-168.78 376.17,-168.78"/>
<polygon fill="black" stroke="black" points="372.67,-168.78 376.17,-178.78 379.67,-168.78 372.67,-168.78"/>
</g>
<!-- MessageComponent  -->
<g id="node6" class="node">
<title>MessageComponent </title>
<polygon fill="#fb8072" stroke="black" points="315.81,-214.8 182.19,-214.8 182.19,-178.8 315.81,-178.8 315.81,-214.8"/>
<text text-anchor="middle" x="249" y="-192.6" font-family="Times,serif" font-size="14.00">MessageComponent </text>
</g>
<!-- SharedModule&#45;&gt;MessageComponent  -->
<g id="edge5" class="edge">
<title>SharedModule&#45;&gt;MessageComponent </title>
<path fill="none" stroke="black" stroke-dasharray="5,2" d="M249,-149.91C249,-149.91 249,-168.79 249,-168.79"/>
<polygon fill="black" stroke="black" points="245.5,-168.79 249,-178.79 252.5,-168.79 245.5,-168.79"/>
</g>
<!-- TweetBtnComponent  -->
<g id="node7" class="node">
<title>TweetBtnComponent </title>
<polygon fill="#fb8072" stroke="black" points="164.04,-214.8 23.96,-214.8 23.96,-178.8 164.04,-178.8 164.04,-214.8"/>
<text text-anchor="middle" x="94" y="-192.6" font-family="Times,serif" font-size="14.00">TweetBtnComponent </text>
</g>
<!-- SharedModule&#45;&gt;TweetBtnComponent  -->
<g id="edge6" class="edge">
<title>SharedModule&#45;&gt;TweetBtnComponent </title>
<path fill="none" stroke="black" stroke-dasharray="5,2" d="M199.46,-137.8C147.87,-137.8 74.49,-137.8 74.49,-137.8 74.49,-137.8 74.49,-168.78 74.49,-168.78"/>
<polygon fill="black" stroke="black" points="70.99,-168.78 74.49,-178.78 77.99,-168.78 70.99,-168.78"/>
</g>
</g>
</svg>
