<?xml version="1.0" encoding="UTF-8" standalone="no"?>
<!DOCTYPE svg PUBLIC "-//W3C//DTD SVG 1.1//EN"
 "http://www.w3.org/Graphics/SVG/1.1/DTD/svg11.dtd">
<!-- Generated by graphviz version 2.47.3 (20210619.1520)
 -->
<!-- Title: dependencies Pages: 1 -->
<svg width="1040pt" height="247pt"
 viewBox="0.00 0.00 1040.00 246.80" xmlns="http://www.w3.org/2000/svg" xmlns:xlink="http://www.w3.org/1999/xlink">
<g id="graph0" class="graph" transform="scale(1 1) rotate(0) translate(4 242.8)">
<title>dependencies</title>
<polygon fill="white" stroke="transparent" points="-4,4 -4,-242.8 1036,-242.8 1036,4 -4,4"/>
<text text-anchor="middle" x="516" y="-8.2" font-family="sans-serif" font-size="14.00">dependencies</text>
<g id="clust1" class="cluster">
<title>cluster_SharedModule</title>
<polygon fill="none" stroke="black" stroke-dasharray="1,5" points="8,-32.8 8,-230.8 1024,-230.8 1024,-32.8 8,-32.8"/>
</g>
<g id="clust11" class="cluster">
<title>cluster_SharedModule_exports</title>
<polygon fill="none" stroke="black" points="16,-170.8 16,-222.8 1016,-222.8 1016,-170.8 16,-170.8"/>
</g>
<g id="clust2" class="cluster">
<title>cluster_SharedModule_declarations</title>
<polygon fill="none" stroke="black" points="28,-40.8 28,-92.8 1005,-92.8 1005,-40.8 28,-40.8"/>
</g>
<!-- AdsComponent -->
<g id="node1" class="node">
<title>AdsComponent</title>
<polygon fill="#ffffb3" stroke="black" points="996.88,-84.8 893.12,-84.8 893.12,-48.8 996.88,-48.8 996.88,-84.8"/>
<text text-anchor="middle" x="945" y="-62.6" font-family="Times,serif" font-size="14.00">AdsComponent</text>
</g>
<!-- SharedModule -->
<g id="node8" class="node">
<title>SharedModule</title>
<polygon fill="#8dd3c7" stroke="black" points="559.42,-149.8 556.42,-153.8 535.42,-153.8 532.42,-149.8 460.58,-149.8 460.58,-113.8 559.42,-113.8 559.42,-149.8"/>
<text text-anchor="middle" x="510" y="-127.6" font-family="Times,serif" font-size="14.00">SharedModule</text>
</g>
<!-- AdsComponent&#45;&gt;SharedModule -->
<g id="edge1" class="edge">
<title>AdsComponent&#45;&gt;SharedModule</title>
<path fill="none" stroke="black" d="M896.68,-85.02C896.68,-103.63 896.68,-129.8 896.68,-129.8 896.68,-129.8 569.37,-129.8 569.37,-129.8"/>
<polygon fill="black" stroke="black" points="569.37,-126.3 559.37,-129.8 569.37,-133.3 569.37,-126.3"/>
</g>
<!-- AmazonAdsComponent -->
<g id="node2" class="node">
<title>AmazonAdsComponent</title>
<polygon fill="#ffffb3" stroke="black" points="874.81,-84.8 723.19,-84.8 723.19,-48.8 874.81,-48.8 874.81,-84.8"/>
<text text-anchor="middle" x="799" y="-62.6" font-family="Times,serif" font-size="14.00">AmazonAdsComponent</text>
</g>
<!-- AmazonAdsComponent&#45;&gt;SharedModule -->
<g id="edge2" class="edge">
<title>AmazonAdsComponent&#45;&gt;SharedModule</title>
<path fill="none" stroke="black" d="M825.63,-84.83C825.63,-101.86 825.63,-124.8 825.63,-124.8 825.63,-124.8 569.32,-124.8 569.32,-124.8"/>
<polygon fill="black" stroke="black" points="569.32,-121.3 559.32,-124.8 569.32,-128.3 569.32,-121.3"/>
</g>
<!-- LoadingComponent -->
<g id="node3" class="node">
<title>LoadingComponent</title>
<polygon fill="#ffffb3" stroke="black" points="704.99,-84.8 577.01,-84.8 577.01,-48.8 704.99,-48.8 704.99,-84.8"/>
<text text-anchor="middle" x="641" y="-62.6" font-family="Times,serif" font-size="14.00">LoadingComponent</text>
</g>
<!-- LoadingComponent&#45;&gt;SharedModule -->
<g id="edge3" class="edge">
<title>LoadingComponent&#45;&gt;SharedModule</title>
<path fill="none" stroke="black" d="M662.75,-85.04C662.75,-100.37 662.75,-119.8 662.75,-119.8 662.75,-119.8 569.59,-119.8 569.59,-119.8"/>
<polygon fill="black" stroke="black" points="569.59,-116.3 559.59,-119.8 569.59,-123.3 569.59,-116.3"/>
</g>
<!-- MdescapePipe -->
<g id="node4" class="node">
<title>MdescapePipe</title>
<polygon fill="#ffffb3" stroke="black" points="558.64,-84.8 461.36,-84.8 461.36,-48.8 558.64,-48.8 558.64,-84.8"/>
<text text-anchor="middle" x="510" y="-62.6" font-family="Times,serif" font-size="14.00">MdescapePipe</text>
</g>
<!-- MdescapePipe&#45;&gt;SharedModule -->
<g id="edge4" class="edge">
<title>MdescapePipe&#45;&gt;SharedModule</title>
<path fill="none" stroke="black" d="M510,-84.91C510,-84.91 510,-103.79 510,-103.79"/>
<polygon fill="black" stroke="black" points="506.5,-103.79 510,-113.79 513.5,-103.79 506.5,-103.79"/>
</g>
<!-- MessageComponent -->
<g id="node5" class="node">
<title>MessageComponent</title>
<polygon fill="#ffffb3" stroke="black" points="443.31,-84.8 312.69,-84.8 312.69,-48.8 443.31,-48.8 443.31,-84.8"/>
<text text-anchor="middle" x="378" y="-62.6" font-family="Times,serif" font-size="14.00">MessageComponent</text>
</g>
<!-- MessageComponent&#45;&gt;SharedModule -->
<g id="edge5" class="edge">
<title>MessageComponent&#45;&gt;SharedModule</title>
<path fill="none" stroke="black" d="M398.88,-85.04C398.88,-100.37 398.88,-119.8 398.88,-119.8 398.88,-119.8 450.62,-119.8 450.62,-119.8"/>
<polygon fill="black" stroke="black" points="450.62,-123.3 460.62,-119.8 450.62,-116.3 450.62,-123.3"/>
</g>
<!-- NavComponent -->
<g id="node6" class="node">
<title>NavComponent</title>
<polygon fill="#ffffb3" stroke="black" points="295.15,-84.8 190.85,-84.8 190.85,-48.8 295.15,-48.8 295.15,-84.8"/>
<text text-anchor="middle" x="243" y="-62.6" font-family="Times,serif" font-size="14.00">NavComponent</text>
</g>
<!-- NavComponent&#45;&gt;SharedModule -->
<g id="edge6" class="edge">
<title>NavComponent&#45;&gt;SharedModule</title>
<path fill="none" stroke="black" d="M256.94,-84.83C256.94,-101.86 256.94,-124.8 256.94,-124.8 256.94,-124.8 450.61,-124.8 450.61,-124.8"/>
<polygon fill="black" stroke="black" points="450.61,-128.3 460.61,-124.8 450.61,-121.3 450.61,-128.3"/>
</g>
<!-- TweetBtnComponent -->
<g id="node7" class="node">
<title>TweetBtnComponent</title>
<polygon fill="#ffffb3" stroke="black" points="172.04,-84.8 35.96,-84.8 35.96,-48.8 172.04,-48.8 172.04,-84.8"/>
<text text-anchor="middle" x="104" y="-62.6" font-family="Times,serif" font-size="14.00">TweetBtnComponent</text>
</g>
<!-- TweetBtnComponent&#45;&gt;SharedModule -->
<g id="edge7" class="edge">
<title>TweetBtnComponent&#45;&gt;SharedModule</title>
<path fill="none" stroke="black" d="M168.14,-85.02C168.14,-103.63 168.14,-129.8 168.14,-129.8 168.14,-129.8 450.66,-129.8 450.66,-129.8"/>
<polygon fill="black" stroke="black" points="450.66,-133.3 460.66,-129.8 450.66,-126.3 450.66,-133.3"/>
</g>
<!-- AdsComponent  -->
<g id="node9" class="node">
<title>AdsComponent </title>
<polygon fill="#fb8072" stroke="black" points="1007.88,-214.8 900.12,-214.8 900.12,-178.8 1007.88,-178.8 1007.88,-214.8"/>
<text text-anchor="middle" x="954" y="-192.6" font-family="Times,serif" font-size="14.00">AdsComponent </text>
</g>
<!-- SharedModule&#45;&gt;AdsComponent  -->
<g id="edge8" class="edge">
<title>SharedModule&#45;&gt;AdsComponent </title>
<path fill="none" stroke="black" stroke-dasharray="5,2" d="M559.46,-134.8C674.17,-134.8 948.62,-134.8 948.62,-134.8 948.62,-134.8 948.62,-168.53 948.62,-168.53"/>
<polygon fill="black" stroke="black" points="945.13,-168.53 948.62,-178.53 952.13,-168.53 945.13,-168.53"/>
</g>
<!-- AmazonAdsComponent  -->
<g id="node10" class="node">
<title>AmazonAdsComponent </title>
<polygon fill="#fb8072" stroke="black" points="882.31,-214.8 727.69,-214.8 727.69,-178.8 882.31,-178.8 882.31,-214.8"/>
<text text-anchor="middle" x="805" y="-192.6" font-family="Times,serif" font-size="14.00">AmazonAdsComponent </text>
</g>
<!-- SharedModule&#45;&gt;AmazonAdsComponent  -->
<g id="edge9" class="edge">
<title>SharedModule&#45;&gt;AmazonAdsComponent </title>
<path fill="none" stroke="black" stroke-dasharray="5,2" d="M559.21,-139.8C636.25,-139.8 776.62,-139.8 776.62,-139.8 776.62,-139.8 776.62,-168.76 776.62,-168.76"/>
<polygon fill="black" stroke="black" points="773.12,-168.76 776.62,-178.76 780.12,-168.76 773.12,-168.76"/>
</g>
<!-- LoadingComponent  -->
<g id="node11" class="node">
<title>LoadingComponent </title>
<polygon fill="#fb8072" stroke="black" points="709.99,-214.8 578.01,-214.8 578.01,-178.8 709.99,-178.8 709.99,-214.8"/>
<text text-anchor="middle" x="644" y="-192.6" font-family="Times,serif" font-size="14.00">LoadingComponent </text>
</g>
<!-- SharedModule&#45;&gt;LoadingComponent  -->
<g id="edge10" class="edge">
<title>SharedModule&#45;&gt;LoadingComponent </title>
<path fill="none" stroke="black" stroke-dasharray="5,2" d="M559.43,-144.8C588.85,-144.8 620.5,-144.8 620.5,-144.8 620.5,-144.8 620.5,-168.61 620.5,-168.61"/>
<polygon fill="black" stroke="black" points="617,-168.61 620.5,-178.61 624,-168.61 617,-168.61"/>
</g>
<!-- MdescapePipe  -->
<g id="node12" class="node">
<title>MdescapePipe </title>
<polygon fill="#fb8072" stroke="black" points="560.64,-214.8 459.36,-214.8 459.36,-178.8 560.64,-178.8 560.64,-214.8"/>
<text text-anchor="middle" x="510" y="-192.6" font-family="Times,serif" font-size="14.00">MdescapePipe </text>
</g>
<!-- SharedModule&#45;&gt;MdescapePipe  -->
<g id="edge11" class="edge">
<title>SharedModule&#45;&gt;MdescapePipe </title>
<path fill="none" stroke="black" stroke-dasharray="5,2" d="M510,-149.91C510,-149.91 510,-168.79 510,-168.79"/>
<polygon fill="black" stroke="black" points="506.5,-168.79 510,-178.79 513.5,-168.79 506.5,-168.79"/>
</g>
<!-- MessageComponent  -->
<g id="node13" class="node">
<title>MessageComponent </title>
<polygon fill="#fb8072" stroke="black" points="441.81,-214.8 308.19,-214.8 308.19,-178.8 441.81,-178.8 441.81,-214.8"/>
<text text-anchor="middle" x="375" y="-192.6" font-family="Times,serif" font-size="14.00">MessageComponent </text>
</g>
<!-- SharedModule&#45;&gt;MessageComponent  -->
<g id="edge12" class="edge">
<title>SharedModule&#45;&gt;MessageComponent </title>
<path fill="none" stroke="black" stroke-dasharray="5,2" d="M460.38,-144.8C415.32,-144.8 355.87,-144.8 355.87,-144.8 355.87,-144.8 355.87,-168.61 355.87,-168.61"/>
<polygon fill="black" stroke="black" points="352.37,-168.61 355.87,-178.61 359.37,-168.61 352.37,-168.61"/>
</g>
<!-- NavComponent  -->
<g id="node14" class="node">
<title>NavComponent </title>
<polygon fill="#fb8072" stroke="black" points="290.15,-214.8 181.85,-214.8 181.85,-178.8 290.15,-178.8 290.15,-214.8"/>
<text text-anchor="middle" x="236" y="-192.6" font-family="Times,serif" font-size="14.00">NavComponent </text>
</g>
<!-- SharedModule&#45;&gt;NavComponent  -->
<g id="edge13" class="edge">
<title>SharedModule&#45;&gt;NavComponent </title>
<path fill="none" stroke="black" stroke-dasharray="5,2" d="M460.48,-139.8C378.56,-139.8 223.81,-139.8 223.81,-139.8 223.81,-139.8 223.81,-168.76 223.81,-168.76"/>
<polygon fill="black" stroke="black" points="220.31,-168.76 223.81,-178.76 227.31,-168.76 220.31,-168.76"/>
</g>
<!-- TweetBtnComponent  -->
<g id="node15" class="node">
<title>TweetBtnComponent </title>
<polygon fill="#fb8072" stroke="black" points="164.04,-214.8 23.96,-214.8 23.96,-178.8 164.04,-178.8 164.04,-214.8"/>
<text text-anchor="middle" x="94" y="-192.6" font-family="Times,serif" font-size="14.00">TweetBtnComponent </text>
</g>
<!-- SharedModule&#45;&gt;TweetBtnComponent  -->
<g id="edge14" class="edge">
<title>SharedModule&#45;&gt;TweetBtnComponent </title>
<path fill="none" stroke="black" stroke-dasharray="5,2" d="M460.53,-134.8C351.45,-134.8 99.88,-134.8 99.88,-134.8 99.88,-134.8 99.88,-168.53 99.88,-168.53"/>
<polygon fill="black" stroke="black" points="96.38,-168.53 99.88,-178.53 103.38,-168.53 96.38,-168.53"/>
</g>
</g>
</svg>
