<?xml version="1.0" encoding="UTF-8" standalone="no"?>
<!DOCTYPE svg PUBLIC "-//W3C//DTD SVG 1.1//EN"
 "http://www.w3.org/Graphics/SVG/1.1/DTD/svg11.dtd">
<!-- Generated by graphviz version 2.47.3 (20210619.1520)
 -->
<!-- Title: dependencies Pages: 1 -->
<svg width="1202pt" height="247pt"
 viewBox="0.00 0.00 1202.00 246.80" xmlns="http://www.w3.org/2000/svg" xmlns:xlink="http://www.w3.org/1999/xlink">
<g id="graph0" class="graph" transform="scale(1 1) rotate(0) translate(4 242.8)">
<title>dependencies</title>
<polygon fill="white" stroke="transparent" points="-4,4 -4,-242.8 1198,-242.8 1198,4 -4,4"/>
<text text-anchor="middle" x="597" y="-8.2" font-family="sans-serif" font-size="14.00">dependencies</text>
<g id="clust1" class="cluster">
<title>cluster_SharedModule</title>
<polygon fill="none" stroke="black" stroke-dasharray="1,5" points="8,-32.8 8,-230.8 1186,-230.8 1186,-32.8 8,-32.8"/>
</g>
<g id="clust12" class="cluster">
<title>cluster_SharedModule_exports</title>
<polygon fill="none" stroke="black" points="16,-170.8 16,-222.8 1178,-222.8 1178,-170.8 16,-170.8"/>
</g>
<g id="clust2" class="cluster">
<title>cluster_SharedModule_declarations</title>
<polygon fill="none" stroke="black" points="32,-40.8 32,-92.8 1167,-92.8 1167,-40.8 32,-40.8"/>
</g>
<!-- AdsComponent -->
<g id="node1" class="node">
<title>AdsComponent</title>
<polygon fill="#ffffb3" stroke="black" points="1158.88,-84.8 1055.12,-84.8 1055.12,-48.8 1158.88,-48.8 1158.88,-84.8"/>
<text text-anchor="middle" x="1107" y="-62.6" font-family="Times,serif" font-size="14.00">AdsComponent</text>
</g>
<!-- SharedModule -->
<g id="node9" class="node">
<title>SharedModule</title>
<polygon fill="#8dd3c7" stroke="black" points="569.42,-149.8 566.42,-153.8 545.42,-153.8 542.42,-149.8 470.58,-149.8 470.58,-113.8 569.42,-113.8 569.42,-149.8"/>
<text text-anchor="middle" x="520" y="-127.6" font-family="Times,serif" font-size="14.00">SharedModule</text>
</g>
<!-- AdsComponent&#45;&gt;SharedModule -->
<g id="edge1" class="edge">
<title>AdsComponent&#45;&gt;SharedModule</title>
<path fill="none" stroke="black" d="M1058.68,-84.91C1058.68,-104.14 1058.68,-131.8 1058.68,-131.8 1058.68,-131.8 579.23,-131.8 579.23,-131.8"/>
<polygon fill="black" stroke="black" points="579.23,-128.3 569.23,-131.8 579.23,-135.3 579.23,-128.3"/>
</g>
<!-- AdsModalComponent -->
<g id="node2" class="node">
<title>AdsModalComponent</title>
<polygon fill="#ffffb3" stroke="black" points="1037.43,-84.8 896.57,-84.8 896.57,-48.8 1037.43,-48.8 1037.43,-84.8"/>
<text text-anchor="middle" x="967" y="-62.6" font-family="Times,serif" font-size="14.00">AdsModalComponent</text>
</g>
<!-- AdsModalComponent&#45;&gt;SharedModule -->
<g id="edge2" class="edge">
<title>AdsModalComponent&#45;&gt;SharedModule</title>
<path fill="none" stroke="black" d="M991.49,-85.1C991.49,-103.07 991.49,-127.8 991.49,-127.8 991.49,-127.8 579.57,-127.8 579.57,-127.8"/>
<polygon fill="black" stroke="black" points="579.57,-124.3 569.57,-127.8 579.57,-131.3 579.57,-124.3"/>
</g>
<!-- AmazonAdsComponent -->
<g id="node3" class="node">
<title>AmazonAdsComponent</title>
<polygon fill="#ffffb3" stroke="black" points="878.81,-84.8 727.19,-84.8 727.19,-48.8 878.81,-48.8 878.81,-84.8"/>
<text text-anchor="middle" x="803" y="-62.6" font-family="Times,serif" font-size="14.00">AmazonAdsComponent</text>
</g>
<!-- AmazonAdsComponent&#45;&gt;SharedModule -->
<g id="edge3" class="edge">
<title>AmazonAdsComponent&#45;&gt;SharedModule</title>
<path fill="none" stroke="black" d="M828.3,-84.83C828.3,-101.2 828.3,-122.8 828.3,-122.8 828.3,-122.8 579.53,-122.8 579.53,-122.8"/>
<polygon fill="black" stroke="black" points="579.53,-119.3 569.53,-122.8 579.53,-126.3 579.53,-119.3"/>
</g>
<!-- LoadingComponent -->
<g id="node4" class="node">
<title>LoadingComponent</title>
<polygon fill="#ffffb3" stroke="black" points="708.99,-84.8 581.01,-84.8 581.01,-48.8 708.99,-48.8 708.99,-84.8"/>
<text text-anchor="middle" x="645" y="-62.6" font-family="Times,serif" font-size="14.00">LoadingComponent</text>
</g>
<!-- LoadingComponent&#45;&gt;SharedModule -->
<g id="edge4" class="edge">
<title>LoadingComponent&#45;&gt;SharedModule</title>
<path fill="none" stroke="black" d="M645,-84.99C645,-99.98 645,-118.8 645,-118.8 645,-118.8 579.4,-118.8 579.4,-118.8"/>
<polygon fill="black" stroke="black" points="579.4,-115.3 569.4,-118.8 579.4,-122.3 579.4,-115.3"/>
</g>
<!-- MdescapePipe -->
<g id="node5" class="node">
<title>MdescapePipe</title>
<polygon fill="#ffffb3" stroke="black" points="562.64,-84.8 465.36,-84.8 465.36,-48.8 562.64,-48.8 562.64,-84.8"/>
<text text-anchor="middle" x="514" y="-62.6" font-family="Times,serif" font-size="14.00">MdescapePipe</text>
</g>
<!-- MdescapePipe&#45;&gt;SharedModule -->
<g id="edge5" class="edge">
<title>MdescapePipe&#45;&gt;SharedModule</title>
<path fill="none" stroke="black" d="M516.8,-84.91C516.8,-84.91 516.8,-103.79 516.8,-103.79"/>
<polygon fill="black" stroke="black" points="513.3,-103.79 516.8,-113.79 520.3,-103.79 513.3,-103.79"/>
</g>
<!-- MessageComponent -->
<g id="node6" class="node">
<title>MessageComponent</title>
<polygon fill="#ffffb3" stroke="black" points="447.31,-84.8 316.69,-84.8 316.69,-48.8 447.31,-48.8 447.31,-84.8"/>
<text text-anchor="middle" x="382" y="-62.6" font-family="Times,serif" font-size="14.00">MessageComponent</text>
</g>
<!-- MessageComponent&#45;&gt;SharedModule -->
<g id="edge6" class="edge">
<title>MessageComponent&#45;&gt;SharedModule</title>
<path fill="none" stroke="black" d="M400.22,-85.04C400.22,-100.37 400.22,-119.8 400.22,-119.8 400.22,-119.8 460.59,-119.8 460.59,-119.8"/>
<polygon fill="black" stroke="black" points="460.59,-123.3 470.59,-119.8 460.59,-116.3 460.59,-123.3"/>
</g>
<!-- NavComponent -->
<g id="node7" class="node">
<title>NavComponent</title>
<polygon fill="#ffffb3" stroke="black" points="299.15,-84.8 194.85,-84.8 194.85,-48.8 299.15,-48.8 299.15,-84.8"/>
<text text-anchor="middle" x="247" y="-62.6" font-family="Times,serif" font-size="14.00">NavComponent</text>
</g>
<!-- NavComponent&#45;&gt;SharedModule -->
<g id="edge7" class="edge">
<title>NavComponent&#45;&gt;SharedModule</title>
<path fill="none" stroke="black" d="M294.7,-84.83C294.7,-101.86 294.7,-124.8 294.7,-124.8 294.7,-124.8 460.56,-124.8 460.56,-124.8"/>
<polygon fill="black" stroke="black" points="460.56,-128.3 470.56,-124.8 460.56,-121.3 460.56,-128.3"/>
</g>
<!-- TweetBtnComponent -->
<g id="node8" class="node">
<title>TweetBtnComponent</title>
<polygon fill="#ffffb3" stroke="black" points="176.04,-84.8 39.96,-84.8 39.96,-48.8 176.04,-48.8 176.04,-84.8"/>
<text text-anchor="middle" x="108" y="-62.6" font-family="Times,serif" font-size="14.00">TweetBtnComponent</text>
</g>
<!-- TweetBtnComponent&#45;&gt;SharedModule -->
<g id="edge8" class="edge">
<title>TweetBtnComponent&#45;&gt;SharedModule</title>
<path fill="none" stroke="black" d="M170.14,-85.02C170.14,-103.63 170.14,-129.8 170.14,-129.8 170.14,-129.8 460.62,-129.8 460.62,-129.8"/>
<polygon fill="black" stroke="black" points="460.62,-133.3 470.62,-129.8 460.62,-126.3 460.62,-133.3"/>
</g>
<!-- AdsComponent  -->
<g id="node10" class="node">
<title>AdsComponent </title>
<polygon fill="#fb8072" stroke="black" points="1169.88,-214.8 1062.12,-214.8 1062.12,-178.8 1169.88,-178.8 1169.88,-214.8"/>
<text text-anchor="middle" x="1116" y="-192.6" font-family="Times,serif" font-size="14.00">AdsComponent </text>
</g>
<!-- SharedModule&#45;&gt;AdsComponent  -->
<g id="edge9" class="edge">
<title>SharedModule&#45;&gt;AdsComponent </title>
<path fill="none" stroke="black" stroke-dasharray="5,2" d="M569.34,-136.8C711.29,-136.8 1110.62,-136.8 1110.62,-136.8 1110.62,-136.8 1110.62,-168.8 1110.62,-168.8"/>
<polygon fill="black" stroke="black" points="1107.13,-168.8 1110.62,-178.8 1114.13,-168.8 1107.13,-168.8"/>
</g>
<!-- AdsModalComponent  -->
<g id="node11" class="node">
<title>AdsModalComponent </title>
<polygon fill="#fb8072" stroke="black" points="1043.93,-214.8 900.07,-214.8 900.07,-178.8 1043.93,-178.8 1043.93,-214.8"/>
<text text-anchor="middle" x="972" y="-192.6" font-family="Times,serif" font-size="14.00">AdsModalComponent </text>
</g>
<!-- SharedModule&#45;&gt;AdsModalComponent  -->
<g id="edge10" class="edge">
<title>SharedModule&#45;&gt;AdsModalComponent </title>
<path fill="none" stroke="black" stroke-dasharray="5,2" d="M569.26,-140.8C681.33,-140.8 945.76,-140.8 945.76,-140.8 945.76,-140.8 945.76,-168.77 945.76,-168.77"/>
<polygon fill="black" stroke="black" points="942.26,-168.77 945.76,-178.77 949.26,-168.77 942.26,-168.77"/>
</g>
<!-- AmazonAdsComponent  -->
<g id="node12" class="node">
<title>AmazonAdsComponent </title>
<polygon fill="#fb8072" stroke="black" points="882.31,-214.8 727.69,-214.8 727.69,-178.8 882.31,-178.8 882.31,-214.8"/>
<text text-anchor="middle" x="805" y="-192.6" font-family="Times,serif" font-size="14.00">AmazonAdsComponent </text>
</g>
<!-- SharedModule&#45;&gt;AmazonAdsComponent  -->
<g id="edge11" class="edge">
<title>SharedModule&#45;&gt;AmazonAdsComponent </title>
<path fill="none" stroke="black" stroke-dasharray="5,2" d="M569.43,-145.8C644.33,-145.8 777.95,-145.8 777.95,-145.8 777.95,-145.8 777.95,-168.68 777.95,-168.68"/>
<polygon fill="black" stroke="black" points="774.45,-168.68 777.95,-178.68 781.45,-168.68 774.45,-168.68"/>
</g>
<!-- LoadingComponent  -->
<g id="node13" class="node">
<title>LoadingComponent </title>
<polygon fill="#fb8072" stroke="black" points="709.99,-214.8 578.01,-214.8 578.01,-178.8 709.99,-178.8 709.99,-214.8"/>
<text text-anchor="middle" x="644" y="-192.6" font-family="Times,serif" font-size="14.00">LoadingComponent </text>
</g>
<!-- SharedModule&#45;&gt;LoadingComponent  -->
<g id="edge12" class="edge">
<title>SharedModule&#45;&gt;LoadingComponent </title>
<path fill="none" stroke="black" stroke-dasharray="5,2" d="M564.89,-149.91C564.89,-169.14 564.89,-196.8 564.89,-196.8 564.89,-196.8 567.95,-196.8 567.95,-196.8"/>
<polygon fill="black" stroke="black" points="567.95,-200.3 577.95,-196.8 567.95,-193.3 567.95,-200.3"/>
</g>
<!-- MdescapePipe  -->
<g id="node14" class="node">
<title>MdescapePipe </title>
<polygon fill="#fb8072" stroke="black" points="560.64,-214.8 459.36,-214.8 459.36,-178.8 560.64,-178.8 560.64,-214.8"/>
<text text-anchor="middle" x="510" y="-192.6" font-family="Times,serif" font-size="14.00">MdescapePipe </text>
</g>
<!-- SharedModule&#45;&gt;MdescapePipe  -->
<g id="edge13" class="edge">
<title>SharedModule&#45;&gt;MdescapePipe </title>
<path fill="none" stroke="black" stroke-dasharray="5,2" d="M515.68,-149.91C515.68,-149.91 515.68,-168.79 515.68,-168.79"/>
<polygon fill="black" stroke="black" points="512.18,-168.79 515.68,-178.79 519.18,-168.79 512.18,-168.79"/>
</g>
<!-- MessageComponent  -->
<g id="node15" class="node">
<title>MessageComponent </title>
<polygon fill="#fb8072" stroke="black" points="441.81,-214.8 308.19,-214.8 308.19,-178.8 441.81,-178.8 441.81,-214.8"/>
<text text-anchor="middle" x="375" y="-192.6" font-family="Times,serif" font-size="14.00">MessageComponent </text>
</g>
<!-- SharedModule&#45;&gt;MessageComponent  -->
<g id="edge14" class="edge">
<title>SharedModule&#45;&gt;MessageComponent </title>
<path fill="none" stroke="black" stroke-dasharray="5,2" d="M470.68,-144.8C423.19,-144.8 358.53,-144.8 358.53,-144.8 358.53,-144.8 358.53,-168.61 358.53,-168.61"/>
<polygon fill="black" stroke="black" points="355.03,-168.61 358.53,-178.61 362.03,-168.61 355.03,-168.61"/>
</g>
<!-- NavComponent  -->
<g id="node16" class="node">
<title>NavComponent </title>
<polygon fill="#fb8072" stroke="black" points="290.15,-214.8 181.85,-214.8 181.85,-178.8 290.15,-178.8 290.15,-214.8"/>
<text text-anchor="middle" x="236" y="-192.6" font-family="Times,serif" font-size="14.00">NavComponent </text>
</g>
<!-- SharedModule&#45;&gt;NavComponent  -->
<g id="edge15" class="edge">
<title>SharedModule&#45;&gt;NavComponent </title>
<path fill="none" stroke="black" stroke-dasharray="5,2" d="M470.69,-139.8C390.91,-139.8 242.38,-139.8 242.38,-139.8 242.38,-139.8 242.38,-168.76 242.38,-168.76"/>
<polygon fill="black" stroke="black" points="238.88,-168.76 242.38,-178.76 245.88,-168.76 238.88,-168.76"/>
</g>
<!-- TweetBtnComponent  -->
<g id="node17" class="node">
<title>TweetBtnComponent </title>
<polygon fill="#fb8072" stroke="black" points="164.04,-214.8 23.96,-214.8 23.96,-178.8 164.04,-178.8 164.04,-214.8"/>
<text text-anchor="middle" x="94" y="-192.6" font-family="Times,serif" font-size="14.00">TweetBtnComponent </text>
</g>
<!-- SharedModule&#45;&gt;TweetBtnComponent  -->
<g id="edge16" class="edge">
<title>SharedModule&#45;&gt;TweetBtnComponent </title>
<path fill="none" stroke="black" stroke-dasharray="5,2" d="M470.39,-134.8C359.64,-134.8 101.88,-134.8 101.88,-134.8 101.88,-134.8 101.88,-168.53 101.88,-168.53"/>
<polygon fill="black" stroke="black" points="98.38,-168.53 101.88,-178.53 105.38,-168.53 98.38,-168.53"/>
</g>
</g>
</svg>
