<?xml version="1.0" encoding="UTF-8" standalone="no"?>
<!DOCTYPE svg PUBLIC "-//W3C//DTD SVG 1.1//EN"
 "http://www.w3.org/Graphics/SVG/1.1/DTD/svg11.dtd">
<!-- Generated by graphviz version 3.0.0 (20220226.1711)
 -->
<!-- Title: dependencies Pages: 1 -->
<svg width="1697pt" height="247pt"
 viewBox="0.00 0.00 1697.00 246.80" xmlns="http://www.w3.org/2000/svg" xmlns:xlink="http://www.w3.org/1999/xlink">
<g id="graph0" class="graph" transform="scale(1 1) rotate(0) translate(4 242.8)">
<title>dependencies</title>
<polygon fill="white" stroke="transparent" points="-4,4 -4,-242.8 1693,-242.8 1693,4 -4,4"/>
<text text-anchor="middle" x="844.5" y="-8.2" font-family="sans-serif" font-size="14.00">dependencies</text>
<g id="clust1" class="cluster">
<title>cluster_SharedModule</title>
<polygon fill="none" stroke="black" stroke-dasharray="1,5" points="8,-32.8 8,-230.8 1681,-230.8 1681,-32.8 8,-32.8"/>
</g>
<g id="clust16" class="cluster">
<title>cluster_SharedModule_exports</title>
<polygon fill="none" stroke="black" points="66,-170.8 66,-222.8 1623,-222.8 1623,-170.8 66,-170.8"/>
</g>
<g id="clust2" class="cluster">
<title>cluster_SharedModule_declarations</title>
<polygon fill="none" stroke="black" points="16,-40.8 16,-92.8 1673,-92.8 1673,-40.8 16,-40.8"/>
</g>
<!-- AdsComponent -->
<g id="node1" class="node">
<title>AdsComponent</title>
<polygon fill="#ffffb3" stroke="black" points="1664.89,-84.8 1561.11,-84.8 1561.11,-48.8 1664.89,-48.8 1664.89,-84.8"/>
<text text-anchor="middle" x="1613" y="-62.6" font-family="Times,serif" font-size="14.00">AdsComponent</text>
</g>
<!-- SharedModule -->
<g id="node13" class="node">
<title>SharedModule</title>
<polygon fill="#8dd3c7" stroke="black" points="851.43,-149.8 848.43,-153.8 827.43,-153.8 824.43,-149.8 752.57,-149.8 752.57,-113.8 851.43,-113.8 851.43,-149.8"/>
<text text-anchor="middle" x="802" y="-127.6" font-family="Times,serif" font-size="14.00">SharedModule</text>
</g>
<!-- AdsComponent&#45;&gt;SharedModule -->
<g id="edge1" class="edge">
<title>AdsComponent&#45;&gt;SharedModule</title>
<path fill="none" stroke="black" d="M1587.88,-84.97C1587.88,-103.89 1587.88,-130.8 1587.88,-130.8 1587.88,-130.8 861.46,-130.8 861.46,-130.8"/>
<polygon fill="black" stroke="black" points="861.46,-127.3 851.46,-130.8 861.46,-134.3 861.46,-127.3"/>
</g>
<!-- AdsModalComponent -->
<g id="node2" class="node">
<title>AdsModalComponent</title>
<polygon fill="#ffffb3" stroke="black" points="1543.44,-84.8 1402.56,-84.8 1402.56,-48.8 1543.44,-48.8 1543.44,-84.8"/>
<text text-anchor="middle" x="1473" y="-62.6" font-family="Times,serif" font-size="14.00">AdsModalComponent</text>
</g>
<!-- AdsModalComponent&#45;&gt;SharedModule -->
<g id="edge2" class="edge">
<title>AdsModalComponent&#45;&gt;SharedModule</title>
<path fill="none" stroke="black" d="M1445.88,-85.1C1445.88,-103.07 1445.88,-127.8 1445.88,-127.8 1445.88,-127.8 861.45,-127.8 861.45,-127.8"/>
<polygon fill="black" stroke="black" points="861.45,-124.3 851.45,-127.8 861.45,-131.3 861.45,-124.3"/>
</g>
<!-- AmazonAdsComponent -->
<g id="node3" class="node">
<title>AmazonAdsComponent</title>
<polygon fill="#ffffb3" stroke="black" points="1384.82,-84.8 1233.18,-84.8 1233.18,-48.8 1384.82,-48.8 1384.82,-84.8"/>
<text text-anchor="middle" x="1309" y="-62.6" font-family="Times,serif" font-size="14.00">AmazonAdsComponent</text>
</g>
<!-- AmazonAdsComponent&#45;&gt;SharedModule -->
<g id="edge3" class="edge">
<title>AmazonAdsComponent&#45;&gt;SharedModule</title>
<path fill="none" stroke="black" d="M1280.38,-84.84C1280.38,-101.53 1280.38,-123.8 1280.38,-123.8 1280.38,-123.8 861.39,-123.8 861.39,-123.8"/>
<polygon fill="black" stroke="black" points="861.39,-120.3 851.39,-123.8 861.39,-127.3 861.39,-120.3"/>
</g>
<!-- LazyImgComponent -->
<g id="node4" class="node">
<title>LazyImgComponent</title>
<polygon fill="#ffffb3" stroke="black" points="1214.86,-84.8 1083.14,-84.8 1083.14,-48.8 1214.86,-48.8 1214.86,-84.8"/>
<text text-anchor="middle" x="1149" y="-62.6" font-family="Times,serif" font-size="14.00">LazyImgComponent</text>
</g>
<!-- LazyImgComponent&#45;&gt;SharedModule -->
<g id="edge4" class="edge">
<title>LazyImgComponent&#45;&gt;SharedModule</title>
<path fill="none" stroke="black" d="M1118.88,-85.08C1118.88,-100.75 1118.88,-120.8 1118.88,-120.8 1118.88,-120.8 861.51,-120.8 861.51,-120.8"/>
<polygon fill="black" stroke="black" points="861.51,-117.3 851.51,-120.8 861.51,-124.3 861.51,-117.3"/>
</g>
<!-- LoadingComponent -->
<g id="node5" class="node">
<title>LoadingComponent</title>
<polygon fill="#ffffb3" stroke="black" points="1064.99,-84.8 937.01,-84.8 937.01,-48.8 1064.99,-48.8 1064.99,-84.8"/>
<text text-anchor="middle" x="1001" y="-62.6" font-family="Times,serif" font-size="14.00">LoadingComponent</text>
</g>
<!-- LoadingComponent&#45;&gt;SharedModule -->
<g id="edge5" class="edge">
<title>LoadingComponent&#45;&gt;SharedModule</title>
<path fill="none" stroke="black" d="M969.38,-84.92C969.38,-99.58 969.38,-117.8 969.38,-117.8 969.38,-117.8 861.31,-117.8 861.31,-117.8"/>
<polygon fill="black" stroke="black" points="861.31,-114.3 851.31,-117.8 861.31,-121.3 861.31,-114.3"/>
</g>
<!-- MdescapePipe -->
<g id="node6" class="node">
<title>MdescapePipe</title>
<polygon fill="#ffffb3" stroke="black" points="918.64,-84.8 821.36,-84.8 821.36,-48.8 918.64,-48.8 918.64,-84.8"/>
<text text-anchor="middle" x="870" y="-62.6" font-family="Times,serif" font-size="14.00">MdescapePipe</text>
</g>
<!-- MdescapePipe&#45;&gt;SharedModule -->
<g id="edge6" class="edge">
<title>MdescapePipe&#45;&gt;SharedModule</title>
<path fill="none" stroke="black" d="M836.2,-84.91C836.2,-84.91 836.2,-103.79 836.2,-103.79"/>
<polygon fill="black" stroke="black" points="832.7,-103.79 836.2,-113.79 839.7,-103.79 832.7,-103.79"/>
</g>
<!-- MessageComponent -->
<g id="node7" class="node">
<title>MessageComponent</title>
<polygon fill="#ffffb3" stroke="black" points="803.32,-84.8 672.68,-84.8 672.68,-48.8 803.32,-48.8 803.32,-84.8"/>
<text text-anchor="middle" x="738" y="-62.6" font-family="Times,serif" font-size="14.00">MessageComponent</text>
</g>
<!-- MessageComponent&#45;&gt;SharedModule -->
<g id="edge7" class="edge">
<title>MessageComponent&#45;&gt;SharedModule</title>
<path fill="none" stroke="black" d="M777.97,-84.91C777.97,-84.91 777.97,-103.79 777.97,-103.79"/>
<polygon fill="black" stroke="black" points="774.47,-103.79 777.97,-113.79 781.47,-103.79 774.47,-103.79"/>
</g>
<!-- NavComponent -->
<g id="node8" class="node">
<title>NavComponent</title>
<polygon fill="#ffffb3" stroke="black" points="655.16,-84.8 550.84,-84.8 550.84,-48.8 655.16,-48.8 655.16,-84.8"/>
<text text-anchor="middle" x="603" y="-62.6" font-family="Times,serif" font-size="14.00">NavComponent</text>
</g>
<!-- NavComponent&#45;&gt;SharedModule -->
<g id="edge8" class="edge">
<title>NavComponent&#45;&gt;SharedModule</title>
<path fill="none" stroke="black" d="M627.71,-84.92C627.71,-99.58 627.71,-117.8 627.71,-117.8 627.71,-117.8 742.52,-117.8 742.52,-117.8"/>
<polygon fill="black" stroke="black" points="742.52,-121.3 752.52,-117.8 742.52,-114.3 742.52,-121.3"/>
</g>
<!-- NewsbarComponent -->
<g id="node9" class="node">
<title>NewsbarComponent</title>
<polygon fill="#ffffb3" stroke="black" points="532.59,-84.8 401.41,-84.8 401.41,-48.8 532.59,-48.8 532.59,-84.8"/>
<text text-anchor="middle" x="467" y="-62.6" font-family="Times,serif" font-size="14.00">NewsbarComponent</text>
</g>
<!-- NewsbarComponent&#45;&gt;SharedModule -->
<g id="edge9" class="edge">
<title>NewsbarComponent&#45;&gt;SharedModule</title>
<path fill="none" stroke="black" d="M503.23,-85.08C503.23,-100.75 503.23,-120.8 503.23,-120.8 503.23,-120.8 742.66,-120.8 742.66,-120.8"/>
<polygon fill="black" stroke="black" points="742.66,-124.3 752.66,-120.8 742.66,-117.3 742.66,-124.3"/>
</g>
<!-- ProfileComponent -->
<g id="node10" class="node">
<title>ProfileComponent</title>
<polygon fill="#ffffb3" stroke="black" points="383.94,-84.8 264.06,-84.8 264.06,-48.8 383.94,-48.8 383.94,-84.8"/>
<text text-anchor="middle" x="324" y="-62.6" font-family="Times,serif" font-size="14.00">ProfileComponent</text>
</g>
<!-- ProfileComponent&#45;&gt;SharedModule -->
<g id="edge10" class="edge">
<title>ProfileComponent&#45;&gt;SharedModule</title>
<path fill="none" stroke="black" d="M352.71,-84.84C352.71,-101.53 352.71,-123.8 352.71,-123.8 352.71,-123.8 742.63,-123.8 742.63,-123.8"/>
<polygon fill="black" stroke="black" points="742.63,-127.3 752.63,-123.8 742.63,-120.3 742.63,-127.3"/>
</g>
<!-- TweetBtnComponent -->
<g id="node11" class="node">
<title>TweetBtnComponent</title>
<polygon fill="#ffffb3" stroke="black" points="246.04,-84.8 109.96,-84.8 109.96,-48.8 246.04,-48.8 246.04,-84.8"/>
<text text-anchor="middle" x="178" y="-62.6" font-family="Times,serif" font-size="14.00">TweetBtnComponent</text>
</g>
<!-- TweetBtnComponent&#45;&gt;SharedModule -->
<g id="edge11" class="edge">
<title>TweetBtnComponent&#45;&gt;SharedModule</title>
<path fill="none" stroke="black" d="M205.12,-85.1C205.12,-103.07 205.12,-127.8 205.12,-127.8 205.12,-127.8 742.65,-127.8 742.65,-127.8"/>
<polygon fill="black" stroke="black" points="742.65,-131.3 752.65,-127.8 742.65,-124.3 742.65,-131.3"/>
</g>
<!-- YearPipe -->
<g id="node12" class="node">
<title>YearPipe</title>
<polygon fill="#ffffb3" stroke="black" points="92.09,-84.8 23.91,-84.8 23.91,-48.8 92.09,-48.8 92.09,-84.8"/>
<text text-anchor="middle" x="58" y="-62.6" font-family="Times,serif" font-size="14.00">YearPipe</text>
</g>
<!-- YearPipe&#45;&gt;SharedModule -->
<g id="edge12" class="edge">
<title>YearPipe&#45;&gt;SharedModule</title>
<path fill="none" stroke="black" d="M83.12,-84.97C83.12,-103.89 83.12,-130.8 83.12,-130.8 83.12,-130.8 742.59,-130.8 742.59,-130.8"/>
<polygon fill="black" stroke="black" points="742.59,-134.3 752.59,-130.8 742.59,-127.3 742.59,-134.3"/>
</g>
<!-- AdsComponent  -->
<g id="node14" class="node">
<title>AdsComponent </title>
<polygon fill="#fb8072" stroke="black" points="1614.89,-214.8 1507.11,-214.8 1507.11,-178.8 1614.89,-178.8 1614.89,-214.8"/>
<text text-anchor="middle" x="1561" y="-192.6" font-family="Times,serif" font-size="14.00">AdsComponent </text>
</g>
<!-- SharedModule&#45;&gt;AdsComponent  -->
<g id="edge13" class="edge">
<title>SharedModule&#45;&gt;AdsComponent </title>
<path fill="none" stroke="black" stroke-dasharray="5,2" d="M851.43,-133.8C1014.53,-133.8 1525.26,-133.8 1525.26,-133.8 1525.26,-133.8 1525.26,-168.58 1525.26,-168.58"/>
<polygon fill="black" stroke="black" points="1521.76,-168.58 1525.26,-178.58 1528.76,-168.58 1521.76,-168.58"/>
</g>
<!-- AdsModalComponent  -->
<g id="node15" class="node">
<title>AdsModalComponent </title>
<polygon fill="#fb8072" stroke="black" points="1488.94,-214.8 1345.06,-214.8 1345.06,-178.8 1488.94,-178.8 1488.94,-214.8"/>
<text text-anchor="middle" x="1417" y="-192.6" font-family="Times,serif" font-size="14.00">AdsModalComponent </text>
</g>
<!-- SharedModule&#45;&gt;AdsModalComponent  -->
<g id="edge14" class="edge">
<title>SharedModule&#45;&gt;AdsModalComponent </title>
<path fill="none" stroke="black" stroke-dasharray="5,2" d="M851.46,-136.8C988.8,-136.8 1364.84,-136.8 1364.84,-136.8 1364.84,-136.8 1364.84,-168.8 1364.84,-168.8"/>
<polygon fill="black" stroke="black" points="1361.34,-168.8 1364.84,-178.8 1368.34,-168.8 1361.34,-168.8"/>
</g>
<!-- AmazonAdsComponent  -->
<g id="node16" class="node">
<title>AmazonAdsComponent </title>
<polygon fill="#fb8072" stroke="black" points="1327.32,-214.8 1172.68,-214.8 1172.68,-178.8 1327.32,-178.8 1327.32,-214.8"/>
<text text-anchor="middle" x="1250" y="-192.6" font-family="Times,serif" font-size="14.00">AmazonAdsComponent </text>
</g>
<!-- SharedModule&#45;&gt;AmazonAdsComponent  -->
<g id="edge15" class="edge">
<title>SharedModule&#45;&gt;AmazonAdsComponent </title>
<path fill="none" stroke="black" stroke-dasharray="5,2" d="M851.22,-140.8C956.44,-140.8 1193.76,-140.8 1193.76,-140.8 1193.76,-140.8 1193.76,-168.77 1193.76,-168.77"/>
<polygon fill="black" stroke="black" points="1190.26,-168.77 1193.76,-178.77 1197.26,-168.77 1190.26,-168.77"/>
</g>
<!-- LazyImgComponent  -->
<g id="node17" class="node">
<title>LazyImgComponent </title>
<polygon fill="#fb8072" stroke="black" points="1154.86,-214.8 1019.14,-214.8 1019.14,-178.8 1154.86,-178.8 1154.86,-214.8"/>
<text text-anchor="middle" x="1087" y="-192.6" font-family="Times,serif" font-size="14.00">LazyImgComponent </text>
</g>
<!-- SharedModule&#45;&gt;LazyImgComponent  -->
<g id="edge16" class="edge">
<title>SharedModule&#45;&gt;LazyImgComponent </title>
<path fill="none" stroke="black" stroke-dasharray="5,2" d="M851.47,-143.8C921.77,-143.8 1042.16,-143.8 1042.16,-143.8 1042.16,-143.8 1042.16,-168.56 1042.16,-168.56"/>
<polygon fill="black" stroke="black" points="1038.66,-168.56 1042.16,-178.56 1045.66,-168.56 1038.66,-168.56"/>
</g>
<!-- LoadingComponent  -->
<g id="node18" class="node">
<title>LoadingComponent </title>
<polygon fill="#fb8072" stroke="black" points="1001.99,-214.8 870.01,-214.8 870.01,-178.8 1001.99,-178.8 1001.99,-214.8"/>
<text text-anchor="middle" x="936" y="-192.6" font-family="Times,serif" font-size="14.00">LoadingComponent </text>
</g>
<!-- SharedModule&#45;&gt;LoadingComponent  -->
<g id="edge17" class="edge">
<title>SharedModule&#45;&gt;LoadingComponent </title>
<path fill="none" stroke="black" stroke-dasharray="5,2" d="M851.25,-146.8C873.35,-146.8 894.54,-146.8 894.54,-146.8 894.54,-146.8 894.54,-168.75 894.54,-168.75"/>
<polygon fill="black" stroke="black" points="891.04,-168.75 894.54,-178.75 898.04,-168.75 891.04,-168.75"/>
</g>
<!-- MdescapePipe  -->
<g id="node19" class="node">
<title>MdescapePipe </title>
<polygon fill="#fb8072" stroke="black" points="852.64,-214.8 751.36,-214.8 751.36,-178.8 852.64,-178.8 852.64,-214.8"/>
<text text-anchor="middle" x="802" y="-192.6" font-family="Times,serif" font-size="14.00">MdescapePipe </text>
</g>
<!-- SharedModule&#45;&gt;MdescapePipe  -->
<g id="edge18" class="edge">
<title>SharedModule&#45;&gt;MdescapePipe </title>
<path fill="none" stroke="black" stroke-dasharray="5,2" d="M802,-149.91C802,-149.91 802,-168.79 802,-168.79"/>
<polygon fill="black" stroke="black" points="798.5,-168.79 802,-178.79 805.5,-168.79 798.5,-168.79"/>
</g>
<!-- MessageComponent  -->
<g id="node20" class="node">
<title>MessageComponent </title>
<polygon fill="#fb8072" stroke="black" points="733.82,-214.8 600.18,-214.8 600.18,-178.8 733.82,-178.8 733.82,-214.8"/>
<text text-anchor="middle" x="667" y="-192.6" font-family="Times,serif" font-size="14.00">MessageComponent </text>
</g>
<!-- SharedModule&#45;&gt;MessageComponent  -->
<g id="edge19" class="edge">
<title>SharedModule&#45;&gt;MessageComponent </title>
<path fill="none" stroke="black" stroke-dasharray="5,2" d="M752.69,-146.8C728.03,-146.8 703.38,-146.8 703.38,-146.8 703.38,-146.8 703.38,-168.75 703.38,-168.75"/>
<polygon fill="black" stroke="black" points="699.88,-168.75 703.38,-178.75 706.88,-168.75 699.88,-168.75"/>
</g>
<!-- NavComponent  -->
<g id="node21" class="node">
<title>NavComponent </title>
<polygon fill="#fb8072" stroke="black" points="582.16,-214.8 473.84,-214.8 473.84,-178.8 582.16,-178.8 582.16,-214.8"/>
<text text-anchor="middle" x="528" y="-192.6" font-family="Times,serif" font-size="14.00">NavComponent </text>
</g>
<!-- SharedModule&#45;&gt;NavComponent  -->
<g id="edge20" class="edge">
<title>SharedModule&#45;&gt;NavComponent </title>
<path fill="none" stroke="black" stroke-dasharray="5,2" d="M752.61,-143.8C683.51,-143.8 566.38,-143.8 566.38,-143.8 566.38,-143.8 566.38,-168.56 566.38,-168.56"/>
<polygon fill="black" stroke="black" points="562.88,-168.56 566.38,-178.56 569.88,-168.56 562.88,-168.56"/>
</g>
<!-- NewsbarComponent  -->
<g id="node22" class="node">
<title>NewsbarComponent </title>
<polygon fill="#fb8072" stroke="black" points="456.09,-214.8 321.91,-214.8 321.91,-178.8 456.09,-178.8 456.09,-214.8"/>
<text text-anchor="middle" x="389" y="-192.6" font-family="Times,serif" font-size="14.00">NewsbarComponent </text>
</g>
<!-- SharedModule&#45;&gt;NewsbarComponent  -->
<g id="edge21" class="edge">
<title>SharedModule&#45;&gt;NewsbarComponent </title>
<path fill="none" stroke="black" stroke-dasharray="5,2" d="M752.45,-140.8C650.95,-140.8 428.88,-140.8 428.88,-140.8 428.88,-140.8 428.88,-168.77 428.88,-168.77"/>
<polygon fill="black" stroke="black" points="425.38,-168.77 428.88,-178.77 432.38,-168.77 425.38,-168.77"/>
</g>
<!-- TweetBtnComponent  -->
<g id="node23" class="node">
<title>TweetBtnComponent </title>
<polygon fill="#fb8072" stroke="black" points="304.04,-214.8 163.96,-214.8 163.96,-178.8 304.04,-178.8 304.04,-214.8"/>
<text text-anchor="middle" x="234" y="-192.6" font-family="Times,serif" font-size="14.00">TweetBtnComponent </text>
</g>
<!-- SharedModule&#45;&gt;TweetBtnComponent  -->
<g id="edge22" class="edge">
<title>SharedModule&#45;&gt;TweetBtnComponent </title>
<path fill="none" stroke="black" stroke-dasharray="5,2" d="M752.35,-136.8C622.73,-136.8 284.15,-136.8 284.15,-136.8 284.15,-136.8 284.15,-168.8 284.15,-168.8"/>
<polygon fill="black" stroke="black" points="280.65,-168.8 284.15,-178.8 287.65,-168.8 280.65,-168.8"/>
</g>
<!-- YearPipe  -->
<g id="node24" class="node">
<title>YearPipe </title>
<polygon fill="#fb8072" stroke="black" points="145.59,-214.8 74.41,-214.8 74.41,-178.8 145.59,-178.8 145.59,-214.8"/>
<text text-anchor="middle" x="110" y="-192.6" font-family="Times,serif" font-size="14.00">YearPipe </text>
</g>
<!-- SharedModule&#45;&gt;YearPipe  -->
<g id="edge23" class="edge">
<title>SharedModule&#45;&gt;YearPipe </title>
<path fill="none" stroke="black" stroke-dasharray="5,2" d="M752.69,-133.8C597.26,-133.8 127.76,-133.8 127.76,-133.8 127.76,-133.8 127.76,-168.58 127.76,-168.58"/>
<polygon fill="black" stroke="black" points="124.26,-168.58 127.76,-178.58 131.26,-168.58 124.26,-168.58"/>
</g>
</g>
</svg>
