<?xml version="1.0" encoding="UTF-8" standalone="no"?>
<!DOCTYPE svg PUBLIC "-//W3C//DTD SVG 1.1//EN"
 "http://www.w3.org/Graphics/SVG/1.1/DTD/svg11.dtd">
<!-- Generated by graphviz version 3.0.0 (20220226.1711)
 -->
<!-- Title: dependencies Pages: 1 -->
<svg width="1548pt" height="247pt"
 viewBox="0.00 0.00 1548.00 246.80" xmlns="http://www.w3.org/2000/svg" xmlns:xlink="http://www.w3.org/1999/xlink">
<g id="graph0" class="graph" transform="scale(1 1) rotate(0) translate(4 242.8)">
<title>dependencies</title>
<polygon fill="white" stroke="transparent" points="-4,4 -4,-242.8 1544,-242.8 1544,4 -4,4"/>
<text text-anchor="middle" x="770" y="-8.2" font-family="sans-serif" font-size="14.00">dependencies</text>
<g id="clust1" class="cluster">
<title>cluster_SharedModule</title>
<polygon fill="none" stroke="black" stroke-dasharray="1,5" points="8,-32.8 8,-230.8 1532,-230.8 1532,-32.8 8,-32.8"/>
</g>
<g id="clust15" class="cluster">
<title>cluster_SharedModule_exports</title>
<polygon fill="none" stroke="black" points="68,-170.8 68,-222.8 1473,-222.8 1473,-170.8 68,-170.8"/>
</g>
<g id="clust2" class="cluster">
<title>cluster_SharedModule_declarations</title>
<polygon fill="none" stroke="black" points="16,-40.8 16,-92.8 1524,-92.8 1524,-40.8 16,-40.8"/>
</g>
<!-- AdsComponent -->
<g id="node1" class="node">
<title>AdsComponent</title>
<polygon fill="#ffffb3" stroke="black" points="1515.89,-84.8 1412.11,-84.8 1412.11,-48.8 1515.89,-48.8 1515.89,-84.8"/>
<text text-anchor="middle" x="1464" y="-62.6" font-family="Times,serif" font-size="14.00">AdsComponent</text>
</g>
<!-- SharedModule -->
<g id="node12" class="node">
<title>SharedModule</title>
<polygon fill="#8dd3c7" stroke="black" points="770.43,-149.8 767.43,-153.8 746.43,-153.8 743.43,-149.8 671.57,-149.8 671.57,-113.8 770.43,-113.8 770.43,-149.8"/>
<text text-anchor="middle" x="721" y="-127.6" font-family="Times,serif" font-size="14.00">SharedModule</text>
</g>
<!-- AdsComponent&#45;&gt;SharedModule -->
<g id="edge1" class="edge">
<title>AdsComponent&#45;&gt;SharedModule</title>
<path fill="none" stroke="black" d="M1438.38,-84.91C1438.38,-104.14 1438.38,-131.8 1438.38,-131.8 1438.38,-131.8 780.31,-131.8 780.31,-131.8"/>
<polygon fill="black" stroke="black" points="780.31,-128.3 770.31,-131.8 780.31,-135.3 780.31,-128.3"/>
</g>
<!-- AdsModalComponent -->
<g id="node2" class="node">
<title>AdsModalComponent</title>
<polygon fill="#ffffb3" stroke="black" points="1394.44,-84.8 1253.56,-84.8 1253.56,-48.8 1394.44,-48.8 1394.44,-84.8"/>
<text text-anchor="middle" x="1324" y="-62.6" font-family="Times,serif" font-size="14.00">AdsModalComponent</text>
</g>
<!-- AdsModalComponent&#45;&gt;SharedModule -->
<g id="edge2" class="edge">
<title>AdsModalComponent&#45;&gt;SharedModule</title>
<path fill="none" stroke="black" d="M1296.38,-85.07C1296.38,-103.36 1296.38,-128.8 1296.38,-128.8 1296.38,-128.8 780.3,-128.8 780.3,-128.8"/>
<polygon fill="black" stroke="black" points="780.3,-125.3 770.3,-128.8 780.3,-132.3 780.3,-125.3"/>
</g>
<!-- AmazonAdsComponent -->
<g id="node3" class="node">
<title>AmazonAdsComponent</title>
<polygon fill="#ffffb3" stroke="black" points="1235.82,-84.8 1084.18,-84.8 1084.18,-48.8 1235.82,-48.8 1235.82,-84.8"/>
<text text-anchor="middle" x="1160" y="-62.6" font-family="Times,serif" font-size="14.00">AmazonAdsComponent</text>
</g>
<!-- AmazonAdsComponent&#45;&gt;SharedModule -->
<g id="edge3" class="edge">
<title>AmazonAdsComponent&#45;&gt;SharedModule</title>
<path fill="none" stroke="black" d="M1130.88,-84.83C1130.88,-101.86 1130.88,-124.8 1130.88,-124.8 1130.88,-124.8 780.44,-124.8 780.44,-124.8"/>
<polygon fill="black" stroke="black" points="780.44,-121.3 770.44,-124.8 780.44,-128.3 780.44,-121.3"/>
</g>
<!-- LazyImgComponent -->
<g id="node4" class="node">
<title>LazyImgComponent</title>
<polygon fill="#ffffb3" stroke="black" points="1065.86,-84.8 934.14,-84.8 934.14,-48.8 1065.86,-48.8 1065.86,-84.8"/>
<text text-anchor="middle" x="1000" y="-62.6" font-family="Times,serif" font-size="14.00">LazyImgComponent</text>
</g>
<!-- LazyImgComponent&#45;&gt;SharedModule -->
<g id="edge4" class="edge">
<title>LazyImgComponent&#45;&gt;SharedModule</title>
<path fill="none" stroke="black" d="M969.38,-84.81C969.38,-100.85 969.38,-121.8 969.38,-121.8 969.38,-121.8 780.37,-121.8 780.37,-121.8"/>
<polygon fill="black" stroke="black" points="780.37,-118.3 770.37,-121.8 780.37,-125.3 780.37,-118.3"/>
</g>
<!-- LoadingComponent -->
<g id="node5" class="node">
<title>LoadingComponent</title>
<polygon fill="#ffffb3" stroke="black" points="915.99,-84.8 788.01,-84.8 788.01,-48.8 915.99,-48.8 915.99,-84.8"/>
<text text-anchor="middle" x="852" y="-62.6" font-family="Times,serif" font-size="14.00">LoadingComponent</text>
</g>
<!-- LoadingComponent&#45;&gt;SharedModule -->
<g id="edge5" class="edge">
<title>LoadingComponent&#45;&gt;SharedModule</title>
<path fill="none" stroke="black" d="M819.88,-84.92C819.88,-99.58 819.88,-117.8 819.88,-117.8 819.88,-117.8 780.44,-117.8 780.44,-117.8"/>
<polygon fill="black" stroke="black" points="780.44,-114.3 770.44,-117.8 780.44,-121.3 780.44,-114.3"/>
</g>
<!-- MdescapePipe -->
<g id="node6" class="node">
<title>MdescapePipe</title>
<polygon fill="#ffffb3" stroke="black" points="769.64,-84.8 672.36,-84.8 672.36,-48.8 769.64,-48.8 769.64,-84.8"/>
<text text-anchor="middle" x="721" y="-62.6" font-family="Times,serif" font-size="14.00">MdescapePipe</text>
</g>
<!-- MdescapePipe&#45;&gt;SharedModule -->
<g id="edge6" class="edge">
<title>MdescapePipe&#45;&gt;SharedModule</title>
<path fill="none" stroke="black" d="M721,-84.91C721,-84.91 721,-103.79 721,-103.79"/>
<polygon fill="black" stroke="black" points="717.5,-103.79 721,-113.79 724.5,-103.79 717.5,-103.79"/>
</g>
<!-- MessageComponent -->
<g id="node7" class="node">
<title>MessageComponent</title>
<polygon fill="#ffffb3" stroke="black" points="654.32,-84.8 523.68,-84.8 523.68,-48.8 654.32,-48.8 654.32,-84.8"/>
<text text-anchor="middle" x="589" y="-62.6" font-family="Times,serif" font-size="14.00">MessageComponent</text>
</g>
<!-- MessageComponent&#45;&gt;SharedModule -->
<g id="edge7" class="edge">
<title>MessageComponent&#45;&gt;SharedModule</title>
<path fill="none" stroke="black" d="M627.79,-84.92C627.79,-99.58 627.79,-117.8 627.79,-117.8 627.79,-117.8 661.67,-117.8 661.67,-117.8"/>
<polygon fill="black" stroke="black" points="661.67,-121.3 671.67,-117.8 661.67,-114.3 661.67,-121.3"/>
</g>
<!-- NavComponent -->
<g id="node8" class="node">
<title>NavComponent</title>
<polygon fill="#ffffb3" stroke="black" points="506.16,-84.8 401.84,-84.8 401.84,-48.8 506.16,-48.8 506.16,-84.8"/>
<text text-anchor="middle" x="454" y="-62.6" font-family="Times,serif" font-size="14.00">NavComponent</text>
</g>
<!-- NavComponent&#45;&gt;SharedModule -->
<g id="edge8" class="edge">
<title>NavComponent&#45;&gt;SharedModule</title>
<path fill="none" stroke="black" d="M478.21,-84.81C478.21,-100.85 478.21,-121.8 478.21,-121.8 478.21,-121.8 661.58,-121.8 661.58,-121.8"/>
<polygon fill="black" stroke="black" points="661.58,-125.3 671.58,-121.8 661.58,-118.3 661.58,-125.3"/>
</g>
<!-- ProfileComponent -->
<g id="node9" class="node">
<title>ProfileComponent</title>
<polygon fill="#ffffb3" stroke="black" points="383.94,-84.8 264.06,-84.8 264.06,-48.8 383.94,-48.8 383.94,-84.8"/>
<text text-anchor="middle" x="324" y="-62.6" font-family="Times,serif" font-size="14.00">ProfileComponent</text>
</g>
<!-- ProfileComponent&#45;&gt;SharedModule -->
<g id="edge9" class="edge">
<title>ProfileComponent&#45;&gt;SharedModule</title>
<path fill="none" stroke="black" d="M353.82,-84.83C353.82,-101.86 353.82,-124.8 353.82,-124.8 353.82,-124.8 661.48,-124.8 661.48,-124.8"/>
<polygon fill="black" stroke="black" points="661.48,-128.3 671.48,-124.8 661.48,-121.3 661.48,-128.3"/>
</g>
<!-- TweetBtnComponent -->
<g id="node10" class="node">
<title>TweetBtnComponent</title>
<polygon fill="#ffffb3" stroke="black" points="246.04,-84.8 109.96,-84.8 109.96,-48.8 246.04,-48.8 246.04,-84.8"/>
<text text-anchor="middle" x="178" y="-62.6" font-family="Times,serif" font-size="14.00">TweetBtnComponent</text>
</g>
<!-- TweetBtnComponent&#45;&gt;SharedModule -->
<g id="edge10" class="edge">
<title>TweetBtnComponent&#45;&gt;SharedModule</title>
<path fill="none" stroke="black" d="M206.12,-85.07C206.12,-103.36 206.12,-128.8 206.12,-128.8 206.12,-128.8 661.63,-128.8 661.63,-128.8"/>
<polygon fill="black" stroke="black" points="661.63,-132.3 671.63,-128.8 661.63,-125.3 661.63,-132.3"/>
</g>
<!-- YearPipe -->
<g id="node11" class="node">
<title>YearPipe</title>
<polygon fill="#ffffb3" stroke="black" points="92.09,-84.8 23.91,-84.8 23.91,-48.8 92.09,-48.8 92.09,-84.8"/>
<text text-anchor="middle" x="58" y="-62.6" font-family="Times,serif" font-size="14.00">YearPipe</text>
</g>
<!-- YearPipe&#45;&gt;SharedModule -->
<g id="edge11" class="edge">
<title>YearPipe&#45;&gt;SharedModule</title>
<path fill="none" stroke="black" d="M84.12,-84.91C84.12,-104.14 84.12,-131.8 84.12,-131.8 84.12,-131.8 661.56,-131.8 661.56,-131.8"/>
<polygon fill="black" stroke="black" points="661.56,-135.3 671.56,-131.8 661.56,-128.3 661.56,-135.3"/>
</g>
<!-- AdsComponent  -->
<g id="node13" class="node">
<title>AdsComponent </title>
<polygon fill="#fb8072" stroke="black" points="1464.89,-214.8 1357.11,-214.8 1357.11,-178.8 1464.89,-178.8 1464.89,-214.8"/>
<text text-anchor="middle" x="1411" y="-192.6" font-family="Times,serif" font-size="14.00">AdsComponent </text>
</g>
<!-- SharedModule&#45;&gt;AdsComponent  -->
<g id="edge12" class="edge">
<title>SharedModule&#45;&gt;AdsComponent </title>
<path fill="none" stroke="black" stroke-dasharray="5,2" d="M770.48,-135.8C923.02,-135.8 1375.76,-135.8 1375.76,-135.8 1375.76,-135.8 1375.76,-168.5 1375.76,-168.5"/>
<polygon fill="black" stroke="black" points="1372.26,-168.5 1375.76,-178.5 1379.26,-168.5 1372.26,-168.5"/>
</g>
<!-- AdsModalComponent  -->
<g id="node14" class="node">
<title>AdsModalComponent </title>
<polygon fill="#fb8072" stroke="black" points="1338.94,-214.8 1195.06,-214.8 1195.06,-178.8 1338.94,-178.8 1338.94,-214.8"/>
<text text-anchor="middle" x="1267" y="-192.6" font-family="Times,serif" font-size="14.00">AdsModalComponent </text>
</g>
<!-- SharedModule&#45;&gt;AdsModalComponent  -->
<g id="edge13" class="edge">
<title>SharedModule&#45;&gt;AdsModalComponent </title>
<path fill="none" stroke="black" stroke-dasharray="5,2" d="M770.66,-139.8C896.02,-139.8 1215.34,-139.8 1215.34,-139.8 1215.34,-139.8 1215.34,-168.76 1215.34,-168.76"/>
<polygon fill="black" stroke="black" points="1211.84,-168.76 1215.34,-178.76 1218.84,-168.76 1211.84,-168.76"/>
</g>
<!-- AmazonAdsComponent  -->
<g id="node15" class="node">
<title>AmazonAdsComponent </title>
<polygon fill="#fb8072" stroke="black" points="1177.32,-214.8 1022.68,-214.8 1022.68,-178.8 1177.32,-178.8 1177.32,-214.8"/>
<text text-anchor="middle" x="1100" y="-192.6" font-family="Times,serif" font-size="14.00">AmazonAdsComponent </text>
</g>
<!-- SharedModule&#45;&gt;AmazonAdsComponent  -->
<g id="edge14" class="edge">
<title>SharedModule&#45;&gt;AmazonAdsComponent </title>
<path fill="none" stroke="black" stroke-dasharray="5,2" d="M770.45,-142.8C861,-142.8 1044.26,-142.8 1044.26,-142.8 1044.26,-142.8 1044.26,-168.52 1044.26,-168.52"/>
<polygon fill="black" stroke="black" points="1040.76,-168.52 1044.26,-178.52 1047.76,-168.52 1040.76,-168.52"/>
</g>
<!-- LazyImgComponent  -->
<g id="node16" class="node">
<title>LazyImgComponent </title>
<polygon fill="#fb8072" stroke="black" points="1004.86,-214.8 869.14,-214.8 869.14,-178.8 1004.86,-178.8 1004.86,-214.8"/>
<text text-anchor="middle" x="937" y="-192.6" font-family="Times,serif" font-size="14.00">LazyImgComponent </text>
</g>
<!-- SharedModule&#45;&gt;LazyImgComponent  -->
<g id="edge15" class="edge">
<title>SharedModule&#45;&gt;LazyImgComponent </title>
<path fill="none" stroke="black" stroke-dasharray="5,2" d="M770.65,-146.8C821.35,-146.8 892.66,-146.8 892.66,-146.8 892.66,-146.8 892.66,-168.75 892.66,-168.75"/>
<polygon fill="black" stroke="black" points="889.16,-168.75 892.66,-178.75 896.16,-168.75 889.16,-168.75"/>
</g>
<!-- LoadingComponent  -->
<g id="node17" class="node">
<title>LoadingComponent </title>
<polygon fill="#fb8072" stroke="black" points="851.99,-214.8 720.01,-214.8 720.01,-178.8 851.99,-178.8 851.99,-214.8"/>
<text text-anchor="middle" x="786" y="-192.6" font-family="Times,serif" font-size="14.00">LoadingComponent </text>
</g>
<!-- SharedModule&#45;&gt;LoadingComponent  -->
<g id="edge16" class="edge">
<title>SharedModule&#45;&gt;LoadingComponent </title>
<path fill="none" stroke="black" stroke-dasharray="5,2" d="M745.24,-149.91C745.24,-149.91 745.24,-168.79 745.24,-168.79"/>
<polygon fill="black" stroke="black" points="741.74,-168.79 745.24,-178.79 748.74,-168.79 741.74,-168.79"/>
</g>
<!-- MdescapePipe  -->
<g id="node18" class="node">
<title>MdescapePipe </title>
<polygon fill="#fb8072" stroke="black" points="702.64,-214.8 601.36,-214.8 601.36,-178.8 702.64,-178.8 702.64,-214.8"/>
<text text-anchor="middle" x="652" y="-192.6" font-family="Times,serif" font-size="14.00">MdescapePipe </text>
</g>
<!-- SharedModule&#45;&gt;MdescapePipe  -->
<g id="edge17" class="edge">
<title>SharedModule&#45;&gt;MdescapePipe </title>
<path fill="none" stroke="black" stroke-dasharray="5,2" d="M687.18,-149.91C687.18,-149.91 687.18,-168.79 687.18,-168.79"/>
<polygon fill="black" stroke="black" points="683.68,-168.79 687.18,-178.79 690.68,-168.79 683.68,-168.79"/>
</g>
<!-- MessageComponent  -->
<g id="node19" class="node">
<title>MessageComponent </title>
<polygon fill="#fb8072" stroke="black" points="583.82,-214.8 450.18,-214.8 450.18,-178.8 583.82,-178.8 583.82,-214.8"/>
<text text-anchor="middle" x="517" y="-192.6" font-family="Times,serif" font-size="14.00">MessageComponent </text>
</g>
<!-- SharedModule&#45;&gt;MessageComponent  -->
<g id="edge18" class="edge">
<title>SharedModule&#45;&gt;MessageComponent </title>
<path fill="none" stroke="black" stroke-dasharray="5,2" d="M671.76,-146.8C622.46,-146.8 553.88,-146.8 553.88,-146.8 553.88,-146.8 553.88,-168.75 553.88,-168.75"/>
<polygon fill="black" stroke="black" points="550.38,-168.75 553.88,-178.75 557.38,-168.75 550.38,-168.75"/>
</g>
<!-- NavComponent  -->
<g id="node20" class="node">
<title>NavComponent </title>
<polygon fill="#fb8072" stroke="black" points="432.16,-214.8 323.84,-214.8 323.84,-178.8 432.16,-178.8 432.16,-214.8"/>
<text text-anchor="middle" x="378" y="-192.6" font-family="Times,serif" font-size="14.00">NavComponent </text>
</g>
<!-- SharedModule&#45;&gt;NavComponent  -->
<g id="edge19" class="edge">
<title>SharedModule&#45;&gt;NavComponent </title>
<path fill="none" stroke="black" stroke-dasharray="5,2" d="M671.46,-142.8C585.28,-142.8 416.88,-142.8 416.88,-142.8 416.88,-142.8 416.88,-168.52 416.88,-168.52"/>
<polygon fill="black" stroke="black" points="413.38,-168.52 416.88,-178.52 420.38,-168.52 413.38,-168.52"/>
</g>
<!-- TweetBtnComponent  -->
<g id="node21" class="node">
<title>TweetBtnComponent </title>
<polygon fill="#fb8072" stroke="black" points="306.04,-214.8 165.96,-214.8 165.96,-178.8 306.04,-178.8 306.04,-214.8"/>
<text text-anchor="middle" x="236" y="-192.6" font-family="Times,serif" font-size="14.00">TweetBtnComponent </text>
</g>
<!-- SharedModule&#45;&gt;TweetBtnComponent  -->
<g id="edge20" class="edge">
<title>SharedModule&#45;&gt;TweetBtnComponent </title>
<path fill="none" stroke="black" stroke-dasharray="5,2" d="M671.43,-139.8C557.19,-139.8 285.15,-139.8 285.15,-139.8 285.15,-139.8 285.15,-168.76 285.15,-168.76"/>
<polygon fill="black" stroke="black" points="281.65,-168.76 285.15,-178.76 288.65,-168.76 281.65,-168.76"/>
</g>
<!-- YearPipe  -->
<g id="node22" class="node">
<title>YearPipe </title>
<polygon fill="#fb8072" stroke="black" points="147.59,-214.8 76.41,-214.8 76.41,-178.8 147.59,-178.8 147.59,-214.8"/>
<text text-anchor="middle" x="112" y="-192.6" font-family="Times,serif" font-size="14.00">YearPipe </text>
</g>
<!-- SharedModule&#45;&gt;YearPipe  -->
<g id="edge21" class="edge">
<title>SharedModule&#45;&gt;YearPipe </title>
<path fill="none" stroke="black" stroke-dasharray="5,2" d="M671.78,-135.8C529.66,-135.8 128.76,-135.8 128.76,-135.8 128.76,-135.8 128.76,-168.5 128.76,-168.5"/>
<polygon fill="black" stroke="black" points="125.26,-168.5 128.76,-178.5 132.26,-168.5 125.26,-168.5"/>
</g>
</g>
</svg>
