<?xml version="1.0" encoding="UTF-8" standalone="no"?>
<!DOCTYPE svg PUBLIC "-//W3C//DTD SVG 1.1//EN"
 "http://www.w3.org/Graphics/SVG/1.1/DTD/svg11.dtd">
<!-- Generated by graphviz version 2.47.3 (20210619.1520)
 -->
<!-- Title: dependencies Pages: 1 -->
<svg width="624pt" height="247pt"
 viewBox="0.00 0.00 624.00 246.80" xmlns="http://www.w3.org/2000/svg" xmlns:xlink="http://www.w3.org/1999/xlink">
<g id="graph0" class="graph" transform="scale(1 1) rotate(0) translate(4 242.8)">
<title>dependencies</title>
<polygon fill="white" stroke="transparent" points="-4,4 -4,-242.8 620,-242.8 620,4 -4,4"/>
<text text-anchor="middle" x="308" y="-8.2" font-family="sans-serif" font-size="14.00">dependencies</text>
<g id="clust1" class="cluster">
<title>cluster_SharedModule</title>
<polygon fill="none" stroke="black" stroke-dasharray="1,5" points="8,-32.8 8,-230.8 608,-230.8 608,-32.8 8,-32.8"/>
</g>
<g id="clust2" class="cluster">
<title>cluster_SharedModule_declarations</title>
<polygon fill="none" stroke="black" points="25,-40.8 25,-92.8 594,-92.8 594,-40.8 25,-40.8"/>
</g>
<g id="clust8" class="cluster">
<title>cluster_SharedModule_exports</title>
<polygon fill="none" stroke="black" points="16,-170.8 16,-222.8 600,-222.8 600,-170.8 16,-170.8"/>
</g>
<!-- LoadingComponent -->
<g id="node1" class="node">
<title>LoadingComponent</title>
<polygon fill="#ffffb3" stroke="black" points="585.99,-84.8 458.01,-84.8 458.01,-48.8 585.99,-48.8 585.99,-84.8"/>
<text text-anchor="middle" x="522" y="-62.6" font-family="Times,serif" font-size="14.00">LoadingComponent</text>
</g>
<!-- SharedModule -->
<g id="node5" class="node">
<title>SharedModule</title>
<polygon fill="#8dd3c7" stroke="black" points="291.42,-149.8 288.42,-153.8 267.42,-153.8 264.42,-149.8 192.58,-149.8 192.58,-113.8 291.42,-113.8 291.42,-149.8"/>
<text text-anchor="middle" x="242" y="-127.6" font-family="Times,serif" font-size="14.00">SharedModule</text>
</g>
<!-- LoadingComponent&#45;&gt;SharedModule -->
<g id="edge1" class="edge">
<title>LoadingComponent&#45;&gt;SharedModule</title>
<path fill="none" stroke="black" d="M544.08,-85.07C544.08,-103.36 544.08,-128.8 544.08,-128.8 544.08,-128.8 301.54,-128.8 301.54,-128.8"/>
<polygon fill="black" stroke="black" points="301.54,-125.3 291.54,-128.8 301.54,-132.3 301.54,-125.3"/>
</g>
<!-- MessageComponent -->
<g id="node2" class="node">
<title>MessageComponent</title>
<polygon fill="#ffffb3" stroke="black" points="440.31,-84.8 309.69,-84.8 309.69,-48.8 440.31,-48.8 440.31,-84.8"/>
<text text-anchor="middle" x="375" y="-62.6" font-family="Times,serif" font-size="14.00">MessageComponent</text>
</g>
<!-- MessageComponent&#45;&gt;SharedModule -->
<g id="edge2" class="edge">
<title>MessageComponent&#45;&gt;SharedModule</title>
<path fill="none" stroke="black" d="M396.72,-84.81C396.72,-100.85 396.72,-121.8 396.72,-121.8 396.72,-121.8 301.38,-121.8 301.38,-121.8"/>
<polygon fill="black" stroke="black" points="301.38,-118.3 291.38,-121.8 301.38,-125.3 301.38,-118.3"/>
</g>
<!-- NavComponent -->
<g id="node3" class="node">
<title>NavComponent</title>
<polygon fill="#ffffb3" stroke="black" points="292.15,-84.8 187.85,-84.8 187.85,-48.8 292.15,-48.8 292.15,-84.8"/>
<text text-anchor="middle" x="240" y="-62.6" font-family="Times,serif" font-size="14.00">NavComponent</text>
</g>
<!-- NavComponent&#45;&gt;SharedModule -->
<g id="edge3" class="edge">
<title>NavComponent&#45;&gt;SharedModule</title>
<path fill="none" stroke="black" d="M242,-84.91C242,-84.91 242,-103.79 242,-103.79"/>
<polygon fill="black" stroke="black" points="238.5,-103.79 242,-113.79 245.5,-103.79 238.5,-103.79"/>
</g>
<!-- TweetBtnComponent -->
<g id="node4" class="node">
<title>TweetBtnComponent</title>
<polygon fill="#ffffb3" stroke="black" points="169.04,-84.8 32.96,-84.8 32.96,-48.8 169.04,-48.8 169.04,-84.8"/>
<text text-anchor="middle" x="101" y="-62.6" font-family="Times,serif" font-size="14.00">TweetBtnComponent</text>
</g>
<!-- TweetBtnComponent&#45;&gt;SharedModule -->
<g id="edge4" class="edge">
<title>TweetBtnComponent&#45;&gt;SharedModule</title>
<path fill="none" stroke="black" d="M120.26,-84.82C120.26,-102.17 120.26,-125.8 120.26,-125.8 120.26,-125.8 182.48,-125.8 182.48,-125.8"/>
<polygon fill="black" stroke="black" points="182.48,-129.3 192.48,-125.8 182.48,-122.3 182.48,-129.3"/>
</g>
<!-- LoadingComponent  -->
<g id="node6" class="node">
<title>LoadingComponent </title>
<polygon fill="#fb8072" stroke="black" points="591.99,-214.8 460.01,-214.8 460.01,-178.8 591.99,-178.8 591.99,-214.8"/>
<text text-anchor="middle" x="526" y="-192.6" font-family="Times,serif" font-size="14.00">LoadingComponent </text>
</g>
<!-- SharedModule&#45;&gt;LoadingComponent  -->
<g id="edge5" class="edge">
<title>SharedModule&#45;&gt;LoadingComponent </title>
<path fill="none" stroke="black" stroke-dasharray="5,2" d="M291.24,-135.8C366.67,-135.8 502.17,-135.8 502.17,-135.8 502.17,-135.8 502.17,-168.5 502.17,-168.5"/>
<polygon fill="black" stroke="black" points="498.67,-168.5 502.17,-178.5 505.67,-168.5 498.67,-168.5"/>
</g>
<!-- MessageComponent  -->
<g id="node7" class="node">
<title>MessageComponent </title>
<polygon fill="#fb8072" stroke="black" points="441.81,-214.8 308.19,-214.8 308.19,-178.8 441.81,-178.8 441.81,-214.8"/>
<text text-anchor="middle" x="375" y="-192.6" font-family="Times,serif" font-size="14.00">MessageComponent </text>
</g>
<!-- SharedModule&#45;&gt;MessageComponent  -->
<g id="edge6" class="edge">
<title>SharedModule&#45;&gt;MessageComponent </title>
<path fill="none" stroke="black" stroke-dasharray="5,2" d="M291.46,-142.8C321.18,-142.8 353.28,-142.8 353.28,-142.8 353.28,-142.8 353.28,-168.52 353.28,-168.52"/>
<polygon fill="black" stroke="black" points="349.78,-168.52 353.28,-178.52 356.78,-168.52 349.78,-168.52"/>
</g>
<!-- NavComponent  -->
<g id="node8" class="node">
<title>NavComponent </title>
<polygon fill="#fb8072" stroke="black" points="290.15,-214.8 181.85,-214.8 181.85,-178.8 290.15,-178.8 290.15,-214.8"/>
<text text-anchor="middle" x="236" y="-192.6" font-family="Times,serif" font-size="14.00">NavComponent </text>
</g>
<!-- SharedModule&#45;&gt;NavComponent  -->
<g id="edge7" class="edge">
<title>SharedModule&#45;&gt;NavComponent </title>
<path fill="none" stroke="black" stroke-dasharray="5,2" d="M241.43,-149.91C241.43,-149.91 241.43,-168.79 241.43,-168.79"/>
<polygon fill="black" stroke="black" points="237.93,-168.79 241.43,-178.79 244.93,-168.79 237.93,-168.79"/>
</g>
<!-- TweetBtnComponent  -->
<g id="node9" class="node">
<title>TweetBtnComponent </title>
<polygon fill="#fb8072" stroke="black" points="164.04,-214.8 23.96,-214.8 23.96,-178.8 164.04,-178.8 164.04,-214.8"/>
<text text-anchor="middle" x="94" y="-192.6" font-family="Times,serif" font-size="14.00">TweetBtnComponent </text>
</g>
<!-- SharedModule&#45;&gt;TweetBtnComponent  -->
<g id="edge8" class="edge">
<title>SharedModule&#45;&gt;TweetBtnComponent </title>
<path fill="none" stroke="black" stroke-dasharray="5,2" d="M192.34,-137.8C143.59,-137.8 76.49,-137.8 76.49,-137.8 76.49,-137.8 76.49,-168.78 76.49,-168.78"/>
<polygon fill="black" stroke="black" points="72.99,-168.78 76.49,-178.78 79.99,-168.78 72.99,-168.78"/>
</g>
</g>
</svg>
