<?xml version="1.0" encoding="UTF-8" standalone="no"?>
<!DOCTYPE svg PUBLIC "-//W3C//DTD SVG 1.1//EN"
 "http://www.w3.org/Graphics/SVG/1.1/DTD/svg11.dtd">
<!-- Generated by graphviz version 2.47.3 (20210619.1520)
 -->
<!-- Title: dependencies Pages: 1 -->
<svg width="1398pt" height="247pt"
 viewBox="0.00 0.00 1398.00 246.80" xmlns="http://www.w3.org/2000/svg" xmlns:xlink="http://www.w3.org/1999/xlink">
<g id="graph0" class="graph" transform="scale(1 1) rotate(0) translate(4 242.8)">
<title>dependencies</title>
<polygon fill="white" stroke="transparent" points="-4,4 -4,-242.8 1394,-242.8 1394,4 -4,4"/>
<text text-anchor="middle" x="695" y="-8.2" font-family="sans-serif" font-size="14.00">dependencies</text>
<g id="clust1" class="cluster">
<title>cluster_SharedModule</title>
<polygon fill="none" stroke="black" stroke-dasharray="1,5" points="8,-32.8 8,-230.8 1382,-230.8 1382,-32.8 8,-32.8"/>
</g>
<g id="clust2" class="cluster">
<title>cluster_SharedModule_declarations</title>
<polygon fill="none" stroke="black" points="16,-40.8 16,-92.8 1374,-92.8 1374,-40.8 16,-40.8"/>
</g>
<g id="clust14" class="cluster">
<title>cluster_SharedModule_exports</title>
<polygon fill="none" stroke="black" points="69,-170.8 69,-222.8 1321,-222.8 1321,-170.8 69,-170.8"/>
</g>
<!-- AdsComponent -->
<g id="node1" class="node">
<title>AdsComponent</title>
<polygon fill="#ffffb3" stroke="black" points="1365.88,-84.8 1262.12,-84.8 1262.12,-48.8 1365.88,-48.8 1365.88,-84.8"/>
<text text-anchor="middle" x="1314" y="-62.6" font-family="Times,serif" font-size="14.00">AdsComponent</text>
</g>
<!-- SharedModule -->
<g id="node11" class="node">
<title>SharedModule</title>
<polygon fill="#8dd3c7" stroke="black" points="702.42,-149.8 699.42,-153.8 678.42,-153.8 675.42,-149.8 603.58,-149.8 603.58,-113.8 702.42,-113.8 702.42,-149.8"/>
<text text-anchor="middle" x="653" y="-127.6" font-family="Times,serif" font-size="14.00">SharedModule</text>
</g>
<!-- AdsComponent&#45;&gt;SharedModule -->
<g id="edge1" class="edge">
<title>AdsComponent&#45;&gt;SharedModule</title>
<path fill="none" stroke="black" d="M1287.38,-85.02C1287.38,-103.63 1287.38,-129.8 1287.38,-129.8 1287.38,-129.8 712.25,-129.8 712.25,-129.8"/>
<polygon fill="black" stroke="black" points="712.25,-126.3 702.25,-129.8 712.25,-133.3 712.25,-126.3"/>
</g>
<!-- AdsModalComponent -->
<g id="node2" class="node">
<title>AdsModalComponent</title>
<polygon fill="#ffffb3" stroke="black" points="1244.43,-84.8 1103.57,-84.8 1103.57,-48.8 1244.43,-48.8 1244.43,-84.8"/>
<text text-anchor="middle" x="1174" y="-62.6" font-family="Times,serif" font-size="14.00">AdsModalComponent</text>
</g>
<!-- AdsModalComponent&#45;&gt;SharedModule -->
<g id="edge2" class="edge">
<title>AdsModalComponent&#45;&gt;SharedModule</title>
<path fill="none" stroke="black" d="M1145.38,-84.82C1145.38,-102.17 1145.38,-125.8 1145.38,-125.8 1145.38,-125.8 712.47,-125.8 712.47,-125.8"/>
<polygon fill="black" stroke="black" points="712.47,-122.3 702.47,-125.8 712.47,-129.3 712.47,-122.3"/>
</g>
<!-- AmazonAdsComponent -->
<g id="node3" class="node">
<title>AmazonAdsComponent</title>
<polygon fill="#ffffb3" stroke="black" points="1085.81,-84.8 934.19,-84.8 934.19,-48.8 1085.81,-48.8 1085.81,-84.8"/>
<text text-anchor="middle" x="1010" y="-62.6" font-family="Times,serif" font-size="14.00">AmazonAdsComponent</text>
</g>
<!-- AmazonAdsComponent&#45;&gt;SharedModule -->
<g id="edge3" class="edge">
<title>AmazonAdsComponent&#45;&gt;SharedModule</title>
<path fill="none" stroke="black" d="M979.88,-84.81C979.88,-100.85 979.88,-121.8 979.88,-121.8 979.88,-121.8 712.29,-121.8 712.29,-121.8"/>
<polygon fill="black" stroke="black" points="712.29,-118.3 702.29,-121.8 712.29,-125.3 712.29,-118.3"/>
</g>
<!-- LoadingComponent -->
<g id="node4" class="node">
<title>LoadingComponent</title>
<polygon fill="#ffffb3" stroke="black" points="915.99,-84.8 788.01,-84.8 788.01,-48.8 915.99,-48.8 915.99,-84.8"/>
<text text-anchor="middle" x="852" y="-62.6" font-family="Times,serif" font-size="14.00">LoadingComponent</text>
</g>
<!-- LoadingComponent&#45;&gt;SharedModule -->
<g id="edge4" class="edge">
<title>LoadingComponent&#45;&gt;SharedModule</title>
<path fill="none" stroke="black" d="M820.38,-84.92C820.38,-99.58 820.38,-117.8 820.38,-117.8 820.38,-117.8 712.31,-117.8 712.31,-117.8"/>
<polygon fill="black" stroke="black" points="712.31,-114.3 702.31,-117.8 712.31,-121.3 712.31,-114.3"/>
</g>
<!-- MdescapePipe -->
<g id="node5" class="node">
<title>MdescapePipe</title>
<polygon fill="#ffffb3" stroke="black" points="769.64,-84.8 672.36,-84.8 672.36,-48.8 769.64,-48.8 769.64,-84.8"/>
<text text-anchor="middle" x="721" y="-62.6" font-family="Times,serif" font-size="14.00">MdescapePipe</text>
</g>
<!-- MdescapePipe&#45;&gt;SharedModule -->
<g id="edge5" class="edge">
<title>MdescapePipe&#45;&gt;SharedModule</title>
<path fill="none" stroke="black" d="M687.2,-84.91C687.2,-84.91 687.2,-103.79 687.2,-103.79"/>
<polygon fill="black" stroke="black" points="683.7,-103.79 687.2,-113.79 690.7,-103.79 683.7,-103.79"/>
</g>
<!-- MessageComponent -->
<g id="node6" class="node">
<title>MessageComponent</title>
<polygon fill="#ffffb3" stroke="black" points="654.31,-84.8 523.69,-84.8 523.69,-48.8 654.31,-48.8 654.31,-84.8"/>
<text text-anchor="middle" x="589" y="-62.6" font-family="Times,serif" font-size="14.00">MessageComponent</text>
</g>
<!-- MessageComponent&#45;&gt;SharedModule -->
<g id="edge6" class="edge">
<title>MessageComponent&#45;&gt;SharedModule</title>
<path fill="none" stroke="black" d="M628.97,-84.91C628.97,-84.91 628.97,-103.79 628.97,-103.79"/>
<polygon fill="black" stroke="black" points="625.47,-103.79 628.97,-113.79 632.47,-103.79 625.47,-103.79"/>
</g>
<!-- NavComponent -->
<g id="node7" class="node">
<title>NavComponent</title>
<polygon fill="#ffffb3" stroke="black" points="506.15,-84.8 401.85,-84.8 401.85,-48.8 506.15,-48.8 506.15,-84.8"/>
<text text-anchor="middle" x="454" y="-62.6" font-family="Times,serif" font-size="14.00">NavComponent</text>
</g>
<!-- NavComponent&#45;&gt;SharedModule -->
<g id="edge7" class="edge">
<title>NavComponent&#45;&gt;SharedModule</title>
<path fill="none" stroke="black" d="M478.71,-84.92C478.71,-99.58 478.71,-117.8 478.71,-117.8 478.71,-117.8 593.52,-117.8 593.52,-117.8"/>
<polygon fill="black" stroke="black" points="593.52,-121.3 603.52,-117.8 593.52,-114.3 593.52,-121.3"/>
</g>
<!-- ProfileComponent -->
<g id="node8" class="node">
<title>ProfileComponent</title>
<polygon fill="#ffffb3" stroke="black" points="383.93,-84.8 264.07,-84.8 264.07,-48.8 383.93,-48.8 383.93,-84.8"/>
<text text-anchor="middle" x="324" y="-62.6" font-family="Times,serif" font-size="14.00">ProfileComponent</text>
</g>
<!-- ProfileComponent&#45;&gt;SharedModule -->
<g id="edge8" class="edge">
<title>ProfileComponent&#45;&gt;SharedModule</title>
<path fill="none" stroke="black" d="M354.32,-84.81C354.32,-100.85 354.32,-121.8 354.32,-121.8 354.32,-121.8 593.68,-121.8 593.68,-121.8"/>
<polygon fill="black" stroke="black" points="593.68,-125.3 603.68,-121.8 593.68,-118.3 593.68,-125.3"/>
</g>
<!-- TweetBtnComponent -->
<g id="node9" class="node">
<title>TweetBtnComponent</title>
<polygon fill="#ffffb3" stroke="black" points="246.04,-84.8 109.96,-84.8 109.96,-48.8 246.04,-48.8 246.04,-84.8"/>
<text text-anchor="middle" x="178" y="-62.6" font-family="Times,serif" font-size="14.00">TweetBtnComponent</text>
</g>
<!-- TweetBtnComponent&#45;&gt;SharedModule -->
<g id="edge9" class="edge">
<title>TweetBtnComponent&#45;&gt;SharedModule</title>
<path fill="none" stroke="black" d="M206.62,-84.82C206.62,-102.17 206.62,-125.8 206.62,-125.8 206.62,-125.8 593.52,-125.8 593.52,-125.8"/>
<polygon fill="black" stroke="black" points="593.52,-129.3 603.52,-125.8 593.52,-122.3 593.52,-129.3"/>
</g>
<!-- YearPipe -->
<g id="node10" class="node">
<title>YearPipe</title>
<polygon fill="#ffffb3" stroke="black" points="92.08,-84.8 23.92,-84.8 23.92,-48.8 92.08,-48.8 92.08,-84.8"/>
<text text-anchor="middle" x="58" y="-62.6" font-family="Times,serif" font-size="14.00">YearPipe</text>
</g>
<!-- YearPipe&#45;&gt;SharedModule -->
<g id="edge10" class="edge">
<title>YearPipe&#45;&gt;SharedModule</title>
<path fill="none" stroke="black" d="M84.62,-85.02C84.62,-103.63 84.62,-129.8 84.62,-129.8 84.62,-129.8 593.55,-129.8 593.55,-129.8"/>
<polygon fill="black" stroke="black" points="593.55,-133.3 603.55,-129.8 593.55,-126.3 593.55,-133.3"/>
</g>
<!-- AdsComponent  -->
<g id="node12" class="node">
<title>AdsComponent </title>
<polygon fill="#fb8072" stroke="black" points="1312.88,-214.8 1205.12,-214.8 1205.12,-178.8 1312.88,-178.8 1312.88,-214.8"/>
<text text-anchor="middle" x="1259" y="-192.6" font-family="Times,serif" font-size="14.00">AdsComponent </text>
</g>
<!-- SharedModule&#45;&gt;AdsComponent  -->
<g id="edge11" class="edge">
<title>SharedModule&#45;&gt;AdsComponent </title>
<path fill="none" stroke="black" stroke-dasharray="5,2" d="M702.24,-133.8C840.93,-133.8 1224.76,-133.8 1224.76,-133.8 1224.76,-133.8 1224.76,-168.58 1224.76,-168.58"/>
<polygon fill="black" stroke="black" points="1221.26,-168.58 1224.76,-178.58 1228.26,-168.58 1221.26,-168.58"/>
</g>
<!-- AdsModalComponent  -->
<g id="node13" class="node">
<title>AdsModalComponent </title>
<polygon fill="#fb8072" stroke="black" points="1186.93,-214.8 1043.07,-214.8 1043.07,-178.8 1186.93,-178.8 1186.93,-214.8"/>
<text text-anchor="middle" x="1115" y="-192.6" font-family="Times,serif" font-size="14.00">AdsModalComponent </text>
</g>
<!-- SharedModule&#45;&gt;AdsModalComponent  -->
<g id="edge12" class="edge">
<title>SharedModule&#45;&gt;AdsModalComponent </title>
<path fill="none" stroke="black" stroke-dasharray="5,2" d="M702.62,-137.8C812.02,-137.8 1064.34,-137.8 1064.34,-137.8 1064.34,-137.8 1064.34,-168.78 1064.34,-168.78"/>
<polygon fill="black" stroke="black" points="1060.84,-168.78 1064.34,-178.78 1067.84,-168.78 1060.84,-168.78"/>
</g>
<!-- AmazonAdsComponent  -->
<g id="node14" class="node">
<title>AmazonAdsComponent </title>
<polygon fill="#fb8072" stroke="black" points="1025.31,-214.8 870.69,-214.8 870.69,-178.8 1025.31,-178.8 1025.31,-214.8"/>
<text text-anchor="middle" x="948" y="-192.6" font-family="Times,serif" font-size="14.00">AmazonAdsComponent </text>
</g>
<!-- SharedModule&#45;&gt;AmazonAdsComponent  -->
<g id="edge13" class="edge">
<title>SharedModule&#45;&gt;AmazonAdsComponent </title>
<path fill="none" stroke="black" stroke-dasharray="5,2" d="M702.5,-141.8C772.84,-141.8 893.3,-141.8 893.3,-141.8 893.3,-141.8 893.3,-168.79 893.3,-168.79"/>
<polygon fill="black" stroke="black" points="889.8,-168.79 893.3,-178.79 896.8,-168.79 889.8,-168.79"/>
</g>
<!-- LoadingComponent  -->
<g id="node15" class="node">
<title>LoadingComponent </title>
<polygon fill="#fb8072" stroke="black" points="852.99,-214.8 721.01,-214.8 721.01,-178.8 852.99,-178.8 852.99,-214.8"/>
<text text-anchor="middle" x="787" y="-192.6" font-family="Times,serif" font-size="14.00">LoadingComponent </text>
</g>
<!-- SharedModule&#45;&gt;LoadingComponent  -->
<g id="edge14" class="edge">
<title>SharedModule&#45;&gt;LoadingComponent </title>
<path fill="none" stroke="black" stroke-dasharray="5,2" d="M702.25,-145.8C724.35,-145.8 745.54,-145.8 745.54,-145.8 745.54,-145.8 745.54,-168.68 745.54,-168.68"/>
<polygon fill="black" stroke="black" points="742.04,-168.68 745.54,-178.68 749.04,-168.68 742.04,-168.68"/>
</g>
<!-- MdescapePipe  -->
<g id="node16" class="node">
<title>MdescapePipe </title>
<polygon fill="#fb8072" stroke="black" points="703.64,-214.8 602.36,-214.8 602.36,-178.8 703.64,-178.8 703.64,-214.8"/>
<text text-anchor="middle" x="653" y="-192.6" font-family="Times,serif" font-size="14.00">MdescapePipe </text>
</g>
<!-- SharedModule&#45;&gt;MdescapePipe  -->
<g id="edge15" class="edge">
<title>SharedModule&#45;&gt;MdescapePipe </title>
<path fill="none" stroke="black" stroke-dasharray="5,2" d="M653,-149.91C653,-149.91 653,-168.79 653,-168.79"/>
<polygon fill="black" stroke="black" points="649.5,-168.79 653,-178.79 656.5,-168.79 649.5,-168.79"/>
</g>
<!-- MessageComponent  -->
<g id="node17" class="node">
<title>MessageComponent </title>
<polygon fill="#fb8072" stroke="black" points="584.81,-214.8 451.19,-214.8 451.19,-178.8 584.81,-178.8 584.81,-214.8"/>
<text text-anchor="middle" x="518" y="-192.6" font-family="Times,serif" font-size="14.00">MessageComponent </text>
</g>
<!-- SharedModule&#45;&gt;MessageComponent  -->
<g id="edge16" class="edge">
<title>SharedModule&#45;&gt;MessageComponent </title>
<path fill="none" stroke="black" stroke-dasharray="5,2" d="M603.69,-145.8C579.03,-145.8 554.38,-145.8 554.38,-145.8 554.38,-145.8 554.38,-168.68 554.38,-168.68"/>
<polygon fill="black" stroke="black" points="550.88,-168.68 554.38,-178.68 557.88,-168.68 550.88,-168.68"/>
</g>
<!-- NavComponent  -->
<g id="node18" class="node">
<title>NavComponent </title>
<polygon fill="#fb8072" stroke="black" points="433.15,-214.8 324.85,-214.8 324.85,-178.8 433.15,-178.8 433.15,-214.8"/>
<text text-anchor="middle" x="379" y="-192.6" font-family="Times,serif" font-size="14.00">NavComponent </text>
</g>
<!-- SharedModule&#45;&gt;NavComponent  -->
<g id="edge17" class="edge">
<title>SharedModule&#45;&gt;NavComponent </title>
<path fill="none" stroke="black" stroke-dasharray="5,2" d="M603.61,-141.8C534.51,-141.8 417.38,-141.8 417.38,-141.8 417.38,-141.8 417.38,-168.79 417.38,-168.79"/>
<polygon fill="black" stroke="black" points="413.88,-168.79 417.38,-178.79 420.88,-168.79 413.88,-168.79"/>
</g>
<!-- TweetBtnComponent  -->
<g id="node19" class="node">
<title>TweetBtnComponent </title>
<polygon fill="#fb8072" stroke="black" points="307.04,-214.8 166.96,-214.8 166.96,-178.8 307.04,-178.8 307.04,-214.8"/>
<text text-anchor="middle" x="237" y="-192.6" font-family="Times,serif" font-size="14.00">TweetBtnComponent </text>
</g>
<!-- SharedModule&#45;&gt;TweetBtnComponent  -->
<g id="edge18" class="edge">
<title>SharedModule&#45;&gt;TweetBtnComponent </title>
<path fill="none" stroke="black" stroke-dasharray="5,2" d="M603.46,-137.8C503.19,-137.8 285.65,-137.8 285.65,-137.8 285.65,-137.8 285.65,-168.78 285.65,-168.78"/>
<polygon fill="black" stroke="black" points="282.15,-168.78 285.65,-178.78 289.15,-168.78 282.15,-168.78"/>
</g>
<!-- YearPipe  -->
<g id="node20" class="node">
<title>YearPipe </title>
<polygon fill="#fb8072" stroke="black" points="148.59,-214.8 77.41,-214.8 77.41,-178.8 148.59,-178.8 148.59,-214.8"/>
<text text-anchor="middle" x="113" y="-192.6" font-family="Times,serif" font-size="14.00">YearPipe </text>
</g>
<!-- SharedModule&#45;&gt;YearPipe  -->
<g id="edge19" class="edge">
<title>SharedModule&#45;&gt;YearPipe </title>
<path fill="none" stroke="black" stroke-dasharray="5,2" d="M603.73,-133.8C473.35,-133.8 129.26,-133.8 129.26,-133.8 129.26,-133.8 129.26,-168.58 129.26,-168.58"/>
<polygon fill="black" stroke="black" points="125.76,-168.58 129.26,-178.58 132.76,-168.58 125.76,-168.58"/>
</g>
</g>
</svg>
