<?xml version="1.0" encoding="UTF-8" standalone="no"?>
<!DOCTYPE svg PUBLIC "-//W3C//DTD SVG 1.1//EN"
 "http://www.w3.org/Graphics/SVG/1.1/DTD/svg11.dtd">
<!-- Generated by graphviz version 2.47.3 (20210619.1520)
 -->
<!-- Title: dependencies Pages: 1 -->
<svg width="796pt" height="247pt"
 viewBox="0.00 0.00 796.00 246.80" xmlns="http://www.w3.org/2000/svg" xmlns:xlink="http://www.w3.org/1999/xlink">
<g id="graph0" class="graph" transform="scale(1 1) rotate(0) translate(4 242.8)">
<title>dependencies</title>
<polygon fill="white" stroke="transparent" points="-4,4 -4,-242.8 792,-242.8 792,4 -4,4"/>
<text text-anchor="middle" x="394" y="-8.2" font-family="sans-serif" font-size="14.00">dependencies</text>
<g id="clust1" class="cluster">
<title>cluster_SharedModule</title>
<polygon fill="none" stroke="black" stroke-dasharray="1,5" points="8,-32.8 8,-230.8 780,-230.8 780,-32.8 8,-32.8"/>
</g>
<g id="clust9" class="cluster">
<title>cluster_SharedModule_exports</title>
<polygon fill="none" stroke="black" points="16,-170.8 16,-222.8 772,-222.8 772,-170.8 16,-170.8"/>
</g>
<g id="clust2" class="cluster">
<title>cluster_SharedModule_declarations</title>
<polygon fill="none" stroke="black" points="25,-40.8 25,-92.8 764,-92.8 764,-40.8 25,-40.8"/>
</g>
<!-- AmazonAdsComponent -->
<g id="node1" class="node">
<title>AmazonAdsComponent</title>
<polygon fill="#ffffb3" stroke="black" points="755.81,-84.8 604.19,-84.8 604.19,-48.8 755.81,-48.8 755.81,-84.8"/>
<text text-anchor="middle" x="680" y="-62.6" font-family="Times,serif" font-size="14.00">AmazonAdsComponent</text>
</g>
<!-- SharedModule -->
<g id="node6" class="node">
<title>SharedModule</title>
<polygon fill="#8dd3c7" stroke="black" points="424.42,-149.8 421.42,-153.8 400.42,-153.8 397.42,-149.8 325.58,-149.8 325.58,-113.8 424.42,-113.8 424.42,-149.8"/>
<text text-anchor="middle" x="375" y="-127.6" font-family="Times,serif" font-size="14.00">SharedModule</text>
</g>
<!-- AmazonAdsComponent&#45;&gt;SharedModule -->
<g id="edge1" class="edge">
<title>AmazonAdsComponent&#45;&gt;SharedModule</title>
<path fill="none" stroke="black" d="M706.97,-85.07C706.97,-103.36 706.97,-128.8 706.97,-128.8 706.97,-128.8 434.34,-128.8 434.34,-128.8"/>
<polygon fill="black" stroke="black" points="434.34,-125.3 424.34,-128.8 434.34,-132.3 434.34,-125.3"/>
</g>
<!-- LoadingComponent -->
<g id="node2" class="node">
<title>LoadingComponent</title>
<polygon fill="#ffffb3" stroke="black" points="585.99,-84.8 458.01,-84.8 458.01,-48.8 585.99,-48.8 585.99,-84.8"/>
<text text-anchor="middle" x="522" y="-62.6" font-family="Times,serif" font-size="14.00">LoadingComponent</text>
</g>
<!-- LoadingComponent&#45;&gt;SharedModule -->
<g id="edge2" class="edge">
<title>LoadingComponent&#45;&gt;SharedModule</title>
<path fill="none" stroke="black" d="M544.08,-84.81C544.08,-100.85 544.08,-121.8 544.08,-121.8 544.08,-121.8 434.36,-121.8 434.36,-121.8"/>
<polygon fill="black" stroke="black" points="434.36,-118.3 424.36,-121.8 434.36,-125.3 434.36,-118.3"/>
</g>
<!-- MessageComponent -->
<g id="node3" class="node">
<title>MessageComponent</title>
<polygon fill="#ffffb3" stroke="black" points="440.31,-84.8 309.69,-84.8 309.69,-48.8 440.31,-48.8 440.31,-84.8"/>
<text text-anchor="middle" x="375" y="-62.6" font-family="Times,serif" font-size="14.00">MessageComponent</text>
</g>
<!-- MessageComponent&#45;&gt;SharedModule -->
<g id="edge3" class="edge">
<title>MessageComponent&#45;&gt;SharedModule</title>
<path fill="none" stroke="black" d="M375,-84.91C375,-84.91 375,-103.79 375,-103.79"/>
<polygon fill="black" stroke="black" points="371.5,-103.79 375,-113.79 378.5,-103.79 371.5,-103.79"/>
</g>
<!-- NavComponent -->
<g id="node4" class="node">
<title>NavComponent</title>
<polygon fill="#ffffb3" stroke="black" points="292.15,-84.8 187.85,-84.8 187.85,-48.8 292.15,-48.8 292.15,-84.8"/>
<text text-anchor="middle" x="240" y="-62.6" font-family="Times,serif" font-size="14.00">NavComponent</text>
</g>
<!-- NavComponent&#45;&gt;SharedModule -->
<g id="edge4" class="edge">
<title>NavComponent&#45;&gt;SharedModule</title>
<path fill="none" stroke="black" d="M255.94,-84.81C255.94,-100.85 255.94,-121.8 255.94,-121.8 255.94,-121.8 315.54,-121.8 315.54,-121.8"/>
<polygon fill="black" stroke="black" points="315.54,-125.3 325.54,-121.8 315.54,-118.3 315.54,-125.3"/>
</g>
<!-- TweetBtnComponent -->
<g id="node5" class="node">
<title>TweetBtnComponent</title>
<polygon fill="#ffffb3" stroke="black" points="169.04,-84.8 32.96,-84.8 32.96,-48.8 169.04,-48.8 169.04,-84.8"/>
<text text-anchor="middle" x="101" y="-62.6" font-family="Times,serif" font-size="14.00">TweetBtnComponent</text>
</g>
<!-- TweetBtnComponent&#45;&gt;SharedModule -->
<g id="edge5" class="edge">
<title>TweetBtnComponent&#45;&gt;SharedModule</title>
<path fill="none" stroke="black" d="M120.26,-85.07C120.26,-103.36 120.26,-128.8 120.26,-128.8 120.26,-128.8 315.58,-128.8 315.58,-128.8"/>
<polygon fill="black" stroke="black" points="315.58,-132.3 325.58,-128.8 315.58,-125.3 315.58,-132.3"/>
</g>
<!-- AmazonAdsComponent  -->
<g id="node7" class="node">
<title>AmazonAdsComponent </title>
<polygon fill="#fb8072" stroke="black" points="764.31,-214.8 609.69,-214.8 609.69,-178.8 764.31,-178.8 764.31,-214.8"/>
<text text-anchor="middle" x="687" y="-192.6" font-family="Times,serif" font-size="14.00">AmazonAdsComponent </text>
</g>
<!-- SharedModule&#45;&gt;AmazonAdsComponent  -->
<g id="edge6" class="edge">
<title>SharedModule&#45;&gt;AmazonAdsComponent </title>
<path fill="none" stroke="black" stroke-dasharray="5,2" d="M424.34,-135.8C505.51,-135.8 658.28,-135.8 658.28,-135.8 658.28,-135.8 658.28,-168.5 658.28,-168.5"/>
<polygon fill="black" stroke="black" points="654.78,-168.5 658.28,-178.5 661.78,-168.5 654.78,-168.5"/>
</g>
<!-- LoadingComponent  -->
<g id="node8" class="node">
<title>LoadingComponent </title>
<polygon fill="#fb8072" stroke="black" points="591.99,-214.8 460.01,-214.8 460.01,-178.8 591.99,-178.8 591.99,-214.8"/>
<text text-anchor="middle" x="526" y="-192.6" font-family="Times,serif" font-size="14.00">LoadingComponent </text>
</g>
<!-- SharedModule&#45;&gt;LoadingComponent  -->
<g id="edge7" class="edge">
<title>SharedModule&#45;&gt;LoadingComponent </title>
<path fill="none" stroke="black" stroke-dasharray="5,2" d="M424.53,-142.8C460.24,-142.8 502.17,-142.8 502.17,-142.8 502.17,-142.8 502.17,-168.52 502.17,-168.52"/>
<polygon fill="black" stroke="black" points="498.67,-168.52 502.17,-178.52 505.67,-168.52 498.67,-168.52"/>
</g>
<!-- MessageComponent  -->
<g id="node9" class="node">
<title>MessageComponent </title>
<polygon fill="#fb8072" stroke="black" points="441.81,-214.8 308.19,-214.8 308.19,-178.8 441.81,-178.8 441.81,-214.8"/>
<text text-anchor="middle" x="375" y="-192.6" font-family="Times,serif" font-size="14.00">MessageComponent </text>
</g>
<!-- SharedModule&#45;&gt;MessageComponent  -->
<g id="edge8" class="edge">
<title>SharedModule&#45;&gt;MessageComponent </title>
<path fill="none" stroke="black" stroke-dasharray="5,2" d="M375,-149.91C375,-149.91 375,-168.79 375,-168.79"/>
<polygon fill="black" stroke="black" points="371.5,-168.79 375,-178.79 378.5,-168.79 371.5,-168.79"/>
</g>
<!-- NavComponent  -->
<g id="node10" class="node">
<title>NavComponent </title>
<polygon fill="#fb8072" stroke="black" points="290.15,-214.8 181.85,-214.8 181.85,-178.8 290.15,-178.8 290.15,-214.8"/>
<text text-anchor="middle" x="236" y="-192.6" font-family="Times,serif" font-size="14.00">NavComponent </text>
</g>
<!-- SharedModule&#45;&gt;NavComponent  -->
<g id="edge9" class="edge">
<title>SharedModule&#45;&gt;NavComponent </title>
<path fill="none" stroke="black" stroke-dasharray="5,2" d="M325.69,-142.8C280.9,-142.8 221.81,-142.8 221.81,-142.8 221.81,-142.8 221.81,-168.52 221.81,-168.52"/>
<polygon fill="black" stroke="black" points="218.31,-168.52 221.81,-178.52 225.31,-168.52 218.31,-168.52"/>
</g>
<!-- TweetBtnComponent  -->
<g id="node11" class="node">
<title>TweetBtnComponent </title>
<polygon fill="#fb8072" stroke="black" points="164.04,-214.8 23.96,-214.8 23.96,-178.8 164.04,-178.8 164.04,-214.8"/>
<text text-anchor="middle" x="94" y="-192.6" font-family="Times,serif" font-size="14.00">TweetBtnComponent </text>
</g>
<!-- SharedModule&#45;&gt;TweetBtnComponent  -->
<g id="edge10" class="edge">
<title>SharedModule&#45;&gt;TweetBtnComponent </title>
<path fill="none" stroke="black" stroke-dasharray="5,2" d="M325.71,-135.8C240.92,-135.8 76.49,-135.8 76.49,-135.8 76.49,-135.8 76.49,-168.5 76.49,-168.5"/>
<polygon fill="black" stroke="black" points="72.99,-168.5 76.49,-178.5 79.99,-168.5 72.99,-168.5"/>
</g>
</g>
</svg>
