<?xml version="1.0" encoding="UTF-8" standalone="no"?>
<!DOCTYPE svg PUBLIC "-//W3C//DTD SVG 1.1//EN"
 "http://www.w3.org/Graphics/SVG/1.1/DTD/svg11.dtd">
<!-- Generated by graphviz version 2.47.3 (20210619.1520)
 -->
<!-- Title: dependencies Pages: 1 -->
<svg width="742pt" height="174pt"
 viewBox="0.00 0.00 742.00 173.80" xmlns="http://www.w3.org/2000/svg" xmlns:xlink="http://www.w3.org/1999/xlink">
<g id="graph0" class="graph" transform="scale(1 1) rotate(0) translate(4 169.8)">
<title>dependencies</title>
<polygon fill="white" stroke="transparent" points="-4,4 -4,-169.8 738,-169.8 738,4 -4,4"/>
<text text-anchor="middle" x="367" y="-8.2" font-family="sans-serif" font-size="14.00">dependencies</text>
<g id="clust1" class="cluster">
<title>cluster_HomeModule</title>
<polygon fill="none" stroke="black" stroke-dasharray="1,5" points="8,-32.8 8,-157.8 726,-157.8 726,-32.8 8,-32.8"/>
</g>
<g id="clust7" class="cluster">
<title>cluster_HomeModule_imports</title>
<polygon fill="none" stroke="black" points="564,-40.8 564,-92.8 718,-92.8 718,-40.8 564,-40.8"/>
</g>
<g id="clust2" class="cluster">
<title>cluster_HomeModule_declarations</title>
<polygon fill="none" stroke="black" points="16,-40.8 16,-92.8 556,-92.8 556,-40.8 16,-40.8"/>
</g>
<!-- ContactComponent -->
<g id="node1" class="node">
<title>ContactComponent</title>
<polygon fill="#ffffb3" stroke="black" points="548.38,-84.8 423.62,-84.8 423.62,-48.8 548.38,-48.8 548.38,-84.8"/>
<text text-anchor="middle" x="486" y="-62.6" font-family="Times,serif" font-size="14.00">ContactComponent</text>
</g>
<!-- HomeModule -->
<g id="node5" class="node">
<title>HomeModule</title>
<polygon fill="#8dd3c7" stroke="black" points="395.76,-149.8 392.76,-153.8 371.76,-153.8 368.76,-149.8 302.24,-149.8 302.24,-113.8 395.76,-113.8 395.76,-149.8"/>
<text text-anchor="middle" x="349" y="-127.6" font-family="Times,serif" font-size="14.00">HomeModule</text>
</g>
<!-- ContactComponent&#45;&gt;HomeModule -->
<g id="edge1" class="edge">
<title>ContactComponent&#45;&gt;HomeModule</title>
<path fill="none" stroke="black" d="M486,-84.82C486,-102.17 486,-125.8 486,-125.8 486,-125.8 405.76,-125.8 405.76,-125.8"/>
<polygon fill="black" stroke="black" points="405.76,-122.3 395.76,-125.8 405.76,-129.3 405.76,-122.3"/>
</g>
<!-- IndexComponent -->
<g id="node2" class="node">
<title>IndexComponent</title>
<polygon fill="#ffffb3" stroke="black" points="405.71,-84.8 292.29,-84.8 292.29,-48.8 405.71,-48.8 405.71,-84.8"/>
<text text-anchor="middle" x="349" y="-62.6" font-family="Times,serif" font-size="14.00">IndexComponent</text>
</g>
<!-- IndexComponent&#45;&gt;HomeModule -->
<g id="edge2" class="edge">
<title>IndexComponent&#45;&gt;HomeModule</title>
<path fill="none" stroke="black" d="M349,-84.91C349,-84.91 349,-103.79 349,-103.79"/>
<polygon fill="black" stroke="black" points="345.5,-103.79 349,-113.79 352.5,-103.79 345.5,-103.79"/>
</g>
<!-- NewsComponent -->
<g id="node3" class="node">
<title>NewsComponent</title>
<polygon fill="#ffffb3" stroke="black" points="274.7,-84.8 161.3,-84.8 161.3,-48.8 274.7,-48.8 274.7,-84.8"/>
<text text-anchor="middle" x="218" y="-62.6" font-family="Times,serif" font-size="14.00">NewsComponent</text>
</g>
<!-- NewsComponent&#45;&gt;HomeModule -->
<g id="edge3" class="edge">
<title>NewsComponent&#45;&gt;HomeModule</title>
<path fill="none" stroke="black" d="M218,-84.82C218,-102.17 218,-125.8 218,-125.8 218,-125.8 292.08,-125.8 292.08,-125.8"/>
<polygon fill="black" stroke="black" points="292.08,-129.3 302.08,-125.8 292.08,-122.3 292.08,-129.3"/>
</g>
<!-- ProfileComponent -->
<g id="node4" class="node">
<title>ProfileComponent</title>
<polygon fill="#ffffb3" stroke="black" points="143.93,-84.8 24.07,-84.8 24.07,-48.8 143.93,-48.8 143.93,-84.8"/>
<text text-anchor="middle" x="84" y="-62.6" font-family="Times,serif" font-size="14.00">ProfileComponent</text>
</g>
<!-- ProfileComponent&#45;&gt;HomeModule -->
<g id="edge4" class="edge">
<title>ProfileComponent&#45;&gt;HomeModule</title>
<path fill="none" stroke="black" d="M84,-85.08C84,-106.12 84,-137.8 84,-137.8 84,-137.8 292.23,-137.8 292.23,-137.8"/>
<polygon fill="black" stroke="black" points="292.23,-141.3 302.23,-137.8 292.23,-134.3 292.23,-141.3"/>
</g>
<!-- HomeRoutingModule -->
<g id="node6" class="node">
<title>HomeRoutingModule</title>
<polygon fill="#8dd3c7" stroke="black" points="710.38,-84.8 707.38,-88.8 686.38,-88.8 683.38,-84.8 571.62,-84.8 571.62,-48.8 710.38,-48.8 710.38,-84.8"/>
<text text-anchor="middle" x="641" y="-62.6" font-family="Times,serif" font-size="14.00">HomeRoutingModule</text>
</g>
<!-- HomeRoutingModule&#45;&gt;HomeModule -->
<g id="edge5" class="edge">
<title>HomeRoutingModule&#45;&gt;HomeModule</title>
<path fill="none" stroke="black" d="M641,-85.08C641,-106.12 641,-137.8 641,-137.8 641,-137.8 405.91,-137.8 405.91,-137.8"/>
<polygon fill="black" stroke="black" points="405.91,-134.3 395.91,-137.8 405.91,-141.3 405.91,-134.3"/>
</g>
</g>
</svg>
