<?xml version="1.0" encoding="UTF-8" standalone="no"?>
<!DOCTYPE svg PUBLIC "-//W3C//DTD SVG 1.1//EN"
 "http://www.w3.org/Graphics/SVG/1.1/DTD/svg11.dtd">
<!-- Generated by graphviz version 2.47.3 (20210619.1520)
 -->
<!-- Title: dependencies Pages: 1 -->
<svg width="469pt" height="174pt"
 viewBox="0.00 0.00 469.00 173.80" xmlns="http://www.w3.org/2000/svg" xmlns:xlink="http://www.w3.org/1999/xlink">
<g id="graph0" class="graph" transform="scale(1 1) rotate(0) translate(4 169.8)">
<title>dependencies</title>
<polygon fill="white" stroke="transparent" points="-4,4 -4,-169.8 465,-169.8 465,4 -4,4"/>
<text text-anchor="middle" x="230.5" y="-8.2" font-family="sans-serif" font-size="14.00">dependencies</text>
<g id="clust1" class="cluster">
<title>cluster_HomeModule</title>
<polygon fill="none" stroke="black" stroke-dasharray="1,5" points="8,-32.8 8,-157.8 453,-157.8 453,-32.8 8,-32.8"/>
</g>
<g id="clust2" class="cluster">
<title>cluster_HomeModule_declarations</title>
<polygon fill="none" stroke="black" points="178,-40.8 178,-92.8 445,-92.8 445,-40.8 178,-40.8"/>
</g>
<g id="clust5" class="cluster">
<title>cluster_HomeModule_imports</title>
<polygon fill="none" stroke="black" points="16,-40.8 16,-92.8 170,-92.8 170,-40.8 16,-40.8"/>
</g>
<!-- IndexComponent -->
<g id="node1" class="node">
<title>IndexComponent</title>
<polygon fill="#ffffb3" stroke="black" points="436.71,-84.8 323.29,-84.8 323.29,-48.8 436.71,-48.8 436.71,-84.8"/>
<text text-anchor="middle" x="380" y="-62.6" font-family="Times,serif" font-size="14.00">IndexComponent</text>
</g>
<!-- HomeModule -->
<g id="node3" class="node">
<title>HomeModule</title>
<polygon fill="#8dd3c7" stroke="black" points="292.76,-149.8 289.76,-153.8 268.76,-153.8 265.76,-149.8 199.24,-149.8 199.24,-113.8 292.76,-113.8 292.76,-149.8"/>
<text text-anchor="middle" x="246" y="-127.6" font-family="Times,serif" font-size="14.00">HomeModule</text>
</g>
<!-- IndexComponent&#45;&gt;HomeModule -->
<g id="edge1" class="edge">
<title>IndexComponent&#45;&gt;HomeModule</title>
<path fill="none" stroke="black" d="M380,-84.91C380,-104.14 380,-131.8 380,-131.8 380,-131.8 302.87,-131.8 302.87,-131.8"/>
<polygon fill="black" stroke="black" points="302.87,-128.3 292.87,-131.8 302.87,-135.3 302.87,-128.3"/>
</g>
<!-- ProfileComponent -->
<g id="node2" class="node">
<title>ProfileComponent</title>
<polygon fill="#ffffb3" stroke="black" points="305.93,-84.8 186.07,-84.8 186.07,-48.8 305.93,-48.8 305.93,-84.8"/>
<text text-anchor="middle" x="246" y="-62.6" font-family="Times,serif" font-size="14.00">ProfileComponent</text>
</g>
<!-- ProfileComponent&#45;&gt;HomeModule -->
<g id="edge2" class="edge">
<title>ProfileComponent&#45;&gt;HomeModule</title>
<path fill="none" stroke="black" d="M246,-84.91C246,-84.91 246,-103.79 246,-103.79"/>
<polygon fill="black" stroke="black" points="242.5,-103.79 246,-113.79 249.5,-103.79 242.5,-103.79"/>
</g>
<!-- HomeRoutingModule -->
<g id="node4" class="node">
<title>HomeRoutingModule</title>
<polygon fill="#8dd3c7" stroke="black" points="162.38,-84.8 159.38,-88.8 138.38,-88.8 135.38,-84.8 23.62,-84.8 23.62,-48.8 162.38,-48.8 162.38,-84.8"/>
<text text-anchor="middle" x="93" y="-62.6" font-family="Times,serif" font-size="14.00">HomeRoutingModule</text>
</g>
<!-- HomeRoutingModule&#45;&gt;HomeModule -->
<g id="edge3" class="edge">
<title>HomeRoutingModule&#45;&gt;HomeModule</title>
<path fill="none" stroke="black" d="M93,-84.91C93,-104.14 93,-131.8 93,-131.8 93,-131.8 188.85,-131.8 188.85,-131.8"/>
<polygon fill="black" stroke="black" points="188.85,-135.3 198.85,-131.8 188.85,-128.3 188.85,-135.3"/>
</g>
</g>
</svg>
