<?xml version="1.0" encoding="UTF-8" standalone="no"?>
<!DOCTYPE svg PUBLIC "-//W3C//DTD SVG 1.1//EN"
 "http://www.w3.org/Graphics/SVG/1.1/DTD/svg11.dtd">
<!-- Generated by graphviz version 2.47.3 (20210619.1520)
 -->
<!-- Title: dependencies Pages: 1 -->
<svg width="859pt" height="174pt"
 viewBox="0.00 0.00 859.00 173.80" xmlns="http://www.w3.org/2000/svg" xmlns:xlink="http://www.w3.org/1999/xlink">
<g id="graph0" class="graph" transform="scale(1 1) rotate(0) translate(4 169.8)">
<title>dependencies</title>
<polygon fill="white" stroke="transparent" points="-4,4 -4,-169.8 855,-169.8 855,4 -4,4"/>
<text text-anchor="middle" x="425.5" y="-8.2" font-family="sans-serif" font-size="14.00">dependencies</text>
<g id="clust1" class="cluster">
<title>cluster_HomeModule</title>
<polygon fill="none" stroke="black" stroke-dasharray="1,5" points="8,-32.8 8,-157.8 843,-157.8 843,-32.8 8,-32.8"/>
</g>
<g id="clust2" class="cluster">
<title>cluster_HomeModule_declarations</title>
<polygon fill="none" stroke="black" points="295,-40.8 295,-92.8 835,-92.8 835,-40.8 295,-40.8"/>
</g>
<g id="clust7" class="cluster">
<title>cluster_HomeModule_imports</title>
<polygon fill="none" stroke="black" points="16,-40.8 16,-92.8 287,-92.8 287,-40.8 16,-40.8"/>
</g>
<!-- ContactComponent -->
<g id="node1" class="node">
<title>ContactComponent</title>
<polygon fill="#ffffb3" stroke="black" points="827.38,-84.8 702.62,-84.8 702.62,-48.8 827.38,-48.8 827.38,-84.8"/>
<text text-anchor="middle" x="765" y="-62.6" font-family="Times,serif" font-size="14.00">ContactComponent</text>
</g>
<!-- HomeModule -->
<g id="node5" class="node">
<title>HomeModule</title>
<polygon fill="#8dd3c7" stroke="black" points="476.76,-149.8 473.76,-153.8 452.76,-153.8 449.76,-149.8 383.24,-149.8 383.24,-113.8 476.76,-113.8 476.76,-149.8"/>
<text text-anchor="middle" x="430" y="-127.6" font-family="Times,serif" font-size="14.00">HomeModule</text>
</g>
<!-- ContactComponent&#45;&gt;HomeModule -->
<g id="edge1" class="edge">
<title>ContactComponent&#45;&gt;HomeModule</title>
<path fill="none" stroke="black" d="M765,-85.08C765,-106.12 765,-137.8 765,-137.8 765,-137.8 486.93,-137.8 486.93,-137.8"/>
<polygon fill="black" stroke="black" points="486.93,-134.3 476.93,-137.8 486.93,-141.3 486.93,-134.3"/>
</g>
<!-- IndexComponent -->
<g id="node2" class="node">
<title>IndexComponent</title>
<polygon fill="#ffffb3" stroke="black" points="684.71,-84.8 571.29,-84.8 571.29,-48.8 684.71,-48.8 684.71,-84.8"/>
<text text-anchor="middle" x="628" y="-62.6" font-family="Times,serif" font-size="14.00">IndexComponent</text>
</g>
<!-- IndexComponent&#45;&gt;HomeModule -->
<g id="edge2" class="edge">
<title>IndexComponent&#45;&gt;HomeModule</title>
<path fill="none" stroke="black" d="M628,-84.82C628,-102.17 628,-125.8 628,-125.8 628,-125.8 486.92,-125.8 486.92,-125.8"/>
<polygon fill="black" stroke="black" points="486.92,-122.3 476.92,-125.8 486.92,-129.3 486.92,-122.3"/>
</g>
<!-- NewsComponent -->
<g id="node3" class="node">
<title>NewsComponent</title>
<polygon fill="#ffffb3" stroke="black" points="553.7,-84.8 440.3,-84.8 440.3,-48.8 553.7,-48.8 553.7,-84.8"/>
<text text-anchor="middle" x="497" y="-62.6" font-family="Times,serif" font-size="14.00">NewsComponent</text>
</g>
<!-- NewsComponent&#45;&gt;HomeModule -->
<g id="edge3" class="edge">
<title>NewsComponent&#45;&gt;HomeModule</title>
<path fill="none" stroke="black" d="M458.64,-84.91C458.64,-84.91 458.64,-103.79 458.64,-103.79"/>
<polygon fill="black" stroke="black" points="455.14,-103.79 458.64,-113.79 462.14,-103.79 455.14,-103.79"/>
</g>
<!-- ProfileComponent -->
<g id="node4" class="node">
<title>ProfileComponent</title>
<polygon fill="#ffffb3" stroke="black" points="422.93,-84.8 303.07,-84.8 303.07,-48.8 422.93,-48.8 422.93,-84.8"/>
<text text-anchor="middle" x="363" y="-62.6" font-family="Times,serif" font-size="14.00">ProfileComponent</text>
</g>
<!-- ProfileComponent&#45;&gt;HomeModule -->
<g id="edge4" class="edge">
<title>ProfileComponent&#45;&gt;HomeModule</title>
<path fill="none" stroke="black" d="M402.92,-84.91C402.92,-84.91 402.92,-103.79 402.92,-103.79"/>
<polygon fill="black" stroke="black" points="399.42,-103.79 402.92,-113.79 406.42,-103.79 399.42,-103.79"/>
</g>
<!-- HomeRoutingModule -->
<g id="node6" class="node">
<title>HomeRoutingModule</title>
<polygon fill="#8dd3c7" stroke="black" points="279.38,-84.8 276.38,-88.8 255.38,-88.8 252.38,-84.8 140.62,-84.8 140.62,-48.8 279.38,-48.8 279.38,-84.8"/>
<text text-anchor="middle" x="210" y="-62.6" font-family="Times,serif" font-size="14.00">HomeRoutingModule</text>
</g>
<!-- HomeRoutingModule&#45;&gt;HomeModule -->
<g id="edge5" class="edge">
<title>HomeRoutingModule&#45;&gt;HomeModule</title>
<path fill="none" stroke="black" d="M210,-84.82C210,-102.17 210,-125.8 210,-125.8 210,-125.8 373.07,-125.8 373.07,-125.8"/>
<polygon fill="black" stroke="black" points="373.07,-129.3 383.07,-125.8 373.07,-122.3 373.07,-129.3"/>
</g>
<!-- SharedModule -->
<g id="node7" class="node">
<title>SharedModule</title>
<polygon fill="#8dd3c7" stroke="black" points="122.42,-84.8 119.42,-88.8 98.42,-88.8 95.42,-84.8 23.58,-84.8 23.58,-48.8 122.42,-48.8 122.42,-84.8"/>
<text text-anchor="middle" x="73" y="-62.6" font-family="Times,serif" font-size="14.00">SharedModule</text>
</g>
<!-- SharedModule&#45;&gt;HomeModule -->
<g id="edge6" class="edge">
<title>SharedModule&#45;&gt;HomeModule</title>
<path fill="none" stroke="black" d="M73,-85.08C73,-106.12 73,-137.8 73,-137.8 73,-137.8 372.96,-137.8 372.96,-137.8"/>
<polygon fill="black" stroke="black" points="372.96,-141.3 382.96,-137.8 372.96,-134.3 372.96,-141.3"/>
</g>
</g>
</svg>
