<?xml version="1.0" encoding="UTF-8" standalone="no"?>
<!DOCTYPE svg PUBLIC "-//W3C//DTD SVG 1.1//EN"
 "http://www.w3.org/Graphics/SVG/1.1/DTD/svg11.dtd">
<!-- Generated by graphviz version 5.0.0 (20220707.1540)
 -->
<!-- Title: dependencies Pages: 1 -->
<svg width="580pt" height="174pt"
 viewBox="0.00 0.00 580.00 173.80" xmlns="http://www.w3.org/2000/svg" xmlns:xlink="http://www.w3.org/1999/xlink">
<g id="graph0" class="graph" transform="scale(1 1) rotate(0) translate(4 169.8)">
<title>dependencies</title>
<polygon fill="white" stroke="transparent" points="-4,4 -4,-169.8 576,-169.8 576,4 -4,4"/>
<text text-anchor="middle" x="286" y="-8.2" font-family="sans-serif" font-size="14.00">dependencies</text>
<g id="clust1" class="cluster">
<title>cluster_HomeModule</title>
<polygon fill="none" stroke="black" stroke-dasharray="1,5" points="8,-32.8 8,-157.8 564,-157.8 564,-32.8 8,-32.8"/>
</g>
<g id="clust2" class="cluster">
<title>cluster_HomeModule_declarations</title>
<polygon fill="none" stroke="black" points="295,-40.8 295,-92.8 556,-92.8 556,-40.8 295,-40.8"/>
</g>
<g id="clust5" class="cluster">
<title>cluster_HomeModule_imports</title>
<polygon fill="none" stroke="black" points="16,-40.8 16,-92.8 287,-92.8 287,-40.8 16,-40.8"/>
</g>
<!-- IndexComponent -->
<g id="node1" class="node">
<title>IndexComponent</title>
<polygon fill="#ffffb3" stroke="black" points="547.71,-84.8 434.29,-84.8 434.29,-48.8 547.71,-48.8 547.71,-84.8"/>
<text text-anchor="middle" x="491" y="-62.6" font-family="Times,serif" font-size="14.00">IndexComponent</text>
</g>
<!-- HomeModule -->
<g id="node3" class="node">
<title>HomeModule</title>
<polygon fill="#8dd3c7" stroke="black" points="331.77,-149.8 328.77,-153.8 307.77,-153.8 304.77,-149.8 238.23,-149.8 238.23,-113.8 331.77,-113.8 331.77,-149.8"/>
<text text-anchor="middle" x="285" y="-127.6" font-family="Times,serif" font-size="14.00">HomeModule</text>
</g>
<!-- IndexComponent&#45;&gt;HomeModule -->
<g id="edge1" class="edge">
<title>IndexComponent&#45;&gt;HomeModule</title>
<path fill="none" stroke="black" d="M491,-84.91C491,-104.14 491,-131.8 491,-131.8 491,-131.8 342,-131.8 342,-131.8"/>
<polygon fill="black" stroke="black" points="342,-128.3 332,-131.8 342,-135.3 342,-128.3"/>
</g>
<!-- NewsComponent -->
<g id="node2" class="node">
<title>NewsComponent</title>
<polygon fill="#ffffb3" stroke="black" points="416.71,-84.8 303.29,-84.8 303.29,-48.8 416.71,-48.8 416.71,-84.8"/>
<text text-anchor="middle" x="360" y="-62.6" font-family="Times,serif" font-size="14.00">NewsComponent</text>
</g>
<!-- NewsComponent&#45;&gt;HomeModule -->
<g id="edge2" class="edge">
<title>NewsComponent&#45;&gt;HomeModule</title>
<path fill="none" stroke="black" d="M317.64,-84.91C317.64,-84.91 317.64,-103.79 317.64,-103.79"/>
<polygon fill="black" stroke="black" points="314.14,-103.79 317.64,-113.79 321.14,-103.79 314.14,-103.79"/>
</g>
<!-- HomeRoutingModule -->
<g id="node4" class="node">
<title>HomeRoutingModule</title>
<polygon fill="#8dd3c7" stroke="black" points="279.38,-84.8 276.38,-88.8 255.38,-88.8 252.38,-84.8 140.62,-84.8 140.62,-48.8 279.38,-48.8 279.38,-84.8"/>
<text text-anchor="middle" x="210" y="-62.6" font-family="Times,serif" font-size="14.00">HomeRoutingModule</text>
</g>
<!-- HomeRoutingModule&#45;&gt;HomeModule -->
<g id="edge3" class="edge">
<title>HomeRoutingModule&#45;&gt;HomeModule</title>
<path fill="none" stroke="black" d="M258.78,-84.91C258.78,-84.91 258.78,-103.79 258.78,-103.79"/>
<polygon fill="black" stroke="black" points="255.28,-103.79 258.78,-113.79 262.28,-103.79 255.28,-103.79"/>
</g>
<!-- SharedModule -->
<g id="node5" class="node">
<title>SharedModule</title>
<polygon fill="#8dd3c7" stroke="black" points="122.43,-84.8 119.43,-88.8 98.43,-88.8 95.43,-84.8 23.57,-84.8 23.57,-48.8 122.43,-48.8 122.43,-84.8"/>
<text text-anchor="middle" x="73" y="-62.6" font-family="Times,serif" font-size="14.00">SharedModule</text>
</g>
<!-- SharedModule&#45;&gt;HomeModule -->
<g id="edge4" class="edge">
<title>SharedModule&#45;&gt;HomeModule</title>
<path fill="none" stroke="black" d="M73,-84.91C73,-104.14 73,-131.8 73,-131.8 73,-131.8 228.21,-131.8 228.21,-131.8"/>
<polygon fill="black" stroke="black" points="228.21,-135.3 238.21,-131.8 228.21,-128.3 228.21,-135.3"/>
</g>
</g>
</svg>
