<?xml version="1.0" encoding="UTF-8" standalone="no"?>
<!DOCTYPE svg PUBLIC "-//W3C//DTD SVG 1.1//EN"
 "http://www.w3.org/Graphics/SVG/1.1/DTD/svg11.dtd">
<!-- Generated by graphviz version 2.47.3 (20210619.1520)
 -->
<!-- Title: dependencies Pages: 1 -->
<svg width="874pt" height="174pt"
 viewBox="0.00 0.00 874.00 173.80" xmlns="http://www.w3.org/2000/svg" xmlns:xlink="http://www.w3.org/1999/xlink">
<g id="graph0" class="graph" transform="scale(1 1) rotate(0) translate(4 169.8)">
<title>dependencies</title>
<polygon fill="white" stroke="transparent" points="-4,4 -4,-169.8 870,-169.8 870,4 -4,4"/>
<text text-anchor="middle" x="433" y="-8.2" font-family="sans-serif" font-size="14.00">dependencies</text>
<g id="clust1" class="cluster">
<title>cluster_HomeModule</title>
<polygon fill="none" stroke="black" stroke-dasharray="1,5" points="8,-32.8 8,-157.8 858,-157.8 858,-32.8 8,-32.8"/>
</g>
<g id="clust2" class="cluster">
<title>cluster_HomeModule_declarations</title>
<polygon fill="none" stroke="black" points="295,-40.8 295,-92.8 850,-92.8 850,-40.8 295,-40.8"/>
</g>
<g id="clust7" class="cluster">
<title>cluster_HomeModule_imports</title>
<polygon fill="none" stroke="black" points="16,-40.8 16,-92.8 287,-92.8 287,-40.8 16,-40.8"/>
</g>
<!-- ContactComponent -->
<g id="node1" class="node">
<title>ContactComponent</title>
<polygon fill="#ffffb3" stroke="black" points="842.38,-84.8 717.62,-84.8 717.62,-48.8 842.38,-48.8 842.38,-84.8"/>
<text text-anchor="middle" x="780" y="-62.6" font-family="Times,serif" font-size="14.00">ContactComponent</text>
</g>
<!-- HomeModule -->
<g id="node5" class="node">
<title>HomeModule</title>
<polygon fill="#8dd3c7" stroke="black" points="487.76,-149.8 484.76,-153.8 463.76,-153.8 460.76,-149.8 394.24,-149.8 394.24,-113.8 487.76,-113.8 487.76,-149.8"/>
<text text-anchor="middle" x="441" y="-127.6" font-family="Times,serif" font-size="14.00">HomeModule</text>
</g>
<!-- ContactComponent&#45;&gt;HomeModule -->
<g id="edge1" class="edge">
<title>ContactComponent&#45;&gt;HomeModule</title>
<path fill="none" stroke="black" d="M780,-85.08C780,-106.12 780,-137.8 780,-137.8 780,-137.8 497.78,-137.8 497.78,-137.8"/>
<polygon fill="black" stroke="black" points="497.78,-134.3 487.78,-137.8 497.78,-141.3 497.78,-134.3"/>
</g>
<!-- IndexComponent -->
<g id="node2" class="node">
<title>IndexComponent</title>
<polygon fill="#ffffb3" stroke="black" points="699.71,-84.8 586.29,-84.8 586.29,-48.8 699.71,-48.8 699.71,-84.8"/>
<text text-anchor="middle" x="643" y="-62.6" font-family="Times,serif" font-size="14.00">IndexComponent</text>
</g>
<!-- IndexComponent&#45;&gt;HomeModule -->
<g id="edge2" class="edge">
<title>IndexComponent&#45;&gt;HomeModule</title>
<path fill="none" stroke="black" d="M643,-84.82C643,-102.17 643,-125.8 643,-125.8 643,-125.8 497.85,-125.8 497.85,-125.8"/>
<polygon fill="black" stroke="black" points="497.85,-122.3 487.85,-125.8 497.85,-129.3 497.85,-122.3"/>
</g>
<!-- NewsComponent -->
<g id="node3" class="node">
<title>NewsComponent</title>
<polygon fill="#ffffb3" stroke="black" points="568.7,-84.8 455.3,-84.8 455.3,-48.8 568.7,-48.8 568.7,-84.8"/>
<text text-anchor="middle" x="512" y="-62.6" font-family="Times,serif" font-size="14.00">NewsComponent</text>
</g>
<!-- NewsComponent&#45;&gt;HomeModule -->
<g id="edge3" class="edge">
<title>NewsComponent&#45;&gt;HomeModule</title>
<path fill="none" stroke="black" d="M471.64,-84.91C471.64,-84.91 471.64,-103.79 471.64,-103.79"/>
<polygon fill="black" stroke="black" points="468.14,-103.79 471.64,-113.79 475.14,-103.79 468.14,-103.79"/>
</g>
<!-- ToolsListComponent -->
<g id="node4" class="node">
<title>ToolsListComponent</title>
<polygon fill="#ffffb3" stroke="black" points="437.5,-84.8 302.5,-84.8 302.5,-48.8 437.5,-48.8 437.5,-84.8"/>
<text text-anchor="middle" x="370" y="-62.6" font-family="Times,serif" font-size="14.00">ToolsListComponent</text>
</g>
<!-- ToolsListComponent&#45;&gt;HomeModule -->
<g id="edge4" class="edge">
<title>ToolsListComponent&#45;&gt;HomeModule</title>
<path fill="none" stroke="black" d="M415.81,-84.91C415.81,-84.91 415.81,-103.79 415.81,-103.79"/>
<polygon fill="black" stroke="black" points="412.31,-103.79 415.81,-113.79 419.31,-103.79 412.31,-103.79"/>
</g>
<!-- HomeRoutingModule -->
<g id="node6" class="node">
<title>HomeRoutingModule</title>
<polygon fill="#8dd3c7" stroke="black" points="279.38,-84.8 276.38,-88.8 255.38,-88.8 252.38,-84.8 140.62,-84.8 140.62,-48.8 279.38,-48.8 279.38,-84.8"/>
<text text-anchor="middle" x="210" y="-62.6" font-family="Times,serif" font-size="14.00">HomeRoutingModule</text>
</g>
<!-- HomeRoutingModule&#45;&gt;HomeModule -->
<g id="edge5" class="edge">
<title>HomeRoutingModule&#45;&gt;HomeModule</title>
<path fill="none" stroke="black" d="M210,-84.82C210,-102.17 210,-125.8 210,-125.8 210,-125.8 383.98,-125.8 383.98,-125.8"/>
<polygon fill="black" stroke="black" points="383.98,-129.3 393.98,-125.8 383.98,-122.3 383.98,-129.3"/>
</g>
<!-- SharedModule -->
<g id="node7" class="node">
<title>SharedModule</title>
<polygon fill="#8dd3c7" stroke="black" points="122.42,-84.8 119.42,-88.8 98.42,-88.8 95.42,-84.8 23.58,-84.8 23.58,-48.8 122.42,-48.8 122.42,-84.8"/>
<text text-anchor="middle" x="73" y="-62.6" font-family="Times,serif" font-size="14.00">SharedModule</text>
</g>
<!-- SharedModule&#45;&gt;HomeModule -->
<g id="edge6" class="edge">
<title>SharedModule&#45;&gt;HomeModule</title>
<path fill="none" stroke="black" d="M73,-85.08C73,-106.12 73,-137.8 73,-137.8 73,-137.8 384.02,-137.8 384.02,-137.8"/>
<polygon fill="black" stroke="black" points="384.02,-141.3 394.02,-137.8 384.02,-134.3 384.02,-141.3"/>
</g>
</g>
</svg>
