<?xml version="1.0" encoding="UTF-8" standalone="no"?>
<!DOCTYPE svg PUBLIC "-//W3C//DTD SVG 1.1//EN"
 "http://www.w3.org/Graphics/SVG/1.1/DTD/svg11.dtd">
<!-- Generated by graphviz version 2.47.3 (20210619.1520)
 -->
<!-- Title: dependencies Pages: 1 -->
<svg width="722pt" height="174pt"
 viewBox="0.00 0.00 722.00 173.80" xmlns="http://www.w3.org/2000/svg" xmlns:xlink="http://www.w3.org/1999/xlink">
<g id="graph0" class="graph" transform="scale(1 1) rotate(0) translate(4 169.8)">
<title>dependencies</title>
<polygon fill="white" stroke="transparent" points="-4,4 -4,-169.8 718,-169.8 718,4 -4,4"/>
<text text-anchor="middle" x="357" y="-8.2" font-family="sans-serif" font-size="14.00">dependencies</text>
<g id="clust1" class="cluster">
<title>cluster_HomeModule</title>
<polygon fill="none" stroke="black" stroke-dasharray="1,5" points="8,-32.8 8,-157.8 706,-157.8 706,-32.8 8,-32.8"/>
</g>
<g id="clust6" class="cluster">
<title>cluster_HomeModule_imports</title>
<polygon fill="none" stroke="black" points="427,-40.8 427,-92.8 698,-92.8 698,-40.8 427,-40.8"/>
</g>
<g id="clust2" class="cluster">
<title>cluster_HomeModule_declarations</title>
<polygon fill="none" stroke="black" points="16,-40.8 16,-92.8 419,-92.8 419,-40.8 16,-40.8"/>
</g>
<!-- ContactComponent -->
<g id="node1" class="node">
<title>ContactComponent</title>
<polygon fill="#ffffb3" stroke="black" points="411.38,-84.8 286.62,-84.8 286.62,-48.8 411.38,-48.8 411.38,-84.8"/>
<text text-anchor="middle" x="349" y="-62.6" font-family="Times,serif" font-size="14.00">ContactComponent</text>
</g>
<!-- HomeModule -->
<g id="node4" class="node">
<title>HomeModule</title>
<polygon fill="#8dd3c7" stroke="black" points="395.76,-149.8 392.76,-153.8 371.76,-153.8 368.76,-149.8 302.24,-149.8 302.24,-113.8 395.76,-113.8 395.76,-149.8"/>
<text text-anchor="middle" x="349" y="-127.6" font-family="Times,serif" font-size="14.00">HomeModule</text>
</g>
<!-- ContactComponent&#45;&gt;HomeModule -->
<g id="edge1" class="edge">
<title>ContactComponent&#45;&gt;HomeModule</title>
<path fill="none" stroke="black" d="M349,-84.91C349,-84.91 349,-103.79 349,-103.79"/>
<polygon fill="black" stroke="black" points="345.5,-103.79 349,-113.79 352.5,-103.79 345.5,-103.79"/>
</g>
<!-- IndexComponent -->
<g id="node2" class="node">
<title>IndexComponent</title>
<polygon fill="#ffffb3" stroke="black" points="268.71,-84.8 155.29,-84.8 155.29,-48.8 268.71,-48.8 268.71,-84.8"/>
<text text-anchor="middle" x="212" y="-62.6" font-family="Times,serif" font-size="14.00">IndexComponent</text>
</g>
<!-- IndexComponent&#45;&gt;HomeModule -->
<g id="edge2" class="edge">
<title>IndexComponent&#45;&gt;HomeModule</title>
<path fill="none" stroke="black" d="M212,-84.82C212,-102.17 212,-125.8 212,-125.8 212,-125.8 292.24,-125.8 292.24,-125.8"/>
<polygon fill="black" stroke="black" points="292.24,-129.3 302.24,-125.8 292.24,-122.3 292.24,-129.3"/>
</g>
<!-- NewsComponent -->
<g id="node3" class="node">
<title>NewsComponent</title>
<polygon fill="#ffffb3" stroke="black" points="137.7,-84.8 24.3,-84.8 24.3,-48.8 137.7,-48.8 137.7,-84.8"/>
<text text-anchor="middle" x="81" y="-62.6" font-family="Times,serif" font-size="14.00">NewsComponent</text>
</g>
<!-- NewsComponent&#45;&gt;HomeModule -->
<g id="edge3" class="edge">
<title>NewsComponent&#45;&gt;HomeModule</title>
<path fill="none" stroke="black" d="M81,-85.08C81,-106.12 81,-137.8 81,-137.8 81,-137.8 292.01,-137.8 292.01,-137.8"/>
<polygon fill="black" stroke="black" points="292.01,-141.3 302.01,-137.8 292.01,-134.3 292.01,-141.3"/>
</g>
<!-- HomeRoutingModule -->
<g id="node5" class="node">
<title>HomeRoutingModule</title>
<polygon fill="#8dd3c7" stroke="black" points="690.38,-84.8 687.38,-88.8 666.38,-88.8 663.38,-84.8 551.62,-84.8 551.62,-48.8 690.38,-48.8 690.38,-84.8"/>
<text text-anchor="middle" x="621" y="-62.6" font-family="Times,serif" font-size="14.00">HomeRoutingModule</text>
</g>
<!-- HomeRoutingModule&#45;&gt;HomeModule -->
<g id="edge4" class="edge">
<title>HomeRoutingModule&#45;&gt;HomeModule</title>
<path fill="none" stroke="black" d="M621,-85.08C621,-106.12 621,-137.8 621,-137.8 621,-137.8 406.07,-137.8 406.07,-137.8"/>
<polygon fill="black" stroke="black" points="406.07,-134.3 396.07,-137.8 406.07,-141.3 406.07,-134.3"/>
</g>
<!-- SharedModule -->
<g id="node6" class="node">
<title>SharedModule</title>
<polygon fill="#8dd3c7" stroke="black" points="533.42,-84.8 530.42,-88.8 509.42,-88.8 506.42,-84.8 434.58,-84.8 434.58,-48.8 533.42,-48.8 533.42,-84.8"/>
<text text-anchor="middle" x="484" y="-62.6" font-family="Times,serif" font-size="14.00">SharedModule</text>
</g>
<!-- SharedModule&#45;&gt;HomeModule -->
<g id="edge5" class="edge">
<title>SharedModule&#45;&gt;HomeModule</title>
<path fill="none" stroke="black" d="M484,-84.82C484,-102.17 484,-125.8 484,-125.8 484,-125.8 405.84,-125.8 405.84,-125.8"/>
<polygon fill="black" stroke="black" points="405.84,-122.3 395.84,-125.8 405.84,-129.3 405.84,-122.3"/>
</g>
</g>
</svg>
