<?xml version="1.0" encoding="UTF-8" standalone="no"?>
<!DOCTYPE svg PUBLIC "-//W3C//DTD SVG 1.1//EN"
 "http://www.w3.org/Graphics/SVG/1.1/DTD/svg11.dtd">
<!-- Generated by graphviz version 3.0.0 (20220226.1711)
 -->
<!-- Title: dependencies Pages: 1 -->
<svg width="875pt" height="174pt"
 viewBox="0.00 0.00 875.00 173.80" xmlns="http://www.w3.org/2000/svg" xmlns:xlink="http://www.w3.org/1999/xlink">
<g id="graph0" class="graph" transform="scale(1 1) rotate(0) translate(4 169.8)">
<title>dependencies</title>
<polygon fill="white" stroke="transparent" points="-4,4 -4,-169.8 871,-169.8 871,4 -4,4"/>
<text text-anchor="middle" x="433.5" y="-8.2" font-family="sans-serif" font-size="14.00">dependencies</text>
<g id="clust1" class="cluster">
<title>cluster_HomeModule</title>
<polygon fill="none" stroke="black" stroke-dasharray="1,5" points="8,-32.8 8,-157.8 859,-157.8 859,-32.8 8,-32.8"/>
</g>
<g id="clust2" class="cluster">
<title>cluster_HomeModule_declarations</title>
<polygon fill="none" stroke="black" points="295,-40.8 295,-92.8 851,-92.8 851,-40.8 295,-40.8"/>
</g>
<g id="clust7" class="cluster">
<title>cluster_HomeModule_imports</title>
<polygon fill="none" stroke="black" points="16,-40.8 16,-92.8 287,-92.8 287,-40.8 16,-40.8"/>
</g>
<!-- ContactComponent -->
<g id="node1" class="node">
<title>ContactComponent</title>
<polygon fill="#ffffb3" stroke="black" points="843.38,-84.8 718.62,-84.8 718.62,-48.8 843.38,-48.8 843.38,-84.8"/>
<text text-anchor="middle" x="781" y="-62.6" font-family="Times,serif" font-size="14.00">ContactComponent</text>
</g>
<!-- HomeModule -->
<g id="node5" class="node">
<title>HomeModule</title>
<polygon fill="#8dd3c7" stroke="black" points="488.77,-149.8 485.77,-153.8 464.77,-153.8 461.77,-149.8 395.23,-149.8 395.23,-113.8 488.77,-113.8 488.77,-149.8"/>
<text text-anchor="middle" x="442" y="-127.6" font-family="Times,serif" font-size="14.00">HomeModule</text>
</g>
<!-- ContactComponent&#45;&gt;HomeModule -->
<g id="edge1" class="edge">
<title>ContactComponent&#45;&gt;HomeModule</title>
<path fill="none" stroke="black" d="M781,-85.08C781,-106.12 781,-137.8 781,-137.8 781,-137.8 498.78,-137.8 498.78,-137.8"/>
<polygon fill="black" stroke="black" points="498.78,-134.3 488.78,-137.8 498.78,-141.3 498.78,-134.3"/>
</g>
<!-- IndexComponent -->
<g id="node2" class="node">
<title>IndexComponent</title>
<polygon fill="#ffffb3" stroke="black" points="700.71,-84.8 587.29,-84.8 587.29,-48.8 700.71,-48.8 700.71,-84.8"/>
<text text-anchor="middle" x="644" y="-62.6" font-family="Times,serif" font-size="14.00">IndexComponent</text>
</g>
<!-- IndexComponent&#45;&gt;HomeModule -->
<g id="edge2" class="edge">
<title>IndexComponent&#45;&gt;HomeModule</title>
<path fill="none" stroke="black" d="M644,-84.82C644,-102.17 644,-125.8 644,-125.8 644,-125.8 498.85,-125.8 498.85,-125.8"/>
<polygon fill="black" stroke="black" points="498.85,-122.3 488.85,-125.8 498.85,-129.3 498.85,-122.3"/>
</g>
<!-- NewsComponent -->
<g id="node3" class="node">
<title>NewsComponent</title>
<polygon fill="#ffffb3" stroke="black" points="569.71,-84.8 456.29,-84.8 456.29,-48.8 569.71,-48.8 569.71,-84.8"/>
<text text-anchor="middle" x="513" y="-62.6" font-family="Times,serif" font-size="14.00">NewsComponent</text>
</g>
<!-- NewsComponent&#45;&gt;HomeModule -->
<g id="edge3" class="edge">
<title>NewsComponent&#45;&gt;HomeModule</title>
<path fill="none" stroke="black" d="M472.64,-84.91C472.64,-84.91 472.64,-103.79 472.64,-103.79"/>
<polygon fill="black" stroke="black" points="469.14,-103.79 472.64,-113.79 476.14,-103.79 469.14,-103.79"/>
</g>
<!-- ToolsListComponent -->
<g id="node4" class="node">
<title>ToolsListComponent</title>
<polygon fill="#ffffb3" stroke="black" points="438.5,-84.8 303.5,-84.8 303.5,-48.8 438.5,-48.8 438.5,-84.8"/>
<text text-anchor="middle" x="371" y="-62.6" font-family="Times,serif" font-size="14.00">ToolsListComponent</text>
</g>
<!-- ToolsListComponent&#45;&gt;HomeModule -->
<g id="edge4" class="edge">
<title>ToolsListComponent&#45;&gt;HomeModule</title>
<path fill="none" stroke="black" d="M416.81,-84.91C416.81,-84.91 416.81,-103.79 416.81,-103.79"/>
<polygon fill="black" stroke="black" points="413.31,-103.79 416.81,-113.79 420.31,-103.79 413.31,-103.79"/>
</g>
<!-- HomeRoutingModule -->
<g id="node6" class="node">
<title>HomeRoutingModule</title>
<polygon fill="#8dd3c7" stroke="black" points="279.38,-84.8 276.38,-88.8 255.38,-88.8 252.38,-84.8 140.62,-84.8 140.62,-48.8 279.38,-48.8 279.38,-84.8"/>
<text text-anchor="middle" x="210" y="-62.6" font-family="Times,serif" font-size="14.00">HomeRoutingModule</text>
</g>
<!-- HomeRoutingModule&#45;&gt;HomeModule -->
<g id="edge5" class="edge">
<title>HomeRoutingModule&#45;&gt;HomeModule</title>
<path fill="none" stroke="black" d="M210,-84.82C210,-102.17 210,-125.8 210,-125.8 210,-125.8 385.05,-125.8 385.05,-125.8"/>
<polygon fill="black" stroke="black" points="385.05,-129.3 395.05,-125.8 385.05,-122.3 385.05,-129.3"/>
</g>
<!-- SharedModule -->
<g id="node7" class="node">
<title>SharedModule</title>
<polygon fill="#8dd3c7" stroke="black" points="122.43,-84.8 119.43,-88.8 98.43,-88.8 95.43,-84.8 23.57,-84.8 23.57,-48.8 122.43,-48.8 122.43,-84.8"/>
<text text-anchor="middle" x="73" y="-62.6" font-family="Times,serif" font-size="14.00">SharedModule</text>
</g>
<!-- SharedModule&#45;&gt;HomeModule -->
<g id="edge6" class="edge">
<title>SharedModule&#45;&gt;HomeModule</title>
<path fill="none" stroke="black" d="M73,-85.08C73,-106.12 73,-137.8 73,-137.8 73,-137.8 384.89,-137.8 384.89,-137.8"/>
<polygon fill="black" stroke="black" points="384.89,-141.3 394.89,-137.8 384.89,-134.3 384.89,-141.3"/>
</g>
</g>
</svg>
