<?xml version="1.0" encoding="UTF-8" standalone="no"?>
<!DOCTYPE svg PUBLIC "-//W3C//DTD SVG 1.1//EN"
 "http://www.w3.org/Graphics/SVG/1.1/DTD/svg11.dtd">
<!-- Generated by graphviz version 2.47.3 (20210619.1520)
 -->
<!-- Title: dependencies Pages: 1 -->
<svg width="611pt" height="174pt"
 viewBox="0.00 0.00 611.00 173.80" xmlns="http://www.w3.org/2000/svg" xmlns:xlink="http://www.w3.org/1999/xlink">
<g id="graph0" class="graph" transform="scale(1 1) rotate(0) translate(4 169.8)">
<title>dependencies</title>
<polygon fill="white" stroke="transparent" points="-4,4 -4,-169.8 607,-169.8 607,4 -4,4"/>
<text text-anchor="middle" x="301.5" y="-8.2" font-family="sans-serif" font-size="14.00">dependencies</text>
<g id="clust1" class="cluster">
<title>cluster_HomeModule</title>
<polygon fill="none" stroke="black" stroke-dasharray="1,5" points="8,-32.8 8,-157.8 595,-157.8 595,-32.8 8,-32.8"/>
</g>
<g id="clust2" class="cluster">
<title>cluster_HomeModule_declarations</title>
<polygon fill="none" stroke="black" points="178,-40.8 178,-92.8 587,-92.8 587,-40.8 178,-40.8"/>
</g>
<g id="clust6" class="cluster">
<title>cluster_HomeModule_imports</title>
<polygon fill="none" stroke="black" points="16,-40.8 16,-92.8 170,-92.8 170,-40.8 16,-40.8"/>
</g>
<!-- ContactComponent -->
<g id="node1" class="node">
<title>ContactComponent</title>
<polygon fill="#ffffb3" stroke="black" points="579.38,-84.8 454.62,-84.8 454.62,-48.8 579.38,-48.8 579.38,-84.8"/>
<text text-anchor="middle" x="517" y="-62.6" font-family="Times,serif" font-size="14.00">ContactComponent</text>
</g>
<!-- HomeModule -->
<g id="node4" class="node">
<title>HomeModule</title>
<polygon fill="#8dd3c7" stroke="black" points="359.76,-149.8 356.76,-153.8 335.76,-153.8 332.76,-149.8 266.24,-149.8 266.24,-113.8 359.76,-113.8 359.76,-149.8"/>
<text text-anchor="middle" x="313" y="-127.6" font-family="Times,serif" font-size="14.00">HomeModule</text>
</g>
<!-- ContactComponent&#45;&gt;HomeModule -->
<g id="edge1" class="edge">
<title>ContactComponent&#45;&gt;HomeModule</title>
<path fill="none" stroke="black" d="M517,-84.91C517,-104.14 517,-131.8 517,-131.8 517,-131.8 369.8,-131.8 369.8,-131.8"/>
<polygon fill="black" stroke="black" points="369.8,-128.3 359.8,-131.8 369.8,-135.3 369.8,-128.3"/>
</g>
<!-- IndexComponent -->
<g id="node2" class="node">
<title>IndexComponent</title>
<polygon fill="#ffffb3" stroke="black" points="436.71,-84.8 323.29,-84.8 323.29,-48.8 436.71,-48.8 436.71,-84.8"/>
<text text-anchor="middle" x="380" y="-62.6" font-family="Times,serif" font-size="14.00">IndexComponent</text>
</g>
<!-- IndexComponent&#45;&gt;HomeModule -->
<g id="edge2" class="edge">
<title>IndexComponent&#45;&gt;HomeModule</title>
<path fill="none" stroke="black" d="M341.64,-84.91C341.64,-84.91 341.64,-103.79 341.64,-103.79"/>
<polygon fill="black" stroke="black" points="338.14,-103.79 341.64,-113.79 345.14,-103.79 338.14,-103.79"/>
</g>
<!-- ProfileComponent -->
<g id="node3" class="node">
<title>ProfileComponent</title>
<polygon fill="#ffffb3" stroke="black" points="305.93,-84.8 186.07,-84.8 186.07,-48.8 305.93,-48.8 305.93,-84.8"/>
<text text-anchor="middle" x="246" y="-62.6" font-family="Times,serif" font-size="14.00">ProfileComponent</text>
</g>
<!-- ProfileComponent&#45;&gt;HomeModule -->
<g id="edge3" class="edge">
<title>ProfileComponent&#45;&gt;HomeModule</title>
<path fill="none" stroke="black" d="M285.92,-84.91C285.92,-84.91 285.92,-103.79 285.92,-103.79"/>
<polygon fill="black" stroke="black" points="282.42,-103.79 285.92,-113.79 289.42,-103.79 282.42,-103.79"/>
</g>
<!-- HomeRoutingModule -->
<g id="node5" class="node">
<title>HomeRoutingModule</title>
<polygon fill="#8dd3c7" stroke="black" points="162.38,-84.8 159.38,-88.8 138.38,-88.8 135.38,-84.8 23.62,-84.8 23.62,-48.8 162.38,-48.8 162.38,-84.8"/>
<text text-anchor="middle" x="93" y="-62.6" font-family="Times,serif" font-size="14.00">HomeRoutingModule</text>
</g>
<!-- HomeRoutingModule&#45;&gt;HomeModule -->
<g id="edge4" class="edge">
<title>HomeRoutingModule&#45;&gt;HomeModule</title>
<path fill="none" stroke="black" d="M93,-84.91C93,-104.14 93,-131.8 93,-131.8 93,-131.8 256.07,-131.8 256.07,-131.8"/>
<polygon fill="black" stroke="black" points="256.07,-135.3 266.07,-131.8 256.07,-128.3 256.07,-135.3"/>
</g>
</g>
</svg>
