<?xml version="1.0" encoding="UTF-8" standalone="no"?>
<!DOCTYPE svg PUBLIC "-//W3C//DTD SVG 1.1//EN"
 "http://www.w3.org/Graphics/SVG/1.1/DTD/svg11.dtd">
<!-- Generated by graphviz version 2.47.3 (20210619.1520)
 -->
<!-- Title: dependencies Pages: 1 -->
<svg width="469pt" height="174pt"
 viewBox="0.00 0.00 469.00 173.80" xmlns="http://www.w3.org/2000/svg" xmlns:xlink="http://www.w3.org/1999/xlink">
<g id="graph0" class="graph" transform="scale(1 1) rotate(0) translate(4 169.8)">
<title>dependencies</title>
<polygon fill="white" stroke="transparent" points="-4,4 -4,-169.8 465,-169.8 465,4 -4,4"/>
<text text-anchor="middle" x="230.5" y="-8.2" font-family="sans-serif" font-size="14.00">dependencies</text>
<g id="clust1" class="cluster">
<title>cluster_HomeModule</title>
<polygon fill="none" stroke="black" stroke-dasharray="1,5" points="8,-32.8 8,-157.8 453,-157.8 453,-32.8 8,-32.8"/>
</g>
<g id="clust5" class="cluster">
<title>cluster_HomeModule_imports</title>
<polygon fill="none" stroke="black" points="291,-40.8 291,-92.8 445,-92.8 445,-40.8 291,-40.8"/>
</g>
<g id="clust2" class="cluster">
<title>cluster_HomeModule_declarations</title>
<polygon fill="none" stroke="black" points="16,-40.8 16,-92.8 283,-92.8 283,-40.8 16,-40.8"/>
</g>
<!-- IndexComponent -->
<g id="node1" class="node">
<title>IndexComponent</title>
<polygon fill="#ffffb3" stroke="black" points="274.71,-84.8 161.29,-84.8 161.29,-48.8 274.71,-48.8 274.71,-84.8"/>
<text text-anchor="middle" x="218" y="-62.6" font-family="Times,serif" font-size="14.00">IndexComponent</text>
</g>
<!-- HomeModule -->
<g id="node3" class="node">
<title>HomeModule</title>
<polygon fill="#8dd3c7" stroke="black" points="264.76,-149.8 261.76,-153.8 240.76,-153.8 237.76,-149.8 171.24,-149.8 171.24,-113.8 264.76,-113.8 264.76,-149.8"/>
<text text-anchor="middle" x="218" y="-127.6" font-family="Times,serif" font-size="14.00">HomeModule</text>
</g>
<!-- IndexComponent&#45;&gt;HomeModule -->
<g id="edge1" class="edge">
<title>IndexComponent&#45;&gt;HomeModule</title>
<path fill="none" stroke="black" d="M218,-84.91C218,-84.91 218,-103.79 218,-103.79"/>
<polygon fill="black" stroke="black" points="214.5,-103.79 218,-113.79 221.5,-103.79 214.5,-103.79"/>
</g>
<!-- ProfileComponent -->
<g id="node2" class="node">
<title>ProfileComponent</title>
<polygon fill="#ffffb3" stroke="black" points="143.93,-84.8 24.07,-84.8 24.07,-48.8 143.93,-48.8 143.93,-84.8"/>
<text text-anchor="middle" x="84" y="-62.6" font-family="Times,serif" font-size="14.00">ProfileComponent</text>
</g>
<!-- ProfileComponent&#45;&gt;HomeModule -->
<g id="edge2" class="edge">
<title>ProfileComponent&#45;&gt;HomeModule</title>
<path fill="none" stroke="black" d="M84,-84.91C84,-104.14 84,-131.8 84,-131.8 84,-131.8 161.13,-131.8 161.13,-131.8"/>
<polygon fill="black" stroke="black" points="161.13,-135.3 171.13,-131.8 161.13,-128.3 161.13,-135.3"/>
</g>
<!-- HomeRoutingModule -->
<g id="node4" class="node">
<title>HomeRoutingModule</title>
<polygon fill="#8dd3c7" stroke="black" points="437.38,-84.8 434.38,-88.8 413.38,-88.8 410.38,-84.8 298.62,-84.8 298.62,-48.8 437.38,-48.8 437.38,-84.8"/>
<text text-anchor="middle" x="368" y="-62.6" font-family="Times,serif" font-size="14.00">HomeRoutingModule</text>
</g>
<!-- HomeRoutingModule&#45;&gt;HomeModule -->
<g id="edge3" class="edge">
<title>HomeRoutingModule&#45;&gt;HomeModule</title>
<path fill="none" stroke="black" d="M368,-84.91C368,-104.14 368,-131.8 368,-131.8 368,-131.8 275.05,-131.8 275.05,-131.8"/>
<polygon fill="black" stroke="black" points="275.05,-128.3 265.05,-131.8 275.05,-135.3 275.05,-128.3"/>
</g>
</g>
</svg>
