<?xml version="1.0" encoding="UTF-8" standalone="no"?>
<!DOCTYPE svg PUBLIC "-//W3C//DTD SVG 1.1//EN"
 "http://www.w3.org/Graphics/SVG/1.1/DTD/svg11.dtd">
<!-- Generated by graphviz version 2.47.0 (20210316.0004)
 -->
<!-- Title: dependencies Pages: 1 -->
<svg width="732pt" height="211pt"
 viewBox="0.00 0.00 732.00 211.00" xmlns="http://www.w3.org/2000/svg" xmlns:xlink="http://www.w3.org/1999/xlink">
<g id="graph0" class="graph" transform="scale(1 1) rotate(0) translate(4 207)">
<title>dependencies</title>
<polygon fill="white" stroke="transparent" points="-4,4 -4,-207 728,-207 728,4 -4,4"/>
<text text-anchor="start" x="341.01" y="-42.4" font-family="Times-12" font-weight="bold" font-size="14.00">Legend</text>
<polygon fill="#ffffb3" stroke="transparent" points="128,-10 128,-30 148,-30 148,-10 128,-10"/>
<text text-anchor="start" x="151.63" y="-15.4" font-family="Times-12" font-size="14.00"> &#160;Declarations</text>
<polygon fill="#8dd3c7" stroke="transparent" points="241,-10 241,-30 261,-30 261,-10 241,-10"/>
<text text-anchor="start" x="264.73" y="-15.4" font-family="Times-12" font-size="14.00"> &#160;Module</text>
<polygon fill="#80b1d3" stroke="transparent" points="327,-10 327,-30 347,-30 347,-10 327,-10"/>
<text text-anchor="start" x="350.78" y="-15.4" font-family="Times-12" font-size="14.00"> &#160;Bootstrap</text>
<polygon fill="#fdb462" stroke="transparent" points="424,-10 424,-30 444,-30 444,-10 424,-10"/>
<text text-anchor="start" x="447.67" y="-15.4" font-family="Times-12" font-size="14.00"> &#160;Providers</text>
<polygon fill="#fb8072" stroke="transparent" points="520,-10 520,-30 540,-30 540,-10 520,-10"/>
<text text-anchor="start" x="543.73" y="-15.4" font-family="Times-12" font-size="14.00"> &#160;Exports</text>
<g id="clust1" class="cluster">
<title>cluster_HomeModule</title>
<polygon fill="none" stroke="black" stroke-dasharray="1,5" points="8,-70 8,-195 716,-195 716,-70 8,-70"/>
</g>
<g id="clust2" class="cluster">
<title>cluster_HomeModule_declarations</title>
<polygon fill="none" stroke="black" points="295,-78 295,-130 708,-130 708,-78 295,-78"/>
</g>
<g id="clust6" class="cluster">
<title>cluster_HomeModule_imports</title>
<polygon fill="none" stroke="black" points="16,-78 16,-130 287,-130 287,-78 16,-78"/>
</g>
<!-- IndexComponent -->
<g id="node1" class="node">
<title>IndexComponent</title>
<polygon fill="#ffffb3" stroke="black" points="699.71,-122 586.29,-122 586.29,-86 699.71,-86 699.71,-122"/>
<text text-anchor="middle" x="643" y="-99.8" font-family="Times,serif" font-size="14.00">IndexComponent</text>
</g>
<!-- HomeModule -->
<g id="node4" class="node">
<title>HomeModule</title>
<polygon fill="#8dd3c7" stroke="black" points="416.76,-187 413.76,-191 392.76,-191 389.76,-187 323.24,-187 323.24,-151 416.76,-151 416.76,-187"/>
<text text-anchor="middle" x="370" y="-164.8" font-family="Times,serif" font-size="14.00">HomeModule</text>
</g>
<!-- IndexComponent&#45;&gt;HomeModule -->
<g id="edge1" class="edge">
<title>IndexComponent&#45;&gt;HomeModule</title>
<path fill="none" stroke="black" d="M643,-122.28C643,-143.32 643,-175 643,-175 643,-175 426.93,-175 426.93,-175"/>
<polygon fill="black" stroke="black" points="426.93,-171.5 416.93,-175 426.93,-178.5 426.93,-171.5"/>
</g>
<!-- NewsComponent -->
<g id="node2" class="node">
<title>NewsComponent</title>
<polygon fill="#ffffb3" stroke="black" points="568.7,-122 455.3,-122 455.3,-86 568.7,-86 568.7,-122"/>
<text text-anchor="middle" x="512" y="-99.8" font-family="Times,serif" font-size="14.00">NewsComponent</text>
</g>
<!-- NewsComponent&#45;&gt;HomeModule -->
<g id="edge2" class="edge">
<title>NewsComponent&#45;&gt;HomeModule</title>
<path fill="none" stroke="black" d="M512,-122.02C512,-139.37 512,-163 512,-163 512,-163 426.89,-163 426.89,-163"/>
<polygon fill="black" stroke="black" points="426.89,-159.5 416.89,-163 426.89,-166.5 426.89,-159.5"/>
</g>
<!-- ToolsListComponent -->
<g id="node3" class="node">
<title>ToolsListComponent</title>
<polygon fill="#ffffb3" stroke="black" points="437.5,-122 302.5,-122 302.5,-86 437.5,-86 437.5,-122"/>
<text text-anchor="middle" x="370" y="-99.8" font-family="Times,serif" font-size="14.00">ToolsListComponent</text>
</g>
<!-- ToolsListComponent&#45;&gt;HomeModule -->
<g id="edge3" class="edge">
<title>ToolsListComponent&#45;&gt;HomeModule</title>
<path fill="none" stroke="black" d="M370,-122.11C370,-122.11 370,-140.99 370,-140.99"/>
<polygon fill="black" stroke="black" points="366.5,-140.99 370,-150.99 373.5,-140.99 366.5,-140.99"/>
</g>
<!-- HomeRoutingModule -->
<g id="node5" class="node">
<title>HomeRoutingModule</title>
<polygon fill="#8dd3c7" stroke="black" points="279.38,-122 276.38,-126 255.38,-126 252.38,-122 140.62,-122 140.62,-86 279.38,-86 279.38,-122"/>
<text text-anchor="middle" x="210" y="-99.8" font-family="Times,serif" font-size="14.00">HomeRoutingModule</text>
</g>
<!-- HomeRoutingModule&#45;&gt;HomeModule -->
<g id="edge4" class="edge">
<title>HomeRoutingModule&#45;&gt;HomeModule</title>
<path fill="none" stroke="black" d="M210,-122.02C210,-139.37 210,-163 210,-163 210,-163 312.86,-163 312.86,-163"/>
<polygon fill="black" stroke="black" points="312.86,-166.5 322.86,-163 312.86,-159.5 312.86,-166.5"/>
</g>
<!-- SharedModule -->
<g id="node6" class="node">
<title>SharedModule</title>
<polygon fill="#8dd3c7" stroke="black" points="122.42,-122 119.42,-126 98.42,-126 95.42,-122 23.58,-122 23.58,-86 122.42,-86 122.42,-122"/>
<text text-anchor="middle" x="73" y="-99.8" font-family="Times,serif" font-size="14.00">SharedModule</text>
</g>
<!-- SharedModule&#45;&gt;HomeModule -->
<g id="edge5" class="edge">
<title>SharedModule&#45;&gt;HomeModule</title>
<path fill="none" stroke="black" d="M73,-122.28C73,-143.32 73,-175 73,-175 73,-175 312.94,-175 312.94,-175"/>
<polygon fill="black" stroke="black" points="312.94,-178.5 322.94,-175 312.94,-171.5 312.94,-178.5"/>
</g>
</g>
</svg>
