<?xml version="1.0" encoding="UTF-8" standalone="no"?>
<!DOCTYPE svg PUBLIC "-//W3C//DTD SVG 1.1//EN"
 "http://www.w3.org/Graphics/SVG/1.1/DTD/svg11.dtd">
<!-- Generated by graphviz version 5.0.0 (20220707.1540)
 -->
<!-- Title: dependencies Pages: 1 -->
<svg width="875pt" height="174pt"
 viewBox="0.00 0.00 875.00 173.80" xmlns="http://www.w3.org/2000/svg" xmlns:xlink="http://www.w3.org/1999/xlink">
<g id="graph0" class="graph" transform="scale(1 1) rotate(0) translate(4 169.8)">
<title>dependencies</title>
<polygon fill="white" stroke="transparent" points="-4,4 -4,-169.8 871,-169.8 871,4 -4,4"/>
<text text-anchor="middle" x="433.5" y="-8.2" font-family="sans-serif" font-size="14.00">dependencies</text>
<g id="clust1" class="cluster">
<title>cluster_HomeModule</title>
<polygon fill="none" stroke="black" stroke-dasharray="1,5" points="8,-32.8 8,-157.8 859,-157.8 859,-32.8 8,-32.8"/>
</g>
<g id="clust7" class="cluster">
<title>cluster_HomeModule_imports</title>
<polygon fill="none" stroke="black" points="580,-40.8 580,-92.8 851,-92.8 851,-40.8 580,-40.8"/>
</g>
<g id="clust2" class="cluster">
<title>cluster_HomeModule_declarations</title>
<polygon fill="none" stroke="black" points="16,-40.8 16,-92.8 572,-92.8 572,-40.8 16,-40.8"/>
</g>
<!-- ContactComponent -->
<g id="node1" class="node">
<title>ContactComponent</title>
<polygon fill="#ffffb3" stroke="black" points="564.38,-84.8 439.62,-84.8 439.62,-48.8 564.38,-48.8 564.38,-84.8"/>
<text text-anchor="middle" x="502" y="-62.6" font-family="Times,serif" font-size="14.00">ContactComponent</text>
</g>
<!-- HomeModule -->
<g id="node5" class="node">
<title>HomeModule</title>
<polygon fill="#8dd3c7" stroke="black" points="479.77,-149.8 476.77,-153.8 455.77,-153.8 452.77,-149.8 386.23,-149.8 386.23,-113.8 479.77,-113.8 479.77,-149.8"/>
<text text-anchor="middle" x="433" y="-127.6" font-family="Times,serif" font-size="14.00">HomeModule</text>
</g>
<!-- ContactComponent&#45;&gt;HomeModule -->
<g id="edge1" class="edge">
<title>ContactComponent&#45;&gt;HomeModule</title>
<path fill="none" stroke="black" d="M459.72,-84.91C459.72,-84.91 459.72,-103.79 459.72,-103.79"/>
<polygon fill="black" stroke="black" points="456.22,-103.79 459.72,-113.79 463.22,-103.79 456.22,-103.79"/>
</g>
<!-- IndexComponent -->
<g id="node2" class="node">
<title>IndexComponent</title>
<polygon fill="#ffffb3" stroke="black" points="421.71,-84.8 308.29,-84.8 308.29,-48.8 421.71,-48.8 421.71,-84.8"/>
<text text-anchor="middle" x="365" y="-62.6" font-family="Times,serif" font-size="14.00">IndexComponent</text>
</g>
<!-- IndexComponent&#45;&gt;HomeModule -->
<g id="edge2" class="edge">
<title>IndexComponent&#45;&gt;HomeModule</title>
<path fill="none" stroke="black" d="M403.86,-84.91C403.86,-84.91 403.86,-103.79 403.86,-103.79"/>
<polygon fill="black" stroke="black" points="400.36,-103.79 403.86,-113.79 407.36,-103.79 400.36,-103.79"/>
</g>
<!-- NewsComponent -->
<g id="node3" class="node">
<title>NewsComponent</title>
<polygon fill="#ffffb3" stroke="black" points="290.71,-84.8 177.29,-84.8 177.29,-48.8 290.71,-48.8 290.71,-84.8"/>
<text text-anchor="middle" x="234" y="-62.6" font-family="Times,serif" font-size="14.00">NewsComponent</text>
</g>
<!-- NewsComponent&#45;&gt;HomeModule -->
<g id="edge3" class="edge">
<title>NewsComponent&#45;&gt;HomeModule</title>
<path fill="none" stroke="black" d="M234,-84.82C234,-102.17 234,-125.8 234,-125.8 234,-125.8 376.09,-125.8 376.09,-125.8"/>
<polygon fill="black" stroke="black" points="376.09,-129.3 386.09,-125.8 376.09,-122.3 376.09,-129.3"/>
</g>
<!-- ToolsListComponent -->
<g id="node4" class="node">
<title>ToolsListComponent</title>
<polygon fill="#ffffb3" stroke="black" points="159.5,-84.8 24.5,-84.8 24.5,-48.8 159.5,-48.8 159.5,-84.8"/>
<text text-anchor="middle" x="92" y="-62.6" font-family="Times,serif" font-size="14.00">ToolsListComponent</text>
</g>
<!-- ToolsListComponent&#45;&gt;HomeModule -->
<g id="edge4" class="edge">
<title>ToolsListComponent&#45;&gt;HomeModule</title>
<path fill="none" stroke="black" d="M92,-85.08C92,-106.12 92,-137.8 92,-137.8 92,-137.8 375.94,-137.8 375.94,-137.8"/>
<polygon fill="black" stroke="black" points="375.94,-141.3 385.94,-137.8 375.94,-134.3 375.94,-141.3"/>
</g>
<!-- HomeRoutingModule -->
<g id="node6" class="node">
<title>HomeRoutingModule</title>
<polygon fill="#8dd3c7" stroke="black" points="843.38,-84.8 840.38,-88.8 819.38,-88.8 816.38,-84.8 704.62,-84.8 704.62,-48.8 843.38,-48.8 843.38,-84.8"/>
<text text-anchor="middle" x="774" y="-62.6" font-family="Times,serif" font-size="14.00">HomeRoutingModule</text>
</g>
<!-- HomeRoutingModule&#45;&gt;HomeModule -->
<g id="edge5" class="edge">
<title>HomeRoutingModule&#45;&gt;HomeModule</title>
<path fill="none" stroke="black" d="M774,-85.08C774,-106.12 774,-137.8 774,-137.8 774,-137.8 490.06,-137.8 490.06,-137.8"/>
<polygon fill="black" stroke="black" points="490.06,-134.3 480.06,-137.8 490.06,-141.3 490.06,-134.3"/>
</g>
<!-- SharedModule -->
<g id="node7" class="node">
<title>SharedModule</title>
<polygon fill="#8dd3c7" stroke="black" points="686.43,-84.8 683.43,-88.8 662.43,-88.8 659.43,-84.8 587.57,-84.8 587.57,-48.8 686.43,-48.8 686.43,-84.8"/>
<text text-anchor="middle" x="637" y="-62.6" font-family="Times,serif" font-size="14.00">SharedModule</text>
</g>
<!-- SharedModule&#45;&gt;HomeModule -->
<g id="edge6" class="edge">
<title>SharedModule&#45;&gt;HomeModule</title>
<path fill="none" stroke="black" d="M637,-84.82C637,-102.17 637,-125.8 637,-125.8 637,-125.8 489.8,-125.8 489.8,-125.8"/>
<polygon fill="black" stroke="black" points="489.8,-122.3 479.8,-125.8 489.8,-129.3 489.8,-122.3"/>
</g>
</g>
</svg>
