<?xml version="1.0" encoding="UTF-8" standalone="no"?>
<!DOCTYPE svg PUBLIC "-//W3C//DTD SVG 1.1//EN"
 "http://www.w3.org/Graphics/SVG/1.1/DTD/svg11.dtd">
<!-- Generated by graphviz version 5.0.0 (20220707.1540)
 -->
<!-- Title: dependencies Pages: 1 -->
<svg width="488pt" height="174pt"
 viewBox="0.00 0.00 488.00 173.80" xmlns="http://www.w3.org/2000/svg" xmlns:xlink="http://www.w3.org/1999/xlink">
<g id="graph0" class="graph" transform="scale(1 1) rotate(0) translate(4 169.8)">
<title>dependencies</title>
<polygon fill="white" stroke="transparent" points="-4,4 -4,-169.8 484,-169.8 484,4 -4,4"/>
<text text-anchor="middle" x="240" y="-8.2" font-family="sans-serif" font-size="14.00">dependencies</text>
<g id="clust1" class="cluster">
<title>cluster_ProjectsModule</title>
<polygon fill="none" stroke="black" stroke-dasharray="1,5" points="8,-32.8 8,-157.8 472,-157.8 472,-32.8 8,-32.8"/>
</g>
<g id="clust2" class="cluster">
<title>cluster_ProjectsModule_declarations</title>
<polygon fill="none" stroke="black" points="306,-40.8 306,-92.8 464,-92.8 464,-40.8 306,-40.8"/>
</g>
<g id="clust4" class="cluster">
<title>cluster_ProjectsModule_imports</title>
<polygon fill="none" stroke="black" points="16,-40.8 16,-92.8 298,-92.8 298,-40.8 16,-40.8"/>
</g>
<!-- ProjectListComponent -->
<g id="node1" class="node">
<title>ProjectListComponent</title>
<polygon fill="#ffffb3" stroke="black" points="456.27,-84.8 313.73,-84.8 313.73,-48.8 456.27,-48.8 456.27,-84.8"/>
<text text-anchor="middle" x="385" y="-62.6" font-family="Times,serif" font-size="14.00">ProjectListComponent</text>
</g>
<!-- ProjectsModule -->
<g id="node2" class="node">
<title>ProjectsModule</title>
<polygon fill="#8dd3c7" stroke="black" points="267.16,-149.8 264.16,-153.8 243.16,-153.8 240.16,-149.8 162.84,-149.8 162.84,-113.8 267.16,-113.8 267.16,-149.8"/>
<text text-anchor="middle" x="215" y="-127.6" font-family="Times,serif" font-size="14.00">ProjectsModule</text>
</g>
<!-- ProjectListComponent&#45;&gt;ProjectsModule -->
<g id="edge1" class="edge">
<title>ProjectListComponent&#45;&gt;ProjectsModule</title>
<path fill="none" stroke="black" d="M385,-84.91C385,-104.14 385,-131.8 385,-131.8 385,-131.8 277.39,-131.8 277.39,-131.8"/>
<polygon fill="black" stroke="black" points="277.39,-128.3 267.39,-131.8 277.39,-135.3 277.39,-128.3"/>
</g>
<!-- ProjectsRoutingModule -->
<g id="node3" class="node">
<title>ProjectsRoutingModule</title>
<polygon fill="#8dd3c7" stroke="black" points="289.77,-84.8 286.77,-88.8 265.77,-88.8 262.77,-84.8 140.23,-84.8 140.23,-48.8 289.77,-48.8 289.77,-84.8"/>
<text text-anchor="middle" x="215" y="-62.6" font-family="Times,serif" font-size="14.00">ProjectsRoutingModule</text>
</g>
<!-- ProjectsRoutingModule&#45;&gt;ProjectsModule -->
<g id="edge2" class="edge">
<title>ProjectsRoutingModule&#45;&gt;ProjectsModule</title>
<path fill="none" stroke="black" d="M215,-84.91C215,-84.91 215,-103.79 215,-103.79"/>
<polygon fill="black" stroke="black" points="211.5,-103.79 215,-113.79 218.5,-103.79 211.5,-103.79"/>
</g>
<!-- SharedModule -->
<g id="node4" class="node">
<title>SharedModule</title>
<polygon fill="#8dd3c7" stroke="black" points="122.43,-84.8 119.43,-88.8 98.43,-88.8 95.43,-84.8 23.57,-84.8 23.57,-48.8 122.43,-48.8 122.43,-84.8"/>
<text text-anchor="middle" x="73" y="-62.6" font-family="Times,serif" font-size="14.00">SharedModule</text>
</g>
<!-- SharedModule&#45;&gt;ProjectsModule -->
<g id="edge3" class="edge">
<title>SharedModule&#45;&gt;ProjectsModule</title>
<path fill="none" stroke="black" d="M73,-84.91C73,-104.14 73,-131.8 73,-131.8 73,-131.8 152.53,-131.8 152.53,-131.8"/>
<polygon fill="black" stroke="black" points="152.53,-135.3 162.53,-131.8 152.53,-128.3 152.53,-135.3"/>
</g>
</g>
</svg>
