<?xml version="1.0" encoding="UTF-8" standalone="no"?>
<!DOCTYPE svg PUBLIC "-//W3C//DTD SVG 1.1//EN"
 "http://www.w3.org/Graphics/SVG/1.1/DTD/svg11.dtd">
<!-- Generated by graphviz version 3.0.0 (20220226.1711)
 -->
<!-- Title: dependencies Pages: 1 -->
<svg width="619pt" height="174pt"
 viewBox="0.00 0.00 619.00 173.80" xmlns="http://www.w3.org/2000/svg" xmlns:xlink="http://www.w3.org/1999/xlink">
<g id="graph0" class="graph" transform="scale(1 1) rotate(0) translate(4 169.8)">
<title>dependencies</title>
<polygon fill="white" stroke="transparent" points="-4,4 -4,-169.8 615,-169.8 615,4 -4,4"/>
<text text-anchor="middle" x="305.5" y="-8.2" font-family="sans-serif" font-size="14.00">dependencies</text>
<g id="clust1" class="cluster">
<title>cluster_BlogModule</title>
<polygon fill="none" stroke="black" stroke-dasharray="1,5" points="8,-32.8 8,-157.8 603,-157.8 603,-32.8 8,-32.8"/>
</g>
<g id="clust5" class="cluster">
<title>cluster_BlogModule_imports</title>
<polygon fill="none" stroke="black" points="331,-40.8 331,-92.8 595,-92.8 595,-40.8 331,-40.8"/>
</g>
<g id="clust2" class="cluster">
<title>cluster_BlogModule_declarations</title>
<polygon fill="none" stroke="black" points="16,-40.8 16,-92.8 323,-92.8 323,-40.8 16,-40.8"/>
</g>
<!-- BlogDetailComponent -->
<g id="node1" class="node">
<title>BlogDetailComponent</title>
<polygon fill="#ffffb3" stroke="black" points="315.27,-84.8 172.73,-84.8 172.73,-48.8 315.27,-48.8 315.27,-84.8"/>
<text text-anchor="middle" x="244" y="-62.6" font-family="Times,serif" font-size="14.00">BlogDetailComponent</text>
</g>
<!-- BlogModule -->
<g id="node3" class="node">
<title>BlogModule</title>
<polygon fill="#8dd3c7" stroke="black" points="359.28,-149.8 356.28,-153.8 335.28,-153.8 332.28,-149.8 272.72,-149.8 272.72,-113.8 359.28,-113.8 359.28,-149.8"/>
<text text-anchor="middle" x="316" y="-127.6" font-family="Times,serif" font-size="14.00">BlogModule</text>
</g>
<!-- BlogDetailComponent&#45;&gt;BlogModule -->
<g id="edge1" class="edge">
<title>BlogDetailComponent&#45;&gt;BlogModule</title>
<path fill="none" stroke="black" d="M294,-84.91C294,-84.91 294,-103.79 294,-103.79"/>
<polygon fill="black" stroke="black" points="290.5,-103.79 294,-113.79 297.5,-103.79 290.5,-103.79"/>
</g>
<!-- BlogListComponent -->
<g id="node2" class="node">
<title>BlogListComponent</title>
<polygon fill="#ffffb3" stroke="black" points="154.34,-84.8 23.66,-84.8 23.66,-48.8 154.34,-48.8 154.34,-84.8"/>
<text text-anchor="middle" x="89" y="-62.6" font-family="Times,serif" font-size="14.00">BlogListComponent</text>
</g>
<!-- BlogListComponent&#45;&gt;BlogModule -->
<g id="edge2" class="edge">
<title>BlogListComponent&#45;&gt;BlogModule</title>
<path fill="none" stroke="black" d="M89,-84.91C89,-104.14 89,-131.8 89,-131.8 89,-131.8 262.5,-131.8 262.5,-131.8"/>
<polygon fill="black" stroke="black" points="262.5,-135.3 272.5,-131.8 262.5,-128.3 262.5,-135.3"/>
</g>
<!-- BlogRoutingModule -->
<g id="node4" class="node">
<title>BlogRoutingModule</title>
<polygon fill="#8dd3c7" stroke="black" points="586.9,-84.8 583.9,-88.8 562.9,-88.8 559.9,-84.8 455.1,-84.8 455.1,-48.8 586.9,-48.8 586.9,-84.8"/>
<text text-anchor="middle" x="521" y="-62.6" font-family="Times,serif" font-size="14.00">BlogRoutingModule</text>
</g>
<!-- BlogRoutingModule&#45;&gt;BlogModule -->
<g id="edge3" class="edge">
<title>BlogRoutingModule&#45;&gt;BlogModule</title>
<path fill="none" stroke="black" d="M521,-84.91C521,-104.14 521,-131.8 521,-131.8 521,-131.8 369.48,-131.8 369.48,-131.8"/>
<polygon fill="black" stroke="black" points="369.48,-128.3 359.48,-131.8 369.48,-135.3 369.48,-128.3"/>
</g>
<!-- SharedModule -->
<g id="node5" class="node">
<title>SharedModule</title>
<polygon fill="#8dd3c7" stroke="black" points="437.43,-84.8 434.43,-88.8 413.43,-88.8 410.43,-84.8 338.57,-84.8 338.57,-48.8 437.43,-48.8 437.43,-84.8"/>
<text text-anchor="middle" x="388" y="-62.6" font-family="Times,serif" font-size="14.00">SharedModule</text>
</g>
<!-- SharedModule&#45;&gt;BlogModule -->
<g id="edge4" class="edge">
<title>SharedModule&#45;&gt;BlogModule</title>
<path fill="none" stroke="black" d="M349.09,-84.91C349.09,-84.91 349.09,-103.79 349.09,-103.79"/>
<polygon fill="black" stroke="black" points="345.59,-103.79 349.09,-113.79 352.59,-103.79 345.59,-103.79"/>
</g>
</g>
</svg>
