<?xml version="1.0" encoding="UTF-8" standalone="no"?>
<!DOCTYPE svg PUBLIC "-//W3C//DTD SVG 1.1//EN"
 "http://www.w3.org/Graphics/SVG/1.1/DTD/svg11.dtd">
<!-- Generated by graphviz version 2.47.3 (20210619.1520)
 -->
<!-- Title: dependencies Pages: 1 -->
<svg width="503pt" height="174pt"
 viewBox="0.00 0.00 503.00 173.80" xmlns="http://www.w3.org/2000/svg" xmlns:xlink="http://www.w3.org/1999/xlink">
<g id="graph0" class="graph" transform="scale(1 1) rotate(0) translate(4 169.8)">
<title>dependencies</title>
<polygon fill="white" stroke="transparent" points="-4,4 -4,-169.8 499,-169.8 499,4 -4,4"/>
<text text-anchor="middle" x="247.5" y="-8.2" font-family="sans-serif" font-size="14.00">dependencies</text>
<g id="clust1" class="cluster">
<title>cluster_BlogModule</title>
<polygon fill="none" stroke="black" stroke-dasharray="1,5" points="8,-32.8 8,-157.8 487,-157.8 487,-32.8 8,-32.8"/>
</g>
<g id="clust5" class="cluster">
<title>cluster_BlogModule_imports</title>
<polygon fill="none" stroke="black" points="331,-40.8 331,-92.8 479,-92.8 479,-40.8 331,-40.8"/>
</g>
<g id="clust2" class="cluster">
<title>cluster_BlogModule_declarations</title>
<polygon fill="none" stroke="black" points="16,-40.8 16,-92.8 323,-92.8 323,-40.8 16,-40.8"/>
</g>
<!-- BlogDetailComponent -->
<g id="node1" class="node">
<title>BlogDetailComponent</title>
<polygon fill="#ffffb3" stroke="black" points="315.27,-84.8 172.73,-84.8 172.73,-48.8 315.27,-48.8 315.27,-84.8"/>
<text text-anchor="middle" x="244" y="-62.6" font-family="Times,serif" font-size="14.00">BlogDetailComponent</text>
</g>
<!-- BlogModule -->
<g id="node3" class="node">
<title>BlogModule</title>
<polygon fill="#8dd3c7" stroke="black" points="287.28,-149.8 284.28,-153.8 263.28,-153.8 260.28,-149.8 200.72,-149.8 200.72,-113.8 287.28,-113.8 287.28,-149.8"/>
<text text-anchor="middle" x="244" y="-127.6" font-family="Times,serif" font-size="14.00">BlogModule</text>
</g>
<!-- BlogDetailComponent&#45;&gt;BlogModule -->
<g id="edge1" class="edge">
<title>BlogDetailComponent&#45;&gt;BlogModule</title>
<path fill="none" stroke="black" d="M244,-84.91C244,-84.91 244,-103.79 244,-103.79"/>
<polygon fill="black" stroke="black" points="240.5,-103.79 244,-113.79 247.5,-103.79 240.5,-103.79"/>
</g>
<!-- BlogListComponent -->
<g id="node2" class="node">
<title>BlogListComponent</title>
<polygon fill="#ffffb3" stroke="black" points="154.34,-84.8 23.66,-84.8 23.66,-48.8 154.34,-48.8 154.34,-84.8"/>
<text text-anchor="middle" x="89" y="-62.6" font-family="Times,serif" font-size="14.00">BlogListComponent</text>
</g>
<!-- BlogListComponent&#45;&gt;BlogModule -->
<g id="edge2" class="edge">
<title>BlogListComponent&#45;&gt;BlogModule</title>
<path fill="none" stroke="black" d="M89,-84.91C89,-104.14 89,-131.8 89,-131.8 89,-131.8 190.41,-131.8 190.41,-131.8"/>
<polygon fill="black" stroke="black" points="190.41,-135.3 200.41,-131.8 190.41,-128.3 190.41,-135.3"/>
</g>
<!-- BlogRoutingModule -->
<g id="node4" class="node">
<title>BlogRoutingModule</title>
<polygon fill="#8dd3c7" stroke="black" points="470.89,-84.8 467.89,-88.8 446.89,-88.8 443.89,-84.8 339.11,-84.8 339.11,-48.8 470.89,-48.8 470.89,-84.8"/>
<text text-anchor="middle" x="405" y="-62.6" font-family="Times,serif" font-size="14.00">BlogRoutingModule</text>
</g>
<!-- BlogRoutingModule&#45;&gt;BlogModule -->
<g id="edge3" class="edge">
<title>BlogRoutingModule&#45;&gt;BlogModule</title>
<path fill="none" stroke="black" d="M405,-84.91C405,-104.14 405,-131.8 405,-131.8 405,-131.8 297.57,-131.8 297.57,-131.8"/>
<polygon fill="black" stroke="black" points="297.57,-128.3 287.57,-131.8 297.57,-135.3 297.57,-128.3"/>
</g>
</g>
</svg>
