<?xml version="1.0" encoding="UTF-8" standalone="no"?>
<!DOCTYPE svg PUBLIC "-//W3C//DTD SVG 1.1//EN"
 "http://www.w3.org/Graphics/SVG/1.1/DTD/svg11.dtd">
<!-- Generated by graphviz version 3.0.0 (20220226.1711)
 -->
<!-- Title: dependencies Pages: 1 -->
<svg width="1888pt" height="174pt"
 viewBox="0.00 0.00 1888.00 173.80" xmlns="http://www.w3.org/2000/svg" xmlns:xlink="http://www.w3.org/1999/xlink">
<g id="graph0" class="graph" transform="scale(1 1) rotate(0) translate(4 169.8)">
<title>dependencies</title>
<polygon fill="white" stroke="transparent" points="-4,4 -4,-169.8 1884,-169.8 1884,4 -4,4"/>
<text text-anchor="middle" x="940" y="-8.2" font-family="sans-serif" font-size="14.00">dependencies</text>
<g id="clust1" class="cluster">
<title>cluster_ToolsModule</title>
<polygon fill="none" stroke="black" stroke-dasharray="1,5" points="8,-32.8 8,-157.8 1872,-157.8 1872,-32.8 8,-32.8"/>
</g>
<g id="clust2" class="cluster">
<title>cluster_ToolsModule_declarations</title>
<polygon fill="none" stroke="black" points="292,-40.8 292,-92.8 1864,-92.8 1864,-40.8 292,-40.8"/>
</g>
<g id="clust13" class="cluster">
<title>cluster_ToolsModule_imports</title>
<polygon fill="none" stroke="black" points="16,-40.8 16,-92.8 284,-92.8 284,-40.8 16,-40.8"/>
</g>
<!-- AmazonAssociateComponent -->
<g id="node1" class="node">
<title>AmazonAssociateComponent</title>
<polygon fill="#ffffb3" stroke="black" points="1855.69,-84.8 1672.31,-84.8 1672.31,-48.8 1855.69,-48.8 1855.69,-84.8"/>
<text text-anchor="middle" x="1764" y="-62.6" font-family="Times,serif" font-size="14.00">AmazonAssociateComponent</text>
</g>
<!-- ToolsModule -->
<g id="node11" class="node">
<title>ToolsModule</title>
<polygon fill="#8dd3c7" stroke="black" points="931.94,-149.8 928.94,-153.8 907.94,-153.8 904.94,-149.8 840.06,-149.8 840.06,-113.8 931.94,-113.8 931.94,-149.8"/>
<text text-anchor="middle" x="886" y="-127.6" font-family="Times,serif" font-size="14.00">ToolsModule</text>
</g>
<!-- AmazonAssociateComponent&#45;&gt;ToolsModule -->
<g id="edge1" class="edge">
<title>AmazonAssociateComponent&#45;&gt;ToolsModule</title>
<path fill="none" stroke="black" d="M1764,-84.89C1764,-107.93 1764,-144.8 1764,-144.8 1764,-144.8 941.97,-144.8 941.97,-144.8"/>
<polygon fill="black" stroke="black" points="941.97,-141.3 931.97,-144.8 941.97,-148.3 941.97,-141.3"/>
</g>
<!-- Base64Component -->
<g id="node2" class="node">
<title>Base64Component</title>
<polygon fill="#ffffb3" stroke="black" points="1654.05,-84.8 1531.95,-84.8 1531.95,-48.8 1654.05,-48.8 1654.05,-84.8"/>
<text text-anchor="middle" x="1593" y="-62.6" font-family="Times,serif" font-size="14.00">Base64Component</text>
</g>
<!-- Base64Component&#45;&gt;ToolsModule -->
<g id="edge2" class="edge">
<title>Base64Component&#45;&gt;ToolsModule</title>
<path fill="none" stroke="black" d="M1593,-85.08C1593,-106.12 1593,-137.8 1593,-137.8 1593,-137.8 941.84,-137.8 941.84,-137.8"/>
<polygon fill="black" stroke="black" points="941.84,-134.3 931.84,-137.8 941.84,-141.3 941.84,-134.3"/>
</g>
<!-- JsonFormatterComponent -->
<g id="node3" class="node">
<title>JsonFormatterComponent</title>
<polygon fill="#ffffb3" stroke="black" points="1513.94,-84.8 1352.06,-84.8 1352.06,-48.8 1513.94,-48.8 1513.94,-84.8"/>
<text text-anchor="middle" x="1433" y="-62.6" font-family="Times,serif" font-size="14.00">JsonFormatterComponent</text>
</g>
<!-- JsonFormatterComponent&#45;&gt;ToolsModule -->
<g id="edge3" class="edge">
<title>JsonFormatterComponent&#45;&gt;ToolsModule</title>
<path fill="none" stroke="black" d="M1433,-84.91C1433,-104.14 1433,-131.8 1433,-131.8 1433,-131.8 942.17,-131.8 942.17,-131.8"/>
<polygon fill="black" stroke="black" points="942.17,-128.3 932.17,-131.8 942.17,-135.3 942.17,-128.3"/>
</g>
<!-- JsonTyperComponent -->
<g id="node4" class="node">
<title>JsonTyperComponent</title>
<polygon fill="#ffffb3" stroke="black" points="1333.66,-84.8 1194.34,-84.8 1194.34,-48.8 1333.66,-48.8 1333.66,-84.8"/>
<text text-anchor="middle" x="1264" y="-62.6" font-family="Times,serif" font-size="14.00">JsonTyperComponent</text>
</g>
<!-- JsonTyperComponent&#45;&gt;ToolsModule -->
<g id="edge4" class="edge">
<title>JsonTyperComponent&#45;&gt;ToolsModule</title>
<path fill="none" stroke="black" d="M1264,-84.82C1264,-102.17 1264,-125.8 1264,-125.8 1264,-125.8 941.97,-125.8 941.97,-125.8"/>
<polygon fill="black" stroke="black" points="941.97,-122.3 931.97,-125.8 941.97,-129.3 941.97,-122.3"/>
</g>
<!-- MdwriterComponent -->
<g id="node5" class="node">
<title>MdwriterComponent</title>
<polygon fill="#ffffb3" stroke="black" points="1176.21,-84.8 1041.79,-84.8 1041.79,-48.8 1176.21,-48.8 1176.21,-84.8"/>
<text text-anchor="middle" x="1109" y="-62.6" font-family="Times,serif" font-size="14.00">MdwriterComponent</text>
</g>
<!-- MdwriterComponent&#45;&gt;ToolsModule -->
<g id="edge5" class="edge">
<title>MdwriterComponent&#45;&gt;ToolsModule</title>
<path fill="none" stroke="black" d="M1109,-85.04C1109,-100.37 1109,-119.8 1109,-119.8 1109,-119.8 941.94,-119.8 941.94,-119.8"/>
<polygon fill="black" stroke="black" points="941.94,-116.3 931.94,-119.8 941.94,-123.3 941.94,-116.3"/>
</g>
<!-- OpenapiComponent -->
<g id="node6" class="node">
<title>OpenapiComponent</title>
<polygon fill="#ffffb3" stroke="black" points="1024.26,-84.8 895.74,-84.8 895.74,-48.8 1024.26,-48.8 1024.26,-84.8"/>
<text text-anchor="middle" x="960" y="-62.6" font-family="Times,serif" font-size="14.00">OpenapiComponent</text>
</g>
<!-- OpenapiComponent&#45;&gt;ToolsModule -->
<g id="edge6" class="edge">
<title>OpenapiComponent&#45;&gt;ToolsModule</title>
<path fill="none" stroke="black" d="M913.67,-84.91C913.67,-84.91 913.67,-103.79 913.67,-103.79"/>
<polygon fill="black" stroke="black" points="910.17,-103.79 913.67,-113.79 917.17,-103.79 910.17,-103.79"/>
</g>
<!-- RealtimeComponent -->
<g id="node7" class="node">
<title>RealtimeComponent</title>
<polygon fill="#ffffb3" stroke="black" points="877.87,-84.8 746.13,-84.8 746.13,-48.8 877.87,-48.8 877.87,-84.8"/>
<text text-anchor="middle" x="812" y="-62.6" font-family="Times,serif" font-size="14.00">RealtimeComponent</text>
</g>
<!-- RealtimeComponent&#45;&gt;ToolsModule -->
<g id="edge7" class="edge">
<title>RealtimeComponent&#45;&gt;ToolsModule</title>
<path fill="none" stroke="black" d="M859.11,-84.91C859.11,-84.91 859.11,-103.79 859.11,-103.79"/>
<polygon fill="black" stroke="black" points="855.61,-103.79 859.11,-113.79 862.61,-103.79 855.61,-103.79"/>
</g>
<!-- RegexComponent -->
<g id="node8" class="node">
<title>RegexComponent</title>
<polygon fill="#ffffb3" stroke="black" points="728.6,-84.8 611.4,-84.8 611.4,-48.8 728.6,-48.8 728.6,-84.8"/>
<text text-anchor="middle" x="670" y="-62.6" font-family="Times,serif" font-size="14.00">RegexComponent</text>
</g>
<!-- RegexComponent&#45;&gt;ToolsModule -->
<g id="edge8" class="edge">
<title>RegexComponent&#45;&gt;ToolsModule</title>
<path fill="none" stroke="black" d="M670,-85.04C670,-100.37 670,-119.8 670,-119.8 670,-119.8 830.19,-119.8 830.19,-119.8"/>
<polygon fill="black" stroke="black" points="830.19,-123.3 840.19,-119.8 830.19,-116.3 830.19,-123.3"/>
</g>
<!-- UserInfoComponent -->
<g id="node9" class="node">
<title>UserInfoComponent</title>
<polygon fill="#ffffb3" stroke="black" points="593.59,-84.8 462.41,-84.8 462.41,-48.8 593.59,-48.8 593.59,-84.8"/>
<text text-anchor="middle" x="528" y="-62.6" font-family="Times,serif" font-size="14.00">UserInfoComponent</text>
</g>
<!-- UserInfoComponent&#45;&gt;ToolsModule -->
<g id="edge9" class="edge">
<title>UserInfoComponent&#45;&gt;ToolsModule</title>
<path fill="none" stroke="black" d="M528,-84.82C528,-102.17 528,-125.8 528,-125.8 528,-125.8 829.93,-125.8 829.93,-125.8"/>
<polygon fill="black" stroke="black" points="829.93,-129.3 839.93,-125.8 829.93,-122.3 829.93,-129.3"/>
</g>
<!-- YearCheckComponent -->
<g id="node10" class="node">
<title>YearCheckComponent</title>
<polygon fill="#ffffb3" stroke="black" points="444.3,-84.8 299.7,-84.8 299.7,-48.8 444.3,-48.8 444.3,-84.8"/>
<text text-anchor="middle" x="372" y="-62.6" font-family="Times,serif" font-size="14.00">YearCheckComponent</text>
</g>
<!-- YearCheckComponent&#45;&gt;ToolsModule -->
<g id="edge10" class="edge">
<title>YearCheckComponent&#45;&gt;ToolsModule</title>
<path fill="none" stroke="black" d="M372,-84.91C372,-104.14 372,-131.8 372,-131.8 372,-131.8 829.93,-131.8 829.93,-131.8"/>
<polygon fill="black" stroke="black" points="829.93,-135.3 839.93,-131.8 829.93,-128.3 829.93,-135.3"/>
</g>
<!-- SharedModule -->
<g id="node12" class="node">
<title>SharedModule</title>
<polygon fill="#8dd3c7" stroke="black" points="276.43,-84.8 273.43,-88.8 252.43,-88.8 249.43,-84.8 177.57,-84.8 177.57,-48.8 276.43,-48.8 276.43,-84.8"/>
<text text-anchor="middle" x="227" y="-62.6" font-family="Times,serif" font-size="14.00">SharedModule</text>
</g>
<!-- SharedModule&#45;&gt;ToolsModule -->
<g id="edge11" class="edge">
<title>SharedModule&#45;&gt;ToolsModule</title>
<path fill="none" stroke="black" d="M227,-85.08C227,-106.12 227,-137.8 227,-137.8 227,-137.8 830.18,-137.8 830.18,-137.8"/>
<polygon fill="black" stroke="black" points="830.18,-141.3 840.18,-137.8 830.18,-134.3 830.18,-141.3"/>
</g>
<!-- ToolsRoutingModule -->
<g id="node13" class="node">
<title>ToolsRoutingModule</title>
<polygon fill="#8dd3c7" stroke="black" points="160.06,-84.8 157.06,-88.8 136.06,-88.8 133.06,-84.8 23.94,-84.8 23.94,-48.8 160.06,-48.8 160.06,-84.8"/>
<text text-anchor="middle" x="92" y="-62.6" font-family="Times,serif" font-size="14.00">ToolsRoutingModule</text>
</g>
<!-- ToolsRoutingModule&#45;&gt;ToolsModule -->
<g id="edge12" class="edge">
<title>ToolsRoutingModule&#45;&gt;ToolsModule</title>
<path fill="none" stroke="black" d="M92,-84.89C92,-107.93 92,-144.8 92,-144.8 92,-144.8 830.17,-144.8 830.17,-144.8"/>
<polygon fill="black" stroke="black" points="830.17,-148.3 840.17,-144.8 830.17,-141.3 830.17,-148.3"/>
</g>
</g>
</svg>
