<?xml version="1.0" encoding="UTF-8" standalone="no"?>
<!DOCTYPE svg PUBLIC "-//W3C//DTD SVG 1.1//EN"
 "http://www.w3.org/Graphics/SVG/1.1/DTD/svg11.dtd">
<!-- Generated by graphviz version 2.47.3 (20210619.1520)
 -->
<!-- Title: dependencies Pages: 1 -->
<svg width="1125pt" height="174pt"
 viewBox="0.00 0.00 1125.00 173.80" xmlns="http://www.w3.org/2000/svg" xmlns:xlink="http://www.w3.org/1999/xlink">
<g id="graph0" class="graph" transform="scale(1 1) rotate(0) translate(4 169.8)">
<title>dependencies</title>
<polygon fill="white" stroke="transparent" points="-4,4 -4,-169.8 1121,-169.8 1121,4 -4,4"/>
<text text-anchor="middle" x="558.5" y="-8.2" font-family="sans-serif" font-size="14.00">dependencies</text>
<g id="clust1" class="cluster">
<title>cluster_ToolsModule</title>
<polygon fill="none" stroke="black" stroke-dasharray="1,5" points="8,-32.8 8,-157.8 1109,-157.8 1109,-32.8 8,-32.8"/>
</g>
<g id="clust8" class="cluster">
<title>cluster_ToolsModule_imports</title>
<polygon fill="none" stroke="black" points="833,-40.8 833,-92.8 1101,-92.8 1101,-40.8 833,-40.8"/>
</g>
<g id="clust2" class="cluster">
<title>cluster_ToolsModule_declarations</title>
<polygon fill="none" stroke="black" points="16,-40.8 16,-92.8 825,-92.8 825,-40.8 16,-40.8"/>
</g>
<!-- AmazonAssociateComponent -->
<g id="node1" class="node">
<title>AmazonAssociateComponent</title>
<polygon fill="#ffffb3" stroke="black" points="816.68,-84.8 633.32,-84.8 633.32,-48.8 816.68,-48.8 816.68,-84.8"/>
<text text-anchor="middle" x="725" y="-62.6" font-family="Times,serif" font-size="14.00">AmazonAssociateComponent</text>
</g>
<!-- ToolsModule -->
<g id="node6" class="node">
<title>ToolsModule</title>
<polygon fill="#8dd3c7" stroke="black" points="591.94,-149.8 588.94,-153.8 567.94,-153.8 564.94,-149.8 500.06,-149.8 500.06,-113.8 591.94,-113.8 591.94,-149.8"/>
<text text-anchor="middle" x="546" y="-127.6" font-family="Times,serif" font-size="14.00">ToolsModule</text>
</g>
<!-- AmazonAssociateComponent&#45;&gt;ToolsModule -->
<g id="edge1" class="edge">
<title>AmazonAssociateComponent&#45;&gt;ToolsModule</title>
<path fill="none" stroke="black" d="M725,-84.83C725,-101.2 725,-122.8 725,-122.8 725,-122.8 602.1,-122.8 602.1,-122.8"/>
<polygon fill="black" stroke="black" points="602.1,-119.3 592.1,-122.8 602.1,-126.3 602.1,-119.3"/>
</g>
<!-- JsonTyperComponent -->
<g id="node2" class="node">
<title>JsonTyperComponent</title>
<polygon fill="#ffffb3" stroke="black" points="615.65,-84.8 476.35,-84.8 476.35,-48.8 615.65,-48.8 615.65,-84.8"/>
<text text-anchor="middle" x="546" y="-62.6" font-family="Times,serif" font-size="14.00">JsonTyperComponent</text>
</g>
<!-- JsonTyperComponent&#45;&gt;ToolsModule -->
<g id="edge2" class="edge">
<title>JsonTyperComponent&#45;&gt;ToolsModule</title>
<path fill="none" stroke="black" d="M546,-84.91C546,-84.91 546,-103.79 546,-103.79"/>
<polygon fill="black" stroke="black" points="542.5,-103.79 546,-113.79 549.5,-103.79 542.5,-103.79"/>
</g>
<!-- RealtimeComponent -->
<g id="node3" class="node">
<title>RealtimeComponent</title>
<polygon fill="#ffffb3" stroke="black" points="457.88,-84.8 326.12,-84.8 326.12,-48.8 457.88,-48.8 457.88,-84.8"/>
<text text-anchor="middle" x="392" y="-62.6" font-family="Times,serif" font-size="14.00">RealtimeComponent</text>
</g>
<!-- RealtimeComponent&#45;&gt;ToolsModule -->
<g id="edge3" class="edge">
<title>RealtimeComponent&#45;&gt;ToolsModule</title>
<path fill="none" stroke="black" d="M392,-84.83C392,-101.2 392,-122.8 392,-122.8 392,-122.8 490.21,-122.8 490.21,-122.8"/>
<polygon fill="black" stroke="black" points="490.21,-126.3 500.21,-122.8 490.21,-119.3 490.21,-126.3"/>
</g>
<!-- ToolsListComponent -->
<g id="node4" class="node">
<title>ToolsListComponent</title>
<polygon fill="#ffffb3" stroke="black" points="308.5,-84.8 173.5,-84.8 173.5,-48.8 308.5,-48.8 308.5,-84.8"/>
<text text-anchor="middle" x="241" y="-62.6" font-family="Times,serif" font-size="14.00">ToolsListComponent</text>
</g>
<!-- ToolsListComponent&#45;&gt;ToolsModule -->
<g id="edge4" class="edge">
<title>ToolsListComponent&#45;&gt;ToolsModule</title>
<path fill="none" stroke="black" d="M241,-84.91C241,-104.14 241,-131.8 241,-131.8 241,-131.8 490.01,-131.8 490.01,-131.8"/>
<polygon fill="black" stroke="black" points="490.01,-135.3 500.01,-131.8 490.01,-128.3 490.01,-135.3"/>
</g>
<!-- UserInfoComponent -->
<g id="node5" class="node">
<title>UserInfoComponent</title>
<polygon fill="#ffffb3" stroke="black" points="155.58,-84.8 24.42,-84.8 24.42,-48.8 155.58,-48.8 155.58,-84.8"/>
<text text-anchor="middle" x="90" y="-62.6" font-family="Times,serif" font-size="14.00">UserInfoComponent</text>
</g>
<!-- UserInfoComponent&#45;&gt;ToolsModule -->
<g id="edge5" class="edge">
<title>UserInfoComponent&#45;&gt;ToolsModule</title>
<path fill="none" stroke="black" d="M90,-85.09C90,-107.01 90,-140.8 90,-140.8 90,-140.8 490.19,-140.8 490.19,-140.8"/>
<polygon fill="black" stroke="black" points="490.19,-144.3 500.19,-140.8 490.19,-137.3 490.19,-144.3"/>
</g>
<!-- SharedModule -->
<g id="node7" class="node">
<title>SharedModule</title>
<polygon fill="#8dd3c7" stroke="black" points="1093.42,-84.8 1090.42,-88.8 1069.42,-88.8 1066.42,-84.8 994.58,-84.8 994.58,-48.8 1093.42,-48.8 1093.42,-84.8"/>
<text text-anchor="middle" x="1044" y="-62.6" font-family="Times,serif" font-size="14.00">SharedModule</text>
</g>
<!-- SharedModule&#45;&gt;ToolsModule -->
<g id="edge6" class="edge">
<title>SharedModule&#45;&gt;ToolsModule</title>
<path fill="none" stroke="black" d="M1044,-85.09C1044,-107.01 1044,-140.8 1044,-140.8 1044,-140.8 601.96,-140.8 601.96,-140.8"/>
<polygon fill="black" stroke="black" points="601.96,-137.3 591.96,-140.8 601.96,-144.3 601.96,-137.3"/>
</g>
<!-- ToolsRoutingModule -->
<g id="node8" class="node">
<title>ToolsRoutingModule</title>
<polygon fill="#8dd3c7" stroke="black" points="977.06,-84.8 974.06,-88.8 953.06,-88.8 950.06,-84.8 840.94,-84.8 840.94,-48.8 977.06,-48.8 977.06,-84.8"/>
<text text-anchor="middle" x="909" y="-62.6" font-family="Times,serif" font-size="14.00">ToolsRoutingModule</text>
</g>
<!-- ToolsRoutingModule&#45;&gt;ToolsModule -->
<g id="edge7" class="edge">
<title>ToolsRoutingModule&#45;&gt;ToolsModule</title>
<path fill="none" stroke="black" d="M909,-84.91C909,-104.14 909,-131.8 909,-131.8 909,-131.8 601.97,-131.8 601.97,-131.8"/>
<polygon fill="black" stroke="black" points="601.97,-128.3 591.97,-131.8 601.97,-135.3 601.97,-128.3"/>
</g>
</g>
</svg>
