<?xml version="1.0" encoding="UTF-8" standalone="no"?>
<!DOCTYPE svg PUBLIC "-//W3C//DTD SVG 1.1//EN"
 "http://www.w3.org/Graphics/SVG/1.1/DTD/svg11.dtd">
<!-- Generated by graphviz version 2.47.3 (20210619.1520)
 -->
<!-- Title: dependencies Pages: 1 -->
<svg width="2041pt" height="174pt"
 viewBox="0.00 0.00 2041.00 173.80" xmlns="http://www.w3.org/2000/svg" xmlns:xlink="http://www.w3.org/1999/xlink">
<g id="graph0" class="graph" transform="scale(1 1) rotate(0) translate(4 169.8)">
<title>dependencies</title>
<polygon fill="white" stroke="transparent" points="-4,4 -4,-169.8 2037,-169.8 2037,4 -4,4"/>
<text text-anchor="middle" x="1016.5" y="-8.2" font-family="sans-serif" font-size="14.00">dependencies</text>
<g id="clust1" class="cluster">
<title>cluster_ToolsModule</title>
<polygon fill="none" stroke="black" stroke-dasharray="1,5" points="8,-32.8 8,-157.8 2025,-157.8 2025,-32.8 8,-32.8"/>
</g>
<g id="clust2" class="cluster">
<title>cluster_ToolsModule_declarations</title>
<polygon fill="none" stroke="black" points="292,-40.8 292,-92.8 2017,-92.8 2017,-40.8 292,-40.8"/>
</g>
<g id="clust14" class="cluster">
<title>cluster_ToolsModule_imports</title>
<polygon fill="none" stroke="black" points="16,-40.8 16,-92.8 284,-92.8 284,-40.8 16,-40.8"/>
</g>
<!-- AmazonAssociateComponent -->
<g id="node1" class="node">
<title>AmazonAssociateComponent</title>
<polygon fill="#ffffb3" stroke="black" points="2008.68,-84.8 1825.32,-84.8 1825.32,-48.8 2008.68,-48.8 2008.68,-84.8"/>
<text text-anchor="middle" x="1917" y="-62.6" font-family="Times,serif" font-size="14.00">AmazonAssociateComponent</text>
</g>
<!-- ToolsModule -->
<g id="node12" class="node">
<title>ToolsModule</title>
<polygon fill="#8dd3c7" stroke="black" points="1010.94,-149.8 1007.94,-153.8 986.94,-153.8 983.94,-149.8 919.06,-149.8 919.06,-113.8 1010.94,-113.8 1010.94,-149.8"/>
<text text-anchor="middle" x="965" y="-127.6" font-family="Times,serif" font-size="14.00">ToolsModule</text>
</g>
<!-- AmazonAssociateComponent&#45;&gt;ToolsModule -->
<g id="edge1" class="edge">
<title>AmazonAssociateComponent&#45;&gt;ToolsModule</title>
<path fill="none" stroke="black" d="M1917,-84.89C1917,-107.93 1917,-144.8 1917,-144.8 1917,-144.8 1020.92,-144.8 1020.92,-144.8"/>
<polygon fill="black" stroke="black" points="1020.92,-141.3 1010.92,-144.8 1020.92,-148.3 1020.92,-141.3"/>
</g>
<!-- Base64Component -->
<g id="node2" class="node">
<title>Base64Component</title>
<polygon fill="#ffffb3" stroke="black" points="1807.04,-84.8 1684.96,-84.8 1684.96,-48.8 1807.04,-48.8 1807.04,-84.8"/>
<text text-anchor="middle" x="1746" y="-62.6" font-family="Times,serif" font-size="14.00">Base64Component</text>
</g>
<!-- Base64Component&#45;&gt;ToolsModule -->
<g id="edge2" class="edge">
<title>Base64Component&#45;&gt;ToolsModule</title>
<path fill="none" stroke="black" d="M1746,-84.84C1746,-106.46 1746,-139.8 1746,-139.8 1746,-139.8 1020.94,-139.8 1020.94,-139.8"/>
<polygon fill="black" stroke="black" points="1020.94,-136.3 1010.94,-139.8 1020.94,-143.3 1020.94,-136.3"/>
</g>
<!-- JsonFormatterComponent -->
<g id="node3" class="node">
<title>JsonFormatterComponent</title>
<polygon fill="#ffffb3" stroke="black" points="1666.93,-84.8 1505.07,-84.8 1505.07,-48.8 1666.93,-48.8 1666.93,-84.8"/>
<text text-anchor="middle" x="1586" y="-62.6" font-family="Times,serif" font-size="14.00">JsonFormatterComponent</text>
</g>
<!-- JsonFormatterComponent&#45;&gt;ToolsModule -->
<g id="edge3" class="edge">
<title>JsonFormatterComponent&#45;&gt;ToolsModule</title>
<path fill="none" stroke="black" d="M1586,-85.02C1586,-105.17 1586,-134.8 1586,-134.8 1586,-134.8 1020.92,-134.8 1020.92,-134.8"/>
<polygon fill="black" stroke="black" points="1020.92,-131.3 1010.92,-134.8 1020.92,-138.3 1020.92,-131.3"/>
</g>
<!-- JsonTyperComponent -->
<g id="node4" class="node">
<title>JsonTyperComponent</title>
<polygon fill="#ffffb3" stroke="black" points="1486.65,-84.8 1347.35,-84.8 1347.35,-48.8 1486.65,-48.8 1486.65,-84.8"/>
<text text-anchor="middle" x="1417" y="-62.6" font-family="Times,serif" font-size="14.00">JsonTyperComponent</text>
</g>
<!-- JsonTyperComponent&#45;&gt;ToolsModule -->
<g id="edge4" class="edge">
<title>JsonTyperComponent&#45;&gt;ToolsModule</title>
<path fill="none" stroke="black" d="M1417,-85.02C1417,-103.63 1417,-129.8 1417,-129.8 1417,-129.8 1020.83,-129.8 1020.83,-129.8"/>
<polygon fill="black" stroke="black" points="1020.83,-126.3 1010.83,-129.8 1020.83,-133.3 1020.83,-126.3"/>
</g>
<!-- MdwriterComponent -->
<g id="node5" class="node">
<title>MdwriterComponent</title>
<polygon fill="#ffffb3" stroke="black" points="1329.2,-84.8 1194.8,-84.8 1194.8,-48.8 1329.2,-48.8 1329.2,-84.8"/>
<text text-anchor="middle" x="1262" y="-62.6" font-family="Times,serif" font-size="14.00">MdwriterComponent</text>
</g>
<!-- MdwriterComponent&#45;&gt;ToolsModule -->
<g id="edge5" class="edge">
<title>MdwriterComponent&#45;&gt;ToolsModule</title>
<path fill="none" stroke="black" d="M1262,-84.83C1262,-101.86 1262,-124.8 1262,-124.8 1262,-124.8 1020.76,-124.8 1020.76,-124.8"/>
<polygon fill="black" stroke="black" points="1020.76,-121.3 1010.76,-124.8 1020.76,-128.3 1020.76,-121.3"/>
</g>
<!-- OpenapiComponent -->
<g id="node6" class="node">
<title>OpenapiComponent</title>
<polygon fill="#ffffb3" stroke="black" points="1177.26,-84.8 1048.74,-84.8 1048.74,-48.8 1177.26,-48.8 1177.26,-84.8"/>
<text text-anchor="middle" x="1113" y="-62.6" font-family="Times,serif" font-size="14.00">OpenapiComponent</text>
</g>
<!-- OpenapiComponent&#45;&gt;ToolsModule -->
<g id="edge6" class="edge">
<title>OpenapiComponent&#45;&gt;ToolsModule</title>
<path fill="none" stroke="black" d="M1113,-85.04C1113,-100.37 1113,-119.8 1113,-119.8 1113,-119.8 1021.02,-119.8 1021.02,-119.8"/>
<polygon fill="black" stroke="black" points="1021.02,-116.3 1011.02,-119.8 1021.02,-123.3 1021.02,-116.3"/>
</g>
<!-- RealtimeComponent -->
<g id="node7" class="node">
<title>RealtimeComponent</title>
<polygon fill="#ffffb3" stroke="black" points="1030.88,-84.8 899.12,-84.8 899.12,-48.8 1030.88,-48.8 1030.88,-84.8"/>
<text text-anchor="middle" x="965" y="-62.6" font-family="Times,serif" font-size="14.00">RealtimeComponent</text>
</g>
<!-- RealtimeComponent&#45;&gt;ToolsModule -->
<g id="edge7" class="edge">
<title>RealtimeComponent&#45;&gt;ToolsModule</title>
<path fill="none" stroke="black" d="M965,-84.91C965,-84.91 965,-103.79 965,-103.79"/>
<polygon fill="black" stroke="black" points="961.5,-103.79 965,-113.79 968.5,-103.79 961.5,-103.79"/>
</g>
<!-- RegexComponent -->
<g id="node8" class="node">
<title>RegexComponent</title>
<polygon fill="#ffffb3" stroke="black" points="881.6,-84.8 764.4,-84.8 764.4,-48.8 881.6,-48.8 881.6,-84.8"/>
<text text-anchor="middle" x="823" y="-62.6" font-family="Times,serif" font-size="14.00">RegexComponent</text>
</g>
<!-- RegexComponent&#45;&gt;ToolsModule -->
<g id="edge8" class="edge">
<title>RegexComponent&#45;&gt;ToolsModule</title>
<path fill="none" stroke="black" d="M823,-85.04C823,-100.37 823,-119.8 823,-119.8 823,-119.8 908.9,-119.8 908.9,-119.8"/>
<polygon fill="black" stroke="black" points="908.9,-123.3 918.9,-119.8 908.9,-116.3 908.9,-123.3"/>
</g>
<!-- ToolsListComponent -->
<g id="node9" class="node">
<title>ToolsListComponent</title>
<polygon fill="#ffffb3" stroke="black" points="746.5,-84.8 611.5,-84.8 611.5,-48.8 746.5,-48.8 746.5,-84.8"/>
<text text-anchor="middle" x="679" y="-62.6" font-family="Times,serif" font-size="14.00">ToolsListComponent</text>
</g>
<!-- ToolsListComponent&#45;&gt;ToolsModule -->
<g id="edge9" class="edge">
<title>ToolsListComponent&#45;&gt;ToolsModule</title>
<path fill="none" stroke="black" d="M679,-84.83C679,-101.86 679,-124.8 679,-124.8 679,-124.8 909.05,-124.8 909.05,-124.8"/>
<polygon fill="black" stroke="black" points="909.05,-128.3 919.05,-124.8 909.05,-121.3 909.05,-128.3"/>
</g>
<!-- UserInfoComponent -->
<g id="node10" class="node">
<title>UserInfoComponent</title>
<polygon fill="#ffffb3" stroke="black" points="593.58,-84.8 462.42,-84.8 462.42,-48.8 593.58,-48.8 593.58,-84.8"/>
<text text-anchor="middle" x="528" y="-62.6" font-family="Times,serif" font-size="14.00">UserInfoComponent</text>
</g>
<!-- UserInfoComponent&#45;&gt;ToolsModule -->
<g id="edge10" class="edge">
<title>UserInfoComponent&#45;&gt;ToolsModule</title>
<path fill="none" stroke="black" d="M528,-85.02C528,-103.63 528,-129.8 528,-129.8 528,-129.8 909.06,-129.8 909.06,-129.8"/>
<polygon fill="black" stroke="black" points="909.06,-133.3 919.06,-129.8 909.06,-126.3 909.06,-133.3"/>
</g>
<!-- YearCheckComponent -->
<g id="node11" class="node">
<title>YearCheckComponent</title>
<polygon fill="#ffffb3" stroke="black" points="444.29,-84.8 299.71,-84.8 299.71,-48.8 444.29,-48.8 444.29,-84.8"/>
<text text-anchor="middle" x="372" y="-62.6" font-family="Times,serif" font-size="14.00">YearCheckComponent</text>
</g>
<!-- YearCheckComponent&#45;&gt;ToolsModule -->
<g id="edge11" class="edge">
<title>YearCheckComponent&#45;&gt;ToolsModule</title>
<path fill="none" stroke="black" d="M372,-85.02C372,-105.17 372,-134.8 372,-134.8 372,-134.8 908.96,-134.8 908.96,-134.8"/>
<polygon fill="black" stroke="black" points="908.96,-138.3 918.96,-134.8 908.96,-131.3 908.96,-138.3"/>
</g>
<!-- SharedModule -->
<g id="node13" class="node">
<title>SharedModule</title>
<polygon fill="#8dd3c7" stroke="black" points="276.42,-84.8 273.42,-88.8 252.42,-88.8 249.42,-84.8 177.58,-84.8 177.58,-48.8 276.42,-48.8 276.42,-84.8"/>
<text text-anchor="middle" x="227" y="-62.6" font-family="Times,serif" font-size="14.00">SharedModule</text>
</g>
<!-- SharedModule&#45;&gt;ToolsModule -->
<g id="edge12" class="edge">
<title>SharedModule&#45;&gt;ToolsModule</title>
<path fill="none" stroke="black" d="M227,-84.84C227,-106.46 227,-139.8 227,-139.8 227,-139.8 909.11,-139.8 909.11,-139.8"/>
<polygon fill="black" stroke="black" points="909.11,-143.3 919.11,-139.8 909.11,-136.3 909.11,-143.3"/>
</g>
<!-- ToolsRoutingModule -->
<g id="node14" class="node">
<title>ToolsRoutingModule</title>
<polygon fill="#8dd3c7" stroke="black" points="160.06,-84.8 157.06,-88.8 136.06,-88.8 133.06,-84.8 23.94,-84.8 23.94,-48.8 160.06,-48.8 160.06,-84.8"/>
<text text-anchor="middle" x="92" y="-62.6" font-family="Times,serif" font-size="14.00">ToolsRoutingModule</text>
</g>
<!-- ToolsRoutingModule&#45;&gt;ToolsModule -->
<g id="edge13" class="edge">
<title>ToolsRoutingModule&#45;&gt;ToolsModule</title>
<path fill="none" stroke="black" d="M92,-84.89C92,-107.93 92,-144.8 92,-144.8 92,-144.8 908.99,-144.8 908.99,-144.8"/>
<polygon fill="black" stroke="black" points="908.99,-148.3 918.99,-144.8 908.99,-141.3 908.99,-148.3"/>
</g>
</g>
</svg>
