<?xml version="1.0" encoding="UTF-8" standalone="no"?>
<!DOCTYPE svg PUBLIC "-//W3C//DTD SVG 1.1//EN"
 "http://www.w3.org/Graphics/SVG/1.1/DTD/svg11.dtd">
<!-- Generated by graphviz version 3.0.0 (20220226.1711)
 -->
<!-- Title: dependencies Pages: 1 -->
<svg width="2179pt" height="174pt"
 viewBox="0.00 0.00 2179.00 173.80" xmlns="http://www.w3.org/2000/svg" xmlns:xlink="http://www.w3.org/1999/xlink">
<g id="graph0" class="graph" transform="scale(1 1) rotate(0) translate(4 169.8)">
<title>dependencies</title>
<polygon fill="white" stroke="transparent" points="-4,4 -4,-169.8 2175,-169.8 2175,4 -4,4"/>
<text text-anchor="middle" x="1085.5" y="-8.2" font-family="sans-serif" font-size="14.00">dependencies</text>
<g id="clust1" class="cluster">
<title>cluster_ToolsModule</title>
<polygon fill="none" stroke="black" stroke-dasharray="1,5" points="8,-32.8 8,-157.8 2163,-157.8 2163,-32.8 8,-32.8"/>
</g>
<g id="clust2" class="cluster">
<title>cluster_ToolsModule_declarations</title>
<polygon fill="none" stroke="black" points="292,-40.8 292,-92.8 2155,-92.8 2155,-40.8 292,-40.8"/>
</g>
<g id="clust15" class="cluster">
<title>cluster_ToolsModule_imports</title>
<polygon fill="none" stroke="black" points="16,-40.8 16,-92.8 284,-92.8 284,-40.8 16,-40.8"/>
</g>
<!-- AmazonAssociateComponent -->
<g id="node1" class="node">
<title>AmazonAssociateComponent</title>
<polygon fill="#ffffb3" stroke="black" points="2146.69,-84.8 1963.31,-84.8 1963.31,-48.8 2146.69,-48.8 2146.69,-84.8"/>
<text text-anchor="middle" x="2055" y="-62.6" font-family="Times,serif" font-size="14.00">AmazonAssociateComponent</text>
</g>
<!-- ToolsModule -->
<g id="node13" class="node">
<title>ToolsModule</title>
<polygon fill="#8dd3c7" stroke="black" points="1079.94,-149.8 1076.94,-153.8 1055.94,-153.8 1052.94,-149.8 988.06,-149.8 988.06,-113.8 1079.94,-113.8 1079.94,-149.8"/>
<text text-anchor="middle" x="1034" y="-127.6" font-family="Times,serif" font-size="14.00">ToolsModule</text>
</g>
<!-- AmazonAssociateComponent&#45;&gt;ToolsModule -->
<g id="edge1" class="edge">
<title>AmazonAssociateComponent&#45;&gt;ToolsModule</title>
<path fill="none" stroke="black" d="M2055,-84.89C2055,-107.93 2055,-144.8 2055,-144.8 2055,-144.8 1089.85,-144.8 1089.85,-144.8"/>
<polygon fill="black" stroke="black" points="1089.85,-141.3 1079.85,-144.8 1089.85,-148.3 1089.85,-141.3"/>
</g>
<!-- Base64Component -->
<g id="node2" class="node">
<title>Base64Component</title>
<polygon fill="#ffffb3" stroke="black" points="1945.05,-84.8 1822.95,-84.8 1822.95,-48.8 1945.05,-48.8 1945.05,-84.8"/>
<text text-anchor="middle" x="1884" y="-62.6" font-family="Times,serif" font-size="14.00">Base64Component</text>
</g>
<!-- Base64Component&#45;&gt;ToolsModule -->
<g id="edge2" class="edge">
<title>Base64Component&#45;&gt;ToolsModule</title>
<path fill="none" stroke="black" d="M1884,-84.84C1884,-106.46 1884,-139.8 1884,-139.8 1884,-139.8 1090,-139.8 1090,-139.8"/>
<polygon fill="black" stroke="black" points="1090,-136.3 1080,-139.8 1090,-143.3 1090,-136.3"/>
</g>
<!-- FxCalcComponent -->
<g id="node3" class="node">
<title>FxCalcComponent</title>
<polygon fill="#ffffb3" stroke="black" points="1804.77,-84.8 1683.23,-84.8 1683.23,-48.8 1804.77,-48.8 1804.77,-84.8"/>
<text text-anchor="middle" x="1744" y="-62.6" font-family="Times,serif" font-size="14.00">FxCalcComponent</text>
</g>
<!-- FxCalcComponent&#45;&gt;ToolsModule -->
<g id="edge3" class="edge">
<title>FxCalcComponent&#45;&gt;ToolsModule</title>
<path fill="none" stroke="black" d="M1744,-85.02C1744,-105.17 1744,-134.8 1744,-134.8 1744,-134.8 1089.77,-134.8 1089.77,-134.8"/>
<polygon fill="black" stroke="black" points="1089.77,-131.3 1079.77,-134.8 1089.77,-138.3 1089.77,-131.3"/>
</g>
<!-- JsonFormatterComponent -->
<g id="node4" class="node">
<title>JsonFormatterComponent</title>
<polygon fill="#ffffb3" stroke="black" points="1664.94,-84.8 1503.06,-84.8 1503.06,-48.8 1664.94,-48.8 1664.94,-84.8"/>
<text text-anchor="middle" x="1584" y="-62.6" font-family="Times,serif" font-size="14.00">JsonFormatterComponent</text>
</g>
<!-- JsonFormatterComponent&#45;&gt;ToolsModule -->
<g id="edge4" class="edge">
<title>JsonFormatterComponent&#45;&gt;ToolsModule</title>
<path fill="none" stroke="black" d="M1584,-85.02C1584,-103.63 1584,-129.8 1584,-129.8 1584,-129.8 1089.95,-129.8 1089.95,-129.8"/>
<polygon fill="black" stroke="black" points="1089.95,-126.3 1079.95,-129.8 1089.95,-133.3 1089.95,-126.3"/>
</g>
<!-- JsonTyperComponent -->
<g id="node5" class="node">
<title>JsonTyperComponent</title>
<polygon fill="#ffffb3" stroke="black" points="1484.66,-84.8 1345.34,-84.8 1345.34,-48.8 1484.66,-48.8 1484.66,-84.8"/>
<text text-anchor="middle" x="1415" y="-62.6" font-family="Times,serif" font-size="14.00">JsonTyperComponent</text>
</g>
<!-- JsonTyperComponent&#45;&gt;ToolsModule -->
<g id="edge5" class="edge">
<title>JsonTyperComponent&#45;&gt;ToolsModule</title>
<path fill="none" stroke="black" d="M1415,-84.83C1415,-101.86 1415,-124.8 1415,-124.8 1415,-124.8 1089.96,-124.8 1089.96,-124.8"/>
<polygon fill="black" stroke="black" points="1089.96,-121.3 1079.96,-124.8 1089.96,-128.3 1089.96,-121.3"/>
</g>
<!-- MdwriterComponent -->
<g id="node6" class="node">
<title>MdwriterComponent</title>
<polygon fill="#ffffb3" stroke="black" points="1327.21,-84.8 1192.79,-84.8 1192.79,-48.8 1327.21,-48.8 1327.21,-84.8"/>
<text text-anchor="middle" x="1260" y="-62.6" font-family="Times,serif" font-size="14.00">MdwriterComponent</text>
</g>
<!-- MdwriterComponent&#45;&gt;ToolsModule -->
<g id="edge6" class="edge">
<title>MdwriterComponent&#45;&gt;ToolsModule</title>
<path fill="none" stroke="black" d="M1260,-85.04C1260,-100.37 1260,-119.8 1260,-119.8 1260,-119.8 1089.73,-119.8 1089.73,-119.8"/>
<polygon fill="black" stroke="black" points="1089.73,-116.3 1079.73,-119.8 1089.73,-123.3 1089.73,-116.3"/>
</g>
<!-- MermaidComponent -->
<g id="node7" class="node">
<title>MermaidComponent</title>
<polygon fill="#ffffb3" stroke="black" points="1175.15,-84.8 1042.85,-84.8 1042.85,-48.8 1175.15,-48.8 1175.15,-84.8"/>
<text text-anchor="middle" x="1109" y="-62.6" font-family="Times,serif" font-size="14.00">MermaidComponent</text>
</g>
<!-- MermaidComponent&#45;&gt;ToolsModule -->
<g id="edge7" class="edge">
<title>MermaidComponent&#45;&gt;ToolsModule</title>
<path fill="none" stroke="black" d="M1061.2,-84.91C1061.2,-84.91 1061.2,-103.79 1061.2,-103.79"/>
<polygon fill="black" stroke="black" points="1057.7,-103.79 1061.2,-113.79 1064.7,-103.79 1057.7,-103.79"/>
</g>
<!-- OpenapiComponent -->
<g id="node8" class="node">
<title>OpenapiComponent</title>
<polygon fill="#ffffb3" stroke="black" points="1024.26,-84.8 895.74,-84.8 895.74,-48.8 1024.26,-48.8 1024.26,-84.8"/>
<text text-anchor="middle" x="960" y="-62.6" font-family="Times,serif" font-size="14.00">OpenapiComponent</text>
</g>
<!-- OpenapiComponent&#45;&gt;ToolsModule -->
<g id="edge8" class="edge">
<title>OpenapiComponent&#45;&gt;ToolsModule</title>
<path fill="none" stroke="black" d="M1006.33,-84.91C1006.33,-84.91 1006.33,-103.79 1006.33,-103.79"/>
<polygon fill="black" stroke="black" points="1002.83,-103.79 1006.33,-113.79 1009.83,-103.79 1002.83,-103.79"/>
</g>
<!-- RealtimeComponent -->
<g id="node9" class="node">
<title>RealtimeComponent</title>
<polygon fill="#ffffb3" stroke="black" points="877.87,-84.8 746.13,-84.8 746.13,-48.8 877.87,-48.8 877.87,-84.8"/>
<text text-anchor="middle" x="812" y="-62.6" font-family="Times,serif" font-size="14.00">RealtimeComponent</text>
</g>
<!-- RealtimeComponent&#45;&gt;ToolsModule -->
<g id="edge9" class="edge">
<title>RealtimeComponent&#45;&gt;ToolsModule</title>
<path fill="none" stroke="black" d="M812,-85.04C812,-100.37 812,-119.8 812,-119.8 812,-119.8 978.27,-119.8 978.27,-119.8"/>
<polygon fill="black" stroke="black" points="978.27,-123.3 988.27,-119.8 978.27,-116.3 978.27,-123.3"/>
</g>
<!-- RegexComponent -->
<g id="node10" class="node">
<title>RegexComponent</title>
<polygon fill="#ffffb3" stroke="black" points="728.6,-84.8 611.4,-84.8 611.4,-48.8 728.6,-48.8 728.6,-84.8"/>
<text text-anchor="middle" x="670" y="-62.6" font-family="Times,serif" font-size="14.00">RegexComponent</text>
</g>
<!-- RegexComponent&#45;&gt;ToolsModule -->
<g id="edge10" class="edge">
<title>RegexComponent&#45;&gt;ToolsModule</title>
<path fill="none" stroke="black" d="M670,-84.83C670,-101.86 670,-124.8 670,-124.8 670,-124.8 978.27,-124.8 978.27,-124.8"/>
<polygon fill="black" stroke="black" points="978.27,-128.3 988.27,-124.8 978.27,-121.3 978.27,-128.3"/>
</g>
<!-- UserInfoComponent -->
<g id="node11" class="node">
<title>UserInfoComponent</title>
<polygon fill="#ffffb3" stroke="black" points="593.59,-84.8 462.41,-84.8 462.41,-48.8 593.59,-48.8 593.59,-84.8"/>
<text text-anchor="middle" x="528" y="-62.6" font-family="Times,serif" font-size="14.00">UserInfoComponent</text>
</g>
<!-- UserInfoComponent&#45;&gt;ToolsModule -->
<g id="edge11" class="edge">
<title>UserInfoComponent&#45;&gt;ToolsModule</title>
<path fill="none" stroke="black" d="M528,-85.02C528,-103.63 528,-129.8 528,-129.8 528,-129.8 978.2,-129.8 978.2,-129.8"/>
<polygon fill="black" stroke="black" points="978.2,-133.3 988.2,-129.8 978.2,-126.3 978.2,-133.3"/>
</g>
<!-- YearCheckComponent -->
<g id="node12" class="node">
<title>YearCheckComponent</title>
<polygon fill="#ffffb3" stroke="black" points="444.3,-84.8 299.7,-84.8 299.7,-48.8 444.3,-48.8 444.3,-84.8"/>
<text text-anchor="middle" x="372" y="-62.6" font-family="Times,serif" font-size="14.00">YearCheckComponent</text>
</g>
<!-- YearCheckComponent&#45;&gt;ToolsModule -->
<g id="edge12" class="edge">
<title>YearCheckComponent&#45;&gt;ToolsModule</title>
<path fill="none" stroke="black" d="M372,-85.02C372,-105.17 372,-134.8 372,-134.8 372,-134.8 978.24,-134.8 978.24,-134.8"/>
<polygon fill="black" stroke="black" points="978.24,-138.3 988.24,-134.8 978.24,-131.3 978.24,-138.3"/>
</g>
<!-- SharedModule -->
<g id="node14" class="node">
<title>SharedModule</title>
<polygon fill="#8dd3c7" stroke="black" points="276.43,-84.8 273.43,-88.8 252.43,-88.8 249.43,-84.8 177.57,-84.8 177.57,-48.8 276.43,-48.8 276.43,-84.8"/>
<text text-anchor="middle" x="227" y="-62.6" font-family="Times,serif" font-size="14.00">SharedModule</text>
</g>
<!-- SharedModule&#45;&gt;ToolsModule -->
<g id="edge13" class="edge">
<title>SharedModule&#45;&gt;ToolsModule</title>
<path fill="none" stroke="black" d="M227,-84.84C227,-106.46 227,-139.8 227,-139.8 227,-139.8 978.01,-139.8 978.01,-139.8"/>
<polygon fill="black" stroke="black" points="978.01,-143.3 988.01,-139.8 978.01,-136.3 978.01,-143.3"/>
</g>
<!-- ToolsRoutingModule -->
<g id="node15" class="node">
<title>ToolsRoutingModule</title>
<polygon fill="#8dd3c7" stroke="black" points="160.06,-84.8 157.06,-88.8 136.06,-88.8 133.06,-84.8 23.94,-84.8 23.94,-48.8 160.06,-48.8 160.06,-84.8"/>
<text text-anchor="middle" x="92" y="-62.6" font-family="Times,serif" font-size="14.00">ToolsRoutingModule</text>
</g>
<!-- ToolsRoutingModule&#45;&gt;ToolsModule -->
<g id="edge14" class="edge">
<title>ToolsRoutingModule&#45;&gt;ToolsModule</title>
<path fill="none" stroke="black" d="M92,-84.89C92,-107.93 92,-144.8 92,-144.8 92,-144.8 978.25,-144.8 978.25,-144.8"/>
<polygon fill="black" stroke="black" points="978.25,-148.3 988.25,-144.8 978.25,-141.3 978.25,-148.3"/>
</g>
</g>
</svg>
