<?xml version="1.0" encoding="UTF-8" standalone="no"?>
<!DOCTYPE svg PUBLIC "-//W3C//DTD SVG 1.1//EN"
 "http://www.w3.org/Graphics/SVG/1.1/DTD/svg11.dtd">
<!-- Generated by graphviz version 2.47.3 (20210619.1520)
 -->
<!-- Title: dependencies Pages: 1 -->
<svg width="975pt" height="174pt"
 viewBox="0.00 0.00 975.00 173.80" xmlns="http://www.w3.org/2000/svg" xmlns:xlink="http://www.w3.org/1999/xlink">
<g id="graph0" class="graph" transform="scale(1 1) rotate(0) translate(4 169.8)">
<title>dependencies</title>
<polygon fill="white" stroke="transparent" points="-4,4 -4,-169.8 971,-169.8 971,4 -4,4"/>
<text text-anchor="middle" x="483.5" y="-8.2" font-family="sans-serif" font-size="14.00">dependencies</text>
<g id="clust1" class="cluster">
<title>cluster_ToolsModule</title>
<polygon fill="none" stroke="black" stroke-dasharray="1,5" points="8,-32.8 8,-157.8 959,-157.8 959,-32.8 8,-32.8"/>
</g>
<g id="clust2" class="cluster">
<title>cluster_ToolsModule_declarations</title>
<polygon fill="none" stroke="black" points="292,-40.8 292,-92.8 951,-92.8 951,-40.8 292,-40.8"/>
</g>
<g id="clust7" class="cluster">
<title>cluster_ToolsModule_imports</title>
<polygon fill="none" stroke="black" points="16,-40.8 16,-92.8 284,-92.8 284,-40.8 16,-40.8"/>
</g>
<!-- AmazonAssociateComponent -->
<g id="node1" class="node">
<title>AmazonAssociateComponent</title>
<polygon fill="#ffffb3" stroke="black" points="942.68,-84.8 759.32,-84.8 759.32,-48.8 942.68,-48.8 942.68,-84.8"/>
<text text-anchor="middle" x="851" y="-62.6" font-family="Times,serif" font-size="14.00">AmazonAssociateComponent</text>
</g>
<!-- ToolsModule -->
<g id="node5" class="node">
<title>ToolsModule</title>
<polygon fill="#8dd3c7" stroke="black" points="486.94,-149.8 483.94,-153.8 462.94,-153.8 459.94,-149.8 395.06,-149.8 395.06,-113.8 486.94,-113.8 486.94,-149.8"/>
<text text-anchor="middle" x="441" y="-127.6" font-family="Times,serif" font-size="14.00">ToolsModule</text>
</g>
<!-- AmazonAssociateComponent&#45;&gt;ToolsModule -->
<g id="edge1" class="edge">
<title>AmazonAssociateComponent&#45;&gt;ToolsModule</title>
<path fill="none" stroke="black" d="M851,-85.08C851,-106.12 851,-137.8 851,-137.8 851,-137.8 496.84,-137.8 496.84,-137.8"/>
<polygon fill="black" stroke="black" points="496.84,-134.3 486.84,-137.8 496.84,-141.3 496.84,-134.3"/>
</g>
<!-- JsonTyperComponent -->
<g id="node2" class="node">
<title>JsonTyperComponent</title>
<polygon fill="#ffffb3" stroke="black" points="741.65,-84.8 602.35,-84.8 602.35,-48.8 741.65,-48.8 741.65,-84.8"/>
<text text-anchor="middle" x="672" y="-62.6" font-family="Times,serif" font-size="14.00">JsonTyperComponent</text>
</g>
<!-- JsonTyperComponent&#45;&gt;ToolsModule -->
<g id="edge2" class="edge">
<title>JsonTyperComponent&#45;&gt;ToolsModule</title>
<path fill="none" stroke="black" d="M672,-84.82C672,-102.17 672,-125.8 672,-125.8 672,-125.8 496.91,-125.8 496.91,-125.8"/>
<polygon fill="black" stroke="black" points="496.91,-122.3 486.91,-125.8 496.91,-129.3 496.91,-122.3"/>
</g>
<!-- ToolsListComponent -->
<g id="node3" class="node">
<title>ToolsListComponent</title>
<polygon fill="#ffffb3" stroke="black" points="584.5,-84.8 449.5,-84.8 449.5,-48.8 584.5,-48.8 584.5,-84.8"/>
<text text-anchor="middle" x="517" y="-62.6" font-family="Times,serif" font-size="14.00">ToolsListComponent</text>
</g>
<!-- ToolsListComponent&#45;&gt;ToolsModule -->
<g id="edge3" class="edge">
<title>ToolsListComponent&#45;&gt;ToolsModule</title>
<path fill="none" stroke="black" d="M468.11,-84.91C468.11,-84.91 468.11,-103.79 468.11,-103.79"/>
<polygon fill="black" stroke="black" points="464.61,-103.79 468.11,-113.79 471.61,-103.79 464.61,-103.79"/>
</g>
<!-- UserInfoComponent -->
<g id="node4" class="node">
<title>UserInfoComponent</title>
<polygon fill="#ffffb3" stroke="black" points="431.58,-84.8 300.42,-84.8 300.42,-48.8 431.58,-48.8 431.58,-84.8"/>
<text text-anchor="middle" x="366" y="-62.6" font-family="Times,serif" font-size="14.00">UserInfoComponent</text>
</g>
<!-- UserInfoComponent&#45;&gt;ToolsModule -->
<g id="edge4" class="edge">
<title>UserInfoComponent&#45;&gt;ToolsModule</title>
<path fill="none" stroke="black" d="M413.41,-84.91C413.41,-84.91 413.41,-103.79 413.41,-103.79"/>
<polygon fill="black" stroke="black" points="409.91,-103.79 413.41,-113.79 416.91,-103.79 409.91,-103.79"/>
</g>
<!-- SharedModule -->
<g id="node6" class="node">
<title>SharedModule</title>
<polygon fill="#8dd3c7" stroke="black" points="276.42,-84.8 273.42,-88.8 252.42,-88.8 249.42,-84.8 177.58,-84.8 177.58,-48.8 276.42,-48.8 276.42,-84.8"/>
<text text-anchor="middle" x="227" y="-62.6" font-family="Times,serif" font-size="14.00">SharedModule</text>
</g>
<!-- SharedModule&#45;&gt;ToolsModule -->
<g id="edge5" class="edge">
<title>SharedModule&#45;&gt;ToolsModule</title>
<path fill="none" stroke="black" d="M227,-84.82C227,-102.17 227,-125.8 227,-125.8 227,-125.8 385.09,-125.8 385.09,-125.8"/>
<polygon fill="black" stroke="black" points="385.09,-129.3 395.09,-125.8 385.09,-122.3 385.09,-129.3"/>
</g>
<!-- ToolsRoutingModule -->
<g id="node7" class="node">
<title>ToolsRoutingModule</title>
<polygon fill="#8dd3c7" stroke="black" points="160.06,-84.8 157.06,-88.8 136.06,-88.8 133.06,-84.8 23.94,-84.8 23.94,-48.8 160.06,-48.8 160.06,-84.8"/>
<text text-anchor="middle" x="92" y="-62.6" font-family="Times,serif" font-size="14.00">ToolsRoutingModule</text>
</g>
<!-- ToolsRoutingModule&#45;&gt;ToolsModule -->
<g id="edge6" class="edge">
<title>ToolsRoutingModule&#45;&gt;ToolsModule</title>
<path fill="none" stroke="black" d="M92,-85.08C92,-106.12 92,-137.8 92,-137.8 92,-137.8 385.02,-137.8 385.02,-137.8"/>
<polygon fill="black" stroke="black" points="385.02,-141.3 395.02,-137.8 385.02,-134.3 385.02,-141.3"/>
</g>
</g>
</svg>
