<?xml version="1.0" encoding="UTF-8" standalone="no"?>
<!DOCTYPE svg PUBLIC "-//W3C//DTD SVG 1.1//EN"
 "http://www.w3.org/Graphics/SVG/1.1/DTD/svg11.dtd">
<!-- Generated by graphviz version 5.0.0 (20220707.1540)
 -->
<!-- Title: dependencies Pages: 1 -->
<svg width="2328pt" height="174pt"
 viewBox="0.00 0.00 2328.00 173.80" xmlns="http://www.w3.org/2000/svg" xmlns:xlink="http://www.w3.org/1999/xlink">
<g id="graph0" class="graph" transform="scale(1 1) rotate(0) translate(4 169.8)">
<title>dependencies</title>
<polygon fill="white" stroke="transparent" points="-4,4 -4,-169.8 2324,-169.8 2324,4 -4,4"/>
<text text-anchor="middle" x="1160" y="-8.2" font-family="sans-serif" font-size="14.00">dependencies</text>
<g id="clust1" class="cluster">
<title>cluster_ToolsModule</title>
<polygon fill="none" stroke="black" stroke-dasharray="1,5" points="8,-32.8 8,-157.8 2312,-157.8 2312,-32.8 8,-32.8"/>
</g>
<g id="clust16" class="cluster">
<title>cluster_ToolsModule_imports</title>
<polygon fill="none" stroke="black" points="2036,-40.8 2036,-92.8 2304,-92.8 2304,-40.8 2036,-40.8"/>
</g>
<g id="clust2" class="cluster">
<title>cluster_ToolsModule_declarations</title>
<polygon fill="none" stroke="black" points="16,-40.8 16,-92.8 2028,-92.8 2028,-40.8 16,-40.8"/>
</g>
<!-- AmazonAssociateComponent -->
<g id="node1" class="node">
<title>AmazonAssociateComponent</title>
<polygon fill="#ffffb3" stroke="black" points="2019.69,-84.8 1836.31,-84.8 1836.31,-48.8 2019.69,-48.8 2019.69,-84.8"/>
<text text-anchor="middle" x="1928" y="-62.6" font-family="Times,serif" font-size="14.00">AmazonAssociateComponent</text>
</g>
<!-- ToolsModule -->
<g id="node14" class="node">
<title>ToolsModule</title>
<polygon fill="#8dd3c7" stroke="black" points="1178.94,-149.8 1175.94,-153.8 1154.94,-153.8 1151.94,-149.8 1087.06,-149.8 1087.06,-113.8 1178.94,-113.8 1178.94,-149.8"/>
<text text-anchor="middle" x="1133" y="-127.6" font-family="Times,serif" font-size="14.00">ToolsModule</text>
</g>
<!-- AmazonAssociateComponent&#45;&gt;ToolsModule -->
<g id="edge1" class="edge">
<title>AmazonAssociateComponent&#45;&gt;ToolsModule</title>
<path fill="none" stroke="black" d="M1928,-84.83C1928,-105.57 1928,-136.8 1928,-136.8 1928,-136.8 1188.89,-136.8 1188.89,-136.8"/>
<polygon fill="black" stroke="black" points="1188.89,-133.3 1178.89,-136.8 1188.89,-140.3 1188.89,-133.3"/>
</g>
<!-- Base64Component -->
<g id="node2" class="node">
<title>Base64Component</title>
<polygon fill="#ffffb3" stroke="black" points="1818.05,-84.8 1695.95,-84.8 1695.95,-48.8 1818.05,-48.8 1818.05,-84.8"/>
<text text-anchor="middle" x="1757" y="-62.6" font-family="Times,serif" font-size="14.00">Base64Component</text>
</g>
<!-- Base64Component&#45;&gt;ToolsModule -->
<g id="edge2" class="edge">
<title>Base64Component&#45;&gt;ToolsModule</title>
<path fill="none" stroke="black" d="M1757,-84.91C1757,-104.14 1757,-131.8 1757,-131.8 1757,-131.8 1188.88,-131.8 1188.88,-131.8"/>
<polygon fill="black" stroke="black" points="1188.88,-128.3 1178.88,-131.8 1188.88,-135.3 1188.88,-128.3"/>
</g>
<!-- FxCalcComponent -->
<g id="node3" class="node">
<title>FxCalcComponent</title>
<polygon fill="#ffffb3" stroke="black" points="1677.77,-84.8 1556.23,-84.8 1556.23,-48.8 1677.77,-48.8 1677.77,-84.8"/>
<text text-anchor="middle" x="1617" y="-62.6" font-family="Times,serif" font-size="14.00">FxCalcComponent</text>
</g>
<!-- FxCalcComponent&#45;&gt;ToolsModule -->
<g id="edge3" class="edge">
<title>FxCalcComponent&#45;&gt;ToolsModule</title>
<path fill="none" stroke="black" d="M1617,-85.1C1617,-103.07 1617,-127.8 1617,-127.8 1617,-127.8 1188.97,-127.8 1188.97,-127.8"/>
<polygon fill="black" stroke="black" points="1188.97,-124.3 1178.97,-127.8 1188.97,-131.3 1188.97,-124.3"/>
</g>
<!-- JsonFormatterComponent -->
<g id="node4" class="node">
<title>JsonFormatterComponent</title>
<polygon fill="#ffffb3" stroke="black" points="1537.94,-84.8 1376.06,-84.8 1376.06,-48.8 1537.94,-48.8 1537.94,-84.8"/>
<text text-anchor="middle" x="1457" y="-62.6" font-family="Times,serif" font-size="14.00">JsonFormatterComponent</text>
</g>
<!-- JsonFormatterComponent&#45;&gt;ToolsModule -->
<g id="edge4" class="edge">
<title>JsonFormatterComponent&#45;&gt;ToolsModule</title>
<path fill="none" stroke="black" d="M1457,-84.83C1457,-101.2 1457,-122.8 1457,-122.8 1457,-122.8 1188.73,-122.8 1188.73,-122.8"/>
<polygon fill="black" stroke="black" points="1188.73,-119.3 1178.73,-122.8 1188.73,-126.3 1188.73,-119.3"/>
</g>
<!-- JsonTyperComponent -->
<g id="node5" class="node">
<title>JsonTyperComponent</title>
<polygon fill="#ffffb3" stroke="black" points="1357.66,-84.8 1218.34,-84.8 1218.34,-48.8 1357.66,-48.8 1357.66,-84.8"/>
<text text-anchor="middle" x="1288" y="-62.6" font-family="Times,serif" font-size="14.00">JsonTyperComponent</text>
</g>
<!-- JsonTyperComponent&#45;&gt;ToolsModule -->
<g id="edge5" class="edge">
<title>JsonTyperComponent&#45;&gt;ToolsModule</title>
<path fill="none" stroke="black" d="M1288,-84.99C1288,-99.98 1288,-118.8 1288,-118.8 1288,-118.8 1189.09,-118.8 1189.09,-118.8"/>
<polygon fill="black" stroke="black" points="1189.09,-115.3 1179.09,-118.8 1189.09,-122.3 1189.09,-115.3"/>
</g>
<!-- MdwriterComponent -->
<g id="node6" class="node">
<title>MdwriterComponent</title>
<polygon fill="#ffffb3" stroke="black" points="1200.21,-84.8 1065.79,-84.8 1065.79,-48.8 1200.21,-48.8 1200.21,-84.8"/>
<text text-anchor="middle" x="1133" y="-62.6" font-family="Times,serif" font-size="14.00">MdwriterComponent</text>
</g>
<!-- MdwriterComponent&#45;&gt;ToolsModule -->
<g id="edge6" class="edge">
<title>MdwriterComponent&#45;&gt;ToolsModule</title>
<path fill="none" stroke="black" d="M1133,-84.91C1133,-84.91 1133,-103.79 1133,-103.79"/>
<polygon fill="black" stroke="black" points="1129.5,-103.79 1133,-113.79 1136.5,-103.79 1129.5,-103.79"/>
</g>
<!-- MermaidComponent -->
<g id="node7" class="node">
<title>MermaidComponent</title>
<polygon fill="#ffffb3" stroke="black" points="1048.15,-84.8 915.85,-84.8 915.85,-48.8 1048.15,-48.8 1048.15,-84.8"/>
<text text-anchor="middle" x="982" y="-62.6" font-family="Times,serif" font-size="14.00">MermaidComponent</text>
</g>
<!-- MermaidComponent&#45;&gt;ToolsModule -->
<g id="edge7" class="edge">
<title>MermaidComponent&#45;&gt;ToolsModule</title>
<path fill="none" stroke="black" d="M982,-84.99C982,-99.98 982,-118.8 982,-118.8 982,-118.8 1076.87,-118.8 1076.87,-118.8"/>
<polygon fill="black" stroke="black" points="1076.87,-122.3 1086.87,-118.8 1076.87,-115.3 1076.87,-122.3"/>
</g>
<!-- OpenapiComponent -->
<g id="node8" class="node">
<title>OpenapiComponent</title>
<polygon fill="#ffffb3" stroke="black" points="897.26,-84.8 768.74,-84.8 768.74,-48.8 897.26,-48.8 897.26,-84.8"/>
<text text-anchor="middle" x="833" y="-62.6" font-family="Times,serif" font-size="14.00">OpenapiComponent</text>
</g>
<!-- OpenapiComponent&#45;&gt;ToolsModule -->
<g id="edge8" class="edge">
<title>OpenapiComponent&#45;&gt;ToolsModule</title>
<path fill="none" stroke="black" d="M833,-84.83C833,-101.2 833,-122.8 833,-122.8 833,-122.8 1077.11,-122.8 1077.11,-122.8"/>
<polygon fill="black" stroke="black" points="1077.11,-126.3 1087.11,-122.8 1077.11,-119.3 1077.11,-126.3"/>
</g>
<!-- RealtimeComponent -->
<g id="node9" class="node">
<title>RealtimeComponent</title>
<polygon fill="#ffffb3" stroke="black" points="750.87,-84.8 619.13,-84.8 619.13,-48.8 750.87,-48.8 750.87,-84.8"/>
<text text-anchor="middle" x="685" y="-62.6" font-family="Times,serif" font-size="14.00">RealtimeComponent</text>
</g>
<!-- RealtimeComponent&#45;&gt;ToolsModule -->
<g id="edge9" class="edge">
<title>RealtimeComponent&#45;&gt;ToolsModule</title>
<path fill="none" stroke="black" d="M685,-85.1C685,-103.07 685,-127.8 685,-127.8 685,-127.8 1077.16,-127.8 1077.16,-127.8"/>
<polygon fill="black" stroke="black" points="1077.16,-131.3 1087.16,-127.8 1077.16,-124.3 1077.16,-131.3"/>
</g>
<!-- RegexComponent -->
<g id="node10" class="node">
<title>RegexComponent</title>
<polygon fill="#ffffb3" stroke="black" points="601.6,-84.8 484.4,-84.8 484.4,-48.8 601.6,-48.8 601.6,-84.8"/>
<text text-anchor="middle" x="543" y="-62.6" font-family="Times,serif" font-size="14.00">RegexComponent</text>
</g>
<!-- RegexComponent&#45;&gt;ToolsModule -->
<g id="edge10" class="edge">
<title>RegexComponent&#45;&gt;ToolsModule</title>
<path fill="none" stroke="black" d="M543,-84.91C543,-104.14 543,-131.8 543,-131.8 543,-131.8 1077.19,-131.8 1077.19,-131.8"/>
<polygon fill="black" stroke="black" points="1077.19,-135.3 1087.19,-131.8 1077.19,-128.3 1077.19,-135.3"/>
</g>
<!-- StarNoteComponent -->
<g id="node11" class="node">
<title>StarNoteComponent</title>
<polygon fill="#ffffb3" stroke="black" points="466.6,-84.8 335.4,-84.8 335.4,-48.8 466.6,-48.8 466.6,-84.8"/>
<text text-anchor="middle" x="401" y="-62.6" font-family="Times,serif" font-size="14.00">StarNoteComponent</text>
</g>
<!-- StarNoteComponent&#45;&gt;ToolsModule -->
<g id="edge11" class="edge">
<title>StarNoteComponent&#45;&gt;ToolsModule</title>
<path fill="none" stroke="black" d="M401,-84.83C401,-105.57 401,-136.8 401,-136.8 401,-136.8 1077.21,-136.8 1077.21,-136.8"/>
<polygon fill="black" stroke="black" points="1077.21,-140.3 1087.21,-136.8 1077.21,-133.3 1077.21,-140.3"/>
</g>
<!-- UserInfoComponent -->
<g id="node12" class="node">
<title>UserInfoComponent</title>
<polygon fill="#ffffb3" stroke="black" points="317.59,-84.8 186.41,-84.8 186.41,-48.8 317.59,-48.8 317.59,-84.8"/>
<text text-anchor="middle" x="252" y="-62.6" font-family="Times,serif" font-size="14.00">UserInfoComponent</text>
</g>
<!-- UserInfoComponent&#45;&gt;ToolsModule -->
<g id="edge12" class="edge">
<title>UserInfoComponent&#45;&gt;ToolsModule</title>
<path fill="none" stroke="black" d="M252,-85.09C252,-107.01 252,-140.8 252,-140.8 252,-140.8 1077.18,-140.8 1077.18,-140.8"/>
<polygon fill="black" stroke="black" points="1077.18,-144.3 1087.18,-140.8 1077.18,-137.3 1077.18,-144.3"/>
</g>
<!-- YearCheckComponent -->
<g id="node13" class="node">
<title>YearCheckComponent</title>
<polygon fill="#ffffb3" stroke="black" points="168.3,-84.8 23.7,-84.8 23.7,-48.8 168.3,-48.8 168.3,-84.8"/>
<text text-anchor="middle" x="96" y="-62.6" font-family="Times,serif" font-size="14.00">YearCheckComponent</text>
</g>
<!-- YearCheckComponent&#45;&gt;ToolsModule -->
<g id="edge13" class="edge">
<title>YearCheckComponent&#45;&gt;ToolsModule</title>
<path fill="none" stroke="black" d="M96,-85.12C96,-108.46 96,-145.8 96,-145.8 96,-145.8 1077.1,-145.8 1077.1,-145.8"/>
<polygon fill="black" stroke="black" points="1077.1,-149.3 1087.1,-145.8 1077.1,-142.3 1077.1,-149.3"/>
</g>
<!-- SharedModule -->
<g id="node15" class="node">
<title>SharedModule</title>
<polygon fill="#8dd3c7" stroke="black" points="2296.43,-84.8 2293.43,-88.8 2272.43,-88.8 2269.43,-84.8 2197.57,-84.8 2197.57,-48.8 2296.43,-48.8 2296.43,-84.8"/>
<text text-anchor="middle" x="2247" y="-62.6" font-family="Times,serif" font-size="14.00">SharedModule</text>
</g>
<!-- SharedModule&#45;&gt;ToolsModule -->
<g id="edge14" class="edge">
<title>SharedModule&#45;&gt;ToolsModule</title>
<path fill="none" stroke="black" d="M2247,-85.12C2247,-108.46 2247,-145.8 2247,-145.8 2247,-145.8 1188.75,-145.8 1188.75,-145.8"/>
<polygon fill="black" stroke="black" points="1188.75,-142.3 1178.75,-145.8 1188.75,-149.3 1188.75,-142.3"/>
</g>
<!-- ToolsRoutingModule -->
<g id="node16" class="node">
<title>ToolsRoutingModule</title>
<polygon fill="#8dd3c7" stroke="black" points="2180.06,-84.8 2177.06,-88.8 2156.06,-88.8 2153.06,-84.8 2043.94,-84.8 2043.94,-48.8 2180.06,-48.8 2180.06,-84.8"/>
<text text-anchor="middle" x="2112" y="-62.6" font-family="Times,serif" font-size="14.00">ToolsRoutingModule</text>
</g>
<!-- ToolsRoutingModule&#45;&gt;ToolsModule -->
<g id="edge15" class="edge">
<title>ToolsRoutingModule&#45;&gt;ToolsModule</title>
<path fill="none" stroke="black" d="M2112,-85.09C2112,-107.01 2112,-140.8 2112,-140.8 2112,-140.8 1188.91,-140.8 1188.91,-140.8"/>
<polygon fill="black" stroke="black" points="1188.91,-137.3 1178.91,-140.8 1188.91,-144.3 1188.91,-137.3"/>
</g>
</g>
</svg>
