<?xml version="1.0" encoding="UTF-8" standalone="no"?>
<!DOCTYPE svg PUBLIC "-//W3C//DTD SVG 1.1//EN"
 "http://www.w3.org/Graphics/SVG/1.1/DTD/svg11.dtd">
<!-- Generated by graphviz version 2.47.3 (20210619.1520)
 -->
<!-- Title: dependencies Pages: 1 -->
<svg width="616pt" height="174pt"
 viewBox="0.00 0.00 616.00 173.80" xmlns="http://www.w3.org/2000/svg" xmlns:xlink="http://www.w3.org/1999/xlink">
<g id="graph0" class="graph" transform="scale(1 1) rotate(0) translate(4 169.8)">
<title>dependencies</title>
<polygon fill="white" stroke="transparent" points="-4,4 -4,-169.8 612,-169.8 612,4 -4,4"/>
<text text-anchor="middle" x="304" y="-8.2" font-family="sans-serif" font-size="14.00">dependencies</text>
<g id="clust1" class="cluster">
<title>cluster_ToolsModule</title>
<polygon fill="none" stroke="black" stroke-dasharray="1,5" points="8,-32.8 8,-157.8 600,-157.8 600,-32.8 8,-32.8"/>
</g>
<g id="clust2" class="cluster">
<title>cluster_ToolsModule_declarations</title>
<polygon fill="none" stroke="black" points="292,-40.8 292,-92.8 592,-92.8 592,-40.8 292,-40.8"/>
</g>
<g id="clust5" class="cluster">
<title>cluster_ToolsModule_imports</title>
<polygon fill="none" stroke="black" points="16,-40.8 16,-92.8 284,-92.8 284,-40.8 16,-40.8"/>
</g>
<!-- ToolsListComponent -->
<g id="node1" class="node">
<title>ToolsListComponent</title>
<polygon fill="#ffffb3" stroke="black" points="584.5,-84.8 449.5,-84.8 449.5,-48.8 584.5,-48.8 584.5,-84.8"/>
<text text-anchor="middle" x="517" y="-62.6" font-family="Times,serif" font-size="14.00">ToolsListComponent</text>
</g>
<!-- ToolsModule -->
<g id="node3" class="node">
<title>ToolsModule</title>
<polygon fill="#8dd3c7" stroke="black" points="341.94,-149.8 338.94,-153.8 317.94,-153.8 314.94,-149.8 250.06,-149.8 250.06,-113.8 341.94,-113.8 341.94,-149.8"/>
<text text-anchor="middle" x="296" y="-127.6" font-family="Times,serif" font-size="14.00">ToolsModule</text>
</g>
<!-- ToolsListComponent&#45;&gt;ToolsModule -->
<g id="edge1" class="edge">
<title>ToolsListComponent&#45;&gt;ToolsModule</title>
<path fill="none" stroke="black" d="M517,-84.91C517,-104.14 517,-131.8 517,-131.8 517,-131.8 351.79,-131.8 351.79,-131.8"/>
<polygon fill="black" stroke="black" points="351.79,-128.3 341.79,-131.8 351.79,-135.3 351.79,-128.3"/>
</g>
<!-- UserInfoComponent -->
<g id="node2" class="node">
<title>UserInfoComponent</title>
<polygon fill="#ffffb3" stroke="black" points="431.58,-84.8 300.42,-84.8 300.42,-48.8 431.58,-48.8 431.58,-84.8"/>
<text text-anchor="middle" x="366" y="-62.6" font-family="Times,serif" font-size="14.00">UserInfoComponent</text>
</g>
<!-- UserInfoComponent&#45;&gt;ToolsModule -->
<g id="edge2" class="edge">
<title>UserInfoComponent&#45;&gt;ToolsModule</title>
<path fill="none" stroke="black" d="M321.09,-84.91C321.09,-84.91 321.09,-103.79 321.09,-103.79"/>
<polygon fill="black" stroke="black" points="317.59,-103.79 321.09,-113.79 324.59,-103.79 317.59,-103.79"/>
</g>
<!-- SharedModule -->
<g id="node4" class="node">
<title>SharedModule</title>
<polygon fill="#8dd3c7" stroke="black" points="276.42,-84.8 273.42,-88.8 252.42,-88.8 249.42,-84.8 177.58,-84.8 177.58,-48.8 276.42,-48.8 276.42,-84.8"/>
<text text-anchor="middle" x="227" y="-62.6" font-family="Times,serif" font-size="14.00">SharedModule</text>
</g>
<!-- SharedModule&#45;&gt;ToolsModule -->
<g id="edge3" class="edge">
<title>SharedModule&#45;&gt;ToolsModule</title>
<path fill="none" stroke="black" d="M263.25,-84.91C263.25,-84.91 263.25,-103.79 263.25,-103.79"/>
<polygon fill="black" stroke="black" points="259.75,-103.79 263.25,-113.79 266.75,-103.79 259.75,-103.79"/>
</g>
<!-- ToolsRoutingModule -->
<g id="node5" class="node">
<title>ToolsRoutingModule</title>
<polygon fill="#8dd3c7" stroke="black" points="160.06,-84.8 157.06,-88.8 136.06,-88.8 133.06,-84.8 23.94,-84.8 23.94,-48.8 160.06,-48.8 160.06,-84.8"/>
<text text-anchor="middle" x="92" y="-62.6" font-family="Times,serif" font-size="14.00">ToolsRoutingModule</text>
</g>
<!-- ToolsRoutingModule&#45;&gt;ToolsModule -->
<g id="edge4" class="edge">
<title>ToolsRoutingModule&#45;&gt;ToolsModule</title>
<path fill="none" stroke="black" d="M92,-84.91C92,-104.14 92,-131.8 92,-131.8 92,-131.8 240.22,-131.8 240.22,-131.8"/>
<polygon fill="black" stroke="black" points="240.22,-135.3 250.22,-131.8 240.22,-128.3 240.22,-135.3"/>
</g>
</g>
</svg>
