<?xml version="1.0" encoding="UTF-8" standalone="no"?>
<!DOCTYPE svg PUBLIC "-//W3C//DTD SVG 1.1//EN"
 "http://www.w3.org/Graphics/SVG/1.1/DTD/svg11.dtd">
<!-- Generated by graphviz version 2.47.3 (20210619.1520)
 -->
<!-- Title: dependencies Pages: 1 -->
<svg width="1895pt" height="174pt"
 viewBox="0.00 0.00 1895.00 173.80" xmlns="http://www.w3.org/2000/svg" xmlns:xlink="http://www.w3.org/1999/xlink">
<g id="graph0" class="graph" transform="scale(1 1) rotate(0) translate(4 169.8)">
<title>dependencies</title>
<polygon fill="white" stroke="transparent" points="-4,4 -4,-169.8 1891,-169.8 1891,4 -4,4"/>
<text text-anchor="middle" x="943.5" y="-8.2" font-family="sans-serif" font-size="14.00">dependencies</text>
<g id="clust1" class="cluster">
<title>cluster_ToolsModule</title>
<polygon fill="none" stroke="black" stroke-dasharray="1,5" points="8,-32.8 8,-157.8 1879,-157.8 1879,-32.8 8,-32.8"/>
</g>
<g id="clust13" class="cluster">
<title>cluster_ToolsModule_imports</title>
<polygon fill="none" stroke="black" points="1603,-40.8 1603,-92.8 1871,-92.8 1871,-40.8 1603,-40.8"/>
</g>
<g id="clust2" class="cluster">
<title>cluster_ToolsModule_declarations</title>
<polygon fill="none" stroke="black" points="16,-40.8 16,-92.8 1595,-92.8 1595,-40.8 16,-40.8"/>
</g>
<!-- AmazonAssociateComponent -->
<g id="node1" class="node">
<title>AmazonAssociateComponent</title>
<polygon fill="#ffffb3" stroke="black" points="1586.68,-84.8 1403.32,-84.8 1403.32,-48.8 1586.68,-48.8 1586.68,-84.8"/>
<text text-anchor="middle" x="1495" y="-62.6" font-family="Times,serif" font-size="14.00">AmazonAssociateComponent</text>
</g>
<!-- ToolsModule -->
<g id="node11" class="node">
<title>ToolsModule</title>
<polygon fill="#8dd3c7" stroke="black" points="962.94,-149.8 959.94,-153.8 938.94,-153.8 935.94,-149.8 871.06,-149.8 871.06,-113.8 962.94,-113.8 962.94,-149.8"/>
<text text-anchor="middle" x="917" y="-127.6" font-family="Times,serif" font-size="14.00">ToolsModule</text>
</g>
<!-- AmazonAssociateComponent&#45;&gt;ToolsModule -->
<g id="edge1" class="edge">
<title>AmazonAssociateComponent&#45;&gt;ToolsModule</title>
<path fill="none" stroke="black" d="M1495,-84.91C1495,-104.14 1495,-131.8 1495,-131.8 1495,-131.8 972.84,-131.8 972.84,-131.8"/>
<polygon fill="black" stroke="black" points="972.84,-128.3 962.84,-131.8 972.84,-135.3 972.84,-128.3"/>
</g>
<!-- Base64Component -->
<g id="node2" class="node">
<title>Base64Component</title>
<polygon fill="#ffffb3" stroke="black" points="1385.04,-84.8 1262.96,-84.8 1262.96,-48.8 1385.04,-48.8 1385.04,-84.8"/>
<text text-anchor="middle" x="1324" y="-62.6" font-family="Times,serif" font-size="14.00">Base64Component</text>
</g>
<!-- Base64Component&#45;&gt;ToolsModule -->
<g id="edge2" class="edge">
<title>Base64Component&#45;&gt;ToolsModule</title>
<path fill="none" stroke="black" d="M1324,-84.82C1324,-102.17 1324,-125.8 1324,-125.8 1324,-125.8 972.9,-125.8 972.9,-125.8"/>
<polygon fill="black" stroke="black" points="972.9,-122.3 962.9,-125.8 972.9,-129.3 972.9,-122.3"/>
</g>
<!-- JsonFormatterComponent -->
<g id="node3" class="node">
<title>JsonFormatterComponent</title>
<polygon fill="#ffffb3" stroke="black" points="1244.93,-84.8 1083.07,-84.8 1083.07,-48.8 1244.93,-48.8 1244.93,-84.8"/>
<text text-anchor="middle" x="1164" y="-62.6" font-family="Times,serif" font-size="14.00">JsonFormatterComponent</text>
</g>
<!-- JsonFormatterComponent&#45;&gt;ToolsModule -->
<g id="edge3" class="edge">
<title>JsonFormatterComponent&#45;&gt;ToolsModule</title>
<path fill="none" stroke="black" d="M1164,-85.04C1164,-100.37 1164,-119.8 1164,-119.8 1164,-119.8 972.88,-119.8 972.88,-119.8"/>
<polygon fill="black" stroke="black" points="972.88,-116.3 962.88,-119.8 972.88,-123.3 972.88,-116.3"/>
</g>
<!-- JsonTyperComponent -->
<g id="node4" class="node">
<title>JsonTyperComponent</title>
<polygon fill="#ffffb3" stroke="black" points="1064.65,-84.8 925.35,-84.8 925.35,-48.8 1064.65,-48.8 1064.65,-84.8"/>
<text text-anchor="middle" x="995" y="-62.6" font-family="Times,serif" font-size="14.00">JsonTyperComponent</text>
</g>
<!-- JsonTyperComponent&#45;&gt;ToolsModule -->
<g id="edge4" class="edge">
<title>JsonTyperComponent&#45;&gt;ToolsModule</title>
<path fill="none" stroke="black" d="M943.95,-84.91C943.95,-84.91 943.95,-103.79 943.95,-103.79"/>
<polygon fill="black" stroke="black" points="940.45,-103.79 943.95,-113.79 947.45,-103.79 940.45,-103.79"/>
</g>
<!-- MdwriterComponent -->
<g id="node5" class="node">
<title>MdwriterComponent</title>
<polygon fill="#ffffb3" stroke="black" points="907.2,-84.8 772.8,-84.8 772.8,-48.8 907.2,-48.8 907.2,-84.8"/>
<text text-anchor="middle" x="840" y="-62.6" font-family="Times,serif" font-size="14.00">MdwriterComponent</text>
</g>
<!-- MdwriterComponent&#45;&gt;ToolsModule -->
<g id="edge5" class="edge">
<title>MdwriterComponent&#45;&gt;ToolsModule</title>
<path fill="none" stroke="black" d="M889.19,-84.91C889.19,-84.91 889.19,-103.79 889.19,-103.79"/>
<polygon fill="black" stroke="black" points="885.69,-103.79 889.19,-113.79 892.69,-103.79 885.69,-103.79"/>
</g>
<!-- RealtimeComponent -->
<g id="node6" class="node">
<title>RealtimeComponent</title>
<polygon fill="#ffffb3" stroke="black" points="754.88,-84.8 623.12,-84.8 623.12,-48.8 754.88,-48.8 754.88,-84.8"/>
<text text-anchor="middle" x="689" y="-62.6" font-family="Times,serif" font-size="14.00">RealtimeComponent</text>
</g>
<!-- RealtimeComponent&#45;&gt;ToolsModule -->
<g id="edge6" class="edge">
<title>RealtimeComponent&#45;&gt;ToolsModule</title>
<path fill="none" stroke="black" d="M689,-85.04C689,-100.37 689,-119.8 689,-119.8 689,-119.8 861.14,-119.8 861.14,-119.8"/>
<polygon fill="black" stroke="black" points="861.14,-123.3 871.14,-119.8 861.14,-116.3 861.14,-123.3"/>
</g>
<!-- RegexComponent -->
<g id="node7" class="node">
<title>RegexComponent</title>
<polygon fill="#ffffb3" stroke="black" points="605.6,-84.8 488.4,-84.8 488.4,-48.8 605.6,-48.8 605.6,-84.8"/>
<text text-anchor="middle" x="547" y="-62.6" font-family="Times,serif" font-size="14.00">RegexComponent</text>
</g>
<!-- RegexComponent&#45;&gt;ToolsModule -->
<g id="edge7" class="edge">
<title>RegexComponent&#45;&gt;ToolsModule</title>
<path fill="none" stroke="black" d="M547,-84.82C547,-102.17 547,-125.8 547,-125.8 547,-125.8 861.26,-125.8 861.26,-125.8"/>
<polygon fill="black" stroke="black" points="861.26,-129.3 871.26,-125.8 861.26,-122.3 861.26,-129.3"/>
</g>
<!-- ToolsListComponent -->
<g id="node8" class="node">
<title>ToolsListComponent</title>
<polygon fill="#ffffb3" stroke="black" points="470.5,-84.8 335.5,-84.8 335.5,-48.8 470.5,-48.8 470.5,-84.8"/>
<text text-anchor="middle" x="403" y="-62.6" font-family="Times,serif" font-size="14.00">ToolsListComponent</text>
</g>
<!-- ToolsListComponent&#45;&gt;ToolsModule -->
<g id="edge8" class="edge">
<title>ToolsListComponent&#45;&gt;ToolsModule</title>
<path fill="none" stroke="black" d="M403,-84.91C403,-104.14 403,-131.8 403,-131.8 403,-131.8 860.93,-131.8 860.93,-131.8"/>
<polygon fill="black" stroke="black" points="860.93,-135.3 870.93,-131.8 860.93,-128.3 860.93,-135.3"/>
</g>
<!-- UserInfoComponent -->
<g id="node9" class="node">
<title>UserInfoComponent</title>
<polygon fill="#ffffb3" stroke="black" points="317.58,-84.8 186.42,-84.8 186.42,-48.8 317.58,-48.8 317.58,-84.8"/>
<text text-anchor="middle" x="252" y="-62.6" font-family="Times,serif" font-size="14.00">UserInfoComponent</text>
</g>
<!-- UserInfoComponent&#45;&gt;ToolsModule -->
<g id="edge9" class="edge">
<title>UserInfoComponent&#45;&gt;ToolsModule</title>
<path fill="none" stroke="black" d="M252,-85.08C252,-106.12 252,-137.8 252,-137.8 252,-137.8 861.03,-137.8 861.03,-137.8"/>
<polygon fill="black" stroke="black" points="861.03,-141.3 871.03,-137.8 861.03,-134.3 861.03,-141.3"/>
</g>
<!-- YearCheckComponent -->
<g id="node10" class="node">
<title>YearCheckComponent</title>
<polygon fill="#ffffb3" stroke="black" points="168.29,-84.8 23.71,-84.8 23.71,-48.8 168.29,-48.8 168.29,-84.8"/>
<text text-anchor="middle" x="96" y="-62.6" font-family="Times,serif" font-size="14.00">YearCheckComponent</text>
</g>
<!-- YearCheckComponent&#45;&gt;ToolsModule -->
<g id="edge10" class="edge">
<title>YearCheckComponent&#45;&gt;ToolsModule</title>
<path fill="none" stroke="black" d="M96,-84.89C96,-107.93 96,-144.8 96,-144.8 96,-144.8 861.1,-144.8 861.1,-144.8"/>
<polygon fill="black" stroke="black" points="861.1,-148.3 871.1,-144.8 861.1,-141.3 861.1,-148.3"/>
</g>
<!-- SharedModule -->
<g id="node12" class="node">
<title>SharedModule</title>
<polygon fill="#8dd3c7" stroke="black" points="1863.42,-84.8 1860.42,-88.8 1839.42,-88.8 1836.42,-84.8 1764.58,-84.8 1764.58,-48.8 1863.42,-48.8 1863.42,-84.8"/>
<text text-anchor="middle" x="1814" y="-62.6" font-family="Times,serif" font-size="14.00">SharedModule</text>
</g>
<!-- SharedModule&#45;&gt;ToolsModule -->
<g id="edge11" class="edge">
<title>SharedModule&#45;&gt;ToolsModule</title>
<path fill="none" stroke="black" d="M1814,-84.89C1814,-107.93 1814,-144.8 1814,-144.8 1814,-144.8 973.03,-144.8 973.03,-144.8"/>
<polygon fill="black" stroke="black" points="973.03,-141.3 963.03,-144.8 973.03,-148.3 973.03,-141.3"/>
</g>
<!-- ToolsRoutingModule -->
<g id="node13" class="node">
<title>ToolsRoutingModule</title>
<polygon fill="#8dd3c7" stroke="black" points="1747.06,-84.8 1744.06,-88.8 1723.06,-88.8 1720.06,-84.8 1610.94,-84.8 1610.94,-48.8 1747.06,-48.8 1747.06,-84.8"/>
<text text-anchor="middle" x="1679" y="-62.6" font-family="Times,serif" font-size="14.00">ToolsRoutingModule</text>
</g>
<!-- ToolsRoutingModule&#45;&gt;ToolsModule -->
<g id="edge12" class="edge">
<title>ToolsRoutingModule&#45;&gt;ToolsModule</title>
<path fill="none" stroke="black" d="M1679,-85.08C1679,-106.12 1679,-137.8 1679,-137.8 1679,-137.8 972.95,-137.8 972.95,-137.8"/>
<polygon fill="black" stroke="black" points="972.95,-134.3 962.95,-137.8 972.95,-141.3 972.95,-134.3"/>
</g>
</g>
</svg>
