<?xml version="1.0" encoding="UTF-8" standalone="no"?>
<!DOCTYPE svg PUBLIC "-//W3C//DTD SVG 1.1//EN"
 "http://www.w3.org/Graphics/SVG/1.1/DTD/svg11.dtd">
<!-- Generated by graphviz version 2.47.3 (20210619.1520)
 -->
<!-- Title: dependencies Pages: 1 -->
<svg width="466pt" height="174pt"
 viewBox="0.00 0.00 466.00 173.80" xmlns="http://www.w3.org/2000/svg" xmlns:xlink="http://www.w3.org/1999/xlink">
<g id="graph0" class="graph" transform="scale(1 1) rotate(0) translate(4 169.8)">
<title>dependencies</title>
<polygon fill="white" stroke="transparent" points="-4,4 -4,-169.8 462,-169.8 462,4 -4,4"/>
<text text-anchor="middle" x="229" y="-8.2" font-family="sans-serif" font-size="14.00">dependencies</text>
<g id="clust1" class="cluster">
<title>cluster_ToolsModule</title>
<polygon fill="none" stroke="black" stroke-dasharray="1,5" points="8,-32.8 8,-157.8 450,-157.8 450,-32.8 8,-32.8"/>
</g>
<g id="clust4" class="cluster">
<title>cluster_ToolsModule_imports</title>
<polygon fill="none" stroke="black" points="174,-40.8 174,-92.8 442,-92.8 442,-40.8 174,-40.8"/>
</g>
<g id="clust2" class="cluster">
<title>cluster_ToolsModule_declarations</title>
<polygon fill="none" stroke="black" points="16,-40.8 16,-92.8 166,-92.8 166,-40.8 16,-40.8"/>
</g>
<!-- ToolsListComponent -->
<g id="node1" class="node">
<title>ToolsListComponent</title>
<polygon fill="#ffffb3" stroke="black" points="158.5,-84.8 23.5,-84.8 23.5,-48.8 158.5,-48.8 158.5,-84.8"/>
<text text-anchor="middle" x="91" y="-62.6" font-family="Times,serif" font-size="14.00">ToolsListComponent</text>
</g>
<!-- ToolsModule -->
<g id="node2" class="node">
<title>ToolsModule</title>
<polygon fill="#8dd3c7" stroke="black" points="295.94,-149.8 292.94,-153.8 271.94,-153.8 268.94,-149.8 204.06,-149.8 204.06,-113.8 295.94,-113.8 295.94,-149.8"/>
<text text-anchor="middle" x="250" y="-127.6" font-family="Times,serif" font-size="14.00">ToolsModule</text>
</g>
<!-- ToolsListComponent&#45;&gt;ToolsModule -->
<g id="edge1" class="edge">
<title>ToolsListComponent&#45;&gt;ToolsModule</title>
<path fill="none" stroke="black" d="M91,-84.91C91,-104.14 91,-131.8 91,-131.8 91,-131.8 194.01,-131.8 194.01,-131.8"/>
<polygon fill="black" stroke="black" points="194.01,-135.3 204.01,-131.8 194.01,-128.3 194.01,-135.3"/>
</g>
<!-- SharedModule -->
<g id="node3" class="node">
<title>SharedModule</title>
<polygon fill="#8dd3c7" stroke="black" points="434.42,-84.8 431.42,-88.8 410.42,-88.8 407.42,-84.8 335.58,-84.8 335.58,-48.8 434.42,-48.8 434.42,-84.8"/>
<text text-anchor="middle" x="385" y="-62.6" font-family="Times,serif" font-size="14.00">SharedModule</text>
</g>
<!-- SharedModule&#45;&gt;ToolsModule -->
<g id="edge2" class="edge">
<title>SharedModule&#45;&gt;ToolsModule</title>
<path fill="none" stroke="black" d="M385,-84.91C385,-104.14 385,-131.8 385,-131.8 385,-131.8 306.08,-131.8 306.08,-131.8"/>
<polygon fill="black" stroke="black" points="306.08,-128.3 296.08,-131.8 306.08,-135.3 306.08,-128.3"/>
</g>
<!-- ToolsRoutingModule -->
<g id="node4" class="node">
<title>ToolsRoutingModule</title>
<polygon fill="#8dd3c7" stroke="black" points="318.06,-84.8 315.06,-88.8 294.06,-88.8 291.06,-84.8 181.94,-84.8 181.94,-48.8 318.06,-48.8 318.06,-84.8"/>
<text text-anchor="middle" x="250" y="-62.6" font-family="Times,serif" font-size="14.00">ToolsRoutingModule</text>
</g>
<!-- ToolsRoutingModule&#45;&gt;ToolsModule -->
<g id="edge3" class="edge">
<title>ToolsRoutingModule&#45;&gt;ToolsModule</title>
<path fill="none" stroke="black" d="M250,-84.91C250,-84.91 250,-103.79 250,-103.79"/>
<polygon fill="black" stroke="black" points="246.5,-103.79 250,-113.79 253.5,-103.79 246.5,-103.79"/>
</g>
</g>
</svg>
