<?xml version="1.0" encoding="UTF-8" standalone="no"?>
<!DOCTYPE svg PUBLIC "-//W3C//DTD SVG 1.1//EN"
 "http://www.w3.org/Graphics/SVG/1.1/DTD/svg11.dtd">
<!-- Generated by graphviz version 2.47.3 (20210619.1520)
 -->
<!-- Title: dependencies Pages: 1 -->
<svg width="1446pt" height="174pt"
 viewBox="0.00 0.00 1446.00 173.80" xmlns="http://www.w3.org/2000/svg" xmlns:xlink="http://www.w3.org/1999/xlink">
<g id="graph0" class="graph" transform="scale(1 1) rotate(0) translate(4 169.8)">
<title>dependencies</title>
<polygon fill="white" stroke="transparent" points="-4,4 -4,-169.8 1442,-169.8 1442,4 -4,4"/>
<text text-anchor="middle" x="719" y="-8.2" font-family="sans-serif" font-size="14.00">dependencies</text>
<g id="clust1" class="cluster">
<title>cluster_ToolsModule</title>
<polygon fill="none" stroke="black" stroke-dasharray="1,5" points="8,-32.8 8,-157.8 1430,-157.8 1430,-32.8 8,-32.8"/>
</g>
<g id="clust10" class="cluster">
<title>cluster_ToolsModule_imports</title>
<polygon fill="none" stroke="black" points="1154,-40.8 1154,-92.8 1422,-92.8 1422,-40.8 1154,-40.8"/>
</g>
<g id="clust2" class="cluster">
<title>cluster_ToolsModule_declarations</title>
<polygon fill="none" stroke="black" points="16,-40.8 16,-92.8 1146,-92.8 1146,-40.8 16,-40.8"/>
</g>
<!-- AmazonAssociateComponent -->
<g id="node1" class="node">
<title>AmazonAssociateComponent</title>
<polygon fill="#ffffb3" stroke="black" points="1137.68,-84.8 954.32,-84.8 954.32,-48.8 1137.68,-48.8 1137.68,-84.8"/>
<text text-anchor="middle" x="1046" y="-62.6" font-family="Times,serif" font-size="14.00">AmazonAssociateComponent</text>
</g>
<!-- ToolsModule -->
<g id="node8" class="node">
<title>ToolsModule</title>
<polygon fill="#8dd3c7" stroke="black" points="760.94,-149.8 757.94,-153.8 736.94,-153.8 733.94,-149.8 669.06,-149.8 669.06,-113.8 760.94,-113.8 760.94,-149.8"/>
<text text-anchor="middle" x="715" y="-127.6" font-family="Times,serif" font-size="14.00">ToolsModule</text>
</g>
<!-- AmazonAssociateComponent&#45;&gt;ToolsModule -->
<g id="edge1" class="edge">
<title>AmazonAssociateComponent&#45;&gt;ToolsModule</title>
<path fill="none" stroke="black" d="M1046,-85.07C1046,-103.36 1046,-128.8 1046,-128.8 1046,-128.8 771.02,-128.8 771.02,-128.8"/>
<polygon fill="black" stroke="black" points="771.02,-125.3 761.02,-128.8 771.02,-132.3 771.02,-125.3"/>
</g>
<!-- Base64Component -->
<g id="node2" class="node">
<title>Base64Component</title>
<polygon fill="#ffffb3" stroke="black" points="936.04,-84.8 813.96,-84.8 813.96,-48.8 936.04,-48.8 936.04,-84.8"/>
<text text-anchor="middle" x="875" y="-62.6" font-family="Times,serif" font-size="14.00">Base64Component</text>
</g>
<!-- Base64Component&#45;&gt;ToolsModule -->
<g id="edge2" class="edge">
<title>Base64Component&#45;&gt;ToolsModule</title>
<path fill="none" stroke="black" d="M875,-84.81C875,-100.85 875,-121.8 875,-121.8 875,-121.8 770.85,-121.8 770.85,-121.8"/>
<polygon fill="black" stroke="black" points="770.85,-118.3 760.85,-121.8 770.85,-125.3 770.85,-118.3"/>
</g>
<!-- JsonFormatterComponent -->
<g id="node3" class="node">
<title>JsonFormatterComponent</title>
<polygon fill="#ffffb3" stroke="black" points="795.93,-84.8 634.07,-84.8 634.07,-48.8 795.93,-48.8 795.93,-84.8"/>
<text text-anchor="middle" x="715" y="-62.6" font-family="Times,serif" font-size="14.00">JsonFormatterComponent</text>
</g>
<!-- JsonFormatterComponent&#45;&gt;ToolsModule -->
<g id="edge3" class="edge">
<title>JsonFormatterComponent&#45;&gt;ToolsModule</title>
<path fill="none" stroke="black" d="M715,-84.91C715,-84.91 715,-103.79 715,-103.79"/>
<polygon fill="black" stroke="black" points="711.5,-103.79 715,-113.79 718.5,-103.79 711.5,-103.79"/>
</g>
<!-- JsonTyperComponent -->
<g id="node4" class="node">
<title>JsonTyperComponent</title>
<polygon fill="#ffffb3" stroke="black" points="615.65,-84.8 476.35,-84.8 476.35,-48.8 615.65,-48.8 615.65,-84.8"/>
<text text-anchor="middle" x="546" y="-62.6" font-family="Times,serif" font-size="14.00">JsonTyperComponent</text>
</g>
<!-- JsonTyperComponent&#45;&gt;ToolsModule -->
<g id="edge4" class="edge">
<title>JsonTyperComponent&#45;&gt;ToolsModule</title>
<path fill="none" stroke="black" d="M546,-84.81C546,-100.85 546,-121.8 546,-121.8 546,-121.8 659.27,-121.8 659.27,-121.8"/>
<polygon fill="black" stroke="black" points="659.27,-125.3 669.27,-121.8 659.27,-118.3 659.27,-125.3"/>
</g>
<!-- RealtimeComponent -->
<g id="node5" class="node">
<title>RealtimeComponent</title>
<polygon fill="#ffffb3" stroke="black" points="457.88,-84.8 326.12,-84.8 326.12,-48.8 457.88,-48.8 457.88,-84.8"/>
<text text-anchor="middle" x="392" y="-62.6" font-family="Times,serif" font-size="14.00">RealtimeComponent</text>
</g>
<!-- RealtimeComponent&#45;&gt;ToolsModule -->
<g id="edge5" class="edge">
<title>RealtimeComponent&#45;&gt;ToolsModule</title>
<path fill="none" stroke="black" d="M392,-85.07C392,-103.36 392,-128.8 392,-128.8 392,-128.8 659.07,-128.8 659.07,-128.8"/>
<polygon fill="black" stroke="black" points="659.07,-132.3 669.07,-128.8 659.06,-125.3 659.07,-132.3"/>
</g>
<!-- ToolsListComponent -->
<g id="node6" class="node">
<title>ToolsListComponent</title>
<polygon fill="#ffffb3" stroke="black" points="308.5,-84.8 173.5,-84.8 173.5,-48.8 308.5,-48.8 308.5,-84.8"/>
<text text-anchor="middle" x="241" y="-62.6" font-family="Times,serif" font-size="14.00">ToolsListComponent</text>
</g>
<!-- ToolsListComponent&#45;&gt;ToolsModule -->
<g id="edge6" class="edge">
<title>ToolsListComponent&#45;&gt;ToolsModule</title>
<path fill="none" stroke="black" d="M241,-84.93C241,-105.37 241,-135.8 241,-135.8 241,-135.8 659.12,-135.8 659.12,-135.8"/>
<polygon fill="black" stroke="black" points="659.12,-139.3 669.12,-135.8 659.12,-132.3 659.12,-139.3"/>
</g>
<!-- UserInfoComponent -->
<g id="node7" class="node">
<title>UserInfoComponent</title>
<polygon fill="#ffffb3" stroke="black" points="155.58,-84.8 24.42,-84.8 24.42,-48.8 155.58,-48.8 155.58,-84.8"/>
<text text-anchor="middle" x="90" y="-62.6" font-family="Times,serif" font-size="14.00">UserInfoComponent</text>
</g>
<!-- UserInfoComponent&#45;&gt;ToolsModule -->
<g id="edge7" class="edge">
<title>UserInfoComponent&#45;&gt;ToolsModule</title>
<path fill="none" stroke="black" d="M90,-84.81C90,-107.29 90,-142.8 90,-142.8 90,-142.8 659.04,-142.8 659.04,-142.8"/>
<polygon fill="black" stroke="black" points="659.04,-146.3 669.04,-142.8 659.04,-139.3 659.04,-146.3"/>
</g>
<!-- SharedModule -->
<g id="node9" class="node">
<title>SharedModule</title>
<polygon fill="#8dd3c7" stroke="black" points="1414.42,-84.8 1411.42,-88.8 1390.42,-88.8 1387.42,-84.8 1315.58,-84.8 1315.58,-48.8 1414.42,-48.8 1414.42,-84.8"/>
<text text-anchor="middle" x="1365" y="-62.6" font-family="Times,serif" font-size="14.00">SharedModule</text>
</g>
<!-- SharedModule&#45;&gt;ToolsModule -->
<g id="edge8" class="edge">
<title>SharedModule&#45;&gt;ToolsModule</title>
<path fill="none" stroke="black" d="M1365,-84.81C1365,-107.29 1365,-142.8 1365,-142.8 1365,-142.8 770.97,-142.8 770.97,-142.8"/>
<polygon fill="black" stroke="black" points="770.97,-139.3 760.97,-142.8 770.97,-146.3 770.97,-139.3"/>
</g>
<!-- ToolsRoutingModule -->
<g id="node10" class="node">
<title>ToolsRoutingModule</title>
<polygon fill="#8dd3c7" stroke="black" points="1298.06,-84.8 1295.06,-88.8 1274.06,-88.8 1271.06,-84.8 1161.94,-84.8 1161.94,-48.8 1298.06,-48.8 1298.06,-84.8"/>
<text text-anchor="middle" x="1230" y="-62.6" font-family="Times,serif" font-size="14.00">ToolsRoutingModule</text>
</g>
<!-- ToolsRoutingModule&#45;&gt;ToolsModule -->
<g id="edge9" class="edge">
<title>ToolsRoutingModule&#45;&gt;ToolsModule</title>
<path fill="none" stroke="black" d="M1230,-84.93C1230,-105.37 1230,-135.8 1230,-135.8 1230,-135.8 771.16,-135.8 771.16,-135.8"/>
<polygon fill="black" stroke="black" points="771.16,-132.3 761.16,-135.8 771.16,-139.3 771.16,-132.3"/>
</g>
</g>
</svg>
