<?xml version="1.0" encoding="UTF-8" standalone="no"?>
<!DOCTYPE svg PUBLIC "-//W3C//DTD SVG 1.1//EN"
 "http://www.w3.org/Graphics/SVG/1.1/DTD/svg11.dtd">
<!-- Generated by graphviz version 2.47.3 (20210619.1520)
 -->
<!-- Title: dependencies Pages: 1 -->
<svg width="818pt" height="174pt"
 viewBox="0.00 0.00 818.00 173.80" xmlns="http://www.w3.org/2000/svg" xmlns:xlink="http://www.w3.org/1999/xlink">
<g id="graph0" class="graph" transform="scale(1 1) rotate(0) translate(4 169.8)">
<title>dependencies</title>
<polygon fill="white" stroke="transparent" points="-4,4 -4,-169.8 814,-169.8 814,4 -4,4"/>
<text text-anchor="middle" x="405" y="-8.2" font-family="sans-serif" font-size="14.00">dependencies</text>
<g id="clust1" class="cluster">
<title>cluster_ToolsModule</title>
<polygon fill="none" stroke="black" stroke-dasharray="1,5" points="8,-32.8 8,-157.8 802,-157.8 802,-32.8 8,-32.8"/>
</g>
<g id="clust6" class="cluster">
<title>cluster_ToolsModule_imports</title>
<polygon fill="none" stroke="black" points="526,-40.8 526,-92.8 794,-92.8 794,-40.8 526,-40.8"/>
</g>
<g id="clust2" class="cluster">
<title>cluster_ToolsModule_declarations</title>
<polygon fill="none" stroke="black" points="16,-40.8 16,-92.8 518,-92.8 518,-40.8 16,-40.8"/>
</g>
<!-- AmazonAssociateComponent -->
<g id="node1" class="node">
<title>AmazonAssociateComponent</title>
<polygon fill="#ffffb3" stroke="black" points="509.68,-84.8 326.32,-84.8 326.32,-48.8 509.68,-48.8 509.68,-84.8"/>
<text text-anchor="middle" x="418" y="-62.6" font-family="Times,serif" font-size="14.00">AmazonAssociateComponent</text>
</g>
<!-- ToolsModule -->
<g id="node4" class="node">
<title>ToolsModule</title>
<polygon fill="#8dd3c7" stroke="black" points="463.94,-149.8 460.94,-153.8 439.94,-153.8 436.94,-149.8 372.06,-149.8 372.06,-113.8 463.94,-113.8 463.94,-149.8"/>
<text text-anchor="middle" x="418" y="-127.6" font-family="Times,serif" font-size="14.00">ToolsModule</text>
</g>
<!-- AmazonAssociateComponent&#45;&gt;ToolsModule -->
<g id="edge1" class="edge">
<title>AmazonAssociateComponent&#45;&gt;ToolsModule</title>
<path fill="none" stroke="black" d="M418,-84.91C418,-84.91 418,-103.79 418,-103.79"/>
<polygon fill="black" stroke="black" points="414.5,-103.79 418,-113.79 421.5,-103.79 414.5,-103.79"/>
</g>
<!-- ToolsListComponent -->
<g id="node2" class="node">
<title>ToolsListComponent</title>
<polygon fill="#ffffb3" stroke="black" points="308.5,-84.8 173.5,-84.8 173.5,-48.8 308.5,-48.8 308.5,-84.8"/>
<text text-anchor="middle" x="241" y="-62.6" font-family="Times,serif" font-size="14.00">ToolsListComponent</text>
</g>
<!-- ToolsListComponent&#45;&gt;ToolsModule -->
<g id="edge2" class="edge">
<title>ToolsListComponent&#45;&gt;ToolsModule</title>
<path fill="none" stroke="black" d="M241,-84.82C241,-102.17 241,-125.8 241,-125.8 241,-125.8 361.96,-125.8 361.96,-125.8"/>
<polygon fill="black" stroke="black" points="361.96,-129.3 371.96,-125.8 361.96,-122.3 361.96,-129.3"/>
</g>
<!-- UserInfoComponent -->
<g id="node3" class="node">
<title>UserInfoComponent</title>
<polygon fill="#ffffb3" stroke="black" points="155.58,-84.8 24.42,-84.8 24.42,-48.8 155.58,-48.8 155.58,-84.8"/>
<text text-anchor="middle" x="90" y="-62.6" font-family="Times,serif" font-size="14.00">UserInfoComponent</text>
</g>
<!-- UserInfoComponent&#45;&gt;ToolsModule -->
<g id="edge3" class="edge">
<title>UserInfoComponent&#45;&gt;ToolsModule</title>
<path fill="none" stroke="black" d="M90,-85.08C90,-106.12 90,-137.8 90,-137.8 90,-137.8 362.05,-137.8 362.05,-137.8"/>
<polygon fill="black" stroke="black" points="362.05,-141.3 372.05,-137.8 362.05,-134.3 362.05,-141.3"/>
</g>
<!-- SharedModule -->
<g id="node5" class="node">
<title>SharedModule</title>
<polygon fill="#8dd3c7" stroke="black" points="786.42,-84.8 783.42,-88.8 762.42,-88.8 759.42,-84.8 687.58,-84.8 687.58,-48.8 786.42,-48.8 786.42,-84.8"/>
<text text-anchor="middle" x="737" y="-62.6" font-family="Times,serif" font-size="14.00">SharedModule</text>
</g>
<!-- SharedModule&#45;&gt;ToolsModule -->
<g id="edge4" class="edge">
<title>SharedModule&#45;&gt;ToolsModule</title>
<path fill="none" stroke="black" d="M737,-85.08C737,-106.12 737,-137.8 737,-137.8 737,-137.8 474.04,-137.8 474.04,-137.8"/>
<polygon fill="black" stroke="black" points="474.04,-134.3 464.04,-137.8 474.04,-141.3 474.04,-134.3"/>
</g>
<!-- ToolsRoutingModule -->
<g id="node6" class="node">
<title>ToolsRoutingModule</title>
<polygon fill="#8dd3c7" stroke="black" points="670.06,-84.8 667.06,-88.8 646.06,-88.8 643.06,-84.8 533.94,-84.8 533.94,-48.8 670.06,-48.8 670.06,-84.8"/>
<text text-anchor="middle" x="602" y="-62.6" font-family="Times,serif" font-size="14.00">ToolsRoutingModule</text>
</g>
<!-- ToolsRoutingModule&#45;&gt;ToolsModule -->
<g id="edge5" class="edge">
<title>ToolsRoutingModule&#45;&gt;ToolsModule</title>
<path fill="none" stroke="black" d="M602,-84.82C602,-102.17 602,-125.8 602,-125.8 602,-125.8 473.96,-125.8 473.96,-125.8"/>
<polygon fill="black" stroke="black" points="473.96,-122.3 463.96,-125.8 473.96,-129.3 473.96,-122.3"/>
</g>
</g>
</svg>
