<?xml version="1.0" encoding="UTF-8" standalone="no"?>
<!DOCTYPE svg PUBLIC "-//W3C//DTD SVG 1.1//EN"
 "http://www.w3.org/Graphics/SVG/1.1/DTD/svg11.dtd">
<!-- Generated by graphviz version 2.47.3 (20210619.1520)
 -->
<!-- Title: dependencies Pages: 1 -->
<svg width="1598pt" height="174pt"
 viewBox="0.00 0.00 1598.00 173.80" xmlns="http://www.w3.org/2000/svg" xmlns:xlink="http://www.w3.org/1999/xlink">
<g id="graph0" class="graph" transform="scale(1 1) rotate(0) translate(4 169.8)">
<title>dependencies</title>
<polygon fill="white" stroke="transparent" points="-4,4 -4,-169.8 1594,-169.8 1594,4 -4,4"/>
<text text-anchor="middle" x="795" y="-8.2" font-family="sans-serif" font-size="14.00">dependencies</text>
<g id="clust1" class="cluster">
<title>cluster_ToolsModule</title>
<polygon fill="none" stroke="black" stroke-dasharray="1,5" points="8,-32.8 8,-157.8 1582,-157.8 1582,-32.8 8,-32.8"/>
</g>
<g id="clust11" class="cluster">
<title>cluster_ToolsModule_imports</title>
<polygon fill="none" stroke="black" points="1306,-40.8 1306,-92.8 1574,-92.8 1574,-40.8 1306,-40.8"/>
</g>
<g id="clust2" class="cluster">
<title>cluster_ToolsModule_declarations</title>
<polygon fill="none" stroke="black" points="16,-40.8 16,-92.8 1298,-92.8 1298,-40.8 16,-40.8"/>
</g>
<!-- AmazonAssociateComponent -->
<g id="node1" class="node">
<title>AmazonAssociateComponent</title>
<polygon fill="#ffffb3" stroke="black" points="1289.68,-84.8 1106.32,-84.8 1106.32,-48.8 1289.68,-48.8 1289.68,-84.8"/>
<text text-anchor="middle" x="1198" y="-62.6" font-family="Times,serif" font-size="14.00">AmazonAssociateComponent</text>
</g>
<!-- ToolsModule -->
<g id="node9" class="node">
<title>ToolsModule</title>
<polygon fill="#8dd3c7" stroke="black" points="827.94,-149.8 824.94,-153.8 803.94,-153.8 800.94,-149.8 736.06,-149.8 736.06,-113.8 827.94,-113.8 827.94,-149.8"/>
<text text-anchor="middle" x="782" y="-127.6" font-family="Times,serif" font-size="14.00">ToolsModule</text>
</g>
<!-- AmazonAssociateComponent&#45;&gt;ToolsModule -->
<g id="edge1" class="edge">
<title>AmazonAssociateComponent&#45;&gt;ToolsModule</title>
<path fill="none" stroke="black" d="M1198,-85.07C1198,-103.36 1198,-128.8 1198,-128.8 1198,-128.8 838.11,-128.8 838.11,-128.8"/>
<polygon fill="black" stroke="black" points="838.11,-125.3 828.11,-128.8 838.11,-132.3 838.11,-125.3"/>
</g>
<!-- Base64Component -->
<g id="node2" class="node">
<title>Base64Component</title>
<polygon fill="#ffffb3" stroke="black" points="1088.04,-84.8 965.96,-84.8 965.96,-48.8 1088.04,-48.8 1088.04,-84.8"/>
<text text-anchor="middle" x="1027" y="-62.6" font-family="Times,serif" font-size="14.00">Base64Component</text>
</g>
<!-- Base64Component&#45;&gt;ToolsModule -->
<g id="edge2" class="edge">
<title>Base64Component&#45;&gt;ToolsModule</title>
<path fill="none" stroke="black" d="M1027,-84.81C1027,-100.85 1027,-121.8 1027,-121.8 1027,-121.8 837.8,-121.8 837.8,-121.8"/>
<polygon fill="black" stroke="black" points="837.8,-118.3 827.8,-121.8 837.8,-125.3 837.8,-118.3"/>
</g>
<!-- JsonFormatterComponent -->
<g id="node3" class="node">
<title>JsonFormatterComponent</title>
<polygon fill="#ffffb3" stroke="black" points="947.93,-84.8 786.07,-84.8 786.07,-48.8 947.93,-48.8 947.93,-84.8"/>
<text text-anchor="middle" x="867" y="-62.6" font-family="Times,serif" font-size="14.00">JsonFormatterComponent</text>
</g>
<!-- JsonFormatterComponent&#45;&gt;ToolsModule -->
<g id="edge3" class="edge">
<title>JsonFormatterComponent&#45;&gt;ToolsModule</title>
<path fill="none" stroke="black" d="M807,-84.91C807,-84.91 807,-103.79 807,-103.79"/>
<polygon fill="black" stroke="black" points="803.5,-103.79 807,-113.79 810.5,-103.79 803.5,-103.79"/>
</g>
<!-- JsonTyperComponent -->
<g id="node4" class="node">
<title>JsonTyperComponent</title>
<polygon fill="#ffffb3" stroke="black" points="767.65,-84.8 628.35,-84.8 628.35,-48.8 767.65,-48.8 767.65,-84.8"/>
<text text-anchor="middle" x="698" y="-62.6" font-family="Times,serif" font-size="14.00">JsonTyperComponent</text>
</g>
<!-- JsonTyperComponent&#45;&gt;ToolsModule -->
<g id="edge4" class="edge">
<title>JsonTyperComponent&#45;&gt;ToolsModule</title>
<path fill="none" stroke="black" d="M752.05,-84.91C752.05,-84.91 752.05,-103.79 752.05,-103.79"/>
<polygon fill="black" stroke="black" points="748.55,-103.79 752.05,-113.79 755.55,-103.79 748.55,-103.79"/>
</g>
<!-- MdwriterComponent -->
<g id="node5" class="node">
<title>MdwriterComponent</title>
<polygon fill="#ffffb3" stroke="black" points="610.2,-84.8 475.8,-84.8 475.8,-48.8 610.2,-48.8 610.2,-84.8"/>
<text text-anchor="middle" x="543" y="-62.6" font-family="Times,serif" font-size="14.00">MdwriterComponent</text>
</g>
<!-- MdwriterComponent&#45;&gt;ToolsModule -->
<g id="edge5" class="edge">
<title>MdwriterComponent&#45;&gt;ToolsModule</title>
<path fill="none" stroke="black" d="M543,-84.81C543,-100.85 543,-121.8 543,-121.8 543,-121.8 726.2,-121.8 726.2,-121.8"/>
<polygon fill="black" stroke="black" points="726.2,-125.3 736.2,-121.8 726.2,-118.3 726.2,-125.3"/>
</g>
<!-- RealtimeComponent -->
<g id="node6" class="node">
<title>RealtimeComponent</title>
<polygon fill="#ffffb3" stroke="black" points="457.88,-84.8 326.12,-84.8 326.12,-48.8 457.88,-48.8 457.88,-84.8"/>
<text text-anchor="middle" x="392" y="-62.6" font-family="Times,serif" font-size="14.00">RealtimeComponent</text>
</g>
<!-- RealtimeComponent&#45;&gt;ToolsModule -->
<g id="edge6" class="edge">
<title>RealtimeComponent&#45;&gt;ToolsModule</title>
<path fill="none" stroke="black" d="M392,-85.07C392,-103.36 392,-128.8 392,-128.8 392,-128.8 726.12,-128.8 726.12,-128.8"/>
<polygon fill="black" stroke="black" points="726.12,-132.3 736.12,-128.8 726.12,-125.3 726.12,-132.3"/>
</g>
<!-- ToolsListComponent -->
<g id="node7" class="node">
<title>ToolsListComponent</title>
<polygon fill="#ffffb3" stroke="black" points="308.5,-84.8 173.5,-84.8 173.5,-48.8 308.5,-48.8 308.5,-84.8"/>
<text text-anchor="middle" x="241" y="-62.6" font-family="Times,serif" font-size="14.00">ToolsListComponent</text>
</g>
<!-- ToolsListComponent&#45;&gt;ToolsModule -->
<g id="edge7" class="edge">
<title>ToolsListComponent&#45;&gt;ToolsModule</title>
<path fill="none" stroke="black" d="M241,-84.93C241,-105.37 241,-135.8 241,-135.8 241,-135.8 725.87,-135.8 725.87,-135.8"/>
<polygon fill="black" stroke="black" points="725.87,-139.3 735.87,-135.8 725.87,-132.3 725.87,-139.3"/>
</g>
<!-- UserInfoComponent -->
<g id="node8" class="node">
<title>UserInfoComponent</title>
<polygon fill="#ffffb3" stroke="black" points="155.58,-84.8 24.42,-84.8 24.42,-48.8 155.58,-48.8 155.58,-84.8"/>
<text text-anchor="middle" x="90" y="-62.6" font-family="Times,serif" font-size="14.00">UserInfoComponent</text>
</g>
<!-- UserInfoComponent&#45;&gt;ToolsModule -->
<g id="edge8" class="edge">
<title>UserInfoComponent&#45;&gt;ToolsModule</title>
<path fill="none" stroke="black" d="M90,-84.81C90,-107.29 90,-142.8 90,-142.8 90,-142.8 726.06,-142.8 726.06,-142.8"/>
<polygon fill="black" stroke="black" points="726.06,-146.3 736.06,-142.8 726.06,-139.3 726.06,-146.3"/>
</g>
<!-- SharedModule -->
<g id="node10" class="node">
<title>SharedModule</title>
<polygon fill="#8dd3c7" stroke="black" points="1566.42,-84.8 1563.42,-88.8 1542.42,-88.8 1539.42,-84.8 1467.58,-84.8 1467.58,-48.8 1566.42,-48.8 1566.42,-84.8"/>
<text text-anchor="middle" x="1517" y="-62.6" font-family="Times,serif" font-size="14.00">SharedModule</text>
</g>
<!-- SharedModule&#45;&gt;ToolsModule -->
<g id="edge9" class="edge">
<title>SharedModule&#45;&gt;ToolsModule</title>
<path fill="none" stroke="black" d="M1517,-84.81C1517,-107.29 1517,-142.8 1517,-142.8 1517,-142.8 837.98,-142.8 837.98,-142.8"/>
<polygon fill="black" stroke="black" points="837.98,-139.3 827.98,-142.8 837.98,-146.3 837.98,-139.3"/>
</g>
<!-- ToolsRoutingModule -->
<g id="node11" class="node">
<title>ToolsRoutingModule</title>
<polygon fill="#8dd3c7" stroke="black" points="1450.06,-84.8 1447.06,-88.8 1426.06,-88.8 1423.06,-84.8 1313.94,-84.8 1313.94,-48.8 1450.06,-48.8 1450.06,-84.8"/>
<text text-anchor="middle" x="1382" y="-62.6" font-family="Times,serif" font-size="14.00">ToolsRoutingModule</text>
</g>
<!-- ToolsRoutingModule&#45;&gt;ToolsModule -->
<g id="edge10" class="edge">
<title>ToolsRoutingModule&#45;&gt;ToolsModule</title>
<path fill="none" stroke="black" d="M1382,-84.93C1382,-105.37 1382,-135.8 1382,-135.8 1382,-135.8 838.08,-135.8 838.08,-135.8"/>
<polygon fill="black" stroke="black" points="838.08,-132.3 828.08,-135.8 838.08,-139.3 838.08,-132.3"/>
</g>
</g>
</svg>
