<?xml version="1.0" encoding="UTF-8" standalone="no"?>
<!DOCTYPE svg PUBLIC "-//W3C//DTD SVG 1.1//EN"
 "http://www.w3.org/Graphics/SVG/1.1/DTD/svg11.dtd">
<!-- Generated by graphviz version 2.47.3 (20210619.1520)
 -->
<!-- Title: dependencies Pages: 1 -->
<svg width="1305pt" height="174pt"
 viewBox="0.00 0.00 1305.00 173.80" xmlns="http://www.w3.org/2000/svg" xmlns:xlink="http://www.w3.org/1999/xlink">
<g id="graph0" class="graph" transform="scale(1 1) rotate(0) translate(4 169.8)">
<title>dependencies</title>
<polygon fill="white" stroke="transparent" points="-4,4 -4,-169.8 1301,-169.8 1301,4 -4,4"/>
<text text-anchor="middle" x="648.5" y="-8.2" font-family="sans-serif" font-size="14.00">dependencies</text>
<g id="clust1" class="cluster">
<title>cluster_ToolsModule</title>
<polygon fill="none" stroke="black" stroke-dasharray="1,5" points="8,-32.8 8,-157.8 1289,-157.8 1289,-32.8 8,-32.8"/>
</g>
<g id="clust9" class="cluster">
<title>cluster_ToolsModule_imports</title>
<polygon fill="none" stroke="black" points="1013,-40.8 1013,-92.8 1281,-92.8 1281,-40.8 1013,-40.8"/>
</g>
<g id="clust2" class="cluster">
<title>cluster_ToolsModule_declarations</title>
<polygon fill="none" stroke="black" points="16,-40.8 16,-92.8 1005,-92.8 1005,-40.8 16,-40.8"/>
</g>
<!-- AmazonAssociateComponent -->
<g id="node1" class="node">
<title>AmazonAssociateComponent</title>
<polygon fill="#ffffb3" stroke="black" points="996.68,-84.8 813.32,-84.8 813.32,-48.8 996.68,-48.8 996.68,-84.8"/>
<text text-anchor="middle" x="905" y="-62.6" font-family="Times,serif" font-size="14.00">AmazonAssociateComponent</text>
</g>
<!-- ToolsModule -->
<g id="node7" class="node">
<title>ToolsModule</title>
<polygon fill="#8dd3c7" stroke="black" points="675.94,-149.8 672.94,-153.8 651.94,-153.8 648.94,-149.8 584.06,-149.8 584.06,-113.8 675.94,-113.8 675.94,-149.8"/>
<text text-anchor="middle" x="630" y="-127.6" font-family="Times,serif" font-size="14.00">ToolsModule</text>
</g>
<!-- AmazonAssociateComponent&#45;&gt;ToolsModule -->
<g id="edge1" class="edge">
<title>AmazonAssociateComponent&#45;&gt;ToolsModule</title>
<path fill="none" stroke="black" d="M905,-84.83C905,-101.2 905,-122.8 905,-122.8 905,-122.8 685.72,-122.8 685.72,-122.8"/>
<polygon fill="black" stroke="black" points="685.72,-119.3 675.72,-122.8 685.72,-126.3 685.72,-119.3"/>
</g>
<!-- JsonFormatterComponent -->
<g id="node2" class="node">
<title>JsonFormatterComponent</title>
<polygon fill="#ffffb3" stroke="black" points="795.93,-84.8 634.07,-84.8 634.07,-48.8 795.93,-48.8 795.93,-84.8"/>
<text text-anchor="middle" x="715" y="-62.6" font-family="Times,serif" font-size="14.00">JsonFormatterComponent</text>
</g>
<!-- JsonFormatterComponent&#45;&gt;ToolsModule -->
<g id="edge2" class="edge">
<title>JsonFormatterComponent&#45;&gt;ToolsModule</title>
<path fill="none" stroke="black" d="M655,-84.91C655,-84.91 655,-103.79 655,-103.79"/>
<polygon fill="black" stroke="black" points="651.5,-103.79 655,-113.79 658.5,-103.79 651.5,-103.79"/>
</g>
<!-- JsonTyperComponent -->
<g id="node3" class="node">
<title>JsonTyperComponent</title>
<polygon fill="#ffffb3" stroke="black" points="615.65,-84.8 476.35,-84.8 476.35,-48.8 615.65,-48.8 615.65,-84.8"/>
<text text-anchor="middle" x="546" y="-62.6" font-family="Times,serif" font-size="14.00">JsonTyperComponent</text>
</g>
<!-- JsonTyperComponent&#45;&gt;ToolsModule -->
<g id="edge3" class="edge">
<title>JsonTyperComponent&#45;&gt;ToolsModule</title>
<path fill="none" stroke="black" d="M600.05,-84.91C600.05,-84.91 600.05,-103.79 600.05,-103.79"/>
<polygon fill="black" stroke="black" points="596.55,-103.79 600.05,-113.79 603.55,-103.79 596.55,-103.79"/>
</g>
<!-- RealtimeComponent -->
<g id="node4" class="node">
<title>RealtimeComponent</title>
<polygon fill="#ffffb3" stroke="black" points="457.88,-84.8 326.12,-84.8 326.12,-48.8 457.88,-48.8 457.88,-84.8"/>
<text text-anchor="middle" x="392" y="-62.6" font-family="Times,serif" font-size="14.00">RealtimeComponent</text>
</g>
<!-- RealtimeComponent&#45;&gt;ToolsModule -->
<g id="edge4" class="edge">
<title>RealtimeComponent&#45;&gt;ToolsModule</title>
<path fill="none" stroke="black" d="M392,-84.83C392,-101.2 392,-122.8 392,-122.8 392,-122.8 574.11,-122.8 574.11,-122.8"/>
<polygon fill="black" stroke="black" points="574.11,-126.3 584.11,-122.8 574.11,-119.3 574.11,-126.3"/>
</g>
<!-- ToolsListComponent -->
<g id="node5" class="node">
<title>ToolsListComponent</title>
<polygon fill="#ffffb3" stroke="black" points="308.5,-84.8 173.5,-84.8 173.5,-48.8 308.5,-48.8 308.5,-84.8"/>
<text text-anchor="middle" x="241" y="-62.6" font-family="Times,serif" font-size="14.00">ToolsListComponent</text>
</g>
<!-- ToolsListComponent&#45;&gt;ToolsModule -->
<g id="edge5" class="edge">
<title>ToolsListComponent&#45;&gt;ToolsModule</title>
<path fill="none" stroke="black" d="M241,-84.91C241,-104.14 241,-131.8 241,-131.8 241,-131.8 574.23,-131.8 574.23,-131.8"/>
<polygon fill="black" stroke="black" points="574.23,-135.3 584.23,-131.8 574.23,-128.3 574.23,-135.3"/>
</g>
<!-- UserInfoComponent -->
<g id="node6" class="node">
<title>UserInfoComponent</title>
<polygon fill="#ffffb3" stroke="black" points="155.58,-84.8 24.42,-84.8 24.42,-48.8 155.58,-48.8 155.58,-84.8"/>
<text text-anchor="middle" x="90" y="-62.6" font-family="Times,serif" font-size="14.00">UserInfoComponent</text>
</g>
<!-- UserInfoComponent&#45;&gt;ToolsModule -->
<g id="edge6" class="edge">
<title>UserInfoComponent&#45;&gt;ToolsModule</title>
<path fill="none" stroke="black" d="M90,-85.09C90,-107.01 90,-140.8 90,-140.8 90,-140.8 573.96,-140.8 573.96,-140.8"/>
<polygon fill="black" stroke="black" points="573.96,-144.3 583.96,-140.8 573.96,-137.3 573.96,-144.3"/>
</g>
<!-- SharedModule -->
<g id="node8" class="node">
<title>SharedModule</title>
<polygon fill="#8dd3c7" stroke="black" points="1273.42,-84.8 1270.42,-88.8 1249.42,-88.8 1246.42,-84.8 1174.58,-84.8 1174.58,-48.8 1273.42,-48.8 1273.42,-84.8"/>
<text text-anchor="middle" x="1224" y="-62.6" font-family="Times,serif" font-size="14.00">SharedModule</text>
</g>
<!-- SharedModule&#45;&gt;ToolsModule -->
<g id="edge7" class="edge">
<title>SharedModule&#45;&gt;ToolsModule</title>
<path fill="none" stroke="black" d="M1224,-85.09C1224,-107.01 1224,-140.8 1224,-140.8 1224,-140.8 686.12,-140.8 686.12,-140.8"/>
<polygon fill="black" stroke="black" points="686.12,-137.3 676.12,-140.8 686.12,-144.3 686.12,-137.3"/>
</g>
<!-- ToolsRoutingModule -->
<g id="node9" class="node">
<title>ToolsRoutingModule</title>
<polygon fill="#8dd3c7" stroke="black" points="1157.06,-84.8 1154.06,-88.8 1133.06,-88.8 1130.06,-84.8 1020.94,-84.8 1020.94,-48.8 1157.06,-48.8 1157.06,-84.8"/>
<text text-anchor="middle" x="1089" y="-62.6" font-family="Times,serif" font-size="14.00">ToolsRoutingModule</text>
</g>
<!-- ToolsRoutingModule&#45;&gt;ToolsModule -->
<g id="edge8" class="edge">
<title>ToolsRoutingModule&#45;&gt;ToolsModule</title>
<path fill="none" stroke="black" d="M1089,-84.91C1089,-104.14 1089,-131.8 1089,-131.8 1089,-131.8 686.11,-131.8 686.11,-131.8"/>
<polygon fill="black" stroke="black" points="686.11,-128.3 676.11,-131.8 686.11,-135.3 686.11,-128.3"/>
</g>
</g>
</svg>
