<?xml version="1.0" encoding="UTF-8" standalone="no"?>
<!DOCTYPE svg PUBLIC "-//W3C//DTD SVG 1.1//EN"
 "http://www.w3.org/Graphics/SVG/1.1/DTD/svg11.dtd">
<!-- Generated by graphviz version 2.47.3 (20210619.1520)
 -->
<!-- Title: dependencies Pages: 1 -->
<svg width="1733pt" height="174pt"
 viewBox="0.00 0.00 1733.00 173.80" xmlns="http://www.w3.org/2000/svg" xmlns:xlink="http://www.w3.org/1999/xlink">
<g id="graph0" class="graph" transform="scale(1 1) rotate(0) translate(4 169.8)">
<title>dependencies</title>
<polygon fill="white" stroke="transparent" points="-4,4 -4,-169.8 1729,-169.8 1729,4 -4,4"/>
<text text-anchor="middle" x="862.5" y="-8.2" font-family="sans-serif" font-size="14.00">dependencies</text>
<g id="clust1" class="cluster">
<title>cluster_ToolsModule</title>
<polygon fill="none" stroke="black" stroke-dasharray="1,5" points="8,-32.8 8,-157.8 1717,-157.8 1717,-32.8 8,-32.8"/>
</g>
<g id="clust2" class="cluster">
<title>cluster_ToolsModule_declarations</title>
<polygon fill="none" stroke="black" points="292,-40.8 292,-92.8 1709,-92.8 1709,-40.8 292,-40.8"/>
</g>
<g id="clust12" class="cluster">
<title>cluster_ToolsModule_imports</title>
<polygon fill="none" stroke="black" points="16,-40.8 16,-92.8 284,-92.8 284,-40.8 16,-40.8"/>
</g>
<!-- AmazonAssociateComponent -->
<g id="node1" class="node">
<title>AmazonAssociateComponent</title>
<polygon fill="#ffffb3" stroke="black" points="1700.68,-84.8 1517.32,-84.8 1517.32,-48.8 1700.68,-48.8 1700.68,-84.8"/>
<text text-anchor="middle" x="1609" y="-62.6" font-family="Times,serif" font-size="14.00">AmazonAssociateComponent</text>
</g>
<!-- ToolsModule -->
<g id="node10" class="node">
<title>ToolsModule</title>
<polygon fill="#8dd3c7" stroke="black" points="848.94,-149.8 845.94,-153.8 824.94,-153.8 821.94,-149.8 757.06,-149.8 757.06,-113.8 848.94,-113.8 848.94,-149.8"/>
<text text-anchor="middle" x="803" y="-127.6" font-family="Times,serif" font-size="14.00">ToolsModule</text>
</g>
<!-- AmazonAssociateComponent&#45;&gt;ToolsModule -->
<g id="edge1" class="edge">
<title>AmazonAssociateComponent&#45;&gt;ToolsModule</title>
<path fill="none" stroke="black" d="M1609,-84.89C1609,-107.93 1609,-144.8 1609,-144.8 1609,-144.8 858.94,-144.8 858.94,-144.8"/>
<polygon fill="black" stroke="black" points="858.94,-141.3 848.94,-144.8 858.94,-148.3 858.94,-141.3"/>
</g>
<!-- Base64Component -->
<g id="node2" class="node">
<title>Base64Component</title>
<polygon fill="#ffffb3" stroke="black" points="1499.04,-84.8 1376.96,-84.8 1376.96,-48.8 1499.04,-48.8 1499.04,-84.8"/>
<text text-anchor="middle" x="1438" y="-62.6" font-family="Times,serif" font-size="14.00">Base64Component</text>
</g>
<!-- Base64Component&#45;&gt;ToolsModule -->
<g id="edge2" class="edge">
<title>Base64Component&#45;&gt;ToolsModule</title>
<path fill="none" stroke="black" d="M1438,-85.08C1438,-106.12 1438,-137.8 1438,-137.8 1438,-137.8 858.92,-137.8 858.92,-137.8"/>
<polygon fill="black" stroke="black" points="858.92,-134.3 848.92,-137.8 858.92,-141.3 858.92,-134.3"/>
</g>
<!-- JsonFormatterComponent -->
<g id="node3" class="node">
<title>JsonFormatterComponent</title>
<polygon fill="#ffffb3" stroke="black" points="1358.93,-84.8 1197.07,-84.8 1197.07,-48.8 1358.93,-48.8 1358.93,-84.8"/>
<text text-anchor="middle" x="1278" y="-62.6" font-family="Times,serif" font-size="14.00">JsonFormatterComponent</text>
</g>
<!-- JsonFormatterComponent&#45;&gt;ToolsModule -->
<g id="edge3" class="edge">
<title>JsonFormatterComponent&#45;&gt;ToolsModule</title>
<path fill="none" stroke="black" d="M1278,-84.91C1278,-104.14 1278,-131.8 1278,-131.8 1278,-131.8 858.98,-131.8 858.98,-131.8"/>
<polygon fill="black" stroke="black" points="858.98,-128.3 848.98,-131.8 858.98,-135.3 858.98,-128.3"/>
</g>
<!-- JsonTyperComponent -->
<g id="node4" class="node">
<title>JsonTyperComponent</title>
<polygon fill="#ffffb3" stroke="black" points="1178.65,-84.8 1039.35,-84.8 1039.35,-48.8 1178.65,-48.8 1178.65,-84.8"/>
<text text-anchor="middle" x="1109" y="-62.6" font-family="Times,serif" font-size="14.00">JsonTyperComponent</text>
</g>
<!-- JsonTyperComponent&#45;&gt;ToolsModule -->
<g id="edge4" class="edge">
<title>JsonTyperComponent&#45;&gt;ToolsModule</title>
<path fill="none" stroke="black" d="M1109,-84.82C1109,-102.17 1109,-125.8 1109,-125.8 1109,-125.8 858.81,-125.8 858.81,-125.8"/>
<polygon fill="black" stroke="black" points="858.81,-122.3 848.81,-125.8 858.81,-129.3 858.81,-122.3"/>
</g>
<!-- MdwriterComponent -->
<g id="node5" class="node">
<title>MdwriterComponent</title>
<polygon fill="#ffffb3" stroke="black" points="1021.2,-84.8 886.8,-84.8 886.8,-48.8 1021.2,-48.8 1021.2,-84.8"/>
<text text-anchor="middle" x="954" y="-62.6" font-family="Times,serif" font-size="14.00">MdwriterComponent</text>
</g>
<!-- MdwriterComponent&#45;&gt;ToolsModule -->
<g id="edge5" class="edge">
<title>MdwriterComponent&#45;&gt;ToolsModule</title>
<path fill="none" stroke="black" d="M954,-85.04C954,-100.37 954,-119.8 954,-119.8 954,-119.8 859.13,-119.8 859.13,-119.8"/>
<polygon fill="black" stroke="black" points="859.13,-116.3 849.13,-119.8 859.13,-123.3 859.13,-116.3"/>
</g>
<!-- RealtimeComponent -->
<g id="node6" class="node">
<title>RealtimeComponent</title>
<polygon fill="#ffffb3" stroke="black" points="868.88,-84.8 737.12,-84.8 737.12,-48.8 868.88,-48.8 868.88,-84.8"/>
<text text-anchor="middle" x="803" y="-62.6" font-family="Times,serif" font-size="14.00">RealtimeComponent</text>
</g>
<!-- RealtimeComponent&#45;&gt;ToolsModule -->
<g id="edge6" class="edge">
<title>RealtimeComponent&#45;&gt;ToolsModule</title>
<path fill="none" stroke="black" d="M803,-84.91C803,-84.91 803,-103.79 803,-103.79"/>
<polygon fill="black" stroke="black" points="799.5,-103.79 803,-113.79 806.5,-103.79 799.5,-103.79"/>
</g>
<!-- RegexComponent -->
<g id="node7" class="node">
<title>RegexComponent</title>
<polygon fill="#ffffb3" stroke="black" points="719.6,-84.8 602.4,-84.8 602.4,-48.8 719.6,-48.8 719.6,-84.8"/>
<text text-anchor="middle" x="661" y="-62.6" font-family="Times,serif" font-size="14.00">RegexComponent</text>
</g>
<!-- RegexComponent&#45;&gt;ToolsModule -->
<g id="edge7" class="edge">
<title>RegexComponent&#45;&gt;ToolsModule</title>
<path fill="none" stroke="black" d="M661,-85.04C661,-100.37 661,-119.8 661,-119.8 661,-119.8 746.9,-119.8 746.9,-119.8"/>
<polygon fill="black" stroke="black" points="746.9,-123.3 756.9,-119.8 746.9,-116.3 746.9,-123.3"/>
</g>
<!-- ToolsListComponent -->
<g id="node8" class="node">
<title>ToolsListComponent</title>
<polygon fill="#ffffb3" stroke="black" points="584.5,-84.8 449.5,-84.8 449.5,-48.8 584.5,-48.8 584.5,-84.8"/>
<text text-anchor="middle" x="517" y="-62.6" font-family="Times,serif" font-size="14.00">ToolsListComponent</text>
</g>
<!-- ToolsListComponent&#45;&gt;ToolsModule -->
<g id="edge8" class="edge">
<title>ToolsListComponent&#45;&gt;ToolsModule</title>
<path fill="none" stroke="black" d="M517,-84.82C517,-102.17 517,-125.8 517,-125.8 517,-125.8 747.05,-125.8 747.05,-125.8"/>
<polygon fill="black" stroke="black" points="747.05,-129.3 757.05,-125.8 747.05,-122.3 747.05,-129.3"/>
</g>
<!-- UserInfoComponent -->
<g id="node9" class="node">
<title>UserInfoComponent</title>
<polygon fill="#ffffb3" stroke="black" points="431.58,-84.8 300.42,-84.8 300.42,-48.8 431.58,-48.8 431.58,-84.8"/>
<text text-anchor="middle" x="366" y="-62.6" font-family="Times,serif" font-size="14.00">UserInfoComponent</text>
</g>
<!-- UserInfoComponent&#45;&gt;ToolsModule -->
<g id="edge9" class="edge">
<title>UserInfoComponent&#45;&gt;ToolsModule</title>
<path fill="none" stroke="black" d="M366,-84.91C366,-104.14 366,-131.8 366,-131.8 366,-131.8 747.06,-131.8 747.06,-131.8"/>
<polygon fill="black" stroke="black" points="747.06,-135.3 757.06,-131.8 747.06,-128.3 747.06,-135.3"/>
</g>
<!-- SharedModule -->
<g id="node11" class="node">
<title>SharedModule</title>
<polygon fill="#8dd3c7" stroke="black" points="276.42,-84.8 273.42,-88.8 252.42,-88.8 249.42,-84.8 177.58,-84.8 177.58,-48.8 276.42,-48.8 276.42,-84.8"/>
<text text-anchor="middle" x="227" y="-62.6" font-family="Times,serif" font-size="14.00">SharedModule</text>
</g>
<!-- SharedModule&#45;&gt;ToolsModule -->
<g id="edge10" class="edge">
<title>SharedModule&#45;&gt;ToolsModule</title>
<path fill="none" stroke="black" d="M227,-85.08C227,-106.12 227,-137.8 227,-137.8 227,-137.8 746.84,-137.8 746.84,-137.8"/>
<polygon fill="black" stroke="black" points="746.84,-141.3 756.84,-137.8 746.84,-134.3 746.84,-141.3"/>
</g>
<!-- ToolsRoutingModule -->
<g id="node12" class="node">
<title>ToolsRoutingModule</title>
<polygon fill="#8dd3c7" stroke="black" points="160.06,-84.8 157.06,-88.8 136.06,-88.8 133.06,-84.8 23.94,-84.8 23.94,-48.8 160.06,-48.8 160.06,-84.8"/>
<text text-anchor="middle" x="92" y="-62.6" font-family="Times,serif" font-size="14.00">ToolsRoutingModule</text>
</g>
<!-- ToolsRoutingModule&#45;&gt;ToolsModule -->
<g id="edge11" class="edge">
<title>ToolsRoutingModule&#45;&gt;ToolsModule</title>
<path fill="none" stroke="black" d="M92,-84.89C92,-107.93 92,-144.8 92,-144.8 92,-144.8 747.17,-144.8 747.17,-144.8"/>
<polygon fill="black" stroke="black" points="747.17,-148.3 757.17,-144.8 747.17,-141.3 747.17,-148.3"/>
</g>
</g>
</svg>
