<?xml version="1.0" encoding="UTF-8" standalone="no"?>
<!DOCTYPE svg PUBLIC "-//W3C//DTD SVG 1.1//EN"
 "http://www.w3.org/Graphics/SVG/1.1/DTD/svg11.dtd">
<!-- Generated by graphviz version 5.0.0 (20220707.1540)
 -->
<!-- Title: dependencies Pages: 1 -->
<svg width="2481pt" height="174pt"
 viewBox="0.00 0.00 2481.00 173.80" xmlns="http://www.w3.org/2000/svg" xmlns:xlink="http://www.w3.org/1999/xlink">
<g id="graph0" class="graph" transform="scale(1 1) rotate(0) translate(4 169.8)">
<title>dependencies</title>
<polygon fill="white" stroke="transparent" points="-4,4 -4,-169.8 2477,-169.8 2477,4 -4,4"/>
<text text-anchor="middle" x="1236.5" y="-8.2" font-family="sans-serif" font-size="14.00">dependencies</text>
<g id="clust1" class="cluster">
<title>cluster_ToolsModule</title>
<polygon fill="none" stroke="black" stroke-dasharray="1,5" points="8,-32.8 8,-157.8 2465,-157.8 2465,-32.8 8,-32.8"/>
</g>
<g id="clust2" class="cluster">
<title>cluster_ToolsModule_declarations</title>
<polygon fill="none" stroke="black" points="292,-40.8 292,-92.8 2457,-92.8 2457,-40.8 292,-40.8"/>
</g>
<g id="clust17" class="cluster">
<title>cluster_ToolsModule_imports</title>
<polygon fill="none" stroke="black" points="16,-40.8 16,-92.8 284,-92.8 284,-40.8 16,-40.8"/>
</g>
<!-- AmazonAssociateComponent -->
<g id="node1" class="node">
<title>AmazonAssociateComponent</title>
<polygon fill="#ffffb3" stroke="black" points="2448.69,-84.8 2265.31,-84.8 2265.31,-48.8 2448.69,-48.8 2448.69,-84.8"/>
<text text-anchor="middle" x="2357" y="-62.6" font-family="Times,serif" font-size="14.00">AmazonAssociateComponent</text>
</g>
<!-- ToolsModule -->
<g id="node15" class="node">
<title>ToolsModule</title>
<polygon fill="#8dd3c7" stroke="black" points="1233.94,-149.8 1230.94,-153.8 1209.94,-153.8 1206.94,-149.8 1142.06,-149.8 1142.06,-113.8 1233.94,-113.8 1233.94,-149.8"/>
<text text-anchor="middle" x="1188" y="-127.6" font-family="Times,serif" font-size="14.00">ToolsModule</text>
</g>
<!-- AmazonAssociateComponent&#45;&gt;ToolsModule -->
<g id="edge1" class="edge">
<title>AmazonAssociateComponent&#45;&gt;ToolsModule</title>
<path fill="none" stroke="black" d="M2357,-85.12C2357,-108.46 2357,-145.8 2357,-145.8 2357,-145.8 1243.83,-145.8 1243.83,-145.8"/>
<polygon fill="black" stroke="black" points="1243.83,-142.3 1233.83,-145.8 1243.83,-149.3 1243.83,-142.3"/>
</g>
<!-- Base64Component -->
<g id="node2" class="node">
<title>Base64Component</title>
<polygon fill="#ffffb3" stroke="black" points="2247.05,-84.8 2124.95,-84.8 2124.95,-48.8 2247.05,-48.8 2247.05,-84.8"/>
<text text-anchor="middle" x="2186" y="-62.6" font-family="Times,serif" font-size="14.00">Base64Component</text>
</g>
<!-- Base64Component&#45;&gt;ToolsModule -->
<g id="edge2" class="edge">
<title>Base64Component&#45;&gt;ToolsModule</title>
<path fill="none" stroke="black" d="M2186,-85.09C2186,-107.01 2186,-140.8 2186,-140.8 2186,-140.8 1243.8,-140.8 1243.8,-140.8"/>
<polygon fill="black" stroke="black" points="1243.8,-137.3 1233.8,-140.8 1243.8,-144.3 1243.8,-137.3"/>
</g>
<!-- FxCalcComponent -->
<g id="node3" class="node">
<title>FxCalcComponent</title>
<polygon fill="#ffffb3" stroke="black" points="2106.77,-84.8 1985.23,-84.8 1985.23,-48.8 2106.77,-48.8 2106.77,-84.8"/>
<text text-anchor="middle" x="2046" y="-62.6" font-family="Times,serif" font-size="14.00">FxCalcComponent</text>
</g>
<!-- FxCalcComponent&#45;&gt;ToolsModule -->
<g id="edge3" class="edge">
<title>FxCalcComponent&#45;&gt;ToolsModule</title>
<path fill="none" stroke="black" d="M2046,-84.83C2046,-105.57 2046,-136.8 2046,-136.8 2046,-136.8 1243.83,-136.8 1243.83,-136.8"/>
<polygon fill="black" stroke="black" points="1243.83,-133.3 1233.83,-136.8 1243.83,-140.3 1243.83,-133.3"/>
</g>
<!-- JsonFormatterComponent -->
<g id="node4" class="node">
<title>JsonFormatterComponent</title>
<polygon fill="#ffffb3" stroke="black" points="1966.94,-84.8 1805.06,-84.8 1805.06,-48.8 1966.94,-48.8 1966.94,-84.8"/>
<text text-anchor="middle" x="1886" y="-62.6" font-family="Times,serif" font-size="14.00">JsonFormatterComponent</text>
</g>
<!-- JsonFormatterComponent&#45;&gt;ToolsModule -->
<g id="edge4" class="edge">
<title>JsonFormatterComponent&#45;&gt;ToolsModule</title>
<path fill="none" stroke="black" d="M1886,-84.91C1886,-104.14 1886,-131.8 1886,-131.8 1886,-131.8 1243.8,-131.8 1243.8,-131.8"/>
<polygon fill="black" stroke="black" points="1243.8,-128.3 1233.8,-131.8 1243.8,-135.3 1243.8,-128.3"/>
</g>
<!-- JsonTyperComponent -->
<g id="node5" class="node">
<title>JsonTyperComponent</title>
<polygon fill="#ffffb3" stroke="black" points="1786.66,-84.8 1647.34,-84.8 1647.34,-48.8 1786.66,-48.8 1786.66,-84.8"/>
<text text-anchor="middle" x="1717" y="-62.6" font-family="Times,serif" font-size="14.00">JsonTyperComponent</text>
</g>
<!-- JsonTyperComponent&#45;&gt;ToolsModule -->
<g id="edge5" class="edge">
<title>JsonTyperComponent&#45;&gt;ToolsModule</title>
<path fill="none" stroke="black" d="M1717,-85.1C1717,-103.07 1717,-127.8 1717,-127.8 1717,-127.8 1244.02,-127.8 1244.02,-127.8"/>
<polygon fill="black" stroke="black" points="1244.02,-124.3 1234.02,-127.8 1244.02,-131.3 1244.02,-124.3"/>
</g>
<!-- MdwriterComponent -->
<g id="node6" class="node">
<title>MdwriterComponent</title>
<polygon fill="#ffffb3" stroke="black" points="1629.21,-84.8 1494.79,-84.8 1494.79,-48.8 1629.21,-48.8 1629.21,-84.8"/>
<text text-anchor="middle" x="1562" y="-62.6" font-family="Times,serif" font-size="14.00">MdwriterComponent</text>
</g>
<!-- MdwriterComponent&#45;&gt;ToolsModule -->
<g id="edge6" class="edge">
<title>MdwriterComponent&#45;&gt;ToolsModule</title>
<path fill="none" stroke="black" d="M1562,-84.83C1562,-101.2 1562,-122.8 1562,-122.8 1562,-122.8 1243.86,-122.8 1243.86,-122.8"/>
<polygon fill="black" stroke="black" points="1243.86,-119.3 1233.86,-122.8 1243.86,-126.3 1243.86,-119.3"/>
</g>
<!-- MermaidComponent -->
<g id="node7" class="node">
<title>MermaidComponent</title>
<polygon fill="#ffffb3" stroke="black" points="1477.15,-84.8 1344.85,-84.8 1344.85,-48.8 1477.15,-48.8 1477.15,-84.8"/>
<text text-anchor="middle" x="1411" y="-62.6" font-family="Times,serif" font-size="14.00">MermaidComponent</text>
</g>
<!-- MermaidComponent&#45;&gt;ToolsModule -->
<g id="edge7" class="edge">
<title>MermaidComponent&#45;&gt;ToolsModule</title>
<path fill="none" stroke="black" d="M1411,-84.99C1411,-99.98 1411,-118.8 1411,-118.8 1411,-118.8 1243.94,-118.8 1243.94,-118.8"/>
<polygon fill="black" stroke="black" points="1243.94,-115.3 1233.94,-118.8 1243.94,-122.3 1243.94,-115.3"/>
</g>
<!-- OpenapiComponent -->
<g id="node8" class="node">
<title>OpenapiComponent</title>
<polygon fill="#ffffb3" stroke="black" points="1326.26,-84.8 1197.74,-84.8 1197.74,-48.8 1326.26,-48.8 1326.26,-84.8"/>
<text text-anchor="middle" x="1262" y="-62.6" font-family="Times,serif" font-size="14.00">OpenapiComponent</text>
</g>
<!-- OpenapiComponent&#45;&gt;ToolsModule -->
<g id="edge8" class="edge">
<title>OpenapiComponent&#45;&gt;ToolsModule</title>
<path fill="none" stroke="black" d="M1215.67,-84.91C1215.67,-84.91 1215.67,-103.79 1215.67,-103.79"/>
<polygon fill="black" stroke="black" points="1212.17,-103.79 1215.67,-113.79 1219.17,-103.79 1212.17,-103.79"/>
</g>
<!-- RealtimeComponent -->
<g id="node9" class="node">
<title>RealtimeComponent</title>
<polygon fill="#ffffb3" stroke="black" points="1179.87,-84.8 1048.13,-84.8 1048.13,-48.8 1179.87,-48.8 1179.87,-84.8"/>
<text text-anchor="middle" x="1114" y="-62.6" font-family="Times,serif" font-size="14.00">RealtimeComponent</text>
</g>
<!-- RealtimeComponent&#45;&gt;ToolsModule -->
<g id="edge9" class="edge">
<title>RealtimeComponent&#45;&gt;ToolsModule</title>
<path fill="none" stroke="black" d="M1161.11,-84.91C1161.11,-84.91 1161.11,-103.79 1161.11,-103.79"/>
<polygon fill="black" stroke="black" points="1157.61,-103.79 1161.11,-113.79 1164.61,-103.79 1157.61,-103.79"/>
</g>
<!-- RegexComponent -->
<g id="node10" class="node">
<title>RegexComponent</title>
<polygon fill="#ffffb3" stroke="black" points="1030.6,-84.8 913.4,-84.8 913.4,-48.8 1030.6,-48.8 1030.6,-84.8"/>
<text text-anchor="middle" x="972" y="-62.6" font-family="Times,serif" font-size="14.00">RegexComponent</text>
</g>
<!-- RegexComponent&#45;&gt;ToolsModule -->
<g id="edge10" class="edge">
<title>RegexComponent&#45;&gt;ToolsModule</title>
<path fill="none" stroke="black" d="M972,-84.99C972,-99.98 972,-118.8 972,-118.8 972,-118.8 1132.19,-118.8 1132.19,-118.8"/>
<polygon fill="black" stroke="black" points="1132.19,-122.3 1142.19,-118.8 1132.19,-115.3 1132.19,-122.3"/>
</g>
<!-- StarNoteComponent -->
<g id="node11" class="node">
<title>StarNoteComponent</title>
<polygon fill="#ffffb3" stroke="black" points="895.6,-84.8 764.4,-84.8 764.4,-48.8 895.6,-48.8 895.6,-84.8"/>
<text text-anchor="middle" x="830" y="-62.6" font-family="Times,serif" font-size="14.00">StarNoteComponent</text>
</g>
<!-- StarNoteComponent&#45;&gt;ToolsModule -->
<g id="edge11" class="edge">
<title>StarNoteComponent&#45;&gt;ToolsModule</title>
<path fill="none" stroke="black" d="M830,-84.83C830,-101.2 830,-122.8 830,-122.8 830,-122.8 1131.93,-122.8 1131.93,-122.8"/>
<polygon fill="black" stroke="black" points="1131.93,-126.3 1141.93,-122.8 1131.93,-119.3 1131.93,-126.3"/>
</g>
<!-- ToolsListComponent -->
<g id="node12" class="node">
<title>ToolsListComponent</title>
<polygon fill="#ffffb3" stroke="black" points="746.5,-84.8 611.5,-84.8 611.5,-48.8 746.5,-48.8 746.5,-84.8"/>
<text text-anchor="middle" x="679" y="-62.6" font-family="Times,serif" font-size="14.00">ToolsListComponent</text>
</g>
<!-- ToolsListComponent&#45;&gt;ToolsModule -->
<g id="edge12" class="edge">
<title>ToolsListComponent&#45;&gt;ToolsModule</title>
<path fill="none" stroke="black" d="M679,-85.1C679,-103.07 679,-127.8 679,-127.8 679,-127.8 1131.93,-127.8 1131.93,-127.8"/>
<polygon fill="black" stroke="black" points="1131.93,-131.3 1141.93,-127.8 1131.93,-124.3 1131.93,-131.3"/>
</g>
<!-- UserInfoComponent -->
<g id="node13" class="node">
<title>UserInfoComponent</title>
<polygon fill="#ffffb3" stroke="black" points="593.59,-84.8 462.41,-84.8 462.41,-48.8 593.59,-48.8 593.59,-84.8"/>
<text text-anchor="middle" x="528" y="-62.6" font-family="Times,serif" font-size="14.00">UserInfoComponent</text>
</g>
<!-- UserInfoComponent&#45;&gt;ToolsModule -->
<g id="edge13" class="edge">
<title>UserInfoComponent&#45;&gt;ToolsModule</title>
<path fill="none" stroke="black" d="M528,-84.91C528,-104.14 528,-131.8 528,-131.8 528,-131.8 1132.11,-131.8 1132.11,-131.8"/>
<polygon fill="black" stroke="black" points="1132.11,-135.3 1142.11,-131.8 1132.11,-128.3 1132.11,-135.3"/>
</g>
<!-- YearCheckComponent -->
<g id="node14" class="node">
<title>YearCheckComponent</title>
<polygon fill="#ffffb3" stroke="black" points="444.3,-84.8 299.7,-84.8 299.7,-48.8 444.3,-48.8 444.3,-84.8"/>
<text text-anchor="middle" x="372" y="-62.6" font-family="Times,serif" font-size="14.00">YearCheckComponent</text>
</g>
<!-- YearCheckComponent&#45;&gt;ToolsModule -->
<g id="edge14" class="edge">
<title>YearCheckComponent&#45;&gt;ToolsModule</title>
<path fill="none" stroke="black" d="M372,-84.83C372,-105.57 372,-136.8 372,-136.8 372,-136.8 1132.09,-136.8 1132.09,-136.8"/>
<polygon fill="black" stroke="black" points="1132.09,-140.3 1142.09,-136.8 1132.09,-133.3 1132.09,-140.3"/>
</g>
<!-- SharedModule -->
<g id="node16" class="node">
<title>SharedModule</title>
<polygon fill="#8dd3c7" stroke="black" points="276.43,-84.8 273.43,-88.8 252.43,-88.8 249.43,-84.8 177.57,-84.8 177.57,-48.8 276.43,-48.8 276.43,-84.8"/>
<text text-anchor="middle" x="227" y="-62.6" font-family="Times,serif" font-size="14.00">SharedModule</text>
</g>
<!-- SharedModule&#45;&gt;ToolsModule -->
<g id="edge15" class="edge">
<title>SharedModule&#45;&gt;ToolsModule</title>
<path fill="none" stroke="black" d="M227,-85.09C227,-107.01 227,-140.8 227,-140.8 227,-140.8 1131.97,-140.8 1131.97,-140.8"/>
<polygon fill="black" stroke="black" points="1131.97,-144.3 1141.97,-140.8 1131.97,-137.3 1131.97,-144.3"/>
</g>
<!-- ToolsRoutingModule -->
<g id="node17" class="node">
<title>ToolsRoutingModule</title>
<polygon fill="#8dd3c7" stroke="black" points="160.06,-84.8 157.06,-88.8 136.06,-88.8 133.06,-84.8 23.94,-84.8 23.94,-48.8 160.06,-48.8 160.06,-84.8"/>
<text text-anchor="middle" x="92" y="-62.6" font-family="Times,serif" font-size="14.00">ToolsRoutingModule</text>
</g>
<!-- ToolsRoutingModule&#45;&gt;ToolsModule -->
<g id="edge16" class="edge">
<title>ToolsRoutingModule&#45;&gt;ToolsModule</title>
<path fill="none" stroke="black" d="M92,-85.12C92,-108.46 92,-145.8 92,-145.8 92,-145.8 1131.95,-145.8 1131.95,-145.8"/>
<polygon fill="black" stroke="black" points="1131.95,-149.3 1141.95,-145.8 1131.95,-142.3 1131.95,-149.3"/>
</g>
</g>
</svg>
