<?xml version="1.0" encoding="UTF-8" standalone="no"?>
<!DOCTYPE svg PUBLIC "-//W3C//DTD SVG 1.1//EN"
 "http://www.w3.org/Graphics/SVG/1.1/DTD/svg11.dtd">
<!-- Generated by graphviz version 2.47.3 (20210619.1520)
 -->
<!-- Title: dependencies Pages: 1 -->
<svg width="2041pt" height="174pt"
 viewBox="0.00 0.00 2041.00 173.80" xmlns="http://www.w3.org/2000/svg" xmlns:xlink="http://www.w3.org/1999/xlink">
<g id="graph0" class="graph" transform="scale(1 1) rotate(0) translate(4 169.8)">
<title>dependencies</title>
<polygon fill="white" stroke="transparent" points="-4,4 -4,-169.8 2037,-169.8 2037,4 -4,4"/>
<text text-anchor="middle" x="1016.5" y="-8.2" font-family="sans-serif" font-size="14.00">dependencies</text>
<g id="clust1" class="cluster">
<title>cluster_ToolsModule</title>
<polygon fill="none" stroke="black" stroke-dasharray="1,5" points="8,-32.8 8,-157.8 2025,-157.8 2025,-32.8 8,-32.8"/>
</g>
<g id="clust14" class="cluster">
<title>cluster_ToolsModule_imports</title>
<polygon fill="none" stroke="black" points="1749,-40.8 1749,-92.8 2017,-92.8 2017,-40.8 1749,-40.8"/>
</g>
<g id="clust2" class="cluster">
<title>cluster_ToolsModule_declarations</title>
<polygon fill="none" stroke="black" points="16,-40.8 16,-92.8 1741,-92.8 1741,-40.8 16,-40.8"/>
</g>
<!-- AmazonAssociateComponent -->
<g id="node1" class="node">
<title>AmazonAssociateComponent</title>
<polygon fill="#ffffb3" stroke="black" points="1732.68,-84.8 1549.32,-84.8 1549.32,-48.8 1732.68,-48.8 1732.68,-84.8"/>
<text text-anchor="middle" x="1641" y="-62.6" font-family="Times,serif" font-size="14.00">AmazonAssociateComponent</text>
</g>
<!-- ToolsModule -->
<g id="node12" class="node">
<title>ToolsModule</title>
<polygon fill="#8dd3c7" stroke="black" points="1031.94,-149.8 1028.94,-153.8 1007.94,-153.8 1004.94,-149.8 940.06,-149.8 940.06,-113.8 1031.94,-113.8 1031.94,-149.8"/>
<text text-anchor="middle" x="986" y="-127.6" font-family="Times,serif" font-size="14.00">ToolsModule</text>
</g>
<!-- AmazonAssociateComponent&#45;&gt;ToolsModule -->
<g id="edge1" class="edge">
<title>AmazonAssociateComponent&#45;&gt;ToolsModule</title>
<path fill="none" stroke="black" d="M1641,-85.02C1641,-105.17 1641,-134.8 1641,-134.8 1641,-134.8 1041.8,-134.8 1041.8,-134.8"/>
<polygon fill="black" stroke="black" points="1041.8,-131.3 1031.8,-134.8 1041.8,-138.3 1041.8,-131.3"/>
</g>
<!-- Base64Component -->
<g id="node2" class="node">
<title>Base64Component</title>
<polygon fill="#ffffb3" stroke="black" points="1531.04,-84.8 1408.96,-84.8 1408.96,-48.8 1531.04,-48.8 1531.04,-84.8"/>
<text text-anchor="middle" x="1470" y="-62.6" font-family="Times,serif" font-size="14.00">Base64Component</text>
</g>
<!-- Base64Component&#45;&gt;ToolsModule -->
<g id="edge2" class="edge">
<title>Base64Component&#45;&gt;ToolsModule</title>
<path fill="none" stroke="black" d="M1470,-85.02C1470,-103.63 1470,-129.8 1470,-129.8 1470,-129.8 1041.97,-129.8 1041.97,-129.8"/>
<polygon fill="black" stroke="black" points="1041.97,-126.3 1031.97,-129.8 1041.97,-133.3 1041.97,-126.3"/>
</g>
<!-- JsonFormatterComponent -->
<g id="node3" class="node">
<title>JsonFormatterComponent</title>
<polygon fill="#ffffb3" stroke="black" points="1390.93,-84.8 1229.07,-84.8 1229.07,-48.8 1390.93,-48.8 1390.93,-84.8"/>
<text text-anchor="middle" x="1310" y="-62.6" font-family="Times,serif" font-size="14.00">JsonFormatterComponent</text>
</g>
<!-- JsonFormatterComponent&#45;&gt;ToolsModule -->
<g id="edge3" class="edge">
<title>JsonFormatterComponent&#45;&gt;ToolsModule</title>
<path fill="none" stroke="black" d="M1310,-84.83C1310,-101.86 1310,-124.8 1310,-124.8 1310,-124.8 1041.73,-124.8 1041.73,-124.8"/>
<polygon fill="black" stroke="black" points="1041.73,-121.3 1031.73,-124.8 1041.73,-128.3 1041.73,-121.3"/>
</g>
<!-- JsonTyperComponent -->
<g id="node4" class="node">
<title>JsonTyperComponent</title>
<polygon fill="#ffffb3" stroke="black" points="1210.65,-84.8 1071.35,-84.8 1071.35,-48.8 1210.65,-48.8 1210.65,-84.8"/>
<text text-anchor="middle" x="1141" y="-62.6" font-family="Times,serif" font-size="14.00">JsonTyperComponent</text>
</g>
<!-- JsonTyperComponent&#45;&gt;ToolsModule -->
<g id="edge4" class="edge">
<title>JsonTyperComponent&#45;&gt;ToolsModule</title>
<path fill="none" stroke="black" d="M1141,-85.04C1141,-100.37 1141,-119.8 1141,-119.8 1141,-119.8 1042.09,-119.8 1042.09,-119.8"/>
<polygon fill="black" stroke="black" points="1042.09,-116.3 1032.09,-119.8 1042.09,-123.3 1042.09,-116.3"/>
</g>
<!-- MdwriterComponent -->
<g id="node5" class="node">
<title>MdwriterComponent</title>
<polygon fill="#ffffb3" stroke="black" points="1053.2,-84.8 918.8,-84.8 918.8,-48.8 1053.2,-48.8 1053.2,-84.8"/>
<text text-anchor="middle" x="986" y="-62.6" font-family="Times,serif" font-size="14.00">MdwriterComponent</text>
</g>
<!-- MdwriterComponent&#45;&gt;ToolsModule -->
<g id="edge5" class="edge">
<title>MdwriterComponent&#45;&gt;ToolsModule</title>
<path fill="none" stroke="black" d="M986,-84.91C986,-84.91 986,-103.79 986,-103.79"/>
<polygon fill="black" stroke="black" points="982.5,-103.79 986,-113.79 989.5,-103.79 982.5,-103.79"/>
</g>
<!-- OpenapiComponent -->
<g id="node6" class="node">
<title>OpenapiComponent</title>
<polygon fill="#ffffb3" stroke="black" points="901.26,-84.8 772.74,-84.8 772.74,-48.8 901.26,-48.8 901.26,-84.8"/>
<text text-anchor="middle" x="837" y="-62.6" font-family="Times,serif" font-size="14.00">OpenapiComponent</text>
</g>
<!-- OpenapiComponent&#45;&gt;ToolsModule -->
<g id="edge6" class="edge">
<title>OpenapiComponent&#45;&gt;ToolsModule</title>
<path fill="none" stroke="black" d="M837,-85.04C837,-100.37 837,-119.8 837,-119.8 837,-119.8 930.08,-119.8 930.08,-119.8"/>
<polygon fill="black" stroke="black" points="930.08,-123.3 940.08,-119.8 930.08,-116.3 930.08,-123.3"/>
</g>
<!-- RealtimeComponent -->
<g id="node7" class="node">
<title>RealtimeComponent</title>
<polygon fill="#ffffb3" stroke="black" points="754.88,-84.8 623.12,-84.8 623.12,-48.8 754.88,-48.8 754.88,-84.8"/>
<text text-anchor="middle" x="689" y="-62.6" font-family="Times,serif" font-size="14.00">RealtimeComponent</text>
</g>
<!-- RealtimeComponent&#45;&gt;ToolsModule -->
<g id="edge7" class="edge">
<title>RealtimeComponent&#45;&gt;ToolsModule</title>
<path fill="none" stroke="black" d="M689,-84.83C689,-101.86 689,-124.8 689,-124.8 689,-124.8 930.24,-124.8 930.24,-124.8"/>
<polygon fill="black" stroke="black" points="930.24,-128.3 940.24,-124.8 930.24,-121.3 930.24,-128.3"/>
</g>
<!-- RegexComponent -->
<g id="node8" class="node">
<title>RegexComponent</title>
<polygon fill="#ffffb3" stroke="black" points="605.6,-84.8 488.4,-84.8 488.4,-48.8 605.6,-48.8 605.6,-84.8"/>
<text text-anchor="middle" x="547" y="-62.6" font-family="Times,serif" font-size="14.00">RegexComponent</text>
</g>
<!-- RegexComponent&#45;&gt;ToolsModule -->
<g id="edge8" class="edge">
<title>RegexComponent&#45;&gt;ToolsModule</title>
<path fill="none" stroke="black" d="M547,-85.02C547,-103.63 547,-129.8 547,-129.8 547,-129.8 930.26,-129.8 930.26,-129.8"/>
<polygon fill="black" stroke="black" points="930.26,-133.3 940.26,-129.8 930.26,-126.3 930.26,-133.3"/>
</g>
<!-- ToolsListComponent -->
<g id="node9" class="node">
<title>ToolsListComponent</title>
<polygon fill="#ffffb3" stroke="black" points="470.5,-84.8 335.5,-84.8 335.5,-48.8 470.5,-48.8 470.5,-84.8"/>
<text text-anchor="middle" x="403" y="-62.6" font-family="Times,serif" font-size="14.00">ToolsListComponent</text>
</g>
<!-- ToolsListComponent&#45;&gt;ToolsModule -->
<g id="edge9" class="edge">
<title>ToolsListComponent&#45;&gt;ToolsModule</title>
<path fill="none" stroke="black" d="M403,-85.02C403,-105.17 403,-134.8 403,-134.8 403,-134.8 930.25,-134.8 930.25,-134.8"/>
<polygon fill="black" stroke="black" points="930.25,-138.3 940.25,-134.8 930.25,-131.3 930.25,-138.3"/>
</g>
<!-- UserInfoComponent -->
<g id="node10" class="node">
<title>UserInfoComponent</title>
<polygon fill="#ffffb3" stroke="black" points="317.58,-84.8 186.42,-84.8 186.42,-48.8 317.58,-48.8 317.58,-84.8"/>
<text text-anchor="middle" x="252" y="-62.6" font-family="Times,serif" font-size="14.00">UserInfoComponent</text>
</g>
<!-- UserInfoComponent&#45;&gt;ToolsModule -->
<g id="edge10" class="edge">
<title>UserInfoComponent&#45;&gt;ToolsModule</title>
<path fill="none" stroke="black" d="M252,-84.84C252,-106.46 252,-139.8 252,-139.8 252,-139.8 930.09,-139.8 930.09,-139.8"/>
<polygon fill="black" stroke="black" points="930.09,-143.3 940.09,-139.8 930.08,-136.3 930.09,-143.3"/>
</g>
<!-- YearCheckComponent -->
<g id="node11" class="node">
<title>YearCheckComponent</title>
<polygon fill="#ffffb3" stroke="black" points="168.29,-84.8 23.71,-84.8 23.71,-48.8 168.29,-48.8 168.29,-84.8"/>
<text text-anchor="middle" x="96" y="-62.6" font-family="Times,serif" font-size="14.00">YearCheckComponent</text>
</g>
<!-- YearCheckComponent&#45;&gt;ToolsModule -->
<g id="edge11" class="edge">
<title>YearCheckComponent&#45;&gt;ToolsModule</title>
<path fill="none" stroke="black" d="M96,-84.89C96,-107.93 96,-144.8 96,-144.8 96,-144.8 930.02,-144.8 930.02,-144.8"/>
<polygon fill="black" stroke="black" points="930.02,-148.3 940.02,-144.8 930.02,-141.3 930.02,-148.3"/>
</g>
<!-- SharedModule -->
<g id="node13" class="node">
<title>SharedModule</title>
<polygon fill="#8dd3c7" stroke="black" points="2009.42,-84.8 2006.42,-88.8 1985.42,-88.8 1982.42,-84.8 1910.58,-84.8 1910.58,-48.8 2009.42,-48.8 2009.42,-84.8"/>
<text text-anchor="middle" x="1960" y="-62.6" font-family="Times,serif" font-size="14.00">SharedModule</text>
</g>
<!-- SharedModule&#45;&gt;ToolsModule -->
<g id="edge12" class="edge">
<title>SharedModule&#45;&gt;ToolsModule</title>
<path fill="none" stroke="black" d="M1960,-84.89C1960,-107.93 1960,-144.8 1960,-144.8 1960,-144.8 1042,-144.8 1042,-144.8"/>
<polygon fill="black" stroke="black" points="1042,-141.3 1032,-144.8 1042,-148.3 1042,-141.3"/>
</g>
<!-- ToolsRoutingModule -->
<g id="node14" class="node">
<title>ToolsRoutingModule</title>
<polygon fill="#8dd3c7" stroke="black" points="1893.06,-84.8 1890.06,-88.8 1869.06,-88.8 1866.06,-84.8 1756.94,-84.8 1756.94,-48.8 1893.06,-48.8 1893.06,-84.8"/>
<text text-anchor="middle" x="1825" y="-62.6" font-family="Times,serif" font-size="14.00">ToolsRoutingModule</text>
</g>
<!-- ToolsRoutingModule&#45;&gt;ToolsModule -->
<g id="edge13" class="edge">
<title>ToolsRoutingModule&#45;&gt;ToolsModule</title>
<path fill="none" stroke="black" d="M1825,-84.84C1825,-106.46 1825,-139.8 1825,-139.8 1825,-139.8 1042,-139.8 1042,-139.8"/>
<polygon fill="black" stroke="black" points="1042,-136.3 1032,-139.8 1042,-143.3 1042,-136.3"/>
</g>
</g>
</svg>
