<?xml version="1.0" encoding="UTF-8" standalone="no"?>
<!DOCTYPE svg PUBLIC "-//W3C//DTD SVG 1.1//EN"
 "http://www.w3.org/Graphics/SVG/1.1/DTD/svg11.dtd">
<!-- Generated by graphviz version 3.0.0 (20220226.1711)
 -->
<!-- Title: dependencies Pages: 1 -->
<svg width="2039pt" height="174pt"
 viewBox="0.00 0.00 2039.00 173.80" xmlns="http://www.w3.org/2000/svg" xmlns:xlink="http://www.w3.org/1999/xlink">
<g id="graph0" class="graph" transform="scale(1 1) rotate(0) translate(4 169.8)">
<title>dependencies</title>
<polygon fill="white" stroke="transparent" points="-4,4 -4,-169.8 2035,-169.8 2035,4 -4,4"/>
<text text-anchor="middle" x="1015.5" y="-8.2" font-family="sans-serif" font-size="14.00">dependencies</text>
<g id="clust1" class="cluster">
<title>cluster_ToolsModule</title>
<polygon fill="none" stroke="black" stroke-dasharray="1,5" points="8,-32.8 8,-157.8 2023,-157.8 2023,-32.8 8,-32.8"/>
</g>
<g id="clust14" class="cluster">
<title>cluster_ToolsModule_imports</title>
<polygon fill="none" stroke="black" points="1747,-40.8 1747,-92.8 2015,-92.8 2015,-40.8 1747,-40.8"/>
</g>
<g id="clust2" class="cluster">
<title>cluster_ToolsModule_declarations</title>
<polygon fill="none" stroke="black" points="16,-40.8 16,-92.8 1739,-92.8 1739,-40.8 16,-40.8"/>
</g>
<!-- AmazonAssociateComponent -->
<g id="node1" class="node">
<title>AmazonAssociateComponent</title>
<polygon fill="#ffffb3" stroke="black" points="1730.69,-84.8 1547.31,-84.8 1547.31,-48.8 1730.69,-48.8 1730.69,-84.8"/>
<text text-anchor="middle" x="1639" y="-62.6" font-family="Times,serif" font-size="14.00">AmazonAssociateComponent</text>
</g>
<!-- ToolsModule -->
<g id="node12" class="node">
<title>ToolsModule</title>
<polygon fill="#8dd3c7" stroke="black" points="1029.94,-149.8 1026.94,-153.8 1005.94,-153.8 1002.94,-149.8 938.06,-149.8 938.06,-113.8 1029.94,-113.8 1029.94,-149.8"/>
<text text-anchor="middle" x="984" y="-127.6" font-family="Times,serif" font-size="14.00">ToolsModule</text>
</g>
<!-- AmazonAssociateComponent&#45;&gt;ToolsModule -->
<g id="edge1" class="edge">
<title>AmazonAssociateComponent&#45;&gt;ToolsModule</title>
<path fill="none" stroke="black" d="M1639,-85.02C1639,-105.17 1639,-134.8 1639,-134.8 1639,-134.8 1039.8,-134.8 1039.8,-134.8"/>
<polygon fill="black" stroke="black" points="1039.8,-131.3 1029.8,-134.8 1039.8,-138.3 1039.8,-131.3"/>
</g>
<!-- Base64Component -->
<g id="node2" class="node">
<title>Base64Component</title>
<polygon fill="#ffffb3" stroke="black" points="1529.05,-84.8 1406.95,-84.8 1406.95,-48.8 1529.05,-48.8 1529.05,-84.8"/>
<text text-anchor="middle" x="1468" y="-62.6" font-family="Times,serif" font-size="14.00">Base64Component</text>
</g>
<!-- Base64Component&#45;&gt;ToolsModule -->
<g id="edge2" class="edge">
<title>Base64Component&#45;&gt;ToolsModule</title>
<path fill="none" stroke="black" d="M1468,-85.02C1468,-103.63 1468,-129.8 1468,-129.8 1468,-129.8 1039.97,-129.8 1039.97,-129.8"/>
<polygon fill="black" stroke="black" points="1039.97,-126.3 1029.97,-129.8 1039.97,-133.3 1039.97,-126.3"/>
</g>
<!-- JsonFormatterComponent -->
<g id="node3" class="node">
<title>JsonFormatterComponent</title>
<polygon fill="#ffffb3" stroke="black" points="1388.94,-84.8 1227.06,-84.8 1227.06,-48.8 1388.94,-48.8 1388.94,-84.8"/>
<text text-anchor="middle" x="1308" y="-62.6" font-family="Times,serif" font-size="14.00">JsonFormatterComponent</text>
</g>
<!-- JsonFormatterComponent&#45;&gt;ToolsModule -->
<g id="edge3" class="edge">
<title>JsonFormatterComponent&#45;&gt;ToolsModule</title>
<path fill="none" stroke="black" d="M1308,-84.83C1308,-101.86 1308,-124.8 1308,-124.8 1308,-124.8 1039.73,-124.8 1039.73,-124.8"/>
<polygon fill="black" stroke="black" points="1039.73,-121.3 1029.73,-124.8 1039.73,-128.3 1039.73,-121.3"/>
</g>
<!-- JsonTyperComponent -->
<g id="node4" class="node">
<title>JsonTyperComponent</title>
<polygon fill="#ffffb3" stroke="black" points="1208.66,-84.8 1069.34,-84.8 1069.34,-48.8 1208.66,-48.8 1208.66,-84.8"/>
<text text-anchor="middle" x="1139" y="-62.6" font-family="Times,serif" font-size="14.00">JsonTyperComponent</text>
</g>
<!-- JsonTyperComponent&#45;&gt;ToolsModule -->
<g id="edge4" class="edge">
<title>JsonTyperComponent&#45;&gt;ToolsModule</title>
<path fill="none" stroke="black" d="M1139,-85.04C1139,-100.37 1139,-119.8 1139,-119.8 1139,-119.8 1040.09,-119.8 1040.09,-119.8"/>
<polygon fill="black" stroke="black" points="1040.09,-116.3 1030.09,-119.8 1040.09,-123.3 1040.09,-116.3"/>
</g>
<!-- MdwriterComponent -->
<g id="node5" class="node">
<title>MdwriterComponent</title>
<polygon fill="#ffffb3" stroke="black" points="1051.21,-84.8 916.79,-84.8 916.79,-48.8 1051.21,-48.8 1051.21,-84.8"/>
<text text-anchor="middle" x="984" y="-62.6" font-family="Times,serif" font-size="14.00">MdwriterComponent</text>
</g>
<!-- MdwriterComponent&#45;&gt;ToolsModule -->
<g id="edge5" class="edge">
<title>MdwriterComponent&#45;&gt;ToolsModule</title>
<path fill="none" stroke="black" d="M984,-84.91C984,-84.91 984,-103.79 984,-103.79"/>
<polygon fill="black" stroke="black" points="980.5,-103.79 984,-113.79 987.5,-103.79 980.5,-103.79"/>
</g>
<!-- MermaidComponent -->
<g id="node6" class="node">
<title>MermaidComponent</title>
<polygon fill="#ffffb3" stroke="black" points="899.15,-84.8 766.85,-84.8 766.85,-48.8 899.15,-48.8 899.15,-84.8"/>
<text text-anchor="middle" x="833" y="-62.6" font-family="Times,serif" font-size="14.00">MermaidComponent</text>
</g>
<!-- MermaidComponent&#45;&gt;ToolsModule -->
<g id="edge6" class="edge">
<title>MermaidComponent&#45;&gt;ToolsModule</title>
<path fill="none" stroke="black" d="M833,-85.04C833,-100.37 833,-119.8 833,-119.8 833,-119.8 927.87,-119.8 927.87,-119.8"/>
<polygon fill="black" stroke="black" points="927.87,-123.3 937.87,-119.8 927.87,-116.3 927.87,-123.3"/>
</g>
<!-- OpenapiComponent -->
<g id="node7" class="node">
<title>OpenapiComponent</title>
<polygon fill="#ffffb3" stroke="black" points="748.26,-84.8 619.74,-84.8 619.74,-48.8 748.26,-48.8 748.26,-84.8"/>
<text text-anchor="middle" x="684" y="-62.6" font-family="Times,serif" font-size="14.00">OpenapiComponent</text>
</g>
<!-- OpenapiComponent&#45;&gt;ToolsModule -->
<g id="edge7" class="edge">
<title>OpenapiComponent&#45;&gt;ToolsModule</title>
<path fill="none" stroke="black" d="M684,-84.83C684,-101.86 684,-124.8 684,-124.8 684,-124.8 928.11,-124.8 928.11,-124.8"/>
<polygon fill="black" stroke="black" points="928.11,-128.3 938.11,-124.8 928.11,-121.3 928.11,-128.3"/>
</g>
<!-- RealtimeComponent -->
<g id="node8" class="node">
<title>RealtimeComponent</title>
<polygon fill="#ffffb3" stroke="black" points="601.87,-84.8 470.13,-84.8 470.13,-48.8 601.87,-48.8 601.87,-84.8"/>
<text text-anchor="middle" x="536" y="-62.6" font-family="Times,serif" font-size="14.00">RealtimeComponent</text>
</g>
<!-- RealtimeComponent&#45;&gt;ToolsModule -->
<g id="edge8" class="edge">
<title>RealtimeComponent&#45;&gt;ToolsModule</title>
<path fill="none" stroke="black" d="M536,-85.02C536,-103.63 536,-129.8 536,-129.8 536,-129.8 928.16,-129.8 928.16,-129.8"/>
<polygon fill="black" stroke="black" points="928.16,-133.3 938.16,-129.8 928.16,-126.3 928.16,-133.3"/>
</g>
<!-- RegexComponent -->
<g id="node9" class="node">
<title>RegexComponent</title>
<polygon fill="#ffffb3" stroke="black" points="452.6,-84.8 335.4,-84.8 335.4,-48.8 452.6,-48.8 452.6,-84.8"/>
<text text-anchor="middle" x="394" y="-62.6" font-family="Times,serif" font-size="14.00">RegexComponent</text>
</g>
<!-- RegexComponent&#45;&gt;ToolsModule -->
<g id="edge9" class="edge">
<title>RegexComponent&#45;&gt;ToolsModule</title>
<path fill="none" stroke="black" d="M394,-85.02C394,-105.17 394,-134.8 394,-134.8 394,-134.8 928.19,-134.8 928.19,-134.8"/>
<polygon fill="black" stroke="black" points="928.19,-138.3 938.19,-134.8 928.19,-131.3 928.19,-138.3"/>
</g>
<!-- UserInfoComponent -->
<g id="node10" class="node">
<title>UserInfoComponent</title>
<polygon fill="#ffffb3" stroke="black" points="317.59,-84.8 186.41,-84.8 186.41,-48.8 317.59,-48.8 317.59,-84.8"/>
<text text-anchor="middle" x="252" y="-62.6" font-family="Times,serif" font-size="14.00">UserInfoComponent</text>
</g>
<!-- UserInfoComponent&#45;&gt;ToolsModule -->
<g id="edge10" class="edge">
<title>UserInfoComponent&#45;&gt;ToolsModule</title>
<path fill="none" stroke="black" d="M252,-84.84C252,-106.46 252,-139.8 252,-139.8 252,-139.8 928.21,-139.8 928.21,-139.8"/>
<polygon fill="black" stroke="black" points="928.21,-143.3 938.21,-139.8 928.21,-136.3 928.21,-143.3"/>
</g>
<!-- YearCheckComponent -->
<g id="node11" class="node">
<title>YearCheckComponent</title>
<polygon fill="#ffffb3" stroke="black" points="168.3,-84.8 23.7,-84.8 23.7,-48.8 168.3,-48.8 168.3,-84.8"/>
<text text-anchor="middle" x="96" y="-62.6" font-family="Times,serif" font-size="14.00">YearCheckComponent</text>
</g>
<!-- YearCheckComponent&#45;&gt;ToolsModule -->
<g id="edge11" class="edge">
<title>YearCheckComponent&#45;&gt;ToolsModule</title>
<path fill="none" stroke="black" d="M96,-84.89C96,-107.93 96,-144.8 96,-144.8 96,-144.8 928.13,-144.8 928.13,-144.8"/>
<polygon fill="black" stroke="black" points="928.13,-148.3 938.13,-144.8 928.13,-141.3 928.13,-148.3"/>
</g>
<!-- SharedModule -->
<g id="node13" class="node">
<title>SharedModule</title>
<polygon fill="#8dd3c7" stroke="black" points="2007.43,-84.8 2004.43,-88.8 1983.43,-88.8 1980.43,-84.8 1908.57,-84.8 1908.57,-48.8 2007.43,-48.8 2007.43,-84.8"/>
<text text-anchor="middle" x="1958" y="-62.6" font-family="Times,serif" font-size="14.00">SharedModule</text>
</g>
<!-- SharedModule&#45;&gt;ToolsModule -->
<g id="edge12" class="edge">
<title>SharedModule&#45;&gt;ToolsModule</title>
<path fill="none" stroke="black" d="M1958,-84.89C1958,-107.93 1958,-144.8 1958,-144.8 1958,-144.8 1040,-144.8 1040,-144.8"/>
<polygon fill="black" stroke="black" points="1040,-141.3 1030,-144.8 1040,-148.3 1040,-141.3"/>
</g>
<!-- ToolsRoutingModule -->
<g id="node14" class="node">
<title>ToolsRoutingModule</title>
<polygon fill="#8dd3c7" stroke="black" points="1891.06,-84.8 1888.06,-88.8 1867.06,-88.8 1864.06,-84.8 1754.94,-84.8 1754.94,-48.8 1891.06,-48.8 1891.06,-84.8"/>
<text text-anchor="middle" x="1823" y="-62.6" font-family="Times,serif" font-size="14.00">ToolsRoutingModule</text>
</g>
<!-- ToolsRoutingModule&#45;&gt;ToolsModule -->
<g id="edge13" class="edge">
<title>ToolsRoutingModule&#45;&gt;ToolsModule</title>
<path fill="none" stroke="black" d="M1823,-84.84C1823,-106.46 1823,-139.8 1823,-139.8 1823,-139.8 1040,-139.8 1040,-139.8"/>
<polygon fill="black" stroke="black" points="1040,-136.3 1030,-139.8 1040,-143.3 1040,-136.3"/>
</g>
</g>
</svg>
