<?xml version="1.0" encoding="UTF-8" standalone="no"?>
<!DOCTYPE svg PUBLIC "-//W3C//DTD SVG 1.1//EN"
 "http://www.w3.org/Graphics/SVG/1.1/DTD/svg11.dtd">
<!-- Generated by graphviz version 2.47.3 (20210619.1520)
 -->
<!-- Title: dependencies Pages: 1 -->
<svg width="1446pt" height="174pt"
 viewBox="0.00 0.00 1446.00 173.80" xmlns="http://www.w3.org/2000/svg" xmlns:xlink="http://www.w3.org/1999/xlink">
<g id="graph0" class="graph" transform="scale(1 1) rotate(0) translate(4 169.8)">
<title>dependencies</title>
<polygon fill="white" stroke="transparent" points="-4,4 -4,-169.8 1442,-169.8 1442,4 -4,4"/>
<text text-anchor="middle" x="719" y="-8.2" font-family="sans-serif" font-size="14.00">dependencies</text>
<g id="clust1" class="cluster">
<title>cluster_ToolsModule</title>
<polygon fill="none" stroke="black" stroke-dasharray="1,5" points="8,-32.8 8,-157.8 1430,-157.8 1430,-32.8 8,-32.8"/>
</g>
<g id="clust2" class="cluster">
<title>cluster_ToolsModule_declarations</title>
<polygon fill="none" stroke="black" points="292,-40.8 292,-92.8 1422,-92.8 1422,-40.8 292,-40.8"/>
</g>
<g id="clust10" class="cluster">
<title>cluster_ToolsModule_imports</title>
<polygon fill="none" stroke="black" points="16,-40.8 16,-92.8 284,-92.8 284,-40.8 16,-40.8"/>
</g>
<!-- AmazonAssociateComponent -->
<g id="node1" class="node">
<title>AmazonAssociateComponent</title>
<polygon fill="#ffffb3" stroke="black" points="1413.68,-84.8 1230.32,-84.8 1230.32,-48.8 1413.68,-48.8 1413.68,-84.8"/>
<text text-anchor="middle" x="1322" y="-62.6" font-family="Times,serif" font-size="14.00">AmazonAssociateComponent</text>
</g>
<!-- ToolsModule -->
<g id="node8" class="node">
<title>ToolsModule</title>
<polygon fill="#8dd3c7" stroke="black" points="713.94,-149.8 710.94,-153.8 689.94,-153.8 686.94,-149.8 622.06,-149.8 622.06,-113.8 713.94,-113.8 713.94,-149.8"/>
<text text-anchor="middle" x="668" y="-127.6" font-family="Times,serif" font-size="14.00">ToolsModule</text>
</g>
<!-- AmazonAssociateComponent&#45;&gt;ToolsModule -->
<g id="edge1" class="edge">
<title>AmazonAssociateComponent&#45;&gt;ToolsModule</title>
<path fill="none" stroke="black" d="M1322,-84.81C1322,-107.29 1322,-142.8 1322,-142.8 1322,-142.8 723.73,-142.8 723.73,-142.8"/>
<polygon fill="black" stroke="black" points="723.73,-139.3 713.73,-142.8 723.73,-146.3 723.73,-139.3"/>
</g>
<!-- Base64Component -->
<g id="node2" class="node">
<title>Base64Component</title>
<polygon fill="#ffffb3" stroke="black" points="1212.04,-84.8 1089.96,-84.8 1089.96,-48.8 1212.04,-48.8 1212.04,-84.8"/>
<text text-anchor="middle" x="1151" y="-62.6" font-family="Times,serif" font-size="14.00">Base64Component</text>
</g>
<!-- Base64Component&#45;&gt;ToolsModule -->
<g id="edge2" class="edge">
<title>Base64Component&#45;&gt;ToolsModule</title>
<path fill="none" stroke="black" d="M1151,-84.93C1151,-105.37 1151,-135.8 1151,-135.8 1151,-135.8 723.87,-135.8 723.87,-135.8"/>
<polygon fill="black" stroke="black" points="723.87,-132.3 713.87,-135.8 723.87,-139.3 723.87,-132.3"/>
</g>
<!-- JsonFormatterComponent -->
<g id="node3" class="node">
<title>JsonFormatterComponent</title>
<polygon fill="#ffffb3" stroke="black" points="1071.93,-84.8 910.07,-84.8 910.07,-48.8 1071.93,-48.8 1071.93,-84.8"/>
<text text-anchor="middle" x="991" y="-62.6" font-family="Times,serif" font-size="14.00">JsonFormatterComponent</text>
</g>
<!-- JsonFormatterComponent&#45;&gt;ToolsModule -->
<g id="edge3" class="edge">
<title>JsonFormatterComponent&#45;&gt;ToolsModule</title>
<path fill="none" stroke="black" d="M991,-85.07C991,-103.36 991,-128.8 991,-128.8 991,-128.8 723.93,-128.8 723.93,-128.8"/>
<polygon fill="black" stroke="black" points="723.94,-125.3 713.93,-128.8 723.93,-132.3 723.94,-125.3"/>
</g>
<!-- JsonTyperComponent -->
<g id="node4" class="node">
<title>JsonTyperComponent</title>
<polygon fill="#ffffb3" stroke="black" points="891.65,-84.8 752.35,-84.8 752.35,-48.8 891.65,-48.8 891.65,-84.8"/>
<text text-anchor="middle" x="822" y="-62.6" font-family="Times,serif" font-size="14.00">JsonTyperComponent</text>
</g>
<!-- JsonTyperComponent&#45;&gt;ToolsModule -->
<g id="edge4" class="edge">
<title>JsonTyperComponent&#45;&gt;ToolsModule</title>
<path fill="none" stroke="black" d="M822,-84.81C822,-100.85 822,-121.8 822,-121.8 822,-121.8 723.79,-121.8 723.79,-121.8"/>
<polygon fill="black" stroke="black" points="723.79,-118.3 713.79,-121.8 723.79,-125.3 723.79,-118.3"/>
</g>
<!-- RealtimeComponent -->
<g id="node5" class="node">
<title>RealtimeComponent</title>
<polygon fill="#ffffb3" stroke="black" points="733.88,-84.8 602.12,-84.8 602.12,-48.8 733.88,-48.8 733.88,-84.8"/>
<text text-anchor="middle" x="668" y="-62.6" font-family="Times,serif" font-size="14.00">RealtimeComponent</text>
</g>
<!-- RealtimeComponent&#45;&gt;ToolsModule -->
<g id="edge5" class="edge">
<title>RealtimeComponent&#45;&gt;ToolsModule</title>
<path fill="none" stroke="black" d="M668,-84.91C668,-84.91 668,-103.79 668,-103.79"/>
<polygon fill="black" stroke="black" points="664.5,-103.79 668,-113.79 671.5,-103.79 664.5,-103.79"/>
</g>
<!-- ToolsListComponent -->
<g id="node6" class="node">
<title>ToolsListComponent</title>
<polygon fill="#ffffb3" stroke="black" points="584.5,-84.8 449.5,-84.8 449.5,-48.8 584.5,-48.8 584.5,-84.8"/>
<text text-anchor="middle" x="517" y="-62.6" font-family="Times,serif" font-size="14.00">ToolsListComponent</text>
</g>
<!-- ToolsListComponent&#45;&gt;ToolsModule -->
<g id="edge6" class="edge">
<title>ToolsListComponent&#45;&gt;ToolsModule</title>
<path fill="none" stroke="black" d="M517,-84.81C517,-100.85 517,-121.8 517,-121.8 517,-121.8 611.87,-121.8 611.87,-121.8"/>
<polygon fill="black" stroke="black" points="611.87,-125.3 621.87,-121.8 611.87,-118.3 611.87,-125.3"/>
</g>
<!-- UserInfoComponent -->
<g id="node7" class="node">
<title>UserInfoComponent</title>
<polygon fill="#ffffb3" stroke="black" points="431.58,-84.8 300.42,-84.8 300.42,-48.8 431.58,-48.8 431.58,-84.8"/>
<text text-anchor="middle" x="366" y="-62.6" font-family="Times,serif" font-size="14.00">UserInfoComponent</text>
</g>
<!-- UserInfoComponent&#45;&gt;ToolsModule -->
<g id="edge7" class="edge">
<title>UserInfoComponent&#45;&gt;ToolsModule</title>
<path fill="none" stroke="black" d="M366,-85.07C366,-103.36 366,-128.8 366,-128.8 366,-128.8 612.13,-128.8 612.13,-128.8"/>
<polygon fill="black" stroke="black" points="612.13,-132.3 622.13,-128.8 612.13,-125.3 612.13,-132.3"/>
</g>
<!-- SharedModule -->
<g id="node9" class="node">
<title>SharedModule</title>
<polygon fill="#8dd3c7" stroke="black" points="276.42,-84.8 273.42,-88.8 252.42,-88.8 249.42,-84.8 177.58,-84.8 177.58,-48.8 276.42,-48.8 276.42,-84.8"/>
<text text-anchor="middle" x="227" y="-62.6" font-family="Times,serif" font-size="14.00">SharedModule</text>
</g>
<!-- SharedModule&#45;&gt;ToolsModule -->
<g id="edge8" class="edge">
<title>SharedModule&#45;&gt;ToolsModule</title>
<path fill="none" stroke="black" d="M227,-84.93C227,-105.37 227,-135.8 227,-135.8 227,-135.8 612.05,-135.8 612.05,-135.8"/>
<polygon fill="black" stroke="black" points="612.05,-139.3 622.05,-135.8 612.05,-132.3 612.05,-139.3"/>
</g>
<!-- ToolsRoutingModule -->
<g id="node10" class="node">
<title>ToolsRoutingModule</title>
<polygon fill="#8dd3c7" stroke="black" points="160.06,-84.8 157.06,-88.8 136.06,-88.8 133.06,-84.8 23.94,-84.8 23.94,-48.8 160.06,-48.8 160.06,-84.8"/>
<text text-anchor="middle" x="92" y="-62.6" font-family="Times,serif" font-size="14.00">ToolsRoutingModule</text>
</g>
<!-- ToolsRoutingModule&#45;&gt;ToolsModule -->
<g id="edge9" class="edge">
<title>ToolsRoutingModule&#45;&gt;ToolsModule</title>
<path fill="none" stroke="black" d="M92,-84.81C92,-107.29 92,-142.8 92,-142.8 92,-142.8 611.84,-142.8 611.84,-142.8"/>
<polygon fill="black" stroke="black" points="611.84,-146.3 621.84,-142.8 611.84,-139.3 611.84,-146.3"/>
</g>
</g>
</svg>
