<?xml version="1.0" encoding="UTF-8" standalone="no"?>
<!DOCTYPE svg PUBLIC "-//W3C//DTD SVG 1.1//EN"
 "http://www.w3.org/Graphics/SVG/1.1/DTD/svg11.dtd">
<!-- Generated by graphviz version 3.0.0 (20220226.1711)
 -->
<!-- Title: dependencies Pages: 1 -->
<svg width="1888pt" height="174pt"
 viewBox="0.00 0.00 1888.00 173.80" xmlns="http://www.w3.org/2000/svg" xmlns:xlink="http://www.w3.org/1999/xlink">
<g id="graph0" class="graph" transform="scale(1 1) rotate(0) translate(4 169.8)">
<title>dependencies</title>
<polygon fill="white" stroke="transparent" points="-4,4 -4,-169.8 1884,-169.8 1884,4 -4,4"/>
<text text-anchor="middle" x="940" y="-8.2" font-family="sans-serif" font-size="14.00">dependencies</text>
<g id="clust1" class="cluster">
<title>cluster_ToolsModule</title>
<polygon fill="none" stroke="black" stroke-dasharray="1,5" points="8,-32.8 8,-157.8 1872,-157.8 1872,-32.8 8,-32.8"/>
</g>
<g id="clust13" class="cluster">
<title>cluster_ToolsModule_imports</title>
<polygon fill="none" stroke="black" points="1596,-40.8 1596,-92.8 1864,-92.8 1864,-40.8 1596,-40.8"/>
</g>
<g id="clust2" class="cluster">
<title>cluster_ToolsModule_declarations</title>
<polygon fill="none" stroke="black" points="16,-40.8 16,-92.8 1588,-92.8 1588,-40.8 16,-40.8"/>
</g>
<!-- AmazonAssociateComponent -->
<g id="node1" class="node">
<title>AmazonAssociateComponent</title>
<polygon fill="#ffffb3" stroke="black" points="1579.69,-84.8 1396.31,-84.8 1396.31,-48.8 1579.69,-48.8 1579.69,-84.8"/>
<text text-anchor="middle" x="1488" y="-62.6" font-family="Times,serif" font-size="14.00">AmazonAssociateComponent</text>
</g>
<!-- ToolsModule -->
<g id="node11" class="node">
<title>ToolsModule</title>
<polygon fill="#8dd3c7" stroke="black" points="955.94,-149.8 952.94,-153.8 931.94,-153.8 928.94,-149.8 864.06,-149.8 864.06,-113.8 955.94,-113.8 955.94,-149.8"/>
<text text-anchor="middle" x="910" y="-127.6" font-family="Times,serif" font-size="14.00">ToolsModule</text>
</g>
<!-- AmazonAssociateComponent&#45;&gt;ToolsModule -->
<g id="edge1" class="edge">
<title>AmazonAssociateComponent&#45;&gt;ToolsModule</title>
<path fill="none" stroke="black" d="M1488,-84.91C1488,-104.14 1488,-131.8 1488,-131.8 1488,-131.8 965.84,-131.8 965.84,-131.8"/>
<polygon fill="black" stroke="black" points="965.84,-128.3 955.84,-131.8 965.84,-135.3 965.84,-128.3"/>
</g>
<!-- Base64Component -->
<g id="node2" class="node">
<title>Base64Component</title>
<polygon fill="#ffffb3" stroke="black" points="1378.05,-84.8 1255.95,-84.8 1255.95,-48.8 1378.05,-48.8 1378.05,-84.8"/>
<text text-anchor="middle" x="1317" y="-62.6" font-family="Times,serif" font-size="14.00">Base64Component</text>
</g>
<!-- Base64Component&#45;&gt;ToolsModule -->
<g id="edge2" class="edge">
<title>Base64Component&#45;&gt;ToolsModule</title>
<path fill="none" stroke="black" d="M1317,-84.82C1317,-102.17 1317,-125.8 1317,-125.8 1317,-125.8 965.9,-125.8 965.9,-125.8"/>
<polygon fill="black" stroke="black" points="965.9,-122.3 955.9,-125.8 965.9,-129.3 965.9,-122.3"/>
</g>
<!-- JsonFormatterComponent -->
<g id="node3" class="node">
<title>JsonFormatterComponent</title>
<polygon fill="#ffffb3" stroke="black" points="1237.94,-84.8 1076.06,-84.8 1076.06,-48.8 1237.94,-48.8 1237.94,-84.8"/>
<text text-anchor="middle" x="1157" y="-62.6" font-family="Times,serif" font-size="14.00">JsonFormatterComponent</text>
</g>
<!-- JsonFormatterComponent&#45;&gt;ToolsModule -->
<g id="edge3" class="edge">
<title>JsonFormatterComponent&#45;&gt;ToolsModule</title>
<path fill="none" stroke="black" d="M1157,-85.04C1157,-100.37 1157,-119.8 1157,-119.8 1157,-119.8 965.88,-119.8 965.88,-119.8"/>
<polygon fill="black" stroke="black" points="965.88,-116.3 955.88,-119.8 965.88,-123.3 965.88,-116.3"/>
</g>
<!-- JsonTyperComponent -->
<g id="node4" class="node">
<title>JsonTyperComponent</title>
<polygon fill="#ffffb3" stroke="black" points="1057.66,-84.8 918.34,-84.8 918.34,-48.8 1057.66,-48.8 1057.66,-84.8"/>
<text text-anchor="middle" x="988" y="-62.6" font-family="Times,serif" font-size="14.00">JsonTyperComponent</text>
</g>
<!-- JsonTyperComponent&#45;&gt;ToolsModule -->
<g id="edge4" class="edge">
<title>JsonTyperComponent&#45;&gt;ToolsModule</title>
<path fill="none" stroke="black" d="M936.95,-84.91C936.95,-84.91 936.95,-103.79 936.95,-103.79"/>
<polygon fill="black" stroke="black" points="933.45,-103.79 936.95,-113.79 940.45,-103.79 933.45,-103.79"/>
</g>
<!-- MdwriterComponent -->
<g id="node5" class="node">
<title>MdwriterComponent</title>
<polygon fill="#ffffb3" stroke="black" points="900.21,-84.8 765.79,-84.8 765.79,-48.8 900.21,-48.8 900.21,-84.8"/>
<text text-anchor="middle" x="833" y="-62.6" font-family="Times,serif" font-size="14.00">MdwriterComponent</text>
</g>
<!-- MdwriterComponent&#45;&gt;ToolsModule -->
<g id="edge5" class="edge">
<title>MdwriterComponent&#45;&gt;ToolsModule</title>
<path fill="none" stroke="black" d="M882.19,-84.91C882.19,-84.91 882.19,-103.79 882.19,-103.79"/>
<polygon fill="black" stroke="black" points="878.69,-103.79 882.19,-113.79 885.69,-103.79 878.69,-103.79"/>
</g>
<!-- OpenapiComponent -->
<g id="node6" class="node">
<title>OpenapiComponent</title>
<polygon fill="#ffffb3" stroke="black" points="748.26,-84.8 619.74,-84.8 619.74,-48.8 748.26,-48.8 748.26,-84.8"/>
<text text-anchor="middle" x="684" y="-62.6" font-family="Times,serif" font-size="14.00">OpenapiComponent</text>
</g>
<!-- OpenapiComponent&#45;&gt;ToolsModule -->
<g id="edge6" class="edge">
<title>OpenapiComponent&#45;&gt;ToolsModule</title>
<path fill="none" stroke="black" d="M684,-85.04C684,-100.37 684,-119.8 684,-119.8 684,-119.8 854.27,-119.8 854.27,-119.8"/>
<polygon fill="black" stroke="black" points="854.27,-123.3 864.27,-119.8 854.27,-116.3 854.27,-123.3"/>
</g>
<!-- RealtimeComponent -->
<g id="node7" class="node">
<title>RealtimeComponent</title>
<polygon fill="#ffffb3" stroke="black" points="601.87,-84.8 470.13,-84.8 470.13,-48.8 601.87,-48.8 601.87,-84.8"/>
<text text-anchor="middle" x="536" y="-62.6" font-family="Times,serif" font-size="14.00">RealtimeComponent</text>
</g>
<!-- RealtimeComponent&#45;&gt;ToolsModule -->
<g id="edge7" class="edge">
<title>RealtimeComponent&#45;&gt;ToolsModule</title>
<path fill="none" stroke="black" d="M536,-84.82C536,-102.17 536,-125.8 536,-125.8 536,-125.8 854.14,-125.8 854.14,-125.8"/>
<polygon fill="black" stroke="black" points="854.14,-129.3 864.14,-125.8 854.14,-122.3 854.14,-129.3"/>
</g>
<!-- RegexComponent -->
<g id="node8" class="node">
<title>RegexComponent</title>
<polygon fill="#ffffb3" stroke="black" points="452.6,-84.8 335.4,-84.8 335.4,-48.8 452.6,-48.8 452.6,-84.8"/>
<text text-anchor="middle" x="394" y="-62.6" font-family="Times,serif" font-size="14.00">RegexComponent</text>
</g>
<!-- RegexComponent&#45;&gt;ToolsModule -->
<g id="edge8" class="edge">
<title>RegexComponent&#45;&gt;ToolsModule</title>
<path fill="none" stroke="black" d="M394,-84.91C394,-104.14 394,-131.8 394,-131.8 394,-131.8 854.21,-131.8 854.21,-131.8"/>
<polygon fill="black" stroke="black" points="854.21,-135.3 864.21,-131.8 854.21,-128.3 854.21,-135.3"/>
</g>
<!-- UserInfoComponent -->
<g id="node9" class="node">
<title>UserInfoComponent</title>
<polygon fill="#ffffb3" stroke="black" points="317.59,-84.8 186.41,-84.8 186.41,-48.8 317.59,-48.8 317.59,-84.8"/>
<text text-anchor="middle" x="252" y="-62.6" font-family="Times,serif" font-size="14.00">UserInfoComponent</text>
</g>
<!-- UserInfoComponent&#45;&gt;ToolsModule -->
<g id="edge9" class="edge">
<title>UserInfoComponent&#45;&gt;ToolsModule</title>
<path fill="none" stroke="black" d="M252,-85.08C252,-106.12 252,-137.8 252,-137.8 252,-137.8 854.25,-137.8 854.25,-137.8"/>
<polygon fill="black" stroke="black" points="854.25,-141.3 864.25,-137.8 854.25,-134.3 854.25,-141.3"/>
</g>
<!-- YearCheckComponent -->
<g id="node10" class="node">
<title>YearCheckComponent</title>
<polygon fill="#ffffb3" stroke="black" points="168.3,-84.8 23.7,-84.8 23.7,-48.8 168.3,-48.8 168.3,-84.8"/>
<text text-anchor="middle" x="96" y="-62.6" font-family="Times,serif" font-size="14.00">YearCheckComponent</text>
</g>
<!-- YearCheckComponent&#45;&gt;ToolsModule -->
<g id="edge10" class="edge">
<title>YearCheckComponent&#45;&gt;ToolsModule</title>
<path fill="none" stroke="black" d="M96,-84.89C96,-107.93 96,-144.8 96,-144.8 96,-144.8 854.2,-144.8 854.2,-144.8"/>
<polygon fill="black" stroke="black" points="854.2,-148.3 864.2,-144.8 854.2,-141.3 854.2,-148.3"/>
</g>
<!-- SharedModule -->
<g id="node12" class="node">
<title>SharedModule</title>
<polygon fill="#8dd3c7" stroke="black" points="1856.43,-84.8 1853.43,-88.8 1832.43,-88.8 1829.43,-84.8 1757.57,-84.8 1757.57,-48.8 1856.43,-48.8 1856.43,-84.8"/>
<text text-anchor="middle" x="1807" y="-62.6" font-family="Times,serif" font-size="14.00">SharedModule</text>
</g>
<!-- SharedModule&#45;&gt;ToolsModule -->
<g id="edge11" class="edge">
<title>SharedModule&#45;&gt;ToolsModule</title>
<path fill="none" stroke="black" d="M1807,-84.89C1807,-107.93 1807,-144.8 1807,-144.8 1807,-144.8 966.03,-144.8 966.03,-144.8"/>
<polygon fill="black" stroke="black" points="966.03,-141.3 956.03,-144.8 966.03,-148.3 966.03,-141.3"/>
</g>
<!-- ToolsRoutingModule -->
<g id="node13" class="node">
<title>ToolsRoutingModule</title>
<polygon fill="#8dd3c7" stroke="black" points="1740.06,-84.8 1737.06,-88.8 1716.06,-88.8 1713.06,-84.8 1603.94,-84.8 1603.94,-48.8 1740.06,-48.8 1740.06,-84.8"/>
<text text-anchor="middle" x="1672" y="-62.6" font-family="Times,serif" font-size="14.00">ToolsRoutingModule</text>
</g>
<!-- ToolsRoutingModule&#45;&gt;ToolsModule -->
<g id="edge12" class="edge">
<title>ToolsRoutingModule&#45;&gt;ToolsModule</title>
<path fill="none" stroke="black" d="M1672,-85.08C1672,-106.12 1672,-137.8 1672,-137.8 1672,-137.8 965.95,-137.8 965.95,-137.8"/>
<polygon fill="black" stroke="black" points="965.95,-134.3 955.95,-137.8 965.95,-141.3 965.95,-134.3"/>
</g>
</g>
</svg>
