<?xml version="1.0" encoding="UTF-8" standalone="no"?>
<!DOCTYPE svg PUBLIC "-//W3C//DTD SVG 1.1//EN"
 "http://www.w3.org/Graphics/SVG/1.1/DTD/svg11.dtd">
<!-- Generated by graphviz version 3.0.0 (20220226.1711)
 -->
<!-- Title: dependencies Pages: 1 -->
<svg width="2328pt" height="174pt"
 viewBox="0.00 0.00 2328.00 173.80" xmlns="http://www.w3.org/2000/svg" xmlns:xlink="http://www.w3.org/1999/xlink">
<g id="graph0" class="graph" transform="scale(1 1) rotate(0) translate(4 169.8)">
<title>dependencies</title>
<polygon fill="white" stroke="transparent" points="-4,4 -4,-169.8 2324,-169.8 2324,4 -4,4"/>
<text text-anchor="middle" x="1160" y="-8.2" font-family="sans-serif" font-size="14.00">dependencies</text>
<g id="clust1" class="cluster">
<title>cluster_ToolsModule</title>
<polygon fill="none" stroke="black" stroke-dasharray="1,5" points="8,-32.8 8,-157.8 2312,-157.8 2312,-32.8 8,-32.8"/>
</g>
<g id="clust2" class="cluster">
<title>cluster_ToolsModule_declarations</title>
<polygon fill="none" stroke="black" points="292,-40.8 292,-92.8 2304,-92.8 2304,-40.8 292,-40.8"/>
</g>
<g id="clust16" class="cluster">
<title>cluster_ToolsModule_imports</title>
<polygon fill="none" stroke="black" points="16,-40.8 16,-92.8 284,-92.8 284,-40.8 16,-40.8"/>
</g>
<!-- AmazonAssociateComponent -->
<g id="node1" class="node">
<title>AmazonAssociateComponent</title>
<polygon fill="#ffffb3" stroke="black" points="2295.69,-84.8 2112.31,-84.8 2112.31,-48.8 2295.69,-48.8 2295.69,-84.8"/>
<text text-anchor="middle" x="2204" y="-62.6" font-family="Times,serif" font-size="14.00">AmazonAssociateComponent</text>
</g>
<!-- ToolsModule -->
<g id="node14" class="node">
<title>ToolsModule</title>
<polygon fill="#8dd3c7" stroke="black" points="1154.94,-149.8 1151.94,-153.8 1130.94,-153.8 1127.94,-149.8 1063.06,-149.8 1063.06,-113.8 1154.94,-113.8 1154.94,-149.8"/>
<text text-anchor="middle" x="1109" y="-127.6" font-family="Times,serif" font-size="14.00">ToolsModule</text>
</g>
<!-- AmazonAssociateComponent&#45;&gt;ToolsModule -->
<g id="edge1" class="edge">
<title>AmazonAssociateComponent&#45;&gt;ToolsModule</title>
<path fill="none" stroke="black" d="M2204,-85.12C2204,-108.46 2204,-145.8 2204,-145.8 2204,-145.8 1165,-145.8 1165,-145.8"/>
<polygon fill="black" stroke="black" points="1165,-142.3 1155,-145.8 1165,-149.3 1165,-142.3"/>
</g>
<!-- Base64Component -->
<g id="node2" class="node">
<title>Base64Component</title>
<polygon fill="#ffffb3" stroke="black" points="2094.05,-84.8 1971.95,-84.8 1971.95,-48.8 2094.05,-48.8 2094.05,-84.8"/>
<text text-anchor="middle" x="2033" y="-62.6" font-family="Times,serif" font-size="14.00">Base64Component</text>
</g>
<!-- Base64Component&#45;&gt;ToolsModule -->
<g id="edge2" class="edge">
<title>Base64Component&#45;&gt;ToolsModule</title>
<path fill="none" stroke="black" d="M2033,-85.09C2033,-107.01 2033,-140.8 2033,-140.8 2033,-140.8 1164.82,-140.8 1164.82,-140.8"/>
<polygon fill="black" stroke="black" points="1164.82,-137.3 1154.82,-140.8 1164.82,-144.3 1164.82,-137.3"/>
</g>
<!-- FxCalcComponent -->
<g id="node3" class="node">
<title>FxCalcComponent</title>
<polygon fill="#ffffb3" stroke="black" points="1953.77,-84.8 1832.23,-84.8 1832.23,-48.8 1953.77,-48.8 1953.77,-84.8"/>
<text text-anchor="middle" x="1893" y="-62.6" font-family="Times,serif" font-size="14.00">FxCalcComponent</text>
</g>
<!-- FxCalcComponent&#45;&gt;ToolsModule -->
<g id="edge3" class="edge">
<title>FxCalcComponent&#45;&gt;ToolsModule</title>
<path fill="none" stroke="black" d="M1893,-84.83C1893,-105.57 1893,-136.8 1893,-136.8 1893,-136.8 1164.83,-136.8 1164.83,-136.8"/>
<polygon fill="black" stroke="black" points="1164.83,-133.3 1154.83,-136.8 1164.83,-140.3 1164.83,-133.3"/>
</g>
<!-- JsonFormatterComponent -->
<g id="node4" class="node">
<title>JsonFormatterComponent</title>
<polygon fill="#ffffb3" stroke="black" points="1813.94,-84.8 1652.06,-84.8 1652.06,-48.8 1813.94,-48.8 1813.94,-84.8"/>
<text text-anchor="middle" x="1733" y="-62.6" font-family="Times,serif" font-size="14.00">JsonFormatterComponent</text>
</g>
<!-- JsonFormatterComponent&#45;&gt;ToolsModule -->
<g id="edge4" class="edge">
<title>JsonFormatterComponent&#45;&gt;ToolsModule</title>
<path fill="none" stroke="black" d="M1733,-84.91C1733,-104.14 1733,-131.8 1733,-131.8 1733,-131.8 1164.88,-131.8 1164.88,-131.8"/>
<polygon fill="black" stroke="black" points="1164.88,-128.3 1154.88,-131.8 1164.88,-135.3 1164.88,-128.3"/>
</g>
<!-- JsonTyperComponent -->
<g id="node5" class="node">
<title>JsonTyperComponent</title>
<polygon fill="#ffffb3" stroke="black" points="1633.66,-84.8 1494.34,-84.8 1494.34,-48.8 1633.66,-48.8 1633.66,-84.8"/>
<text text-anchor="middle" x="1564" y="-62.6" font-family="Times,serif" font-size="14.00">JsonTyperComponent</text>
</g>
<!-- JsonTyperComponent&#45;&gt;ToolsModule -->
<g id="edge5" class="edge">
<title>JsonTyperComponent&#45;&gt;ToolsModule</title>
<path fill="none" stroke="black" d="M1564,-85.1C1564,-103.07 1564,-127.8 1564,-127.8 1564,-127.8 1165.13,-127.8 1165.13,-127.8"/>
<polygon fill="black" stroke="black" points="1165.13,-124.3 1155.13,-127.8 1165.13,-131.3 1165.13,-124.3"/>
</g>
<!-- MdwriterComponent -->
<g id="node6" class="node">
<title>MdwriterComponent</title>
<polygon fill="#ffffb3" stroke="black" points="1476.21,-84.8 1341.79,-84.8 1341.79,-48.8 1476.21,-48.8 1476.21,-84.8"/>
<text text-anchor="middle" x="1409" y="-62.6" font-family="Times,serif" font-size="14.00">MdwriterComponent</text>
</g>
<!-- MdwriterComponent&#45;&gt;ToolsModule -->
<g id="edge6" class="edge">
<title>MdwriterComponent&#45;&gt;ToolsModule</title>
<path fill="none" stroke="black" d="M1409,-84.83C1409,-101.2 1409,-122.8 1409,-122.8 1409,-122.8 1164.89,-122.8 1164.89,-122.8"/>
<polygon fill="black" stroke="black" points="1164.89,-119.3 1154.89,-122.8 1164.89,-126.3 1164.89,-119.3"/>
</g>
<!-- MermaidComponent -->
<g id="node7" class="node">
<title>MermaidComponent</title>
<polygon fill="#ffffb3" stroke="black" points="1324.15,-84.8 1191.85,-84.8 1191.85,-48.8 1324.15,-48.8 1324.15,-84.8"/>
<text text-anchor="middle" x="1258" y="-62.6" font-family="Times,serif" font-size="14.00">MermaidComponent</text>
</g>
<!-- MermaidComponent&#45;&gt;ToolsModule -->
<g id="edge7" class="edge">
<title>MermaidComponent&#45;&gt;ToolsModule</title>
<path fill="none" stroke="black" d="M1258,-84.99C1258,-99.98 1258,-118.8 1258,-118.8 1258,-118.8 1164.92,-118.8 1164.92,-118.8"/>
<polygon fill="black" stroke="black" points="1164.92,-115.3 1154.92,-118.8 1164.92,-122.3 1164.92,-115.3"/>
</g>
<!-- OpenapiComponent -->
<g id="node8" class="node">
<title>OpenapiComponent</title>
<polygon fill="#ffffb3" stroke="black" points="1173.26,-84.8 1044.74,-84.8 1044.74,-48.8 1173.26,-48.8 1173.26,-84.8"/>
<text text-anchor="middle" x="1109" y="-62.6" font-family="Times,serif" font-size="14.00">OpenapiComponent</text>
</g>
<!-- OpenapiComponent&#45;&gt;ToolsModule -->
<g id="edge8" class="edge">
<title>OpenapiComponent&#45;&gt;ToolsModule</title>
<path fill="none" stroke="black" d="M1109,-84.91C1109,-84.91 1109,-103.79 1109,-103.79"/>
<polygon fill="black" stroke="black" points="1105.5,-103.79 1109,-113.79 1112.5,-103.79 1105.5,-103.79"/>
</g>
<!-- RealtimeComponent -->
<g id="node9" class="node">
<title>RealtimeComponent</title>
<polygon fill="#ffffb3" stroke="black" points="1026.87,-84.8 895.13,-84.8 895.13,-48.8 1026.87,-48.8 1026.87,-84.8"/>
<text text-anchor="middle" x="961" y="-62.6" font-family="Times,serif" font-size="14.00">RealtimeComponent</text>
</g>
<!-- RealtimeComponent&#45;&gt;ToolsModule -->
<g id="edge9" class="edge">
<title>RealtimeComponent&#45;&gt;ToolsModule</title>
<path fill="none" stroke="black" d="M961,-84.99C961,-99.98 961,-118.8 961,-118.8 961,-118.8 1052.98,-118.8 1052.98,-118.8"/>
<polygon fill="black" stroke="black" points="1052.98,-122.3 1062.98,-118.8 1052.98,-115.3 1052.98,-122.3"/>
</g>
<!-- RegexComponent -->
<g id="node10" class="node">
<title>RegexComponent</title>
<polygon fill="#ffffb3" stroke="black" points="877.6,-84.8 760.4,-84.8 760.4,-48.8 877.6,-48.8 877.6,-84.8"/>
<text text-anchor="middle" x="819" y="-62.6" font-family="Times,serif" font-size="14.00">RegexComponent</text>
</g>
<!-- RegexComponent&#45;&gt;ToolsModule -->
<g id="edge10" class="edge">
<title>RegexComponent&#45;&gt;ToolsModule</title>
<path fill="none" stroke="black" d="M819,-84.83C819,-101.2 819,-122.8 819,-122.8 819,-122.8 1053.05,-122.8 1053.05,-122.8"/>
<polygon fill="black" stroke="black" points="1053.05,-126.3 1063.05,-122.8 1053.05,-119.3 1053.05,-126.3"/>
</g>
<!-- StarNoteComponent -->
<g id="node11" class="node">
<title>StarNoteComponent</title>
<polygon fill="#ffffb3" stroke="black" points="742.6,-84.8 611.4,-84.8 611.4,-48.8 742.6,-48.8 742.6,-84.8"/>
<text text-anchor="middle" x="677" y="-62.6" font-family="Times,serif" font-size="14.00">StarNoteComponent</text>
</g>
<!-- StarNoteComponent&#45;&gt;ToolsModule -->
<g id="edge11" class="edge">
<title>StarNoteComponent&#45;&gt;ToolsModule</title>
<path fill="none" stroke="black" d="M677,-85.1C677,-103.07 677,-127.8 677,-127.8 677,-127.8 1053.18,-127.8 1053.18,-127.8"/>
<polygon fill="black" stroke="black" points="1053.18,-131.3 1063.18,-127.8 1053.18,-124.3 1053.18,-131.3"/>
</g>
<!-- UserInfoComponent -->
<g id="node12" class="node">
<title>UserInfoComponent</title>
<polygon fill="#ffffb3" stroke="black" points="593.59,-84.8 462.41,-84.8 462.41,-48.8 593.59,-48.8 593.59,-84.8"/>
<text text-anchor="middle" x="528" y="-62.6" font-family="Times,serif" font-size="14.00">UserInfoComponent</text>
</g>
<!-- UserInfoComponent&#45;&gt;ToolsModule -->
<g id="edge12" class="edge">
<title>UserInfoComponent&#45;&gt;ToolsModule</title>
<path fill="none" stroke="black" d="M528,-84.91C528,-104.14 528,-131.8 528,-131.8 528,-131.8 1052.92,-131.8 1052.92,-131.8"/>
<polygon fill="black" stroke="black" points="1052.92,-135.3 1062.92,-131.8 1052.92,-128.3 1052.92,-135.3"/>
</g>
<!-- YearCheckComponent -->
<g id="node13" class="node">
<title>YearCheckComponent</title>
<polygon fill="#ffffb3" stroke="black" points="444.3,-84.8 299.7,-84.8 299.7,-48.8 444.3,-48.8 444.3,-84.8"/>
<text text-anchor="middle" x="372" y="-62.6" font-family="Times,serif" font-size="14.00">YearCheckComponent</text>
</g>
<!-- YearCheckComponent&#45;&gt;ToolsModule -->
<g id="edge13" class="edge">
<title>YearCheckComponent&#45;&gt;ToolsModule</title>
<path fill="none" stroke="black" d="M372,-84.83C372,-105.57 372,-136.8 372,-136.8 372,-136.8 1053.18,-136.8 1053.18,-136.8"/>
<polygon fill="black" stroke="black" points="1053.18,-140.3 1063.18,-136.8 1053.18,-133.3 1053.18,-140.3"/>
</g>
<!-- SharedModule -->
<g id="node15" class="node">
<title>SharedModule</title>
<polygon fill="#8dd3c7" stroke="black" points="276.43,-84.8 273.43,-88.8 252.43,-88.8 249.43,-84.8 177.57,-84.8 177.57,-48.8 276.43,-48.8 276.43,-84.8"/>
<text text-anchor="middle" x="227" y="-62.6" font-family="Times,serif" font-size="14.00">SharedModule</text>
</g>
<!-- SharedModule&#45;&gt;ToolsModule -->
<g id="edge14" class="edge">
<title>SharedModule&#45;&gt;ToolsModule</title>
<path fill="none" stroke="black" d="M227,-85.09C227,-107.01 227,-140.8 227,-140.8 227,-140.8 1053.13,-140.8 1053.13,-140.8"/>
<polygon fill="black" stroke="black" points="1053.13,-144.3 1063.13,-140.8 1053.13,-137.3 1053.13,-144.3"/>
</g>
<!-- ToolsRoutingModule -->
<g id="node16" class="node">
<title>ToolsRoutingModule</title>
<polygon fill="#8dd3c7" stroke="black" points="160.06,-84.8 157.06,-88.8 136.06,-88.8 133.06,-84.8 23.94,-84.8 23.94,-48.8 160.06,-48.8 160.06,-84.8"/>
<text text-anchor="middle" x="92" y="-62.6" font-family="Times,serif" font-size="14.00">ToolsRoutingModule</text>
</g>
<!-- ToolsRoutingModule&#45;&gt;ToolsModule -->
<g id="edge15" class="edge">
<title>ToolsRoutingModule&#45;&gt;ToolsModule</title>
<path fill="none" stroke="black" d="M92,-85.12C92,-108.46 92,-145.8 92,-145.8 92,-145.8 1052.99,-145.8 1052.99,-145.8"/>
<polygon fill="black" stroke="black" points="1052.99,-149.3 1062.99,-145.8 1052.99,-142.3 1052.99,-149.3"/>
</g>
</g>
</svg>
