<?xml version="1.0" encoding="UTF-8" standalone="no"?>
<!DOCTYPE svg PUBLIC "-//W3C//DTD SVG 1.1//EN"
 "http://www.w3.org/Graphics/SVG/1.1/DTD/svg11.dtd">
<!-- Generated by graphviz version 3.0.0 (20220226.1711)
 -->
<!-- Title: dependencies Pages: 1 -->
<svg width="4863pt" height="323pt"
 viewBox="0.00 0.00 4863.00 322.80" xmlns="http://www.w3.org/2000/svg" xmlns:xlink="http://www.w3.org/1999/xlink">
<g id="graph0" class="graph" transform="scale(1 1) rotate(0) translate(4 318.8)">
<title>dependencies</title>
<polygon fill="white" stroke="transparent" points="-4,4 -4,-318.8 4859,-318.8 4859,4 -4,4"/>
<text text-anchor="middle" x="2427.5" y="-8.2" font-family="sans-serif" font-size="14.00">dependencies</text>
<g id="clust1" class="cluster">
<title>cluster_AppModule</title>
<polygon fill="none" stroke="black" stroke-dasharray="1,5" points="1160,-108.8 1160,-306.8 1723,-306.8 1723,-108.8 1160,-108.8"/>
</g>
<g id="clust2" class="cluster">
<title>cluster_AppModule_declarations</title>
<polygon fill="none" stroke="black" points="1168,-116.8 1168,-168.8 1446,-168.8 1446,-116.8 1168,-116.8"/>
</g>
<g id="clust5" class="cluster">
<title>cluster_AppModule_imports</title>
<polygon fill="none" stroke="black" points="1454,-116.8 1454,-168.8 1715,-168.8 1715,-116.8 1454,-116.8"/>
</g>
<g id="clust7" class="cluster">
<title>cluster_AppModule_bootstrap</title>
<polygon fill="none" stroke="black" points="1393,-246.8 1393,-298.8 1517,-298.8 1517,-246.8 1393,-246.8"/>
</g>
<g id="clust15" class="cluster">
<title>cluster_BlogModule</title>
<polygon fill="none" stroke="black" stroke-dasharray="1,5" points="673,-108.8 673,-233.8 1152,-233.8 1152,-108.8 673,-108.8"/>
</g>
<g id="clust16" class="cluster">
<title>cluster_BlogModule_declarations</title>
<polygon fill="none" stroke="black" points="837,-116.8 837,-168.8 1144,-168.8 1144,-116.8 837,-116.8"/>
</g>
<g id="clust19" class="cluster">
<title>cluster_BlogModule_imports</title>
<polygon fill="none" stroke="black" points="681,-116.8 681,-168.8 829,-168.8 829,-116.8 681,-116.8"/>
</g>
<g id="clust29" class="cluster">
<title>cluster_HomeModule</title>
<polygon fill="none" stroke="black" stroke-dasharray="1,5" points="1731,-108.8 1731,-233.8 2466,-233.8 2466,-108.8 1731,-108.8"/>
</g>
<g id="clust30" class="cluster">
<title>cluster_HomeModule_declarations</title>
<polygon fill="none" stroke="black" points="1901,-116.8 1901,-168.8 2458,-168.8 2458,-116.8 1901,-116.8"/>
</g>
<g id="clust35" class="cluster">
<title>cluster_HomeModule_imports</title>
<polygon fill="none" stroke="black" points="1739,-116.8 1739,-168.8 1893,-168.8 1893,-116.8 1739,-116.8"/>
</g>
<g id="clust45" class="cluster">
<title>cluster_LogModule</title>
<polygon fill="none" stroke="black" stroke-dasharray="1,5" points="2474,-108.8 2474,-233.8 2940,-233.8 2940,-108.8 2474,-108.8"/>
</g>
<g id="clust46" class="cluster">
<title>cluster_LogModule_declarations</title>
<polygon fill="none" stroke="black" points="2634,-116.8 2634,-168.8 2932,-168.8 2932,-116.8 2634,-116.8"/>
</g>
<g id="clust49" class="cluster">
<title>cluster_LogModule_imports</title>
<polygon fill="none" stroke="black" points="2482,-116.8 2482,-168.8 2626,-168.8 2626,-116.8 2482,-116.8"/>
</g>
<g id="clust59" class="cluster">
<title>cluster_SharedModule</title>
<polygon fill="none" stroke="black" stroke-dasharray="1,5" points="8,-32.8 8,-100.8 3245,-100.8 3245,-32.8 8,-32.8"/>
</g>
<g id="clust60" class="cluster">
<title>cluster_SharedModule_declarations</title>
<polygon fill="none" stroke="black" points="1580,-40.8 1580,-92.8 3237,-92.8 3237,-40.8 1580,-40.8"/>
</g>
<g id="clust74" class="cluster">
<title>cluster_SharedModule_exports</title>
<polygon fill="none" stroke="black" points="16,-40.8 16,-92.8 1572,-92.8 1572,-40.8 16,-40.8"/>
</g>
<g id="clust77" class="cluster">
<title>cluster_ToolsModule</title>
<polygon fill="none" stroke="black" stroke-dasharray="1,5" points="2948,-108.8 2948,-233.8 4847,-233.8 4847,-108.8 2948,-108.8"/>
</g>
<g id="clust78" class="cluster">
<title>cluster_ToolsModule_declarations</title>
<polygon fill="none" stroke="black" points="3116,-116.8 3116,-168.8 4839,-168.8 4839,-116.8 3116,-116.8"/>
</g>
<g id="clust90" class="cluster">
<title>cluster_ToolsModule_imports</title>
<polygon fill="none" stroke="black" points="2956,-116.8 2956,-168.8 3108,-168.8 3108,-116.8 2956,-116.8"/>
</g>
<!-- AppComponent -->
<g id="node1" class="node">
<title>AppComponent</title>
<polygon fill="#ffffb3" stroke="black" points="1437.94,-160.8 1332.06,-160.8 1332.06,-124.8 1437.94,-124.8 1437.94,-160.8"/>
<text text-anchor="middle" x="1385" y="-138.6" font-family="Times,serif" font-size="14.00">AppComponent</text>
</g>
<!-- AppModule -->
<g id="node3" class="node">
<title>AppModule</title>
<polygon fill="#8dd3c7" stroke="black" points="1496.66,-225.8 1493.66,-229.8 1472.66,-229.8 1469.66,-225.8 1413.34,-225.8 1413.34,-189.8 1496.66,-189.8 1496.66,-225.8"/>
<text text-anchor="middle" x="1455" y="-203.6" font-family="Times,serif" font-size="14.00">AppModule</text>
</g>
<!-- AppComponent&#45;&gt;AppModule -->
<g id="edge1" class="edge">
<title>AppComponent&#45;&gt;AppModule</title>
<path fill="none" stroke="black" d="M1425.44,-160.91C1425.44,-160.91 1425.44,-179.79 1425.44,-179.79"/>
<polygon fill="black" stroke="black" points="1421.94,-179.79 1425.44,-189.79 1428.94,-179.79 1421.94,-179.79"/>
</g>
<!-- NotFoundComponent -->
<g id="node2" class="node">
<title>NotFoundComponent</title>
<polygon fill="#ffffb3" stroke="black" points="1314.12,-160.8 1175.88,-160.8 1175.88,-124.8 1314.12,-124.8 1314.12,-160.8"/>
<text text-anchor="middle" x="1245" y="-138.6" font-family="Times,serif" font-size="14.00">NotFoundComponent</text>
</g>
<!-- NotFoundComponent&#45;&gt;AppModule -->
<g id="edge2" class="edge">
<title>NotFoundComponent&#45;&gt;AppModule</title>
<path fill="none" stroke="black" d="M1245,-160.91C1245,-180.14 1245,-207.8 1245,-207.8 1245,-207.8 1403.26,-207.8 1403.26,-207.8"/>
<polygon fill="black" stroke="black" points="1403.26,-211.3 1413.26,-207.8 1403.26,-204.3 1403.26,-211.3"/>
</g>
<!-- AppComponent  -->
<g id="node6" class="node">
<title>AppComponent </title>
<polygon fill="#80b1d3" stroke="black" points="1509.44,-290.8 1400.56,-290.8 1400.56,-254.8 1509.44,-254.8 1509.44,-290.8"/>
<text text-anchor="middle" x="1455" y="-268.6" font-family="Times,serif" font-size="14.00">AppComponent </text>
</g>
<!-- AppModule&#45;&gt;AppComponent  -->
<g id="edge5" class="edge">
<title>AppModule&#45;&gt;AppComponent </title>
<path fill="none" stroke="black" stroke-dasharray="1,5" d="M1455,-225.91C1455,-225.91 1455,-244.79 1455,-244.79"/>
<polygon fill="black" stroke="black" points="1451.5,-244.79 1455,-254.79 1458.5,-244.79 1451.5,-244.79"/>
</g>
<!-- AppRoutingModule -->
<g id="node4" class="node">
<title>AppRoutingModule</title>
<polygon fill="#8dd3c7" stroke="black" points="1590.28,-160.8 1587.28,-164.8 1566.28,-164.8 1563.28,-160.8 1461.72,-160.8 1461.72,-124.8 1590.28,-124.8 1590.28,-160.8"/>
<text text-anchor="middle" x="1526" y="-138.6" font-family="Times,serif" font-size="14.00">AppRoutingModule</text>
</g>
<!-- AppRoutingModule&#45;&gt;AppModule -->
<g id="edge3" class="edge">
<title>AppRoutingModule&#45;&gt;AppModule</title>
<path fill="none" stroke="black" d="M1479.22,-160.91C1479.22,-160.91 1479.22,-179.79 1479.22,-179.79"/>
<polygon fill="black" stroke="black" points="1475.72,-179.79 1479.22,-189.79 1482.72,-179.79 1475.72,-179.79"/>
</g>
<!-- SharedModule -->
<g id="node5" class="node">
<title>SharedModule</title>
<polygon fill="#8dd3c7" stroke="black" points="1707.43,-160.8 1704.43,-164.8 1683.43,-164.8 1680.43,-160.8 1608.57,-160.8 1608.57,-124.8 1707.43,-124.8 1707.43,-160.8"/>
<text text-anchor="middle" x="1658" y="-138.6" font-family="Times,serif" font-size="14.00">SharedModule</text>
</g>
<!-- SharedModule&#45;&gt;AppModule -->
<g id="edge4" class="edge">
<title>SharedModule&#45;&gt;AppModule</title>
<path fill="none" stroke="black" d="M1685.34,-161.09C1685.34,-183.01 1685.34,-216.8 1685.34,-216.8 1685.34,-216.8 1506.71,-216.8 1506.71,-216.8"/>
<polygon fill="black" stroke="black" points="1506.71,-213.3 1496.71,-216.8 1506.71,-220.3 1506.71,-213.3"/>
</g>
<!-- BlogModule -->
<g id="node9" class="node">
<title>BlogModule</title>
<polygon fill="#8dd3c7" stroke="black" points="1030.28,-225.8 1027.28,-229.8 1006.28,-229.8 1003.28,-225.8 943.72,-225.8 943.72,-189.8 1030.28,-189.8 1030.28,-225.8"/>
<text text-anchor="middle" x="987" y="-203.6" font-family="Times,serif" font-size="14.00">BlogModule</text>
</g>
<!-- SharedModule&#45;&gt;BlogModule -->
<g id="edge9" class="edge">
<title>SharedModule&#45;&gt;BlogModule</title>
<path fill="none" stroke="black" d="M1641.6,-161.29C1641.6,-172.94 1641.6,-185.8 1641.6,-185.8 1641.6,-185.8 1018.13,-185.8 1018.13,-185.8 1018.13,-185.8 1018.13,-186.18 1018.13,-186.18"/>
<polygon fill="black" stroke="black" points="1014.63,-179.63 1018.13,-189.63 1021.63,-179.63 1014.63,-179.63"/>
</g>
<!-- HomeModule -->
<g id="node15" class="node">
<title>HomeModule</title>
<polygon fill="#8dd3c7" stroke="black" points="2080.77,-225.8 2077.77,-229.8 2056.77,-229.8 2053.77,-225.8 1987.23,-225.8 1987.23,-189.8 2080.77,-189.8 2080.77,-225.8"/>
<text text-anchor="middle" x="2034" y="-203.6" font-family="Times,serif" font-size="14.00">HomeModule</text>
</g>
<!-- SharedModule&#45;&gt;HomeModule -->
<g id="edge15" class="edge">
<title>SharedModule&#45;&gt;HomeModule</title>
<path fill="none" stroke="black" d="M1696.28,-160.91C1696.28,-180.14 1696.28,-207.8 1696.28,-207.8 1696.28,-207.8 1977.04,-207.8 1977.04,-207.8"/>
<polygon fill="black" stroke="black" points="1977.04,-211.3 1987.04,-207.8 1977.04,-204.3 1977.04,-211.3"/>
</g>
<!-- LogModule -->
<g id="node19" class="node">
<title>LogModule</title>
<polygon fill="#8dd3c7" stroke="black" points="2670.1,-225.8 2667.1,-229.8 2646.1,-229.8 2643.1,-225.8 2587.9,-225.8 2587.9,-189.8 2670.1,-189.8 2670.1,-225.8"/>
<text text-anchor="middle" x="2629" y="-203.6" font-family="Times,serif" font-size="14.00">LogModule</text>
</g>
<!-- SharedModule&#45;&gt;LogModule -->
<g id="edge19" class="edge">
<title>SharedModule&#45;&gt;LogModule</title>
<path fill="none" stroke="black" d="M1663.47,-160.93C1663.47,-171.11 1663.47,-181.8 1663.47,-181.8 1663.47,-181.8 2597.84,-181.8 2597.84,-181.8 2597.84,-181.8 2597.84,-182.59 2597.84,-182.59"/>
<polygon fill="black" stroke="black" points="2594.34,-179.74 2597.84,-189.74 2601.34,-179.74 2594.34,-179.74"/>
</g>
<!-- AdsComponent  -->
<g id="node33" class="node">
<title>AdsComponent </title>
<polygon fill="#fb8072" stroke="black" points="1316.89,-84.8 1209.11,-84.8 1209.11,-48.8 1316.89,-48.8 1316.89,-84.8"/>
<text text-anchor="middle" x="1263" y="-62.6" font-family="Times,serif" font-size="14.00">AdsComponent </text>
</g>
<!-- SharedModule&#45;&gt;AdsComponent  -->
<g id="edge32" class="edge">
<title>SharedModule&#45;&gt;AdsComponent </title>
<path fill="none" stroke="black" stroke-dasharray="5,2" d="M1643.24,-124.56C1643.24,-117.37 1643.24,-110.8 1643.24,-110.8 1643.24,-110.8 1261.68,-110.8 1261.68,-110.8 1261.68,-110.8 1261.68,-94.95 1261.68,-94.95"/>
<polygon fill="black" stroke="black" points="1265.18,-94.95 1261.68,-84.95 1258.18,-94.95 1265.18,-94.95"/>
</g>
<!-- AdsModalComponent  -->
<g id="node34" class="node">
<title>AdsModalComponent </title>
<polygon fill="#fb8072" stroke="black" points="1190.94,-84.8 1047.06,-84.8 1047.06,-48.8 1190.94,-48.8 1190.94,-84.8"/>
<text text-anchor="middle" x="1119" y="-62.6" font-family="Times,serif" font-size="14.00">AdsModalComponent </text>
</g>
<!-- SharedModule&#45;&gt;AdsModalComponent  -->
<g id="edge33" class="edge">
<title>SharedModule&#45;&gt;AdsModalComponent </title>
<path fill="none" stroke="black" stroke-dasharray="5,2" d="M1638.31,-124.66C1638.31,-118.34 1638.31,-112.8 1638.31,-112.8 1638.31,-112.8 1183.46,-112.8 1183.46,-112.8 1183.46,-112.8 1183.46,-94.98 1183.46,-94.98"/>
<polygon fill="black" stroke="black" points="1186.96,-94.98 1183.46,-84.98 1179.96,-94.98 1186.96,-94.98"/>
</g>
<!-- AmazonAdsComponent  -->
<g id="node35" class="node">
<title>AmazonAdsComponent </title>
<polygon fill="#fb8072" stroke="black" points="1029.32,-84.8 874.68,-84.8 874.68,-48.8 1029.32,-48.8 1029.32,-84.8"/>
<text text-anchor="middle" x="952" y="-62.6" font-family="Times,serif" font-size="14.00">AmazonAdsComponent </text>
</g>
<!-- SharedModule&#45;&gt;AmazonAdsComponent  -->
<g id="edge34" class="edge">
<title>SharedModule&#45;&gt;AmazonAdsComponent </title>
<path fill="none" stroke="black" stroke-dasharray="5,2" d="M1633.39,-124.59C1633.39,-119.25 1633.39,-114.8 1633.39,-114.8 1633.39,-114.8 1011.51,-114.8 1011.51,-114.8 1011.51,-114.8 1011.51,-94.95 1011.51,-94.95"/>
<polygon fill="black" stroke="black" points="1015.01,-94.95 1011.51,-84.95 1008.01,-94.95 1015.01,-94.95"/>
</g>
<!-- LazyImgComponent  -->
<g id="node36" class="node">
<title>LazyImgComponent </title>
<polygon fill="#fb8072" stroke="black" points="856.86,-84.8 721.14,-84.8 721.14,-48.8 856.86,-48.8 856.86,-84.8"/>
<text text-anchor="middle" x="789" y="-62.6" font-family="Times,serif" font-size="14.00">LazyImgComponent </text>
</g>
<!-- SharedModule&#45;&gt;LazyImgComponent  -->
<g id="edge35" class="edge">
<title>SharedModule&#45;&gt;LazyImgComponent </title>
<path fill="none" stroke="black" stroke-dasharray="5,2" d="M1628.47,-124.74C1628.47,-120.31 1628.47,-116.8 1628.47,-116.8 1628.47,-116.8 850.76,-116.8 850.76,-116.8 850.76,-116.8 850.76,-94.85 850.76,-94.85"/>
<polygon fill="black" stroke="black" points="854.26,-94.85 850.76,-84.85 847.26,-94.85 854.26,-94.85"/>
</g>
<!-- LoadingComponent  -->
<g id="node37" class="node">
<title>LoadingComponent </title>
<polygon fill="#fb8072" stroke="black" points="703.99,-84.8 572.01,-84.8 572.01,-48.8 703.99,-48.8 703.99,-84.8"/>
<text text-anchor="middle" x="638" y="-62.6" font-family="Times,serif" font-size="14.00">LoadingComponent </text>
</g>
<!-- SharedModule&#45;&gt;LoadingComponent  -->
<g id="edge36" class="edge">
<title>SharedModule&#45;&gt;LoadingComponent </title>
<path fill="none" stroke="black" stroke-dasharray="5,2" d="M1623.55,-124.61C1623.55,-121.26 1623.55,-118.8 1623.55,-118.8 1623.55,-118.8 696.4,-118.8 696.4,-118.8 696.4,-118.8 696.4,-94.99 696.4,-94.99"/>
<polygon fill="black" stroke="black" points="699.9,-94.99 696.4,-84.99 692.9,-94.99 699.9,-94.99"/>
</g>
<!-- MdescapePipe  -->
<g id="node38" class="node">
<title>MdescapePipe </title>
<polygon fill="#fb8072" stroke="black" points="554.64,-84.8 453.36,-84.8 453.36,-48.8 554.64,-48.8 554.64,-84.8"/>
<text text-anchor="middle" x="504" y="-62.6" font-family="Times,serif" font-size="14.00">MdescapePipe </text>
</g>
<!-- SharedModule&#45;&gt;MdescapePipe  -->
<g id="edge37" class="edge">
<title>SharedModule&#45;&gt;MdescapePipe </title>
<path fill="none" stroke="black" stroke-dasharray="5,2" d="M1618.63,-124.63C1618.63,-122.35 1618.63,-120.8 1618.63,-120.8 1618.63,-120.8 504,-120.8 504,-120.8 504,-120.8 504,-95.08 504,-95.08"/>
<polygon fill="black" stroke="black" points="507.5,-95.08 504,-85.08 500.5,-95.08 507.5,-95.08"/>
</g>
<!-- MessageComponent  -->
<g id="node39" class="node">
<title>MessageComponent </title>
<polygon fill="#fb8072" stroke="black" points="435.82,-84.8 302.18,-84.8 302.18,-48.8 435.82,-48.8 435.82,-84.8"/>
<text text-anchor="middle" x="369" y="-62.6" font-family="Times,serif" font-size="14.00">MessageComponent </text>
</g>
<!-- SharedModule&#45;&gt;MessageComponent  -->
<g id="edge38" class="edge">
<title>SharedModule&#45;&gt;MessageComponent </title>
<path fill="none" stroke="black" stroke-dasharray="5,2" d="M1613.71,-124.65C1613.71,-123.5 1613.71,-122.8 1613.71,-122.8 1613.71,-122.8 369,-122.8 369,-122.8 369,-122.8 369,-94.83 369,-94.83"/>
<polygon fill="black" stroke="black" points="372.5,-94.83 369,-84.83 365.5,-94.83 372.5,-94.83"/>
</g>
<!-- NavComponent  -->
<g id="node40" class="node">
<title>NavComponent </title>
<polygon fill="#fb8072" stroke="black" points="284.16,-84.8 175.84,-84.8 175.84,-48.8 284.16,-48.8 284.16,-84.8"/>
<text text-anchor="middle" x="230" y="-62.6" font-family="Times,serif" font-size="14.00">NavComponent </text>
</g>
<!-- SharedModule&#45;&gt;NavComponent  -->
<g id="edge39" class="edge">
<title>SharedModule&#45;&gt;NavComponent </title>
<path fill="none" stroke="black" stroke-dasharray="5,2" d="M1619.72,-160.83C1619.72,-167.65 1619.72,-173.8 1619.72,-173.8 1619.72,-173.8 230,-173.8 230,-173.8 230,-173.8 230,-94.95 230,-94.95"/>
<polygon fill="black" stroke="black" points="233.5,-94.95 230,-84.95 226.5,-94.95 233.5,-94.95"/>
</g>
<!-- NewsbarComponent  -->
<g id="node41" class="node">
<title>NewsbarComponent </title>
<polygon fill="#fb8072" stroke="black" points="158.09,-84.8 23.91,-84.8 23.91,-48.8 158.09,-48.8 158.09,-84.8"/>
<text text-anchor="middle" x="91" y="-62.6" font-family="Times,serif" font-size="14.00">NewsbarComponent </text>
</g>
<!-- SharedModule&#45;&gt;NewsbarComponent  -->
<g id="edge40" class="edge">
<title>SharedModule&#45;&gt;NewsbarComponent </title>
<path fill="none" stroke="black" stroke-dasharray="5,2" d="M1630.66,-161.12C1630.66,-169.59 1630.66,-177.8 1630.66,-177.8 1630.66,-177.8 91,-177.8 91,-177.8 91,-177.8 91,-95.13 91,-95.13"/>
<polygon fill="black" stroke="black" points="94.5,-95.13 91,-85.13 87.5,-95.13 94.5,-95.13"/>
</g>
<!-- TweetBtnComponent  -->
<g id="node42" class="node">
<title>TweetBtnComponent </title>
<polygon fill="#fb8072" stroke="black" points="1564.04,-84.8 1423.96,-84.8 1423.96,-48.8 1564.04,-48.8 1564.04,-84.8"/>
<text text-anchor="middle" x="1494" y="-62.6" font-family="Times,serif" font-size="14.00">TweetBtnComponent </text>
</g>
<!-- SharedModule&#45;&gt;TweetBtnComponent  -->
<g id="edge41" class="edge">
<title>SharedModule&#45;&gt;TweetBtnComponent </title>
<path fill="none" stroke="black" stroke-dasharray="5,2" d="M1653.08,-124.38C1653.08,-115.52 1653.08,-106.8 1653.08,-106.8 1653.08,-106.8 1512.81,-106.8 1512.81,-106.8 1512.81,-106.8 1512.81,-94.93 1512.81,-94.93"/>
<polygon fill="black" stroke="black" points="1516.31,-94.93 1512.81,-84.93 1509.31,-94.93 1516.31,-94.93"/>
</g>
<!-- YearPipe  -->
<g id="node43" class="node">
<title>YearPipe </title>
<polygon fill="#fb8072" stroke="black" points="1405.59,-84.8 1334.41,-84.8 1334.41,-48.8 1405.59,-48.8 1405.59,-84.8"/>
<text text-anchor="middle" x="1370" y="-62.6" font-family="Times,serif" font-size="14.00">YearPipe </text>
</g>
<!-- SharedModule&#45;&gt;YearPipe  -->
<g id="edge42" class="edge">
<title>SharedModule&#45;&gt;YearPipe </title>
<path fill="none" stroke="black" stroke-dasharray="5,2" d="M1648.16,-124.61C1648.16,-116.52 1648.16,-108.8 1648.16,-108.8 1648.16,-108.8 1370,-108.8 1370,-108.8 1370,-108.8 1370,-94.86 1370,-94.86"/>
<polygon fill="black" stroke="black" points="1373.5,-94.86 1370,-84.86 1366.5,-94.86 1373.5,-94.86"/>
</g>
<!-- ToolsModule -->
<g id="node55" class="node">
<title>ToolsModule</title>
<polygon fill="#8dd3c7" stroke="black" points="3883.94,-225.8 3880.94,-229.8 3859.94,-229.8 3856.94,-225.8 3792.06,-225.8 3792.06,-189.8 3883.94,-189.8 3883.94,-225.8"/>
<text text-anchor="middle" x="3838" y="-203.6" font-family="Times,serif" font-size="14.00">ToolsModule</text>
</g>
<!-- SharedModule&#45;&gt;ToolsModule -->
<g id="edge54" class="edge">
<title>SharedModule&#45;&gt;ToolsModule</title>
<path fill="none" stroke="black" d="M1674.4,-160.96C1674.4,-165.84 1674.4,-169.8 1674.4,-169.8 1674.4,-169.8 3822.76,-169.8 3822.76,-169.8 3822.76,-169.8 3822.76,-179.69 3822.76,-179.69"/>
<polygon fill="black" stroke="black" points="3819.26,-179.69 3822.76,-189.69 3826.26,-179.69 3819.26,-179.69"/>
</g>
<!-- BlogDetailComponent -->
<g id="node7" class="node">
<title>BlogDetailComponent</title>
<polygon fill="#ffffb3" stroke="black" points="1136.27,-160.8 993.73,-160.8 993.73,-124.8 1136.27,-124.8 1136.27,-160.8"/>
<text text-anchor="middle" x="1065" y="-138.6" font-family="Times,serif" font-size="14.00">BlogDetailComponent</text>
</g>
<!-- BlogDetailComponent&#45;&gt;BlogModule -->
<g id="edge6" class="edge">
<title>BlogDetailComponent&#45;&gt;BlogModule</title>
<path fill="none" stroke="black" d="M1005.87,-160.91C1005.87,-160.91 1005.87,-179.79 1005.87,-179.79"/>
<polygon fill="black" stroke="black" points="1002.37,-179.79 1005.87,-189.79 1009.37,-179.79 1002.37,-179.79"/>
</g>
<!-- BlogListComponent -->
<g id="node8" class="node">
<title>BlogListComponent</title>
<polygon fill="#ffffb3" stroke="black" points="975.34,-160.8 844.66,-160.8 844.66,-124.8 975.34,-124.8 975.34,-160.8"/>
<text text-anchor="middle" x="910" y="-138.6" font-family="Times,serif" font-size="14.00">BlogListComponent</text>
</g>
<!-- BlogListComponent&#45;&gt;BlogModule -->
<g id="edge7" class="edge">
<title>BlogListComponent&#45;&gt;BlogModule</title>
<path fill="none" stroke="black" d="M959.39,-160.91C959.39,-160.91 959.39,-179.79 959.39,-179.79"/>
<polygon fill="black" stroke="black" points="955.89,-179.79 959.39,-189.79 962.89,-179.79 955.89,-179.79"/>
</g>
<!-- BlogRoutingModule -->
<g id="node10" class="node">
<title>BlogRoutingModule</title>
<polygon fill="#8dd3c7" stroke="black" points="820.9,-160.8 817.9,-164.8 796.9,-164.8 793.9,-160.8 689.1,-160.8 689.1,-124.8 820.9,-124.8 820.9,-160.8"/>
<text text-anchor="middle" x="755" y="-138.6" font-family="Times,serif" font-size="14.00">BlogRoutingModule</text>
</g>
<!-- BlogRoutingModule&#45;&gt;BlogModule -->
<g id="edge8" class="edge">
<title>BlogRoutingModule&#45;&gt;BlogModule</title>
<path fill="none" stroke="black" d="M755,-160.91C755,-180.14 755,-207.8 755,-207.8 755,-207.8 933.63,-207.8 933.63,-207.8"/>
<polygon fill="black" stroke="black" points="933.63,-211.3 943.63,-207.8 933.63,-204.3 933.63,-211.3"/>
</g>
<!-- ContactComponent -->
<g id="node11" class="node">
<title>ContactComponent</title>
<polygon fill="#ffffb3" stroke="black" points="2165.38,-160.8 2040.62,-160.8 2040.62,-124.8 2165.38,-124.8 2165.38,-160.8"/>
<text text-anchor="middle" x="2103" y="-138.6" font-family="Times,serif" font-size="14.00">ContactComponent</text>
</g>
<!-- ContactComponent&#45;&gt;HomeModule -->
<g id="edge10" class="edge">
<title>ContactComponent&#45;&gt;HomeModule</title>
<path fill="none" stroke="black" d="M2060.72,-160.91C2060.72,-160.91 2060.72,-179.79 2060.72,-179.79"/>
<polygon fill="black" stroke="black" points="2057.22,-179.79 2060.72,-189.79 2064.22,-179.79 2057.22,-179.79"/>
</g>
<!-- IndexComponent -->
<g id="node12" class="node">
<title>IndexComponent</title>
<polygon fill="#ffffb3" stroke="black" points="2022.71,-160.8 1909.29,-160.8 1909.29,-124.8 2022.71,-124.8 2022.71,-160.8"/>
<text text-anchor="middle" x="1966" y="-138.6" font-family="Times,serif" font-size="14.00">IndexComponent</text>
</g>
<!-- IndexComponent&#45;&gt;HomeModule -->
<g id="edge11" class="edge">
<title>IndexComponent&#45;&gt;HomeModule</title>
<path fill="none" stroke="black" d="M2004.86,-160.91C2004.86,-160.91 2004.86,-179.79 2004.86,-179.79"/>
<polygon fill="black" stroke="black" points="2001.36,-179.79 2004.86,-189.79 2008.36,-179.79 2001.36,-179.79"/>
</g>
<!-- NewsComponent -->
<g id="node13" class="node">
<title>NewsComponent</title>
<polygon fill="#ffffb3" stroke="black" points="2449.71,-160.8 2336.29,-160.8 2336.29,-124.8 2449.71,-124.8 2449.71,-160.8"/>
<text text-anchor="middle" x="2393" y="-138.6" font-family="Times,serif" font-size="14.00">NewsComponent</text>
</g>
<!-- NewsComponent&#45;&gt;HomeModule -->
<g id="edge12" class="edge">
<title>NewsComponent&#45;&gt;HomeModule</title>
<path fill="none" stroke="black" d="M2393,-161.08C2393,-182.12 2393,-213.8 2393,-213.8 2393,-213.8 2090.93,-213.8 2090.93,-213.8"/>
<polygon fill="black" stroke="black" points="2090.93,-210.3 2080.93,-213.8 2090.93,-217.3 2090.93,-210.3"/>
</g>
<!-- ToolsListComponent -->
<g id="node14" class="node">
<title>ToolsListComponent</title>
<polygon fill="#ffffb3" stroke="black" points="2318.5,-160.8 2183.5,-160.8 2183.5,-124.8 2318.5,-124.8 2318.5,-160.8"/>
<text text-anchor="middle" x="2251" y="-138.6" font-family="Times,serif" font-size="14.00">ToolsListComponent</text>
</g>
<!-- ToolsListComponent&#45;&gt;HomeModule -->
<g id="edge13" class="edge">
<title>ToolsListComponent&#45;&gt;HomeModule</title>
<path fill="none" stroke="black" d="M2251,-160.82C2251,-178.17 2251,-201.8 2251,-201.8 2251,-201.8 2090.82,-201.8 2090.82,-201.8"/>
<polygon fill="black" stroke="black" points="2090.82,-198.3 2080.82,-201.8 2090.82,-205.3 2090.82,-198.3"/>
</g>
<!-- HomeRoutingModule -->
<g id="node16" class="node">
<title>HomeRoutingModule</title>
<polygon fill="#8dd3c7" stroke="black" points="1885.38,-160.8 1882.38,-164.8 1861.38,-164.8 1858.38,-160.8 1746.62,-160.8 1746.62,-124.8 1885.38,-124.8 1885.38,-160.8"/>
<text text-anchor="middle" x="1816" y="-138.6" font-family="Times,serif" font-size="14.00">HomeRoutingModule</text>
</g>
<!-- HomeRoutingModule&#45;&gt;HomeModule -->
<g id="edge14" class="edge">
<title>HomeRoutingModule&#45;&gt;HomeModule</title>
<path fill="none" stroke="black" d="M1816,-160.83C1816,-177.2 1816,-198.8 1816,-198.8 1816,-198.8 1977.23,-198.8 1977.23,-198.8"/>
<polygon fill="black" stroke="black" points="1977.23,-202.3 1987.23,-198.8 1977.23,-195.3 1977.23,-202.3"/>
</g>
<!-- LogDetailComponent -->
<g id="node17" class="node">
<title>LogDetailComponent</title>
<polygon fill="#ffffb3" stroke="black" points="2924.09,-160.8 2785.91,-160.8 2785.91,-124.8 2924.09,-124.8 2924.09,-160.8"/>
<text text-anchor="middle" x="2855" y="-138.6" font-family="Times,serif" font-size="14.00">LogDetailComponent</text>
</g>
<!-- LogDetailComponent&#45;&gt;LogModule -->
<g id="edge16" class="edge">
<title>LogDetailComponent&#45;&gt;LogModule</title>
<path fill="none" stroke="black" d="M2855,-161.04C2855,-176.37 2855,-195.8 2855,-195.8 2855,-195.8 2680.19,-195.8 2680.19,-195.8"/>
<polygon fill="black" stroke="black" points="2680.19,-192.3 2670.19,-195.8 2680.19,-199.3 2680.19,-192.3"/>
</g>
<!-- LogListComponent -->
<g id="node18" class="node">
<title>LogListComponent</title>
<polygon fill="#ffffb3" stroke="black" points="2767.66,-160.8 2642.34,-160.8 2642.34,-124.8 2767.66,-124.8 2767.66,-160.8"/>
<text text-anchor="middle" x="2705" y="-138.6" font-family="Times,serif" font-size="14.00">LogListComponent</text>
</g>
<!-- LogListComponent&#45;&gt;LogModule -->
<g id="edge17" class="edge">
<title>LogListComponent&#45;&gt;LogModule</title>
<path fill="none" stroke="black" d="M2656.11,-160.91C2656.11,-160.91 2656.11,-179.79 2656.11,-179.79"/>
<polygon fill="black" stroke="black" points="2652.61,-179.79 2656.11,-189.79 2659.61,-179.79 2652.61,-179.79"/>
</g>
<!-- LogRoutingModule -->
<g id="node20" class="node">
<title>LogRoutingModule</title>
<polygon fill="#8dd3c7" stroke="black" points="2617.72,-160.8 2614.72,-164.8 2593.72,-164.8 2590.72,-160.8 2490.28,-160.8 2490.28,-124.8 2617.72,-124.8 2617.72,-160.8"/>
<text text-anchor="middle" x="2554" y="-138.6" font-family="Times,serif" font-size="14.00">LogRoutingModule</text>
</g>
<!-- LogRoutingModule&#45;&gt;LogModule -->
<g id="edge18" class="edge">
<title>LogRoutingModule&#45;&gt;LogModule</title>
<path fill="none" stroke="black" d="M2607.72,-160.91C2607.72,-160.91 2607.72,-179.79 2607.72,-179.79"/>
<polygon fill="black" stroke="black" points="2604.22,-179.79 2607.72,-189.79 2611.22,-179.79 2604.22,-179.79"/>
</g>
<!-- AdsComponent -->
<g id="node21" class="node">
<title>AdsComponent</title>
<polygon fill="#ffffb3" stroke="black" points="1849.89,-84.8 1746.11,-84.8 1746.11,-48.8 1849.89,-48.8 1849.89,-84.8"/>
<text text-anchor="middle" x="1798" y="-62.6" font-family="Times,serif" font-size="14.00">AdsComponent</text>
</g>
<!-- AdsComponent&#45;&gt;SharedModule -->
<g id="edge20" class="edge">
<title>AdsComponent&#45;&gt;SharedModule</title>
<path fill="none" stroke="black" d="M1745.86,-66.8C1740.59,-66.8 1737.14,-66.8 1737.14,-66.8 1737.14,-66.8 1737.14,-142.8 1737.14,-142.8 1737.14,-142.8 1717.22,-142.8 1717.22,-142.8"/>
<polygon fill="black" stroke="black" points="1717.22,-139.3 1707.22,-142.8 1717.22,-146.3 1717.22,-139.3"/>
</g>
<!-- AdsModalComponent -->
<g id="node22" class="node">
<title>AdsModalComponent</title>
<polygon fill="#ffffb3" stroke="black" points="1728.44,-84.8 1587.56,-84.8 1587.56,-48.8 1728.44,-48.8 1728.44,-84.8"/>
<text text-anchor="middle" x="1658" y="-62.6" font-family="Times,serif" font-size="14.00">AdsModalComponent</text>
</g>
<!-- AdsModalComponent&#45;&gt;SharedModule -->
<g id="edge21" class="edge">
<title>AdsModalComponent&#45;&gt;SharedModule</title>
<path fill="none" stroke="black" d="M1658,-84.81C1658,-84.81 1658,-114.65 1658,-114.65"/>
<polygon fill="black" stroke="black" points="1654.5,-114.65 1658,-124.65 1661.5,-114.65 1654.5,-114.65"/>
</g>
<!-- AmazonAdsComponent -->
<g id="node23" class="node">
<title>AmazonAdsComponent</title>
<polygon fill="#ffffb3" stroke="black" points="3228.82,-84.8 3077.18,-84.8 3077.18,-48.8 3228.82,-48.8 3228.82,-84.8"/>
<text text-anchor="middle" x="3153" y="-62.6" font-family="Times,serif" font-size="14.00">AmazonAdsComponent</text>
</g>
<!-- AmazonAdsComponent&#45;&gt;SharedModule -->
<g id="edge22" class="edge">
<title>AmazonAdsComponent&#45;&gt;SharedModule</title>
<path fill="none" stroke="black" d="M3112.34,-84.96C3112.34,-113.54 3112.34,-165.8 3112.34,-165.8 3112.34,-165.8 1652.53,-165.8 1652.53,-165.8 1652.53,-165.8 1652.53,-165.31 1652.53,-165.31"/>
<polygon fill="black" stroke="black" points="1656.03,-170.92 1652.53,-160.92 1649.03,-170.92 1656.03,-170.92"/>
</g>
<!-- LazyImgComponent -->
<g id="node24" class="node">
<title>LazyImgComponent</title>
<polygon fill="#ffffb3" stroke="black" points="3058.86,-84.8 2927.14,-84.8 2927.14,-48.8 3058.86,-48.8 3058.86,-84.8"/>
<text text-anchor="middle" x="2993" y="-62.6" font-family="Times,serif" font-size="14.00">LazyImgComponent</text>
</g>
<!-- LazyImgComponent&#45;&gt;SharedModule -->
<g id="edge23" class="edge">
<title>LazyImgComponent&#45;&gt;SharedModule</title>
<path fill="none" stroke="black" d="M2945.39,-84.87C2945.39,-94.26 2945.39,-103.8 2945.39,-103.8 2945.39,-103.8 1702.29,-103.8 1702.29,-103.8 1702.29,-103.8 1702.29,-114.67 1702.29,-114.67"/>
<polygon fill="black" stroke="black" points="1698.79,-114.67 1702.29,-124.67 1705.79,-114.67 1698.79,-114.67"/>
</g>
<!-- LoadingComponent -->
<g id="node25" class="node">
<title>LoadingComponent</title>
<polygon fill="#ffffb3" stroke="black" points="2908.99,-84.8 2781.01,-84.8 2781.01,-48.8 2908.99,-48.8 2908.99,-84.8"/>
<text text-anchor="middle" x="2845" y="-62.6" font-family="Times,serif" font-size="14.00">LoadingComponent</text>
</g>
<!-- LoadingComponent&#45;&gt;SharedModule -->
<g id="edge24" class="edge">
<title>LoadingComponent&#45;&gt;SharedModule</title>
<path fill="none" stroke="black" d="M2847.47,-85.12C2847.47,-93.59 2847.47,-101.8 2847.47,-101.8 2847.47,-101.8 1697.37,-101.8 1697.37,-101.8 1697.37,-101.8 1697.37,-114.7 1697.37,-114.7"/>
<polygon fill="black" stroke="black" points="1693.87,-114.7 1697.37,-124.7 1700.87,-114.7 1693.87,-114.7"/>
</g>
<!-- MdescapePipe -->
<g id="node26" class="node">
<title>MdescapePipe</title>
<polygon fill="#ffffb3" stroke="black" points="2762.64,-84.8 2665.36,-84.8 2665.36,-48.8 2762.64,-48.8 2762.64,-84.8"/>
<text text-anchor="middle" x="2714" y="-62.6" font-family="Times,serif" font-size="14.00">MdescapePipe</text>
</g>
<!-- MdescapePipe&#45;&gt;SharedModule -->
<g id="edge25" class="edge">
<title>MdescapePipe&#45;&gt;SharedModule</title>
<path fill="none" stroke="black" d="M2714,-84.84C2714,-92.55 2714,-99.8 2714,-99.8 2714,-99.8 1692.45,-99.8 1692.45,-99.8 1692.45,-99.8 1692.45,-114.31 1692.45,-114.31"/>
<polygon fill="black" stroke="black" points="1688.95,-114.31 1692.45,-124.31 1695.95,-114.31 1688.95,-114.31"/>
</g>
<!-- MessageComponent -->
<g id="node27" class="node">
<title>MessageComponent</title>
<polygon fill="#ffffb3" stroke="black" points="2647.32,-84.8 2516.68,-84.8 2516.68,-48.8 2647.32,-48.8 2647.32,-84.8"/>
<text text-anchor="middle" x="2582" y="-62.6" font-family="Times,serif" font-size="14.00">MessageComponent</text>
</g>
<!-- MessageComponent&#45;&gt;SharedModule -->
<g id="edge26" class="edge">
<title>MessageComponent&#45;&gt;SharedModule</title>
<path fill="none" stroke="black" d="M2567.23,-84.83C2567.23,-91.65 2567.23,-97.8 2567.23,-97.8 2567.23,-97.8 1687.53,-97.8 1687.53,-97.8 1687.53,-97.8 1687.53,-114.76 1687.53,-114.76"/>
<polygon fill="black" stroke="black" points="1684.03,-114.76 1687.53,-124.76 1691.03,-114.76 1684.03,-114.76"/>
</g>
<!-- NavComponent -->
<g id="node28" class="node">
<title>NavComponent</title>
<polygon fill="#ffffb3" stroke="black" points="2499.16,-84.8 2394.84,-84.8 2394.84,-48.8 2499.16,-48.8 2499.16,-84.8"/>
<text text-anchor="middle" x="2447" y="-62.6" font-family="Times,serif" font-size="14.00">NavComponent</text>
</g>
<!-- NavComponent&#45;&gt;SharedModule -->
<g id="edge27" class="edge">
<title>NavComponent&#45;&gt;SharedModule</title>
<path fill="none" stroke="black" d="M2422.14,-85C2422.14,-90.83 2422.14,-95.8 2422.14,-95.8 2422.14,-95.8 1682.61,-95.8 1682.61,-95.8 1682.61,-95.8 1682.61,-114.76 1682.61,-114.76"/>
<polygon fill="black" stroke="black" points="1679.11,-114.76 1682.61,-124.76 1686.11,-114.76 1679.11,-114.76"/>
</g>
<!-- NewsbarComponent -->
<g id="node29" class="node">
<title>NewsbarComponent</title>
<polygon fill="#ffffb3" stroke="black" points="2376.59,-84.8 2245.41,-84.8 2245.41,-48.8 2376.59,-48.8 2376.59,-84.8"/>
<text text-anchor="middle" x="2311" y="-62.6" font-family="Times,serif" font-size="14.00">NewsbarComponent</text>
</g>
<!-- NewsbarComponent&#45;&gt;SharedModule -->
<g id="edge28" class="edge">
<title>NewsbarComponent&#45;&gt;SharedModule</title>
<path fill="none" stroke="black" d="M2281.98,-84.96C2281.98,-89.84 2281.98,-93.8 2281.98,-93.8 2281.98,-93.8 1677.69,-93.8 1677.69,-93.8 1677.69,-93.8 1677.69,-114.55 1677.69,-114.55"/>
<polygon fill="black" stroke="black" points="1674.19,-114.55 1677.69,-124.55 1681.19,-114.55 1674.19,-114.55"/>
</g>
<!-- ProfileComponent -->
<g id="node30" class="node">
<title>ProfileComponent</title>
<polygon fill="#ffffb3" stroke="black" points="2227.94,-84.8 2108.06,-84.8 2108.06,-48.8 2227.94,-48.8 2227.94,-84.8"/>
<text text-anchor="middle" x="2168" y="-62.6" font-family="Times,serif" font-size="14.00">ProfileComponent</text>
</g>
<!-- ProfileComponent&#45;&gt;SharedModule -->
<g id="edge29" class="edge">
<title>ProfileComponent&#45;&gt;SharedModule</title>
<path fill="none" stroke="black" d="M2136.86,-84.97C2136.86,-88.85 2136.86,-91.8 2136.86,-91.8 2136.86,-91.8 1672.76,-91.8 1672.76,-91.8 1672.76,-91.8 1672.76,-114.68 1672.76,-114.68"/>
<polygon fill="black" stroke="black" points="1669.26,-114.68 1672.76,-124.68 1676.26,-114.68 1669.26,-114.68"/>
</g>
<!-- TweetBtnComponent -->
<g id="node31" class="node">
<title>TweetBtnComponent</title>
<polygon fill="#ffffb3" stroke="black" points="2090.04,-84.8 1953.96,-84.8 1953.96,-48.8 2090.04,-48.8 2090.04,-84.8"/>
<text text-anchor="middle" x="2022" y="-62.6" font-family="Times,serif" font-size="14.00">TweetBtnComponent</text>
</g>
<!-- TweetBtnComponent&#45;&gt;SharedModule -->
<g id="edge30" class="edge">
<title>TweetBtnComponent&#45;&gt;SharedModule</title>
<path fill="none" stroke="black" d="M1988.17,-84.92C1988.17,-87.77 1988.17,-89.8 1988.17,-89.8 1988.17,-89.8 1667.84,-89.8 1667.84,-89.8 1667.84,-89.8 1667.84,-114.56 1667.84,-114.56"/>
<polygon fill="black" stroke="black" points="1664.34,-114.56 1667.84,-124.56 1671.34,-114.56 1664.34,-114.56"/>
</g>
<!-- YearPipe -->
<g id="node32" class="node">
<title>YearPipe</title>
<polygon fill="#ffffb3" stroke="black" points="1936.09,-84.8 1867.91,-84.8 1867.91,-48.8 1936.09,-48.8 1936.09,-84.8"/>
<text text-anchor="middle" x="1902" y="-62.6" font-family="Times,serif" font-size="14.00">YearPipe</text>
</g>
<!-- YearPipe&#45;&gt;SharedModule -->
<g id="edge31" class="edge">
<title>YearPipe&#45;&gt;SharedModule</title>
<path fill="none" stroke="black" d="M1876.7,-84.88C1876.7,-86.65 1876.7,-87.8 1876.7,-87.8 1876.7,-87.8 1662.92,-87.8 1662.92,-87.8 1662.92,-87.8 1662.92,-114.79 1662.92,-114.79"/>
<polygon fill="black" stroke="black" points="1659.42,-114.79 1662.92,-124.79 1666.42,-114.79 1659.42,-114.79"/>
</g>
<!-- AmazonAssociateComponent -->
<g id="node44" class="node">
<title>AmazonAssociateComponent</title>
<polygon fill="#ffffb3" stroke="black" points="3307.69,-160.8 3124.31,-160.8 3124.31,-124.8 3307.69,-124.8 3307.69,-160.8"/>
<text text-anchor="middle" x="3216" y="-138.6" font-family="Times,serif" font-size="14.00">AmazonAssociateComponent</text>
</g>
<!-- AmazonAssociateComponent&#45;&gt;ToolsModule -->
<g id="edge43" class="edge">
<title>AmazonAssociateComponent&#45;&gt;ToolsModule</title>
<path fill="none" stroke="black" d="M3216,-160.84C3216,-182.46 3216,-215.8 3216,-215.8 3216,-215.8 3782.26,-215.8 3782.26,-215.8"/>
<polygon fill="black" stroke="black" points="3782.26,-219.3 3792.26,-215.8 3782.26,-212.3 3782.26,-219.3"/>
</g>
<!-- Base64Component -->
<g id="node45" class="node">
<title>Base64Component</title>
<polygon fill="#ffffb3" stroke="black" points="4831.05,-160.8 4708.95,-160.8 4708.95,-124.8 4831.05,-124.8 4831.05,-160.8"/>
<text text-anchor="middle" x="4770" y="-138.6" font-family="Times,serif" font-size="14.00">Base64Component</text>
</g>
<!-- Base64Component&#45;&gt;ToolsModule -->
<g id="edge44" class="edge">
<title>Base64Component&#45;&gt;ToolsModule</title>
<path fill="none" stroke="black" d="M4770,-160.89C4770,-183.93 4770,-220.8 4770,-220.8 4770,-220.8 3893.9,-220.8 3893.9,-220.8"/>
<polygon fill="black" stroke="black" points="3893.9,-217.3 3883.9,-220.8 3893.9,-224.3 3893.9,-217.3"/>
</g>
<!-- JsonFormatterComponent -->
<g id="node46" class="node">
<title>JsonFormatterComponent</title>
<polygon fill="#ffffb3" stroke="black" points="4690.94,-160.8 4529.06,-160.8 4529.06,-124.8 4690.94,-124.8 4690.94,-160.8"/>
<text text-anchor="middle" x="4610" y="-138.6" font-family="Times,serif" font-size="14.00">JsonFormatterComponent</text>
</g>
<!-- JsonFormatterComponent&#45;&gt;ToolsModule -->
<g id="edge45" class="edge">
<title>JsonFormatterComponent&#45;&gt;ToolsModule</title>
<path fill="none" stroke="black" d="M4610,-160.84C4610,-182.46 4610,-215.8 4610,-215.8 4610,-215.8 3893.98,-215.8 3893.98,-215.8"/>
<polygon fill="black" stroke="black" points="3893.98,-212.3 3883.98,-215.8 3893.98,-219.3 3893.98,-212.3"/>
</g>
<!-- JsonTyperComponent -->
<g id="node47" class="node">
<title>JsonTyperComponent</title>
<polygon fill="#ffffb3" stroke="black" points="4510.66,-160.8 4371.34,-160.8 4371.34,-124.8 4510.66,-124.8 4510.66,-160.8"/>
<text text-anchor="middle" x="4441" y="-138.6" font-family="Times,serif" font-size="14.00">JsonTyperComponent</text>
</g>
<!-- JsonTyperComponent&#45;&gt;ToolsModule -->
<g id="edge46" class="edge">
<title>JsonTyperComponent&#45;&gt;ToolsModule</title>
<path fill="none" stroke="black" d="M4441,-161.02C4441,-181.17 4441,-210.8 4441,-210.8 4441,-210.8 3893.82,-210.8 3893.82,-210.8"/>
<polygon fill="black" stroke="black" points="3893.82,-207.3 3883.82,-210.8 3893.82,-214.3 3893.82,-207.3"/>
</g>
<!-- MdwriterComponent -->
<g id="node48" class="node">
<title>MdwriterComponent</title>
<polygon fill="#ffffb3" stroke="black" points="4353.21,-160.8 4218.79,-160.8 4218.79,-124.8 4353.21,-124.8 4353.21,-160.8"/>
<text text-anchor="middle" x="4286" y="-138.6" font-family="Times,serif" font-size="14.00">MdwriterComponent</text>
</g>
<!-- MdwriterComponent&#45;&gt;ToolsModule -->
<g id="edge47" class="edge">
<title>MdwriterComponent&#45;&gt;ToolsModule</title>
<path fill="none" stroke="black" d="M4286,-161.02C4286,-179.63 4286,-205.8 4286,-205.8 4286,-205.8 3893.84,-205.8 3893.84,-205.8"/>
<polygon fill="black" stroke="black" points="3893.84,-202.3 3883.84,-205.8 3893.84,-209.3 3893.84,-202.3"/>
</g>
<!-- MermaidComponent -->
<g id="node49" class="node">
<title>MermaidComponent</title>
<polygon fill="#ffffb3" stroke="black" points="4201.15,-160.8 4068.85,-160.8 4068.85,-124.8 4201.15,-124.8 4201.15,-160.8"/>
<text text-anchor="middle" x="4135" y="-138.6" font-family="Times,serif" font-size="14.00">MermaidComponent</text>
</g>
<!-- MermaidComponent&#45;&gt;ToolsModule -->
<g id="edge48" class="edge">
<title>MermaidComponent&#45;&gt;ToolsModule</title>
<path fill="none" stroke="black" d="M4135,-160.83C4135,-177.86 4135,-200.8 4135,-200.8 4135,-200.8 3893.76,-200.8 3893.76,-200.8"/>
<polygon fill="black" stroke="black" points="3893.76,-197.3 3883.76,-200.8 3893.76,-204.3 3893.76,-197.3"/>
</g>
<!-- OpenapiComponent -->
<g id="node50" class="node">
<title>OpenapiComponent</title>
<polygon fill="#ffffb3" stroke="black" points="4050.26,-160.8 3921.74,-160.8 3921.74,-124.8 4050.26,-124.8 4050.26,-160.8"/>
<text text-anchor="middle" x="3986" y="-138.6" font-family="Times,serif" font-size="14.00">OpenapiComponent</text>
</g>
<!-- OpenapiComponent&#45;&gt;ToolsModule -->
<g id="edge49" class="edge">
<title>OpenapiComponent&#45;&gt;ToolsModule</title>
<path fill="none" stroke="black" d="M3986,-161.04C3986,-176.37 3986,-195.8 3986,-195.8 3986,-195.8 3894.02,-195.8 3894.02,-195.8"/>
<polygon fill="black" stroke="black" points="3894.02,-192.3 3884.02,-195.8 3894.02,-199.3 3894.02,-192.3"/>
</g>
<!-- RealtimeComponent -->
<g id="node51" class="node">
<title>RealtimeComponent</title>
<polygon fill="#ffffb3" stroke="black" points="3903.87,-160.8 3772.13,-160.8 3772.13,-124.8 3903.87,-124.8 3903.87,-160.8"/>
<text text-anchor="middle" x="3838" y="-138.6" font-family="Times,serif" font-size="14.00">RealtimeComponent</text>
</g>
<!-- RealtimeComponent&#45;&gt;ToolsModule -->
<g id="edge50" class="edge">
<title>RealtimeComponent&#45;&gt;ToolsModule</title>
<path fill="none" stroke="black" d="M3853.24,-160.91C3853.24,-160.91 3853.24,-179.79 3853.24,-179.79"/>
<polygon fill="black" stroke="black" points="3849.74,-179.79 3853.24,-189.79 3856.74,-179.79 3849.74,-179.79"/>
</g>
<!-- RegexComponent -->
<g id="node52" class="node">
<title>RegexComponent</title>
<polygon fill="#ffffb3" stroke="black" points="3754.6,-160.8 3637.4,-160.8 3637.4,-124.8 3754.6,-124.8 3754.6,-160.8"/>
<text text-anchor="middle" x="3696" y="-138.6" font-family="Times,serif" font-size="14.00">RegexComponent</text>
</g>
<!-- RegexComponent&#45;&gt;ToolsModule -->
<g id="edge51" class="edge">
<title>RegexComponent&#45;&gt;ToolsModule</title>
<path fill="none" stroke="black" d="M3696,-160.83C3696,-177.86 3696,-200.8 3696,-200.8 3696,-200.8 3781.9,-200.8 3781.9,-200.8"/>
<polygon fill="black" stroke="black" points="3781.9,-204.3 3791.9,-200.8 3781.9,-197.3 3781.9,-204.3"/>
</g>
<!-- UserInfoComponent -->
<g id="node53" class="node">
<title>UserInfoComponent</title>
<polygon fill="#ffffb3" stroke="black" points="3619.59,-160.8 3488.41,-160.8 3488.41,-124.8 3619.59,-124.8 3619.59,-160.8"/>
<text text-anchor="middle" x="3554" y="-138.6" font-family="Times,serif" font-size="14.00">UserInfoComponent</text>
</g>
<!-- UserInfoComponent&#45;&gt;ToolsModule -->
<g id="edge52" class="edge">
<title>UserInfoComponent&#45;&gt;ToolsModule</title>
<path fill="none" stroke="black" d="M3554,-161.02C3554,-179.63 3554,-205.8 3554,-205.8 3554,-205.8 3782.05,-205.8 3782.05,-205.8"/>
<polygon fill="black" stroke="black" points="3782.05,-209.3 3792.05,-205.8 3782.05,-202.3 3782.05,-209.3"/>
</g>
<!-- YearCheckComponent -->
<g id="node54" class="node">
<title>YearCheckComponent</title>
<polygon fill="#ffffb3" stroke="black" points="3470.3,-160.8 3325.7,-160.8 3325.7,-124.8 3470.3,-124.8 3470.3,-160.8"/>
<text text-anchor="middle" x="3398" y="-138.6" font-family="Times,serif" font-size="14.00">YearCheckComponent</text>
</g>
<!-- YearCheckComponent&#45;&gt;ToolsModule -->
<g id="edge53" class="edge">
<title>YearCheckComponent&#45;&gt;ToolsModule</title>
<path fill="none" stroke="black" d="M3398,-161.02C3398,-181.17 3398,-210.8 3398,-210.8 3398,-210.8 3782.16,-210.8 3782.16,-210.8"/>
<polygon fill="black" stroke="black" points="3782.16,-214.3 3792.16,-210.8 3782.16,-207.3 3782.16,-214.3"/>
</g>
<!-- ToolsRoutingModule -->
<g id="node56" class="node">
<title>ToolsRoutingModule</title>
<polygon fill="#8dd3c7" stroke="black" points="3100.06,-160.8 3097.06,-164.8 3076.06,-164.8 3073.06,-160.8 2963.94,-160.8 2963.94,-124.8 3100.06,-124.8 3100.06,-160.8"/>
<text text-anchor="middle" x="3032" y="-138.6" font-family="Times,serif" font-size="14.00">ToolsRoutingModule</text>
</g>
<!-- ToolsRoutingModule&#45;&gt;ToolsModule -->
<g id="edge55" class="edge">
<title>ToolsRoutingModule&#45;&gt;ToolsModule</title>
<path fill="none" stroke="black" d="M3032,-160.89C3032,-183.93 3032,-220.8 3032,-220.8 3032,-220.8 3782.06,-220.8 3782.06,-220.8"/>
<polygon fill="black" stroke="black" points="3782.06,-224.3 3792.06,-220.8 3782.06,-217.3 3782.06,-224.3"/>
</g>
</g>
</svg>
