<?xml version="1.0" encoding="UTF-8" standalone="no"?>
<!DOCTYPE svg PUBLIC "-//W3C//DTD SVG 1.1//EN"
 "http://www.w3.org/Graphics/SVG/1.1/DTD/svg11.dtd">
<!-- Generated by graphviz version 2.47.3 (20210619.1520)
 -->
<!-- Title: dependencies Pages: 1 -->
<svg width="2923pt" height="253pt"
 viewBox="0.00 0.00 2923.00 252.80" xmlns="http://www.w3.org/2000/svg" xmlns:xlink="http://www.w3.org/1999/xlink">
<g id="graph0" class="graph" transform="scale(1 1) rotate(0) translate(4 248.8)">
<title>dependencies</title>
<polygon fill="white" stroke="transparent" points="-4,4 -4,-248.8 2919,-248.8 2919,4 -4,4"/>
<text text-anchor="middle" x="1457.5" y="-8.2" font-family="sans-serif" font-size="14.00">dependencies</text>
<g id="clust1" class="cluster">
<title>cluster_AppModule</title>
<polygon fill="none" stroke="black" stroke-dasharray="1,5" points="8,-32.8 8,-236.8 415,-236.8 415,-32.8 8,-32.8"/>
</g>
<g id="clust2" class="cluster">
<title>cluster_AppModule_declarations</title>
<polygon fill="none" stroke="black" points="16,-40.8 16,-92.8 138,-92.8 138,-40.8 16,-40.8"/>
</g>
<g id="clust4" class="cluster">
<title>cluster_AppModule_imports</title>
<polygon fill="none" stroke="black" points="146,-40.8 146,-92.8 407,-92.8 407,-40.8 146,-40.8"/>
</g>
<g id="clust6" class="cluster">
<title>cluster_AppModule_bootstrap</title>
<polygon fill="none" stroke="black" points="156,-176.8 156,-228.8 280,-228.8 280,-176.8 156,-176.8"/>
</g>
<g id="clust14" class="cluster">
<title>cluster_BlogModule</title>
<polygon fill="none" stroke="black" stroke-dasharray="1,5" points="1359,-32.8 1359,-160.8 1838,-160.8 1838,-32.8 1359,-32.8"/>
</g>
<g id="clust15" class="cluster">
<title>cluster_BlogModule_declarations</title>
<polygon fill="none" stroke="black" points="1523,-40.8 1523,-92.8 1830,-92.8 1830,-40.8 1523,-40.8"/>
</g>
<g id="clust18" class="cluster">
<title>cluster_BlogModule_imports</title>
<polygon fill="none" stroke="black" points="1367,-40.8 1367,-92.8 1515,-92.8 1515,-40.8 1367,-40.8"/>
</g>
<g id="clust28" class="cluster">
<title>cluster_HomeModule</title>
<polygon fill="none" stroke="black" stroke-dasharray="1,5" points="2320,-32.8 2320,-160.8 2907,-160.8 2907,-32.8 2320,-32.8"/>
</g>
<g id="clust29" class="cluster">
<title>cluster_HomeModule_declarations</title>
<polygon fill="none" stroke="black" points="2490,-40.8 2490,-92.8 2899,-92.8 2899,-40.8 2490,-40.8"/>
</g>
<g id="clust33" class="cluster">
<title>cluster_HomeModule_imports</title>
<polygon fill="none" stroke="black" points="2328,-40.8 2328,-92.8 2482,-92.8 2482,-40.8 2328,-40.8"/>
</g>
<g id="clust43" class="cluster">
<title>cluster_LogModule</title>
<polygon fill="none" stroke="black" stroke-dasharray="1,5" points="1846,-32.8 1846,-160.8 2312,-160.8 2312,-32.8 1846,-32.8"/>
</g>
<g id="clust44" class="cluster">
<title>cluster_LogModule_declarations</title>
<polygon fill="none" stroke="black" points="2006,-40.8 2006,-92.8 2304,-92.8 2304,-40.8 2006,-40.8"/>
</g>
<g id="clust47" class="cluster">
<title>cluster_LogModule_imports</title>
<polygon fill="none" stroke="black" points="1854,-40.8 1854,-92.8 1998,-92.8 1998,-40.8 1854,-40.8"/>
</g>
<g id="clust57" class="cluster">
<title>cluster_SharedModule</title>
<polygon fill="none" stroke="black" stroke-dasharray="1,5" points="423,-100.8 423,-168.8 1351,-168.8 1351,-100.8 423,-100.8"/>
</g>
<g id="clust58" class="cluster">
<title>cluster_SharedModule_declarations</title>
<polygon fill="none" stroke="black" points="897,-108.8 897,-160.8 1343,-160.8 1343,-108.8 897,-108.8"/>
</g>
<g id="clust63" class="cluster">
<title>cluster_SharedModule_exports</title>
<polygon fill="none" stroke="black" points="431,-108.8 431,-160.8 889,-160.8 889,-108.8 431,-108.8"/>
</g>
<!-- AppComponent -->
<g id="node1" class="node">
<title>AppComponent</title>
<polygon fill="#ffffb3" stroke="black" points="129.94,-84.8 24.06,-84.8 24.06,-48.8 129.94,-48.8 129.94,-84.8"/>
<text text-anchor="middle" x="77" y="-62.6" font-family="Times,serif" font-size="14.00">AppComponent</text>
</g>
<!-- AppModule -->
<g id="node2" class="node">
<title>AppModule</title>
<polygon fill="#8dd3c7" stroke="black" points="259.66,-152.8 256.66,-156.8 235.66,-156.8 232.66,-152.8 176.34,-152.8 176.34,-116.8 259.66,-116.8 259.66,-152.8"/>
<text text-anchor="middle" x="218" y="-130.6" font-family="Times,serif" font-size="14.00">AppModule</text>
</g>
<!-- AppComponent&#45;&gt;AppModule -->
<g id="edge1" class="edge">
<title>AppComponent&#45;&gt;AppModule</title>
<path fill="none" stroke="black" d="M77,-85.02C77,-105.17 77,-134.8 77,-134.8 77,-134.8 166.08,-134.8 166.08,-134.8"/>
<polygon fill="black" stroke="black" points="166.08,-138.3 176.08,-134.8 166.08,-131.3 166.08,-138.3"/>
</g>
<!-- AppComponent  -->
<g id="node5" class="node">
<title>AppComponent </title>
<polygon fill="#80b1d3" stroke="black" points="272.44,-220.8 163.56,-220.8 163.56,-184.8 272.44,-184.8 272.44,-220.8"/>
<text text-anchor="middle" x="218" y="-198.6" font-family="Times,serif" font-size="14.00">AppComponent </text>
</g>
<!-- AppModule&#45;&gt;AppComponent  -->
<g id="edge4" class="edge">
<title>AppModule&#45;&gt;AppComponent </title>
<path fill="none" stroke="black" stroke-dasharray="1,5" d="M218,-153.02C218,-153.02 218,-174.53 218,-174.53"/>
<polygon fill="black" stroke="black" points="214.5,-174.53 218,-184.53 221.5,-174.53 214.5,-174.53"/>
</g>
<!-- AppRoutingModule -->
<g id="node3" class="node">
<title>AppRoutingModule</title>
<polygon fill="#8dd3c7" stroke="black" points="282.27,-84.8 279.27,-88.8 258.27,-88.8 255.27,-84.8 153.73,-84.8 153.73,-48.8 282.27,-48.8 282.27,-84.8"/>
<text text-anchor="middle" x="218" y="-62.6" font-family="Times,serif" font-size="14.00">AppRoutingModule</text>
</g>
<!-- AppRoutingModule&#45;&gt;AppModule -->
<g id="edge2" class="edge">
<title>AppRoutingModule&#45;&gt;AppModule</title>
<path fill="none" stroke="black" d="M218,-85.02C218,-85.02 218,-106.53 218,-106.53"/>
<polygon fill="black" stroke="black" points="214.5,-106.53 218,-116.53 221.5,-106.53 214.5,-106.53"/>
</g>
<!-- SharedModule -->
<g id="node4" class="node">
<title>SharedModule</title>
<polygon fill="#8dd3c7" stroke="black" points="399.42,-84.8 396.42,-88.8 375.42,-88.8 372.42,-84.8 300.58,-84.8 300.58,-48.8 399.42,-48.8 399.42,-84.8"/>
<text text-anchor="middle" x="350" y="-62.6" font-family="Times,serif" font-size="14.00">SharedModule</text>
</g>
<!-- SharedModule&#45;&gt;AppModule -->
<g id="edge3" class="edge">
<title>SharedModule&#45;&gt;AppModule</title>
<path fill="none" stroke="black" d="M350,-85.09C350,-107.01 350,-140.8 350,-140.8 350,-140.8 269.77,-140.8 269.77,-140.8"/>
<polygon fill="black" stroke="black" points="269.77,-137.3 259.77,-140.8 269.77,-144.3 269.77,-137.3"/>
</g>
<!-- BlogModule -->
<g id="node8" class="node">
<title>BlogModule</title>
<polygon fill="#8dd3c7" stroke="black" points="1561.28,-152.8 1558.28,-156.8 1537.28,-156.8 1534.28,-152.8 1474.72,-152.8 1474.72,-116.8 1561.28,-116.8 1561.28,-152.8"/>
<text text-anchor="middle" x="1518" y="-130.6" font-family="Times,serif" font-size="14.00">BlogModule</text>
</g>
<!-- SharedModule&#45;&gt;BlogModule -->
<g id="edge8" class="edge">
<title>SharedModule&#45;&gt;BlogModule</title>
<path fill="none" stroke="black" d="M399.5,-54.8C601.8,-54.8 1355.1,-54.8 1355.1,-54.8 1355.1,-54.8 1355.1,-134.8 1355.1,-134.8 1355.1,-134.8 1464.35,-134.8 1464.35,-134.8"/>
<polygon fill="black" stroke="black" points="1464.35,-138.3 1474.35,-134.8 1464.35,-131.3 1464.35,-138.3"/>
</g>
<!-- LogModule -->
<g id="node17" class="node">
<title>LogModule</title>
<polygon fill="#8dd3c7" stroke="black" points="2042.1,-152.8 2039.1,-156.8 2018.1,-156.8 2015.1,-152.8 1959.9,-152.8 1959.9,-116.8 2042.1,-116.8 2042.1,-152.8"/>
<text text-anchor="middle" x="2001" y="-130.6" font-family="Times,serif" font-size="14.00">LogModule</text>
</g>
<!-- SharedModule&#45;&gt;LogModule -->
<g id="edge16" class="edge">
<title>SharedModule&#45;&gt;LogModule</title>
<path fill="none" stroke="black" d="M325.39,-84.99C325.39,-93.08 325.39,-100.8 325.39,-100.8 325.39,-100.8 1969.84,-100.8 1969.84,-100.8 1969.84,-100.8 1969.84,-106.61 1969.84,-106.61"/>
<polygon fill="black" stroke="black" points="1966.34,-106.61 1969.84,-116.61 1973.34,-106.61 1966.34,-106.61"/>
</g>
<!-- LoadingComponent  -->
<g id="node22" class="node">
<title>LoadingComponent </title>
<polygon fill="#fb8072" stroke="black" points="570.99,-152.8 439.01,-152.8 439.01,-116.8 570.99,-116.8 570.99,-152.8"/>
<text text-anchor="middle" x="505" y="-130.6" font-family="Times,serif" font-size="14.00">LoadingComponent </text>
</g>
<!-- SharedModule&#45;&gt;LoadingComponent  -->
<g id="edge20" class="edge">
<title>SharedModule&#45;&gt;LoadingComponent </title>
<path fill="none" stroke="black" stroke-dasharray="5,2" d="M374.61,-85.07C374.61,-103.36 374.61,-128.8 374.61,-128.8 374.61,-128.8 429.04,-128.8 429.04,-128.8"/>
<polygon fill="black" stroke="black" points="429.04,-132.3 439.04,-128.8 429.04,-125.3 429.04,-132.3"/>
</g>
<!-- MessageComponent  -->
<g id="node23" class="node">
<title>MessageComponent </title>
<polygon fill="#fb8072" stroke="black" points="880.81,-152.8 747.19,-152.8 747.19,-116.8 880.81,-116.8 880.81,-152.8"/>
<text text-anchor="middle" x="814" y="-130.6" font-family="Times,serif" font-size="14.00">MessageComponent </text>
</g>
<!-- SharedModule&#45;&gt;MessageComponent  -->
<g id="edge21" class="edge">
<title>SharedModule&#45;&gt;MessageComponent </title>
<path fill="none" stroke="black" stroke-dasharray="5,2" d="M399.22,-74.8C518.63,-74.8 814,-74.8 814,-74.8 814,-74.8 814,-106.8 814,-106.8"/>
<polygon fill="black" stroke="black" points="810.5,-106.8 814,-116.8 817.5,-106.8 810.5,-106.8"/>
</g>
<!-- TweetBtnComponent  -->
<g id="node24" class="node">
<title>TweetBtnComponent </title>
<polygon fill="#fb8072" stroke="black" points="729.04,-152.8 588.96,-152.8 588.96,-116.8 729.04,-116.8 729.04,-152.8"/>
<text text-anchor="middle" x="659" y="-130.6" font-family="Times,serif" font-size="14.00">TweetBtnComponent </text>
</g>
<!-- SharedModule&#45;&gt;TweetBtnComponent  -->
<g id="edge22" class="edge">
<title>SharedModule&#45;&gt;TweetBtnComponent </title>
<path fill="none" stroke="black" stroke-dasharray="5,2" d="M399.3,-79.8C486.54,-79.8 659,-79.8 659,-79.8 659,-79.8 659,-106.79 659,-106.79"/>
<polygon fill="black" stroke="black" points="655.5,-106.79 659,-116.79 662.5,-106.79 655.5,-106.79"/>
</g>
<!-- BlogDetailComponent -->
<g id="node6" class="node">
<title>BlogDetailComponent</title>
<polygon fill="#ffffb3" stroke="black" points="1822.27,-84.8 1679.73,-84.8 1679.73,-48.8 1822.27,-48.8 1822.27,-84.8"/>
<text text-anchor="middle" x="1751" y="-62.6" font-family="Times,serif" font-size="14.00">BlogDetailComponent</text>
</g>
<!-- BlogDetailComponent&#45;&gt;BlogModule -->
<g id="edge5" class="edge">
<title>BlogDetailComponent&#45;&gt;BlogModule</title>
<path fill="none" stroke="black" d="M1751,-85.02C1751,-105.17 1751,-134.8 1751,-134.8 1751,-134.8 1571.28,-134.8 1571.28,-134.8"/>
<polygon fill="black" stroke="black" points="1571.28,-131.3 1561.28,-134.8 1571.28,-138.3 1571.28,-131.3"/>
</g>
<!-- BlogListComponent -->
<g id="node7" class="node">
<title>BlogListComponent</title>
<polygon fill="#ffffb3" stroke="black" points="1661.34,-84.8 1530.66,-84.8 1530.66,-48.8 1661.34,-48.8 1661.34,-84.8"/>
<text text-anchor="middle" x="1596" y="-62.6" font-family="Times,serif" font-size="14.00">BlogListComponent</text>
</g>
<!-- BlogListComponent&#45;&gt;BlogModule -->
<g id="edge6" class="edge">
<title>BlogListComponent&#45;&gt;BlogModule</title>
<path fill="none" stroke="black" d="M1546.11,-85.02C1546.11,-85.02 1546.11,-106.53 1546.11,-106.53"/>
<polygon fill="black" stroke="black" points="1542.61,-106.53 1546.11,-116.53 1549.61,-106.53 1542.61,-106.53"/>
</g>
<!-- BlogRoutingModule -->
<g id="node9" class="node">
<title>BlogRoutingModule</title>
<polygon fill="#8dd3c7" stroke="black" points="1506.89,-84.8 1503.89,-88.8 1482.89,-88.8 1479.89,-84.8 1375.11,-84.8 1375.11,-48.8 1506.89,-48.8 1506.89,-84.8"/>
<text text-anchor="middle" x="1441" y="-62.6" font-family="Times,serif" font-size="14.00">BlogRoutingModule</text>
</g>
<!-- BlogRoutingModule&#45;&gt;BlogModule -->
<g id="edge7" class="edge">
<title>BlogRoutingModule&#45;&gt;BlogModule</title>
<path fill="none" stroke="black" d="M1490.78,-85.02C1490.78,-85.02 1490.78,-106.53 1490.78,-106.53"/>
<polygon fill="black" stroke="black" points="1487.28,-106.53 1490.78,-116.53 1494.28,-106.53 1487.28,-106.53"/>
</g>
<!-- ContactComponent -->
<g id="node10" class="node">
<title>ContactComponent</title>
<polygon fill="#ffffb3" stroke="black" points="2622.38,-84.8 2497.62,-84.8 2497.62,-48.8 2622.38,-48.8 2622.38,-84.8"/>
<text text-anchor="middle" x="2560" y="-62.6" font-family="Times,serif" font-size="14.00">ContactComponent</text>
</g>
<!-- HomeModule -->
<g id="node13" class="node">
<title>HomeModule</title>
<polygon fill="#8dd3c7" stroke="black" points="2676.76,-152.8 2673.76,-156.8 2652.76,-156.8 2649.76,-152.8 2583.24,-152.8 2583.24,-116.8 2676.76,-116.8 2676.76,-152.8"/>
<text text-anchor="middle" x="2630" y="-130.6" font-family="Times,serif" font-size="14.00">HomeModule</text>
</g>
<!-- ContactComponent&#45;&gt;HomeModule -->
<g id="edge9" class="edge">
<title>ContactComponent&#45;&gt;HomeModule</title>
<path fill="none" stroke="black" d="M2602.78,-85.02C2602.78,-85.02 2602.78,-106.53 2602.78,-106.53"/>
<polygon fill="black" stroke="black" points="2599.28,-106.53 2602.78,-116.53 2606.28,-106.53 2599.28,-106.53"/>
</g>
<!-- IndexComponent -->
<g id="node11" class="node">
<title>IndexComponent</title>
<polygon fill="#ffffb3" stroke="black" points="2890.71,-84.8 2777.29,-84.8 2777.29,-48.8 2890.71,-48.8 2890.71,-84.8"/>
<text text-anchor="middle" x="2834" y="-62.6" font-family="Times,serif" font-size="14.00">IndexComponent</text>
</g>
<!-- IndexComponent&#45;&gt;HomeModule -->
<g id="edge10" class="edge">
<title>IndexComponent&#45;&gt;HomeModule</title>
<path fill="none" stroke="black" d="M2834,-85.02C2834,-105.17 2834,-134.8 2834,-134.8 2834,-134.8 2686.8,-134.8 2686.8,-134.8"/>
<polygon fill="black" stroke="black" points="2686.8,-131.3 2676.8,-134.8 2686.8,-138.3 2686.8,-131.3"/>
</g>
<!-- ProfileComponent -->
<g id="node12" class="node">
<title>ProfileComponent</title>
<polygon fill="#ffffb3" stroke="black" points="2759.93,-84.8 2640.07,-84.8 2640.07,-48.8 2759.93,-48.8 2759.93,-84.8"/>
<text text-anchor="middle" x="2700" y="-62.6" font-family="Times,serif" font-size="14.00">ProfileComponent</text>
</g>
<!-- ProfileComponent&#45;&gt;HomeModule -->
<g id="edge11" class="edge">
<title>ProfileComponent&#45;&gt;HomeModule</title>
<path fill="none" stroke="black" d="M2658.58,-85.02C2658.58,-85.02 2658.58,-106.53 2658.58,-106.53"/>
<polygon fill="black" stroke="black" points="2655.08,-106.53 2658.58,-116.53 2662.08,-106.53 2655.08,-106.53"/>
</g>
<!-- HomeRoutingModule -->
<g id="node14" class="node">
<title>HomeRoutingModule</title>
<polygon fill="#8dd3c7" stroke="black" points="2474.38,-84.8 2471.38,-88.8 2450.38,-88.8 2447.38,-84.8 2335.62,-84.8 2335.62,-48.8 2474.38,-48.8 2474.38,-84.8"/>
<text text-anchor="middle" x="2405" y="-62.6" font-family="Times,serif" font-size="14.00">HomeRoutingModule</text>
</g>
<!-- HomeRoutingModule&#45;&gt;HomeModule -->
<g id="edge12" class="edge">
<title>HomeRoutingModule&#45;&gt;HomeModule</title>
<path fill="none" stroke="black" d="M2405,-85.09C2405,-107.01 2405,-140.8 2405,-140.8 2405,-140.8 2573.11,-140.8 2573.11,-140.8"/>
<polygon fill="black" stroke="black" points="2573.11,-144.3 2583.11,-140.8 2573.11,-137.3 2573.11,-144.3"/>
</g>
<!-- LogDetailComponent -->
<g id="node15" class="node">
<title>LogDetailComponent</title>
<polygon fill="#ffffb3" stroke="black" points="2296.09,-84.8 2157.91,-84.8 2157.91,-48.8 2296.09,-48.8 2296.09,-84.8"/>
<text text-anchor="middle" x="2227" y="-62.6" font-family="Times,serif" font-size="14.00">LogDetailComponent</text>
</g>
<!-- LogDetailComponent&#45;&gt;LogModule -->
<g id="edge13" class="edge">
<title>LogDetailComponent&#45;&gt;LogModule</title>
<path fill="none" stroke="black" d="M2227,-85.07C2227,-103.36 2227,-128.8 2227,-128.8 2227,-128.8 2052.19,-128.8 2052.19,-128.8"/>
<polygon fill="black" stroke="black" points="2052.19,-125.3 2042.19,-128.8 2052.19,-132.3 2052.19,-125.3"/>
</g>
<!-- LogListComponent -->
<g id="node16" class="node">
<title>LogListComponent</title>
<polygon fill="#ffffb3" stroke="black" points="2139.66,-84.8 2014.34,-84.8 2014.34,-48.8 2139.66,-48.8 2139.66,-84.8"/>
<text text-anchor="middle" x="2077" y="-62.6" font-family="Times,serif" font-size="14.00">LogListComponent</text>
</g>
<!-- LogListComponent&#45;&gt;LogModule -->
<g id="edge14" class="edge">
<title>LogListComponent&#45;&gt;LogModule</title>
<path fill="none" stroke="black" d="M2028.11,-85.02C2028.11,-85.02 2028.11,-106.53 2028.11,-106.53"/>
<polygon fill="black" stroke="black" points="2024.61,-106.53 2028.11,-116.53 2031.61,-106.53 2024.61,-106.53"/>
</g>
<!-- LogRoutingModule -->
<g id="node18" class="node">
<title>LogRoutingModule</title>
<polygon fill="#8dd3c7" stroke="black" points="1989.72,-84.8 1986.72,-88.8 1965.72,-88.8 1962.72,-84.8 1862.28,-84.8 1862.28,-48.8 1989.72,-48.8 1989.72,-84.8"/>
<text text-anchor="middle" x="1926" y="-62.6" font-family="Times,serif" font-size="14.00">LogRoutingModule</text>
</g>
<!-- LogRoutingModule&#45;&gt;LogModule -->
<g id="edge15" class="edge">
<title>LogRoutingModule&#45;&gt;LogModule</title>
<path fill="none" stroke="black" d="M1979.72,-85.02C1979.72,-85.02 1979.72,-106.53 1979.72,-106.53"/>
<polygon fill="black" stroke="black" points="1976.22,-106.53 1979.72,-116.53 1983.22,-106.53 1976.22,-106.53"/>
</g>
<!-- LoadingComponent -->
<g id="node19" class="node">
<title>LoadingComponent</title>
<polygon fill="#ffffb3" stroke="black" points="1032.99,-152.8 905.01,-152.8 905.01,-116.8 1032.99,-116.8 1032.99,-152.8"/>
<text text-anchor="middle" x="969" y="-130.6" font-family="Times,serif" font-size="14.00">LoadingComponent</text>
</g>
<!-- LoadingComponent&#45;&gt;SharedModule -->
<g id="edge17" class="edge">
<title>LoadingComponent&#45;&gt;SharedModule</title>
<path fill="none" stroke="black" d="M969,-116.69C969,-97.46 969,-69.8 969,-69.8 969,-69.8 409.35,-69.8 409.35,-69.8"/>
<polygon fill="black" stroke="black" points="409.35,-66.3 399.35,-69.8 409.35,-73.3 409.35,-66.3"/>
</g>
<!-- MessageComponent -->
<g id="node20" class="node">
<title>MessageComponent</title>
<polygon fill="#ffffb3" stroke="black" points="1335.31,-152.8 1204.69,-152.8 1204.69,-116.8 1335.31,-116.8 1335.31,-152.8"/>
<text text-anchor="middle" x="1270" y="-130.6" font-family="Times,serif" font-size="14.00">MessageComponent</text>
</g>
<!-- MessageComponent&#45;&gt;SharedModule -->
<g id="edge18" class="edge">
<title>MessageComponent&#45;&gt;SharedModule</title>
<path fill="none" stroke="black" d="M1270,-116.64C1270,-94.45 1270,-59.8 1270,-59.8 1270,-59.8 409.46,-59.8 409.46,-59.8"/>
<polygon fill="black" stroke="black" points="409.46,-56.3 399.46,-59.8 409.46,-63.3 409.46,-56.3"/>
</g>
<!-- TweetBtnComponent -->
<g id="node21" class="node">
<title>TweetBtnComponent</title>
<polygon fill="#ffffb3" stroke="black" points="1187.04,-152.8 1050.96,-152.8 1050.96,-116.8 1187.04,-116.8 1187.04,-152.8"/>
<text text-anchor="middle" x="1119" y="-130.6" font-family="Times,serif" font-size="14.00">TweetBtnComponent</text>
</g>
<!-- TweetBtnComponent&#45;&gt;SharedModule -->
<g id="edge19" class="edge">
<title>TweetBtnComponent&#45;&gt;SharedModule</title>
<path fill="none" stroke="black" d="M1119,-116.77C1119,-96.03 1119,-64.8 1119,-64.8 1119,-64.8 409.27,-64.8 409.27,-64.8"/>
<polygon fill="black" stroke="black" points="409.27,-61.3 399.27,-64.8 409.27,-68.3 409.27,-61.3"/>
</g>
</g>
</svg>
