<?xml version="1.0" encoding="UTF-8" standalone="no"?>
<!DOCTYPE svg PUBLIC "-//W3C//DTD SVG 1.1//EN"
 "http://www.w3.org/Graphics/SVG/1.1/DTD/svg11.dtd">
<!-- Generated by graphviz version 5.0.0 (20220707.1540)
 -->
<!-- Title: dependencies Pages: 1 -->
<svg width="7145pt" height="253pt"
 viewBox="0.00 0.00 7145.00 252.80" xmlns="http://www.w3.org/2000/svg" xmlns:xlink="http://www.w3.org/1999/xlink">
<g id="graph0" class="graph" transform="scale(1 1) rotate(0) translate(4 248.8)">
<title>dependencies</title>
<polygon fill="white" stroke="transparent" points="-4,4 -4,-248.8 7141,-248.8 7141,4 -4,4"/>
<text text-anchor="middle" x="3568.5" y="-8.2" font-family="sans-serif" font-size="14.00">dependencies</text>
<g id="clust1" class="cluster">
<title>cluster_AppModule</title>
<polygon fill="none" stroke="black" stroke-dasharray="1,5" points="8,-32.8 8,-236.8 415,-236.8 415,-32.8 8,-32.8"/>
</g>
<g id="clust2" class="cluster">
<title>cluster_AppModule_declarations</title>
<polygon fill="none" stroke="black" points="16,-40.8 16,-92.8 138,-92.8 138,-40.8 16,-40.8"/>
</g>
<g id="clust4" class="cluster">
<title>cluster_AppModule_imports</title>
<polygon fill="none" stroke="black" points="146,-40.8 146,-92.8 407,-92.8 407,-40.8 146,-40.8"/>
</g>
<g id="clust6" class="cluster">
<title>cluster_AppModule_bootstrap</title>
<polygon fill="none" stroke="black" points="156,-176.8 156,-228.8 280,-228.8 280,-176.8 156,-176.8"/>
</g>
<g id="clust14" class="cluster">
<title>cluster_BlogModule</title>
<polygon fill="none" stroke="black" stroke-dasharray="1,5" points="3847,-32.8 3847,-160.8 4326,-160.8 4326,-32.8 3847,-32.8"/>
</g>
<g id="clust15" class="cluster">
<title>cluster_BlogModule_declarations</title>
<polygon fill="none" stroke="black" points="4011,-40.8 4011,-92.8 4318,-92.8 4318,-40.8 4011,-40.8"/>
</g>
<g id="clust18" class="cluster">
<title>cluster_BlogModule_imports</title>
<polygon fill="none" stroke="black" points="3855,-40.8 3855,-92.8 4003,-92.8 4003,-40.8 3855,-40.8"/>
</g>
<g id="clust28" class="cluster">
<title>cluster_HomeModule</title>
<polygon fill="none" stroke="black" stroke-dasharray="1,5" points="4334,-32.8 4334,-160.8 4926,-160.8 4926,-32.8 4334,-32.8"/>
</g>
<g id="clust29" class="cluster">
<title>cluster_HomeModule_declarations</title>
<polygon fill="none" stroke="black" points="4504,-40.8 4504,-92.8 4918,-92.8 4918,-40.8 4504,-40.8"/>
</g>
<g id="clust33" class="cluster">
<title>cluster_HomeModule_imports</title>
<polygon fill="none" stroke="black" points="4342,-40.8 4342,-92.8 4496,-92.8 4496,-40.8 4342,-40.8"/>
</g>
<g id="clust43" class="cluster">
<title>cluster_SharedModule</title>
<polygon fill="none" stroke="black" stroke-dasharray="1,5" points="423,-100.8 423,-168.8 3839,-168.8 3839,-100.8 423,-100.8"/>
</g>
<g id="clust44" class="cluster">
<title>cluster_SharedModule_declarations</title>
<polygon fill="none" stroke="black" points="2155,-108.8 2155,-160.8 3831,-160.8 3831,-108.8 2155,-108.8"/>
</g>
<g id="clust58" class="cluster">
<title>cluster_SharedModule_exports</title>
<polygon fill="none" stroke="black" points="431,-108.8 431,-160.8 2147,-160.8 2147,-108.8 431,-108.8"/>
</g>
<g id="clust61" class="cluster">
<title>cluster_SnippetModule</title>
<polygon fill="none" stroke="black" stroke-dasharray="1,5" points="4934,-32.8 4934,-160.8 5284,-160.8 5284,-32.8 4934,-32.8"/>
</g>
<g id="clust62" class="cluster">
<title>cluster_SnippetModule_declarations</title>
<polygon fill="none" stroke="black" points="5114,-40.8 5114,-92.8 5276,-92.8 5276,-40.8 5114,-40.8"/>
</g>
<g id="clust64" class="cluster">
<title>cluster_SnippetModule_imports</title>
<polygon fill="none" stroke="black" points="4942,-40.8 4942,-92.8 5106,-92.8 5106,-40.8 4942,-40.8"/>
</g>
<g id="clust74" class="cluster">
<title>cluster_ToolsModule</title>
<polygon fill="none" stroke="black" stroke-dasharray="1,5" points="5292,-32.8 5292,-160.8 7129,-160.8 7129,-32.8 5292,-32.8"/>
</g>
<g id="clust75" class="cluster">
<title>cluster_ToolsModule_declarations</title>
<polygon fill="none" stroke="black" points="5460,-40.8 5460,-92.8 7121,-92.8 7121,-40.8 5460,-40.8"/>
</g>
<g id="clust87" class="cluster">
<title>cluster_ToolsModule_imports</title>
<polygon fill="none" stroke="black" points="5300,-40.8 5300,-92.8 5452,-92.8 5452,-40.8 5300,-40.8"/>
</g>
<!-- AppComponent -->
<g id="node1" class="node">
<title>AppComponent</title>
<polygon fill="#ffffb3" stroke="black" points="129.94,-84.8 24.06,-84.8 24.06,-48.8 129.94,-48.8 129.94,-84.8"/>
<text text-anchor="middle" x="77" y="-62.6" font-family="Times,serif" font-size="14.00">AppComponent</text>
</g>
<!-- AppModule -->
<g id="node2" class="node">
<title>AppModule</title>
<polygon fill="#8dd3c7" stroke="black" points="259.66,-152.8 256.66,-156.8 235.66,-156.8 232.66,-152.8 176.34,-152.8 176.34,-116.8 259.66,-116.8 259.66,-152.8"/>
<text text-anchor="middle" x="218" y="-130.6" font-family="Times,serif" font-size="14.00">AppModule</text>
</g>
<!-- AppComponent&#45;&gt;AppModule -->
<g id="edge1" class="edge">
<title>AppComponent&#45;&gt;AppModule</title>
<path fill="none" stroke="black" d="M77,-85.02C77,-105.17 77,-134.8 77,-134.8 77,-134.8 166.08,-134.8 166.08,-134.8"/>
<polygon fill="black" stroke="black" points="166.08,-138.3 176.08,-134.8 166.08,-131.3 166.08,-138.3"/>
</g>
<!-- AppComponent  -->
<g id="node5" class="node">
<title>AppComponent </title>
<polygon fill="#80b1d3" stroke="black" points="272.44,-220.8 163.56,-220.8 163.56,-184.8 272.44,-184.8 272.44,-220.8"/>
<text text-anchor="middle" x="218" y="-198.6" font-family="Times,serif" font-size="14.00">AppComponent </text>
</g>
<!-- AppModule&#45;&gt;AppComponent  -->
<g id="edge4" class="edge">
<title>AppModule&#45;&gt;AppComponent </title>
<path fill="none" stroke="black" stroke-dasharray="1,5" d="M218,-153.02C218,-153.02 218,-174.53 218,-174.53"/>
<polygon fill="black" stroke="black" points="214.5,-174.53 218,-184.53 221.5,-174.53 214.5,-174.53"/>
</g>
<!-- AppRoutingModule -->
<g id="node3" class="node">
<title>AppRoutingModule</title>
<polygon fill="#8dd3c7" stroke="black" points="282.28,-84.8 279.28,-88.8 258.28,-88.8 255.28,-84.8 153.72,-84.8 153.72,-48.8 282.28,-48.8 282.28,-84.8"/>
<text text-anchor="middle" x="218" y="-62.6" font-family="Times,serif" font-size="14.00">AppRoutingModule</text>
</g>
<!-- AppRoutingModule&#45;&gt;AppModule -->
<g id="edge2" class="edge">
<title>AppRoutingModule&#45;&gt;AppModule</title>
<path fill="none" stroke="black" d="M218,-85.02C218,-85.02 218,-106.53 218,-106.53"/>
<polygon fill="black" stroke="black" points="214.5,-106.53 218,-116.53 221.5,-106.53 214.5,-106.53"/>
</g>
<!-- SharedModule -->
<g id="node4" class="node">
<title>SharedModule</title>
<polygon fill="#8dd3c7" stroke="black" points="399.43,-84.8 396.43,-88.8 375.43,-88.8 372.43,-84.8 300.57,-84.8 300.57,-48.8 399.43,-48.8 399.43,-84.8"/>
<text text-anchor="middle" x="350" y="-62.6" font-family="Times,serif" font-size="14.00">SharedModule</text>
</g>
<!-- SharedModule&#45;&gt;AppModule -->
<g id="edge3" class="edge">
<title>SharedModule&#45;&gt;AppModule</title>
<path fill="none" stroke="black" d="M366.4,-85.09C366.4,-107.01 366.4,-140.8 366.4,-140.8 366.4,-140.8 269.73,-140.8 269.73,-140.8"/>
<polygon fill="black" stroke="black" points="269.73,-137.3 259.73,-140.8 269.73,-144.3 269.73,-137.3"/>
</g>
<!-- BlogModule -->
<g id="node8" class="node">
<title>BlogModule</title>
<polygon fill="#8dd3c7" stroke="black" points="4049.28,-152.8 4046.28,-156.8 4025.28,-156.8 4022.28,-152.8 3962.72,-152.8 3962.72,-116.8 4049.28,-116.8 4049.28,-152.8"/>
<text text-anchor="middle" x="4006" y="-130.6" font-family="Times,serif" font-size="14.00">BlogModule</text>
</g>
<!-- SharedModule&#45;&gt;BlogModule -->
<g id="edge8" class="edge">
<title>SharedModule&#45;&gt;BlogModule</title>
<path fill="none" stroke="black" d="M399.38,-50.8C823.91,-50.8 3842.86,-50.8 3842.86,-50.8 3842.86,-50.8 3842.86,-134.8 3842.86,-134.8 3842.86,-134.8 3952.71,-134.8 3952.71,-134.8"/>
<polygon fill="black" stroke="black" points="3952.71,-138.3 3962.71,-134.8 3952.71,-131.3 3952.71,-138.3"/>
</g>
<!-- HomeModule -->
<g id="node13" class="node">
<title>HomeModule</title>
<polygon fill="#8dd3c7" stroke="black" points="4626.77,-152.8 4623.77,-156.8 4602.77,-156.8 4599.77,-152.8 4533.23,-152.8 4533.23,-116.8 4626.77,-116.8 4626.77,-152.8"/>
<text text-anchor="middle" x="4580" y="-130.6" font-family="Times,serif" font-size="14.00">HomeModule</text>
</g>
<!-- SharedModule&#45;&gt;HomeModule -->
<g id="edge13" class="edge">
<title>SharedModule&#45;&gt;HomeModule</title>
<path fill="none" stroke="black" d="M317.19,-84.86C317.19,-96.24 317.19,-108.8 317.19,-108.8 317.19,-108.8 4564.37,-108.8 4564.37,-108.8 4564.37,-108.8 4564.37,-109.59 4564.37,-109.59"/>
<polygon fill="black" stroke="black" points="4560.87,-106.74 4564.37,-116.74 4567.87,-106.74 4560.87,-106.74"/>
</g>
<!-- AdsComponent  -->
<g id="node27" class="node">
<title>AdsComponent </title>
<polygon fill="#fb8072" stroke="black" points="708.89,-152.8 601.11,-152.8 601.11,-116.8 708.89,-116.8 708.89,-152.8"/>
<text text-anchor="middle" x="655" y="-130.6" font-family="Times,serif" font-size="14.00">AdsComponent </text>
</g>
<!-- SharedModule&#45;&gt;AdsComponent  -->
<g id="edge26" class="edge">
<title>SharedModule&#45;&gt;AdsComponent </title>
<path fill="none" stroke="black" stroke-dasharray="5,2" d="M399.34,-83.8C485.66,-83.8 655,-83.8 655,-83.8 655,-83.8 655,-106.68 655,-106.68"/>
<polygon fill="black" stroke="black" points="651.5,-106.68 655,-116.68 658.5,-106.68 651.5,-106.68"/>
</g>
<!-- AdsModalComponent  -->
<g id="node28" class="node">
<title>AdsModalComponent </title>
<polygon fill="#fb8072" stroke="black" points="582.94,-152.8 439.06,-152.8 439.06,-116.8 582.94,-116.8 582.94,-152.8"/>
<text text-anchor="middle" x="511" y="-130.6" font-family="Times,serif" font-size="14.00">AdsModalComponent </text>
</g>
<!-- SharedModule&#45;&gt;AdsModalComponent  -->
<g id="edge27" class="edge">
<title>SharedModule&#45;&gt;AdsModalComponent </title>
<path fill="none" stroke="black" stroke-dasharray="5,2" d="M382.81,-85.07C382.81,-103.36 382.81,-128.8 382.81,-128.8 382.81,-128.8 429.04,-128.8 429.04,-128.8"/>
<polygon fill="black" stroke="black" points="429.04,-132.3 439.04,-128.8 429.04,-125.3 429.04,-132.3"/>
</g>
<!-- AmazonAdsComponent  -->
<g id="node29" class="node">
<title>AmazonAdsComponent </title>
<polygon fill="#fb8072" stroke="black" points="2139.32,-152.8 1984.68,-152.8 1984.68,-116.8 2139.32,-116.8 2139.32,-152.8"/>
<text text-anchor="middle" x="2062" y="-130.6" font-family="Times,serif" font-size="14.00">AmazonAdsComponent </text>
</g>
<!-- SharedModule&#45;&gt;AmazonAdsComponent  -->
<g id="edge28" class="edge">
<title>SharedModule&#45;&gt;AmazonAdsComponent </title>
<path fill="none" stroke="black" stroke-dasharray="5,2" d="M399.39,-69.8C680.09,-69.8 2062,-69.8 2062,-69.8 2062,-69.8 2062,-106.69 2062,-106.69"/>
<polygon fill="black" stroke="black" points="2058.5,-106.69 2062,-116.69 2065.5,-106.69 2058.5,-106.69"/>
</g>
<!-- LazyImgComponent  -->
<g id="node30" class="node">
<title>LazyImgComponent </title>
<polygon fill="#fb8072" stroke="black" points="1966.86,-152.8 1831.14,-152.8 1831.14,-116.8 1966.86,-116.8 1966.86,-152.8"/>
<text text-anchor="middle" x="1899" y="-130.6" font-family="Times,serif" font-size="14.00">LazyImgComponent </text>
</g>
<!-- SharedModule&#45;&gt;LazyImgComponent  -->
<g id="edge29" class="edge">
<title>SharedModule&#45;&gt;LazyImgComponent </title>
<path fill="none" stroke="black" stroke-dasharray="5,2" d="M399.35,-70.8C663.57,-70.8 1899,-70.8 1899,-70.8 1899,-70.8 1899,-106.63 1899,-106.63"/>
<polygon fill="black" stroke="black" points="1895.5,-106.63 1899,-116.63 1902.5,-106.63 1895.5,-106.63"/>
</g>
<!-- LoadingComponent  -->
<g id="node31" class="node">
<title>LoadingComponent </title>
<polygon fill="#fb8072" stroke="black" points="1813.99,-152.8 1682.01,-152.8 1682.01,-116.8 1813.99,-116.8 1813.99,-152.8"/>
<text text-anchor="middle" x="1748" y="-130.6" font-family="Times,serif" font-size="14.00">LoadingComponent </text>
</g>
<!-- SharedModule&#45;&gt;LoadingComponent  -->
<g id="edge30" class="edge">
<title>SharedModule&#45;&gt;LoadingComponent </title>
<path fill="none" stroke="black" stroke-dasharray="5,2" d="M399.34,-72.8C647.58,-72.8 1748,-72.8 1748,-72.8 1748,-72.8 1748,-106.53 1748,-106.53"/>
<polygon fill="black" stroke="black" points="1744.5,-106.53 1748,-116.53 1751.5,-106.53 1744.5,-106.53"/>
</g>
<!-- MdescapePipe  -->
<g id="node32" class="node">
<title>MdescapePipe </title>
<polygon fill="#fb8072" stroke="black" points="1664.64,-152.8 1563.36,-152.8 1563.36,-116.8 1664.64,-116.8 1664.64,-152.8"/>
<text text-anchor="middle" x="1614" y="-130.6" font-family="Times,serif" font-size="14.00">MdescapePipe </text>
</g>
<!-- SharedModule&#45;&gt;MdescapePipe  -->
<g id="edge31" class="edge">
<title>SharedModule&#45;&gt;MdescapePipe </title>
<path fill="none" stroke="black" stroke-dasharray="5,2" d="M399.55,-73.8C633.25,-73.8 1614,-73.8 1614,-73.8 1614,-73.8 1614,-106.5 1614,-106.5"/>
<polygon fill="black" stroke="black" points="1610.5,-106.5 1614,-116.5 1617.5,-106.5 1610.5,-106.5"/>
</g>
<!-- MessageComponent  -->
<g id="node33" class="node">
<title>MessageComponent </title>
<polygon fill="#fb8072" stroke="black" points="1545.82,-152.8 1412.18,-152.8 1412.18,-116.8 1545.82,-116.8 1545.82,-152.8"/>
<text text-anchor="middle" x="1479" y="-130.6" font-family="Times,serif" font-size="14.00">MessageComponent </text>
</g>
<!-- SharedModule&#45;&gt;MessageComponent  -->
<g id="edge32" class="edge">
<title>SharedModule&#45;&gt;MessageComponent </title>
<path fill="none" stroke="black" stroke-dasharray="5,2" d="M399.24,-74.8C616.54,-74.8 1479,-74.8 1479,-74.8 1479,-74.8 1479,-106.8 1479,-106.8"/>
<polygon fill="black" stroke="black" points="1475.5,-106.8 1479,-116.8 1482.5,-106.8 1475.5,-106.8"/>
</g>
<!-- NavComponent  -->
<g id="node34" class="node">
<title>NavComponent </title>
<polygon fill="#fb8072" stroke="black" points="1394.16,-152.8 1285.84,-152.8 1285.84,-116.8 1394.16,-116.8 1394.16,-152.8"/>
<text text-anchor="middle" x="1340" y="-130.6" font-family="Times,serif" font-size="14.00">NavComponent </text>
</g>
<!-- SharedModule&#45;&gt;NavComponent  -->
<g id="edge33" class="edge">
<title>SharedModule&#45;&gt;NavComponent </title>
<path fill="none" stroke="black" stroke-dasharray="5,2" d="M399.43,-76.8C599.69,-76.8 1340,-76.8 1340,-76.8 1340,-76.8 1340,-106.77 1340,-106.77"/>
<polygon fill="black" stroke="black" points="1336.5,-106.77 1340,-116.77 1343.5,-106.77 1336.5,-106.77"/>
</g>
<!-- NewsbarComponent  -->
<g id="node35" class="node">
<title>NewsbarComponent </title>
<polygon fill="#fb8072" stroke="black" points="1268.09,-152.8 1133.91,-152.8 1133.91,-116.8 1268.09,-116.8 1268.09,-152.8"/>
<text text-anchor="middle" x="1201" y="-130.6" font-family="Times,serif" font-size="14.00">NewsbarComponent </text>
</g>
<!-- SharedModule&#45;&gt;NewsbarComponent  -->
<g id="edge34" class="edge">
<title>SharedModule&#45;&gt;NewsbarComponent </title>
<path fill="none" stroke="black" stroke-dasharray="5,2" d="M399.43,-77.8C581.06,-77.8 1201,-77.8 1201,-77.8 1201,-77.8 1201,-106.76 1201,-106.76"/>
<polygon fill="black" stroke="black" points="1197.5,-106.76 1201,-116.76 1204.5,-106.76 1197.5,-106.76"/>
</g>
<!-- NotFoundComponent  -->
<g id="node36" class="node">
<title>NotFoundComponent </title>
<polygon fill="#fb8072" stroke="black" points="1115.62,-152.8 974.38,-152.8 974.38,-116.8 1115.62,-116.8 1115.62,-152.8"/>
<text text-anchor="middle" x="1045" y="-130.6" font-family="Times,serif" font-size="14.00">NotFoundComponent </text>
</g>
<!-- SharedModule&#45;&gt;NotFoundComponent  -->
<g id="edge35" class="edge">
<title>SharedModule&#45;&gt;NotFoundComponent </title>
<path fill="none" stroke="black" stroke-dasharray="5,2" d="M399.43,-79.8C558.2,-79.8 1045,-79.8 1045,-79.8 1045,-79.8 1045,-106.79 1045,-106.79"/>
<polygon fill="black" stroke="black" points="1041.5,-106.79 1045,-116.79 1048.5,-106.79 1041.5,-106.79"/>
</g>
<!-- TweetBtnComponent  -->
<g id="node37" class="node">
<title>TweetBtnComponent </title>
<polygon fill="#fb8072" stroke="black" points="956.04,-152.8 815.96,-152.8 815.96,-116.8 956.04,-116.8 956.04,-152.8"/>
<text text-anchor="middle" x="886" y="-130.6" font-family="Times,serif" font-size="14.00">TweetBtnComponent </text>
</g>
<!-- SharedModule&#45;&gt;TweetBtnComponent  -->
<g id="edge36" class="edge">
<title>SharedModule&#45;&gt;TweetBtnComponent </title>
<path fill="none" stroke="black" stroke-dasharray="5,2" d="M399.46,-80.8C532.16,-80.8 886,-80.8 886,-80.8 886,-80.8 886,-106.52 886,-106.52"/>
<polygon fill="black" stroke="black" points="882.5,-106.52 886,-116.52 889.5,-106.52 882.5,-106.52"/>
</g>
<!-- YearPipe  -->
<g id="node38" class="node">
<title>YearPipe </title>
<polygon fill="#fb8072" stroke="black" points="797.59,-152.8 726.41,-152.8 726.41,-116.8 797.59,-116.8 797.59,-152.8"/>
<text text-anchor="middle" x="762" y="-130.6" font-family="Times,serif" font-size="14.00">YearPipe </text>
</g>
<!-- SharedModule&#45;&gt;YearPipe  -->
<g id="edge37" class="edge">
<title>SharedModule&#45;&gt;YearPipe </title>
<path fill="none" stroke="black" stroke-dasharray="5,2" d="M399.29,-82.8C508.65,-82.8 762,-82.8 762,-82.8 762,-82.8 762,-106.61 762,-106.61"/>
<polygon fill="black" stroke="black" points="758.5,-106.61 762,-116.61 765.5,-106.61 758.5,-106.61"/>
</g>
<!-- SnippetModule -->
<g id="node40" class="node">
<title>SnippetModule</title>
<polygon fill="#8dd3c7" stroke="black" points="5075.33,-152.8 5072.33,-156.8 5051.33,-156.8 5048.33,-152.8 4972.67,-152.8 4972.67,-116.8 5075.33,-116.8 5075.33,-152.8"/>
<text text-anchor="middle" x="5024" y="-130.6" font-family="Times,serif" font-size="14.00">SnippetModule</text>
</g>
<!-- SharedModule&#45;&gt;SnippetModule -->
<g id="edge39" class="edge">
<title>SharedModule&#45;&gt;SnippetModule</title>
<path fill="none" stroke="black" d="M333.6,-84.99C333.6,-93.08 333.6,-100.8 333.6,-100.8 333.6,-100.8 5006.94,-100.8 5006.94,-100.8 5006.94,-100.8 5006.94,-106.61 5006.94,-106.61"/>
<polygon fill="black" stroke="black" points="5003.44,-106.61 5006.94,-116.61 5010.44,-106.61 5003.44,-106.61"/>
</g>
<!-- ToolsModule -->
<g id="node53" class="node">
<title>ToolsModule</title>
<polygon fill="#8dd3c7" stroke="black" points="6201.94,-152.8 6198.94,-156.8 6177.94,-156.8 6174.94,-152.8 6110.06,-152.8 6110.06,-116.8 6201.94,-116.8 6201.94,-152.8"/>
<text text-anchor="middle" x="6156" y="-130.6" font-family="Times,serif" font-size="14.00">ToolsModule</text>
</g>
<!-- SharedModule&#45;&gt;ToolsModule -->
<g id="edge52" class="edge">
<title>SharedModule&#45;&gt;ToolsModule</title>
<path fill="none" stroke="black" d="M350,-84.86C350,-89.29 350,-92.8 350,-92.8 350,-92.8 6140.76,-92.8 6140.76,-92.8 6140.76,-92.8 6140.76,-106.74 6140.76,-106.74"/>
<polygon fill="black" stroke="black" points="6137.26,-106.74 6140.76,-116.74 6144.26,-106.74 6137.26,-106.74"/>
</g>
<!-- BlogDetailComponent -->
<g id="node6" class="node">
<title>BlogDetailComponent</title>
<polygon fill="#ffffb3" stroke="black" points="4310.27,-84.8 4167.73,-84.8 4167.73,-48.8 4310.27,-48.8 4310.27,-84.8"/>
<text text-anchor="middle" x="4239" y="-62.6" font-family="Times,serif" font-size="14.00">BlogDetailComponent</text>
</g>
<!-- BlogDetailComponent&#45;&gt;BlogModule -->
<g id="edge5" class="edge">
<title>BlogDetailComponent&#45;&gt;BlogModule</title>
<path fill="none" stroke="black" d="M4239,-85.07C4239,-103.36 4239,-128.8 4239,-128.8 4239,-128.8 4059.55,-128.8 4059.55,-128.8"/>
<polygon fill="black" stroke="black" points="4059.55,-125.3 4049.55,-128.8 4059.55,-132.3 4059.55,-125.3"/>
</g>
<!-- BlogListComponent -->
<g id="node7" class="node">
<title>BlogListComponent</title>
<polygon fill="#ffffb3" stroke="black" points="4149.34,-84.8 4018.66,-84.8 4018.66,-48.8 4149.34,-48.8 4149.34,-84.8"/>
<text text-anchor="middle" x="4084" y="-62.6" font-family="Times,serif" font-size="14.00">BlogListComponent</text>
</g>
<!-- BlogListComponent&#45;&gt;BlogModule -->
<g id="edge6" class="edge">
<title>BlogListComponent&#45;&gt;BlogModule</title>
<path fill="none" stroke="black" d="M4034.11,-85.02C4034.11,-85.02 4034.11,-106.53 4034.11,-106.53"/>
<polygon fill="black" stroke="black" points="4030.61,-106.53 4034.11,-116.53 4037.61,-106.53 4030.61,-106.53"/>
</g>
<!-- BlogRoutingModule -->
<g id="node9" class="node">
<title>BlogRoutingModule</title>
<polygon fill="#8dd3c7" stroke="black" points="3994.9,-84.8 3991.9,-88.8 3970.9,-88.8 3967.9,-84.8 3863.1,-84.8 3863.1,-48.8 3994.9,-48.8 3994.9,-84.8"/>
<text text-anchor="middle" x="3929" y="-62.6" font-family="Times,serif" font-size="14.00">BlogRoutingModule</text>
</g>
<!-- BlogRoutingModule&#45;&gt;BlogModule -->
<g id="edge7" class="edge">
<title>BlogRoutingModule&#45;&gt;BlogModule</title>
<path fill="none" stroke="black" d="M3978.78,-85.02C3978.78,-85.02 3978.78,-106.53 3978.78,-106.53"/>
<polygon fill="black" stroke="black" points="3975.28,-106.53 3978.78,-116.53 3982.28,-106.53 3975.28,-106.53"/>
</g>
<!-- IndexComponent -->
<g id="node10" class="node">
<title>IndexComponent</title>
<polygon fill="#ffffb3" stroke="black" points="4909.71,-84.8 4796.29,-84.8 4796.29,-48.8 4909.71,-48.8 4909.71,-84.8"/>
<text text-anchor="middle" x="4853" y="-62.6" font-family="Times,serif" font-size="14.00">IndexComponent</text>
</g>
<!-- IndexComponent&#45;&gt;HomeModule -->
<g id="edge9" class="edge">
<title>IndexComponent&#45;&gt;HomeModule</title>
<path fill="none" stroke="black" d="M4853,-85.09C4853,-107.01 4853,-140.8 4853,-140.8 4853,-140.8 4636.93,-140.8 4636.93,-140.8"/>
<polygon fill="black" stroke="black" points="4636.93,-137.3 4626.93,-140.8 4636.93,-144.3 4636.93,-137.3"/>
</g>
<!-- NewsComponent -->
<g id="node11" class="node">
<title>NewsComponent</title>
<polygon fill="#ffffb3" stroke="black" points="4778.71,-84.8 4665.29,-84.8 4665.29,-48.8 4778.71,-48.8 4778.71,-84.8"/>
<text text-anchor="middle" x="4722" y="-62.6" font-family="Times,serif" font-size="14.00">NewsComponent</text>
</g>
<!-- NewsComponent&#45;&gt;HomeModule -->
<g id="edge10" class="edge">
<title>NewsComponent&#45;&gt;HomeModule</title>
<path fill="none" stroke="black" d="M4722,-85.07C4722,-103.36 4722,-128.8 4722,-128.8 4722,-128.8 4636.89,-128.8 4636.89,-128.8"/>
<polygon fill="black" stroke="black" points="4636.89,-125.3 4626.89,-128.8 4636.89,-132.3 4636.89,-125.3"/>
</g>
<!-- ToolsListComponent -->
<g id="node12" class="node">
<title>ToolsListComponent</title>
<polygon fill="#ffffb3" stroke="black" points="4647.5,-84.8 4512.5,-84.8 4512.5,-48.8 4647.5,-48.8 4647.5,-84.8"/>
<text text-anchor="middle" x="4580" y="-62.6" font-family="Times,serif" font-size="14.00">ToolsListComponent</text>
</g>
<!-- ToolsListComponent&#45;&gt;HomeModule -->
<g id="edge11" class="edge">
<title>ToolsListComponent&#45;&gt;HomeModule</title>
<path fill="none" stroke="black" d="M4595.63,-85.02C4595.63,-85.02 4595.63,-106.53 4595.63,-106.53"/>
<polygon fill="black" stroke="black" points="4592.13,-106.53 4595.63,-116.53 4599.13,-106.53 4592.13,-106.53"/>
</g>
<!-- HomeRoutingModule -->
<g id="node14" class="node">
<title>HomeRoutingModule</title>
<polygon fill="#8dd3c7" stroke="black" points="4488.38,-84.8 4485.38,-88.8 4464.38,-88.8 4461.38,-84.8 4349.62,-84.8 4349.62,-48.8 4488.38,-48.8 4488.38,-84.8"/>
<text text-anchor="middle" x="4419" y="-62.6" font-family="Times,serif" font-size="14.00">HomeRoutingModule</text>
</g>
<!-- HomeRoutingModule&#45;&gt;HomeModule -->
<g id="edge12" class="edge">
<title>HomeRoutingModule&#45;&gt;HomeModule</title>
<path fill="none" stroke="black" d="M4419,-85.09C4419,-107.01 4419,-140.8 4419,-140.8 4419,-140.8 4523,-140.8 4523,-140.8"/>
<polygon fill="black" stroke="black" points="4523,-144.3 4533,-140.8 4523,-137.3 4523,-144.3"/>
</g>
<!-- AdsComponent -->
<g id="node15" class="node">
<title>AdsComponent</title>
<polygon fill="#ffffb3" stroke="black" points="2424.89,-152.8 2321.11,-152.8 2321.11,-116.8 2424.89,-116.8 2424.89,-152.8"/>
<text text-anchor="middle" x="2373" y="-130.6" font-family="Times,serif" font-size="14.00">AdsComponent</text>
</g>
<!-- AdsComponent&#45;&gt;SharedModule -->
<g id="edge14" class="edge">
<title>AdsComponent&#45;&gt;SharedModule</title>
<path fill="none" stroke="black" d="M2373,-116.58C2373,-96.43 2373,-66.8 2373,-66.8 2373,-66.8 409.25,-66.8 409.25,-66.8"/>
<polygon fill="black" stroke="black" points="409.25,-63.3 399.25,-66.8 409.25,-70.3 409.25,-63.3"/>
</g>
<!-- AdsModalComponent -->
<g id="node16" class="node">
<title>AdsModalComponent</title>
<polygon fill="#ffffb3" stroke="black" points="2303.44,-152.8 2162.56,-152.8 2162.56,-116.8 2303.44,-116.8 2303.44,-152.8"/>
<text text-anchor="middle" x="2233" y="-130.6" font-family="Times,serif" font-size="14.00">AdsModalComponent</text>
</g>
<!-- AdsModalComponent&#45;&gt;SharedModule -->
<g id="edge15" class="edge">
<title>AdsModalComponent&#45;&gt;SharedModule</title>
<path fill="none" stroke="black" d="M2233,-116.49C2233,-96.65 2233,-67.8 2233,-67.8 2233,-67.8 409.4,-67.8 409.4,-67.8"/>
<polygon fill="black" stroke="black" points="409.4,-64.3 399.4,-67.8 409.4,-71.3 409.4,-64.3"/>
</g>
<!-- AmazonAdsComponent -->
<g id="node17" class="node">
<title>AmazonAdsComponent</title>
<polygon fill="#ffffb3" stroke="black" points="3822.82,-152.8 3671.18,-152.8 3671.18,-116.8 3822.82,-116.8 3822.82,-152.8"/>
<text text-anchor="middle" x="3747" y="-130.6" font-family="Times,serif" font-size="14.00">AmazonAdsComponent</text>
</g>
<!-- AmazonAdsComponent&#45;&gt;SharedModule -->
<g id="edge16" class="edge">
<title>AmazonAdsComponent&#45;&gt;SharedModule</title>
<path fill="none" stroke="black" d="M3747,-116.79C3747,-92.38 3747,-51.8 3747,-51.8 3747,-51.8 409.33,-51.8 409.33,-51.8"/>
<polygon fill="black" stroke="black" points="409.33,-48.3 399.33,-51.8 409.33,-55.3 409.33,-48.3"/>
</g>
<!-- LazyImgComponent -->
<g id="node18" class="node">
<title>LazyImgComponent</title>
<polygon fill="#ffffb3" stroke="black" points="3652.86,-152.8 3521.14,-152.8 3521.14,-116.8 3652.86,-116.8 3652.86,-152.8"/>
<text text-anchor="middle" x="3587" y="-130.6" font-family="Times,serif" font-size="14.00">LazyImgComponent</text>
</g>
<!-- LazyImgComponent&#45;&gt;SharedModule -->
<g id="edge17" class="edge">
<title>LazyImgComponent&#45;&gt;SharedModule</title>
<path fill="none" stroke="black" d="M3587,-116.42C3587,-92.52 3587,-53.8 3587,-53.8 3587,-53.8 409.23,-53.8 409.23,-53.8"/>
<polygon fill="black" stroke="black" points="409.23,-50.3 399.23,-53.8 409.23,-57.3 409.23,-50.3"/>
</g>
<!-- LoadingComponent -->
<g id="node19" class="node">
<title>LoadingComponent</title>
<polygon fill="#ffffb3" stroke="black" points="3502.99,-152.8 3375.01,-152.8 3375.01,-116.8 3502.99,-116.8 3502.99,-152.8"/>
<text text-anchor="middle" x="3439" y="-130.6" font-family="Times,serif" font-size="14.00">LoadingComponent</text>
</g>
<!-- LoadingComponent&#45;&gt;SharedModule -->
<g id="edge18" class="edge">
<title>LoadingComponent&#45;&gt;SharedModule</title>
<path fill="none" stroke="black" d="M3439,-116.65C3439,-93.04 3439,-54.8 3439,-54.8 3439,-54.8 409.46,-54.8 409.46,-54.8"/>
<polygon fill="black" stroke="black" points="409.46,-51.3 399.46,-54.8 409.46,-58.3 409.46,-51.3"/>
</g>
<!-- MdescapePipe -->
<g id="node20" class="node">
<title>MdescapePipe</title>
<polygon fill="#ffffb3" stroke="black" points="3356.64,-152.8 3259.36,-152.8 3259.36,-116.8 3356.64,-116.8 3356.64,-152.8"/>
<text text-anchor="middle" x="3308" y="-130.6" font-family="Times,serif" font-size="14.00">MdescapePipe</text>
</g>
<!-- MdescapePipe&#45;&gt;SharedModule -->
<g id="edge19" class="edge">
<title>MdescapePipe&#45;&gt;SharedModule</title>
<path fill="none" stroke="black" d="M3308,-116.71C3308,-93.67 3308,-56.8 3308,-56.8 3308,-56.8 409.49,-56.8 409.49,-56.8"/>
<polygon fill="black" stroke="black" points="409.49,-53.3 399.49,-56.8 409.49,-60.3 409.49,-53.3"/>
</g>
<!-- MessageComponent -->
<g id="node21" class="node">
<title>MessageComponent</title>
<polygon fill="#ffffb3" stroke="black" points="3241.32,-152.8 3110.68,-152.8 3110.68,-116.8 3241.32,-116.8 3241.32,-152.8"/>
<text text-anchor="middle" x="3176" y="-130.6" font-family="Times,serif" font-size="14.00">MessageComponent</text>
</g>
<!-- MessageComponent&#45;&gt;SharedModule -->
<g id="edge20" class="edge">
<title>MessageComponent&#45;&gt;SharedModule</title>
<path fill="none" stroke="black" d="M3176,-116.55C3176,-93.78 3176,-57.8 3176,-57.8 3176,-57.8 409.35,-57.8 409.35,-57.8"/>
<polygon fill="black" stroke="black" points="409.35,-54.3 399.35,-57.8 409.35,-61.3 409.35,-54.3"/>
</g>
<!-- NavComponent -->
<g id="node22" class="node">
<title>NavComponent</title>
<polygon fill="#ffffb3" stroke="black" points="3093.16,-152.8 2988.84,-152.8 2988.84,-116.8 3093.16,-116.8 3093.16,-152.8"/>
<text text-anchor="middle" x="3041" y="-130.6" font-family="Times,serif" font-size="14.00">NavComponent</text>
</g>
<!-- NavComponent&#45;&gt;SharedModule -->
<g id="edge21" class="edge">
<title>NavComponent&#45;&gt;SharedModule</title>
<path fill="none" stroke="black" d="M3041,-116.64C3041,-94.45 3041,-59.8 3041,-59.8 3041,-59.8 409.3,-59.8 409.3,-59.8"/>
<polygon fill="black" stroke="black" points="409.3,-56.3 399.3,-59.8 409.3,-63.3 409.3,-56.3"/>
</g>
<!-- NewsbarComponent -->
<g id="node23" class="node">
<title>NewsbarComponent</title>
<polygon fill="#ffffb3" stroke="black" points="2970.59,-152.8 2839.41,-152.8 2839.41,-116.8 2970.59,-116.8 2970.59,-152.8"/>
<text text-anchor="middle" x="2905" y="-130.6" font-family="Times,serif" font-size="14.00">NewsbarComponent</text>
</g>
<!-- NewsbarComponent&#45;&gt;SharedModule -->
<g id="edge22" class="edge">
<title>NewsbarComponent&#45;&gt;SharedModule</title>
<path fill="none" stroke="black" d="M2905,-116.51C2905,-94.59 2905,-60.8 2905,-60.8 2905,-60.8 409.32,-60.8 409.32,-60.8"/>
<polygon fill="black" stroke="black" points="409.32,-57.3 399.32,-60.8 409.32,-64.3 409.32,-57.3"/>
</g>
<!-- NotFoundComponent -->
<g id="node24" class="node">
<title>NotFoundComponent</title>
<polygon fill="#ffffb3" stroke="black" points="2821.12,-152.8 2682.88,-152.8 2682.88,-116.8 2821.12,-116.8 2821.12,-152.8"/>
<text text-anchor="middle" x="2752" y="-130.6" font-family="Times,serif" font-size="14.00">NotFoundComponent</text>
</g>
<!-- NotFoundComponent&#45;&gt;SharedModule -->
<g id="edge23" class="edge">
<title>NotFoundComponent&#45;&gt;SharedModule</title>
<path fill="none" stroke="black" d="M2752,-116.76C2752,-95.14 2752,-61.8 2752,-61.8 2752,-61.8 409.34,-61.8 409.34,-61.8"/>
<polygon fill="black" stroke="black" points="409.34,-58.3 399.34,-61.8 409.34,-65.3 409.34,-58.3"/>
</g>
<!-- TweetBtnComponent -->
<g id="node25" class="node">
<title>TweetBtnComponent</title>
<polygon fill="#ffffb3" stroke="black" points="2665.04,-152.8 2528.96,-152.8 2528.96,-116.8 2665.04,-116.8 2665.04,-152.8"/>
<text text-anchor="middle" x="2597" y="-130.6" font-family="Times,serif" font-size="14.00">TweetBtnComponent</text>
</g>
<!-- TweetBtnComponent&#45;&gt;SharedModule -->
<g id="edge24" class="edge">
<title>TweetBtnComponent&#45;&gt;SharedModule</title>
<path fill="none" stroke="black" d="M2597,-116.52C2597,-95.48 2597,-63.8 2597,-63.8 2597,-63.8 409.29,-63.8 409.29,-63.8"/>
<polygon fill="black" stroke="black" points="409.29,-60.3 399.29,-63.8 409.29,-67.3 409.29,-60.3"/>
</g>
<!-- YearPipe -->
<g id="node26" class="node">
<title>YearPipe</title>
<polygon fill="#ffffb3" stroke="black" points="2511.09,-152.8 2442.91,-152.8 2442.91,-116.8 2511.09,-116.8 2511.09,-152.8"/>
<text text-anchor="middle" x="2477" y="-130.6" font-family="Times,serif" font-size="14.00">YearPipe</text>
</g>
<!-- YearPipe&#45;&gt;SharedModule -->
<g id="edge25" class="edge">
<title>YearPipe&#45;&gt;SharedModule</title>
<path fill="none" stroke="black" d="M2477,-116.77C2477,-96.03 2477,-64.8 2477,-64.8 2477,-64.8 409.45,-64.8 409.45,-64.8"/>
<polygon fill="black" stroke="black" points="409.45,-61.3 399.45,-64.8 409.45,-68.3 409.45,-61.3"/>
</g>
<!-- SnippetListComponent -->
<g id="node39" class="node">
<title>SnippetListComponent</title>
<polygon fill="#ffffb3" stroke="black" points="5267.89,-84.8 5122.11,-84.8 5122.11,-48.8 5267.89,-48.8 5267.89,-84.8"/>
<text text-anchor="middle" x="5195" y="-62.6" font-family="Times,serif" font-size="14.00">SnippetListComponent</text>
</g>
<!-- SnippetListComponent&#45;&gt;SnippetModule -->
<g id="edge38" class="edge">
<title>SnippetListComponent&#45;&gt;SnippetModule</title>
<path fill="none" stroke="black" d="M5195,-84.83C5195,-101.2 5195,-122.8 5195,-122.8 5195,-122.8 5085.31,-122.8 5085.31,-122.8"/>
<polygon fill="black" stroke="black" points="5085.31,-119.3 5075.31,-122.8 5085.31,-126.3 5085.31,-119.3"/>
</g>
<!-- SnippetRoutingModule -->
<g id="node41" class="node">
<title>SnippetRoutingModule</title>
<polygon fill="#8dd3c7" stroke="black" points="5097.95,-84.8 5094.95,-88.8 5073.95,-88.8 5070.95,-84.8 4950.05,-84.8 4950.05,-48.8 5097.95,-48.8 5097.95,-84.8"/>
<text text-anchor="middle" x="5024" y="-62.6" font-family="Times,serif" font-size="14.00">SnippetRoutingModule</text>
</g>
<!-- SnippetRoutingModule&#45;&gt;SnippetModule -->
<g id="edge40" class="edge">
<title>SnippetRoutingModule&#45;&gt;SnippetModule</title>
<path fill="none" stroke="black" d="M5041.06,-85.02C5041.06,-85.02 5041.06,-106.53 5041.06,-106.53"/>
<polygon fill="black" stroke="black" points="5037.56,-106.53 5041.06,-116.53 5044.56,-106.53 5037.56,-106.53"/>
</g>
<!-- Base64Component -->
<g id="node42" class="node">
<title>Base64Component</title>
<polygon fill="#ffffb3" stroke="black" points="6517.05,-84.8 6394.95,-84.8 6394.95,-48.8 6517.05,-48.8 6517.05,-84.8"/>
<text text-anchor="middle" x="6456" y="-62.6" font-family="Times,serif" font-size="14.00">Base64Component</text>
</g>
<!-- Base64Component&#45;&gt;ToolsModule -->
<g id="edge41" class="edge">
<title>Base64Component&#45;&gt;ToolsModule</title>
<path fill="none" stroke="black" d="M6456,-85.1C6456,-103.07 6456,-127.8 6456,-127.8 6456,-127.8 6211.89,-127.8 6211.89,-127.8"/>
<polygon fill="black" stroke="black" points="6211.89,-124.3 6201.89,-127.8 6211.89,-131.3 6211.89,-124.3"/>
</g>
<!-- FxCalcComponent -->
<g id="node43" class="node">
<title>FxCalcComponent</title>
<polygon fill="#ffffb3" stroke="black" points="6376.77,-84.8 6255.23,-84.8 6255.23,-48.8 6376.77,-48.8 6376.77,-84.8"/>
<text text-anchor="middle" x="6316" y="-62.6" font-family="Times,serif" font-size="14.00">FxCalcComponent</text>
</g>
<!-- FxCalcComponent&#45;&gt;ToolsModule -->
<g id="edge42" class="edge">
<title>FxCalcComponent&#45;&gt;ToolsModule</title>
<path fill="none" stroke="black" d="M6316,-84.83C6316,-101.2 6316,-122.8 6316,-122.8 6316,-122.8 6211.85,-122.8 6211.85,-122.8"/>
<polygon fill="black" stroke="black" points="6211.85,-119.3 6201.85,-122.8 6211.85,-126.3 6211.85,-119.3"/>
</g>
<!-- JsonFormatterComponent -->
<g id="node44" class="node">
<title>JsonFormatterComponent</title>
<polygon fill="#ffffb3" stroke="black" points="6236.94,-84.8 6075.06,-84.8 6075.06,-48.8 6236.94,-48.8 6236.94,-84.8"/>
<text text-anchor="middle" x="6156" y="-62.6" font-family="Times,serif" font-size="14.00">JsonFormatterComponent</text>
</g>
<!-- JsonFormatterComponent&#45;&gt;ToolsModule -->
<g id="edge43" class="edge">
<title>JsonFormatterComponent&#45;&gt;ToolsModule</title>
<path fill="none" stroke="black" d="M6171.24,-85.02C6171.24,-85.02 6171.24,-106.53 6171.24,-106.53"/>
<polygon fill="black" stroke="black" points="6167.74,-106.53 6171.24,-116.53 6174.74,-106.53 6167.74,-106.53"/>
</g>
<!-- JsonTyperComponent -->
<g id="node45" class="node">
<title>JsonTyperComponent</title>
<polygon fill="#ffffb3" stroke="black" points="6056.66,-84.8 5917.34,-84.8 5917.34,-48.8 6056.66,-48.8 6056.66,-84.8"/>
<text text-anchor="middle" x="5987" y="-62.6" font-family="Times,serif" font-size="14.00">JsonTyperComponent</text>
</g>
<!-- JsonTyperComponent&#45;&gt;ToolsModule -->
<g id="edge44" class="edge">
<title>JsonTyperComponent&#45;&gt;ToolsModule</title>
<path fill="none" stroke="black" d="M5987,-85.1C5987,-103.07 5987,-127.8 5987,-127.8 5987,-127.8 6100.27,-127.8 6100.27,-127.8"/>
<polygon fill="black" stroke="black" points="6100.27,-131.3 6110.27,-127.8 6100.27,-124.3 6100.27,-131.3"/>
</g>
<!-- MdwriterComponent -->
<g id="node46" class="node">
<title>MdwriterComponent</title>
<polygon fill="#ffffb3" stroke="black" points="5899.21,-84.8 5764.79,-84.8 5764.79,-48.8 5899.21,-48.8 5899.21,-84.8"/>
<text text-anchor="middle" x="5832" y="-62.6" font-family="Times,serif" font-size="14.00">MdwriterComponent</text>
</g>
<!-- MdwriterComponent&#45;&gt;ToolsModule -->
<g id="edge45" class="edge">
<title>MdwriterComponent&#45;&gt;ToolsModule</title>
<path fill="none" stroke="black" d="M5832,-84.83C5832,-104.38 5832,-132.8 5832,-132.8 5832,-132.8 6100.27,-132.8 6100.27,-132.8"/>
<polygon fill="black" stroke="black" points="6100.27,-136.3 6110.27,-132.8 6100.27,-129.3 6100.27,-136.3"/>
</g>
<!-- MermaidComponent -->
<g id="node47" class="node">
<title>MermaidComponent</title>
<polygon fill="#ffffb3" stroke="black" points="5747.15,-84.8 5614.85,-84.8 5614.85,-48.8 5747.15,-48.8 5747.15,-84.8"/>
<text text-anchor="middle" x="5681" y="-62.6" font-family="Times,serif" font-size="14.00">MermaidComponent</text>
</g>
<!-- MermaidComponent&#45;&gt;ToolsModule -->
<g id="edge46" class="edge">
<title>MermaidComponent&#45;&gt;ToolsModule</title>
<path fill="none" stroke="black" d="M5681,-85.08C5681,-106.12 5681,-137.8 5681,-137.8 5681,-137.8 6100.02,-137.8 6100.02,-137.8"/>
<polygon fill="black" stroke="black" points="6100.02,-141.3 6110.02,-137.8 6100.02,-134.3 6100.02,-141.3"/>
</g>
<!-- OpenapiComponent -->
<g id="node48" class="node">
<title>OpenapiComponent</title>
<polygon fill="#ffffb3" stroke="black" points="5596.26,-84.8 5467.74,-84.8 5467.74,-48.8 5596.26,-48.8 5596.26,-84.8"/>
<text text-anchor="middle" x="5532" y="-62.6" font-family="Times,serif" font-size="14.00">OpenapiComponent</text>
</g>
<!-- OpenapiComponent&#45;&gt;ToolsModule -->
<g id="edge47" class="edge">
<title>OpenapiComponent&#45;&gt;ToolsModule</title>
<path fill="none" stroke="black" d="M5532,-84.81C5532,-107.29 5532,-142.8 5532,-142.8 5532,-142.8 6100.12,-142.8 6100.12,-142.8"/>
<polygon fill="black" stroke="black" points="6100.12,-146.3 6110.12,-142.8 6100.12,-139.3 6100.12,-146.3"/>
</g>
<!-- RealtimeComponent -->
<g id="node49" class="node">
<title>RealtimeComponent</title>
<polygon fill="#ffffb3" stroke="black" points="7112.87,-84.8 6981.13,-84.8 6981.13,-48.8 7112.87,-48.8 7112.87,-84.8"/>
<text text-anchor="middle" x="7047" y="-62.6" font-family="Times,serif" font-size="14.00">RealtimeComponent</text>
</g>
<!-- RealtimeComponent&#45;&gt;ToolsModule -->
<g id="edge48" class="edge">
<title>RealtimeComponent&#45;&gt;ToolsModule</title>
<path fill="none" stroke="black" d="M7047,-85.18C7047,-109.08 7047,-147.8 7047,-147.8 7047,-147.8 6212.03,-147.8 6212.03,-147.8"/>
<polygon fill="black" stroke="black" points="6212.03,-144.3 6202.03,-147.8 6212.03,-151.3 6212.03,-144.3"/>
</g>
<!-- RegexComponent -->
<g id="node50" class="node">
<title>RegexComponent</title>
<polygon fill="#ffffb3" stroke="black" points="6963.6,-84.8 6846.4,-84.8 6846.4,-48.8 6963.6,-48.8 6963.6,-84.8"/>
<text text-anchor="middle" x="6905" y="-62.6" font-family="Times,serif" font-size="14.00">RegexComponent</text>
</g>
<!-- RegexComponent&#45;&gt;ToolsModule -->
<g id="edge49" class="edge">
<title>RegexComponent&#45;&gt;ToolsModule</title>
<path fill="none" stroke="black" d="M6905,-84.81C6905,-107.29 6905,-142.8 6905,-142.8 6905,-142.8 6211.73,-142.8 6211.73,-142.8"/>
<polygon fill="black" stroke="black" points="6211.73,-139.3 6201.73,-142.8 6211.73,-146.3 6211.73,-139.3"/>
</g>
<!-- StarNoteComponent -->
<g id="node51" class="node">
<title>StarNoteComponent</title>
<polygon fill="#ffffb3" stroke="black" points="6828.6,-84.8 6697.4,-84.8 6697.4,-48.8 6828.6,-48.8 6828.6,-84.8"/>
<text text-anchor="middle" x="6763" y="-62.6" font-family="Times,serif" font-size="14.00">StarNoteComponent</text>
</g>
<!-- StarNoteComponent&#45;&gt;ToolsModule -->
<g id="edge50" class="edge">
<title>StarNoteComponent&#45;&gt;ToolsModule</title>
<path fill="none" stroke="black" d="M6763,-85.08C6763,-106.12 6763,-137.8 6763,-137.8 6763,-137.8 6211.87,-137.8 6211.87,-137.8"/>
<polygon fill="black" stroke="black" points="6211.87,-134.3 6201.87,-137.8 6211.87,-141.3 6211.87,-134.3"/>
</g>
<!-- YearCheckComponent -->
<g id="node52" class="node">
<title>YearCheckComponent</title>
<polygon fill="#ffffb3" stroke="black" points="6679.3,-84.8 6534.7,-84.8 6534.7,-48.8 6679.3,-48.8 6679.3,-84.8"/>
<text text-anchor="middle" x="6607" y="-62.6" font-family="Times,serif" font-size="14.00">YearCheckComponent</text>
</g>
<!-- YearCheckComponent&#45;&gt;ToolsModule -->
<g id="edge51" class="edge">
<title>YearCheckComponent&#45;&gt;ToolsModule</title>
<path fill="none" stroke="black" d="M6607,-84.83C6607,-104.38 6607,-132.8 6607,-132.8 6607,-132.8 6211.73,-132.8 6211.73,-132.8"/>
<polygon fill="black" stroke="black" points="6211.73,-129.3 6201.73,-132.8 6211.73,-136.3 6211.73,-129.3"/>
</g>
<!-- ToolsRoutingModule -->
<g id="node54" class="node">
<title>ToolsRoutingModule</title>
<polygon fill="#8dd3c7" stroke="black" points="5444.06,-84.8 5441.06,-88.8 5420.06,-88.8 5417.06,-84.8 5307.94,-84.8 5307.94,-48.8 5444.06,-48.8 5444.06,-84.8"/>
<text text-anchor="middle" x="5376" y="-62.6" font-family="Times,serif" font-size="14.00">ToolsRoutingModule</text>
</g>
<!-- ToolsRoutingModule&#45;&gt;ToolsModule -->
<g id="edge53" class="edge">
<title>ToolsRoutingModule&#45;&gt;ToolsModule</title>
<path fill="none" stroke="black" d="M5376,-85.18C5376,-109.08 5376,-147.8 5376,-147.8 5376,-147.8 6100.12,-147.8 6100.12,-147.8"/>
<polygon fill="black" stroke="black" points="6100.12,-151.3 6110.12,-147.8 6100.12,-144.3 6100.12,-151.3"/>
</g>
</g>
</svg>
