<?xml version="1.0" encoding="UTF-8" standalone="no"?>
<!DOCTYPE svg PUBLIC "-//W3C//DTD SVG 1.1//EN"
 "http://www.w3.org/Graphics/SVG/1.1/DTD/svg11.dtd">
<!-- Generated by graphviz version 2.47.3 (20210619.1520)
 -->
<!-- Title: dependencies Pages: 1 -->
<svg width="4406pt" height="323pt"
 viewBox="0.00 0.00 4406.00 322.80" xmlns="http://www.w3.org/2000/svg" xmlns:xlink="http://www.w3.org/1999/xlink">
<g id="graph0" class="graph" transform="scale(1 1) rotate(0) translate(4 318.8)">
<title>dependencies</title>
<polygon fill="white" stroke="transparent" points="-4,4 -4,-318.8 4402,-318.8 4402,4 -4,4"/>
<text text-anchor="middle" x="2199" y="-8.2" font-family="sans-serif" font-size="14.00">dependencies</text>
<g id="clust1" class="cluster">
<title>cluster_AppModule</title>
<polygon fill="none" stroke="black" stroke-dasharray="1,5" points="1011,-108.8 1011,-306.8 1418,-306.8 1418,-108.8 1011,-108.8"/>
</g>
<g id="clust2" class="cluster">
<title>cluster_AppModule_declarations</title>
<polygon fill="none" stroke="black" points="1019,-116.8 1019,-168.8 1141,-168.8 1141,-116.8 1019,-116.8"/>
</g>
<g id="clust4" class="cluster">
<title>cluster_AppModule_imports</title>
<polygon fill="none" stroke="black" points="1149,-116.8 1149,-168.8 1410,-168.8 1410,-116.8 1149,-116.8"/>
</g>
<g id="clust6" class="cluster">
<title>cluster_AppModule_bootstrap</title>
<polygon fill="none" stroke="black" points="1159,-246.8 1159,-298.8 1283,-298.8 1283,-246.8 1159,-246.8"/>
</g>
<g id="clust14" class="cluster">
<title>cluster_BlogModule</title>
<polygon fill="none" stroke="black" stroke-dasharray="1,5" points="524,-108.8 524,-233.8 1003,-233.8 1003,-108.8 524,-108.8"/>
</g>
<g id="clust15" class="cluster">
<title>cluster_BlogModule_declarations</title>
<polygon fill="none" stroke="black" points="688,-116.8 688,-168.8 995,-168.8 995,-116.8 688,-116.8"/>
</g>
<g id="clust18" class="cluster">
<title>cluster_BlogModule_imports</title>
<polygon fill="none" stroke="black" points="532,-116.8 532,-168.8 680,-168.8 680,-116.8 532,-116.8"/>
</g>
<g id="clust28" class="cluster">
<title>cluster_HomeModule</title>
<polygon fill="none" stroke="black" stroke-dasharray="1,5" points="1426,-108.8 1426,-233.8 2007,-233.8 2007,-108.8 1426,-108.8"/>
</g>
<g id="clust29" class="cluster">
<title>cluster_HomeModule_declarations</title>
<polygon fill="none" stroke="black" points="1596,-116.8 1596,-168.8 1999,-168.8 1999,-116.8 1596,-116.8"/>
</g>
<g id="clust33" class="cluster">
<title>cluster_HomeModule_imports</title>
<polygon fill="none" stroke="black" points="1434,-116.8 1434,-168.8 1588,-168.8 1588,-116.8 1434,-116.8"/>
</g>
<g id="clust43" class="cluster">
<title>cluster_LogModule</title>
<polygon fill="none" stroke="black" stroke-dasharray="1,5" points="2015,-108.8 2015,-233.8 2481,-233.8 2481,-108.8 2015,-108.8"/>
</g>
<g id="clust44" class="cluster">
<title>cluster_LogModule_declarations</title>
<polygon fill="none" stroke="black" points="2175,-116.8 2175,-168.8 2473,-168.8 2473,-116.8 2175,-116.8"/>
</g>
<g id="clust47" class="cluster">
<title>cluster_LogModule_imports</title>
<polygon fill="none" stroke="black" points="2023,-116.8 2023,-168.8 2167,-168.8 2167,-116.8 2023,-116.8"/>
</g>
<g id="clust57" class="cluster">
<title>cluster_SharedModule</title>
<polygon fill="none" stroke="black" stroke-dasharray="1,5" points="8,-32.8 8,-100.8 2641,-100.8 2641,-32.8 8,-32.8"/>
</g>
<g id="clust58" class="cluster">
<title>cluster_SharedModule_declarations</title>
<polygon fill="none" stroke="black" points="1275,-40.8 1275,-92.8 2633,-92.8 2633,-40.8 1275,-40.8"/>
</g>
<g id="clust70" class="cluster">
<title>cluster_SharedModule_exports</title>
<polygon fill="none" stroke="black" points="16,-40.8 16,-92.8 1267,-92.8 1267,-40.8 16,-40.8"/>
</g>
<g id="clust73" class="cluster">
<title>cluster_ToolsModule</title>
<polygon fill="none" stroke="black" stroke-dasharray="1,5" points="2489,-108.8 2489,-233.8 4390,-233.8 4390,-108.8 2489,-108.8"/>
</g>
<g id="clust74" class="cluster">
<title>cluster_ToolsModule_declarations</title>
<polygon fill="none" stroke="black" points="2657,-116.8 2657,-168.8 4382,-168.8 4382,-116.8 2657,-116.8"/>
</g>
<g id="clust86" class="cluster">
<title>cluster_ToolsModule_imports</title>
<polygon fill="none" stroke="black" points="2497,-116.8 2497,-168.8 2649,-168.8 2649,-116.8 2497,-116.8"/>
</g>
<!-- AppComponent -->
<g id="node1" class="node">
<title>AppComponent</title>
<polygon fill="#ffffb3" stroke="black" points="1132.94,-160.8 1027.06,-160.8 1027.06,-124.8 1132.94,-124.8 1132.94,-160.8"/>
<text text-anchor="middle" x="1080" y="-138.6" font-family="Times,serif" font-size="14.00">AppComponent</text>
</g>
<!-- AppModule -->
<g id="node2" class="node">
<title>AppModule</title>
<polygon fill="#8dd3c7" stroke="black" points="1262.66,-225.8 1259.66,-229.8 1238.66,-229.8 1235.66,-225.8 1179.34,-225.8 1179.34,-189.8 1262.66,-189.8 1262.66,-225.8"/>
<text text-anchor="middle" x="1221" y="-203.6" font-family="Times,serif" font-size="14.00">AppModule</text>
</g>
<!-- AppComponent&#45;&gt;AppModule -->
<g id="edge1" class="edge">
<title>AppComponent&#45;&gt;AppModule</title>
<path fill="none" stroke="black" d="M1080,-160.91C1080,-180.14 1080,-207.8 1080,-207.8 1080,-207.8 1169.08,-207.8 1169.08,-207.8"/>
<polygon fill="black" stroke="black" points="1169.08,-211.3 1179.08,-207.8 1169.08,-204.3 1169.08,-211.3"/>
</g>
<!-- AppComponent  -->
<g id="node5" class="node">
<title>AppComponent </title>
<polygon fill="#80b1d3" stroke="black" points="1275.44,-290.8 1166.56,-290.8 1166.56,-254.8 1275.44,-254.8 1275.44,-290.8"/>
<text text-anchor="middle" x="1221" y="-268.6" font-family="Times,serif" font-size="14.00">AppComponent </text>
</g>
<!-- AppModule&#45;&gt;AppComponent  -->
<g id="edge4" class="edge">
<title>AppModule&#45;&gt;AppComponent </title>
<path fill="none" stroke="black" stroke-dasharray="1,5" d="M1221,-225.91C1221,-225.91 1221,-244.79 1221,-244.79"/>
<polygon fill="black" stroke="black" points="1217.5,-244.79 1221,-254.79 1224.5,-244.79 1217.5,-244.79"/>
</g>
<!-- AppRoutingModule -->
<g id="node3" class="node">
<title>AppRoutingModule</title>
<polygon fill="#8dd3c7" stroke="black" points="1285.27,-160.8 1282.27,-164.8 1261.27,-164.8 1258.27,-160.8 1156.73,-160.8 1156.73,-124.8 1285.27,-124.8 1285.27,-160.8"/>
<text text-anchor="middle" x="1221" y="-138.6" font-family="Times,serif" font-size="14.00">AppRoutingModule</text>
</g>
<!-- AppRoutingModule&#45;&gt;AppModule -->
<g id="edge2" class="edge">
<title>AppRoutingModule&#45;&gt;AppModule</title>
<path fill="none" stroke="black" d="M1221,-160.91C1221,-160.91 1221,-179.79 1221,-179.79"/>
<polygon fill="black" stroke="black" points="1217.5,-179.79 1221,-189.79 1224.5,-179.79 1217.5,-179.79"/>
</g>
<!-- SharedModule -->
<g id="node4" class="node">
<title>SharedModule</title>
<polygon fill="#8dd3c7" stroke="black" points="1402.42,-160.8 1399.42,-164.8 1378.42,-164.8 1375.42,-160.8 1303.58,-160.8 1303.58,-124.8 1402.42,-124.8 1402.42,-160.8"/>
<text text-anchor="middle" x="1353" y="-138.6" font-family="Times,serif" font-size="14.00">SharedModule</text>
</g>
<!-- SharedModule&#45;&gt;AppModule -->
<g id="edge3" class="edge">
<title>SharedModule&#45;&gt;AppModule</title>
<path fill="none" stroke="black" d="M1369.4,-161.09C1369.4,-183.01 1369.4,-216.8 1369.4,-216.8 1369.4,-216.8 1272.73,-216.8 1272.73,-216.8"/>
<polygon fill="black" stroke="black" points="1272.73,-213.3 1262.73,-216.8 1272.73,-220.3 1272.73,-213.3"/>
</g>
<!-- BlogModule -->
<g id="node8" class="node">
<title>BlogModule</title>
<polygon fill="#8dd3c7" stroke="black" points="881.28,-225.8 878.28,-229.8 857.28,-229.8 854.28,-225.8 794.72,-225.8 794.72,-189.8 881.28,-189.8 881.28,-225.8"/>
<text text-anchor="middle" x="838" y="-203.6" font-family="Times,serif" font-size="14.00">BlogModule</text>
</g>
<!-- SharedModule&#45;&gt;BlogModule -->
<g id="edge8" class="edge">
<title>SharedModule&#45;&gt;BlogModule</title>
<path fill="none" stroke="black" d="M1320.19,-160.93C1320.19,-171.51 1320.19,-182.8 1320.19,-182.8 1320.19,-182.8 869.13,-182.8 869.13,-182.8 869.13,-182.8 869.13,-183.48 869.13,-183.48"/>
<polygon fill="black" stroke="black" points="865.63,-179.63 869.13,-189.63 872.63,-179.63 865.63,-179.63"/>
</g>
<!-- HomeModule -->
<g id="node13" class="node">
<title>HomeModule</title>
<polygon fill="#8dd3c7" stroke="black" points="1712.76,-225.8 1709.76,-229.8 1688.76,-229.8 1685.76,-225.8 1619.24,-225.8 1619.24,-189.8 1712.76,-189.8 1712.76,-225.8"/>
<text text-anchor="middle" x="1666" y="-203.6" font-family="Times,serif" font-size="14.00">HomeModule</text>
</g>
<!-- SharedModule&#45;&gt;HomeModule -->
<g id="edge13" class="edge">
<title>SharedModule&#45;&gt;HomeModule</title>
<path fill="none" stroke="black" d="M1385.81,-160.91C1385.81,-180.14 1385.81,-207.8 1385.81,-207.8 1385.81,-207.8 1609.1,-207.8 1609.1,-207.8"/>
<polygon fill="black" stroke="black" points="1609.1,-211.3 1619.1,-207.8 1609.1,-204.3 1609.1,-211.3"/>
</g>
<!-- LogModule -->
<g id="node17" class="node">
<title>LogModule</title>
<polygon fill="#8dd3c7" stroke="black" points="2211.1,-225.8 2208.1,-229.8 2187.1,-229.8 2184.1,-225.8 2128.9,-225.8 2128.9,-189.8 2211.1,-189.8 2211.1,-225.8"/>
<text text-anchor="middle" x="2170" y="-203.6" font-family="Times,serif" font-size="14.00">LogModule</text>
</g>
<!-- SharedModule&#45;&gt;LogModule -->
<g id="edge17" class="edge">
<title>SharedModule&#45;&gt;LogModule</title>
<path fill="none" stroke="black" d="M1336.6,-160.84C1336.6,-168.55 1336.6,-175.8 1336.6,-175.8 1336.6,-175.8 2138.84,-175.8 2138.84,-175.8 2138.84,-175.8 2138.84,-179.56 2138.84,-179.56"/>
<polygon fill="black" stroke="black" points="2135.34,-179.56 2138.84,-189.56 2142.34,-179.56 2135.34,-179.56"/>
</g>
<!-- AdsComponent  -->
<g id="node29" class="node">
<title>AdsComponent </title>
<polygon fill="#fb8072" stroke="black" points="1011.88,-84.8 904.12,-84.8 904.12,-48.8 1011.88,-48.8 1011.88,-84.8"/>
<text text-anchor="middle" x="958" y="-62.6" font-family="Times,serif" font-size="14.00">AdsComponent </text>
</g>
<!-- SharedModule&#45;&gt;AdsComponent  -->
<g id="edge28" class="edge">
<title>SharedModule&#45;&gt;AdsComponent </title>
<path fill="none" stroke="black" stroke-dasharray="5,2" d="M1340.05,-124.76C1340.05,-117.05 1340.05,-109.8 1340.05,-109.8 1340.05,-109.8 999.54,-109.8 999.54,-109.8 999.54,-109.8 999.54,-95.29 999.54,-95.29"/>
<polygon fill="black" stroke="black" points="1003.04,-95.29 999.54,-85.29 996.04,-95.29 1003.04,-95.29"/>
</g>
<!-- AdsModalComponent  -->
<g id="node30" class="node">
<title>AdsModalComponent </title>
<polygon fill="#fb8072" stroke="black" points="885.93,-84.8 742.07,-84.8 742.07,-48.8 885.93,-48.8 885.93,-84.8"/>
<text text-anchor="middle" x="814" y="-62.6" font-family="Times,serif" font-size="14.00">AdsModalComponent </text>
</g>
<!-- SharedModule&#45;&gt;AdsModalComponent  -->
<g id="edge29" class="edge">
<title>SharedModule&#45;&gt;AdsModalComponent </title>
<path fill="none" stroke="black" stroke-dasharray="5,2" d="M1334.87,-124.77C1334.87,-117.95 1334.87,-111.8 1334.87,-111.8 1334.87,-111.8 865.29,-111.8 865.29,-111.8 865.29,-111.8 865.29,-94.84 865.29,-94.84"/>
<polygon fill="black" stroke="black" points="868.79,-94.84 865.29,-84.84 861.79,-94.84 868.79,-94.84"/>
</g>
<!-- AmazonAdsComponent  -->
<g id="node31" class="node">
<title>AmazonAdsComponent </title>
<polygon fill="#fb8072" stroke="black" points="724.31,-84.8 569.69,-84.8 569.69,-48.8 724.31,-48.8 724.31,-84.8"/>
<text text-anchor="middle" x="647" y="-62.6" font-family="Times,serif" font-size="14.00">AmazonAdsComponent </text>
</g>
<!-- SharedModule&#45;&gt;AmazonAdsComponent  -->
<g id="edge30" class="edge">
<title>SharedModule&#45;&gt;AmazonAdsComponent </title>
<path fill="none" stroke="black" stroke-dasharray="5,2" d="M1329.69,-124.6C1329.69,-118.77 1329.69,-113.8 1329.69,-113.8 1329.69,-113.8 710.12,-113.8 710.12,-113.8 710.12,-113.8 710.12,-94.84 710.12,-94.84"/>
<polygon fill="black" stroke="black" points="713.62,-94.84 710.12,-84.84 706.62,-94.84 713.62,-94.84"/>
</g>
<!-- LoadingComponent  -->
<g id="node32" class="node">
<title>LoadingComponent </title>
<polygon fill="#fb8072" stroke="black" points="551.99,-84.8 420.01,-84.8 420.01,-48.8 551.99,-48.8 551.99,-84.8"/>
<text text-anchor="middle" x="486" y="-62.6" font-family="Times,serif" font-size="14.00">LoadingComponent </text>
</g>
<!-- SharedModule&#45;&gt;LoadingComponent  -->
<g id="edge31" class="edge">
<title>SharedModule&#45;&gt;LoadingComponent </title>
<path fill="none" stroke="black" stroke-dasharray="5,2" d="M1324.51,-124.74C1324.51,-120.31 1324.51,-116.8 1324.51,-116.8 1324.51,-116.8 545.9,-116.8 545.9,-116.8 545.9,-116.8 545.9,-94.85 545.9,-94.85"/>
<polygon fill="black" stroke="black" points="549.4,-94.85 545.9,-84.85 542.4,-94.85 549.4,-94.85"/>
</g>
<!-- MdescapePipe  -->
<g id="node33" class="node">
<title>MdescapePipe </title>
<polygon fill="#fb8072" stroke="black" points="402.64,-84.8 301.36,-84.8 301.36,-48.8 402.64,-48.8 402.64,-84.8"/>
<text text-anchor="middle" x="352" y="-62.6" font-family="Times,serif" font-size="14.00">MdescapePipe </text>
</g>
<!-- SharedModule&#45;&gt;MdescapePipe  -->
<g id="edge32" class="edge">
<title>SharedModule&#45;&gt;MdescapePipe </title>
<path fill="none" stroke="black" stroke-dasharray="5,2" d="M1319.33,-124.61C1319.33,-121.26 1319.33,-118.8 1319.33,-118.8 1319.33,-118.8 352,-118.8 352,-118.8 352,-118.8 352,-94.99 352,-94.99"/>
<polygon fill="black" stroke="black" points="355.5,-94.99 352,-84.99 348.5,-94.99 355.5,-94.99"/>
</g>
<!-- MessageComponent  -->
<g id="node34" class="node">
<title>MessageComponent </title>
<polygon fill="#fb8072" stroke="black" points="283.81,-84.8 150.19,-84.8 150.19,-48.8 283.81,-48.8 283.81,-84.8"/>
<text text-anchor="middle" x="217" y="-62.6" font-family="Times,serif" font-size="14.00">MessageComponent </text>
</g>
<!-- SharedModule&#45;&gt;MessageComponent  -->
<g id="edge33" class="edge">
<title>SharedModule&#45;&gt;MessageComponent </title>
<path fill="none" stroke="black" stroke-dasharray="5,2" d="M1314.15,-124.63C1314.15,-122.35 1314.15,-120.8 1314.15,-120.8 1314.15,-120.8 217,-120.8 217,-120.8 217,-120.8 217,-95.08 217,-95.08"/>
<polygon fill="black" stroke="black" points="220.5,-95.08 217,-85.08 213.5,-95.08 220.5,-95.08"/>
</g>
<!-- NavComponent  -->
<g id="node35" class="node">
<title>NavComponent </title>
<polygon fill="#fb8072" stroke="black" points="132.15,-84.8 23.85,-84.8 23.85,-48.8 132.15,-48.8 132.15,-84.8"/>
<text text-anchor="middle" x="78" y="-62.6" font-family="Times,serif" font-size="14.00">NavComponent </text>
</g>
<!-- SharedModule&#45;&gt;NavComponent  -->
<g id="edge34" class="edge">
<title>SharedModule&#45;&gt;NavComponent </title>
<path fill="none" stroke="black" stroke-dasharray="5,2" d="M1308.97,-124.65C1308.97,-123.5 1308.97,-122.8 1308.97,-122.8 1308.97,-122.8 78,-122.8 78,-122.8 78,-122.8 78,-94.83 78,-94.83"/>
<polygon fill="black" stroke="black" points="81.5,-94.83 78,-84.83 74.5,-94.83 81.5,-94.83"/>
</g>
<!-- TweetBtnComponent  -->
<g id="node36" class="node">
<title>TweetBtnComponent </title>
<polygon fill="#fb8072" stroke="black" points="1259.04,-84.8 1118.96,-84.8 1118.96,-48.8 1259.04,-48.8 1259.04,-84.8"/>
<text text-anchor="middle" x="1189" y="-62.6" font-family="Times,serif" font-size="14.00">TweetBtnComponent </text>
</g>
<!-- SharedModule&#45;&gt;TweetBtnComponent  -->
<g id="edge35" class="edge">
<title>SharedModule&#45;&gt;TweetBtnComponent </title>
<path fill="none" stroke="black" stroke-dasharray="5,2" d="M1350.41,-124.69C1350.41,-114.9 1350.41,-104.8 1350.41,-104.8 1350.41,-104.8 1207.82,-104.8 1207.82,-104.8 1207.82,-104.8 1207.82,-94.91 1207.82,-94.91"/>
<polygon fill="black" stroke="black" points="1211.32,-94.91 1207.82,-84.91 1204.32,-94.91 1211.32,-94.91"/>
</g>
<!-- YearPipe  -->
<g id="node37" class="node">
<title>YearPipe </title>
<polygon fill="#fb8072" stroke="black" points="1100.59,-84.8 1029.41,-84.8 1029.41,-48.8 1100.59,-48.8 1100.59,-84.8"/>
<text text-anchor="middle" x="1065" y="-62.6" font-family="Times,serif" font-size="14.00">YearPipe </text>
</g>
<!-- SharedModule&#45;&gt;YearPipe  -->
<g id="edge36" class="edge">
<title>SharedModule&#45;&gt;YearPipe </title>
<path fill="none" stroke="black" stroke-dasharray="5,2" d="M1345.23,-124.48C1345.23,-116.01 1345.23,-107.8 1345.23,-107.8 1345.23,-107.8 1065,-107.8 1065,-107.8 1065,-107.8 1065,-94.9 1065,-94.9"/>
<polygon fill="black" stroke="black" points="1068.5,-94.9 1065,-84.9 1061.5,-94.9 1068.5,-94.9"/>
</g>
<!-- ToolsModule -->
<g id="node49" class="node">
<title>ToolsModule</title>
<polygon fill="#8dd3c7" stroke="black" points="3432.94,-225.8 3429.94,-229.8 3408.94,-229.8 3405.94,-225.8 3341.06,-225.8 3341.06,-189.8 3432.94,-189.8 3432.94,-225.8"/>
<text text-anchor="middle" x="3387" y="-203.6" font-family="Times,serif" font-size="14.00">ToolsModule</text>
</g>
<!-- SharedModule&#45;&gt;ToolsModule -->
<g id="edge48" class="edge">
<title>SharedModule&#45;&gt;ToolsModule</title>
<path fill="none" stroke="black" d="M1353,-160.86C1353,-165.29 1353,-168.8 1353,-168.8 1353,-168.8 3371.76,-168.8 3371.76,-168.8 3371.76,-168.8 3371.76,-179.67 3371.76,-179.67"/>
<polygon fill="black" stroke="black" points="3368.26,-179.67 3371.76,-189.67 3375.26,-179.67 3368.26,-179.67"/>
</g>
<!-- BlogDetailComponent -->
<g id="node6" class="node">
<title>BlogDetailComponent</title>
<polygon fill="#ffffb3" stroke="black" points="987.27,-160.8 844.73,-160.8 844.73,-124.8 987.27,-124.8 987.27,-160.8"/>
<text text-anchor="middle" x="916" y="-138.6" font-family="Times,serif" font-size="14.00">BlogDetailComponent</text>
</g>
<!-- BlogDetailComponent&#45;&gt;BlogModule -->
<g id="edge5" class="edge">
<title>BlogDetailComponent&#45;&gt;BlogModule</title>
<path fill="none" stroke="black" d="M856.87,-160.91C856.87,-160.91 856.87,-179.79 856.87,-179.79"/>
<polygon fill="black" stroke="black" points="853.37,-179.79 856.87,-189.79 860.37,-179.79 853.37,-179.79"/>
</g>
<!-- BlogListComponent -->
<g id="node7" class="node">
<title>BlogListComponent</title>
<polygon fill="#ffffb3" stroke="black" points="826.34,-160.8 695.66,-160.8 695.66,-124.8 826.34,-124.8 826.34,-160.8"/>
<text text-anchor="middle" x="761" y="-138.6" font-family="Times,serif" font-size="14.00">BlogListComponent</text>
</g>
<!-- BlogListComponent&#45;&gt;BlogModule -->
<g id="edge6" class="edge">
<title>BlogListComponent&#45;&gt;BlogModule</title>
<path fill="none" stroke="black" d="M810.39,-160.91C810.39,-160.91 810.39,-179.79 810.39,-179.79"/>
<polygon fill="black" stroke="black" points="806.89,-179.79 810.39,-189.79 813.89,-179.79 806.89,-179.79"/>
</g>
<!-- BlogRoutingModule -->
<g id="node9" class="node">
<title>BlogRoutingModule</title>
<polygon fill="#8dd3c7" stroke="black" points="671.89,-160.8 668.89,-164.8 647.89,-164.8 644.89,-160.8 540.11,-160.8 540.11,-124.8 671.89,-124.8 671.89,-160.8"/>
<text text-anchor="middle" x="606" y="-138.6" font-family="Times,serif" font-size="14.00">BlogRoutingModule</text>
</g>
<!-- BlogRoutingModule&#45;&gt;BlogModule -->
<g id="edge7" class="edge">
<title>BlogRoutingModule&#45;&gt;BlogModule</title>
<path fill="none" stroke="black" d="M606,-160.91C606,-180.14 606,-207.8 606,-207.8 606,-207.8 784.63,-207.8 784.63,-207.8"/>
<polygon fill="black" stroke="black" points="784.63,-211.3 794.63,-207.8 784.63,-204.3 784.63,-211.3"/>
</g>
<!-- ContactComponent -->
<g id="node10" class="node">
<title>ContactComponent</title>
<polygon fill="#ffffb3" stroke="black" points="1728.38,-160.8 1603.62,-160.8 1603.62,-124.8 1728.38,-124.8 1728.38,-160.8"/>
<text text-anchor="middle" x="1666" y="-138.6" font-family="Times,serif" font-size="14.00">ContactComponent</text>
</g>
<!-- ContactComponent&#45;&gt;HomeModule -->
<g id="edge9" class="edge">
<title>ContactComponent&#45;&gt;HomeModule</title>
<path fill="none" stroke="black" d="M1666,-160.91C1666,-160.91 1666,-179.79 1666,-179.79"/>
<polygon fill="black" stroke="black" points="1662.5,-179.79 1666,-189.79 1669.5,-179.79 1662.5,-179.79"/>
</g>
<!-- IndexComponent -->
<g id="node11" class="node">
<title>IndexComponent</title>
<polygon fill="#ffffb3" stroke="black" points="1990.71,-160.8 1877.29,-160.8 1877.29,-124.8 1990.71,-124.8 1990.71,-160.8"/>
<text text-anchor="middle" x="1934" y="-138.6" font-family="Times,serif" font-size="14.00">IndexComponent</text>
</g>
<!-- IndexComponent&#45;&gt;HomeModule -->
<g id="edge10" class="edge">
<title>IndexComponent&#45;&gt;HomeModule</title>
<path fill="none" stroke="black" d="M1934,-161.08C1934,-182.12 1934,-213.8 1934,-213.8 1934,-213.8 1722.99,-213.8 1722.99,-213.8"/>
<polygon fill="black" stroke="black" points="1722.99,-210.3 1712.99,-213.8 1722.99,-217.3 1722.99,-210.3"/>
</g>
<!-- NewsComponent -->
<g id="node12" class="node">
<title>NewsComponent</title>
<polygon fill="#ffffb3" stroke="black" points="1859.7,-160.8 1746.3,-160.8 1746.3,-124.8 1859.7,-124.8 1859.7,-160.8"/>
<text text-anchor="middle" x="1803" y="-138.6" font-family="Times,serif" font-size="14.00">NewsComponent</text>
</g>
<!-- NewsComponent&#45;&gt;HomeModule -->
<g id="edge11" class="edge">
<title>NewsComponent&#45;&gt;HomeModule</title>
<path fill="none" stroke="black" d="M1803,-160.82C1803,-178.17 1803,-201.8 1803,-201.8 1803,-201.8 1722.76,-201.8 1722.76,-201.8"/>
<polygon fill="black" stroke="black" points="1722.76,-198.3 1712.76,-201.8 1722.76,-205.3 1722.76,-198.3"/>
</g>
<!-- HomeRoutingModule -->
<g id="node14" class="node">
<title>HomeRoutingModule</title>
<polygon fill="#8dd3c7" stroke="black" points="1580.38,-160.8 1577.38,-164.8 1556.38,-164.8 1553.38,-160.8 1441.62,-160.8 1441.62,-124.8 1580.38,-124.8 1580.38,-160.8"/>
<text text-anchor="middle" x="1511" y="-138.6" font-family="Times,serif" font-size="14.00">HomeRoutingModule</text>
</g>
<!-- HomeRoutingModule&#45;&gt;HomeModule -->
<g id="edge12" class="edge">
<title>HomeRoutingModule&#45;&gt;HomeModule</title>
<path fill="none" stroke="black" d="M1511,-160.83C1511,-177.2 1511,-198.8 1511,-198.8 1511,-198.8 1609.07,-198.8 1609.07,-198.8"/>
<polygon fill="black" stroke="black" points="1609.07,-202.3 1619.07,-198.8 1609.07,-195.3 1609.07,-202.3"/>
</g>
<!-- LogDetailComponent -->
<g id="node15" class="node">
<title>LogDetailComponent</title>
<polygon fill="#ffffb3" stroke="black" points="2465.09,-160.8 2326.91,-160.8 2326.91,-124.8 2465.09,-124.8 2465.09,-160.8"/>
<text text-anchor="middle" x="2396" y="-138.6" font-family="Times,serif" font-size="14.00">LogDetailComponent</text>
</g>
<!-- LogDetailComponent&#45;&gt;LogModule -->
<g id="edge14" class="edge">
<title>LogDetailComponent&#45;&gt;LogModule</title>
<path fill="none" stroke="black" d="M2396,-161.04C2396,-176.37 2396,-195.8 2396,-195.8 2396,-195.8 2221.19,-195.8 2221.19,-195.8"/>
<polygon fill="black" stroke="black" points="2221.19,-192.3 2211.19,-195.8 2221.19,-199.3 2221.19,-192.3"/>
</g>
<!-- LogListComponent -->
<g id="node16" class="node">
<title>LogListComponent</title>
<polygon fill="#ffffb3" stroke="black" points="2308.66,-160.8 2183.34,-160.8 2183.34,-124.8 2308.66,-124.8 2308.66,-160.8"/>
<text text-anchor="middle" x="2246" y="-138.6" font-family="Times,serif" font-size="14.00">LogListComponent</text>
</g>
<!-- LogListComponent&#45;&gt;LogModule -->
<g id="edge15" class="edge">
<title>LogListComponent&#45;&gt;LogModule</title>
<path fill="none" stroke="black" d="M2197.11,-160.91C2197.11,-160.91 2197.11,-179.79 2197.11,-179.79"/>
<polygon fill="black" stroke="black" points="2193.61,-179.79 2197.11,-189.79 2200.61,-179.79 2193.61,-179.79"/>
</g>
<!-- LogRoutingModule -->
<g id="node18" class="node">
<title>LogRoutingModule</title>
<polygon fill="#8dd3c7" stroke="black" points="2158.72,-160.8 2155.72,-164.8 2134.72,-164.8 2131.72,-160.8 2031.28,-160.8 2031.28,-124.8 2158.72,-124.8 2158.72,-160.8"/>
<text text-anchor="middle" x="2095" y="-138.6" font-family="Times,serif" font-size="14.00">LogRoutingModule</text>
</g>
<!-- LogRoutingModule&#45;&gt;LogModule -->
<g id="edge16" class="edge">
<title>LogRoutingModule&#45;&gt;LogModule</title>
<path fill="none" stroke="black" d="M2148.72,-160.91C2148.72,-160.91 2148.72,-179.79 2148.72,-179.79"/>
<polygon fill="black" stroke="black" points="2145.22,-179.79 2148.72,-189.79 2152.22,-179.79 2145.22,-179.79"/>
</g>
<!-- AdsComponent -->
<g id="node19" class="node">
<title>AdsComponent</title>
<polygon fill="#ffffb3" stroke="black" points="1544.88,-84.8 1441.12,-84.8 1441.12,-48.8 1544.88,-48.8 1544.88,-84.8"/>
<text text-anchor="middle" x="1493" y="-62.6" font-family="Times,serif" font-size="14.00">AdsComponent</text>
</g>
<!-- AdsComponent&#45;&gt;SharedModule -->
<g id="edge18" class="edge">
<title>AdsComponent&#45;&gt;SharedModule</title>
<path fill="none" stroke="black" d="M1440.86,-66.8C1435.59,-66.8 1432.14,-66.8 1432.14,-66.8 1432.14,-66.8 1432.14,-142.8 1432.14,-142.8 1432.14,-142.8 1412.22,-142.8 1412.22,-142.8"/>
<polygon fill="black" stroke="black" points="1412.22,-139.3 1402.22,-142.8 1412.22,-146.3 1412.22,-139.3"/>
</g>
<!-- AdsModalComponent -->
<g id="node20" class="node">
<title>AdsModalComponent</title>
<polygon fill="#ffffb3" stroke="black" points="1423.43,-84.8 1282.57,-84.8 1282.57,-48.8 1423.43,-48.8 1423.43,-84.8"/>
<text text-anchor="middle" x="1353" y="-62.6" font-family="Times,serif" font-size="14.00">AdsModalComponent</text>
</g>
<!-- AdsModalComponent&#45;&gt;SharedModule -->
<g id="edge19" class="edge">
<title>AdsModalComponent&#45;&gt;SharedModule</title>
<path fill="none" stroke="black" d="M1355.59,-84.81C1355.59,-84.81 1355.59,-114.65 1355.59,-114.65"/>
<polygon fill="black" stroke="black" points="1352.09,-114.65 1355.59,-124.65 1359.09,-114.65 1352.09,-114.65"/>
</g>
<!-- AmazonAdsComponent -->
<g id="node21" class="node">
<title>AmazonAdsComponent</title>
<polygon fill="#ffffb3" stroke="black" points="2624.81,-84.8 2473.19,-84.8 2473.19,-48.8 2624.81,-48.8 2624.81,-84.8"/>
<text text-anchor="middle" x="2549" y="-62.6" font-family="Times,serif" font-size="14.00">AmazonAdsComponent</text>
</g>
<!-- AmazonAdsComponent&#45;&gt;SharedModule -->
<g id="edge20" class="edge">
<title>AmazonAdsComponent&#45;&gt;SharedModule</title>
<path fill="none" stroke="black" d="M2489.03,-85.22C2489.03,-94.08 2489.03,-102.8 2489.03,-102.8 2489.03,-102.8 1397.03,-102.8 1397.03,-102.8 1397.03,-102.8 1397.03,-114.67 1397.03,-114.67"/>
<polygon fill="black" stroke="black" points="1393.53,-114.67 1397.03,-124.67 1400.53,-114.67 1393.53,-114.67"/>
</g>
<!-- LoadingComponent -->
<g id="node22" class="node">
<title>LoadingComponent</title>
<polygon fill="#ffffb3" stroke="black" points="2454.99,-84.8 2327.01,-84.8 2327.01,-48.8 2454.99,-48.8 2454.99,-84.8"/>
<text text-anchor="middle" x="2391" y="-62.6" font-family="Times,serif" font-size="14.00">LoadingComponent</text>
</g>
<!-- LoadingComponent&#45;&gt;SharedModule -->
<g id="edge21" class="edge">
<title>LoadingComponent&#45;&gt;SharedModule</title>
<path fill="none" stroke="black" d="M2391,-84.99C2391,-93.08 2391,-100.8 2391,-100.8 2391,-100.8 1391.85,-100.8 1391.85,-100.8 1391.85,-100.8 1391.85,-114.74 1391.85,-114.74"/>
<polygon fill="black" stroke="black" points="1388.35,-114.74 1391.85,-124.74 1395.35,-114.74 1388.35,-114.74"/>
</g>
<!-- MdescapePipe -->
<g id="node23" class="node">
<title>MdescapePipe</title>
<polygon fill="#ffffb3" stroke="black" points="2308.64,-84.8 2211.36,-84.8 2211.36,-48.8 2308.64,-48.8 2308.64,-84.8"/>
<text text-anchor="middle" x="2260" y="-62.6" font-family="Times,serif" font-size="14.00">MdescapePipe</text>
</g>
<!-- MdescapePipe&#45;&gt;SharedModule -->
<g id="edge22" class="edge">
<title>MdescapePipe&#45;&gt;SharedModule</title>
<path fill="none" stroke="black" d="M2260,-85.04C2260,-92.23 2260,-98.8 2260,-98.8 2260,-98.8 1386.67,-98.8 1386.67,-98.8 1386.67,-98.8 1386.67,-114.65 1386.67,-114.65"/>
<polygon fill="black" stroke="black" points="1383.17,-114.65 1386.67,-124.65 1390.17,-114.65 1383.17,-114.65"/>
</g>
<!-- MessageComponent -->
<g id="node24" class="node">
<title>MessageComponent</title>
<polygon fill="#ffffb3" stroke="black" points="2193.31,-84.8 2062.69,-84.8 2062.69,-48.8 2193.31,-48.8 2193.31,-84.8"/>
<text text-anchor="middle" x="2128" y="-62.6" font-family="Times,serif" font-size="14.00">MessageComponent</text>
</g>
<!-- MessageComponent&#45;&gt;SharedModule -->
<g id="edge23" class="edge">
<title>MessageComponent&#45;&gt;SharedModule</title>
<path fill="none" stroke="black" d="M2110.73,-84.94C2110.73,-91.26 2110.73,-96.8 2110.73,-96.8 2110.73,-96.8 1381.49,-96.8 1381.49,-96.8 1381.49,-96.8 1381.49,-114.62 1381.49,-114.62"/>
<polygon fill="black" stroke="black" points="1377.99,-114.62 1381.49,-124.62 1384.99,-114.62 1377.99,-114.62"/>
</g>
<!-- NavComponent -->
<g id="node25" class="node">
<title>NavComponent</title>
<polygon fill="#ffffb3" stroke="black" points="2045.15,-84.8 1940.85,-84.8 1940.85,-48.8 2045.15,-48.8 2045.15,-84.8"/>
<text text-anchor="middle" x="1993" y="-62.6" font-family="Times,serif" font-size="14.00">NavComponent</text>
</g>
<!-- NavComponent&#45;&gt;SharedModule -->
<g id="edge24" class="edge">
<title>NavComponent&#45;&gt;SharedModule</title>
<path fill="none" stroke="black" d="M1965.64,-84.96C1965.64,-89.84 1965.64,-93.8 1965.64,-93.8 1965.64,-93.8 1376.31,-93.8 1376.31,-93.8 1376.31,-93.8 1376.31,-114.55 1376.31,-114.55"/>
<polygon fill="black" stroke="black" points="1372.81,-114.55 1376.31,-124.55 1379.81,-114.55 1372.81,-114.55"/>
</g>
<!-- ProfileComponent -->
<g id="node26" class="node">
<title>ProfileComponent</title>
<polygon fill="#ffffb3" stroke="black" points="1922.93,-84.8 1803.07,-84.8 1803.07,-48.8 1922.93,-48.8 1922.93,-84.8"/>
<text text-anchor="middle" x="1863" y="-62.6" font-family="Times,serif" font-size="14.00">ProfileComponent</text>
</g>
<!-- ProfileComponent&#45;&gt;SharedModule -->
<g id="edge25" class="edge">
<title>ProfileComponent&#45;&gt;SharedModule</title>
<path fill="none" stroke="black" d="M1831.44,-84.97C1831.44,-88.85 1831.44,-91.8 1831.44,-91.8 1831.44,-91.8 1371.13,-91.8 1371.13,-91.8 1371.13,-91.8 1371.13,-114.68 1371.13,-114.68"/>
<polygon fill="black" stroke="black" points="1367.63,-114.68 1371.13,-124.68 1374.63,-114.68 1367.63,-114.68"/>
</g>
<!-- TweetBtnComponent -->
<g id="node27" class="node">
<title>TweetBtnComponent</title>
<polygon fill="#ffffb3" stroke="black" points="1785.04,-84.8 1648.96,-84.8 1648.96,-48.8 1785.04,-48.8 1785.04,-84.8"/>
<text text-anchor="middle" x="1717" y="-62.6" font-family="Times,serif" font-size="14.00">TweetBtnComponent</text>
</g>
<!-- TweetBtnComponent&#45;&gt;SharedModule -->
<g id="edge26" class="edge">
<title>TweetBtnComponent&#45;&gt;SharedModule</title>
<path fill="none" stroke="black" d="M1688.59,-84.92C1688.59,-87.77 1688.59,-89.8 1688.59,-89.8 1688.59,-89.8 1365.95,-89.8 1365.95,-89.8 1365.95,-89.8 1365.95,-114.56 1365.95,-114.56"/>
<polygon fill="black" stroke="black" points="1362.45,-114.56 1365.95,-124.56 1369.45,-114.56 1362.45,-114.56"/>
</g>
<!-- YearPipe -->
<g id="node28" class="node">
<title>YearPipe</title>
<polygon fill="#ffffb3" stroke="black" points="1631.08,-84.8 1562.92,-84.8 1562.92,-48.8 1631.08,-48.8 1631.08,-84.8"/>
<text text-anchor="middle" x="1597" y="-62.6" font-family="Times,serif" font-size="14.00">YearPipe</text>
</g>
<!-- YearPipe&#45;&gt;SharedModule -->
<g id="edge27" class="edge">
<title>YearPipe&#45;&gt;SharedModule</title>
<path fill="none" stroke="black" d="M1571.7,-84.88C1571.7,-86.65 1571.7,-87.8 1571.7,-87.8 1571.7,-87.8 1360.77,-87.8 1360.77,-87.8 1360.77,-87.8 1360.77,-114.79 1360.77,-114.79"/>
<polygon fill="black" stroke="black" points="1357.27,-114.79 1360.77,-124.79 1364.27,-114.79 1357.27,-114.79"/>
</g>
<!-- AmazonAssociateComponent -->
<g id="node38" class="node">
<title>AmazonAssociateComponent</title>
<polygon fill="#ffffb3" stroke="black" points="3478.68,-160.8 3295.32,-160.8 3295.32,-124.8 3478.68,-124.8 3478.68,-160.8"/>
<text text-anchor="middle" x="3387" y="-138.6" font-family="Times,serif" font-size="14.00">AmazonAssociateComponent</text>
</g>
<!-- AmazonAssociateComponent&#45;&gt;ToolsModule -->
<g id="edge37" class="edge">
<title>AmazonAssociateComponent&#45;&gt;ToolsModule</title>
<path fill="none" stroke="black" d="M3402.24,-160.91C3402.24,-160.91 3402.24,-179.79 3402.24,-179.79"/>
<polygon fill="black" stroke="black" points="3398.74,-179.79 3402.24,-189.79 3405.74,-179.79 3398.74,-179.79"/>
</g>
<!-- Base64Component -->
<g id="node39" class="node">
<title>Base64Component</title>
<polygon fill="#ffffb3" stroke="black" points="3277.04,-160.8 3154.96,-160.8 3154.96,-124.8 3277.04,-124.8 3277.04,-160.8"/>
<text text-anchor="middle" x="3216" y="-138.6" font-family="Times,serif" font-size="14.00">Base64Component</text>
</g>
<!-- Base64Component&#45;&gt;ToolsModule -->
<g id="edge38" class="edge">
<title>Base64Component&#45;&gt;ToolsModule</title>
<path fill="none" stroke="black" d="M3216,-160.83C3216,-177.86 3216,-200.8 3216,-200.8 3216,-200.8 3331.18,-200.8 3331.18,-200.8"/>
<polygon fill="black" stroke="black" points="3331.18,-204.3 3341.18,-200.8 3331.18,-197.3 3331.18,-204.3"/>
</g>
<!-- JsonFormatterComponent -->
<g id="node40" class="node">
<title>JsonFormatterComponent</title>
<polygon fill="#ffffb3" stroke="black" points="3136.93,-160.8 2975.07,-160.8 2975.07,-124.8 3136.93,-124.8 3136.93,-160.8"/>
<text text-anchor="middle" x="3056" y="-138.6" font-family="Times,serif" font-size="14.00">JsonFormatterComponent</text>
</g>
<!-- JsonFormatterComponent&#45;&gt;ToolsModule -->
<g id="edge39" class="edge">
<title>JsonFormatterComponent&#45;&gt;ToolsModule</title>
<path fill="none" stroke="black" d="M3056,-161.02C3056,-179.63 3056,-205.8 3056,-205.8 3056,-205.8 3330.98,-205.8 3330.98,-205.8"/>
<polygon fill="black" stroke="black" points="3330.98,-209.3 3340.98,-205.8 3330.98,-202.3 3330.98,-209.3"/>
</g>
<!-- JsonTyperComponent -->
<g id="node41" class="node">
<title>JsonTyperComponent</title>
<polygon fill="#ffffb3" stroke="black" points="2956.65,-160.8 2817.35,-160.8 2817.35,-124.8 2956.65,-124.8 2956.65,-160.8"/>
<text text-anchor="middle" x="2887" y="-138.6" font-family="Times,serif" font-size="14.00">JsonTyperComponent</text>
</g>
<!-- JsonTyperComponent&#45;&gt;ToolsModule -->
<g id="edge40" class="edge">
<title>JsonTyperComponent&#45;&gt;ToolsModule</title>
<path fill="none" stroke="black" d="M2887,-161.02C2887,-181.17 2887,-210.8 2887,-210.8 2887,-210.8 3330.86,-210.8 3330.86,-210.8"/>
<polygon fill="black" stroke="black" points="3330.86,-214.3 3340.86,-210.8 3330.86,-207.3 3330.86,-214.3"/>
</g>
<!-- MdwriterComponent -->
<g id="node42" class="node">
<title>MdwriterComponent</title>
<polygon fill="#ffffb3" stroke="black" points="2799.2,-160.8 2664.8,-160.8 2664.8,-124.8 2799.2,-124.8 2799.2,-160.8"/>
<text text-anchor="middle" x="2732" y="-138.6" font-family="Times,serif" font-size="14.00">MdwriterComponent</text>
</g>
<!-- MdwriterComponent&#45;&gt;ToolsModule -->
<g id="edge41" class="edge">
<title>MdwriterComponent&#45;&gt;ToolsModule</title>
<path fill="none" stroke="black" d="M2732,-160.84C2732,-182.46 2732,-215.8 2732,-215.8 2732,-215.8 3331.2,-215.8 3331.2,-215.8"/>
<polygon fill="black" stroke="black" points="3331.2,-219.3 3341.2,-215.8 3331.2,-212.3 3331.2,-219.3"/>
</g>
<!-- OpenapiComponent -->
<g id="node43" class="node">
<title>OpenapiComponent</title>
<polygon fill="#ffffb3" stroke="black" points="4374.26,-160.8 4245.74,-160.8 4245.74,-124.8 4374.26,-124.8 4374.26,-160.8"/>
<text text-anchor="middle" x="4310" y="-138.6" font-family="Times,serif" font-size="14.00">OpenapiComponent</text>
</g>
<!-- OpenapiComponent&#45;&gt;ToolsModule -->
<g id="edge42" class="edge">
<title>OpenapiComponent&#45;&gt;ToolsModule</title>
<path fill="none" stroke="black" d="M4310,-160.89C4310,-183.93 4310,-220.8 4310,-220.8 4310,-220.8 3442.77,-220.8 3442.77,-220.8"/>
<polygon fill="black" stroke="black" points="3442.77,-217.3 3432.77,-220.8 3442.77,-224.3 3442.77,-217.3"/>
</g>
<!-- RealtimeComponent -->
<g id="node44" class="node">
<title>RealtimeComponent</title>
<polygon fill="#ffffb3" stroke="black" points="4227.88,-160.8 4096.12,-160.8 4096.12,-124.8 4227.88,-124.8 4227.88,-160.8"/>
<text text-anchor="middle" x="4162" y="-138.6" font-family="Times,serif" font-size="14.00">RealtimeComponent</text>
</g>
<!-- RealtimeComponent&#45;&gt;ToolsModule -->
<g id="edge43" class="edge">
<title>RealtimeComponent&#45;&gt;ToolsModule</title>
<path fill="none" stroke="black" d="M4162,-160.84C4162,-182.46 4162,-215.8 4162,-215.8 4162,-215.8 3442.87,-215.8 3442.87,-215.8"/>
<polygon fill="black" stroke="black" points="3442.87,-212.3 3432.87,-215.8 3442.87,-219.3 3442.87,-212.3"/>
</g>
<!-- RegexComponent -->
<g id="node45" class="node">
<title>RegexComponent</title>
<polygon fill="#ffffb3" stroke="black" points="4078.6,-160.8 3961.4,-160.8 3961.4,-124.8 4078.6,-124.8 4078.6,-160.8"/>
<text text-anchor="middle" x="4020" y="-138.6" font-family="Times,serif" font-size="14.00">RegexComponent</text>
</g>
<!-- RegexComponent&#45;&gt;ToolsModule -->
<g id="edge44" class="edge">
<title>RegexComponent&#45;&gt;ToolsModule</title>
<path fill="none" stroke="black" d="M4020,-161.02C4020,-181.17 4020,-210.8 4020,-210.8 4020,-210.8 3442.78,-210.8 3442.78,-210.8"/>
<polygon fill="black" stroke="black" points="3442.78,-207.3 3432.78,-210.8 3442.78,-214.3 3442.78,-207.3"/>
</g>
<!-- ToolsListComponent -->
<g id="node46" class="node">
<title>ToolsListComponent</title>
<polygon fill="#ffffb3" stroke="black" points="3943.5,-160.8 3808.5,-160.8 3808.5,-124.8 3943.5,-124.8 3943.5,-160.8"/>
<text text-anchor="middle" x="3876" y="-138.6" font-family="Times,serif" font-size="14.00">ToolsListComponent</text>
</g>
<!-- ToolsListComponent&#45;&gt;ToolsModule -->
<g id="edge45" class="edge">
<title>ToolsListComponent&#45;&gt;ToolsModule</title>
<path fill="none" stroke="black" d="M3876,-161.02C3876,-179.63 3876,-205.8 3876,-205.8 3876,-205.8 3443,-205.8 3443,-205.8"/>
<polygon fill="black" stroke="black" points="3443,-202.3 3433,-205.8 3443,-209.3 3443,-202.3"/>
</g>
<!-- UserInfoComponent -->
<g id="node47" class="node">
<title>UserInfoComponent</title>
<polygon fill="#ffffb3" stroke="black" points="3790.58,-160.8 3659.42,-160.8 3659.42,-124.8 3790.58,-124.8 3790.58,-160.8"/>
<text text-anchor="middle" x="3725" y="-138.6" font-family="Times,serif" font-size="14.00">UserInfoComponent</text>
</g>
<!-- UserInfoComponent&#45;&gt;ToolsModule -->
<g id="edge46" class="edge">
<title>UserInfoComponent&#45;&gt;ToolsModule</title>
<path fill="none" stroke="black" d="M3725,-160.83C3725,-177.86 3725,-200.8 3725,-200.8 3725,-200.8 3442.94,-200.8 3442.94,-200.8"/>
<polygon fill="black" stroke="black" points="3442.94,-197.3 3432.94,-200.8 3442.94,-204.3 3442.94,-197.3"/>
</g>
<!-- YearCheckComponent -->
<g id="node48" class="node">
<title>YearCheckComponent</title>
<polygon fill="#ffffb3" stroke="black" points="3641.29,-160.8 3496.71,-160.8 3496.71,-124.8 3641.29,-124.8 3641.29,-160.8"/>
<text text-anchor="middle" x="3569" y="-138.6" font-family="Times,serif" font-size="14.00">YearCheckComponent</text>
</g>
<!-- YearCheckComponent&#45;&gt;ToolsModule -->
<g id="edge47" class="edge">
<title>YearCheckComponent&#45;&gt;ToolsModule</title>
<path fill="none" stroke="black" d="M3569,-161.04C3569,-176.37 3569,-195.8 3569,-195.8 3569,-195.8 3442.93,-195.8 3442.93,-195.8"/>
<polygon fill="black" stroke="black" points="3442.93,-192.3 3432.93,-195.8 3442.93,-199.3 3442.93,-192.3"/>
</g>
<!-- ToolsRoutingModule -->
<g id="node50" class="node">
<title>ToolsRoutingModule</title>
<polygon fill="#8dd3c7" stroke="black" points="2641.06,-160.8 2638.06,-164.8 2617.06,-164.8 2614.06,-160.8 2504.94,-160.8 2504.94,-124.8 2641.06,-124.8 2641.06,-160.8"/>
<text text-anchor="middle" x="2573" y="-138.6" font-family="Times,serif" font-size="14.00">ToolsRoutingModule</text>
</g>
<!-- ToolsRoutingModule&#45;&gt;ToolsModule -->
<g id="edge49" class="edge">
<title>ToolsRoutingModule&#45;&gt;ToolsModule</title>
<path fill="none" stroke="black" d="M2573,-160.89C2573,-183.93 2573,-220.8 2573,-220.8 2573,-220.8 3331.2,-220.8 3331.2,-220.8"/>
<polygon fill="black" stroke="black" points="3331.2,-224.3 3341.2,-220.8 3331.2,-217.3 3331.2,-224.3"/>
</g>
</g>
</svg>
