<?xml version="1.0" encoding="UTF-8" standalone="no"?>
<!DOCTYPE svg PUBLIC "-//W3C//DTD SVG 1.1//EN"
 "http://www.w3.org/Graphics/SVG/1.1/DTD/svg11.dtd">
<!-- Generated by graphviz version 3.0.0 (20220226.1711)
 -->
<!-- Title: dependencies Pages: 1 -->
<svg width="4710pt" height="323pt"
 viewBox="0.00 0.00 4710.00 322.80" xmlns="http://www.w3.org/2000/svg" xmlns:xlink="http://www.w3.org/1999/xlink">
<g id="graph0" class="graph" transform="scale(1 1) rotate(0) translate(4 318.8)">
<title>dependencies</title>
<polygon fill="white" stroke="transparent" points="-4,4 -4,-318.8 4706,-318.8 4706,4 -4,4"/>
<text text-anchor="middle" x="2351" y="-8.2" font-family="sans-serif" font-size="14.00">dependencies</text>
<g id="clust1" class="cluster">
<title>cluster_AppModule</title>
<polygon fill="none" stroke="black" stroke-dasharray="1,5" points="1164,-108.8 1164,-306.8 1571,-306.8 1571,-108.8 1164,-108.8"/>
</g>
<g id="clust2" class="cluster">
<title>cluster_AppModule_declarations</title>
<polygon fill="none" stroke="black" points="1172,-116.8 1172,-168.8 1294,-168.8 1294,-116.8 1172,-116.8"/>
</g>
<g id="clust4" class="cluster">
<title>cluster_AppModule_imports</title>
<polygon fill="none" stroke="black" points="1302,-116.8 1302,-168.8 1563,-168.8 1563,-116.8 1302,-116.8"/>
</g>
<g id="clust6" class="cluster">
<title>cluster_AppModule_bootstrap</title>
<polygon fill="none" stroke="black" points="1312,-246.8 1312,-298.8 1436,-298.8 1436,-246.8 1312,-246.8"/>
</g>
<g id="clust14" class="cluster">
<title>cluster_BlogModule</title>
<polygon fill="none" stroke="black" stroke-dasharray="1,5" points="677,-108.8 677,-233.8 1156,-233.8 1156,-108.8 677,-108.8"/>
</g>
<g id="clust15" class="cluster">
<title>cluster_BlogModule_declarations</title>
<polygon fill="none" stroke="black" points="841,-116.8 841,-168.8 1148,-168.8 1148,-116.8 841,-116.8"/>
</g>
<g id="clust18" class="cluster">
<title>cluster_BlogModule_imports</title>
<polygon fill="none" stroke="black" points="685,-116.8 685,-168.8 833,-168.8 833,-116.8 685,-116.8"/>
</g>
<g id="clust28" class="cluster">
<title>cluster_HomeModule</title>
<polygon fill="none" stroke="black" stroke-dasharray="1,5" points="1579,-108.8 1579,-233.8 2313,-233.8 2313,-108.8 1579,-108.8"/>
</g>
<g id="clust29" class="cluster">
<title>cluster_HomeModule_declarations</title>
<polygon fill="none" stroke="black" points="1749,-116.8 1749,-168.8 2305,-168.8 2305,-116.8 1749,-116.8"/>
</g>
<g id="clust34" class="cluster">
<title>cluster_HomeModule_imports</title>
<polygon fill="none" stroke="black" points="1587,-116.8 1587,-168.8 1741,-168.8 1741,-116.8 1587,-116.8"/>
</g>
<g id="clust44" class="cluster">
<title>cluster_LogModule</title>
<polygon fill="none" stroke="black" stroke-dasharray="1,5" points="2321,-108.8 2321,-233.8 2787,-233.8 2787,-108.8 2321,-108.8"/>
</g>
<g id="clust45" class="cluster">
<title>cluster_LogModule_declarations</title>
<polygon fill="none" stroke="black" points="2481,-116.8 2481,-168.8 2779,-168.8 2779,-116.8 2481,-116.8"/>
</g>
<g id="clust48" class="cluster">
<title>cluster_LogModule_imports</title>
<polygon fill="none" stroke="black" points="2329,-116.8 2329,-168.8 2473,-168.8 2473,-116.8 2329,-116.8"/>
</g>
<g id="clust58" class="cluster">
<title>cluster_SharedModule</title>
<polygon fill="none" stroke="black" stroke-dasharray="1,5" points="8,-32.8 8,-100.8 2944,-100.8 2944,-32.8 8,-32.8"/>
</g>
<g id="clust59" class="cluster">
<title>cluster_SharedModule_declarations</title>
<polygon fill="none" stroke="black" points="1428,-40.8 1428,-92.8 2936,-92.8 2936,-40.8 1428,-40.8"/>
</g>
<g id="clust72" class="cluster">
<title>cluster_SharedModule_exports</title>
<polygon fill="none" stroke="black" points="16,-40.8 16,-92.8 1420,-92.8 1420,-40.8 16,-40.8"/>
</g>
<g id="clust75" class="cluster">
<title>cluster_ToolsModule</title>
<polygon fill="none" stroke="black" stroke-dasharray="1,5" points="2795,-108.8 2795,-233.8 4694,-233.8 4694,-108.8 2795,-108.8"/>
</g>
<g id="clust76" class="cluster">
<title>cluster_ToolsModule_declarations</title>
<polygon fill="none" stroke="black" points="2963,-116.8 2963,-168.8 4686,-168.8 4686,-116.8 2963,-116.8"/>
</g>
<g id="clust88" class="cluster">
<title>cluster_ToolsModule_imports</title>
<polygon fill="none" stroke="black" points="2803,-116.8 2803,-168.8 2955,-168.8 2955,-116.8 2803,-116.8"/>
</g>
<!-- AppComponent -->
<g id="node1" class="node">
<title>AppComponent</title>
<polygon fill="#ffffb3" stroke="black" points="1285.94,-160.8 1180.06,-160.8 1180.06,-124.8 1285.94,-124.8 1285.94,-160.8"/>
<text text-anchor="middle" x="1233" y="-138.6" font-family="Times,serif" font-size="14.00">AppComponent</text>
</g>
<!-- AppModule -->
<g id="node2" class="node">
<title>AppModule</title>
<polygon fill="#8dd3c7" stroke="black" points="1415.66,-225.8 1412.66,-229.8 1391.66,-229.8 1388.66,-225.8 1332.34,-225.8 1332.34,-189.8 1415.66,-189.8 1415.66,-225.8"/>
<text text-anchor="middle" x="1374" y="-203.6" font-family="Times,serif" font-size="14.00">AppModule</text>
</g>
<!-- AppComponent&#45;&gt;AppModule -->
<g id="edge1" class="edge">
<title>AppComponent&#45;&gt;AppModule</title>
<path fill="none" stroke="black" d="M1233,-160.91C1233,-180.14 1233,-207.8 1233,-207.8 1233,-207.8 1322.08,-207.8 1322.08,-207.8"/>
<polygon fill="black" stroke="black" points="1322.08,-211.3 1332.08,-207.8 1322.08,-204.3 1322.08,-211.3"/>
</g>
<!-- AppComponent  -->
<g id="node5" class="node">
<title>AppComponent </title>
<polygon fill="#80b1d3" stroke="black" points="1428.44,-290.8 1319.56,-290.8 1319.56,-254.8 1428.44,-254.8 1428.44,-290.8"/>
<text text-anchor="middle" x="1374" y="-268.6" font-family="Times,serif" font-size="14.00">AppComponent </text>
</g>
<!-- AppModule&#45;&gt;AppComponent  -->
<g id="edge4" class="edge">
<title>AppModule&#45;&gt;AppComponent </title>
<path fill="none" stroke="black" stroke-dasharray="1,5" d="M1374,-225.91C1374,-225.91 1374,-244.79 1374,-244.79"/>
<polygon fill="black" stroke="black" points="1370.5,-244.79 1374,-254.79 1377.5,-244.79 1370.5,-244.79"/>
</g>
<!-- AppRoutingModule -->
<g id="node3" class="node">
<title>AppRoutingModule</title>
<polygon fill="#8dd3c7" stroke="black" points="1438.28,-160.8 1435.28,-164.8 1414.28,-164.8 1411.28,-160.8 1309.72,-160.8 1309.72,-124.8 1438.28,-124.8 1438.28,-160.8"/>
<text text-anchor="middle" x="1374" y="-138.6" font-family="Times,serif" font-size="14.00">AppRoutingModule</text>
</g>
<!-- AppRoutingModule&#45;&gt;AppModule -->
<g id="edge2" class="edge">
<title>AppRoutingModule&#45;&gt;AppModule</title>
<path fill="none" stroke="black" d="M1374,-160.91C1374,-160.91 1374,-179.79 1374,-179.79"/>
<polygon fill="black" stroke="black" points="1370.5,-179.79 1374,-189.79 1377.5,-179.79 1370.5,-179.79"/>
</g>
<!-- SharedModule -->
<g id="node4" class="node">
<title>SharedModule</title>
<polygon fill="#8dd3c7" stroke="black" points="1555.43,-160.8 1552.43,-164.8 1531.43,-164.8 1528.43,-160.8 1456.57,-160.8 1456.57,-124.8 1555.43,-124.8 1555.43,-160.8"/>
<text text-anchor="middle" x="1506" y="-138.6" font-family="Times,serif" font-size="14.00">SharedModule</text>
</g>
<!-- SharedModule&#45;&gt;AppModule -->
<g id="edge3" class="edge">
<title>SharedModule&#45;&gt;AppModule</title>
<path fill="none" stroke="black" d="M1527.09,-161.09C1527.09,-183.01 1527.09,-216.8 1527.09,-216.8 1527.09,-216.8 1425.83,-216.8 1425.83,-216.8"/>
<polygon fill="black" stroke="black" points="1425.83,-213.3 1415.83,-216.8 1425.83,-220.3 1425.83,-213.3"/>
</g>
<!-- BlogModule -->
<g id="node8" class="node">
<title>BlogModule</title>
<polygon fill="#8dd3c7" stroke="black" points="1034.28,-225.8 1031.28,-229.8 1010.28,-229.8 1007.28,-225.8 947.72,-225.8 947.72,-189.8 1034.28,-189.8 1034.28,-225.8"/>
<text text-anchor="middle" x="991" y="-203.6" font-family="Times,serif" font-size="14.00">BlogModule</text>
</g>
<!-- SharedModule&#45;&gt;BlogModule -->
<g id="edge8" class="edge">
<title>SharedModule&#45;&gt;BlogModule</title>
<path fill="none" stroke="black" d="M1484.91,-160.86C1484.91,-172.24 1484.91,-184.8 1484.91,-184.8 1484.91,-184.8 1022.13,-184.8 1022.13,-184.8 1022.13,-184.8 1022.13,-185.29 1022.13,-185.29"/>
<polygon fill="black" stroke="black" points="1018.63,-179.68 1022.13,-189.68 1025.63,-179.68 1018.63,-179.68"/>
</g>
<!-- HomeModule -->
<g id="node14" class="node">
<title>HomeModule</title>
<polygon fill="#8dd3c7" stroke="black" points="1942.77,-225.8 1939.77,-229.8 1918.77,-229.8 1915.77,-225.8 1849.23,-225.8 1849.23,-189.8 1942.77,-189.8 1942.77,-225.8"/>
<text text-anchor="middle" x="1896" y="-203.6" font-family="Times,serif" font-size="14.00">HomeModule</text>
</g>
<!-- SharedModule&#45;&gt;HomeModule -->
<g id="edge14" class="edge">
<title>SharedModule&#45;&gt;HomeModule</title>
<path fill="none" stroke="black" d="M1541.15,-160.91C1541.15,-180.14 1541.15,-207.8 1541.15,-207.8 1541.15,-207.8 1838.88,-207.8 1838.88,-207.8"/>
<polygon fill="black" stroke="black" points="1838.88,-211.3 1848.88,-207.8 1838.88,-204.3 1838.88,-211.3"/>
</g>
<!-- LogModule -->
<g id="node18" class="node">
<title>LogModule</title>
<polygon fill="#8dd3c7" stroke="black" points="2517.1,-225.8 2514.1,-229.8 2493.1,-229.8 2490.1,-225.8 2434.9,-225.8 2434.9,-189.8 2517.1,-189.8 2517.1,-225.8"/>
<text text-anchor="middle" x="2476" y="-203.6" font-family="Times,serif" font-size="14.00">LogModule</text>
</g>
<!-- SharedModule&#45;&gt;LogModule -->
<g id="edge18" class="edge">
<title>SharedModule&#45;&gt;LogModule</title>
<path fill="none" stroke="black" d="M1498.97,-161.22C1498.97,-170.08 1498.97,-178.8 1498.97,-178.8 1498.97,-178.8 2444.84,-178.8 2444.84,-178.8 2444.84,-178.8 2444.84,-179.88 2444.84,-179.88"/>
<polygon fill="black" stroke="black" points="2441.34,-179.6 2444.84,-189.6 2448.34,-179.6 2441.34,-179.6"/>
</g>
<!-- AdsComponent  -->
<g id="node31" class="node">
<title>AdsComponent </title>
<polygon fill="#fb8072" stroke="black" points="1164.89,-84.8 1057.11,-84.8 1057.11,-48.8 1164.89,-48.8 1164.89,-84.8"/>
<text text-anchor="middle" x="1111" y="-62.6" font-family="Times,serif" font-size="14.00">AdsComponent </text>
</g>
<!-- SharedModule&#45;&gt;AdsComponent  -->
<g id="edge30" class="edge">
<title>SharedModule&#45;&gt;AdsComponent </title>
<path fill="none" stroke="black" stroke-dasharray="5,2" d="M1491.24,-124.56C1491.24,-117.37 1491.24,-110.8 1491.24,-110.8 1491.24,-110.8 1152.54,-110.8 1152.54,-110.8 1152.54,-110.8 1152.54,-94.95 1152.54,-94.95"/>
<polygon fill="black" stroke="black" points="1156.04,-94.95 1152.54,-84.95 1149.04,-94.95 1156.04,-94.95"/>
</g>
<!-- AdsModalComponent  -->
<g id="node32" class="node">
<title>AdsModalComponent </title>
<polygon fill="#fb8072" stroke="black" points="1038.94,-84.8 895.06,-84.8 895.06,-48.8 1038.94,-48.8 1038.94,-84.8"/>
<text text-anchor="middle" x="967" y="-62.6" font-family="Times,serif" font-size="14.00">AdsModalComponent </text>
</g>
<!-- SharedModule&#45;&gt;AdsModalComponent  -->
<g id="edge31" class="edge">
<title>SharedModule&#45;&gt;AdsModalComponent </title>
<path fill="none" stroke="black" stroke-dasharray="5,2" d="M1486.31,-124.66C1486.31,-118.34 1486.31,-112.8 1486.31,-112.8 1486.31,-112.8 1018.29,-112.8 1018.29,-112.8 1018.29,-112.8 1018.29,-94.98 1018.29,-94.98"/>
<polygon fill="black" stroke="black" points="1021.79,-94.98 1018.29,-84.98 1014.79,-94.98 1021.79,-94.98"/>
</g>
<!-- AmazonAdsComponent  -->
<g id="node33" class="node">
<title>AmazonAdsComponent </title>
<polygon fill="#fb8072" stroke="black" points="877.32,-84.8 722.68,-84.8 722.68,-48.8 877.32,-48.8 877.32,-84.8"/>
<text text-anchor="middle" x="800" y="-62.6" font-family="Times,serif" font-size="14.00">AmazonAdsComponent </text>
</g>
<!-- SharedModule&#45;&gt;AmazonAdsComponent  -->
<g id="edge32" class="edge">
<title>SharedModule&#45;&gt;AmazonAdsComponent </title>
<path fill="none" stroke="black" stroke-dasharray="5,2" d="M1481.39,-124.59C1481.39,-119.25 1481.39,-114.8 1481.39,-114.8 1481.39,-114.8 863.12,-114.8 863.12,-114.8 863.12,-114.8 863.12,-94.95 863.12,-94.95"/>
<polygon fill="black" stroke="black" points="866.62,-94.95 863.12,-84.95 859.62,-94.95 866.62,-94.95"/>
</g>
<!-- LazyImgComponent  -->
<g id="node34" class="node">
<title>LazyImgComponent </title>
<polygon fill="#fb8072" stroke="black" points="704.86,-84.8 569.14,-84.8 569.14,-48.8 704.86,-48.8 704.86,-84.8"/>
<text text-anchor="middle" x="637" y="-62.6" font-family="Times,serif" font-size="14.00">LazyImgComponent </text>
</g>
<!-- SharedModule&#45;&gt;LazyImgComponent  -->
<g id="edge33" class="edge">
<title>SharedModule&#45;&gt;LazyImgComponent </title>
<path fill="none" stroke="black" stroke-dasharray="5,2" d="M1476.47,-124.74C1476.47,-120.31 1476.47,-116.8 1476.47,-116.8 1476.47,-116.8 698.87,-116.8 698.87,-116.8 698.87,-116.8 698.87,-94.85 698.87,-94.85"/>
<polygon fill="black" stroke="black" points="702.37,-94.85 698.87,-84.85 695.37,-94.85 702.37,-94.85"/>
</g>
<!-- LoadingComponent  -->
<g id="node35" class="node">
<title>LoadingComponent </title>
<polygon fill="#fb8072" stroke="black" points="551.99,-84.8 420.01,-84.8 420.01,-48.8 551.99,-48.8 551.99,-84.8"/>
<text text-anchor="middle" x="486" y="-62.6" font-family="Times,serif" font-size="14.00">LoadingComponent </text>
</g>
<!-- SharedModule&#45;&gt;LoadingComponent  -->
<g id="edge34" class="edge">
<title>SharedModule&#45;&gt;LoadingComponent </title>
<path fill="none" stroke="black" stroke-dasharray="5,2" d="M1471.55,-124.61C1471.55,-121.26 1471.55,-118.8 1471.55,-118.8 1471.55,-118.8 486,-118.8 486,-118.8 486,-118.8 486,-94.99 486,-94.99"/>
<polygon fill="black" stroke="black" points="489.5,-94.99 486,-84.99 482.5,-94.99 489.5,-94.99"/>
</g>
<!-- MdescapePipe  -->
<g id="node36" class="node">
<title>MdescapePipe </title>
<polygon fill="#fb8072" stroke="black" points="402.64,-84.8 301.36,-84.8 301.36,-48.8 402.64,-48.8 402.64,-84.8"/>
<text text-anchor="middle" x="352" y="-62.6" font-family="Times,serif" font-size="14.00">MdescapePipe </text>
</g>
<!-- SharedModule&#45;&gt;MdescapePipe  -->
<g id="edge35" class="edge">
<title>SharedModule&#45;&gt;MdescapePipe </title>
<path fill="none" stroke="black" stroke-dasharray="5,2" d="M1466.63,-124.63C1466.63,-122.35 1466.63,-120.8 1466.63,-120.8 1466.63,-120.8 352,-120.8 352,-120.8 352,-120.8 352,-95.08 352,-95.08"/>
<polygon fill="black" stroke="black" points="355.5,-95.08 352,-85.08 348.5,-95.08 355.5,-95.08"/>
</g>
<!-- MessageComponent  -->
<g id="node37" class="node">
<title>MessageComponent </title>
<polygon fill="#fb8072" stroke="black" points="283.82,-84.8 150.18,-84.8 150.18,-48.8 283.82,-48.8 283.82,-84.8"/>
<text text-anchor="middle" x="217" y="-62.6" font-family="Times,serif" font-size="14.00">MessageComponent </text>
</g>
<!-- SharedModule&#45;&gt;MessageComponent  -->
<g id="edge36" class="edge">
<title>SharedModule&#45;&gt;MessageComponent </title>
<path fill="none" stroke="black" stroke-dasharray="5,2" d="M1461.71,-124.65C1461.71,-123.5 1461.71,-122.8 1461.71,-122.8 1461.71,-122.8 217,-122.8 217,-122.8 217,-122.8 217,-94.83 217,-94.83"/>
<polygon fill="black" stroke="black" points="220.5,-94.83 217,-84.83 213.5,-94.83 220.5,-94.83"/>
</g>
<!-- NavComponent  -->
<g id="node38" class="node">
<title>NavComponent </title>
<polygon fill="#fb8072" stroke="black" points="132.16,-84.8 23.84,-84.8 23.84,-48.8 132.16,-48.8 132.16,-84.8"/>
<text text-anchor="middle" x="78" y="-62.6" font-family="Times,serif" font-size="14.00">NavComponent </text>
</g>
<!-- SharedModule&#45;&gt;NavComponent  -->
<g id="edge37" class="edge">
<title>SharedModule&#45;&gt;NavComponent </title>
<path fill="none" stroke="black" stroke-dasharray="5,2" d="M1470.85,-160.94C1470.85,-167.26 1470.85,-172.8 1470.85,-172.8 1470.85,-172.8 78,-172.8 78,-172.8 78,-172.8 78,-95.26 78,-95.26"/>
<polygon fill="black" stroke="black" points="81.5,-95.26 78,-85.26 74.5,-95.26 81.5,-95.26"/>
</g>
<!-- TweetBtnComponent  -->
<g id="node39" class="node">
<title>TweetBtnComponent </title>
<polygon fill="#fb8072" stroke="black" points="1412.04,-84.8 1271.96,-84.8 1271.96,-48.8 1412.04,-48.8 1412.04,-84.8"/>
<text text-anchor="middle" x="1342" y="-62.6" font-family="Times,serif" font-size="14.00">TweetBtnComponent </text>
</g>
<!-- SharedModule&#45;&gt;TweetBtnComponent  -->
<g id="edge38" class="edge">
<title>SharedModule&#45;&gt;TweetBtnComponent </title>
<path fill="none" stroke="black" stroke-dasharray="5,2" d="M1501.08,-124.38C1501.08,-115.52 1501.08,-106.8 1501.08,-106.8 1501.08,-106.8 1360.81,-106.8 1360.81,-106.8 1360.81,-106.8 1360.81,-94.93 1360.81,-94.93"/>
<polygon fill="black" stroke="black" points="1364.31,-94.93 1360.81,-84.93 1357.31,-94.93 1364.31,-94.93"/>
</g>
<!-- YearPipe  -->
<g id="node40" class="node">
<title>YearPipe </title>
<polygon fill="#fb8072" stroke="black" points="1253.59,-84.8 1182.41,-84.8 1182.41,-48.8 1253.59,-48.8 1253.59,-84.8"/>
<text text-anchor="middle" x="1218" y="-62.6" font-family="Times,serif" font-size="14.00">YearPipe </text>
</g>
<!-- SharedModule&#45;&gt;YearPipe  -->
<g id="edge39" class="edge">
<title>SharedModule&#45;&gt;YearPipe </title>
<path fill="none" stroke="black" stroke-dasharray="5,2" d="M1496.16,-124.61C1496.16,-116.52 1496.16,-108.8 1496.16,-108.8 1496.16,-108.8 1218,-108.8 1218,-108.8 1218,-108.8 1218,-94.86 1218,-94.86"/>
<polygon fill="black" stroke="black" points="1221.5,-94.86 1218,-84.86 1214.5,-94.86 1221.5,-94.86"/>
</g>
<!-- ToolsModule -->
<g id="node52" class="node">
<title>ToolsModule</title>
<polygon fill="#8dd3c7" stroke="black" points="3766.94,-225.8 3763.94,-229.8 3742.94,-229.8 3739.94,-225.8 3675.06,-225.8 3675.06,-189.8 3766.94,-189.8 3766.94,-225.8"/>
<text text-anchor="middle" x="3721" y="-203.6" font-family="Times,serif" font-size="14.00">ToolsModule</text>
</g>
<!-- SharedModule&#45;&gt;ToolsModule -->
<g id="edge51" class="edge">
<title>SharedModule&#45;&gt;ToolsModule</title>
<path fill="none" stroke="black" d="M1513.03,-160.99C1513.03,-164.34 1513.03,-166.8 1513.03,-166.8 1513.03,-166.8 3705.76,-166.8 3705.76,-166.8 3705.76,-166.8 3705.76,-179.7 3705.76,-179.7"/>
<polygon fill="black" stroke="black" points="3702.26,-179.7 3705.76,-189.7 3709.26,-179.7 3702.26,-179.7"/>
</g>
<!-- BlogDetailComponent -->
<g id="node6" class="node">
<title>BlogDetailComponent</title>
<polygon fill="#ffffb3" stroke="black" points="1140.27,-160.8 997.73,-160.8 997.73,-124.8 1140.27,-124.8 1140.27,-160.8"/>
<text text-anchor="middle" x="1069" y="-138.6" font-family="Times,serif" font-size="14.00">BlogDetailComponent</text>
</g>
<!-- BlogDetailComponent&#45;&gt;BlogModule -->
<g id="edge5" class="edge">
<title>BlogDetailComponent&#45;&gt;BlogModule</title>
<path fill="none" stroke="black" d="M1009.87,-160.91C1009.87,-160.91 1009.87,-179.79 1009.87,-179.79"/>
<polygon fill="black" stroke="black" points="1006.37,-179.79 1009.87,-189.79 1013.37,-179.79 1006.37,-179.79"/>
</g>
<!-- BlogListComponent -->
<g id="node7" class="node">
<title>BlogListComponent</title>
<polygon fill="#ffffb3" stroke="black" points="979.34,-160.8 848.66,-160.8 848.66,-124.8 979.34,-124.8 979.34,-160.8"/>
<text text-anchor="middle" x="914" y="-138.6" font-family="Times,serif" font-size="14.00">BlogListComponent</text>
</g>
<!-- BlogListComponent&#45;&gt;BlogModule -->
<g id="edge6" class="edge">
<title>BlogListComponent&#45;&gt;BlogModule</title>
<path fill="none" stroke="black" d="M963.39,-160.91C963.39,-160.91 963.39,-179.79 963.39,-179.79"/>
<polygon fill="black" stroke="black" points="959.89,-179.79 963.39,-189.79 966.89,-179.79 959.89,-179.79"/>
</g>
<!-- BlogRoutingModule -->
<g id="node9" class="node">
<title>BlogRoutingModule</title>
<polygon fill="#8dd3c7" stroke="black" points="824.9,-160.8 821.9,-164.8 800.9,-164.8 797.9,-160.8 693.1,-160.8 693.1,-124.8 824.9,-124.8 824.9,-160.8"/>
<text text-anchor="middle" x="759" y="-138.6" font-family="Times,serif" font-size="14.00">BlogRoutingModule</text>
</g>
<!-- BlogRoutingModule&#45;&gt;BlogModule -->
<g id="edge7" class="edge">
<title>BlogRoutingModule&#45;&gt;BlogModule</title>
<path fill="none" stroke="black" d="M759,-160.91C759,-180.14 759,-207.8 759,-207.8 759,-207.8 937.63,-207.8 937.63,-207.8"/>
<polygon fill="black" stroke="black" points="937.63,-211.3 947.63,-207.8 937.63,-204.3 937.63,-211.3"/>
</g>
<!-- ContactComponent -->
<g id="node10" class="node">
<title>ContactComponent</title>
<polygon fill="#ffffb3" stroke="black" points="2297.38,-160.8 2172.62,-160.8 2172.62,-124.8 2297.38,-124.8 2297.38,-160.8"/>
<text text-anchor="middle" x="2235" y="-138.6" font-family="Times,serif" font-size="14.00">ContactComponent</text>
</g>
<!-- ContactComponent&#45;&gt;HomeModule -->
<g id="edge9" class="edge">
<title>ContactComponent&#45;&gt;HomeModule</title>
<path fill="none" stroke="black" d="M2235,-161.08C2235,-182.12 2235,-213.8 2235,-213.8 2235,-213.8 1952.78,-213.8 1952.78,-213.8"/>
<polygon fill="black" stroke="black" points="1952.78,-210.3 1942.78,-213.8 1952.78,-217.3 1952.78,-210.3"/>
</g>
<!-- IndexComponent -->
<g id="node11" class="node">
<title>IndexComponent</title>
<polygon fill="#ffffb3" stroke="black" points="2154.71,-160.8 2041.29,-160.8 2041.29,-124.8 2154.71,-124.8 2154.71,-160.8"/>
<text text-anchor="middle" x="2098" y="-138.6" font-family="Times,serif" font-size="14.00">IndexComponent</text>
</g>
<!-- IndexComponent&#45;&gt;HomeModule -->
<g id="edge10" class="edge">
<title>IndexComponent&#45;&gt;HomeModule</title>
<path fill="none" stroke="black" d="M2098,-160.82C2098,-178.17 2098,-201.8 2098,-201.8 2098,-201.8 1952.85,-201.8 1952.85,-201.8"/>
<polygon fill="black" stroke="black" points="1952.85,-198.3 1942.85,-201.8 1952.85,-205.3 1952.85,-198.3"/>
</g>
<!-- NewsComponent -->
<g id="node12" class="node">
<title>NewsComponent</title>
<polygon fill="#ffffb3" stroke="black" points="2023.71,-160.8 1910.29,-160.8 1910.29,-124.8 2023.71,-124.8 2023.71,-160.8"/>
<text text-anchor="middle" x="1967" y="-138.6" font-family="Times,serif" font-size="14.00">NewsComponent</text>
</g>
<!-- NewsComponent&#45;&gt;HomeModule -->
<g id="edge11" class="edge">
<title>NewsComponent&#45;&gt;HomeModule</title>
<path fill="none" stroke="black" d="M1926.64,-160.91C1926.64,-160.91 1926.64,-179.79 1926.64,-179.79"/>
<polygon fill="black" stroke="black" points="1923.14,-179.79 1926.64,-189.79 1930.14,-179.79 1923.14,-179.79"/>
</g>
<!-- ToolsListComponent -->
<g id="node13" class="node">
<title>ToolsListComponent</title>
<polygon fill="#ffffb3" stroke="black" points="1892.5,-160.8 1757.5,-160.8 1757.5,-124.8 1892.5,-124.8 1892.5,-160.8"/>
<text text-anchor="middle" x="1825" y="-138.6" font-family="Times,serif" font-size="14.00">ToolsListComponent</text>
</g>
<!-- ToolsListComponent&#45;&gt;HomeModule -->
<g id="edge12" class="edge">
<title>ToolsListComponent&#45;&gt;HomeModule</title>
<path fill="none" stroke="black" d="M1870.81,-160.91C1870.81,-160.91 1870.81,-179.79 1870.81,-179.79"/>
<polygon fill="black" stroke="black" points="1867.31,-179.79 1870.81,-189.79 1874.31,-179.79 1867.31,-179.79"/>
</g>
<!-- HomeRoutingModule -->
<g id="node15" class="node">
<title>HomeRoutingModule</title>
<polygon fill="#8dd3c7" stroke="black" points="1733.38,-160.8 1730.38,-164.8 1709.38,-164.8 1706.38,-160.8 1594.62,-160.8 1594.62,-124.8 1733.38,-124.8 1733.38,-160.8"/>
<text text-anchor="middle" x="1664" y="-138.6" font-family="Times,serif" font-size="14.00">HomeRoutingModule</text>
</g>
<!-- HomeRoutingModule&#45;&gt;HomeModule -->
<g id="edge13" class="edge">
<title>HomeRoutingModule&#45;&gt;HomeModule</title>
<path fill="none" stroke="black" d="M1664,-160.83C1664,-177.2 1664,-198.8 1664,-198.8 1664,-198.8 1839.05,-198.8 1839.05,-198.8"/>
<polygon fill="black" stroke="black" points="1839.05,-202.3 1849.05,-198.8 1839.05,-195.3 1839.05,-202.3"/>
</g>
<!-- LogDetailComponent -->
<g id="node16" class="node">
<title>LogDetailComponent</title>
<polygon fill="#ffffb3" stroke="black" points="2771.09,-160.8 2632.91,-160.8 2632.91,-124.8 2771.09,-124.8 2771.09,-160.8"/>
<text text-anchor="middle" x="2702" y="-138.6" font-family="Times,serif" font-size="14.00">LogDetailComponent</text>
</g>
<!-- LogDetailComponent&#45;&gt;LogModule -->
<g id="edge15" class="edge">
<title>LogDetailComponent&#45;&gt;LogModule</title>
<path fill="none" stroke="black" d="M2702,-161.04C2702,-176.37 2702,-195.8 2702,-195.8 2702,-195.8 2527.19,-195.8 2527.19,-195.8"/>
<polygon fill="black" stroke="black" points="2527.19,-192.3 2517.19,-195.8 2527.19,-199.3 2527.19,-192.3"/>
</g>
<!-- LogListComponent -->
<g id="node17" class="node">
<title>LogListComponent</title>
<polygon fill="#ffffb3" stroke="black" points="2614.66,-160.8 2489.34,-160.8 2489.34,-124.8 2614.66,-124.8 2614.66,-160.8"/>
<text text-anchor="middle" x="2552" y="-138.6" font-family="Times,serif" font-size="14.00">LogListComponent</text>
</g>
<!-- LogListComponent&#45;&gt;LogModule -->
<g id="edge16" class="edge">
<title>LogListComponent&#45;&gt;LogModule</title>
<path fill="none" stroke="black" d="M2503.11,-160.91C2503.11,-160.91 2503.11,-179.79 2503.11,-179.79"/>
<polygon fill="black" stroke="black" points="2499.61,-179.79 2503.11,-189.79 2506.61,-179.79 2499.61,-179.79"/>
</g>
<!-- LogRoutingModule -->
<g id="node19" class="node">
<title>LogRoutingModule</title>
<polygon fill="#8dd3c7" stroke="black" points="2464.72,-160.8 2461.72,-164.8 2440.72,-164.8 2437.72,-160.8 2337.28,-160.8 2337.28,-124.8 2464.72,-124.8 2464.72,-160.8"/>
<text text-anchor="middle" x="2401" y="-138.6" font-family="Times,serif" font-size="14.00">LogRoutingModule</text>
</g>
<!-- LogRoutingModule&#45;&gt;LogModule -->
<g id="edge17" class="edge">
<title>LogRoutingModule&#45;&gt;LogModule</title>
<path fill="none" stroke="black" d="M2454.72,-160.91C2454.72,-160.91 2454.72,-179.79 2454.72,-179.79"/>
<polygon fill="black" stroke="black" points="2451.22,-179.79 2454.72,-189.79 2458.22,-179.79 2451.22,-179.79"/>
</g>
<!-- AdsComponent -->
<g id="node20" class="node">
<title>AdsComponent</title>
<polygon fill="#ffffb3" stroke="black" points="1697.89,-84.8 1594.11,-84.8 1594.11,-48.8 1697.89,-48.8 1697.89,-84.8"/>
<text text-anchor="middle" x="1646" y="-62.6" font-family="Times,serif" font-size="14.00">AdsComponent</text>
</g>
<!-- AdsComponent&#45;&gt;SharedModule -->
<g id="edge19" class="edge">
<title>AdsComponent&#45;&gt;SharedModule</title>
<path fill="none" stroke="black" d="M1593.86,-66.8C1588.59,-66.8 1585.14,-66.8 1585.14,-66.8 1585.14,-66.8 1585.14,-142.8 1585.14,-142.8 1585.14,-142.8 1565.22,-142.8 1565.22,-142.8"/>
<polygon fill="black" stroke="black" points="1565.22,-139.3 1555.22,-142.8 1565.22,-146.3 1565.22,-139.3"/>
</g>
<!-- AdsModalComponent -->
<g id="node21" class="node">
<title>AdsModalComponent</title>
<polygon fill="#ffffb3" stroke="black" points="1576.44,-84.8 1435.56,-84.8 1435.56,-48.8 1576.44,-48.8 1576.44,-84.8"/>
<text text-anchor="middle" x="1506" y="-62.6" font-family="Times,serif" font-size="14.00">AdsModalComponent</text>
</g>
<!-- AdsModalComponent&#45;&gt;SharedModule -->
<g id="edge20" class="edge">
<title>AdsModalComponent&#45;&gt;SharedModule</title>
<path fill="none" stroke="black" d="M1506,-84.81C1506,-84.81 1506,-114.65 1506,-114.65"/>
<polygon fill="black" stroke="black" points="1502.5,-114.65 1506,-124.65 1509.5,-114.65 1502.5,-114.65"/>
</g>
<!-- AmazonAdsComponent -->
<g id="node22" class="node">
<title>AmazonAdsComponent</title>
<polygon fill="#ffffb3" stroke="black" points="2927.82,-84.8 2776.18,-84.8 2776.18,-48.8 2927.82,-48.8 2927.82,-84.8"/>
<text text-anchor="middle" x="2852" y="-62.6" font-family="Times,serif" font-size="14.00">AmazonAdsComponent</text>
</g>
<!-- AmazonAdsComponent&#45;&gt;SharedModule -->
<g id="edge21" class="edge">
<title>AmazonAdsComponent&#45;&gt;SharedModule</title>
<path fill="none" stroke="black" d="M2793.53,-84.87C2793.53,-94.26 2793.53,-103.8 2793.53,-103.8 2793.53,-103.8 1550.29,-103.8 1550.29,-103.8 1550.29,-103.8 1550.29,-114.67 1550.29,-114.67"/>
<polygon fill="black" stroke="black" points="1546.79,-114.67 1550.29,-124.67 1553.79,-114.67 1546.79,-114.67"/>
</g>
<!-- LazyImgComponent -->
<g id="node23" class="node">
<title>LazyImgComponent</title>
<polygon fill="#ffffb3" stroke="black" points="2757.86,-84.8 2626.14,-84.8 2626.14,-48.8 2757.86,-48.8 2757.86,-84.8"/>
<text text-anchor="middle" x="2692" y="-62.6" font-family="Times,serif" font-size="14.00">LazyImgComponent</text>
</g>
<!-- LazyImgComponent&#45;&gt;SharedModule -->
<g id="edge22" class="edge">
<title>LazyImgComponent&#45;&gt;SharedModule</title>
<path fill="none" stroke="black" d="M2695.44,-85.12C2695.44,-93.59 2695.44,-101.8 2695.44,-101.8 2695.44,-101.8 1545.37,-101.8 1545.37,-101.8 1545.37,-101.8 1545.37,-114.7 1545.37,-114.7"/>
<polygon fill="black" stroke="black" points="1541.87,-114.7 1545.37,-124.7 1548.87,-114.7 1541.87,-114.7"/>
</g>
<!-- LoadingComponent -->
<g id="node24" class="node">
<title>LoadingComponent</title>
<polygon fill="#ffffb3" stroke="black" points="2607.99,-84.8 2480.01,-84.8 2480.01,-48.8 2607.99,-48.8 2607.99,-84.8"/>
<text text-anchor="middle" x="2544" y="-62.6" font-family="Times,serif" font-size="14.00">LoadingComponent</text>
</g>
<!-- LoadingComponent&#45;&gt;SharedModule -->
<g id="edge23" class="edge">
<title>LoadingComponent&#45;&gt;SharedModule</title>
<path fill="none" stroke="black" d="M2484.59,-84.84C2484.59,-92.55 2484.59,-99.8 2484.59,-99.8 2484.59,-99.8 1540.45,-99.8 1540.45,-99.8 1540.45,-99.8 1540.45,-114.31 1540.45,-114.31"/>
<polygon fill="black" stroke="black" points="1536.95,-114.31 1540.45,-124.31 1543.95,-114.31 1536.95,-114.31"/>
</g>
<!-- MdescapePipe -->
<g id="node25" class="node">
<title>MdescapePipe</title>
<polygon fill="#ffffb3" stroke="black" points="2461.64,-84.8 2364.36,-84.8 2364.36,-48.8 2461.64,-48.8 2461.64,-84.8"/>
<text text-anchor="middle" x="2413" y="-62.6" font-family="Times,serif" font-size="14.00">MdescapePipe</text>
</g>
<!-- MdescapePipe&#45;&gt;SharedModule -->
<g id="edge24" class="edge">
<title>MdescapePipe&#45;&gt;SharedModule</title>
<path fill="none" stroke="black" d="M2413,-84.83C2413,-91.65 2413,-97.8 2413,-97.8 2413,-97.8 1535.53,-97.8 1535.53,-97.8 1535.53,-97.8 1535.53,-114.76 1535.53,-114.76"/>
<polygon fill="black" stroke="black" points="1532.03,-114.76 1535.53,-124.76 1539.03,-114.76 1532.03,-114.76"/>
</g>
<!-- MessageComponent -->
<g id="node26" class="node">
<title>MessageComponent</title>
<polygon fill="#ffffb3" stroke="black" points="2346.32,-84.8 2215.68,-84.8 2215.68,-48.8 2346.32,-48.8 2346.32,-84.8"/>
<text text-anchor="middle" x="2281" y="-62.6" font-family="Times,serif" font-size="14.00">MessageComponent</text>
</g>
<!-- MessageComponent&#45;&gt;SharedModule -->
<g id="edge25" class="edge">
<title>MessageComponent&#45;&gt;SharedModule</title>
<path fill="none" stroke="black" d="M2256.64,-85C2256.64,-90.83 2256.64,-95.8 2256.64,-95.8 2256.64,-95.8 1530.61,-95.8 1530.61,-95.8 1530.61,-95.8 1530.61,-114.76 1530.61,-114.76"/>
<polygon fill="black" stroke="black" points="1527.11,-114.76 1530.61,-124.76 1534.11,-114.76 1527.11,-114.76"/>
</g>
<!-- NavComponent -->
<g id="node27" class="node">
<title>NavComponent</title>
<polygon fill="#ffffb3" stroke="black" points="2198.16,-84.8 2093.84,-84.8 2093.84,-48.8 2198.16,-48.8 2198.16,-84.8"/>
<text text-anchor="middle" x="2146" y="-62.6" font-family="Times,serif" font-size="14.00">NavComponent</text>
</g>
<!-- NavComponent&#45;&gt;SharedModule -->
<g id="edge26" class="edge">
<title>NavComponent&#45;&gt;SharedModule</title>
<path fill="none" stroke="black" d="M2124.14,-84.96C2124.14,-89.84 2124.14,-93.8 2124.14,-93.8 2124.14,-93.8 1525.69,-93.8 1525.69,-93.8 1525.69,-93.8 1525.69,-114.55 1525.69,-114.55"/>
<polygon fill="black" stroke="black" points="1522.19,-114.55 1525.69,-124.55 1529.19,-114.55 1522.19,-114.55"/>
</g>
<!-- ProfileComponent -->
<g id="node28" class="node">
<title>ProfileComponent</title>
<polygon fill="#ffffb3" stroke="black" points="2075.94,-84.8 1956.06,-84.8 1956.06,-48.8 2075.94,-48.8 2075.94,-84.8"/>
<text text-anchor="middle" x="2016" y="-62.6" font-family="Times,serif" font-size="14.00">ProfileComponent</text>
</g>
<!-- ProfileComponent&#45;&gt;SharedModule -->
<g id="edge27" class="edge">
<title>ProfileComponent&#45;&gt;SharedModule</title>
<path fill="none" stroke="black" d="M1989.94,-84.97C1989.94,-88.85 1989.94,-91.8 1989.94,-91.8 1989.94,-91.8 1520.76,-91.8 1520.76,-91.8 1520.76,-91.8 1520.76,-114.68 1520.76,-114.68"/>
<polygon fill="black" stroke="black" points="1517.26,-114.68 1520.76,-124.68 1524.26,-114.68 1517.26,-114.68"/>
</g>
<!-- TweetBtnComponent -->
<g id="node29" class="node">
<title>TweetBtnComponent</title>
<polygon fill="#ffffb3" stroke="black" points="1938.04,-84.8 1801.96,-84.8 1801.96,-48.8 1938.04,-48.8 1938.04,-84.8"/>
<text text-anchor="middle" x="1870" y="-62.6" font-family="Times,serif" font-size="14.00">TweetBtnComponent</text>
</g>
<!-- TweetBtnComponent&#45;&gt;SharedModule -->
<g id="edge28" class="edge">
<title>TweetBtnComponent&#45;&gt;SharedModule</title>
<path fill="none" stroke="black" d="M1847.12,-84.92C1847.12,-87.77 1847.12,-89.8 1847.12,-89.8 1847.12,-89.8 1515.84,-89.8 1515.84,-89.8 1515.84,-89.8 1515.84,-114.56 1515.84,-114.56"/>
<polygon fill="black" stroke="black" points="1512.34,-114.56 1515.84,-124.56 1519.34,-114.56 1512.34,-114.56"/>
</g>
<!-- YearPipe -->
<g id="node30" class="node">
<title>YearPipe</title>
<polygon fill="#ffffb3" stroke="black" points="1784.09,-84.8 1715.91,-84.8 1715.91,-48.8 1784.09,-48.8 1784.09,-84.8"/>
<text text-anchor="middle" x="1750" y="-62.6" font-family="Times,serif" font-size="14.00">YearPipe</text>
</g>
<!-- YearPipe&#45;&gt;SharedModule -->
<g id="edge29" class="edge">
<title>YearPipe&#45;&gt;SharedModule</title>
<path fill="none" stroke="black" d="M1724.7,-84.88C1724.7,-86.65 1724.7,-87.8 1724.7,-87.8 1724.7,-87.8 1510.92,-87.8 1510.92,-87.8 1510.92,-87.8 1510.92,-114.79 1510.92,-114.79"/>
<polygon fill="black" stroke="black" points="1507.42,-114.79 1510.92,-124.79 1514.42,-114.79 1507.42,-114.79"/>
</g>
<!-- AmazonAssociateComponent -->
<g id="node41" class="node">
<title>AmazonAssociateComponent</title>
<polygon fill="#ffffb3" stroke="black" points="3474.69,-160.8 3291.31,-160.8 3291.31,-124.8 3474.69,-124.8 3474.69,-160.8"/>
<text text-anchor="middle" x="3383" y="-138.6" font-family="Times,serif" font-size="14.00">AmazonAssociateComponent</text>
</g>
<!-- AmazonAssociateComponent&#45;&gt;ToolsModule -->
<g id="edge40" class="edge">
<title>AmazonAssociateComponent&#45;&gt;ToolsModule</title>
<path fill="none" stroke="black" d="M3383,-161.02C3383,-179.63 3383,-205.8 3383,-205.8 3383,-205.8 3665.06,-205.8 3665.06,-205.8"/>
<polygon fill="black" stroke="black" points="3665.06,-209.3 3675.06,-205.8 3665.06,-202.3 3665.06,-209.3"/>
</g>
<!-- Base64Component -->
<g id="node42" class="node">
<title>Base64Component</title>
<polygon fill="#ffffb3" stroke="black" points="3273.05,-160.8 3150.95,-160.8 3150.95,-124.8 3273.05,-124.8 3273.05,-160.8"/>
<text text-anchor="middle" x="3212" y="-138.6" font-family="Times,serif" font-size="14.00">Base64Component</text>
</g>
<!-- Base64Component&#45;&gt;ToolsModule -->
<g id="edge41" class="edge">
<title>Base64Component&#45;&gt;ToolsModule</title>
<path fill="none" stroke="black" d="M3212,-161.02C3212,-181.17 3212,-210.8 3212,-210.8 3212,-210.8 3664.93,-210.8 3664.93,-210.8"/>
<polygon fill="black" stroke="black" points="3664.93,-214.3 3674.93,-210.8 3664.93,-207.3 3664.93,-214.3"/>
</g>
<!-- JsonFormatterComponent -->
<g id="node43" class="node">
<title>JsonFormatterComponent</title>
<polygon fill="#ffffb3" stroke="black" points="3132.94,-160.8 2971.06,-160.8 2971.06,-124.8 3132.94,-124.8 3132.94,-160.8"/>
<text text-anchor="middle" x="3052" y="-138.6" font-family="Times,serif" font-size="14.00">JsonFormatterComponent</text>
</g>
<!-- JsonFormatterComponent&#45;&gt;ToolsModule -->
<g id="edge42" class="edge">
<title>JsonFormatterComponent&#45;&gt;ToolsModule</title>
<path fill="none" stroke="black" d="M3052,-160.84C3052,-182.46 3052,-215.8 3052,-215.8 3052,-215.8 3665.02,-215.8 3665.02,-215.8"/>
<polygon fill="black" stroke="black" points="3665.02,-219.3 3675.02,-215.8 3665.02,-212.3 3665.02,-219.3"/>
</g>
<!-- JsonTyperComponent -->
<g id="node44" class="node">
<title>JsonTyperComponent</title>
<polygon fill="#ffffb3" stroke="black" points="4677.66,-160.8 4538.34,-160.8 4538.34,-124.8 4677.66,-124.8 4677.66,-160.8"/>
<text text-anchor="middle" x="4608" y="-138.6" font-family="Times,serif" font-size="14.00">JsonTyperComponent</text>
</g>
<!-- JsonTyperComponent&#45;&gt;ToolsModule -->
<g id="edge43" class="edge">
<title>JsonTyperComponent&#45;&gt;ToolsModule</title>
<path fill="none" stroke="black" d="M4608,-160.89C4608,-183.93 4608,-220.8 4608,-220.8 4608,-220.8 3776.82,-220.8 3776.82,-220.8"/>
<polygon fill="black" stroke="black" points="3776.82,-217.3 3766.82,-220.8 3776.82,-224.3 3776.82,-217.3"/>
</g>
<!-- MdwriterComponent -->
<g id="node45" class="node">
<title>MdwriterComponent</title>
<polygon fill="#ffffb3" stroke="black" points="4520.21,-160.8 4385.79,-160.8 4385.79,-124.8 4520.21,-124.8 4520.21,-160.8"/>
<text text-anchor="middle" x="4453" y="-138.6" font-family="Times,serif" font-size="14.00">MdwriterComponent</text>
</g>
<!-- MdwriterComponent&#45;&gt;ToolsModule -->
<g id="edge44" class="edge">
<title>MdwriterComponent&#45;&gt;ToolsModule</title>
<path fill="none" stroke="black" d="M4453,-160.84C4453,-182.46 4453,-215.8 4453,-215.8 4453,-215.8 3776.79,-215.8 3776.79,-215.8"/>
<polygon fill="black" stroke="black" points="3776.79,-212.3 3766.79,-215.8 3776.79,-219.3 3776.79,-212.3"/>
</g>
<!-- MermaidComponent -->
<g id="node46" class="node">
<title>MermaidComponent</title>
<polygon fill="#ffffb3" stroke="black" points="4368.15,-160.8 4235.85,-160.8 4235.85,-124.8 4368.15,-124.8 4368.15,-160.8"/>
<text text-anchor="middle" x="4302" y="-138.6" font-family="Times,serif" font-size="14.00">MermaidComponent</text>
</g>
<!-- MermaidComponent&#45;&gt;ToolsModule -->
<g id="edge45" class="edge">
<title>MermaidComponent&#45;&gt;ToolsModule</title>
<path fill="none" stroke="black" d="M4302,-161.02C4302,-181.17 4302,-210.8 4302,-210.8 4302,-210.8 3777.08,-210.8 3777.08,-210.8"/>
<polygon fill="black" stroke="black" points="3777.08,-207.3 3767.08,-210.8 3777.08,-214.3 3777.08,-207.3"/>
</g>
<!-- OpenapiComponent -->
<g id="node47" class="node">
<title>OpenapiComponent</title>
<polygon fill="#ffffb3" stroke="black" points="4217.26,-160.8 4088.74,-160.8 4088.74,-124.8 4217.26,-124.8 4217.26,-160.8"/>
<text text-anchor="middle" x="4153" y="-138.6" font-family="Times,serif" font-size="14.00">OpenapiComponent</text>
</g>
<!-- OpenapiComponent&#45;&gt;ToolsModule -->
<g id="edge46" class="edge">
<title>OpenapiComponent&#45;&gt;ToolsModule</title>
<path fill="none" stroke="black" d="M4153,-161.02C4153,-179.63 4153,-205.8 4153,-205.8 4153,-205.8 3776.82,-205.8 3776.82,-205.8"/>
<polygon fill="black" stroke="black" points="3776.82,-202.3 3766.82,-205.8 3776.82,-209.3 3776.82,-202.3"/>
</g>
<!-- RealtimeComponent -->
<g id="node48" class="node">
<title>RealtimeComponent</title>
<polygon fill="#ffffb3" stroke="black" points="4070.87,-160.8 3939.13,-160.8 3939.13,-124.8 4070.87,-124.8 4070.87,-160.8"/>
<text text-anchor="middle" x="4005" y="-138.6" font-family="Times,serif" font-size="14.00">RealtimeComponent</text>
</g>
<!-- RealtimeComponent&#45;&gt;ToolsModule -->
<g id="edge47" class="edge">
<title>RealtimeComponent&#45;&gt;ToolsModule</title>
<path fill="none" stroke="black" d="M4005,-160.83C4005,-177.86 4005,-200.8 4005,-200.8 4005,-200.8 3776.95,-200.8 3776.95,-200.8"/>
<polygon fill="black" stroke="black" points="3776.95,-197.3 3766.95,-200.8 3776.95,-204.3 3776.95,-197.3"/>
</g>
<!-- RegexComponent -->
<g id="node49" class="node">
<title>RegexComponent</title>
<polygon fill="#ffffb3" stroke="black" points="3921.6,-160.8 3804.4,-160.8 3804.4,-124.8 3921.6,-124.8 3921.6,-160.8"/>
<text text-anchor="middle" x="3863" y="-138.6" font-family="Times,serif" font-size="14.00">RegexComponent</text>
</g>
<!-- RegexComponent&#45;&gt;ToolsModule -->
<g id="edge48" class="edge">
<title>RegexComponent&#45;&gt;ToolsModule</title>
<path fill="none" stroke="black" d="M3863,-161.04C3863,-176.37 3863,-195.8 3863,-195.8 3863,-195.8 3777.1,-195.8 3777.1,-195.8"/>
<polygon fill="black" stroke="black" points="3777.1,-192.3 3767.1,-195.8 3777.1,-199.3 3777.1,-192.3"/>
</g>
<!-- UserInfoComponent -->
<g id="node50" class="node">
<title>UserInfoComponent</title>
<polygon fill="#ffffb3" stroke="black" points="3786.59,-160.8 3655.41,-160.8 3655.41,-124.8 3786.59,-124.8 3786.59,-160.8"/>
<text text-anchor="middle" x="3721" y="-138.6" font-family="Times,serif" font-size="14.00">UserInfoComponent</text>
</g>
<!-- UserInfoComponent&#45;&gt;ToolsModule -->
<g id="edge49" class="edge">
<title>UserInfoComponent&#45;&gt;ToolsModule</title>
<path fill="none" stroke="black" d="M3736.24,-160.91C3736.24,-160.91 3736.24,-179.79 3736.24,-179.79"/>
<polygon fill="black" stroke="black" points="3732.74,-179.79 3736.24,-189.79 3739.74,-179.79 3732.74,-179.79"/>
</g>
<!-- YearCheckComponent -->
<g id="node51" class="node">
<title>YearCheckComponent</title>
<polygon fill="#ffffb3" stroke="black" points="3637.3,-160.8 3492.7,-160.8 3492.7,-124.8 3637.3,-124.8 3637.3,-160.8"/>
<text text-anchor="middle" x="3565" y="-138.6" font-family="Times,serif" font-size="14.00">YearCheckComponent</text>
</g>
<!-- YearCheckComponent&#45;&gt;ToolsModule -->
<g id="edge50" class="edge">
<title>YearCheckComponent&#45;&gt;ToolsModule</title>
<path fill="none" stroke="black" d="M3565,-160.83C3565,-177.86 3565,-200.8 3565,-200.8 3565,-200.8 3665.04,-200.8 3665.04,-200.8"/>
<polygon fill="black" stroke="black" points="3665.04,-204.3 3675.04,-200.8 3665.04,-197.3 3665.04,-204.3"/>
</g>
<!-- ToolsRoutingModule -->
<g id="node53" class="node">
<title>ToolsRoutingModule</title>
<polygon fill="#8dd3c7" stroke="black" points="2947.06,-160.8 2944.06,-164.8 2923.06,-164.8 2920.06,-160.8 2810.94,-160.8 2810.94,-124.8 2947.06,-124.8 2947.06,-160.8"/>
<text text-anchor="middle" x="2879" y="-138.6" font-family="Times,serif" font-size="14.00">ToolsRoutingModule</text>
</g>
<!-- ToolsRoutingModule&#45;&gt;ToolsModule -->
<g id="edge52" class="edge">
<title>ToolsRoutingModule&#45;&gt;ToolsModule</title>
<path fill="none" stroke="black" d="M2879,-160.89C2879,-183.93 2879,-220.8 2879,-220.8 2879,-220.8 3665.13,-220.8 3665.13,-220.8"/>
<polygon fill="black" stroke="black" points="3665.13,-224.3 3675.13,-220.8 3665.13,-217.3 3665.13,-224.3"/>
</g>
</g>
</svg>
