<?xml version="1.0" encoding="UTF-8" standalone="no"?>
<!DOCTYPE svg PUBLIC "-//W3C//DTD SVG 1.1//EN"
 "http://www.w3.org/Graphics/SVG/1.1/DTD/svg11.dtd">
<!-- Generated by graphviz version 2.47.3 (20210619.1520)
 -->
<!-- Title: dependencies Pages: 1 -->
<svg width="3656pt" height="253pt"
 viewBox="0.00 0.00 3656.00 252.80" xmlns="http://www.w3.org/2000/svg" xmlns:xlink="http://www.w3.org/1999/xlink">
<g id="graph0" class="graph" transform="scale(1 1) rotate(0) translate(4 248.8)">
<title>dependencies</title>
<polygon fill="white" stroke="transparent" points="-4,4 -4,-248.8 3652,-248.8 3652,4 -4,4"/>
<text text-anchor="middle" x="1824" y="-8.2" font-family="sans-serif" font-size="14.00">dependencies</text>
<g id="clust1" class="cluster">
<title>cluster_AppModule</title>
<polygon fill="none" stroke="black" stroke-dasharray="1,5" points="1193,-32.8 1193,-236.8 1600,-236.8 1600,-32.8 1193,-32.8"/>
</g>
<g id="clust2" class="cluster">
<title>cluster_AppModule_declarations</title>
<polygon fill="none" stroke="black" points="1470,-40.8 1470,-92.8 1592,-92.8 1592,-40.8 1470,-40.8"/>
</g>
<g id="clust4" class="cluster">
<title>cluster_AppModule_imports</title>
<polygon fill="none" stroke="black" points="1201,-40.8 1201,-92.8 1462,-92.8 1462,-40.8 1201,-40.8"/>
</g>
<g id="clust6" class="cluster">
<title>cluster_AppModule_bootstrap</title>
<polygon fill="none" stroke="black" points="1328,-176.8 1328,-228.8 1452,-228.8 1452,-176.8 1328,-176.8"/>
</g>
<g id="clust14" class="cluster">
<title>cluster_BlogModule</title>
<polygon fill="none" stroke="black" stroke-dasharray="1,5" points="1608,-32.8 1608,-160.8 2087,-160.8 2087,-32.8 1608,-32.8"/>
</g>
<g id="clust15" class="cluster">
<title>cluster_BlogModule_declarations</title>
<polygon fill="none" stroke="black" points="1772,-40.8 1772,-92.8 2079,-92.8 2079,-40.8 1772,-40.8"/>
</g>
<g id="clust18" class="cluster">
<title>cluster_BlogModule_imports</title>
<polygon fill="none" stroke="black" points="1616,-40.8 1616,-92.8 1764,-92.8 1764,-40.8 1616,-40.8"/>
</g>
<g id="clust28" class="cluster">
<title>cluster_HomeModule</title>
<polygon fill="none" stroke="black" stroke-dasharray="1,5" points="3053,-32.8 3053,-160.8 3640,-160.8 3640,-32.8 3053,-32.8"/>
</g>
<g id="clust29" class="cluster">
<title>cluster_HomeModule_declarations</title>
<polygon fill="none" stroke="black" points="3223,-40.8 3223,-92.8 3632,-92.8 3632,-40.8 3223,-40.8"/>
</g>
<g id="clust33" class="cluster">
<title>cluster_HomeModule_imports</title>
<polygon fill="none" stroke="black" points="3061,-40.8 3061,-92.8 3215,-92.8 3215,-40.8 3061,-40.8"/>
</g>
<g id="clust43" class="cluster">
<title>cluster_LogModule</title>
<polygon fill="none" stroke="black" stroke-dasharray="1,5" points="2095,-32.8 2095,-160.8 2561,-160.8 2561,-32.8 2095,-32.8"/>
</g>
<g id="clust44" class="cluster">
<title>cluster_LogModule_declarations</title>
<polygon fill="none" stroke="black" points="2255,-40.8 2255,-92.8 2553,-92.8 2553,-40.8 2255,-40.8"/>
</g>
<g id="clust47" class="cluster">
<title>cluster_LogModule_imports</title>
<polygon fill="none" stroke="black" points="2103,-40.8 2103,-92.8 2247,-92.8 2247,-40.8 2103,-40.8"/>
</g>
<g id="clust57" class="cluster">
<title>cluster_SharedModule</title>
<polygon fill="none" stroke="black" stroke-dasharray="1,5" points="8,-100.8 8,-168.8 1185,-168.8 1185,-100.8 8,-100.8"/>
</g>
<g id="clust58" class="cluster">
<title>cluster_SharedModule_declarations</title>
<polygon fill="none" stroke="black" points="608,-108.8 608,-160.8 1177,-160.8 1177,-108.8 608,-108.8"/>
</g>
<g id="clust64" class="cluster">
<title>cluster_SharedModule_exports</title>
<polygon fill="none" stroke="black" points="16,-108.8 16,-160.8 600,-160.8 600,-108.8 16,-108.8"/>
</g>
<g id="clust67" class="cluster">
<title>cluster_ToolsModule</title>
<polygon fill="none" stroke="black" stroke-dasharray="1,5" points="2569,-32.8 2569,-160.8 3045,-160.8 3045,-32.8 2569,-32.8"/>
</g>
<g id="clust68" class="cluster">
<title>cluster_ToolsModule_declarations</title>
<polygon fill="none" stroke="black" points="2737,-40.8 2737,-92.8 3037,-92.8 3037,-40.8 2737,-40.8"/>
</g>
<g id="clust71" class="cluster">
<title>cluster_ToolsModule_imports</title>
<polygon fill="none" stroke="black" points="2577,-40.8 2577,-92.8 2729,-92.8 2729,-40.8 2577,-40.8"/>
</g>
<!-- AppComponent -->
<g id="node1" class="node">
<title>AppComponent</title>
<polygon fill="#ffffb3" stroke="black" points="1583.94,-84.8 1478.06,-84.8 1478.06,-48.8 1583.94,-48.8 1583.94,-84.8"/>
<text text-anchor="middle" x="1531" y="-62.6" font-family="Times,serif" font-size="14.00">AppComponent</text>
</g>
<!-- AppModule -->
<g id="node2" class="node">
<title>AppModule</title>
<polygon fill="#8dd3c7" stroke="black" points="1431.66,-152.8 1428.66,-156.8 1407.66,-156.8 1404.66,-152.8 1348.34,-152.8 1348.34,-116.8 1431.66,-116.8 1431.66,-152.8"/>
<text text-anchor="middle" x="1390" y="-130.6" font-family="Times,serif" font-size="14.00">AppModule</text>
</g>
<!-- AppComponent&#45;&gt;AppModule -->
<g id="edge1" class="edge">
<title>AppComponent&#45;&gt;AppModule</title>
<path fill="none" stroke="black" d="M1531,-85.02C1531,-105.17 1531,-134.8 1531,-134.8 1531,-134.8 1441.92,-134.8 1441.92,-134.8"/>
<polygon fill="black" stroke="black" points="1441.92,-131.3 1431.92,-134.8 1441.92,-138.3 1441.92,-131.3"/>
</g>
<!-- AppComponent  -->
<g id="node5" class="node">
<title>AppComponent </title>
<polygon fill="#80b1d3" stroke="black" points="1444.44,-220.8 1335.56,-220.8 1335.56,-184.8 1444.44,-184.8 1444.44,-220.8"/>
<text text-anchor="middle" x="1390" y="-198.6" font-family="Times,serif" font-size="14.00">AppComponent </text>
</g>
<!-- AppModule&#45;&gt;AppComponent  -->
<g id="edge4" class="edge">
<title>AppModule&#45;&gt;AppComponent </title>
<path fill="none" stroke="black" stroke-dasharray="1,5" d="M1390,-153.02C1390,-153.02 1390,-174.53 1390,-174.53"/>
<polygon fill="black" stroke="black" points="1386.5,-174.53 1390,-184.53 1393.5,-174.53 1386.5,-174.53"/>
</g>
<!-- AppRoutingModule -->
<g id="node3" class="node">
<title>AppRoutingModule</title>
<polygon fill="#8dd3c7" stroke="black" points="1454.27,-84.8 1451.27,-88.8 1430.27,-88.8 1427.27,-84.8 1325.73,-84.8 1325.73,-48.8 1454.27,-48.8 1454.27,-84.8"/>
<text text-anchor="middle" x="1390" y="-62.6" font-family="Times,serif" font-size="14.00">AppRoutingModule</text>
</g>
<!-- AppRoutingModule&#45;&gt;AppModule -->
<g id="edge2" class="edge">
<title>AppRoutingModule&#45;&gt;AppModule</title>
<path fill="none" stroke="black" d="M1390,-85.02C1390,-85.02 1390,-106.53 1390,-106.53"/>
<polygon fill="black" stroke="black" points="1386.5,-106.53 1390,-116.53 1393.5,-106.53 1386.5,-106.53"/>
</g>
<!-- SharedModule -->
<g id="node4" class="node">
<title>SharedModule</title>
<polygon fill="#8dd3c7" stroke="black" points="1307.42,-84.8 1304.42,-88.8 1283.42,-88.8 1280.42,-84.8 1208.58,-84.8 1208.58,-48.8 1307.42,-48.8 1307.42,-84.8"/>
<text text-anchor="middle" x="1258" y="-62.6" font-family="Times,serif" font-size="14.00">SharedModule</text>
</g>
<!-- SharedModule&#45;&gt;AppModule -->
<g id="edge3" class="edge">
<title>SharedModule&#45;&gt;AppModule</title>
<path fill="none" stroke="black" d="M1290.81,-85.09C1290.81,-107.01 1290.81,-140.8 1290.81,-140.8 1290.81,-140.8 1338.22,-140.8 1338.22,-140.8"/>
<polygon fill="black" stroke="black" points="1338.22,-144.3 1348.22,-140.8 1338.22,-137.3 1338.22,-144.3"/>
</g>
<!-- BlogModule -->
<g id="node8" class="node">
<title>BlogModule</title>
<polygon fill="#8dd3c7" stroke="black" points="1810.28,-152.8 1807.28,-156.8 1786.28,-156.8 1783.28,-152.8 1723.72,-152.8 1723.72,-116.8 1810.28,-116.8 1810.28,-152.8"/>
<text text-anchor="middle" x="1767" y="-130.6" font-family="Times,serif" font-size="14.00">BlogModule</text>
</g>
<!-- SharedModule&#45;&gt;BlogModule -->
<g id="edge8" class="edge">
<title>SharedModule&#45;&gt;BlogModule</title>
<path fill="none" stroke="black" d="M1225.19,-84.86C1225.19,-96.24 1225.19,-108.8 1225.19,-108.8 1225.19,-108.8 1734.39,-108.8 1734.39,-108.8 1734.39,-108.8 1734.39,-109.59 1734.39,-109.59"/>
<polygon fill="black" stroke="black" points="1730.89,-106.74 1734.39,-116.74 1737.89,-106.74 1730.89,-106.74"/>
</g>
<!-- LogModule -->
<g id="node17" class="node">
<title>LogModule</title>
<polygon fill="#8dd3c7" stroke="black" points="2291.1,-152.8 2288.1,-156.8 2267.1,-156.8 2264.1,-152.8 2208.9,-152.8 2208.9,-116.8 2291.1,-116.8 2291.1,-152.8"/>
<text text-anchor="middle" x="2250" y="-130.6" font-family="Times,serif" font-size="14.00">LogModule</text>
</g>
<!-- SharedModule&#45;&gt;LogModule -->
<g id="edge16" class="edge">
<title>SharedModule&#45;&gt;LogModule</title>
<path fill="none" stroke="black" d="M1241.6,-84.99C1241.6,-93.08 1241.6,-100.8 1241.6,-100.8 1241.6,-100.8 2218.84,-100.8 2218.84,-100.8 2218.84,-100.8 2218.84,-106.61 2218.84,-106.61"/>
<polygon fill="black" stroke="black" points="2215.34,-106.61 2218.84,-116.61 2222.34,-106.61 2215.34,-106.61"/>
</g>
<!-- LoadingComponent  -->
<g id="node23" class="node">
<title>LoadingComponent </title>
<polygon fill="#fb8072" stroke="black" points="307.99,-152.8 176.01,-152.8 176.01,-116.8 307.99,-116.8 307.99,-152.8"/>
<text text-anchor="middle" x="242" y="-130.6" font-family="Times,serif" font-size="14.00">LoadingComponent </text>
</g>
<!-- SharedModule&#45;&gt;LoadingComponent  -->
<g id="edge21" class="edge">
<title>SharedModule&#45;&gt;LoadingComponent </title>
<path fill="none" stroke="black" stroke-dasharray="5,2" d="M1208.65,-57.8C1005.19,-57.8 242,-57.8 242,-57.8 242,-57.8 242,-106.55 242,-106.55"/>
<polygon fill="black" stroke="black" points="238.5,-106.55 242,-116.55 245.5,-106.55 238.5,-106.55"/>
</g>
<!-- MessageComponent  -->
<g id="node24" class="node">
<title>MessageComponent </title>
<polygon fill="#fb8072" stroke="black" points="157.81,-152.8 24.19,-152.8 24.19,-116.8 157.81,-116.8 157.81,-152.8"/>
<text text-anchor="middle" x="91" y="-130.6" font-family="Times,serif" font-size="14.00">MessageComponent </text>
</g>
<!-- SharedModule&#45;&gt;MessageComponent  -->
<g id="edge22" class="edge">
<title>SharedModule&#45;&gt;MessageComponent </title>
<path fill="none" stroke="black" stroke-dasharray="5,2" d="M1208.6,-53.8C986.48,-53.8 91,-53.8 91,-53.8 91,-53.8 91,-106.42 91,-106.42"/>
<polygon fill="black" stroke="black" points="87.5,-106.42 91,-116.42 94.5,-106.42 87.5,-106.42"/>
</g>
<!-- NavComponent  -->
<g id="node25" class="node">
<title>NavComponent </title>
<polygon fill="#fb8072" stroke="black" points="592.15,-152.8 483.85,-152.8 483.85,-116.8 592.15,-116.8 592.15,-152.8"/>
<text text-anchor="middle" x="538" y="-130.6" font-family="Times,serif" font-size="14.00">NavComponent </text>
</g>
<!-- SharedModule&#45;&gt;NavComponent  -->
<g id="edge23" class="edge">
<title>SharedModule&#45;&gt;NavComponent </title>
<path fill="none" stroke="black" stroke-dasharray="5,2" d="M1208.51,-66.8C1045.84,-66.8 538,-66.8 538,-66.8 538,-66.8 538,-106.58 538,-106.58"/>
<polygon fill="black" stroke="black" points="534.5,-106.58 538,-116.58 541.5,-106.58 534.5,-106.58"/>
</g>
<!-- TweetBtnComponent  -->
<g id="node26" class="node">
<title>TweetBtnComponent </title>
<polygon fill="#fb8072" stroke="black" points="466.04,-152.8 325.96,-152.8 325.96,-116.8 466.04,-116.8 466.04,-152.8"/>
<text text-anchor="middle" x="396" y="-130.6" font-family="Times,serif" font-size="14.00">TweetBtnComponent </text>
</g>
<!-- SharedModule&#45;&gt;TweetBtnComponent  -->
<g id="edge24" class="edge">
<title>SharedModule&#45;&gt;TweetBtnComponent </title>
<path fill="none" stroke="black" stroke-dasharray="5,2" d="M1208.56,-62.8C1025.4,-62.8 396,-62.8 396,-62.8 396,-62.8 396,-106.63 396,-106.63"/>
<polygon fill="black" stroke="black" points="392.5,-106.63 396,-116.63 399.5,-106.63 392.5,-106.63"/>
</g>
<!-- ToolsModule -->
<g id="node29" class="node">
<title>ToolsModule</title>
<polygon fill="#8dd3c7" stroke="black" points="2777.94,-152.8 2774.94,-156.8 2753.94,-156.8 2750.94,-152.8 2686.06,-152.8 2686.06,-116.8 2777.94,-116.8 2777.94,-152.8"/>
<text text-anchor="middle" x="2732" y="-130.6" font-family="Times,serif" font-size="14.00">ToolsModule</text>
</g>
<!-- SharedModule&#45;&gt;ToolsModule -->
<g id="edge27" class="edge">
<title>SharedModule&#45;&gt;ToolsModule</title>
<path fill="none" stroke="black" d="M1258,-84.86C1258,-89.29 1258,-92.8 1258,-92.8 1258,-92.8 2697.95,-92.8 2697.95,-92.8 2697.95,-92.8 2697.95,-106.74 2697.95,-106.74"/>
<polygon fill="black" stroke="black" points="2694.45,-106.74 2697.95,-116.74 2701.45,-106.74 2694.45,-106.74"/>
</g>
<!-- BlogDetailComponent -->
<g id="node6" class="node">
<title>BlogDetailComponent</title>
<polygon fill="#ffffb3" stroke="black" points="2071.27,-84.8 1928.73,-84.8 1928.73,-48.8 2071.27,-48.8 2071.27,-84.8"/>
<text text-anchor="middle" x="2000" y="-62.6" font-family="Times,serif" font-size="14.00">BlogDetailComponent</text>
</g>
<!-- BlogDetailComponent&#45;&gt;BlogModule -->
<g id="edge5" class="edge">
<title>BlogDetailComponent&#45;&gt;BlogModule</title>
<path fill="none" stroke="black" d="M2000,-85.02C2000,-105.17 2000,-134.8 2000,-134.8 2000,-134.8 1820.28,-134.8 1820.28,-134.8"/>
<polygon fill="black" stroke="black" points="1820.28,-131.3 1810.28,-134.8 1820.28,-138.3 1820.28,-131.3"/>
</g>
<!-- BlogListComponent -->
<g id="node7" class="node">
<title>BlogListComponent</title>
<polygon fill="#ffffb3" stroke="black" points="1910.34,-84.8 1779.66,-84.8 1779.66,-48.8 1910.34,-48.8 1910.34,-84.8"/>
<text text-anchor="middle" x="1845" y="-62.6" font-family="Times,serif" font-size="14.00">BlogListComponent</text>
</g>
<!-- BlogListComponent&#45;&gt;BlogModule -->
<g id="edge6" class="edge">
<title>BlogListComponent&#45;&gt;BlogModule</title>
<path fill="none" stroke="black" d="M1795.11,-85.02C1795.11,-85.02 1795.11,-106.53 1795.11,-106.53"/>
<polygon fill="black" stroke="black" points="1791.61,-106.53 1795.11,-116.53 1798.61,-106.53 1791.61,-106.53"/>
</g>
<!-- BlogRoutingModule -->
<g id="node9" class="node">
<title>BlogRoutingModule</title>
<polygon fill="#8dd3c7" stroke="black" points="1755.89,-84.8 1752.89,-88.8 1731.89,-88.8 1728.89,-84.8 1624.11,-84.8 1624.11,-48.8 1755.89,-48.8 1755.89,-84.8"/>
<text text-anchor="middle" x="1690" y="-62.6" font-family="Times,serif" font-size="14.00">BlogRoutingModule</text>
</g>
<!-- BlogRoutingModule&#45;&gt;BlogModule -->
<g id="edge7" class="edge">
<title>BlogRoutingModule&#45;&gt;BlogModule</title>
<path fill="none" stroke="black" d="M1745.17,-85.02C1745.17,-85.02 1745.17,-106.53 1745.17,-106.53"/>
<polygon fill="black" stroke="black" points="1741.67,-106.53 1745.17,-116.53 1748.67,-106.53 1741.67,-106.53"/>
</g>
<!-- ContactComponent -->
<g id="node10" class="node">
<title>ContactComponent</title>
<polygon fill="#ffffb3" stroke="black" points="3355.38,-84.8 3230.62,-84.8 3230.62,-48.8 3355.38,-48.8 3355.38,-84.8"/>
<text text-anchor="middle" x="3293" y="-62.6" font-family="Times,serif" font-size="14.00">ContactComponent</text>
</g>
<!-- HomeModule -->
<g id="node13" class="node">
<title>HomeModule</title>
<polygon fill="#8dd3c7" stroke="black" points="3409.76,-152.8 3406.76,-156.8 3385.76,-156.8 3382.76,-152.8 3316.24,-152.8 3316.24,-116.8 3409.76,-116.8 3409.76,-152.8"/>
<text text-anchor="middle" x="3363" y="-130.6" font-family="Times,serif" font-size="14.00">HomeModule</text>
</g>
<!-- ContactComponent&#45;&gt;HomeModule -->
<g id="edge9" class="edge">
<title>ContactComponent&#45;&gt;HomeModule</title>
<path fill="none" stroke="black" d="M3335.78,-85.02C3335.78,-85.02 3335.78,-106.53 3335.78,-106.53"/>
<polygon fill="black" stroke="black" points="3332.28,-106.53 3335.78,-116.53 3339.28,-106.53 3332.28,-106.53"/>
</g>
<!-- IndexComponent -->
<g id="node11" class="node">
<title>IndexComponent</title>
<polygon fill="#ffffb3" stroke="black" points="3623.71,-84.8 3510.29,-84.8 3510.29,-48.8 3623.71,-48.8 3623.71,-84.8"/>
<text text-anchor="middle" x="3567" y="-62.6" font-family="Times,serif" font-size="14.00">IndexComponent</text>
</g>
<!-- IndexComponent&#45;&gt;HomeModule -->
<g id="edge10" class="edge">
<title>IndexComponent&#45;&gt;HomeModule</title>
<path fill="none" stroke="black" d="M3567,-85.02C3567,-105.17 3567,-134.8 3567,-134.8 3567,-134.8 3419.8,-134.8 3419.8,-134.8"/>
<polygon fill="black" stroke="black" points="3419.8,-131.3 3409.8,-134.8 3419.8,-138.3 3419.8,-131.3"/>
</g>
<!-- ProfileComponent -->
<g id="node12" class="node">
<title>ProfileComponent</title>
<polygon fill="#ffffb3" stroke="black" points="3492.93,-84.8 3373.07,-84.8 3373.07,-48.8 3492.93,-48.8 3492.93,-84.8"/>
<text text-anchor="middle" x="3433" y="-62.6" font-family="Times,serif" font-size="14.00">ProfileComponent</text>
</g>
<!-- ProfileComponent&#45;&gt;HomeModule -->
<g id="edge11" class="edge">
<title>ProfileComponent&#45;&gt;HomeModule</title>
<path fill="none" stroke="black" d="M3391.58,-85.02C3391.58,-85.02 3391.58,-106.53 3391.58,-106.53"/>
<polygon fill="black" stroke="black" points="3388.08,-106.53 3391.58,-116.53 3395.08,-106.53 3388.08,-106.53"/>
</g>
<!-- HomeRoutingModule -->
<g id="node14" class="node">
<title>HomeRoutingModule</title>
<polygon fill="#8dd3c7" stroke="black" points="3207.38,-84.8 3204.38,-88.8 3183.38,-88.8 3180.38,-84.8 3068.62,-84.8 3068.62,-48.8 3207.38,-48.8 3207.38,-84.8"/>
<text text-anchor="middle" x="3138" y="-62.6" font-family="Times,serif" font-size="14.00">HomeRoutingModule</text>
</g>
<!-- HomeRoutingModule&#45;&gt;HomeModule -->
<g id="edge12" class="edge">
<title>HomeRoutingModule&#45;&gt;HomeModule</title>
<path fill="none" stroke="black" d="M3138,-85.09C3138,-107.01 3138,-140.8 3138,-140.8 3138,-140.8 3306.11,-140.8 3306.11,-140.8"/>
<polygon fill="black" stroke="black" points="3306.11,-144.3 3316.11,-140.8 3306.11,-137.3 3306.11,-144.3"/>
</g>
<!-- LogDetailComponent -->
<g id="node15" class="node">
<title>LogDetailComponent</title>
<polygon fill="#ffffb3" stroke="black" points="2545.09,-84.8 2406.91,-84.8 2406.91,-48.8 2545.09,-48.8 2545.09,-84.8"/>
<text text-anchor="middle" x="2476" y="-62.6" font-family="Times,serif" font-size="14.00">LogDetailComponent</text>
</g>
<!-- LogDetailComponent&#45;&gt;LogModule -->
<g id="edge13" class="edge">
<title>LogDetailComponent&#45;&gt;LogModule</title>
<path fill="none" stroke="black" d="M2476,-85.02C2476,-105.17 2476,-134.8 2476,-134.8 2476,-134.8 2301.19,-134.8 2301.19,-134.8"/>
<polygon fill="black" stroke="black" points="2301.19,-131.3 2291.19,-134.8 2301.19,-138.3 2301.19,-131.3"/>
</g>
<!-- LogListComponent -->
<g id="node16" class="node">
<title>LogListComponent</title>
<polygon fill="#ffffb3" stroke="black" points="2388.66,-84.8 2263.34,-84.8 2263.34,-48.8 2388.66,-48.8 2388.66,-84.8"/>
<text text-anchor="middle" x="2326" y="-62.6" font-family="Times,serif" font-size="14.00">LogListComponent</text>
</g>
<!-- LogListComponent&#45;&gt;LogModule -->
<g id="edge14" class="edge">
<title>LogListComponent&#45;&gt;LogModule</title>
<path fill="none" stroke="black" d="M2277.11,-85.02C2277.11,-85.02 2277.11,-106.53 2277.11,-106.53"/>
<polygon fill="black" stroke="black" points="2273.61,-106.53 2277.11,-116.53 2280.61,-106.53 2273.61,-106.53"/>
</g>
<!-- LogRoutingModule -->
<g id="node18" class="node">
<title>LogRoutingModule</title>
<polygon fill="#8dd3c7" stroke="black" points="2238.72,-84.8 2235.72,-88.8 2214.72,-88.8 2211.72,-84.8 2111.28,-84.8 2111.28,-48.8 2238.72,-48.8 2238.72,-84.8"/>
<text text-anchor="middle" x="2175" y="-62.6" font-family="Times,serif" font-size="14.00">LogRoutingModule</text>
</g>
<!-- LogRoutingModule&#45;&gt;LogModule -->
<g id="edge15" class="edge">
<title>LogRoutingModule&#45;&gt;LogModule</title>
<path fill="none" stroke="black" d="M2228.72,-85.02C2228.72,-85.02 2228.72,-106.53 2228.72,-106.53"/>
<polygon fill="black" stroke="black" points="2225.22,-106.53 2228.72,-116.53 2232.22,-106.53 2225.22,-106.53"/>
</g>
<!-- LoadingComponent -->
<g id="node19" class="node">
<title>LoadingComponent</title>
<polygon fill="#ffffb3" stroke="black" points="891.99,-152.8 764.01,-152.8 764.01,-116.8 891.99,-116.8 891.99,-152.8"/>
<text text-anchor="middle" x="828" y="-130.6" font-family="Times,serif" font-size="14.00">LoadingComponent</text>
</g>
<!-- LoadingComponent&#45;&gt;SharedModule -->
<g id="edge17" class="edge">
<title>LoadingComponent&#45;&gt;SharedModule</title>
<path fill="none" stroke="black" d="M828,-116.78C828,-99.43 828,-75.8 828,-75.8 828,-75.8 1198.67,-75.8 1198.67,-75.8"/>
<polygon fill="black" stroke="black" points="1198.67,-79.3 1208.67,-75.8 1198.67,-72.3 1198.67,-79.3"/>
</g>
<!-- MessageComponent -->
<g id="node20" class="node">
<title>MessageComponent</title>
<polygon fill="#ffffb3" stroke="black" points="746.31,-152.8 615.69,-152.8 615.69,-116.8 746.31,-116.8 746.31,-152.8"/>
<text text-anchor="middle" x="681" y="-130.6" font-family="Times,serif" font-size="14.00">MessageComponent</text>
</g>
<!-- MessageComponent&#45;&gt;SharedModule -->
<g id="edge18" class="edge">
<title>MessageComponent&#45;&gt;SharedModule</title>
<path fill="none" stroke="black" d="M681,-116.58C681,-97.97 681,-71.8 681,-71.8 681,-71.8 1198.56,-71.8 1198.56,-71.8"/>
<polygon fill="black" stroke="black" points="1198.56,-75.3 1208.56,-71.8 1198.56,-68.3 1198.56,-75.3"/>
</g>
<!-- NavComponent -->
<g id="node21" class="node">
<title>NavComponent</title>
<polygon fill="#ffffb3" stroke="black" points="1169.15,-152.8 1064.85,-152.8 1064.85,-116.8 1169.15,-116.8 1169.15,-152.8"/>
<text text-anchor="middle" x="1117" y="-130.6" font-family="Times,serif" font-size="14.00">NavComponent</text>
</g>
<!-- NavComponent&#45;&gt;SharedModule -->
<g id="edge19" class="edge">
<title>NavComponent&#45;&gt;SharedModule</title>
<path fill="none" stroke="black" d="M1169.41,-128.8C1215.2,-128.8 1274.4,-128.8 1274.4,-128.8 1274.4,-128.8 1274.4,-95.07 1274.4,-95.07"/>
<polygon fill="black" stroke="black" points="1277.9,-95.07 1274.4,-85.07 1270.9,-95.07 1277.9,-95.07"/>
</g>
<!-- TweetBtnComponent -->
<g id="node22" class="node">
<title>TweetBtnComponent</title>
<polygon fill="#ffffb3" stroke="black" points="1046.04,-152.8 909.96,-152.8 909.96,-116.8 1046.04,-116.8 1046.04,-152.8"/>
<text text-anchor="middle" x="978" y="-130.6" font-family="Times,serif" font-size="14.00">TweetBtnComponent</text>
</g>
<!-- TweetBtnComponent&#45;&gt;SharedModule -->
<g id="edge20" class="edge">
<title>TweetBtnComponent&#45;&gt;SharedModule</title>
<path fill="none" stroke="black" d="M978,-116.52C978,-100.85 978,-80.8 978,-80.8 978,-80.8 1198.59,-80.8 1198.59,-80.8"/>
<polygon fill="black" stroke="black" points="1198.59,-84.3 1208.59,-80.8 1198.59,-77.3 1198.59,-84.3"/>
</g>
<!-- ToolsListComponent -->
<g id="node27" class="node">
<title>ToolsListComponent</title>
<polygon fill="#ffffb3" stroke="black" points="3029.5,-84.8 2894.5,-84.8 2894.5,-48.8 3029.5,-48.8 3029.5,-84.8"/>
<text text-anchor="middle" x="2962" y="-62.6" font-family="Times,serif" font-size="14.00">ToolsListComponent</text>
</g>
<!-- ToolsListComponent&#45;&gt;ToolsModule -->
<g id="edge25" class="edge">
<title>ToolsListComponent&#45;&gt;ToolsModule</title>
<path fill="none" stroke="black" d="M2962,-85.07C2962,-103.36 2962,-128.8 2962,-128.8 2962,-128.8 2787.99,-128.8 2787.99,-128.8"/>
<polygon fill="black" stroke="black" points="2787.99,-125.3 2777.99,-128.8 2787.99,-132.3 2787.99,-125.3"/>
</g>
<!-- UserInfoComponent -->
<g id="node28" class="node">
<title>UserInfoComponent</title>
<polygon fill="#ffffb3" stroke="black" points="2876.58,-84.8 2745.42,-84.8 2745.42,-48.8 2876.58,-48.8 2876.58,-84.8"/>
<text text-anchor="middle" x="2811" y="-62.6" font-family="Times,serif" font-size="14.00">UserInfoComponent</text>
</g>
<!-- UserInfoComponent&#45;&gt;ToolsModule -->
<g id="edge26" class="edge">
<title>UserInfoComponent&#45;&gt;ToolsModule</title>
<path fill="none" stroke="black" d="M2761.59,-85.02C2761.59,-85.02 2761.59,-106.53 2761.59,-106.53"/>
<polygon fill="black" stroke="black" points="2758.09,-106.53 2761.59,-116.53 2765.09,-106.53 2758.09,-106.53"/>
</g>
<!-- ToolsRoutingModule -->
<g id="node30" class="node">
<title>ToolsRoutingModule</title>
<polygon fill="#8dd3c7" stroke="black" points="2721.06,-84.8 2718.06,-88.8 2697.06,-88.8 2694.06,-84.8 2584.94,-84.8 2584.94,-48.8 2721.06,-48.8 2721.06,-84.8"/>
<text text-anchor="middle" x="2653" y="-62.6" font-family="Times,serif" font-size="14.00">ToolsRoutingModule</text>
</g>
<!-- ToolsRoutingModule&#45;&gt;ToolsModule -->
<g id="edge28" class="edge">
<title>ToolsRoutingModule&#45;&gt;ToolsModule</title>
<path fill="none" stroke="black" d="M2709.61,-85.02C2709.61,-85.02 2709.61,-106.53 2709.61,-106.53"/>
<polygon fill="black" stroke="black" points="2706.11,-106.53 2709.61,-116.53 2713.11,-106.53 2706.11,-106.53"/>
</g>
</g>
</svg>
