<?xml version="1.0" encoding="UTF-8" standalone="no"?>
<!DOCTYPE svg PUBLIC "-//W3C//DTD SVG 1.1//EN"
 "http://www.w3.org/Graphics/SVG/1.1/DTD/svg11.dtd">
<!-- Generated by graphviz version 2.47.3 (20210619.1520)
 -->
<!-- Title: dependencies Pages: 1 -->
<svg width="5760pt" height="253pt"
 viewBox="0.00 0.00 5760.00 252.80" xmlns="http://www.w3.org/2000/svg" xmlns:xlink="http://www.w3.org/1999/xlink">
<g id="graph0" class="graph" transform="scale(1 1) rotate(0) translate(4 248.8)">
<title>dependencies</title>
<polygon fill="white" stroke="transparent" points="-4,4 -4,-248.8 5756,-248.8 5756,4 -4,4"/>
<text text-anchor="middle" x="2876" y="-8.2" font-family="sans-serif" font-size="14.00">dependencies</text>
<g id="clust1" class="cluster">
<title>cluster_AppModule</title>
<polygon fill="none" stroke="black" stroke-dasharray="1,5" points="2337,-32.8 2337,-236.8 2744,-236.8 2744,-32.8 2337,-32.8"/>
</g>
<g id="clust2" class="cluster">
<title>cluster_AppModule_declarations</title>
<polygon fill="none" stroke="black" points="2614,-40.8 2614,-92.8 2736,-92.8 2736,-40.8 2614,-40.8"/>
</g>
<g id="clust4" class="cluster">
<title>cluster_AppModule_imports</title>
<polygon fill="none" stroke="black" points="2345,-40.8 2345,-92.8 2606,-92.8 2606,-40.8 2345,-40.8"/>
</g>
<g id="clust6" class="cluster">
<title>cluster_AppModule_bootstrap</title>
<polygon fill="none" stroke="black" points="2472,-176.8 2472,-228.8 2596,-228.8 2596,-176.8 2472,-176.8"/>
</g>
<g id="clust14" class="cluster">
<title>cluster_BlogModule</title>
<polygon fill="none" stroke="black" stroke-dasharray="1,5" points="2752,-32.8 2752,-160.8 3231,-160.8 3231,-32.8 2752,-32.8"/>
</g>
<g id="clust15" class="cluster">
<title>cluster_BlogModule_declarations</title>
<polygon fill="none" stroke="black" points="2916,-40.8 2916,-92.8 3223,-92.8 3223,-40.8 2916,-40.8"/>
</g>
<g id="clust18" class="cluster">
<title>cluster_BlogModule_imports</title>
<polygon fill="none" stroke="black" points="2760,-40.8 2760,-92.8 2908,-92.8 2908,-40.8 2760,-40.8"/>
</g>
<g id="clust28" class="cluster">
<title>cluster_HomeModule</title>
<polygon fill="none" stroke="black" stroke-dasharray="1,5" points="5026,-32.8 5026,-160.8 5744,-160.8 5744,-32.8 5026,-32.8"/>
</g>
<g id="clust29" class="cluster">
<title>cluster_HomeModule_declarations</title>
<polygon fill="none" stroke="black" points="5196,-40.8 5196,-92.8 5736,-92.8 5736,-40.8 5196,-40.8"/>
</g>
<g id="clust34" class="cluster">
<title>cluster_HomeModule_imports</title>
<polygon fill="none" stroke="black" points="5034,-40.8 5034,-92.8 5188,-92.8 5188,-40.8 5034,-40.8"/>
</g>
<g id="clust44" class="cluster">
<title>cluster_LogModule</title>
<polygon fill="none" stroke="black" stroke-dasharray="1,5" points="3239,-32.8 3239,-160.8 3705,-160.8 3705,-32.8 3239,-32.8"/>
</g>
<g id="clust45" class="cluster">
<title>cluster_LogModule_declarations</title>
<polygon fill="none" stroke="black" points="3399,-40.8 3399,-92.8 3697,-92.8 3697,-40.8 3399,-40.8"/>
</g>
<g id="clust48" class="cluster">
<title>cluster_LogModule_imports</title>
<polygon fill="none" stroke="black" points="3247,-40.8 3247,-92.8 3391,-92.8 3391,-40.8 3247,-40.8"/>
</g>
<g id="clust58" class="cluster">
<title>cluster_SharedModule</title>
<polygon fill="none" stroke="black" stroke-dasharray="1,5" points="8,-100.8 8,-168.8 2329,-168.8 2329,-100.8 8,-100.8"/>
</g>
<g id="clust59" class="cluster">
<title>cluster_SharedModule_declarations</title>
<polygon fill="none" stroke="black" points="1186,-108.8 1186,-160.8 2321,-160.8 2321,-108.8 1186,-108.8"/>
</g>
<g id="clust69" class="cluster">
<title>cluster_SharedModule_exports</title>
<polygon fill="none" stroke="black" points="16,-108.8 16,-160.8 1178,-160.8 1178,-108.8 16,-108.8"/>
</g>
<g id="clust72" class="cluster">
<title>cluster_ToolsModule</title>
<polygon fill="none" stroke="black" stroke-dasharray="1,5" points="3713,-32.8 3713,-160.8 5018,-160.8 5018,-32.8 3713,-32.8"/>
</g>
<g id="clust73" class="cluster">
<title>cluster_ToolsModule_declarations</title>
<polygon fill="none" stroke="black" points="3881,-40.8 3881,-92.8 5010,-92.8 5010,-40.8 3881,-40.8"/>
</g>
<g id="clust81" class="cluster">
<title>cluster_ToolsModule_imports</title>
<polygon fill="none" stroke="black" points="3721,-40.8 3721,-92.8 3873,-92.8 3873,-40.8 3721,-40.8"/>
</g>
<!-- AppComponent -->
<g id="node1" class="node">
<title>AppComponent</title>
<polygon fill="#ffffb3" stroke="black" points="2727.94,-84.8 2622.06,-84.8 2622.06,-48.8 2727.94,-48.8 2727.94,-84.8"/>
<text text-anchor="middle" x="2675" y="-62.6" font-family="Times,serif" font-size="14.00">AppComponent</text>
</g>
<!-- AppModule -->
<g id="node2" class="node">
<title>AppModule</title>
<polygon fill="#8dd3c7" stroke="black" points="2575.66,-152.8 2572.66,-156.8 2551.66,-156.8 2548.66,-152.8 2492.34,-152.8 2492.34,-116.8 2575.66,-116.8 2575.66,-152.8"/>
<text text-anchor="middle" x="2534" y="-130.6" font-family="Times,serif" font-size="14.00">AppModule</text>
</g>
<!-- AppComponent&#45;&gt;AppModule -->
<g id="edge1" class="edge">
<title>AppComponent&#45;&gt;AppModule</title>
<path fill="none" stroke="black" d="M2675,-85.02C2675,-105.17 2675,-134.8 2675,-134.8 2675,-134.8 2585.92,-134.8 2585.92,-134.8"/>
<polygon fill="black" stroke="black" points="2585.92,-131.3 2575.92,-134.8 2585.92,-138.3 2585.92,-131.3"/>
</g>
<!-- AppComponent  -->
<g id="node5" class="node">
<title>AppComponent </title>
<polygon fill="#80b1d3" stroke="black" points="2588.44,-220.8 2479.56,-220.8 2479.56,-184.8 2588.44,-184.8 2588.44,-220.8"/>
<text text-anchor="middle" x="2534" y="-198.6" font-family="Times,serif" font-size="14.00">AppComponent </text>
</g>
<!-- AppModule&#45;&gt;AppComponent  -->
<g id="edge4" class="edge">
<title>AppModule&#45;&gt;AppComponent </title>
<path fill="none" stroke="black" stroke-dasharray="1,5" d="M2534,-153.02C2534,-153.02 2534,-174.53 2534,-174.53"/>
<polygon fill="black" stroke="black" points="2530.5,-174.53 2534,-184.53 2537.5,-174.53 2530.5,-174.53"/>
</g>
<!-- AppRoutingModule -->
<g id="node3" class="node">
<title>AppRoutingModule</title>
<polygon fill="#8dd3c7" stroke="black" points="2598.27,-84.8 2595.27,-88.8 2574.27,-88.8 2571.27,-84.8 2469.73,-84.8 2469.73,-48.8 2598.27,-48.8 2598.27,-84.8"/>
<text text-anchor="middle" x="2534" y="-62.6" font-family="Times,serif" font-size="14.00">AppRoutingModule</text>
</g>
<!-- AppRoutingModule&#45;&gt;AppModule -->
<g id="edge2" class="edge">
<title>AppRoutingModule&#45;&gt;AppModule</title>
<path fill="none" stroke="black" d="M2534,-85.02C2534,-85.02 2534,-106.53 2534,-106.53"/>
<polygon fill="black" stroke="black" points="2530.5,-106.53 2534,-116.53 2537.5,-106.53 2530.5,-106.53"/>
</g>
<!-- SharedModule -->
<g id="node4" class="node">
<title>SharedModule</title>
<polygon fill="#8dd3c7" stroke="black" points="2451.42,-84.8 2448.42,-88.8 2427.42,-88.8 2424.42,-84.8 2352.58,-84.8 2352.58,-48.8 2451.42,-48.8 2451.42,-84.8"/>
<text text-anchor="middle" x="2402" y="-62.6" font-family="Times,serif" font-size="14.00">SharedModule</text>
</g>
<!-- SharedModule&#45;&gt;AppModule -->
<g id="edge3" class="edge">
<title>SharedModule&#45;&gt;AppModule</title>
<path fill="none" stroke="black" d="M2434.81,-85.09C2434.81,-107.01 2434.81,-140.8 2434.81,-140.8 2434.81,-140.8 2482.22,-140.8 2482.22,-140.8"/>
<polygon fill="black" stroke="black" points="2482.22,-144.3 2492.22,-140.8 2482.22,-137.3 2482.22,-144.3"/>
</g>
<!-- BlogModule -->
<g id="node8" class="node">
<title>BlogModule</title>
<polygon fill="#8dd3c7" stroke="black" points="2954.28,-152.8 2951.28,-156.8 2930.28,-156.8 2927.28,-152.8 2867.72,-152.8 2867.72,-116.8 2954.28,-116.8 2954.28,-152.8"/>
<text text-anchor="middle" x="2911" y="-130.6" font-family="Times,serif" font-size="14.00">BlogModule</text>
</g>
<!-- SharedModule&#45;&gt;BlogModule -->
<g id="edge8" class="edge">
<title>SharedModule&#45;&gt;BlogModule</title>
<path fill="none" stroke="black" d="M2369.19,-84.86C2369.19,-96.24 2369.19,-108.8 2369.19,-108.8 2369.19,-108.8 2878.39,-108.8 2878.39,-108.8 2878.39,-108.8 2878.39,-109.59 2878.39,-109.59"/>
<polygon fill="black" stroke="black" points="2874.89,-106.74 2878.39,-116.74 2881.89,-106.74 2874.89,-106.74"/>
</g>
<!-- LogModule -->
<g id="node18" class="node">
<title>LogModule</title>
<polygon fill="#8dd3c7" stroke="black" points="3435.1,-152.8 3432.1,-156.8 3411.1,-156.8 3408.1,-152.8 3352.9,-152.8 3352.9,-116.8 3435.1,-116.8 3435.1,-152.8"/>
<text text-anchor="middle" x="3394" y="-130.6" font-family="Times,serif" font-size="14.00">LogModule</text>
</g>
<!-- SharedModule&#45;&gt;LogModule -->
<g id="edge17" class="edge">
<title>SharedModule&#45;&gt;LogModule</title>
<path fill="none" stroke="black" d="M2385.6,-84.99C2385.6,-93.08 2385.6,-100.8 2385.6,-100.8 2385.6,-100.8 3362.84,-100.8 3362.84,-100.8 3362.84,-100.8 3362.84,-106.61 3362.84,-106.61"/>
<polygon fill="black" stroke="black" points="3359.34,-106.61 3362.84,-116.61 3366.34,-106.61 3359.34,-106.61"/>
</g>
<!-- AdsComponent  -->
<g id="node28" class="node">
<title>AdsComponent </title>
<polygon fill="#fb8072" stroke="black" points="885.88,-152.8 778.12,-152.8 778.12,-116.8 885.88,-116.8 885.88,-152.8"/>
<text text-anchor="middle" x="832" y="-130.6" font-family="Times,serif" font-size="14.00">AdsComponent </text>
</g>
<!-- SharedModule&#45;&gt;AdsComponent  -->
<g id="edge26" class="edge">
<title>SharedModule&#45;&gt;AdsComponent </title>
<path fill="none" stroke="black" stroke-dasharray="5,2" d="M2352.42,-62.8C2085.55,-62.8 832,-62.8 832,-62.8 832,-62.8 832,-106.63 832,-106.63"/>
<polygon fill="black" stroke="black" points="828.5,-106.63 832,-116.63 835.5,-106.63 828.5,-106.63"/>
</g>
<!-- AdsModalComponent  -->
<g id="node29" class="node">
<title>AdsModalComponent </title>
<polygon fill="#fb8072" stroke="black" points="759.93,-152.8 616.07,-152.8 616.07,-116.8 759.93,-116.8 759.93,-152.8"/>
<text text-anchor="middle" x="688" y="-130.6" font-family="Times,serif" font-size="14.00">AdsModalComponent </text>
</g>
<!-- SharedModule&#45;&gt;AdsModalComponent  -->
<g id="edge27" class="edge">
<title>SharedModule&#45;&gt;AdsModalComponent </title>
<path fill="none" stroke="black" stroke-dasharray="5,2" d="M2352.55,-60.8C2071.52,-60.8 688,-60.8 688,-60.8 688,-60.8 688,-106.51 688,-106.51"/>
<polygon fill="black" stroke="black" points="684.5,-106.51 688,-116.51 691.5,-106.51 684.5,-106.51"/>
</g>
<!-- AmazonAdsComponent  -->
<g id="node30" class="node">
<title>AmazonAdsComponent </title>
<polygon fill="#fb8072" stroke="black" points="598.31,-152.8 443.69,-152.8 443.69,-116.8 598.31,-116.8 598.31,-152.8"/>
<text text-anchor="middle" x="521" y="-130.6" font-family="Times,serif" font-size="14.00">AmazonAdsComponent </text>
</g>
<!-- SharedModule&#45;&gt;AmazonAdsComponent  -->
<g id="edge28" class="edge">
<title>SharedModule&#45;&gt;AmazonAdsComponent </title>
<path fill="none" stroke="black" stroke-dasharray="5,2" d="M2352.65,-57.8C2055.87,-57.8 521,-57.8 521,-57.8 521,-57.8 521,-106.55 521,-106.55"/>
<polygon fill="black" stroke="black" points="517.5,-106.55 521,-116.55 524.5,-106.55 517.5,-106.55"/>
</g>
<!-- LoadingComponent  -->
<g id="node31" class="node">
<title>LoadingComponent </title>
<polygon fill="#fb8072" stroke="black" points="425.99,-152.8 294.01,-152.8 294.01,-116.8 425.99,-116.8 425.99,-152.8"/>
<text text-anchor="middle" x="360" y="-130.6" font-family="Times,serif" font-size="14.00">LoadingComponent </text>
</g>
<!-- SharedModule&#45;&gt;LoadingComponent  -->
<g id="edge29" class="edge">
<title>SharedModule&#45;&gt;LoadingComponent </title>
<path fill="none" stroke="black" stroke-dasharray="5,2" d="M2352.79,-55.8C2041.59,-55.8 360,-55.8 360,-55.8 360,-55.8 360,-106.48 360,-106.48"/>
<polygon fill="black" stroke="black" points="356.5,-106.48 360,-116.48 363.5,-106.48 356.5,-106.48"/>
</g>
<!-- MdescapePipe  -->
<g id="node32" class="node">
<title>MdescapePipe </title>
<polygon fill="#fb8072" stroke="black" points="276.64,-152.8 175.36,-152.8 175.36,-116.8 276.64,-116.8 276.64,-152.8"/>
<text text-anchor="middle" x="226" y="-130.6" font-family="Times,serif" font-size="14.00">MdescapePipe </text>
</g>
<!-- SharedModule&#45;&gt;MdescapePipe  -->
<g id="edge30" class="edge">
<title>SharedModule&#45;&gt;MdescapePipe </title>
<path fill="none" stroke="black" stroke-dasharray="5,2" d="M2352.72,-53.8C2029.53,-53.8 226,-53.8 226,-53.8 226,-53.8 226,-106.42 226,-106.42"/>
<polygon fill="black" stroke="black" points="222.5,-106.42 226,-116.42 229.5,-106.42 222.5,-106.42"/>
</g>
<!-- MessageComponent  -->
<g id="node33" class="node">
<title>MessageComponent </title>
<polygon fill="#fb8072" stroke="black" points="157.81,-152.8 24.19,-152.8 24.19,-116.8 157.81,-116.8 157.81,-152.8"/>
<text text-anchor="middle" x="91" y="-130.6" font-family="Times,serif" font-size="14.00">MessageComponent </text>
</g>
<!-- SharedModule&#45;&gt;MessageComponent  -->
<g id="edge31" class="edge">
<title>SharedModule&#45;&gt;MessageComponent </title>
<path fill="none" stroke="black" stroke-dasharray="5,2" d="M2352.66,-51.8C2017.74,-51.8 91,-51.8 91,-51.8 91,-51.8 91,-106.79 91,-106.79"/>
<polygon fill="black" stroke="black" points="87.5,-106.79 91,-116.79 94.5,-106.79 87.5,-106.79"/>
</g>
<!-- NavComponent  -->
<g id="node34" class="node">
<title>NavComponent </title>
<polygon fill="#fb8072" stroke="black" points="1170.15,-152.8 1061.85,-152.8 1061.85,-116.8 1170.15,-116.8 1170.15,-152.8"/>
<text text-anchor="middle" x="1116" y="-130.6" font-family="Times,serif" font-size="14.00">NavComponent </text>
</g>
<!-- SharedModule&#45;&gt;NavComponent  -->
<g id="edge32" class="edge">
<title>SharedModule&#45;&gt;NavComponent </title>
<path fill="none" stroke="black" stroke-dasharray="5,2" d="M2352.77,-66.8C2117.15,-66.8 1116,-66.8 1116,-66.8 1116,-66.8 1116,-106.58 1116,-106.58"/>
<polygon fill="black" stroke="black" points="1112.5,-106.58 1116,-116.58 1119.5,-106.58 1112.5,-106.58"/>
</g>
<!-- TweetBtnComponent  -->
<g id="node35" class="node">
<title>TweetBtnComponent </title>
<polygon fill="#fb8072" stroke="black" points="1044.04,-152.8 903.96,-152.8 903.96,-116.8 1044.04,-116.8 1044.04,-152.8"/>
<text text-anchor="middle" x="974" y="-130.6" font-family="Times,serif" font-size="14.00">TweetBtnComponent </text>
</g>
<!-- SharedModule&#45;&gt;TweetBtnComponent  -->
<g id="edge33" class="edge">
<title>SharedModule&#45;&gt;TweetBtnComponent </title>
<path fill="none" stroke="black" stroke-dasharray="5,2" d="M2352.43,-64.8C2100.51,-64.8 974,-64.8 974,-64.8 974,-64.8 974,-106.77 974,-106.77"/>
<polygon fill="black" stroke="black" points="970.5,-106.77 974,-116.77 977.5,-106.77 970.5,-106.77"/>
</g>
<!-- ToolsModule -->
<g id="node43" class="node">
<title>ToolsModule</title>
<polygon fill="#8dd3c7" stroke="black" points="4323.94,-152.8 4320.94,-156.8 4299.94,-156.8 4296.94,-152.8 4232.06,-152.8 4232.06,-116.8 4323.94,-116.8 4323.94,-152.8"/>
<text text-anchor="middle" x="4278" y="-130.6" font-family="Times,serif" font-size="14.00">ToolsModule</text>
</g>
<!-- SharedModule&#45;&gt;ToolsModule -->
<g id="edge41" class="edge">
<title>SharedModule&#45;&gt;ToolsModule</title>
<path fill="none" stroke="black" d="M2402,-84.86C2402,-89.29 2402,-92.8 2402,-92.8 2402,-92.8 4262.76,-92.8 4262.76,-92.8 4262.76,-92.8 4262.76,-106.74 4262.76,-106.74"/>
<polygon fill="black" stroke="black" points="4259.26,-106.74 4262.76,-116.74 4266.26,-106.74 4259.26,-106.74"/>
</g>
<!-- BlogDetailComponent -->
<g id="node6" class="node">
<title>BlogDetailComponent</title>
<polygon fill="#ffffb3" stroke="black" points="3215.27,-84.8 3072.73,-84.8 3072.73,-48.8 3215.27,-48.8 3215.27,-84.8"/>
<text text-anchor="middle" x="3144" y="-62.6" font-family="Times,serif" font-size="14.00">BlogDetailComponent</text>
</g>
<!-- BlogDetailComponent&#45;&gt;BlogModule -->
<g id="edge5" class="edge">
<title>BlogDetailComponent&#45;&gt;BlogModule</title>
<path fill="none" stroke="black" d="M3144,-85.02C3144,-105.17 3144,-134.8 3144,-134.8 3144,-134.8 2964.28,-134.8 2964.28,-134.8"/>
<polygon fill="black" stroke="black" points="2964.28,-131.3 2954.28,-134.8 2964.28,-138.3 2964.28,-131.3"/>
</g>
<!-- BlogListComponent -->
<g id="node7" class="node">
<title>BlogListComponent</title>
<polygon fill="#ffffb3" stroke="black" points="3054.34,-84.8 2923.66,-84.8 2923.66,-48.8 3054.34,-48.8 3054.34,-84.8"/>
<text text-anchor="middle" x="2989" y="-62.6" font-family="Times,serif" font-size="14.00">BlogListComponent</text>
</g>
<!-- BlogListComponent&#45;&gt;BlogModule -->
<g id="edge6" class="edge">
<title>BlogListComponent&#45;&gt;BlogModule</title>
<path fill="none" stroke="black" d="M2939.11,-85.02C2939.11,-85.02 2939.11,-106.53 2939.11,-106.53"/>
<polygon fill="black" stroke="black" points="2935.61,-106.53 2939.11,-116.53 2942.61,-106.53 2935.61,-106.53"/>
</g>
<!-- BlogRoutingModule -->
<g id="node9" class="node">
<title>BlogRoutingModule</title>
<polygon fill="#8dd3c7" stroke="black" points="2899.89,-84.8 2896.89,-88.8 2875.89,-88.8 2872.89,-84.8 2768.11,-84.8 2768.11,-48.8 2899.89,-48.8 2899.89,-84.8"/>
<text text-anchor="middle" x="2834" y="-62.6" font-family="Times,serif" font-size="14.00">BlogRoutingModule</text>
</g>
<!-- BlogRoutingModule&#45;&gt;BlogModule -->
<g id="edge7" class="edge">
<title>BlogRoutingModule&#45;&gt;BlogModule</title>
<path fill="none" stroke="black" d="M2889.17,-85.02C2889.17,-85.02 2889.17,-106.53 2889.17,-106.53"/>
<polygon fill="black" stroke="black" points="2885.67,-106.53 2889.17,-116.53 2892.67,-106.53 2885.67,-106.53"/>
</g>
<!-- ContactComponent -->
<g id="node10" class="node">
<title>ContactComponent</title>
<polygon fill="#ffffb3" stroke="black" points="5728.38,-84.8 5603.62,-84.8 5603.62,-48.8 5728.38,-48.8 5728.38,-84.8"/>
<text text-anchor="middle" x="5666" y="-62.6" font-family="Times,serif" font-size="14.00">ContactComponent</text>
</g>
<!-- HomeModule -->
<g id="node14" class="node">
<title>HomeModule</title>
<polygon fill="#8dd3c7" stroke="black" points="5444.76,-152.8 5441.76,-156.8 5420.76,-156.8 5417.76,-152.8 5351.24,-152.8 5351.24,-116.8 5444.76,-116.8 5444.76,-152.8"/>
<text text-anchor="middle" x="5398" y="-130.6" font-family="Times,serif" font-size="14.00">HomeModule</text>
</g>
<!-- ContactComponent&#45;&gt;HomeModule -->
<g id="edge9" class="edge">
<title>ContactComponent&#45;&gt;HomeModule</title>
<path fill="none" stroke="black" d="M5666,-85.09C5666,-107.01 5666,-140.8 5666,-140.8 5666,-140.8 5454.99,-140.8 5454.99,-140.8"/>
<polygon fill="black" stroke="black" points="5454.99,-137.3 5444.99,-140.8 5454.99,-144.3 5454.99,-137.3"/>
</g>
<!-- IndexComponent -->
<g id="node11" class="node">
<title>IndexComponent</title>
<polygon fill="#ffffb3" stroke="black" points="5585.71,-84.8 5472.29,-84.8 5472.29,-48.8 5585.71,-48.8 5585.71,-84.8"/>
<text text-anchor="middle" x="5529" y="-62.6" font-family="Times,serif" font-size="14.00">IndexComponent</text>
</g>
<!-- IndexComponent&#45;&gt;HomeModule -->
<g id="edge10" class="edge">
<title>IndexComponent&#45;&gt;HomeModule</title>
<path fill="none" stroke="black" d="M5529,-85.07C5529,-103.36 5529,-128.8 5529,-128.8 5529,-128.8 5454.92,-128.8 5454.92,-128.8"/>
<polygon fill="black" stroke="black" points="5454.92,-125.3 5444.92,-128.8 5454.92,-132.3 5454.92,-125.3"/>
</g>
<!-- NewsComponent -->
<g id="node12" class="node">
<title>NewsComponent</title>
<polygon fill="#ffffb3" stroke="black" points="5454.7,-84.8 5341.3,-84.8 5341.3,-48.8 5454.7,-48.8 5454.7,-84.8"/>
<text text-anchor="middle" x="5398" y="-62.6" font-family="Times,serif" font-size="14.00">NewsComponent</text>
</g>
<!-- NewsComponent&#45;&gt;HomeModule -->
<g id="edge11" class="edge">
<title>NewsComponent&#45;&gt;HomeModule</title>
<path fill="none" stroke="black" d="M5398,-85.02C5398,-85.02 5398,-106.53 5398,-106.53"/>
<polygon fill="black" stroke="black" points="5394.5,-106.53 5398,-116.53 5401.5,-106.53 5394.5,-106.53"/>
</g>
<!-- ProfileComponent -->
<g id="node13" class="node">
<title>ProfileComponent</title>
<polygon fill="#ffffb3" stroke="black" points="5323.93,-84.8 5204.07,-84.8 5204.07,-48.8 5323.93,-48.8 5323.93,-84.8"/>
<text text-anchor="middle" x="5264" y="-62.6" font-family="Times,serif" font-size="14.00">ProfileComponent</text>
</g>
<!-- ProfileComponent&#45;&gt;HomeModule -->
<g id="edge12" class="edge">
<title>ProfileComponent&#45;&gt;HomeModule</title>
<path fill="none" stroke="black" d="M5264,-84.81C5264,-107.29 5264,-142.8 5264,-142.8 5264,-142.8 5341.13,-142.8 5341.13,-142.8"/>
<polygon fill="black" stroke="black" points="5341.13,-146.3 5351.13,-142.8 5341.13,-139.3 5341.13,-146.3"/>
</g>
<!-- HomeRoutingModule -->
<g id="node15" class="node">
<title>HomeRoutingModule</title>
<polygon fill="#8dd3c7" stroke="black" points="5180.38,-84.8 5177.38,-88.8 5156.38,-88.8 5153.38,-84.8 5041.62,-84.8 5041.62,-48.8 5180.38,-48.8 5180.38,-84.8"/>
<text text-anchor="middle" x="5111" y="-62.6" font-family="Times,serif" font-size="14.00">HomeRoutingModule</text>
</g>
<!-- HomeRoutingModule&#45;&gt;HomeModule -->
<g id="edge13" class="edge">
<title>HomeRoutingModule&#45;&gt;HomeModule</title>
<path fill="none" stroke="black" d="M5111,-85.18C5111,-109.08 5111,-147.8 5111,-147.8 5111,-147.8 5340.93,-147.8 5340.93,-147.8"/>
<polygon fill="black" stroke="black" points="5340.93,-151.3 5350.93,-147.8 5340.93,-144.3 5340.93,-151.3"/>
</g>
<!-- LogDetailComponent -->
<g id="node16" class="node">
<title>LogDetailComponent</title>
<polygon fill="#ffffb3" stroke="black" points="3689.09,-84.8 3550.91,-84.8 3550.91,-48.8 3689.09,-48.8 3689.09,-84.8"/>
<text text-anchor="middle" x="3620" y="-62.6" font-family="Times,serif" font-size="14.00">LogDetailComponent</text>
</g>
<!-- LogDetailComponent&#45;&gt;LogModule -->
<g id="edge14" class="edge">
<title>LogDetailComponent&#45;&gt;LogModule</title>
<path fill="none" stroke="black" d="M3620,-84.83C3620,-101.86 3620,-124.8 3620,-124.8 3620,-124.8 3445.19,-124.8 3445.19,-124.8"/>
<polygon fill="black" stroke="black" points="3445.19,-121.3 3435.19,-124.8 3445.19,-128.3 3445.19,-121.3"/>
</g>
<!-- LogListComponent -->
<g id="node17" class="node">
<title>LogListComponent</title>
<polygon fill="#ffffb3" stroke="black" points="3532.66,-84.8 3407.34,-84.8 3407.34,-48.8 3532.66,-48.8 3532.66,-84.8"/>
<text text-anchor="middle" x="3470" y="-62.6" font-family="Times,serif" font-size="14.00">LogListComponent</text>
</g>
<!-- LogListComponent&#45;&gt;LogModule -->
<g id="edge15" class="edge">
<title>LogListComponent&#45;&gt;LogModule</title>
<path fill="none" stroke="black" d="M3421.11,-85.02C3421.11,-85.02 3421.11,-106.53 3421.11,-106.53"/>
<polygon fill="black" stroke="black" points="3417.61,-106.53 3421.11,-116.53 3424.61,-106.53 3417.61,-106.53"/>
</g>
<!-- LogRoutingModule -->
<g id="node19" class="node">
<title>LogRoutingModule</title>
<polygon fill="#8dd3c7" stroke="black" points="3382.72,-84.8 3379.72,-88.8 3358.72,-88.8 3355.72,-84.8 3255.28,-84.8 3255.28,-48.8 3382.72,-48.8 3382.72,-84.8"/>
<text text-anchor="middle" x="3319" y="-62.6" font-family="Times,serif" font-size="14.00">LogRoutingModule</text>
</g>
<!-- LogRoutingModule&#45;&gt;LogModule -->
<g id="edge16" class="edge">
<title>LogRoutingModule&#45;&gt;LogModule</title>
<path fill="none" stroke="black" d="M3372.72,-85.02C3372.72,-85.02 3372.72,-106.53 3372.72,-106.53"/>
<polygon fill="black" stroke="black" points="3369.22,-106.53 3372.72,-116.53 3376.22,-106.53 3369.22,-106.53"/>
</g>
<!-- AdsComponent -->
<g id="node20" class="node">
<title>AdsComponent</title>
<polygon fill="#ffffb3" stroke="black" points="2035.88,-152.8 1932.12,-152.8 1932.12,-116.8 2035.88,-116.8 2035.88,-152.8"/>
<text text-anchor="middle" x="1984" y="-130.6" font-family="Times,serif" font-size="14.00">AdsComponent</text>
</g>
<!-- AdsComponent&#45;&gt;SharedModule -->
<g id="edge18" class="edge">
<title>AdsComponent&#45;&gt;SharedModule</title>
<path fill="none" stroke="black" d="M1984,-116.52C1984,-100.85 1984,-80.8 1984,-80.8 1984,-80.8 2342.41,-80.8 2342.41,-80.8"/>
<polygon fill="black" stroke="black" points="2342.41,-84.3 2352.41,-80.8 2342.41,-77.3 2342.41,-84.3"/>
</g>
<!-- AdsModalComponent -->
<g id="node21" class="node">
<title>AdsModalComponent</title>
<polygon fill="#ffffb3" stroke="black" points="1914.43,-152.8 1773.57,-152.8 1773.57,-116.8 1914.43,-116.8 1914.43,-152.8"/>
<text text-anchor="middle" x="1844" y="-130.6" font-family="Times,serif" font-size="14.00">AdsModalComponent</text>
</g>
<!-- AdsModalComponent&#45;&gt;SharedModule -->
<g id="edge19" class="edge">
<title>AdsModalComponent&#45;&gt;SharedModule</title>
<path fill="none" stroke="black" d="M1844,-116.77C1844,-100.4 1844,-78.8 1844,-78.8 1844,-78.8 2342.48,-78.8 2342.48,-78.8"/>
<polygon fill="black" stroke="black" points="2342.48,-82.3 2352.48,-78.8 2342.48,-75.3 2342.48,-82.3"/>
</g>
<!-- AmazonAdsComponent -->
<g id="node22" class="node">
<title>AmazonAdsComponent</title>
<polygon fill="#ffffb3" stroke="black" points="1755.81,-152.8 1604.19,-152.8 1604.19,-116.8 1755.81,-116.8 1755.81,-152.8"/>
<text text-anchor="middle" x="1680" y="-130.6" font-family="Times,serif" font-size="14.00">AmazonAdsComponent</text>
</g>
<!-- AmazonAdsComponent&#45;&gt;SharedModule -->
<g id="edge20" class="edge">
<title>AmazonAdsComponent&#45;&gt;SharedModule</title>
<path fill="none" stroke="black" d="M1680,-116.78C1680,-99.43 1680,-75.8 1680,-75.8 1680,-75.8 2342.66,-75.8 2342.66,-75.8"/>
<polygon fill="black" stroke="black" points="2342.66,-79.3 2352.66,-75.8 2342.66,-72.3 2342.66,-79.3"/>
</g>
<!-- LoadingComponent -->
<g id="node23" class="node">
<title>LoadingComponent</title>
<polygon fill="#ffffb3" stroke="black" points="1585.99,-152.8 1458.01,-152.8 1458.01,-116.8 1585.99,-116.8 1585.99,-152.8"/>
<text text-anchor="middle" x="1522" y="-130.6" font-family="Times,serif" font-size="14.00">LoadingComponent</text>
</g>
<!-- LoadingComponent&#45;&gt;SharedModule -->
<g id="edge21" class="edge">
<title>LoadingComponent&#45;&gt;SharedModule</title>
<path fill="none" stroke="black" d="M1522,-116.5C1522,-98.53 1522,-73.8 1522,-73.8 1522,-73.8 2342.48,-73.8 2342.48,-73.8"/>
<polygon fill="black" stroke="black" points="2342.48,-77.3 2352.48,-73.8 2342.48,-70.3 2342.48,-77.3"/>
</g>
<!-- MdescapePipe -->
<g id="node24" class="node">
<title>MdescapePipe</title>
<polygon fill="#ffffb3" stroke="black" points="1439.64,-152.8 1342.36,-152.8 1342.36,-116.8 1439.64,-116.8 1439.64,-152.8"/>
<text text-anchor="middle" x="1391" y="-130.6" font-family="Times,serif" font-size="14.00">MdescapePipe</text>
</g>
<!-- MdescapePipe&#45;&gt;SharedModule -->
<g id="edge22" class="edge">
<title>MdescapePipe&#45;&gt;SharedModule</title>
<path fill="none" stroke="black" d="M1391,-116.58C1391,-97.97 1391,-71.8 1391,-71.8 1391,-71.8 2342.55,-71.8 2342.55,-71.8"/>
<polygon fill="black" stroke="black" points="2342.55,-75.3 2352.55,-71.8 2342.55,-68.3 2342.55,-75.3"/>
</g>
<!-- MessageComponent -->
<g id="node25" class="node">
<title>MessageComponent</title>
<polygon fill="#ffffb3" stroke="black" points="1324.31,-152.8 1193.69,-152.8 1193.69,-116.8 1324.31,-116.8 1324.31,-152.8"/>
<text text-anchor="middle" x="1259" y="-130.6" font-family="Times,serif" font-size="14.00">MessageComponent</text>
</g>
<!-- MessageComponent&#45;&gt;SharedModule -->
<g id="edge23" class="edge">
<title>MessageComponent&#45;&gt;SharedModule</title>
<path fill="none" stroke="black" d="M1259,-116.69C1259,-97.46 1259,-69.8 1259,-69.8 1259,-69.8 2342.52,-69.8 2342.52,-69.8"/>
<polygon fill="black" stroke="black" points="2342.52,-73.3 2352.52,-69.8 2342.52,-66.3 2342.52,-73.3"/>
</g>
<!-- NavComponent -->
<g id="node26" class="node">
<title>NavComponent</title>
<polygon fill="#ffffb3" stroke="black" points="2313.15,-152.8 2208.85,-152.8 2208.85,-116.8 2313.15,-116.8 2313.15,-152.8"/>
<text text-anchor="middle" x="2261" y="-130.6" font-family="Times,serif" font-size="14.00">NavComponent</text>
</g>
<!-- NavComponent&#45;&gt;SharedModule -->
<g id="edge24" class="edge">
<title>NavComponent&#45;&gt;SharedModule</title>
<path fill="none" stroke="black" d="M2313.41,-128.8C2359.2,-128.8 2418.4,-128.8 2418.4,-128.8 2418.4,-128.8 2418.4,-95.07 2418.4,-95.07"/>
<polygon fill="black" stroke="black" points="2421.9,-95.07 2418.4,-85.07 2414.9,-95.07 2421.9,-95.07"/>
</g>
<!-- TweetBtnComponent -->
<g id="node27" class="node">
<title>TweetBtnComponent</title>
<polygon fill="#ffffb3" stroke="black" points="2190.04,-152.8 2053.96,-152.8 2053.96,-116.8 2190.04,-116.8 2190.04,-152.8"/>
<text text-anchor="middle" x="2122" y="-130.6" font-family="Times,serif" font-size="14.00">TweetBtnComponent</text>
</g>
<!-- TweetBtnComponent&#45;&gt;SharedModule -->
<g id="edge25" class="edge">
<title>TweetBtnComponent&#45;&gt;SharedModule</title>
<path fill="none" stroke="black" d="M2122,-116.61C2122,-101.62 2122,-82.8 2122,-82.8 2122,-82.8 2342.59,-82.8 2342.59,-82.8"/>
<polygon fill="black" stroke="black" points="2342.59,-86.3 2352.59,-82.8 2342.59,-79.3 2342.59,-86.3"/>
</g>
<!-- AmazonAssociateComponent -->
<g id="node36" class="node">
<title>AmazonAssociateComponent</title>
<polygon fill="#ffffb3" stroke="black" points="4700.68,-84.8 4517.32,-84.8 4517.32,-48.8 4700.68,-48.8 4700.68,-84.8"/>
<text text-anchor="middle" x="4609" y="-62.6" font-family="Times,serif" font-size="14.00">AmazonAssociateComponent</text>
</g>
<!-- AmazonAssociateComponent&#45;&gt;ToolsModule -->
<g id="edge34" class="edge">
<title>AmazonAssociateComponent&#45;&gt;ToolsModule</title>
<path fill="none" stroke="black" d="M4609,-85.1C4609,-103.07 4609,-127.8 4609,-127.8 4609,-127.8 4334.02,-127.8 4334.02,-127.8"/>
<polygon fill="black" stroke="black" points="4334.02,-124.3 4324.02,-127.8 4334.02,-131.3 4334.02,-124.3"/>
</g>
<!-- Base64Component -->
<g id="node37" class="node">
<title>Base64Component</title>
<polygon fill="#ffffb3" stroke="black" points="4499.04,-84.8 4376.96,-84.8 4376.96,-48.8 4499.04,-48.8 4499.04,-84.8"/>
<text text-anchor="middle" x="4438" y="-62.6" font-family="Times,serif" font-size="14.00">Base64Component</text>
</g>
<!-- Base64Component&#45;&gt;ToolsModule -->
<g id="edge35" class="edge">
<title>Base64Component&#45;&gt;ToolsModule</title>
<path fill="none" stroke="black" d="M4438,-84.83C4438,-101.2 4438,-122.8 4438,-122.8 4438,-122.8 4333.85,-122.8 4333.85,-122.8"/>
<polygon fill="black" stroke="black" points="4333.85,-119.3 4323.85,-122.8 4333.85,-126.3 4333.85,-119.3"/>
</g>
<!-- JsonFormatterComponent -->
<g id="node38" class="node">
<title>JsonFormatterComponent</title>
<polygon fill="#ffffb3" stroke="black" points="4358.93,-84.8 4197.07,-84.8 4197.07,-48.8 4358.93,-48.8 4358.93,-84.8"/>
<text text-anchor="middle" x="4278" y="-62.6" font-family="Times,serif" font-size="14.00">JsonFormatterComponent</text>
</g>
<!-- JsonFormatterComponent&#45;&gt;ToolsModule -->
<g id="edge36" class="edge">
<title>JsonFormatterComponent&#45;&gt;ToolsModule</title>
<path fill="none" stroke="black" d="M4293.24,-85.02C4293.24,-85.02 4293.24,-106.53 4293.24,-106.53"/>
<polygon fill="black" stroke="black" points="4289.74,-106.53 4293.24,-116.53 4296.74,-106.53 4289.74,-106.53"/>
</g>
<!-- JsonTyperComponent -->
<g id="node39" class="node">
<title>JsonTyperComponent</title>
<polygon fill="#ffffb3" stroke="black" points="4178.65,-84.8 4039.35,-84.8 4039.35,-48.8 4178.65,-48.8 4178.65,-84.8"/>
<text text-anchor="middle" x="4109" y="-62.6" font-family="Times,serif" font-size="14.00">JsonTyperComponent</text>
</g>
<!-- JsonTyperComponent&#45;&gt;ToolsModule -->
<g id="edge37" class="edge">
<title>JsonTyperComponent&#45;&gt;ToolsModule</title>
<path fill="none" stroke="black" d="M4109,-84.91C4109,-104.14 4109,-131.8 4109,-131.8 4109,-131.8 4222.27,-131.8 4222.27,-131.8"/>
<polygon fill="black" stroke="black" points="4222.27,-135.3 4232.27,-131.8 4222.27,-128.3 4222.27,-135.3"/>
</g>
<!-- RealtimeComponent -->
<g id="node40" class="node">
<title>RealtimeComponent</title>
<polygon fill="#ffffb3" stroke="black" points="4020.88,-84.8 3889.12,-84.8 3889.12,-48.8 4020.88,-48.8 4020.88,-84.8"/>
<text text-anchor="middle" x="3955" y="-62.6" font-family="Times,serif" font-size="14.00">RealtimeComponent</text>
</g>
<!-- RealtimeComponent&#45;&gt;ToolsModule -->
<g id="edge38" class="edge">
<title>RealtimeComponent&#45;&gt;ToolsModule</title>
<path fill="none" stroke="black" d="M3955,-84.97C3955,-106.3 3955,-138.8 3955,-138.8 3955,-138.8 4222.07,-138.8 4222.07,-138.8"/>
<polygon fill="black" stroke="black" points="4222.07,-142.3 4232.07,-138.8 4222.06,-135.3 4222.07,-142.3"/>
</g>
<!-- ToolsListComponent -->
<g id="node41" class="node">
<title>ToolsListComponent</title>
<polygon fill="#ffffb3" stroke="black" points="5002.5,-84.8 4867.5,-84.8 4867.5,-48.8 5002.5,-48.8 5002.5,-84.8"/>
<text text-anchor="middle" x="4935" y="-62.6" font-family="Times,serif" font-size="14.00">ToolsListComponent</text>
</g>
<!-- ToolsListComponent&#45;&gt;ToolsModule -->
<g id="edge39" class="edge">
<title>ToolsListComponent&#45;&gt;ToolsModule</title>
<path fill="none" stroke="black" d="M4935,-85.08C4935,-106.12 4935,-137.8 4935,-137.8 4935,-137.8 4333.94,-137.8 4333.94,-137.8"/>
<polygon fill="black" stroke="black" points="4333.94,-134.3 4323.94,-137.8 4333.94,-141.3 4333.94,-134.3"/>
</g>
<!-- UserInfoComponent -->
<g id="node42" class="node">
<title>UserInfoComponent</title>
<polygon fill="#ffffb3" stroke="black" points="4849.58,-84.8 4718.42,-84.8 4718.42,-48.8 4849.58,-48.8 4849.58,-84.8"/>
<text text-anchor="middle" x="4784" y="-62.6" font-family="Times,serif" font-size="14.00">UserInfoComponent</text>
</g>
<!-- UserInfoComponent&#45;&gt;ToolsModule -->
<g id="edge40" class="edge">
<title>UserInfoComponent&#45;&gt;ToolsModule</title>
<path fill="none" stroke="black" d="M4784,-84.83C4784,-104.38 4784,-132.8 4784,-132.8 4784,-132.8 4333.8,-132.8 4333.8,-132.8"/>
<polygon fill="black" stroke="black" points="4333.8,-129.3 4323.8,-132.8 4333.8,-136.3 4333.8,-129.3"/>
</g>
<!-- ToolsRoutingModule -->
<g id="node44" class="node">
<title>ToolsRoutingModule</title>
<polygon fill="#8dd3c7" stroke="black" points="3865.06,-84.8 3862.06,-88.8 3841.06,-88.8 3838.06,-84.8 3728.94,-84.8 3728.94,-48.8 3865.06,-48.8 3865.06,-84.8"/>
<text text-anchor="middle" x="3797" y="-62.6" font-family="Times,serif" font-size="14.00">ToolsRoutingModule</text>
</g>
<!-- ToolsRoutingModule&#45;&gt;ToolsModule -->
<g id="edge42" class="edge">
<title>ToolsRoutingModule&#45;&gt;ToolsModule</title>
<path fill="none" stroke="black" d="M3797,-85.12C3797,-108.46 3797,-145.8 3797,-145.8 3797,-145.8 4221.88,-145.8 4221.88,-145.8"/>
<polygon fill="black" stroke="black" points="4221.88,-149.3 4231.88,-145.8 4221.88,-142.3 4221.88,-149.3"/>
</g>
</g>
</svg>
