<?xml version="1.0" encoding="UTF-8" standalone="no"?>
<!DOCTYPE svg PUBLIC "-//W3C//DTD SVG 1.1//EN"
 "http://www.w3.org/Graphics/SVG/1.1/DTD/svg11.dtd">
<!-- Generated by graphviz version 2.47.3 (20210619.1520)
 -->
<!-- Title: dependencies Pages: 1 -->
<svg width="1254pt" height="247pt"
 viewBox="0.00 0.00 1254.00 246.80" xmlns="http://www.w3.org/2000/svg" xmlns:xlink="http://www.w3.org/1999/xlink">
<g id="graph0" class="graph" transform="scale(1 1) rotate(0) translate(4 242.8)">
<title>dependencies</title>
<polygon fill="white" stroke="transparent" points="-4,4 -4,-242.8 1250,-242.8 1250,4 -4,4"/>
<text text-anchor="middle" x="623" y="-8.2" font-family="sans-serif" font-size="14.00">dependencies</text>
<g id="clust1" class="cluster">
<title>cluster_AppModule</title>
<polygon fill="none" stroke="black" stroke-dasharray="1,5" points="8,-32.8 8,-230.8 298,-230.8 298,-32.8 8,-32.8"/>
</g>
<g id="clust2" class="cluster">
<title>cluster_AppModule_declarations</title>
<polygon fill="none" stroke="black" points="168,-40.8 168,-92.8 290,-92.8 290,-40.8 168,-40.8"/>
</g>
<g id="clust4" class="cluster">
<title>cluster_AppModule_imports</title>
<polygon fill="none" stroke="black" points="16,-40.8 16,-92.8 160,-92.8 160,-40.8 16,-40.8"/>
</g>
<g id="clust6" class="cluster">
<title>cluster_AppModule_bootstrap</title>
<polygon fill="none" stroke="black" points="96,-170.8 96,-222.8 220,-222.8 220,-170.8 96,-170.8"/>
</g>
<g id="clust14" class="cluster">
<title>cluster_BlogModule</title>
<polygon fill="none" stroke="black" stroke-dasharray="1,5" points="306,-32.8 306,-157.8 785,-157.8 785,-32.8 306,-32.8"/>
</g>
<g id="clust15" class="cluster">
<title>cluster_BlogModule_declarations</title>
<polygon fill="none" stroke="black" points="470,-40.8 470,-92.8 777,-92.8 777,-40.8 470,-40.8"/>
</g>
<g id="clust18" class="cluster">
<title>cluster_BlogModule_imports</title>
<polygon fill="none" stroke="black" points="314,-40.8 314,-92.8 462,-92.8 462,-40.8 314,-40.8"/>
</g>
<g id="clust28" class="cluster">
<title>cluster_HomeModule</title>
<polygon fill="none" stroke="black" stroke-dasharray="1,5" points="793,-32.8 793,-157.8 1238,-157.8 1238,-32.8 793,-32.8"/>
</g>
<g id="clust29" class="cluster">
<title>cluster_HomeModule_declarations</title>
<polygon fill="none" stroke="black" points="963,-40.8 963,-92.8 1230,-92.8 1230,-40.8 963,-40.8"/>
</g>
<g id="clust32" class="cluster">
<title>cluster_HomeModule_imports</title>
<polygon fill="none" stroke="black" points="801,-40.8 801,-92.8 955,-92.8 955,-40.8 801,-40.8"/>
</g>
<!-- AppComponent -->
<g id="node1" class="node">
<title>AppComponent</title>
<polygon fill="#ffffb3" stroke="black" points="281.94,-84.8 176.06,-84.8 176.06,-48.8 281.94,-48.8 281.94,-84.8"/>
<text text-anchor="middle" x="229" y="-62.6" font-family="Times,serif" font-size="14.00">AppComponent</text>
</g>
<!-- AppModule -->
<g id="node2" class="node">
<title>AppModule</title>
<polygon fill="#8dd3c7" stroke="black" points="199.66,-149.8 196.66,-153.8 175.66,-153.8 172.66,-149.8 116.34,-149.8 116.34,-113.8 199.66,-113.8 199.66,-149.8"/>
<text text-anchor="middle" x="158" y="-127.6" font-family="Times,serif" font-size="14.00">AppModule</text>
</g>
<!-- AppComponent&#45;&gt;AppModule -->
<g id="edge1" class="edge">
<title>AppComponent&#45;&gt;AppModule</title>
<path fill="none" stroke="black" d="M188.05,-84.91C188.05,-84.91 188.05,-103.79 188.05,-103.79"/>
<polygon fill="black" stroke="black" points="184.55,-103.79 188.05,-113.79 191.55,-103.79 184.55,-103.79"/>
</g>
<!-- AppComponent  -->
<g id="node4" class="node">
<title>AppComponent </title>
<polygon fill="#80b1d3" stroke="black" points="212.44,-214.8 103.56,-214.8 103.56,-178.8 212.44,-178.8 212.44,-214.8"/>
<text text-anchor="middle" x="158" y="-192.6" font-family="Times,serif" font-size="14.00">AppComponent </text>
</g>
<!-- AppModule&#45;&gt;AppComponent  -->
<g id="edge3" class="edge">
<title>AppModule&#45;&gt;AppComponent </title>
<path fill="none" stroke="black" stroke-dasharray="1,5" d="M158,-149.91C158,-149.91 158,-168.79 158,-168.79"/>
<polygon fill="black" stroke="black" points="154.5,-168.79 158,-178.79 161.5,-168.79 154.5,-168.79"/>
</g>
<!-- AppRoutingModule -->
<g id="node3" class="node">
<title>AppRoutingModule</title>
<polygon fill="#8dd3c7" stroke="black" points="152.27,-84.8 149.27,-88.8 128.27,-88.8 125.27,-84.8 23.73,-84.8 23.73,-48.8 152.27,-48.8 152.27,-84.8"/>
<text text-anchor="middle" x="88" y="-62.6" font-family="Times,serif" font-size="14.00">AppRoutingModule</text>
</g>
<!-- AppRoutingModule&#45;&gt;AppModule -->
<g id="edge2" class="edge">
<title>AppRoutingModule&#45;&gt;AppModule</title>
<path fill="none" stroke="black" d="M134.28,-84.91C134.28,-84.91 134.28,-103.79 134.28,-103.79"/>
<polygon fill="black" stroke="black" points="130.78,-103.79 134.28,-113.79 137.78,-103.79 130.78,-103.79"/>
</g>
<!-- BlogDetailComponent -->
<g id="node5" class="node">
<title>BlogDetailComponent</title>
<polygon fill="#ffffb3" stroke="black" points="769.27,-84.8 626.73,-84.8 626.73,-48.8 769.27,-48.8 769.27,-84.8"/>
<text text-anchor="middle" x="698" y="-62.6" font-family="Times,serif" font-size="14.00">BlogDetailComponent</text>
</g>
<!-- BlogModule -->
<g id="node7" class="node">
<title>BlogModule</title>
<polygon fill="#8dd3c7" stroke="black" points="586.28,-149.8 583.28,-153.8 562.28,-153.8 559.28,-149.8 499.72,-149.8 499.72,-113.8 586.28,-113.8 586.28,-149.8"/>
<text text-anchor="middle" x="543" y="-127.6" font-family="Times,serif" font-size="14.00">BlogModule</text>
</g>
<!-- BlogDetailComponent&#45;&gt;BlogModule -->
<g id="edge4" class="edge">
<title>BlogDetailComponent&#45;&gt;BlogModule</title>
<path fill="none" stroke="black" d="M698,-84.82C698,-102.17 698,-125.8 698,-125.8 698,-125.8 596.59,-125.8 596.59,-125.8"/>
<polygon fill="black" stroke="black" points="596.59,-122.3 586.59,-125.8 596.59,-129.3 596.59,-122.3"/>
</g>
<!-- BlogListComponent -->
<g id="node6" class="node">
<title>BlogListComponent</title>
<polygon fill="#ffffb3" stroke="black" points="608.34,-84.8 477.66,-84.8 477.66,-48.8 608.34,-48.8 608.34,-84.8"/>
<text text-anchor="middle" x="543" y="-62.6" font-family="Times,serif" font-size="14.00">BlogListComponent</text>
</g>
<!-- BlogListComponent&#45;&gt;BlogModule -->
<g id="edge5" class="edge">
<title>BlogListComponent&#45;&gt;BlogModule</title>
<path fill="none" stroke="black" d="M543,-84.91C543,-84.91 543,-103.79 543,-103.79"/>
<polygon fill="black" stroke="black" points="539.5,-103.79 543,-113.79 546.5,-103.79 539.5,-103.79"/>
</g>
<!-- BlogRoutingModule -->
<g id="node8" class="node">
<title>BlogRoutingModule</title>
<polygon fill="#8dd3c7" stroke="black" points="453.89,-84.8 450.89,-88.8 429.89,-88.8 426.89,-84.8 322.11,-84.8 322.11,-48.8 453.89,-48.8 453.89,-84.8"/>
<text text-anchor="middle" x="388" y="-62.6" font-family="Times,serif" font-size="14.00">BlogRoutingModule</text>
</g>
<!-- BlogRoutingModule&#45;&gt;BlogModule -->
<g id="edge6" class="edge">
<title>BlogRoutingModule&#45;&gt;BlogModule</title>
<path fill="none" stroke="black" d="M388,-84.91C388,-104.14 388,-131.8 388,-131.8 388,-131.8 489.41,-131.8 489.41,-131.8"/>
<polygon fill="black" stroke="black" points="489.41,-135.3 499.41,-131.8 489.41,-128.3 489.41,-135.3"/>
</g>
<!-- IndexComponent -->
<g id="node9" class="node">
<title>IndexComponent</title>
<polygon fill="#ffffb3" stroke="black" points="1221.71,-84.8 1108.29,-84.8 1108.29,-48.8 1221.71,-48.8 1221.71,-84.8"/>
<text text-anchor="middle" x="1165" y="-62.6" font-family="Times,serif" font-size="14.00">IndexComponent</text>
</g>
<!-- HomeModule -->
<g id="node11" class="node">
<title>HomeModule</title>
<polygon fill="#8dd3c7" stroke="black" points="1077.76,-149.8 1074.76,-153.8 1053.76,-153.8 1050.76,-149.8 984.24,-149.8 984.24,-113.8 1077.76,-113.8 1077.76,-149.8"/>
<text text-anchor="middle" x="1031" y="-127.6" font-family="Times,serif" font-size="14.00">HomeModule</text>
</g>
<!-- IndexComponent&#45;&gt;HomeModule -->
<g id="edge7" class="edge">
<title>IndexComponent&#45;&gt;HomeModule</title>
<path fill="none" stroke="black" d="M1165,-84.91C1165,-104.14 1165,-131.8 1165,-131.8 1165,-131.8 1087.87,-131.8 1087.87,-131.8"/>
<polygon fill="black" stroke="black" points="1087.87,-128.3 1077.87,-131.8 1087.87,-135.3 1087.87,-128.3"/>
</g>
<!-- ProfileComponent -->
<g id="node10" class="node">
<title>ProfileComponent</title>
<polygon fill="#ffffb3" stroke="black" points="1090.93,-84.8 971.07,-84.8 971.07,-48.8 1090.93,-48.8 1090.93,-84.8"/>
<text text-anchor="middle" x="1031" y="-62.6" font-family="Times,serif" font-size="14.00">ProfileComponent</text>
</g>
<!-- ProfileComponent&#45;&gt;HomeModule -->
<g id="edge8" class="edge">
<title>ProfileComponent&#45;&gt;HomeModule</title>
<path fill="none" stroke="black" d="M1031,-84.91C1031,-84.91 1031,-103.79 1031,-103.79"/>
<polygon fill="black" stroke="black" points="1027.5,-103.79 1031,-113.79 1034.5,-103.79 1027.5,-103.79"/>
</g>
<!-- HomeRoutingModule -->
<g id="node12" class="node">
<title>HomeRoutingModule</title>
<polygon fill="#8dd3c7" stroke="black" points="947.38,-84.8 944.38,-88.8 923.38,-88.8 920.38,-84.8 808.62,-84.8 808.62,-48.8 947.38,-48.8 947.38,-84.8"/>
<text text-anchor="middle" x="878" y="-62.6" font-family="Times,serif" font-size="14.00">HomeRoutingModule</text>
</g>
<!-- HomeRoutingModule&#45;&gt;HomeModule -->
<g id="edge9" class="edge">
<title>HomeRoutingModule&#45;&gt;HomeModule</title>
<path fill="none" stroke="black" d="M878,-85.08C878,-106.12 878,-137.8 878,-137.8 878,-137.8 973.85,-137.8 973.85,-137.8"/>
<polygon fill="black" stroke="black" points="973.85,-141.3 983.85,-137.8 973.85,-134.3 973.85,-141.3"/>
</g>
</g>
</svg>
