<?xml version="1.0" encoding="UTF-8" standalone="no"?>
<!DOCTYPE svg PUBLIC "-//W3C//DTD SVG 1.1//EN"
 "http://www.w3.org/Graphics/SVG/1.1/DTD/svg11.dtd">
<!-- Generated by graphviz version 2.47.3 (20210619.1520)
 -->
<!-- Title: dependencies Pages: 1 -->
<svg width="5054pt" height="253pt"
 viewBox="0.00 0.00 5054.00 252.80" xmlns="http://www.w3.org/2000/svg" xmlns:xlink="http://www.w3.org/1999/xlink">
<g id="graph0" class="graph" transform="scale(1 1) rotate(0) translate(4 248.8)">
<title>dependencies</title>
<polygon fill="white" stroke="transparent" points="-4,4 -4,-248.8 5050,-248.8 5050,4 -4,4"/>
<text text-anchor="middle" x="2523" y="-8.2" font-family="sans-serif" font-size="14.00">dependencies</text>
<g id="clust1" class="cluster">
<title>cluster_AppModule</title>
<polygon fill="none" stroke="black" stroke-dasharray="1,5" points="1770,-32.8 1770,-236.8 2177,-236.8 2177,-32.8 1770,-32.8"/>
</g>
<g id="clust2" class="cluster">
<title>cluster_AppModule_declarations</title>
<polygon fill="none" stroke="black" points="2047,-40.8 2047,-92.8 2169,-92.8 2169,-40.8 2047,-40.8"/>
</g>
<g id="clust4" class="cluster">
<title>cluster_AppModule_imports</title>
<polygon fill="none" stroke="black" points="1778,-40.8 1778,-92.8 2039,-92.8 2039,-40.8 1778,-40.8"/>
</g>
<g id="clust6" class="cluster">
<title>cluster_AppModule_bootstrap</title>
<polygon fill="none" stroke="black" points="1905,-176.8 1905,-228.8 2029,-228.8 2029,-176.8 1905,-176.8"/>
</g>
<g id="clust14" class="cluster">
<title>cluster_BlogModule</title>
<polygon fill="none" stroke="black" stroke-dasharray="1,5" points="2185,-32.8 2185,-160.8 2664,-160.8 2664,-32.8 2185,-32.8"/>
</g>
<g id="clust15" class="cluster">
<title>cluster_BlogModule_declarations</title>
<polygon fill="none" stroke="black" points="2349,-40.8 2349,-92.8 2656,-92.8 2656,-40.8 2349,-40.8"/>
</g>
<g id="clust18" class="cluster">
<title>cluster_BlogModule_imports</title>
<polygon fill="none" stroke="black" points="2193,-40.8 2193,-92.8 2341,-92.8 2341,-40.8 2193,-40.8"/>
</g>
<g id="clust28" class="cluster">
<title>cluster_HomeModule</title>
<polygon fill="none" stroke="black" stroke-dasharray="1,5" points="4319,-32.8 4319,-160.8 5038,-160.8 5038,-32.8 4319,-32.8"/>
</g>
<g id="clust29" class="cluster">
<title>cluster_HomeModule_declarations</title>
<polygon fill="none" stroke="black" points="4489,-40.8 4489,-92.8 5030,-92.8 5030,-40.8 4489,-40.8"/>
</g>
<g id="clust34" class="cluster">
<title>cluster_HomeModule_imports</title>
<polygon fill="none" stroke="black" points="4327,-40.8 4327,-92.8 4481,-92.8 4481,-40.8 4327,-40.8"/>
</g>
<g id="clust44" class="cluster">
<title>cluster_LogModule</title>
<polygon fill="none" stroke="black" stroke-dasharray="1,5" points="2672,-32.8 2672,-160.8 3138,-160.8 3138,-32.8 2672,-32.8"/>
</g>
<g id="clust45" class="cluster">
<title>cluster_LogModule_declarations</title>
<polygon fill="none" stroke="black" points="2832,-40.8 2832,-92.8 3130,-92.8 3130,-40.8 2832,-40.8"/>
</g>
<g id="clust48" class="cluster">
<title>cluster_LogModule_imports</title>
<polygon fill="none" stroke="black" points="2680,-40.8 2680,-92.8 2824,-92.8 2824,-40.8 2680,-40.8"/>
</g>
<g id="clust58" class="cluster">
<title>cluster_SharedModule</title>
<polygon fill="none" stroke="black" stroke-dasharray="1,5" points="8,-100.8 8,-168.8 1762,-168.8 1762,-100.8 8,-100.8"/>
</g>
<g id="clust59" class="cluster">
<title>cluster_SharedModule_declarations</title>
<polygon fill="none" stroke="black" points="899,-108.8 899,-160.8 1754,-160.8 1754,-108.8 899,-108.8"/>
</g>
<g id="clust67" class="cluster">
<title>cluster_SharedModule_exports</title>
<polygon fill="none" stroke="black" points="16,-108.8 16,-160.8 891,-160.8 891,-108.8 16,-108.8"/>
</g>
<g id="clust70" class="cluster">
<title>cluster_ToolsModule</title>
<polygon fill="none" stroke="black" stroke-dasharray="1,5" points="3146,-32.8 3146,-160.8 4311,-160.8 4311,-32.8 3146,-32.8"/>
</g>
<g id="clust71" class="cluster">
<title>cluster_ToolsModule_declarations</title>
<polygon fill="none" stroke="black" points="3314,-40.8 3314,-92.8 4303,-92.8 4303,-40.8 3314,-40.8"/>
</g>
<g id="clust78" class="cluster">
<title>cluster_ToolsModule_imports</title>
<polygon fill="none" stroke="black" points="3154,-40.8 3154,-92.8 3306,-92.8 3306,-40.8 3154,-40.8"/>
</g>
<!-- AppComponent -->
<g id="node1" class="node">
<title>AppComponent</title>
<polygon fill="#ffffb3" stroke="black" points="2160.94,-84.8 2055.06,-84.8 2055.06,-48.8 2160.94,-48.8 2160.94,-84.8"/>
<text text-anchor="middle" x="2108" y="-62.6" font-family="Times,serif" font-size="14.00">AppComponent</text>
</g>
<!-- AppModule -->
<g id="node2" class="node">
<title>AppModule</title>
<polygon fill="#8dd3c7" stroke="black" points="2008.66,-152.8 2005.66,-156.8 1984.66,-156.8 1981.66,-152.8 1925.34,-152.8 1925.34,-116.8 2008.66,-116.8 2008.66,-152.8"/>
<text text-anchor="middle" x="1967" y="-130.6" font-family="Times,serif" font-size="14.00">AppModule</text>
</g>
<!-- AppComponent&#45;&gt;AppModule -->
<g id="edge1" class="edge">
<title>AppComponent&#45;&gt;AppModule</title>
<path fill="none" stroke="black" d="M2108,-85.02C2108,-105.17 2108,-134.8 2108,-134.8 2108,-134.8 2018.92,-134.8 2018.92,-134.8"/>
<polygon fill="black" stroke="black" points="2018.92,-131.3 2008.92,-134.8 2018.92,-138.3 2018.92,-131.3"/>
</g>
<!-- AppComponent  -->
<g id="node5" class="node">
<title>AppComponent </title>
<polygon fill="#80b1d3" stroke="black" points="2021.44,-220.8 1912.56,-220.8 1912.56,-184.8 2021.44,-184.8 2021.44,-220.8"/>
<text text-anchor="middle" x="1967" y="-198.6" font-family="Times,serif" font-size="14.00">AppComponent </text>
</g>
<!-- AppModule&#45;&gt;AppComponent  -->
<g id="edge4" class="edge">
<title>AppModule&#45;&gt;AppComponent </title>
<path fill="none" stroke="black" stroke-dasharray="1,5" d="M1967,-153.02C1967,-153.02 1967,-174.53 1967,-174.53"/>
<polygon fill="black" stroke="black" points="1963.5,-174.53 1967,-184.53 1970.5,-174.53 1963.5,-174.53"/>
</g>
<!-- AppRoutingModule -->
<g id="node3" class="node">
<title>AppRoutingModule</title>
<polygon fill="#8dd3c7" stroke="black" points="2031.27,-84.8 2028.27,-88.8 2007.27,-88.8 2004.27,-84.8 1902.73,-84.8 1902.73,-48.8 2031.27,-48.8 2031.27,-84.8"/>
<text text-anchor="middle" x="1967" y="-62.6" font-family="Times,serif" font-size="14.00">AppRoutingModule</text>
</g>
<!-- AppRoutingModule&#45;&gt;AppModule -->
<g id="edge2" class="edge">
<title>AppRoutingModule&#45;&gt;AppModule</title>
<path fill="none" stroke="black" d="M1967,-85.02C1967,-85.02 1967,-106.53 1967,-106.53"/>
<polygon fill="black" stroke="black" points="1963.5,-106.53 1967,-116.53 1970.5,-106.53 1963.5,-106.53"/>
</g>
<!-- SharedModule -->
<g id="node4" class="node">
<title>SharedModule</title>
<polygon fill="#8dd3c7" stroke="black" points="1884.42,-84.8 1881.42,-88.8 1860.42,-88.8 1857.42,-84.8 1785.58,-84.8 1785.58,-48.8 1884.42,-48.8 1884.42,-84.8"/>
<text text-anchor="middle" x="1835" y="-62.6" font-family="Times,serif" font-size="14.00">SharedModule</text>
</g>
<!-- SharedModule&#45;&gt;AppModule -->
<g id="edge3" class="edge">
<title>SharedModule&#45;&gt;AppModule</title>
<path fill="none" stroke="black" d="M1864.53,-85.02C1864.53,-105.17 1864.53,-134.8 1864.53,-134.8 1864.53,-134.8 1915.32,-134.8 1915.32,-134.8"/>
<polygon fill="black" stroke="black" points="1915.32,-138.3 1925.32,-134.8 1915.32,-131.3 1915.32,-138.3"/>
</g>
<!-- BlogModule -->
<g id="node8" class="node">
<title>BlogModule</title>
<polygon fill="#8dd3c7" stroke="black" points="2387.28,-152.8 2384.28,-156.8 2363.28,-156.8 2360.28,-152.8 2300.72,-152.8 2300.72,-116.8 2387.28,-116.8 2387.28,-152.8"/>
<text text-anchor="middle" x="2344" y="-130.6" font-family="Times,serif" font-size="14.00">BlogModule</text>
</g>
<!-- SharedModule&#45;&gt;BlogModule -->
<g id="edge8" class="edge">
<title>SharedModule&#45;&gt;BlogModule</title>
<path fill="none" stroke="black" d="M1805.47,-84.86C1805.47,-96.24 1805.47,-108.8 1805.47,-108.8 1805.47,-108.8 2311.39,-108.8 2311.39,-108.8 2311.39,-108.8 2311.39,-109.59 2311.39,-109.59"/>
<polygon fill="black" stroke="black" points="2307.89,-106.74 2311.39,-116.74 2314.89,-106.74 2307.89,-106.74"/>
</g>
<!-- LogModule -->
<g id="node18" class="node">
<title>LogModule</title>
<polygon fill="#8dd3c7" stroke="black" points="2868.1,-152.8 2865.1,-156.8 2844.1,-156.8 2841.1,-152.8 2785.9,-152.8 2785.9,-116.8 2868.1,-116.8 2868.1,-152.8"/>
<text text-anchor="middle" x="2827" y="-130.6" font-family="Times,serif" font-size="14.00">LogModule</text>
</g>
<!-- SharedModule&#45;&gt;LogModule -->
<g id="edge17" class="edge">
<title>SharedModule&#45;&gt;LogModule</title>
<path fill="none" stroke="black" d="M1825.16,-84.99C1825.16,-93.08 1825.16,-100.8 1825.16,-100.8 1825.16,-100.8 2795.84,-100.8 2795.84,-100.8 2795.84,-100.8 2795.84,-106.61 2795.84,-106.61"/>
<polygon fill="black" stroke="black" points="2792.34,-106.61 2795.84,-116.61 2799.34,-106.61 2792.34,-106.61"/>
</g>
<!-- AmazonAdsComponent  -->
<g id="node26" class="node">
<title>AmazonAdsComponent </title>
<polygon fill="#fb8072" stroke="black" points="328.31,-152.8 173.69,-152.8 173.69,-116.8 328.31,-116.8 328.31,-152.8"/>
<text text-anchor="middle" x="251" y="-130.6" font-family="Times,serif" font-size="14.00">AmazonAdsComponent </text>
</g>
<!-- SharedModule&#45;&gt;AmazonAdsComponent  -->
<g id="edge24" class="edge">
<title>SharedModule&#45;&gt;AmazonAdsComponent </title>
<path fill="none" stroke="black" stroke-dasharray="5,2" d="M1785.42,-54.8C1517.11,-54.8 251,-54.8 251,-54.8 251,-54.8 251,-106.65 251,-106.65"/>
<polygon fill="black" stroke="black" points="247.5,-106.65 251,-116.65 254.5,-106.65 247.5,-106.65"/>
</g>
<!-- LoadingComponent  -->
<g id="node27" class="node">
<title>LoadingComponent </title>
<polygon fill="#fb8072" stroke="black" points="155.99,-152.8 24.01,-152.8 24.01,-116.8 155.99,-116.8 155.99,-152.8"/>
<text text-anchor="middle" x="90" y="-130.6" font-family="Times,serif" font-size="14.00">LoadingComponent </text>
</g>
<!-- SharedModule&#45;&gt;LoadingComponent  -->
<g id="edge25" class="edge">
<title>SharedModule&#45;&gt;LoadingComponent </title>
<path fill="none" stroke="black" stroke-dasharray="5,2" d="M1785.59,-51.8C1501.61,-51.8 90,-51.8 90,-51.8 90,-51.8 90,-106.79 90,-106.79"/>
<polygon fill="black" stroke="black" points="86.5,-106.79 90,-116.79 93.5,-106.79 86.5,-106.79"/>
</g>
<!-- MdescapePipe  -->
<g id="node28" class="node">
<title>MdescapePipe </title>
<polygon fill="#fb8072" stroke="black" points="882.64,-152.8 781.36,-152.8 781.36,-116.8 882.64,-116.8 882.64,-152.8"/>
<text text-anchor="middle" x="832" y="-130.6" font-family="Times,serif" font-size="14.00">MdescapePipe </text>
</g>
<!-- SharedModule&#45;&gt;MdescapePipe  -->
<g id="edge26" class="edge">
<title>SharedModule&#45;&gt;MdescapePipe </title>
<path fill="none" stroke="black" stroke-dasharray="5,2" d="M1785.6,-65.8C1583.72,-65.8 832,-65.8 832,-65.8 832,-65.8 832,-106.67 832,-106.67"/>
<polygon fill="black" stroke="black" points="828.5,-106.67 832,-116.67 835.5,-106.67 828.5,-106.67"/>
</g>
<!-- MessageComponent  -->
<g id="node29" class="node">
<title>MessageComponent </title>
<polygon fill="#fb8072" stroke="black" points="763.81,-152.8 630.19,-152.8 630.19,-116.8 763.81,-116.8 763.81,-152.8"/>
<text text-anchor="middle" x="697" y="-130.6" font-family="Times,serif" font-size="14.00">MessageComponent </text>
</g>
<!-- SharedModule&#45;&gt;MessageComponent  -->
<g id="edge27" class="edge">
<title>SharedModule&#45;&gt;MessageComponent </title>
<path fill="none" stroke="black" stroke-dasharray="5,2" d="M1785.74,-62.8C1567.31,-62.8 697,-62.8 697,-62.8 697,-62.8 697,-106.63 697,-106.63"/>
<polygon fill="black" stroke="black" points="693.5,-106.63 697,-116.63 700.5,-106.63 693.5,-106.63"/>
</g>
<!-- NavComponent  -->
<g id="node30" class="node">
<title>NavComponent </title>
<polygon fill="#fb8072" stroke="black" points="612.15,-152.8 503.85,-152.8 503.85,-116.8 612.15,-116.8 612.15,-152.8"/>
<text text-anchor="middle" x="558" y="-130.6" font-family="Times,serif" font-size="14.00">NavComponent </text>
</g>
<!-- SharedModule&#45;&gt;NavComponent  -->
<g id="edge28" class="edge">
<title>SharedModule&#45;&gt;NavComponent </title>
<path fill="none" stroke="black" stroke-dasharray="5,2" d="M1785.72,-60.8C1551.04,-60.8 558,-60.8 558,-60.8 558,-60.8 558,-106.51 558,-106.51"/>
<polygon fill="black" stroke="black" points="554.5,-106.51 558,-116.51 561.5,-106.51 554.5,-106.51"/>
</g>
<!-- TweetBtnComponent  -->
<g id="node31" class="node">
<title>TweetBtnComponent </title>
<polygon fill="#fb8072" stroke="black" points="486.04,-152.8 345.96,-152.8 345.96,-116.8 486.04,-116.8 486.04,-152.8"/>
<text text-anchor="middle" x="416" y="-130.6" font-family="Times,serif" font-size="14.00">TweetBtnComponent </text>
</g>
<!-- SharedModule&#45;&gt;TweetBtnComponent  -->
<g id="edge29" class="edge">
<title>SharedModule&#45;&gt;TweetBtnComponent </title>
<path fill="none" stroke="black" stroke-dasharray="5,2" d="M1785.74,-57.8C1535.41,-57.8 416,-57.8 416,-57.8 416,-57.8 416,-106.55 416,-106.55"/>
<polygon fill="black" stroke="black" points="412.5,-106.55 416,-116.55 419.5,-106.55 412.5,-106.55"/>
</g>
<!-- ToolsModule -->
<g id="node38" class="node">
<title>ToolsModule</title>
<polygon fill="#8dd3c7" stroke="black" points="3659.94,-152.8 3656.94,-156.8 3635.94,-156.8 3632.94,-152.8 3568.06,-152.8 3568.06,-116.8 3659.94,-116.8 3659.94,-152.8"/>
<text text-anchor="middle" x="3614" y="-130.6" font-family="Times,serif" font-size="14.00">ToolsModule</text>
</g>
<!-- SharedModule&#45;&gt;ToolsModule -->
<g id="edge36" class="edge">
<title>SharedModule&#45;&gt;ToolsModule</title>
<path fill="none" stroke="black" d="M1844.84,-84.86C1844.84,-89.29 1844.84,-92.8 1844.84,-92.8 1844.84,-92.8 3581.02,-92.8 3581.02,-92.8 3581.02,-92.8 3581.02,-106.74 3581.02,-106.74"/>
<polygon fill="black" stroke="black" points="3577.52,-106.74 3581.02,-116.74 3584.52,-106.74 3577.52,-106.74"/>
</g>
<!-- BlogDetailComponent -->
<g id="node6" class="node">
<title>BlogDetailComponent</title>
<polygon fill="#ffffb3" stroke="black" points="2648.27,-84.8 2505.73,-84.8 2505.73,-48.8 2648.27,-48.8 2648.27,-84.8"/>
<text text-anchor="middle" x="2577" y="-62.6" font-family="Times,serif" font-size="14.00">BlogDetailComponent</text>
</g>
<!-- BlogDetailComponent&#45;&gt;BlogModule -->
<g id="edge5" class="edge">
<title>BlogDetailComponent&#45;&gt;BlogModule</title>
<path fill="none" stroke="black" d="M2577,-85.02C2577,-105.17 2577,-134.8 2577,-134.8 2577,-134.8 2397.28,-134.8 2397.28,-134.8"/>
<polygon fill="black" stroke="black" points="2397.28,-131.3 2387.28,-134.8 2397.28,-138.3 2397.28,-131.3"/>
</g>
<!-- BlogListComponent -->
<g id="node7" class="node">
<title>BlogListComponent</title>
<polygon fill="#ffffb3" stroke="black" points="2487.34,-84.8 2356.66,-84.8 2356.66,-48.8 2487.34,-48.8 2487.34,-84.8"/>
<text text-anchor="middle" x="2422" y="-62.6" font-family="Times,serif" font-size="14.00">BlogListComponent</text>
</g>
<!-- BlogListComponent&#45;&gt;BlogModule -->
<g id="edge6" class="edge">
<title>BlogListComponent&#45;&gt;BlogModule</title>
<path fill="none" stroke="black" d="M2372.11,-85.02C2372.11,-85.02 2372.11,-106.53 2372.11,-106.53"/>
<polygon fill="black" stroke="black" points="2368.61,-106.53 2372.11,-116.53 2375.61,-106.53 2368.61,-106.53"/>
</g>
<!-- BlogRoutingModule -->
<g id="node9" class="node">
<title>BlogRoutingModule</title>
<polygon fill="#8dd3c7" stroke="black" points="2332.89,-84.8 2329.89,-88.8 2308.89,-88.8 2305.89,-84.8 2201.11,-84.8 2201.11,-48.8 2332.89,-48.8 2332.89,-84.8"/>
<text text-anchor="middle" x="2267" y="-62.6" font-family="Times,serif" font-size="14.00">BlogRoutingModule</text>
</g>
<!-- BlogRoutingModule&#45;&gt;BlogModule -->
<g id="edge7" class="edge">
<title>BlogRoutingModule&#45;&gt;BlogModule</title>
<path fill="none" stroke="black" d="M2322.17,-85.02C2322.17,-85.02 2322.17,-106.53 2322.17,-106.53"/>
<polygon fill="black" stroke="black" points="2318.67,-106.53 2322.17,-116.53 2325.67,-106.53 2318.67,-106.53"/>
</g>
<!-- ContactComponent -->
<g id="node10" class="node">
<title>ContactComponent</title>
<polygon fill="#ffffb3" stroke="black" points="4753.38,-84.8 4628.62,-84.8 4628.62,-48.8 4753.38,-48.8 4753.38,-84.8"/>
<text text-anchor="middle" x="4691" y="-62.6" font-family="Times,serif" font-size="14.00">ContactComponent</text>
</g>
<!-- HomeModule -->
<g id="node14" class="node">
<title>HomeModule</title>
<polygon fill="#8dd3c7" stroke="black" points="4737.76,-152.8 4734.76,-156.8 4713.76,-156.8 4710.76,-152.8 4644.24,-152.8 4644.24,-116.8 4737.76,-116.8 4737.76,-152.8"/>
<text text-anchor="middle" x="4691" y="-130.6" font-family="Times,serif" font-size="14.00">HomeModule</text>
</g>
<!-- ContactComponent&#45;&gt;HomeModule -->
<g id="edge9" class="edge">
<title>ContactComponent&#45;&gt;HomeModule</title>
<path fill="none" stroke="black" d="M4691,-85.02C4691,-85.02 4691,-106.53 4691,-106.53"/>
<polygon fill="black" stroke="black" points="4687.5,-106.53 4691,-116.53 4694.5,-106.53 4687.5,-106.53"/>
</g>
<!-- IndexComponent -->
<g id="node11" class="node">
<title>IndexComponent</title>
<polygon fill="#ffffb3" stroke="black" points="4610.71,-84.8 4497.29,-84.8 4497.29,-48.8 4610.71,-48.8 4610.71,-84.8"/>
<text text-anchor="middle" x="4554" y="-62.6" font-family="Times,serif" font-size="14.00">IndexComponent</text>
</g>
<!-- IndexComponent&#45;&gt;HomeModule -->
<g id="edge10" class="edge">
<title>IndexComponent&#45;&gt;HomeModule</title>
<path fill="none" stroke="black" d="M4554,-85.09C4554,-107.01 4554,-140.8 4554,-140.8 4554,-140.8 4634.24,-140.8 4634.24,-140.8"/>
<polygon fill="black" stroke="black" points="4634.24,-144.3 4644.24,-140.8 4634.24,-137.3 4634.24,-144.3"/>
</g>
<!-- NewsComponent -->
<g id="node12" class="node">
<title>NewsComponent</title>
<polygon fill="#ffffb3" stroke="black" points="5021.7,-84.8 4908.3,-84.8 4908.3,-48.8 5021.7,-48.8 5021.7,-84.8"/>
<text text-anchor="middle" x="4965" y="-62.6" font-family="Times,serif" font-size="14.00">NewsComponent</text>
</g>
<!-- NewsComponent&#45;&gt;HomeModule -->
<g id="edge11" class="edge">
<title>NewsComponent&#45;&gt;HomeModule</title>
<path fill="none" stroke="black" d="M4965,-85.09C4965,-107.01 4965,-140.8 4965,-140.8 4965,-140.8 4747.79,-140.8 4747.79,-140.8"/>
<polygon fill="black" stroke="black" points="4747.79,-137.3 4737.79,-140.8 4747.79,-144.3 4747.79,-137.3"/>
</g>
<!-- ProfileComponent -->
<g id="node13" class="node">
<title>ProfileComponent</title>
<polygon fill="#ffffb3" stroke="black" points="4890.93,-84.8 4771.07,-84.8 4771.07,-48.8 4890.93,-48.8 4890.93,-84.8"/>
<text text-anchor="middle" x="4831" y="-62.6" font-family="Times,serif" font-size="14.00">ProfileComponent</text>
</g>
<!-- ProfileComponent&#45;&gt;HomeModule -->
<g id="edge12" class="edge">
<title>ProfileComponent&#45;&gt;HomeModule</title>
<path fill="none" stroke="black" d="M4831,-85.07C4831,-103.36 4831,-128.8 4831,-128.8 4831,-128.8 4748.01,-128.8 4748.01,-128.8"/>
<polygon fill="black" stroke="black" points="4748.01,-125.3 4738.01,-128.8 4748.01,-132.3 4748.01,-125.3"/>
</g>
<!-- HomeRoutingModule -->
<g id="node15" class="node">
<title>HomeRoutingModule</title>
<polygon fill="#8dd3c7" stroke="black" points="4473.38,-84.8 4470.38,-88.8 4449.38,-88.8 4446.38,-84.8 4334.62,-84.8 4334.62,-48.8 4473.38,-48.8 4473.38,-84.8"/>
<text text-anchor="middle" x="4404" y="-62.6" font-family="Times,serif" font-size="14.00">HomeRoutingModule</text>
</g>
<!-- HomeRoutingModule&#45;&gt;HomeModule -->
<g id="edge13" class="edge">
<title>HomeRoutingModule&#45;&gt;HomeModule</title>
<path fill="none" stroke="black" d="M4404,-84.95C4404,-108.56 4404,-146.8 4404,-146.8 4404,-146.8 4633.93,-146.8 4633.93,-146.8"/>
<polygon fill="black" stroke="black" points="4633.93,-150.3 4643.93,-146.8 4633.93,-143.3 4633.93,-150.3"/>
</g>
<!-- LogDetailComponent -->
<g id="node16" class="node">
<title>LogDetailComponent</title>
<polygon fill="#ffffb3" stroke="black" points="3122.09,-84.8 2983.91,-84.8 2983.91,-48.8 3122.09,-48.8 3122.09,-84.8"/>
<text text-anchor="middle" x="3053" y="-62.6" font-family="Times,serif" font-size="14.00">LogDetailComponent</text>
</g>
<!-- LogDetailComponent&#45;&gt;LogModule -->
<g id="edge14" class="edge">
<title>LogDetailComponent&#45;&gt;LogModule</title>
<path fill="none" stroke="black" d="M3053,-84.82C3053,-102.17 3053,-125.8 3053,-125.8 3053,-125.8 2878.19,-125.8 2878.19,-125.8"/>
<polygon fill="black" stroke="black" points="2878.19,-122.3 2868.19,-125.8 2878.19,-129.3 2878.19,-122.3"/>
</g>
<!-- LogListComponent -->
<g id="node17" class="node">
<title>LogListComponent</title>
<polygon fill="#ffffb3" stroke="black" points="2965.66,-84.8 2840.34,-84.8 2840.34,-48.8 2965.66,-48.8 2965.66,-84.8"/>
<text text-anchor="middle" x="2903" y="-62.6" font-family="Times,serif" font-size="14.00">LogListComponent</text>
</g>
<!-- LogListComponent&#45;&gt;LogModule -->
<g id="edge15" class="edge">
<title>LogListComponent&#45;&gt;LogModule</title>
<path fill="none" stroke="black" d="M2854.11,-85.02C2854.11,-85.02 2854.11,-106.53 2854.11,-106.53"/>
<polygon fill="black" stroke="black" points="2850.61,-106.53 2854.11,-116.53 2857.61,-106.53 2850.61,-106.53"/>
</g>
<!-- LogRoutingModule -->
<g id="node19" class="node">
<title>LogRoutingModule</title>
<polygon fill="#8dd3c7" stroke="black" points="2815.72,-84.8 2812.72,-88.8 2791.72,-88.8 2788.72,-84.8 2688.28,-84.8 2688.28,-48.8 2815.72,-48.8 2815.72,-84.8"/>
<text text-anchor="middle" x="2752" y="-62.6" font-family="Times,serif" font-size="14.00">LogRoutingModule</text>
</g>
<!-- LogRoutingModule&#45;&gt;LogModule -->
<g id="edge16" class="edge">
<title>LogRoutingModule&#45;&gt;LogModule</title>
<path fill="none" stroke="black" d="M2805.72,-85.02C2805.72,-85.02 2805.72,-106.53 2805.72,-106.53"/>
<polygon fill="black" stroke="black" points="2802.22,-106.53 2805.72,-116.53 2809.22,-106.53 2802.22,-106.53"/>
</g>
<!-- AmazonAdsComponent -->
<g id="node20" class="node">
<title>AmazonAdsComponent</title>
<polygon fill="#ffffb3" stroke="black" points="1204.81,-152.8 1053.19,-152.8 1053.19,-116.8 1204.81,-116.8 1204.81,-152.8"/>
<text text-anchor="middle" x="1129" y="-130.6" font-family="Times,serif" font-size="14.00">AmazonAdsComponent</text>
</g>
<!-- AmazonAdsComponent&#45;&gt;SharedModule -->
<g id="edge18" class="edge">
<title>AmazonAdsComponent&#45;&gt;SharedModule</title>
<path fill="none" stroke="black" d="M1129,-116.58C1129,-97.97 1129,-71.8 1129,-71.8 1129,-71.8 1775.64,-71.8 1775.64,-71.8"/>
<polygon fill="black" stroke="black" points="1775.64,-75.3 1785.64,-71.8 1775.64,-68.3 1775.64,-75.3"/>
</g>
<!-- LoadingComponent -->
<g id="node21" class="node">
<title>LoadingComponent</title>
<polygon fill="#ffffb3" stroke="black" points="1034.99,-152.8 907.01,-152.8 907.01,-116.8 1034.99,-116.8 1034.99,-152.8"/>
<text text-anchor="middle" x="971" y="-130.6" font-family="Times,serif" font-size="14.00">LoadingComponent</text>
</g>
<!-- LoadingComponent&#45;&gt;SharedModule -->
<g id="edge19" class="edge">
<title>LoadingComponent&#45;&gt;SharedModule</title>
<path fill="none" stroke="black" d="M971,-116.77C971,-97.22 971,-68.8 971,-68.8 971,-68.8 1775.76,-68.8 1775.76,-68.8"/>
<polygon fill="black" stroke="black" points="1775.76,-72.3 1785.76,-68.8 1775.76,-65.3 1775.76,-72.3"/>
</g>
<!-- MdescapePipe -->
<g id="node22" class="node">
<title>MdescapePipe</title>
<polygon fill="#ffffb3" stroke="black" points="1745.64,-152.8 1648.36,-152.8 1648.36,-116.8 1745.64,-116.8 1745.64,-152.8"/>
<text text-anchor="middle" x="1697" y="-130.6" font-family="Times,serif" font-size="14.00">MdescapePipe</text>
</g>
<!-- MdescapePipe&#45;&gt;SharedModule -->
<g id="edge20" class="edge">
<title>MdescapePipe&#45;&gt;SharedModule</title>
<path fill="none" stroke="black" d="M1697,-116.61C1697,-101.62 1697,-82.8 1697,-82.8 1697,-82.8 1775.57,-82.8 1775.57,-82.8"/>
<polygon fill="black" stroke="black" points="1775.57,-86.3 1785.57,-82.8 1775.57,-79.3 1775.57,-86.3"/>
</g>
<!-- MessageComponent -->
<g id="node23" class="node">
<title>MessageComponent</title>
<polygon fill="#ffffb3" stroke="black" points="1630.31,-152.8 1499.69,-152.8 1499.69,-116.8 1630.31,-116.8 1630.31,-152.8"/>
<text text-anchor="middle" x="1565" y="-130.6" font-family="Times,serif" font-size="14.00">MessageComponent</text>
</g>
<!-- MessageComponent&#45;&gt;SharedModule -->
<g id="edge21" class="edge">
<title>MessageComponent&#45;&gt;SharedModule</title>
<path fill="none" stroke="black" d="M1565,-116.79C1565,-100.75 1565,-79.8 1565,-79.8 1565,-79.8 1775.48,-79.8 1775.48,-79.8"/>
<polygon fill="black" stroke="black" points="1775.48,-83.3 1785.48,-79.8 1775.48,-76.3 1775.48,-83.3"/>
</g>
<!-- NavComponent -->
<g id="node24" class="node">
<title>NavComponent</title>
<polygon fill="#ffffb3" stroke="black" points="1482.15,-152.8 1377.85,-152.8 1377.85,-116.8 1482.15,-116.8 1482.15,-152.8"/>
<text text-anchor="middle" x="1430" y="-130.6" font-family="Times,serif" font-size="14.00">NavComponent</text>
</g>
<!-- NavComponent&#45;&gt;SharedModule -->
<g id="edge22" class="edge">
<title>NavComponent&#45;&gt;SharedModule</title>
<path fill="none" stroke="black" d="M1430,-116.77C1430,-99.74 1430,-76.8 1430,-76.8 1430,-76.8 1775.74,-76.8 1775.74,-76.8"/>
<polygon fill="black" stroke="black" points="1775.74,-80.3 1785.74,-76.8 1775.74,-73.3 1775.74,-80.3"/>
</g>
<!-- TweetBtnComponent -->
<g id="node25" class="node">
<title>TweetBtnComponent</title>
<polygon fill="#ffffb3" stroke="black" points="1359.04,-152.8 1222.96,-152.8 1222.96,-116.8 1359.04,-116.8 1359.04,-152.8"/>
<text text-anchor="middle" x="1291" y="-130.6" font-family="Times,serif" font-size="14.00">TweetBtnComponent</text>
</g>
<!-- TweetBtnComponent&#45;&gt;SharedModule -->
<g id="edge23" class="edge">
<title>TweetBtnComponent&#45;&gt;SharedModule</title>
<path fill="none" stroke="black" d="M1291,-116.5C1291,-98.53 1291,-73.8 1291,-73.8 1291,-73.8 1775.76,-73.8 1775.76,-73.8"/>
<polygon fill="black" stroke="black" points="1775.76,-77.3 1785.76,-73.8 1775.76,-70.3 1775.76,-77.3"/>
</g>
<!-- AmazonAssociateComponent -->
<g id="node32" class="node">
<title>AmazonAssociateComponent</title>
<polygon fill="#ffffb3" stroke="black" points="4294.68,-84.8 4111.32,-84.8 4111.32,-48.8 4294.68,-48.8 4294.68,-84.8"/>
<text text-anchor="middle" x="4203" y="-62.6" font-family="Times,serif" font-size="14.00">AmazonAssociateComponent</text>
</g>
<!-- AmazonAssociateComponent&#45;&gt;ToolsModule -->
<g id="edge30" class="edge">
<title>AmazonAssociateComponent&#45;&gt;ToolsModule</title>
<path fill="none" stroke="black" d="M4203,-85.02C4203,-105.17 4203,-134.8 4203,-134.8 4203,-134.8 3669.73,-134.8 3669.73,-134.8"/>
<polygon fill="black" stroke="black" points="3669.73,-131.3 3659.73,-134.8 3669.73,-138.3 3669.73,-131.3"/>
</g>
<!-- JsonFormatterComponent -->
<g id="node33" class="node">
<title>JsonFormatterComponent</title>
<polygon fill="#ffffb3" stroke="black" points="4093.93,-84.8 3932.07,-84.8 3932.07,-48.8 4093.93,-48.8 4093.93,-84.8"/>
<text text-anchor="middle" x="4013" y="-62.6" font-family="Times,serif" font-size="14.00">JsonFormatterComponent</text>
</g>
<!-- JsonFormatterComponent&#45;&gt;ToolsModule -->
<g id="edge31" class="edge">
<title>JsonFormatterComponent&#45;&gt;ToolsModule</title>
<path fill="none" stroke="black" d="M4013,-85.07C4013,-103.36 4013,-128.8 4013,-128.8 4013,-128.8 3669.77,-128.8 3669.77,-128.8"/>
<polygon fill="black" stroke="black" points="3669.77,-125.3 3659.77,-128.8 3669.77,-132.3 3669.77,-125.3"/>
</g>
<!-- JsonTyperComponent -->
<g id="node34" class="node">
<title>JsonTyperComponent</title>
<polygon fill="#ffffb3" stroke="black" points="3913.65,-84.8 3774.35,-84.8 3774.35,-48.8 3913.65,-48.8 3913.65,-84.8"/>
<text text-anchor="middle" x="3844" y="-62.6" font-family="Times,serif" font-size="14.00">JsonTyperComponent</text>
</g>
<!-- JsonTyperComponent&#45;&gt;ToolsModule -->
<g id="edge32" class="edge">
<title>JsonTyperComponent&#45;&gt;ToolsModule</title>
<path fill="none" stroke="black" d="M3844,-84.83C3844,-101.2 3844,-122.8 3844,-122.8 3844,-122.8 3669.99,-122.8 3669.99,-122.8"/>
<polygon fill="black" stroke="black" points="3669.99,-119.3 3659.99,-122.8 3669.99,-126.3 3669.99,-119.3"/>
</g>
<!-- RealtimeComponent -->
<g id="node35" class="node">
<title>RealtimeComponent</title>
<polygon fill="#ffffb3" stroke="black" points="3755.88,-84.8 3624.12,-84.8 3624.12,-48.8 3755.88,-48.8 3755.88,-84.8"/>
<text text-anchor="middle" x="3690" y="-62.6" font-family="Times,serif" font-size="14.00">RealtimeComponent</text>
</g>
<!-- RealtimeComponent&#45;&gt;ToolsModule -->
<g id="edge33" class="edge">
<title>RealtimeComponent&#45;&gt;ToolsModule</title>
<path fill="none" stroke="black" d="M3641.89,-85.02C3641.89,-85.02 3641.89,-106.53 3641.89,-106.53"/>
<polygon fill="black" stroke="black" points="3638.39,-106.53 3641.89,-116.53 3645.39,-106.53 3638.39,-106.53"/>
</g>
<!-- ToolsListComponent -->
<g id="node36" class="node">
<title>ToolsListComponent</title>
<polygon fill="#ffffb3" stroke="black" points="3606.5,-84.8 3471.5,-84.8 3471.5,-48.8 3606.5,-48.8 3606.5,-84.8"/>
<text text-anchor="middle" x="3539" y="-62.6" font-family="Times,serif" font-size="14.00">ToolsListComponent</text>
</g>
<!-- ToolsListComponent&#45;&gt;ToolsModule -->
<g id="edge34" class="edge">
<title>ToolsListComponent&#45;&gt;ToolsModule</title>
<path fill="none" stroke="black" d="M3593.76,-85.02C3593.76,-85.02 3593.76,-106.53 3593.76,-106.53"/>
<polygon fill="black" stroke="black" points="3590.26,-106.53 3593.76,-116.53 3597.26,-106.53 3590.26,-106.53"/>
</g>
<!-- UserInfoComponent -->
<g id="node37" class="node">
<title>UserInfoComponent</title>
<polygon fill="#ffffb3" stroke="black" points="3453.58,-84.8 3322.42,-84.8 3322.42,-48.8 3453.58,-48.8 3453.58,-84.8"/>
<text text-anchor="middle" x="3388" y="-62.6" font-family="Times,serif" font-size="14.00">UserInfoComponent</text>
</g>
<!-- UserInfoComponent&#45;&gt;ToolsModule -->
<g id="edge35" class="edge">
<title>UserInfoComponent&#45;&gt;ToolsModule</title>
<path fill="none" stroke="black" d="M3388,-85.02C3388,-105.17 3388,-134.8 3388,-134.8 3388,-134.8 3558.27,-134.8 3558.27,-134.8"/>
<polygon fill="black" stroke="black" points="3558.27,-138.3 3568.27,-134.8 3558.27,-131.3 3558.27,-138.3"/>
</g>
<!-- ToolsRoutingModule -->
<g id="node39" class="node">
<title>ToolsRoutingModule</title>
<polygon fill="#8dd3c7" stroke="black" points="3298.06,-84.8 3295.06,-88.8 3274.06,-88.8 3271.06,-84.8 3161.94,-84.8 3161.94,-48.8 3298.06,-48.8 3298.06,-84.8"/>
<text text-anchor="middle" x="3230" y="-62.6" font-family="Times,serif" font-size="14.00">ToolsRoutingModule</text>
</g>
<!-- ToolsRoutingModule&#45;&gt;ToolsModule -->
<g id="edge37" class="edge">
<title>ToolsRoutingModule&#45;&gt;ToolsModule</title>
<path fill="none" stroke="black" d="M3230,-85.05C3230,-107.82 3230,-143.8 3230,-143.8 3230,-143.8 3558.06,-143.8 3558.06,-143.8"/>
<polygon fill="black" stroke="black" points="3558.06,-147.3 3568.06,-143.8 3558.06,-140.3 3558.06,-147.3"/>
</g>
</g>
</svg>
