<?xml version="1.0" encoding="UTF-8" standalone="no"?>
<!DOCTYPE svg PUBLIC "-//W3C//DTD SVG 1.1//EN"
 "http://www.w3.org/Graphics/SVG/1.1/DTD/svg11.dtd">
<!-- Generated by graphviz version 2.47.3 (20210619.1520)
 -->
<!-- Title: dependencies Pages: 1 -->
<svg width="5441pt" height="253pt"
 viewBox="0.00 0.00 5441.00 252.80" xmlns="http://www.w3.org/2000/svg" xmlns:xlink="http://www.w3.org/1999/xlink">
<g id="graph0" class="graph" transform="scale(1 1) rotate(0) translate(4 248.8)">
<title>dependencies</title>
<polygon fill="white" stroke="transparent" points="-4,4 -4,-248.8 5437,-248.8 5437,4 -4,4"/>
<text text-anchor="middle" x="2716.5" y="-8.2" font-family="sans-serif" font-size="14.00">dependencies</text>
<g id="clust1" class="cluster">
<title>cluster_AppModule</title>
<polygon fill="none" stroke="black" stroke-dasharray="1,5" points="2018,-32.8 2018,-236.8 2425,-236.8 2425,-32.8 2018,-32.8"/>
</g>
<g id="clust2" class="cluster">
<title>cluster_AppModule_declarations</title>
<polygon fill="none" stroke="black" points="2295,-40.8 2295,-92.8 2417,-92.8 2417,-40.8 2295,-40.8"/>
</g>
<g id="clust4" class="cluster">
<title>cluster_AppModule_imports</title>
<polygon fill="none" stroke="black" points="2026,-40.8 2026,-92.8 2287,-92.8 2287,-40.8 2026,-40.8"/>
</g>
<g id="clust6" class="cluster">
<title>cluster_AppModule_bootstrap</title>
<polygon fill="none" stroke="black" points="2153,-176.8 2153,-228.8 2277,-228.8 2277,-176.8 2153,-176.8"/>
</g>
<g id="clust14" class="cluster">
<title>cluster_BlogModule</title>
<polygon fill="none" stroke="black" stroke-dasharray="1,5" points="2433,-32.8 2433,-160.8 2912,-160.8 2912,-32.8 2433,-32.8"/>
</g>
<g id="clust15" class="cluster">
<title>cluster_BlogModule_declarations</title>
<polygon fill="none" stroke="black" points="2597,-40.8 2597,-92.8 2904,-92.8 2904,-40.8 2597,-40.8"/>
</g>
<g id="clust18" class="cluster">
<title>cluster_BlogModule_imports</title>
<polygon fill="none" stroke="black" points="2441,-40.8 2441,-92.8 2589,-92.8 2589,-40.8 2441,-40.8"/>
</g>
<g id="clust28" class="cluster">
<title>cluster_HomeModule</title>
<polygon fill="none" stroke="black" stroke-dasharray="1,5" points="4707,-32.8 4707,-160.8 5425,-160.8 5425,-32.8 4707,-32.8"/>
</g>
<g id="clust29" class="cluster">
<title>cluster_HomeModule_declarations</title>
<polygon fill="none" stroke="black" points="4877,-40.8 4877,-92.8 5417,-92.8 5417,-40.8 4877,-40.8"/>
</g>
<g id="clust34" class="cluster">
<title>cluster_HomeModule_imports</title>
<polygon fill="none" stroke="black" points="4715,-40.8 4715,-92.8 4869,-92.8 4869,-40.8 4715,-40.8"/>
</g>
<g id="clust44" class="cluster">
<title>cluster_LogModule</title>
<polygon fill="none" stroke="black" stroke-dasharray="1,5" points="2920,-32.8 2920,-160.8 3386,-160.8 3386,-32.8 2920,-32.8"/>
</g>
<g id="clust45" class="cluster">
<title>cluster_LogModule_declarations</title>
<polygon fill="none" stroke="black" points="3080,-40.8 3080,-92.8 3378,-92.8 3378,-40.8 3080,-40.8"/>
</g>
<g id="clust48" class="cluster">
<title>cluster_LogModule_imports</title>
<polygon fill="none" stroke="black" points="2928,-40.8 2928,-92.8 3072,-92.8 3072,-40.8 2928,-40.8"/>
</g>
<g id="clust58" class="cluster">
<title>cluster_SharedModule</title>
<polygon fill="none" stroke="black" stroke-dasharray="1,5" points="8,-100.8 8,-168.8 2010,-168.8 2010,-100.8 8,-100.8"/>
</g>
<g id="clust59" class="cluster">
<title>cluster_SharedModule_declarations</title>
<polygon fill="none" stroke="black" points="1025,-108.8 1025,-160.8 2002,-160.8 2002,-108.8 1025,-108.8"/>
</g>
<g id="clust68" class="cluster">
<title>cluster_SharedModule_exports</title>
<polygon fill="none" stroke="black" points="16,-108.8 16,-160.8 1017,-160.8 1017,-108.8 16,-108.8"/>
</g>
<g id="clust71" class="cluster">
<title>cluster_ToolsModule</title>
<polygon fill="none" stroke="black" stroke-dasharray="1,5" points="3394,-32.8 3394,-160.8 4699,-160.8 4699,-32.8 3394,-32.8"/>
</g>
<g id="clust72" class="cluster">
<title>cluster_ToolsModule_declarations</title>
<polygon fill="none" stroke="black" points="3562,-40.8 3562,-92.8 4691,-92.8 4691,-40.8 3562,-40.8"/>
</g>
<g id="clust80" class="cluster">
<title>cluster_ToolsModule_imports</title>
<polygon fill="none" stroke="black" points="3402,-40.8 3402,-92.8 3554,-92.8 3554,-40.8 3402,-40.8"/>
</g>
<!-- AppComponent -->
<g id="node1" class="node">
<title>AppComponent</title>
<polygon fill="#ffffb3" stroke="black" points="2408.94,-84.8 2303.06,-84.8 2303.06,-48.8 2408.94,-48.8 2408.94,-84.8"/>
<text text-anchor="middle" x="2356" y="-62.6" font-family="Times,serif" font-size="14.00">AppComponent</text>
</g>
<!-- AppModule -->
<g id="node2" class="node">
<title>AppModule</title>
<polygon fill="#8dd3c7" stroke="black" points="2256.66,-152.8 2253.66,-156.8 2232.66,-156.8 2229.66,-152.8 2173.34,-152.8 2173.34,-116.8 2256.66,-116.8 2256.66,-152.8"/>
<text text-anchor="middle" x="2215" y="-130.6" font-family="Times,serif" font-size="14.00">AppModule</text>
</g>
<!-- AppComponent&#45;&gt;AppModule -->
<g id="edge1" class="edge">
<title>AppComponent&#45;&gt;AppModule</title>
<path fill="none" stroke="black" d="M2356,-85.02C2356,-105.17 2356,-134.8 2356,-134.8 2356,-134.8 2266.92,-134.8 2266.92,-134.8"/>
<polygon fill="black" stroke="black" points="2266.92,-131.3 2256.92,-134.8 2266.92,-138.3 2266.92,-131.3"/>
</g>
<!-- AppComponent  -->
<g id="node5" class="node">
<title>AppComponent </title>
<polygon fill="#80b1d3" stroke="black" points="2269.44,-220.8 2160.56,-220.8 2160.56,-184.8 2269.44,-184.8 2269.44,-220.8"/>
<text text-anchor="middle" x="2215" y="-198.6" font-family="Times,serif" font-size="14.00">AppComponent </text>
</g>
<!-- AppModule&#45;&gt;AppComponent  -->
<g id="edge4" class="edge">
<title>AppModule&#45;&gt;AppComponent </title>
<path fill="none" stroke="black" stroke-dasharray="1,5" d="M2215,-153.02C2215,-153.02 2215,-174.53 2215,-174.53"/>
<polygon fill="black" stroke="black" points="2211.5,-174.53 2215,-184.53 2218.5,-174.53 2211.5,-174.53"/>
</g>
<!-- AppRoutingModule -->
<g id="node3" class="node">
<title>AppRoutingModule</title>
<polygon fill="#8dd3c7" stroke="black" points="2279.27,-84.8 2276.27,-88.8 2255.27,-88.8 2252.27,-84.8 2150.73,-84.8 2150.73,-48.8 2279.27,-48.8 2279.27,-84.8"/>
<text text-anchor="middle" x="2215" y="-62.6" font-family="Times,serif" font-size="14.00">AppRoutingModule</text>
</g>
<!-- AppRoutingModule&#45;&gt;AppModule -->
<g id="edge2" class="edge">
<title>AppRoutingModule&#45;&gt;AppModule</title>
<path fill="none" stroke="black" d="M2215,-85.02C2215,-85.02 2215,-106.53 2215,-106.53"/>
<polygon fill="black" stroke="black" points="2211.5,-106.53 2215,-116.53 2218.5,-106.53 2211.5,-106.53"/>
</g>
<!-- SharedModule -->
<g id="node4" class="node">
<title>SharedModule</title>
<polygon fill="#8dd3c7" stroke="black" points="2132.42,-84.8 2129.42,-88.8 2108.42,-88.8 2105.42,-84.8 2033.58,-84.8 2033.58,-48.8 2132.42,-48.8 2132.42,-84.8"/>
<text text-anchor="middle" x="2083" y="-62.6" font-family="Times,serif" font-size="14.00">SharedModule</text>
</g>
<!-- SharedModule&#45;&gt;AppModule -->
<g id="edge3" class="edge">
<title>SharedModule&#45;&gt;AppModule</title>
<path fill="none" stroke="black" d="M2115.81,-85.09C2115.81,-107.01 2115.81,-140.8 2115.81,-140.8 2115.81,-140.8 2163.22,-140.8 2163.22,-140.8"/>
<polygon fill="black" stroke="black" points="2163.22,-144.3 2173.22,-140.8 2163.22,-137.3 2163.22,-144.3"/>
</g>
<!-- BlogModule -->
<g id="node8" class="node">
<title>BlogModule</title>
<polygon fill="#8dd3c7" stroke="black" points="2635.28,-152.8 2632.28,-156.8 2611.28,-156.8 2608.28,-152.8 2548.72,-152.8 2548.72,-116.8 2635.28,-116.8 2635.28,-152.8"/>
<text text-anchor="middle" x="2592" y="-130.6" font-family="Times,serif" font-size="14.00">BlogModule</text>
</g>
<!-- SharedModule&#45;&gt;BlogModule -->
<g id="edge8" class="edge">
<title>SharedModule&#45;&gt;BlogModule</title>
<path fill="none" stroke="black" d="M2050.19,-84.86C2050.19,-96.24 2050.19,-108.8 2050.19,-108.8 2050.19,-108.8 2559.39,-108.8 2559.39,-108.8 2559.39,-108.8 2559.39,-109.59 2559.39,-109.59"/>
<polygon fill="black" stroke="black" points="2555.89,-106.74 2559.39,-116.74 2562.89,-106.74 2555.89,-106.74"/>
</g>
<!-- LogModule -->
<g id="node18" class="node">
<title>LogModule</title>
<polygon fill="#8dd3c7" stroke="black" points="3116.1,-152.8 3113.1,-156.8 3092.1,-156.8 3089.1,-152.8 3033.9,-152.8 3033.9,-116.8 3116.1,-116.8 3116.1,-152.8"/>
<text text-anchor="middle" x="3075" y="-130.6" font-family="Times,serif" font-size="14.00">LogModule</text>
</g>
<!-- SharedModule&#45;&gt;LogModule -->
<g id="edge17" class="edge">
<title>SharedModule&#45;&gt;LogModule</title>
<path fill="none" stroke="black" d="M2066.6,-84.99C2066.6,-93.08 2066.6,-100.8 2066.6,-100.8 2066.6,-100.8 3043.84,-100.8 3043.84,-100.8 3043.84,-100.8 3043.84,-106.61 3043.84,-106.61"/>
<polygon fill="black" stroke="black" points="3040.34,-106.61 3043.84,-116.61 3047.34,-106.61 3040.34,-106.61"/>
</g>
<!-- AdsComponent  -->
<g id="node27" class="node">
<title>AdsComponent </title>
<polygon fill="#fb8072" stroke="black" points="572.88,-152.8 465.12,-152.8 465.12,-116.8 572.88,-116.8 572.88,-152.8"/>
<text text-anchor="middle" x="519" y="-130.6" font-family="Times,serif" font-size="14.00">AdsComponent </text>
</g>
<!-- SharedModule&#45;&gt;AdsComponent  -->
<g id="edge25" class="edge">
<title>SharedModule&#45;&gt;AdsComponent </title>
<path fill="none" stroke="black" stroke-dasharray="5,2" d="M2033.61,-59.8C1767.76,-59.8 519,-59.8 519,-59.8 519,-59.8 519,-106.64 519,-106.64"/>
<polygon fill="black" stroke="black" points="515.5,-106.64 519,-116.64 522.5,-106.64 515.5,-106.64"/>
</g>
<!-- AmazonAdsComponent  -->
<g id="node28" class="node">
<title>AmazonAdsComponent </title>
<polygon fill="#fb8072" stroke="black" points="447.31,-152.8 292.69,-152.8 292.69,-116.8 447.31,-116.8 447.31,-152.8"/>
<text text-anchor="middle" x="370" y="-130.6" font-family="Times,serif" font-size="14.00">AmazonAdsComponent </text>
</g>
<!-- SharedModule&#45;&gt;AmazonAdsComponent  -->
<g id="edge26" class="edge">
<title>SharedModule&#45;&gt;AmazonAdsComponent </title>
<path fill="none" stroke="black" stroke-dasharray="5,2" d="M2033.58,-56.8C1752.72,-56.8 370,-56.8 370,-56.8 370,-56.8 370,-106.71 370,-106.71"/>
<polygon fill="black" stroke="black" points="366.5,-106.71 370,-116.71 373.5,-106.71 366.5,-106.71"/>
</g>
<!-- LoadingComponent  -->
<g id="node29" class="node">
<title>LoadingComponent </title>
<polygon fill="#fb8072" stroke="black" points="274.99,-152.8 143.01,-152.8 143.01,-116.8 274.99,-116.8 274.99,-152.8"/>
<text text-anchor="middle" x="209" y="-130.6" font-family="Times,serif" font-size="14.00">LoadingComponent </text>
</g>
<!-- SharedModule&#45;&gt;LoadingComponent  -->
<g id="edge27" class="edge">
<title>SharedModule&#45;&gt;LoadingComponent </title>
<path fill="none" stroke="black" stroke-dasharray="5,2" d="M2033.36,-54.8C1736.51,-54.8 209,-54.8 209,-54.8 209,-54.8 209,-106.65 209,-106.65"/>
<polygon fill="black" stroke="black" points="205.5,-106.65 209,-116.65 212.5,-106.65 205.5,-106.65"/>
</g>
<!-- MdescapePipe  -->
<g id="node30" class="node">
<title>MdescapePipe </title>
<polygon fill="#fb8072" stroke="black" points="125.64,-152.8 24.36,-152.8 24.36,-116.8 125.64,-116.8 125.64,-152.8"/>
<text text-anchor="middle" x="75" y="-130.6" font-family="Times,serif" font-size="14.00">MdescapePipe </text>
</g>
<!-- SharedModule&#45;&gt;MdescapePipe  -->
<g id="edge28" class="edge">
<title>SharedModule&#45;&gt;MdescapePipe </title>
<path fill="none" stroke="black" stroke-dasharray="5,2" d="M2033.36,-51.8C1724.15,-51.8 75,-51.8 75,-51.8 75,-51.8 75,-106.79 75,-106.79"/>
<polygon fill="black" stroke="black" points="71.5,-106.79 75,-116.79 78.5,-106.79 71.5,-106.79"/>
</g>
<!-- MessageComponent  -->
<g id="node31" class="node">
<title>MessageComponent </title>
<polygon fill="#fb8072" stroke="black" points="1008.81,-152.8 875.19,-152.8 875.19,-116.8 1008.81,-116.8 1008.81,-152.8"/>
<text text-anchor="middle" x="942" y="-130.6" font-family="Times,serif" font-size="14.00">MessageComponent </text>
</g>
<!-- SharedModule&#45;&gt;MessageComponent  -->
<g id="edge29" class="edge">
<title>SharedModule&#45;&gt;MessageComponent </title>
<path fill="none" stroke="black" stroke-dasharray="5,2" d="M2033.61,-66.8C1814.6,-66.8 942,-66.8 942,-66.8 942,-66.8 942,-106.58 942,-106.58"/>
<polygon fill="black" stroke="black" points="938.5,-106.58 942,-116.58 945.5,-106.58 938.5,-106.58"/>
</g>
<!-- NavComponent  -->
<g id="node32" class="node">
<title>NavComponent </title>
<polygon fill="#fb8072" stroke="black" points="857.15,-152.8 748.85,-152.8 748.85,-116.8 857.15,-116.8 857.15,-152.8"/>
<text text-anchor="middle" x="803" y="-130.6" font-family="Times,serif" font-size="14.00">NavComponent </text>
</g>
<!-- SharedModule&#45;&gt;NavComponent  -->
<g id="edge30" class="edge">
<title>SharedModule&#45;&gt;NavComponent </title>
<path fill="none" stroke="black" stroke-dasharray="5,2" d="M2033.61,-64.8C1798.37,-64.8 803,-64.8 803,-64.8 803,-64.8 803,-106.77 803,-106.77"/>
<polygon fill="black" stroke="black" points="799.5,-106.77 803,-116.77 806.5,-106.77 799.5,-106.77"/>
</g>
<!-- TweetBtnComponent  -->
<g id="node33" class="node">
<title>TweetBtnComponent </title>
<polygon fill="#fb8072" stroke="black" points="731.04,-152.8 590.96,-152.8 590.96,-116.8 731.04,-116.8 731.04,-152.8"/>
<text text-anchor="middle" x="661" y="-130.6" font-family="Times,serif" font-size="14.00">TweetBtnComponent </text>
</g>
<!-- SharedModule&#45;&gt;TweetBtnComponent  -->
<g id="edge31" class="edge">
<title>SharedModule&#45;&gt;TweetBtnComponent </title>
<path fill="none" stroke="black" stroke-dasharray="5,2" d="M2033.64,-61.8C1782.77,-61.8 661,-61.8 661,-61.8 661,-61.8 661,-106.76 661,-106.76"/>
<polygon fill="black" stroke="black" points="657.5,-106.76 661,-116.76 664.5,-106.76 657.5,-106.76"/>
</g>
<!-- ToolsModule -->
<g id="node41" class="node">
<title>ToolsModule</title>
<polygon fill="#8dd3c7" stroke="black" points="4004.94,-152.8 4001.94,-156.8 3980.94,-156.8 3977.94,-152.8 3913.06,-152.8 3913.06,-116.8 4004.94,-116.8 4004.94,-152.8"/>
<text text-anchor="middle" x="3959" y="-130.6" font-family="Times,serif" font-size="14.00">ToolsModule</text>
</g>
<!-- SharedModule&#45;&gt;ToolsModule -->
<g id="edge39" class="edge">
<title>SharedModule&#45;&gt;ToolsModule</title>
<path fill="none" stroke="black" d="M2083,-84.86C2083,-89.29 2083,-92.8 2083,-92.8 2083,-92.8 3943.76,-92.8 3943.76,-92.8 3943.76,-92.8 3943.76,-106.74 3943.76,-106.74"/>
<polygon fill="black" stroke="black" points="3940.26,-106.74 3943.76,-116.74 3947.26,-106.74 3940.26,-106.74"/>
</g>
<!-- BlogDetailComponent -->
<g id="node6" class="node">
<title>BlogDetailComponent</title>
<polygon fill="#ffffb3" stroke="black" points="2896.27,-84.8 2753.73,-84.8 2753.73,-48.8 2896.27,-48.8 2896.27,-84.8"/>
<text text-anchor="middle" x="2825" y="-62.6" font-family="Times,serif" font-size="14.00">BlogDetailComponent</text>
</g>
<!-- BlogDetailComponent&#45;&gt;BlogModule -->
<g id="edge5" class="edge">
<title>BlogDetailComponent&#45;&gt;BlogModule</title>
<path fill="none" stroke="black" d="M2825,-85.02C2825,-105.17 2825,-134.8 2825,-134.8 2825,-134.8 2645.28,-134.8 2645.28,-134.8"/>
<polygon fill="black" stroke="black" points="2645.28,-131.3 2635.28,-134.8 2645.28,-138.3 2645.28,-131.3"/>
</g>
<!-- BlogListComponent -->
<g id="node7" class="node">
<title>BlogListComponent</title>
<polygon fill="#ffffb3" stroke="black" points="2735.34,-84.8 2604.66,-84.8 2604.66,-48.8 2735.34,-48.8 2735.34,-84.8"/>
<text text-anchor="middle" x="2670" y="-62.6" font-family="Times,serif" font-size="14.00">BlogListComponent</text>
</g>
<!-- BlogListComponent&#45;&gt;BlogModule -->
<g id="edge6" class="edge">
<title>BlogListComponent&#45;&gt;BlogModule</title>
<path fill="none" stroke="black" d="M2620.11,-85.02C2620.11,-85.02 2620.11,-106.53 2620.11,-106.53"/>
<polygon fill="black" stroke="black" points="2616.61,-106.53 2620.11,-116.53 2623.61,-106.53 2616.61,-106.53"/>
</g>
<!-- BlogRoutingModule -->
<g id="node9" class="node">
<title>BlogRoutingModule</title>
<polygon fill="#8dd3c7" stroke="black" points="2580.89,-84.8 2577.89,-88.8 2556.89,-88.8 2553.89,-84.8 2449.11,-84.8 2449.11,-48.8 2580.89,-48.8 2580.89,-84.8"/>
<text text-anchor="middle" x="2515" y="-62.6" font-family="Times,serif" font-size="14.00">BlogRoutingModule</text>
</g>
<!-- BlogRoutingModule&#45;&gt;BlogModule -->
<g id="edge7" class="edge">
<title>BlogRoutingModule&#45;&gt;BlogModule</title>
<path fill="none" stroke="black" d="M2570.17,-85.02C2570.17,-85.02 2570.17,-106.53 2570.17,-106.53"/>
<polygon fill="black" stroke="black" points="2566.67,-106.53 2570.17,-116.53 2573.67,-106.53 2566.67,-106.53"/>
</g>
<!-- ContactComponent -->
<g id="node10" class="node">
<title>ContactComponent</title>
<polygon fill="#ffffb3" stroke="black" points="5409.38,-84.8 5284.62,-84.8 5284.62,-48.8 5409.38,-48.8 5409.38,-84.8"/>
<text text-anchor="middle" x="5347" y="-62.6" font-family="Times,serif" font-size="14.00">ContactComponent</text>
</g>
<!-- HomeModule -->
<g id="node14" class="node">
<title>HomeModule</title>
<polygon fill="#8dd3c7" stroke="black" points="5125.76,-152.8 5122.76,-156.8 5101.76,-156.8 5098.76,-152.8 5032.24,-152.8 5032.24,-116.8 5125.76,-116.8 5125.76,-152.8"/>
<text text-anchor="middle" x="5079" y="-130.6" font-family="Times,serif" font-size="14.00">HomeModule</text>
</g>
<!-- ContactComponent&#45;&gt;HomeModule -->
<g id="edge9" class="edge">
<title>ContactComponent&#45;&gt;HomeModule</title>
<path fill="none" stroke="black" d="M5347,-85.09C5347,-107.01 5347,-140.8 5347,-140.8 5347,-140.8 5135.99,-140.8 5135.99,-140.8"/>
<polygon fill="black" stroke="black" points="5135.99,-137.3 5125.99,-140.8 5135.99,-144.3 5135.99,-137.3"/>
</g>
<!-- IndexComponent -->
<g id="node11" class="node">
<title>IndexComponent</title>
<polygon fill="#ffffb3" stroke="black" points="5266.71,-84.8 5153.29,-84.8 5153.29,-48.8 5266.71,-48.8 5266.71,-84.8"/>
<text text-anchor="middle" x="5210" y="-62.6" font-family="Times,serif" font-size="14.00">IndexComponent</text>
</g>
<!-- IndexComponent&#45;&gt;HomeModule -->
<g id="edge10" class="edge">
<title>IndexComponent&#45;&gt;HomeModule</title>
<path fill="none" stroke="black" d="M5210,-85.07C5210,-103.36 5210,-128.8 5210,-128.8 5210,-128.8 5135.92,-128.8 5135.92,-128.8"/>
<polygon fill="black" stroke="black" points="5135.92,-125.3 5125.92,-128.8 5135.92,-132.3 5135.92,-125.3"/>
</g>
<!-- NewsComponent -->
<g id="node12" class="node">
<title>NewsComponent</title>
<polygon fill="#ffffb3" stroke="black" points="5135.7,-84.8 5022.3,-84.8 5022.3,-48.8 5135.7,-48.8 5135.7,-84.8"/>
<text text-anchor="middle" x="5079" y="-62.6" font-family="Times,serif" font-size="14.00">NewsComponent</text>
</g>
<!-- NewsComponent&#45;&gt;HomeModule -->
<g id="edge11" class="edge">
<title>NewsComponent&#45;&gt;HomeModule</title>
<path fill="none" stroke="black" d="M5079,-85.02C5079,-85.02 5079,-106.53 5079,-106.53"/>
<polygon fill="black" stroke="black" points="5075.5,-106.53 5079,-116.53 5082.5,-106.53 5075.5,-106.53"/>
</g>
<!-- ProfileComponent -->
<g id="node13" class="node">
<title>ProfileComponent</title>
<polygon fill="#ffffb3" stroke="black" points="5004.93,-84.8 4885.07,-84.8 4885.07,-48.8 5004.93,-48.8 5004.93,-84.8"/>
<text text-anchor="middle" x="4945" y="-62.6" font-family="Times,serif" font-size="14.00">ProfileComponent</text>
</g>
<!-- ProfileComponent&#45;&gt;HomeModule -->
<g id="edge12" class="edge">
<title>ProfileComponent&#45;&gt;HomeModule</title>
<path fill="none" stroke="black" d="M4945,-84.81C4945,-107.29 4945,-142.8 4945,-142.8 4945,-142.8 5022.13,-142.8 5022.13,-142.8"/>
<polygon fill="black" stroke="black" points="5022.13,-146.3 5032.13,-142.8 5022.13,-139.3 5022.13,-146.3"/>
</g>
<!-- HomeRoutingModule -->
<g id="node15" class="node">
<title>HomeRoutingModule</title>
<polygon fill="#8dd3c7" stroke="black" points="4861.38,-84.8 4858.38,-88.8 4837.38,-88.8 4834.38,-84.8 4722.62,-84.8 4722.62,-48.8 4861.38,-48.8 4861.38,-84.8"/>
<text text-anchor="middle" x="4792" y="-62.6" font-family="Times,serif" font-size="14.00">HomeRoutingModule</text>
</g>
<!-- HomeRoutingModule&#45;&gt;HomeModule -->
<g id="edge13" class="edge">
<title>HomeRoutingModule&#45;&gt;HomeModule</title>
<path fill="none" stroke="black" d="M4792,-85.18C4792,-109.08 4792,-147.8 4792,-147.8 4792,-147.8 5021.93,-147.8 5021.93,-147.8"/>
<polygon fill="black" stroke="black" points="5021.93,-151.3 5031.93,-147.8 5021.93,-144.3 5021.93,-151.3"/>
</g>
<!-- LogDetailComponent -->
<g id="node16" class="node">
<title>LogDetailComponent</title>
<polygon fill="#ffffb3" stroke="black" points="3370.09,-84.8 3231.91,-84.8 3231.91,-48.8 3370.09,-48.8 3370.09,-84.8"/>
<text text-anchor="middle" x="3301" y="-62.6" font-family="Times,serif" font-size="14.00">LogDetailComponent</text>
</g>
<!-- LogDetailComponent&#45;&gt;LogModule -->
<g id="edge14" class="edge">
<title>LogDetailComponent&#45;&gt;LogModule</title>
<path fill="none" stroke="black" d="M3301,-84.83C3301,-101.86 3301,-124.8 3301,-124.8 3301,-124.8 3126.19,-124.8 3126.19,-124.8"/>
<polygon fill="black" stroke="black" points="3126.19,-121.3 3116.19,-124.8 3126.19,-128.3 3126.19,-121.3"/>
</g>
<!-- LogListComponent -->
<g id="node17" class="node">
<title>LogListComponent</title>
<polygon fill="#ffffb3" stroke="black" points="3213.66,-84.8 3088.34,-84.8 3088.34,-48.8 3213.66,-48.8 3213.66,-84.8"/>
<text text-anchor="middle" x="3151" y="-62.6" font-family="Times,serif" font-size="14.00">LogListComponent</text>
</g>
<!-- LogListComponent&#45;&gt;LogModule -->
<g id="edge15" class="edge">
<title>LogListComponent&#45;&gt;LogModule</title>
<path fill="none" stroke="black" d="M3102.11,-85.02C3102.11,-85.02 3102.11,-106.53 3102.11,-106.53"/>
<polygon fill="black" stroke="black" points="3098.61,-106.53 3102.11,-116.53 3105.61,-106.53 3098.61,-106.53"/>
</g>
<!-- LogRoutingModule -->
<g id="node19" class="node">
<title>LogRoutingModule</title>
<polygon fill="#8dd3c7" stroke="black" points="3063.72,-84.8 3060.72,-88.8 3039.72,-88.8 3036.72,-84.8 2936.28,-84.8 2936.28,-48.8 3063.72,-48.8 3063.72,-84.8"/>
<text text-anchor="middle" x="3000" y="-62.6" font-family="Times,serif" font-size="14.00">LogRoutingModule</text>
</g>
<!-- LogRoutingModule&#45;&gt;LogModule -->
<g id="edge16" class="edge">
<title>LogRoutingModule&#45;&gt;LogModule</title>
<path fill="none" stroke="black" d="M3053.72,-85.02C3053.72,-85.02 3053.72,-106.53 3053.72,-106.53"/>
<polygon fill="black" stroke="black" points="3050.22,-106.53 3053.72,-116.53 3057.22,-106.53 3050.22,-106.53"/>
</g>
<!-- AdsComponent -->
<g id="node20" class="node">
<title>AdsComponent</title>
<polygon fill="#ffffb3" stroke="black" points="1568.88,-152.8 1465.12,-152.8 1465.12,-116.8 1568.88,-116.8 1568.88,-152.8"/>
<text text-anchor="middle" x="1517" y="-130.6" font-family="Times,serif" font-size="14.00">AdsComponent</text>
</g>
<!-- AdsComponent&#45;&gt;SharedModule -->
<g id="edge18" class="edge">
<title>AdsComponent&#45;&gt;SharedModule</title>
<path fill="none" stroke="black" d="M1517,-116.76C1517,-100.07 1517,-77.8 1517,-77.8 1517,-77.8 2023.76,-77.8 2023.76,-77.8"/>
<polygon fill="black" stroke="black" points="2023.76,-81.3 2033.76,-77.8 2023.76,-74.3 2023.76,-81.3"/>
</g>
<!-- AmazonAdsComponent -->
<g id="node21" class="node">
<title>AmazonAdsComponent</title>
<polygon fill="#ffffb3" stroke="black" points="1446.81,-152.8 1295.19,-152.8 1295.19,-116.8 1446.81,-116.8 1446.81,-152.8"/>
<text text-anchor="middle" x="1371" y="-130.6" font-family="Times,serif" font-size="14.00">AmazonAdsComponent</text>
</g>
<!-- AmazonAdsComponent&#45;&gt;SharedModule -->
<g id="edge19" class="edge">
<title>AmazonAdsComponent&#45;&gt;SharedModule</title>
<path fill="none" stroke="black" d="M1371,-116.8C1371,-99.12 1371,-74.8 1371,-74.8 1371,-74.8 2023.78,-74.8 2023.78,-74.8"/>
<polygon fill="black" stroke="black" points="2023.78,-78.3 2033.78,-74.8 2023.78,-71.3 2023.78,-78.3"/>
</g>
<!-- LoadingComponent -->
<g id="node22" class="node">
<title>LoadingComponent</title>
<polygon fill="#ffffb3" stroke="black" points="1276.99,-152.8 1149.01,-152.8 1149.01,-116.8 1276.99,-116.8 1276.99,-152.8"/>
<text text-anchor="middle" x="1213" y="-130.6" font-family="Times,serif" font-size="14.00">LoadingComponent</text>
</g>
<!-- LoadingComponent&#45;&gt;SharedModule -->
<g id="edge20" class="edge">
<title>LoadingComponent&#45;&gt;SharedModule</title>
<path fill="none" stroke="black" d="M1213,-116.53C1213,-98.24 1213,-72.8 1213,-72.8 1213,-72.8 2023.73,-72.8 2023.73,-72.8"/>
<polygon fill="black" stroke="black" points="2023.73,-76.3 2033.73,-72.8 2023.73,-69.3 2023.73,-76.3"/>
</g>
<!-- MdescapePipe -->
<g id="node23" class="node">
<title>MdescapePipe</title>
<polygon fill="#ffffb3" stroke="black" points="1130.64,-152.8 1033.36,-152.8 1033.36,-116.8 1130.64,-116.8 1130.64,-152.8"/>
<text text-anchor="middle" x="1082" y="-130.6" font-family="Times,serif" font-size="14.00">MdescapePipe</text>
</g>
<!-- MdescapePipe&#45;&gt;SharedModule -->
<g id="edge21" class="edge">
<title>MdescapePipe&#45;&gt;SharedModule</title>
<path fill="none" stroke="black" d="M1082,-116.69C1082,-97.46 1082,-69.8 1082,-69.8 1082,-69.8 2023.7,-69.8 2023.7,-69.8"/>
<polygon fill="black" stroke="black" points="2023.7,-73.3 2033.7,-69.8 2023.7,-66.3 2023.7,-73.3"/>
</g>
<!-- MessageComponent -->
<g id="node24" class="node">
<title>MessageComponent</title>
<polygon fill="#ffffb3" stroke="black" points="1994.31,-152.8 1863.69,-152.8 1863.69,-116.8 1994.31,-116.8 1994.31,-152.8"/>
<text text-anchor="middle" x="1929" y="-130.6" font-family="Times,serif" font-size="14.00">MessageComponent</text>
</g>
<!-- MessageComponent&#45;&gt;SharedModule -->
<g id="edge22" class="edge">
<title>MessageComponent&#45;&gt;SharedModule</title>
<path fill="none" stroke="black" d="M1994.4,-128.8C2042.45,-128.8 2099.4,-128.8 2099.4,-128.8 2099.4,-128.8 2099.4,-95.07 2099.4,-95.07"/>
<polygon fill="black" stroke="black" points="2102.9,-95.07 2099.4,-85.07 2095.9,-95.07 2102.9,-95.07"/>
</g>
<!-- NavComponent -->
<g id="node25" class="node">
<title>NavComponent</title>
<polygon fill="#ffffb3" stroke="black" points="1846.15,-152.8 1741.85,-152.8 1741.85,-116.8 1846.15,-116.8 1846.15,-152.8"/>
<text text-anchor="middle" x="1794" y="-130.6" font-family="Times,serif" font-size="14.00">NavComponent</text>
</g>
<!-- NavComponent&#45;&gt;SharedModule -->
<g id="edge23" class="edge">
<title>NavComponent&#45;&gt;SharedModule</title>
<path fill="none" stroke="black" d="M1794,-116.61C1794,-101.62 1794,-82.8 1794,-82.8 1794,-82.8 2023.65,-82.8 2023.65,-82.8"/>
<polygon fill="black" stroke="black" points="2023.65,-86.3 2033.65,-82.8 2023.65,-79.3 2023.65,-86.3"/>
</g>
<!-- TweetBtnComponent -->
<g id="node26" class="node">
<title>TweetBtnComponent</title>
<polygon fill="#ffffb3" stroke="black" points="1723.04,-152.8 1586.96,-152.8 1586.96,-116.8 1723.04,-116.8 1723.04,-152.8"/>
<text text-anchor="middle" x="1655" y="-130.6" font-family="Times,serif" font-size="14.00">TweetBtnComponent</text>
</g>
<!-- TweetBtnComponent&#45;&gt;SharedModule -->
<g id="edge24" class="edge">
<title>TweetBtnComponent&#45;&gt;SharedModule</title>
<path fill="none" stroke="black" d="M1655,-116.79C1655,-100.75 1655,-79.8 1655,-79.8 1655,-79.8 2023.48,-79.8 2023.48,-79.8"/>
<polygon fill="black" stroke="black" points="2023.48,-83.3 2033.48,-79.8 2023.48,-76.3 2023.48,-83.3"/>
</g>
<!-- AmazonAssociateComponent -->
<g id="node34" class="node">
<title>AmazonAssociateComponent</title>
<polygon fill="#ffffb3" stroke="black" points="4381.68,-84.8 4198.32,-84.8 4198.32,-48.8 4381.68,-48.8 4381.68,-84.8"/>
<text text-anchor="middle" x="4290" y="-62.6" font-family="Times,serif" font-size="14.00">AmazonAssociateComponent</text>
</g>
<!-- AmazonAssociateComponent&#45;&gt;ToolsModule -->
<g id="edge32" class="edge">
<title>AmazonAssociateComponent&#45;&gt;ToolsModule</title>
<path fill="none" stroke="black" d="M4290,-85.1C4290,-103.07 4290,-127.8 4290,-127.8 4290,-127.8 4015.02,-127.8 4015.02,-127.8"/>
<polygon fill="black" stroke="black" points="4015.02,-124.3 4005.02,-127.8 4015.02,-131.3 4015.02,-124.3"/>
</g>
<!-- Base64Component -->
<g id="node35" class="node">
<title>Base64Component</title>
<polygon fill="#ffffb3" stroke="black" points="4180.04,-84.8 4057.96,-84.8 4057.96,-48.8 4180.04,-48.8 4180.04,-84.8"/>
<text text-anchor="middle" x="4119" y="-62.6" font-family="Times,serif" font-size="14.00">Base64Component</text>
</g>
<!-- Base64Component&#45;&gt;ToolsModule -->
<g id="edge33" class="edge">
<title>Base64Component&#45;&gt;ToolsModule</title>
<path fill="none" stroke="black" d="M4119,-84.83C4119,-101.2 4119,-122.8 4119,-122.8 4119,-122.8 4014.85,-122.8 4014.85,-122.8"/>
<polygon fill="black" stroke="black" points="4014.85,-119.3 4004.85,-122.8 4014.85,-126.3 4014.85,-119.3"/>
</g>
<!-- JsonFormatterComponent -->
<g id="node36" class="node">
<title>JsonFormatterComponent</title>
<polygon fill="#ffffb3" stroke="black" points="4039.93,-84.8 3878.07,-84.8 3878.07,-48.8 4039.93,-48.8 4039.93,-84.8"/>
<text text-anchor="middle" x="3959" y="-62.6" font-family="Times,serif" font-size="14.00">JsonFormatterComponent</text>
</g>
<!-- JsonFormatterComponent&#45;&gt;ToolsModule -->
<g id="edge34" class="edge">
<title>JsonFormatterComponent&#45;&gt;ToolsModule</title>
<path fill="none" stroke="black" d="M3974.24,-85.02C3974.24,-85.02 3974.24,-106.53 3974.24,-106.53"/>
<polygon fill="black" stroke="black" points="3970.74,-106.53 3974.24,-116.53 3977.74,-106.53 3970.74,-106.53"/>
</g>
<!-- JsonTyperComponent -->
<g id="node37" class="node">
<title>JsonTyperComponent</title>
<polygon fill="#ffffb3" stroke="black" points="3859.65,-84.8 3720.35,-84.8 3720.35,-48.8 3859.65,-48.8 3859.65,-84.8"/>
<text text-anchor="middle" x="3790" y="-62.6" font-family="Times,serif" font-size="14.00">JsonTyperComponent</text>
</g>
<!-- JsonTyperComponent&#45;&gt;ToolsModule -->
<g id="edge35" class="edge">
<title>JsonTyperComponent&#45;&gt;ToolsModule</title>
<path fill="none" stroke="black" d="M3790,-84.91C3790,-104.14 3790,-131.8 3790,-131.8 3790,-131.8 3903.27,-131.8 3903.27,-131.8"/>
<polygon fill="black" stroke="black" points="3903.27,-135.3 3913.27,-131.8 3903.27,-128.3 3903.27,-135.3"/>
</g>
<!-- RealtimeComponent -->
<g id="node38" class="node">
<title>RealtimeComponent</title>
<polygon fill="#ffffb3" stroke="black" points="3701.88,-84.8 3570.12,-84.8 3570.12,-48.8 3701.88,-48.8 3701.88,-84.8"/>
<text text-anchor="middle" x="3636" y="-62.6" font-family="Times,serif" font-size="14.00">RealtimeComponent</text>
</g>
<!-- RealtimeComponent&#45;&gt;ToolsModule -->
<g id="edge36" class="edge">
<title>RealtimeComponent&#45;&gt;ToolsModule</title>
<path fill="none" stroke="black" d="M3636,-84.97C3636,-106.3 3636,-138.8 3636,-138.8 3636,-138.8 3903.07,-138.8 3903.07,-138.8"/>
<polygon fill="black" stroke="black" points="3903.07,-142.3 3913.07,-138.8 3903.06,-135.3 3903.07,-142.3"/>
</g>
<!-- ToolsListComponent -->
<g id="node39" class="node">
<title>ToolsListComponent</title>
<polygon fill="#ffffb3" stroke="black" points="4683.5,-84.8 4548.5,-84.8 4548.5,-48.8 4683.5,-48.8 4683.5,-84.8"/>
<text text-anchor="middle" x="4616" y="-62.6" font-family="Times,serif" font-size="14.00">ToolsListComponent</text>
</g>
<!-- ToolsListComponent&#45;&gt;ToolsModule -->
<g id="edge37" class="edge">
<title>ToolsListComponent&#45;&gt;ToolsModule</title>
<path fill="none" stroke="black" d="M4616,-85.08C4616,-106.12 4616,-137.8 4616,-137.8 4616,-137.8 4014.94,-137.8 4014.94,-137.8"/>
<polygon fill="black" stroke="black" points="4014.94,-134.3 4004.94,-137.8 4014.94,-141.3 4014.94,-134.3"/>
</g>
<!-- UserInfoComponent -->
<g id="node40" class="node">
<title>UserInfoComponent</title>
<polygon fill="#ffffb3" stroke="black" points="4530.58,-84.8 4399.42,-84.8 4399.42,-48.8 4530.58,-48.8 4530.58,-84.8"/>
<text text-anchor="middle" x="4465" y="-62.6" font-family="Times,serif" font-size="14.00">UserInfoComponent</text>
</g>
<!-- UserInfoComponent&#45;&gt;ToolsModule -->
<g id="edge38" class="edge">
<title>UserInfoComponent&#45;&gt;ToolsModule</title>
<path fill="none" stroke="black" d="M4465,-84.83C4465,-104.38 4465,-132.8 4465,-132.8 4465,-132.8 4014.8,-132.8 4014.8,-132.8"/>
<polygon fill="black" stroke="black" points="4014.8,-129.3 4004.8,-132.8 4014.8,-136.3 4014.8,-129.3"/>
</g>
<!-- ToolsRoutingModule -->
<g id="node42" class="node">
<title>ToolsRoutingModule</title>
<polygon fill="#8dd3c7" stroke="black" points="3546.06,-84.8 3543.06,-88.8 3522.06,-88.8 3519.06,-84.8 3409.94,-84.8 3409.94,-48.8 3546.06,-48.8 3546.06,-84.8"/>
<text text-anchor="middle" x="3478" y="-62.6" font-family="Times,serif" font-size="14.00">ToolsRoutingModule</text>
</g>
<!-- ToolsRoutingModule&#45;&gt;ToolsModule -->
<g id="edge40" class="edge">
<title>ToolsRoutingModule&#45;&gt;ToolsModule</title>
<path fill="none" stroke="black" d="M3478,-85.12C3478,-108.46 3478,-145.8 3478,-145.8 3478,-145.8 3902.88,-145.8 3902.88,-145.8"/>
<polygon fill="black" stroke="black" points="3902.88,-149.3 3912.88,-145.8 3902.88,-142.3 3902.88,-149.3"/>
</g>
</g>
</svg>
