<?xml version="1.0" encoding="UTF-8" standalone="no"?>
<!DOCTYPE svg PUBLIC "-//W3C//DTD SVG 1.1//EN"
 "http://www.w3.org/Graphics/SVG/1.1/DTD/svg11.dtd">
<!-- Generated by graphviz version 2.47.3 (20210619.1520)
 -->
<!-- Title: dependencies Pages: 1 -->
<svg width="4009pt" height="323pt"
 viewBox="0.00 0.00 4009.00 322.80" xmlns="http://www.w3.org/2000/svg" xmlns:xlink="http://www.w3.org/1999/xlink">
<g id="graph0" class="graph" transform="scale(1 1) rotate(0) translate(4 318.8)">
<title>dependencies</title>
<polygon fill="white" stroke="transparent" points="-4,4 -4,-318.8 4005,-318.8 4005,4 -4,4"/>
<text text-anchor="middle" x="2000.5" y="-8.2" font-family="sans-serif" font-size="14.00">dependencies</text>
<g id="clust1" class="cluster">
<title>cluster_AppModule</title>
<polygon fill="none" stroke="black" stroke-dasharray="1,5" points="922,-108.8 922,-306.8 1329,-306.8 1329,-108.8 922,-108.8"/>
</g>
<g id="clust2" class="cluster">
<title>cluster_AppModule_declarations</title>
<polygon fill="none" stroke="black" points="930,-116.8 930,-168.8 1052,-168.8 1052,-116.8 930,-116.8"/>
</g>
<g id="clust4" class="cluster">
<title>cluster_AppModule_imports</title>
<polygon fill="none" stroke="black" points="1060,-116.8 1060,-168.8 1321,-168.8 1321,-116.8 1060,-116.8"/>
</g>
<g id="clust6" class="cluster">
<title>cluster_AppModule_bootstrap</title>
<polygon fill="none" stroke="black" points="1070,-246.8 1070,-298.8 1194,-298.8 1194,-246.8 1070,-246.8"/>
</g>
<g id="clust14" class="cluster">
<title>cluster_BlogModule</title>
<polygon fill="none" stroke="black" stroke-dasharray="1,5" points="435,-108.8 435,-233.8 914,-233.8 914,-108.8 435,-108.8"/>
</g>
<g id="clust15" class="cluster">
<title>cluster_BlogModule_declarations</title>
<polygon fill="none" stroke="black" points="599,-116.8 599,-168.8 906,-168.8 906,-116.8 599,-116.8"/>
</g>
<g id="clust18" class="cluster">
<title>cluster_BlogModule_imports</title>
<polygon fill="none" stroke="black" points="443,-116.8 443,-168.8 591,-168.8 591,-116.8 443,-116.8"/>
</g>
<g id="clust28" class="cluster">
<title>cluster_HomeModule</title>
<polygon fill="none" stroke="black" stroke-dasharray="1,5" points="1337,-108.8 1337,-233.8 1919,-233.8 1919,-108.8 1337,-108.8"/>
</g>
<g id="clust29" class="cluster">
<title>cluster_HomeModule_declarations</title>
<polygon fill="none" stroke="black" points="1507,-116.8 1507,-168.8 1911,-168.8 1911,-116.8 1507,-116.8"/>
</g>
<g id="clust33" class="cluster">
<title>cluster_HomeModule_imports</title>
<polygon fill="none" stroke="black" points="1345,-116.8 1345,-168.8 1499,-168.8 1499,-116.8 1345,-116.8"/>
</g>
<g id="clust43" class="cluster">
<title>cluster_LogModule</title>
<polygon fill="none" stroke="black" stroke-dasharray="1,5" points="1927,-108.8 1927,-233.8 2393,-233.8 2393,-108.8 1927,-108.8"/>
</g>
<g id="clust44" class="cluster">
<title>cluster_LogModule_declarations</title>
<polygon fill="none" stroke="black" points="2087,-116.8 2087,-168.8 2385,-168.8 2385,-116.8 2087,-116.8"/>
</g>
<g id="clust47" class="cluster">
<title>cluster_LogModule_imports</title>
<polygon fill="none" stroke="black" points="1935,-116.8 1935,-168.8 2079,-168.8 2079,-116.8 1935,-116.8"/>
</g>
<g id="clust57" class="cluster">
<title>cluster_SharedModule</title>
<polygon fill="none" stroke="black" stroke-dasharray="1,5" points="8,-32.8 8,-100.8 2466,-100.8 2466,-32.8 8,-32.8"/>
</g>
<g id="clust58" class="cluster">
<title>cluster_SharedModule_declarations</title>
<polygon fill="none" stroke="black" points="1186,-40.8 1186,-92.8 2458,-92.8 2458,-40.8 1186,-40.8"/>
</g>
<g id="clust69" class="cluster">
<title>cluster_SharedModule_exports</title>
<polygon fill="none" stroke="black" points="16,-40.8 16,-92.8 1178,-92.8 1178,-40.8 16,-40.8"/>
</g>
<g id="clust72" class="cluster">
<title>cluster_ToolsModule</title>
<polygon fill="none" stroke="black" stroke-dasharray="1,5" points="2401,-108.8 2401,-233.8 3993,-233.8 3993,-108.8 2401,-108.8"/>
</g>
<g id="clust73" class="cluster">
<title>cluster_ToolsModule_declarations</title>
<polygon fill="none" stroke="black" points="2569,-116.8 2569,-168.8 3985,-168.8 3985,-116.8 2569,-116.8"/>
</g>
<g id="clust83" class="cluster">
<title>cluster_ToolsModule_imports</title>
<polygon fill="none" stroke="black" points="2409,-116.8 2409,-168.8 2561,-168.8 2561,-116.8 2409,-116.8"/>
</g>
<!-- AppComponent -->
<g id="node1" class="node">
<title>AppComponent</title>
<polygon fill="#ffffb3" stroke="black" points="1043.94,-160.8 938.06,-160.8 938.06,-124.8 1043.94,-124.8 1043.94,-160.8"/>
<text text-anchor="middle" x="991" y="-138.6" font-family="Times,serif" font-size="14.00">AppComponent</text>
</g>
<!-- AppModule -->
<g id="node2" class="node">
<title>AppModule</title>
<polygon fill="#8dd3c7" stroke="black" points="1173.66,-225.8 1170.66,-229.8 1149.66,-229.8 1146.66,-225.8 1090.34,-225.8 1090.34,-189.8 1173.66,-189.8 1173.66,-225.8"/>
<text text-anchor="middle" x="1132" y="-203.6" font-family="Times,serif" font-size="14.00">AppModule</text>
</g>
<!-- AppComponent&#45;&gt;AppModule -->
<g id="edge1" class="edge">
<title>AppComponent&#45;&gt;AppModule</title>
<path fill="none" stroke="black" d="M991,-160.91C991,-180.14 991,-207.8 991,-207.8 991,-207.8 1080.08,-207.8 1080.08,-207.8"/>
<polygon fill="black" stroke="black" points="1080.08,-211.3 1090.08,-207.8 1080.08,-204.3 1080.08,-211.3"/>
</g>
<!-- AppComponent  -->
<g id="node5" class="node">
<title>AppComponent </title>
<polygon fill="#80b1d3" stroke="black" points="1186.44,-290.8 1077.56,-290.8 1077.56,-254.8 1186.44,-254.8 1186.44,-290.8"/>
<text text-anchor="middle" x="1132" y="-268.6" font-family="Times,serif" font-size="14.00">AppComponent </text>
</g>
<!-- AppModule&#45;&gt;AppComponent  -->
<g id="edge4" class="edge">
<title>AppModule&#45;&gt;AppComponent </title>
<path fill="none" stroke="black" stroke-dasharray="1,5" d="M1132,-225.91C1132,-225.91 1132,-244.79 1132,-244.79"/>
<polygon fill="black" stroke="black" points="1128.5,-244.79 1132,-254.79 1135.5,-244.79 1128.5,-244.79"/>
</g>
<!-- AppRoutingModule -->
<g id="node3" class="node">
<title>AppRoutingModule</title>
<polygon fill="#8dd3c7" stroke="black" points="1196.27,-160.8 1193.27,-164.8 1172.27,-164.8 1169.27,-160.8 1067.73,-160.8 1067.73,-124.8 1196.27,-124.8 1196.27,-160.8"/>
<text text-anchor="middle" x="1132" y="-138.6" font-family="Times,serif" font-size="14.00">AppRoutingModule</text>
</g>
<!-- AppRoutingModule&#45;&gt;AppModule -->
<g id="edge2" class="edge">
<title>AppRoutingModule&#45;&gt;AppModule</title>
<path fill="none" stroke="black" d="M1132,-160.91C1132,-160.91 1132,-179.79 1132,-179.79"/>
<polygon fill="black" stroke="black" points="1128.5,-179.79 1132,-189.79 1135.5,-179.79 1128.5,-179.79"/>
</g>
<!-- SharedModule -->
<g id="node4" class="node">
<title>SharedModule</title>
<polygon fill="#8dd3c7" stroke="black" points="1313.42,-160.8 1310.42,-164.8 1289.42,-164.8 1286.42,-160.8 1214.58,-160.8 1214.58,-124.8 1313.42,-124.8 1313.42,-160.8"/>
<text text-anchor="middle" x="1264" y="-138.6" font-family="Times,serif" font-size="14.00">SharedModule</text>
</g>
<!-- SharedModule&#45;&gt;AppModule -->
<g id="edge3" class="edge">
<title>SharedModule&#45;&gt;AppModule</title>
<path fill="none" stroke="black" d="M1280.4,-161.09C1280.4,-183.01 1280.4,-216.8 1280.4,-216.8 1280.4,-216.8 1183.73,-216.8 1183.73,-216.8"/>
<polygon fill="black" stroke="black" points="1183.73,-213.3 1173.73,-216.8 1183.73,-220.3 1183.73,-213.3"/>
</g>
<!-- BlogModule -->
<g id="node8" class="node">
<title>BlogModule</title>
<polygon fill="#8dd3c7" stroke="black" points="792.28,-225.8 789.28,-229.8 768.28,-229.8 765.28,-225.8 705.72,-225.8 705.72,-189.8 792.28,-189.8 792.28,-225.8"/>
<text text-anchor="middle" x="749" y="-203.6" font-family="Times,serif" font-size="14.00">BlogModule</text>
</g>
<!-- SharedModule&#45;&gt;BlogModule -->
<g id="edge8" class="edge">
<title>SharedModule&#45;&gt;BlogModule</title>
<path fill="none" stroke="black" d="M1231.19,-160.93C1231.19,-171.51 1231.19,-182.8 1231.19,-182.8 1231.19,-182.8 780.13,-182.8 780.13,-182.8 780.13,-182.8 780.13,-183.48 780.13,-183.48"/>
<polygon fill="black" stroke="black" points="776.63,-179.63 780.13,-189.63 783.63,-179.63 776.63,-179.63"/>
</g>
<!-- HomeModule -->
<g id="node13" class="node">
<title>HomeModule</title>
<polygon fill="#8dd3c7" stroke="black" points="1618.76,-225.8 1615.76,-229.8 1594.76,-229.8 1591.76,-225.8 1525.24,-225.8 1525.24,-189.8 1618.76,-189.8 1618.76,-225.8"/>
<text text-anchor="middle" x="1572" y="-203.6" font-family="Times,serif" font-size="14.00">HomeModule</text>
</g>
<!-- SharedModule&#45;&gt;HomeModule -->
<g id="edge13" class="edge">
<title>SharedModule&#45;&gt;HomeModule</title>
<path fill="none" stroke="black" d="M1296.81,-160.91C1296.81,-180.14 1296.81,-207.8 1296.81,-207.8 1296.81,-207.8 1515.01,-207.8 1515.01,-207.8"/>
<polygon fill="black" stroke="black" points="1515.01,-211.3 1525.01,-207.8 1515.01,-204.3 1515.01,-211.3"/>
</g>
<!-- LogModule -->
<g id="node17" class="node">
<title>LogModule</title>
<polygon fill="#8dd3c7" stroke="black" points="2123.1,-225.8 2120.1,-229.8 2099.1,-229.8 2096.1,-225.8 2040.9,-225.8 2040.9,-189.8 2123.1,-189.8 2123.1,-225.8"/>
<text text-anchor="middle" x="2082" y="-203.6" font-family="Times,serif" font-size="14.00">LogModule</text>
</g>
<!-- SharedModule&#45;&gt;LogModule -->
<g id="edge17" class="edge">
<title>SharedModule&#45;&gt;LogModule</title>
<path fill="none" stroke="black" d="M1247.6,-160.84C1247.6,-168.55 1247.6,-175.8 1247.6,-175.8 1247.6,-175.8 2050.84,-175.8 2050.84,-175.8 2050.84,-175.8 2050.84,-179.56 2050.84,-179.56"/>
<polygon fill="black" stroke="black" points="2047.34,-179.56 2050.84,-189.56 2054.34,-179.56 2047.34,-179.56"/>
</g>
<!-- AdsComponent  -->
<g id="node28" class="node">
<title>AdsComponent </title>
<polygon fill="#fb8072" stroke="black" points="885.88,-84.8 778.12,-84.8 778.12,-48.8 885.88,-48.8 885.88,-84.8"/>
<text text-anchor="middle" x="832" y="-62.6" font-family="Times,serif" font-size="14.00">AdsComponent </text>
</g>
<!-- SharedModule&#45;&gt;AdsComponent  -->
<g id="edge27" class="edge">
<title>SharedModule&#45;&gt;AdsComponent </title>
<path fill="none" stroke="black" stroke-dasharray="5,2" d="M1249.53,-124.76C1249.53,-117.05 1249.53,-109.8 1249.53,-109.8 1249.53,-109.8 832,-109.8 832,-109.8 832,-109.8 832,-95.29 832,-95.29"/>
<polygon fill="black" stroke="black" points="835.5,-95.29 832,-85.29 828.5,-95.29 835.5,-95.29"/>
</g>
<!-- AdsModalComponent  -->
<g id="node29" class="node">
<title>AdsModalComponent </title>
<polygon fill="#fb8072" stroke="black" points="759.93,-84.8 616.07,-84.8 616.07,-48.8 759.93,-48.8 759.93,-84.8"/>
<text text-anchor="middle" x="688" y="-62.6" font-family="Times,serif" font-size="14.00">AdsModalComponent </text>
</g>
<!-- SharedModule&#45;&gt;AdsModalComponent  -->
<g id="edge28" class="edge">
<title>SharedModule&#45;&gt;AdsModalComponent </title>
<path fill="none" stroke="black" stroke-dasharray="5,2" d="M1243.74,-124.66C1243.74,-118.34 1243.74,-112.8 1243.74,-112.8 1243.74,-112.8 746.39,-112.8 746.39,-112.8 746.39,-112.8 746.39,-94.98 746.39,-94.98"/>
<polygon fill="black" stroke="black" points="749.89,-94.98 746.39,-84.98 742.89,-94.98 749.89,-94.98"/>
</g>
<!-- AmazonAdsComponent  -->
<g id="node30" class="node">
<title>AmazonAdsComponent </title>
<polygon fill="#fb8072" stroke="black" points="598.31,-84.8 443.69,-84.8 443.69,-48.8 598.31,-48.8 598.31,-84.8"/>
<text text-anchor="middle" x="521" y="-62.6" font-family="Times,serif" font-size="14.00">AmazonAdsComponent </text>
</g>
<!-- SharedModule&#45;&gt;AmazonAdsComponent  -->
<g id="edge29" class="edge">
<title>SharedModule&#45;&gt;AmazonAdsComponent </title>
<path fill="none" stroke="black" stroke-dasharray="5,2" d="M1237.95,-124.59C1237.95,-119.25 1237.95,-114.8 1237.95,-114.8 1237.95,-114.8 590.68,-114.8 590.68,-114.8 590.68,-114.8 590.68,-94.95 590.68,-94.95"/>
<polygon fill="black" stroke="black" points="594.18,-94.95 590.68,-84.95 587.18,-94.95 594.18,-94.95"/>
</g>
<!-- LoadingComponent  -->
<g id="node31" class="node">
<title>LoadingComponent </title>
<polygon fill="#fb8072" stroke="black" points="425.99,-84.8 294.01,-84.8 294.01,-48.8 425.99,-48.8 425.99,-84.8"/>
<text text-anchor="middle" x="360" y="-62.6" font-family="Times,serif" font-size="14.00">LoadingComponent </text>
</g>
<!-- SharedModule&#45;&gt;LoadingComponent  -->
<g id="edge30" class="edge">
<title>SharedModule&#45;&gt;LoadingComponent </title>
<path fill="none" stroke="black" stroke-dasharray="5,2" d="M1232.16,-124.63C1232.16,-120.75 1232.16,-117.8 1232.16,-117.8 1232.16,-117.8 360,-117.8 360,-117.8 360,-117.8 360,-94.92 360,-94.92"/>
<polygon fill="black" stroke="black" points="363.5,-94.92 360,-84.92 356.5,-94.92 363.5,-94.92"/>
</g>
<!-- MdescapePipe  -->
<g id="node32" class="node">
<title>MdescapePipe </title>
<polygon fill="#fb8072" stroke="black" points="276.64,-84.8 175.36,-84.8 175.36,-48.8 276.64,-48.8 276.64,-84.8"/>
<text text-anchor="middle" x="226" y="-62.6" font-family="Times,serif" font-size="14.00">MdescapePipe </text>
</g>
<!-- SharedModule&#45;&gt;MdescapePipe  -->
<g id="edge31" class="edge">
<title>SharedModule&#45;&gt;MdescapePipe </title>
<path fill="none" stroke="black" stroke-dasharray="5,2" d="M1226.37,-124.68C1226.37,-121.83 1226.37,-119.8 1226.37,-119.8 1226.37,-119.8 226,-119.8 226,-119.8 226,-119.8 226,-95.04 226,-95.04"/>
<polygon fill="black" stroke="black" points="229.5,-95.04 226,-85.04 222.5,-95.04 229.5,-95.04"/>
</g>
<!-- MessageComponent  -->
<g id="node33" class="node">
<title>MessageComponent </title>
<polygon fill="#fb8072" stroke="black" points="157.81,-84.8 24.19,-84.8 24.19,-48.8 157.81,-48.8 157.81,-84.8"/>
<text text-anchor="middle" x="91" y="-62.6" font-family="Times,serif" font-size="14.00">MessageComponent </text>
</g>
<!-- SharedModule&#45;&gt;MessageComponent  -->
<g id="edge32" class="edge">
<title>SharedModule&#45;&gt;MessageComponent </title>
<path fill="none" stroke="black" stroke-dasharray="5,2" d="M1220.58,-124.65C1220.58,-123.5 1220.58,-122.8 1220.58,-122.8 1220.58,-122.8 91,-122.8 91,-122.8 91,-122.8 91,-94.83 91,-94.83"/>
<polygon fill="black" stroke="black" points="94.5,-94.83 91,-84.83 87.5,-94.83 94.5,-94.83"/>
</g>
<!-- NavComponent  -->
<g id="node34" class="node">
<title>NavComponent </title>
<polygon fill="#fb8072" stroke="black" points="1170.15,-84.8 1061.85,-84.8 1061.85,-48.8 1170.15,-48.8 1170.15,-84.8"/>
<text text-anchor="middle" x="1116" y="-62.6" font-family="Times,serif" font-size="14.00">NavComponent </text>
</g>
<!-- SharedModule&#45;&gt;NavComponent  -->
<g id="edge33" class="edge">
<title>SharedModule&#45;&gt;NavComponent </title>
<path fill="none" stroke="black" stroke-dasharray="5,2" d="M1261.11,-124.69C1261.11,-114.9 1261.11,-104.8 1261.11,-104.8 1261.11,-104.8 1118.84,-104.8 1118.84,-104.8 1118.84,-104.8 1118.84,-94.91 1118.84,-94.91"/>
<polygon fill="black" stroke="black" points="1122.34,-94.91 1118.84,-84.91 1115.34,-94.91 1122.34,-94.91"/>
</g>
<!-- TweetBtnComponent  -->
<g id="node35" class="node">
<title>TweetBtnComponent </title>
<polygon fill="#fb8072" stroke="black" points="1044.04,-84.8 903.96,-84.8 903.96,-48.8 1044.04,-48.8 1044.04,-84.8"/>
<text text-anchor="middle" x="974" y="-62.6" font-family="Times,serif" font-size="14.00">TweetBtnComponent </text>
</g>
<!-- SharedModule&#45;&gt;TweetBtnComponent  -->
<g id="edge34" class="edge">
<title>SharedModule&#45;&gt;TweetBtnComponent </title>
<path fill="none" stroke="black" stroke-dasharray="5,2" d="M1255.32,-124.48C1255.32,-116.01 1255.32,-107.8 1255.32,-107.8 1255.32,-107.8 991,-107.8 991,-107.8 991,-107.8 991,-94.9 991,-94.9"/>
<polygon fill="black" stroke="black" points="994.5,-94.9 991,-84.9 987.5,-94.9 994.5,-94.9"/>
</g>
<!-- ToolsModule -->
<g id="node45" class="node">
<title>ToolsModule</title>
<polygon fill="#8dd3c7" stroke="black" points="3126.94,-225.8 3123.94,-229.8 3102.94,-229.8 3099.94,-225.8 3035.06,-225.8 3035.06,-189.8 3126.94,-189.8 3126.94,-225.8"/>
<text text-anchor="middle" x="3081" y="-203.6" font-family="Times,serif" font-size="14.00">ToolsModule</text>
</g>
<!-- SharedModule&#45;&gt;ToolsModule -->
<g id="edge44" class="edge">
<title>SharedModule&#45;&gt;ToolsModule</title>
<path fill="none" stroke="black" d="M1264,-160.86C1264,-165.29 1264,-168.8 1264,-168.8 1264,-168.8 3065.76,-168.8 3065.76,-168.8 3065.76,-168.8 3065.76,-179.67 3065.76,-179.67"/>
<polygon fill="black" stroke="black" points="3062.26,-179.67 3065.76,-189.67 3069.26,-179.67 3062.26,-179.67"/>
</g>
<!-- BlogDetailComponent -->
<g id="node6" class="node">
<title>BlogDetailComponent</title>
<polygon fill="#ffffb3" stroke="black" points="898.27,-160.8 755.73,-160.8 755.73,-124.8 898.27,-124.8 898.27,-160.8"/>
<text text-anchor="middle" x="827" y="-138.6" font-family="Times,serif" font-size="14.00">BlogDetailComponent</text>
</g>
<!-- BlogDetailComponent&#45;&gt;BlogModule -->
<g id="edge5" class="edge">
<title>BlogDetailComponent&#45;&gt;BlogModule</title>
<path fill="none" stroke="black" d="M767.87,-160.91C767.87,-160.91 767.87,-179.79 767.87,-179.79"/>
<polygon fill="black" stroke="black" points="764.37,-179.79 767.87,-189.79 771.37,-179.79 764.37,-179.79"/>
</g>
<!-- BlogListComponent -->
<g id="node7" class="node">
<title>BlogListComponent</title>
<polygon fill="#ffffb3" stroke="black" points="737.34,-160.8 606.66,-160.8 606.66,-124.8 737.34,-124.8 737.34,-160.8"/>
<text text-anchor="middle" x="672" y="-138.6" font-family="Times,serif" font-size="14.00">BlogListComponent</text>
</g>
<!-- BlogListComponent&#45;&gt;BlogModule -->
<g id="edge6" class="edge">
<title>BlogListComponent&#45;&gt;BlogModule</title>
<path fill="none" stroke="black" d="M721.39,-160.91C721.39,-160.91 721.39,-179.79 721.39,-179.79"/>
<polygon fill="black" stroke="black" points="717.89,-179.79 721.39,-189.79 724.89,-179.79 717.89,-179.79"/>
</g>
<!-- BlogRoutingModule -->
<g id="node9" class="node">
<title>BlogRoutingModule</title>
<polygon fill="#8dd3c7" stroke="black" points="582.89,-160.8 579.89,-164.8 558.89,-164.8 555.89,-160.8 451.11,-160.8 451.11,-124.8 582.89,-124.8 582.89,-160.8"/>
<text text-anchor="middle" x="517" y="-138.6" font-family="Times,serif" font-size="14.00">BlogRoutingModule</text>
</g>
<!-- BlogRoutingModule&#45;&gt;BlogModule -->
<g id="edge7" class="edge">
<title>BlogRoutingModule&#45;&gt;BlogModule</title>
<path fill="none" stroke="black" d="M517,-160.91C517,-180.14 517,-207.8 517,-207.8 517,-207.8 695.63,-207.8 695.63,-207.8"/>
<polygon fill="black" stroke="black" points="695.63,-211.3 705.63,-207.8 695.63,-204.3 695.63,-211.3"/>
</g>
<!-- ContactComponent -->
<g id="node10" class="node">
<title>ContactComponent</title>
<polygon fill="#ffffb3" stroke="black" points="1771.38,-160.8 1646.62,-160.8 1646.62,-124.8 1771.38,-124.8 1771.38,-160.8"/>
<text text-anchor="middle" x="1709" y="-138.6" font-family="Times,serif" font-size="14.00">ContactComponent</text>
</g>
<!-- ContactComponent&#45;&gt;HomeModule -->
<g id="edge9" class="edge">
<title>ContactComponent&#45;&gt;HomeModule</title>
<path fill="none" stroke="black" d="M1709,-160.82C1709,-178.17 1709,-201.8 1709,-201.8 1709,-201.8 1628.76,-201.8 1628.76,-201.8"/>
<polygon fill="black" stroke="black" points="1628.76,-198.3 1618.76,-201.8 1628.76,-205.3 1628.76,-198.3"/>
</g>
<!-- IndexComponent -->
<g id="node11" class="node">
<title>IndexComponent</title>
<polygon fill="#ffffb3" stroke="black" points="1628.71,-160.8 1515.29,-160.8 1515.29,-124.8 1628.71,-124.8 1628.71,-160.8"/>
<text text-anchor="middle" x="1572" y="-138.6" font-family="Times,serif" font-size="14.00">IndexComponent</text>
</g>
<!-- IndexComponent&#45;&gt;HomeModule -->
<g id="edge10" class="edge">
<title>IndexComponent&#45;&gt;HomeModule</title>
<path fill="none" stroke="black" d="M1572,-160.91C1572,-160.91 1572,-179.79 1572,-179.79"/>
<polygon fill="black" stroke="black" points="1568.5,-179.79 1572,-189.79 1575.5,-179.79 1568.5,-179.79"/>
</g>
<!-- NewsComponent -->
<g id="node12" class="node">
<title>NewsComponent</title>
<polygon fill="#ffffb3" stroke="black" points="1902.7,-160.8 1789.3,-160.8 1789.3,-124.8 1902.7,-124.8 1902.7,-160.8"/>
<text text-anchor="middle" x="1846" y="-138.6" font-family="Times,serif" font-size="14.00">NewsComponent</text>
</g>
<!-- NewsComponent&#45;&gt;HomeModule -->
<g id="edge11" class="edge">
<title>NewsComponent&#45;&gt;HomeModule</title>
<path fill="none" stroke="black" d="M1846,-161.08C1846,-182.12 1846,-213.8 1846,-213.8 1846,-213.8 1628.79,-213.8 1628.79,-213.8"/>
<polygon fill="black" stroke="black" points="1628.79,-210.3 1618.79,-213.8 1628.79,-217.3 1628.79,-210.3"/>
</g>
<!-- HomeRoutingModule -->
<g id="node14" class="node">
<title>HomeRoutingModule</title>
<polygon fill="#8dd3c7" stroke="black" points="1491.38,-160.8 1488.38,-164.8 1467.38,-164.8 1464.38,-160.8 1352.62,-160.8 1352.62,-124.8 1491.38,-124.8 1491.38,-160.8"/>
<text text-anchor="middle" x="1422" y="-138.6" font-family="Times,serif" font-size="14.00">HomeRoutingModule</text>
</g>
<!-- HomeRoutingModule&#45;&gt;HomeModule -->
<g id="edge12" class="edge">
<title>HomeRoutingModule&#45;&gt;HomeModule</title>
<path fill="none" stroke="black" d="M1422,-160.83C1422,-177.2 1422,-198.8 1422,-198.8 1422,-198.8 1514.95,-198.8 1514.95,-198.8"/>
<polygon fill="black" stroke="black" points="1514.95,-202.3 1524.95,-198.8 1514.95,-195.3 1514.95,-202.3"/>
</g>
<!-- LogDetailComponent -->
<g id="node15" class="node">
<title>LogDetailComponent</title>
<polygon fill="#ffffb3" stroke="black" points="2377.09,-160.8 2238.91,-160.8 2238.91,-124.8 2377.09,-124.8 2377.09,-160.8"/>
<text text-anchor="middle" x="2308" y="-138.6" font-family="Times,serif" font-size="14.00">LogDetailComponent</text>
</g>
<!-- LogDetailComponent&#45;&gt;LogModule -->
<g id="edge14" class="edge">
<title>LogDetailComponent&#45;&gt;LogModule</title>
<path fill="none" stroke="black" d="M2308,-161.04C2308,-176.37 2308,-195.8 2308,-195.8 2308,-195.8 2133.19,-195.8 2133.19,-195.8"/>
<polygon fill="black" stroke="black" points="2133.19,-192.3 2123.19,-195.8 2133.19,-199.3 2133.19,-192.3"/>
</g>
<!-- LogListComponent -->
<g id="node16" class="node">
<title>LogListComponent</title>
<polygon fill="#ffffb3" stroke="black" points="2220.66,-160.8 2095.34,-160.8 2095.34,-124.8 2220.66,-124.8 2220.66,-160.8"/>
<text text-anchor="middle" x="2158" y="-138.6" font-family="Times,serif" font-size="14.00">LogListComponent</text>
</g>
<!-- LogListComponent&#45;&gt;LogModule -->
<g id="edge15" class="edge">
<title>LogListComponent&#45;&gt;LogModule</title>
<path fill="none" stroke="black" d="M2109.11,-160.91C2109.11,-160.91 2109.11,-179.79 2109.11,-179.79"/>
<polygon fill="black" stroke="black" points="2105.61,-179.79 2109.11,-189.79 2112.61,-179.79 2105.61,-179.79"/>
</g>
<!-- LogRoutingModule -->
<g id="node18" class="node">
<title>LogRoutingModule</title>
<polygon fill="#8dd3c7" stroke="black" points="2070.72,-160.8 2067.72,-164.8 2046.72,-164.8 2043.72,-160.8 1943.28,-160.8 1943.28,-124.8 2070.72,-124.8 2070.72,-160.8"/>
<text text-anchor="middle" x="2007" y="-138.6" font-family="Times,serif" font-size="14.00">LogRoutingModule</text>
</g>
<!-- LogRoutingModule&#45;&gt;LogModule -->
<g id="edge16" class="edge">
<title>LogRoutingModule&#45;&gt;LogModule</title>
<path fill="none" stroke="black" d="M2060.72,-160.91C2060.72,-160.91 2060.72,-179.79 2060.72,-179.79"/>
<polygon fill="black" stroke="black" points="2057.22,-179.79 2060.72,-189.79 2064.22,-179.79 2057.22,-179.79"/>
</g>
<!-- AdsComponent -->
<g id="node19" class="node">
<title>AdsComponent</title>
<polygon fill="#ffffb3" stroke="black" points="1455.88,-84.8 1352.12,-84.8 1352.12,-48.8 1455.88,-48.8 1455.88,-84.8"/>
<text text-anchor="middle" x="1404" y="-62.6" font-family="Times,serif" font-size="14.00">AdsComponent</text>
</g>
<!-- AdsComponent&#45;&gt;SharedModule -->
<g id="edge18" class="edge">
<title>AdsComponent&#45;&gt;SharedModule</title>
<path fill="none" stroke="black" d="M1351.86,-66.8C1346.59,-66.8 1343.14,-66.8 1343.14,-66.8 1343.14,-66.8 1343.14,-142.8 1343.14,-142.8 1343.14,-142.8 1323.22,-142.8 1323.22,-142.8"/>
<polygon fill="black" stroke="black" points="1323.22,-139.3 1313.22,-142.8 1323.22,-146.3 1323.22,-139.3"/>
</g>
<!-- AdsModalComponent -->
<g id="node20" class="node">
<title>AdsModalComponent</title>
<polygon fill="#ffffb3" stroke="black" points="1334.43,-84.8 1193.57,-84.8 1193.57,-48.8 1334.43,-48.8 1334.43,-84.8"/>
<text text-anchor="middle" x="1264" y="-62.6" font-family="Times,serif" font-size="14.00">AdsModalComponent</text>
</g>
<!-- AdsModalComponent&#45;&gt;SharedModule -->
<g id="edge19" class="edge">
<title>AdsModalComponent&#45;&gt;SharedModule</title>
<path fill="none" stroke="black" d="M1266.89,-84.81C1266.89,-84.81 1266.89,-114.65 1266.89,-114.65"/>
<polygon fill="black" stroke="black" points="1263.39,-114.65 1266.89,-124.65 1270.39,-114.65 1263.39,-114.65"/>
</g>
<!-- AmazonAdsComponent -->
<g id="node21" class="node">
<title>AmazonAdsComponent</title>
<polygon fill="#ffffb3" stroke="black" points="2449.81,-84.8 2298.19,-84.8 2298.19,-48.8 2449.81,-48.8 2449.81,-84.8"/>
<text text-anchor="middle" x="2374" y="-62.6" font-family="Times,serif" font-size="14.00">AmazonAdsComponent</text>
</g>
<!-- AmazonAdsComponent&#45;&gt;SharedModule -->
<g id="edge20" class="edge">
<title>AmazonAdsComponent&#45;&gt;SharedModule</title>
<path fill="none" stroke="black" d="M2337.7,-85.22C2337.7,-94.08 2337.7,-102.8 2337.7,-102.8 2337.7,-102.8 1307.42,-102.8 1307.42,-102.8 1307.42,-102.8 1307.42,-114.67 1307.42,-114.67"/>
<polygon fill="black" stroke="black" points="1303.92,-114.67 1307.42,-124.67 1310.92,-114.67 1303.92,-114.67"/>
</g>
<!-- LoadingComponent -->
<g id="node22" class="node">
<title>LoadingComponent</title>
<polygon fill="#ffffb3" stroke="black" points="2279.99,-84.8 2152.01,-84.8 2152.01,-48.8 2279.99,-48.8 2279.99,-84.8"/>
<text text-anchor="middle" x="2216" y="-62.6" font-family="Times,serif" font-size="14.00">LoadingComponent</text>
</g>
<!-- LoadingComponent&#45;&gt;SharedModule -->
<g id="edge21" class="edge">
<title>LoadingComponent&#45;&gt;SharedModule</title>
<path fill="none" stroke="black" d="M2186.42,-84.84C2186.42,-92.55 2186.42,-99.8 2186.42,-99.8 2186.42,-99.8 1301.63,-99.8 1301.63,-99.8 1301.63,-99.8 1301.63,-114.31 1301.63,-114.31"/>
<polygon fill="black" stroke="black" points="1298.13,-114.31 1301.63,-124.31 1305.13,-114.31 1298.13,-114.31"/>
</g>
<!-- MdescapePipe -->
<g id="node23" class="node">
<title>MdescapePipe</title>
<polygon fill="#ffffb3" stroke="black" points="2133.64,-84.8 2036.36,-84.8 2036.36,-48.8 2133.64,-48.8 2133.64,-84.8"/>
<text text-anchor="middle" x="2085" y="-62.6" font-family="Times,serif" font-size="14.00">MdescapePipe</text>
</g>
<!-- MdescapePipe&#45;&gt;SharedModule -->
<g id="edge22" class="edge">
<title>MdescapePipe&#45;&gt;SharedModule</title>
<path fill="none" stroke="black" d="M2053.4,-84.83C2053.4,-91.65 2053.4,-97.8 2053.4,-97.8 2053.4,-97.8 1295.84,-97.8 1295.84,-97.8 1295.84,-97.8 1295.84,-114.76 1295.84,-114.76"/>
<polygon fill="black" stroke="black" points="1292.34,-114.76 1295.84,-124.76 1299.34,-114.76 1292.34,-114.76"/>
</g>
<!-- MessageComponent -->
<g id="node24" class="node">
<title>MessageComponent</title>
<polygon fill="#ffffb3" stroke="black" points="2018.31,-84.8 1887.69,-84.8 1887.69,-48.8 2018.31,-48.8 2018.31,-84.8"/>
<text text-anchor="middle" x="1953" y="-62.6" font-family="Times,serif" font-size="14.00">MessageComponent</text>
</g>
<!-- MessageComponent&#45;&gt;SharedModule -->
<g id="edge23" class="edge">
<title>MessageComponent&#45;&gt;SharedModule</title>
<path fill="none" stroke="black" d="M1895.22,-85.01C1895.22,-90.35 1895.22,-94.8 1895.22,-94.8 1895.22,-94.8 1290.05,-94.8 1290.05,-94.8 1290.05,-94.8 1290.05,-114.65 1290.05,-114.65"/>
<polygon fill="black" stroke="black" points="1286.55,-114.65 1290.05,-124.65 1293.55,-114.65 1286.55,-114.65"/>
</g>
<!-- NavComponent -->
<g id="node25" class="node">
<title>NavComponent</title>
<polygon fill="#ffffb3" stroke="black" points="1870.15,-84.8 1765.85,-84.8 1765.85,-48.8 1870.15,-48.8 1870.15,-84.8"/>
<text text-anchor="middle" x="1818" y="-62.6" font-family="Times,serif" font-size="14.00">NavComponent</text>
</g>
<!-- NavComponent&#45;&gt;SharedModule -->
<g id="edge24" class="edge">
<title>NavComponent&#45;&gt;SharedModule</title>
<path fill="none" stroke="black" d="M1780.42,-84.86C1780.42,-89.29 1780.42,-92.8 1780.42,-92.8 1780.42,-92.8 1284.26,-92.8 1284.26,-92.8 1284.26,-92.8 1284.26,-114.75 1284.26,-114.75"/>
<polygon fill="black" stroke="black" points="1280.76,-114.75 1284.26,-124.75 1287.76,-114.75 1280.76,-114.75"/>
</g>
<!-- ProfileComponent -->
<g id="node26" class="node">
<title>ProfileComponent</title>
<polygon fill="#ffffb3" stroke="black" points="1747.93,-84.8 1628.07,-84.8 1628.07,-48.8 1747.93,-48.8 1747.93,-84.8"/>
<text text-anchor="middle" x="1688" y="-62.6" font-family="Times,serif" font-size="14.00">ProfileComponent</text>
</g>
<!-- ProfileComponent&#45;&gt;SharedModule -->
<g id="edge25" class="edge">
<title>ProfileComponent&#45;&gt;SharedModule</title>
<path fill="none" stroke="black" d="M1637.58,-84.92C1637.58,-87.77 1637.58,-89.8 1637.58,-89.8 1637.58,-89.8 1278.47,-89.8 1278.47,-89.8 1278.47,-89.8 1278.47,-114.56 1278.47,-114.56"/>
<polygon fill="black" stroke="black" points="1274.97,-114.56 1278.47,-124.56 1281.97,-114.56 1274.97,-114.56"/>
</g>
<!-- TweetBtnComponent -->
<g id="node27" class="node">
<title>TweetBtnComponent</title>
<polygon fill="#ffffb3" stroke="black" points="1610.04,-84.8 1473.96,-84.8 1473.96,-48.8 1610.04,-48.8 1610.04,-84.8"/>
<text text-anchor="middle" x="1542" y="-62.6" font-family="Times,serif" font-size="14.00">TweetBtnComponent</text>
</g>
<!-- TweetBtnComponent&#45;&gt;SharedModule -->
<g id="edge26" class="edge">
<title>TweetBtnComponent&#45;&gt;SharedModule</title>
<path fill="none" stroke="black" d="M1482.59,-84.88C1482.59,-86.65 1482.59,-87.8 1482.59,-87.8 1482.59,-87.8 1272.68,-87.8 1272.68,-87.8 1272.68,-87.8 1272.68,-114.79 1272.68,-114.79"/>
<polygon fill="black" stroke="black" points="1269.18,-114.79 1272.68,-124.79 1276.18,-114.79 1269.18,-114.79"/>
</g>
<!-- AmazonAssociateComponent -->
<g id="node36" class="node">
<title>AmazonAssociateComponent</title>
<polygon fill="#ffffb3" stroke="black" points="3827.68,-160.8 3644.32,-160.8 3644.32,-124.8 3827.68,-124.8 3827.68,-160.8"/>
<text text-anchor="middle" x="3736" y="-138.6" font-family="Times,serif" font-size="14.00">AmazonAssociateComponent</text>
</g>
<!-- AmazonAssociateComponent&#45;&gt;ToolsModule -->
<g id="edge35" class="edge">
<title>AmazonAssociateComponent&#45;&gt;ToolsModule</title>
<path fill="none" stroke="black" d="M3736,-161.08C3736,-182.12 3736,-213.8 3736,-213.8 3736,-213.8 3136.8,-213.8 3136.8,-213.8"/>
<polygon fill="black" stroke="black" points="3136.8,-210.3 3126.8,-213.8 3136.8,-217.3 3136.8,-210.3"/>
</g>
<!-- Base64Component -->
<g id="node37" class="node">
<title>Base64Component</title>
<polygon fill="#ffffb3" stroke="black" points="3626.04,-160.8 3503.96,-160.8 3503.96,-124.8 3626.04,-124.8 3626.04,-160.8"/>
<text text-anchor="middle" x="3565" y="-138.6" font-family="Times,serif" font-size="14.00">Base64Component</text>
</g>
<!-- Base64Component&#45;&gt;ToolsModule -->
<g id="edge36" class="edge">
<title>Base64Component&#45;&gt;ToolsModule</title>
<path fill="none" stroke="black" d="M3565,-160.91C3565,-180.14 3565,-207.8 3565,-207.8 3565,-207.8 3136.97,-207.8 3136.97,-207.8"/>
<polygon fill="black" stroke="black" points="3136.97,-204.3 3126.97,-207.8 3136.97,-211.3 3136.97,-204.3"/>
</g>
<!-- JsonFormatterComponent -->
<g id="node38" class="node">
<title>JsonFormatterComponent</title>
<polygon fill="#ffffb3" stroke="black" points="3485.93,-160.8 3324.07,-160.8 3324.07,-124.8 3485.93,-124.8 3485.93,-160.8"/>
<text text-anchor="middle" x="3405" y="-138.6" font-family="Times,serif" font-size="14.00">JsonFormatterComponent</text>
</g>
<!-- JsonFormatterComponent&#45;&gt;ToolsModule -->
<g id="edge37" class="edge">
<title>JsonFormatterComponent&#45;&gt;ToolsModule</title>
<path fill="none" stroke="black" d="M3405,-160.82C3405,-178.17 3405,-201.8 3405,-201.8 3405,-201.8 3136.73,-201.8 3136.73,-201.8"/>
<polygon fill="black" stroke="black" points="3136.73,-198.3 3126.73,-201.8 3136.73,-205.3 3136.73,-198.3"/>
</g>
<!-- JsonTyperComponent -->
<g id="node39" class="node">
<title>JsonTyperComponent</title>
<polygon fill="#ffffb3" stroke="black" points="3305.65,-160.8 3166.35,-160.8 3166.35,-124.8 3305.65,-124.8 3305.65,-160.8"/>
<text text-anchor="middle" x="3236" y="-138.6" font-family="Times,serif" font-size="14.00">JsonTyperComponent</text>
</g>
<!-- JsonTyperComponent&#45;&gt;ToolsModule -->
<g id="edge38" class="edge">
<title>JsonTyperComponent&#45;&gt;ToolsModule</title>
<path fill="none" stroke="black" d="M3236,-161.04C3236,-176.37 3236,-195.8 3236,-195.8 3236,-195.8 3137.09,-195.8 3137.09,-195.8"/>
<polygon fill="black" stroke="black" points="3137.09,-192.3 3127.09,-195.8 3137.09,-199.3 3137.09,-192.3"/>
</g>
<!-- MdwriterComponent -->
<g id="node40" class="node">
<title>MdwriterComponent</title>
<polygon fill="#ffffb3" stroke="black" points="3148.2,-160.8 3013.8,-160.8 3013.8,-124.8 3148.2,-124.8 3148.2,-160.8"/>
<text text-anchor="middle" x="3081" y="-138.6" font-family="Times,serif" font-size="14.00">MdwriterComponent</text>
</g>
<!-- MdwriterComponent&#45;&gt;ToolsModule -->
<g id="edge39" class="edge">
<title>MdwriterComponent&#45;&gt;ToolsModule</title>
<path fill="none" stroke="black" d="M3096.24,-160.91C3096.24,-160.91 3096.24,-179.79 3096.24,-179.79"/>
<polygon fill="black" stroke="black" points="3092.74,-179.79 3096.24,-189.79 3099.74,-179.79 3092.74,-179.79"/>
</g>
<!-- RealtimeComponent -->
<g id="node41" class="node">
<title>RealtimeComponent</title>
<polygon fill="#ffffb3" stroke="black" points="2995.88,-160.8 2864.12,-160.8 2864.12,-124.8 2995.88,-124.8 2995.88,-160.8"/>
<text text-anchor="middle" x="2930" y="-138.6" font-family="Times,serif" font-size="14.00">RealtimeComponent</text>
</g>
<!-- RealtimeComponent&#45;&gt;ToolsModule -->
<g id="edge40" class="edge">
<title>RealtimeComponent&#45;&gt;ToolsModule</title>
<path fill="none" stroke="black" d="M2930,-160.82C2930,-178.17 2930,-201.8 2930,-201.8 2930,-201.8 3024.87,-201.8 3024.87,-201.8"/>
<polygon fill="black" stroke="black" points="3024.87,-205.3 3034.87,-201.8 3024.87,-198.3 3024.87,-205.3"/>
</g>
<!-- RegexComponent -->
<g id="node42" class="node">
<title>RegexComponent</title>
<polygon fill="#ffffb3" stroke="black" points="2846.6,-160.8 2729.4,-160.8 2729.4,-124.8 2846.6,-124.8 2846.6,-160.8"/>
<text text-anchor="middle" x="2788" y="-138.6" font-family="Times,serif" font-size="14.00">RegexComponent</text>
</g>
<!-- RegexComponent&#45;&gt;ToolsModule -->
<g id="edge41" class="edge">
<title>RegexComponent&#45;&gt;ToolsModule</title>
<path fill="none" stroke="black" d="M2788,-160.91C2788,-180.14 2788,-207.8 2788,-207.8 2788,-207.8 3025.22,-207.8 3025.22,-207.8"/>
<polygon fill="black" stroke="black" points="3025.22,-211.3 3035.22,-207.8 3025.22,-204.3 3025.22,-211.3"/>
</g>
<!-- ToolsListComponent -->
<g id="node43" class="node">
<title>ToolsListComponent</title>
<polygon fill="#ffffb3" stroke="black" points="2711.5,-160.8 2576.5,-160.8 2576.5,-124.8 2711.5,-124.8 2711.5,-160.8"/>
<text text-anchor="middle" x="2644" y="-138.6" font-family="Times,serif" font-size="14.00">ToolsListComponent</text>
</g>
<!-- ToolsListComponent&#45;&gt;ToolsModule -->
<g id="edge42" class="edge">
<title>ToolsListComponent&#45;&gt;ToolsModule</title>
<path fill="none" stroke="black" d="M2644,-161.08C2644,-182.12 2644,-213.8 2644,-213.8 2644,-213.8 3025.06,-213.8 3025.06,-213.8"/>
<polygon fill="black" stroke="black" points="3025.06,-217.3 3035.06,-213.8 3025.06,-210.3 3025.06,-217.3"/>
</g>
<!-- UserInfoComponent -->
<g id="node44" class="node">
<title>UserInfoComponent</title>
<polygon fill="#ffffb3" stroke="black" points="3976.58,-160.8 3845.42,-160.8 3845.42,-124.8 3976.58,-124.8 3976.58,-160.8"/>
<text text-anchor="middle" x="3911" y="-138.6" font-family="Times,serif" font-size="14.00">UserInfoComponent</text>
</g>
<!-- UserInfoComponent&#45;&gt;ToolsModule -->
<g id="edge43" class="edge">
<title>UserInfoComponent&#45;&gt;ToolsModule</title>
<path fill="none" stroke="black" d="M3911,-161.05C3911,-183.82 3911,-219.8 3911,-219.8 3911,-219.8 3136.81,-219.8 3136.81,-219.8"/>
<polygon fill="black" stroke="black" points="3136.81,-216.3 3126.81,-219.8 3136.81,-223.3 3136.81,-216.3"/>
</g>
<!-- ToolsRoutingModule -->
<g id="node46" class="node">
<title>ToolsRoutingModule</title>
<polygon fill="#8dd3c7" stroke="black" points="2553.06,-160.8 2550.06,-164.8 2529.06,-164.8 2526.06,-160.8 2416.94,-160.8 2416.94,-124.8 2553.06,-124.8 2553.06,-160.8"/>
<text text-anchor="middle" x="2485" y="-138.6" font-family="Times,serif" font-size="14.00">ToolsRoutingModule</text>
</g>
<!-- ToolsRoutingModule&#45;&gt;ToolsModule -->
<g id="edge45" class="edge">
<title>ToolsRoutingModule&#45;&gt;ToolsModule</title>
<path fill="none" stroke="black" d="M2485,-161.05C2485,-183.82 2485,-219.8 2485,-219.8 2485,-219.8 3025.22,-219.8 3025.22,-219.8"/>
<polygon fill="black" stroke="black" points="3025.22,-223.3 3035.22,-219.8 3025.22,-216.3 3025.22,-223.3"/>
</g>
</g>
</svg>
