<?xml version="1.0" encoding="UTF-8" standalone="no"?>
<!DOCTYPE svg PUBLIC "-//W3C//DTD SVG 1.1//EN"
 "http://www.w3.org/Graphics/SVG/1.1/DTD/svg11.dtd">
<!-- Generated by graphviz version 3.0.0 (20220226.1711)
 -->
<!-- Title: dependencies Pages: 1 -->
<svg width="5163pt" height="323pt"
 viewBox="0.00 0.00 5163.00 322.80" xmlns="http://www.w3.org/2000/svg" xmlns:xlink="http://www.w3.org/1999/xlink">
<g id="graph0" class="graph" transform="scale(1 1) rotate(0) translate(4 318.8)">
<title>dependencies</title>
<polygon fill="white" stroke="transparent" points="-4,4 -4,-318.8 5159,-318.8 5159,4 -4,4"/>
<text text-anchor="middle" x="2577.5" y="-8.2" font-family="sans-serif" font-size="14.00">dependencies</text>
<g id="clust1" class="cluster">
<title>cluster_AppModule</title>
<polygon fill="none" stroke="black" stroke-dasharray="1,5" points="1476,-108.8 1476,-306.8 1883,-306.8 1883,-108.8 1476,-108.8"/>
</g>
<g id="clust2" class="cluster">
<title>cluster_AppModule_declarations</title>
<polygon fill="none" stroke="black" points="1484,-116.8 1484,-168.8 1606,-168.8 1606,-116.8 1484,-116.8"/>
</g>
<g id="clust4" class="cluster">
<title>cluster_AppModule_imports</title>
<polygon fill="none" stroke="black" points="1614,-116.8 1614,-168.8 1875,-168.8 1875,-116.8 1614,-116.8"/>
</g>
<g id="clust6" class="cluster">
<title>cluster_AppModule_bootstrap</title>
<polygon fill="none" stroke="black" points="1624,-246.8 1624,-298.8 1748,-298.8 1748,-246.8 1624,-246.8"/>
</g>
<g id="clust14" class="cluster">
<title>cluster_BlogModule</title>
<polygon fill="none" stroke="black" stroke-dasharray="1,5" points="989,-108.8 989,-233.8 1468,-233.8 1468,-108.8 989,-108.8"/>
</g>
<g id="clust15" class="cluster">
<title>cluster_BlogModule_declarations</title>
<polygon fill="none" stroke="black" points="1153,-116.8 1153,-168.8 1460,-168.8 1460,-116.8 1153,-116.8"/>
</g>
<g id="clust18" class="cluster">
<title>cluster_BlogModule_imports</title>
<polygon fill="none" stroke="black" points="997,-116.8 997,-168.8 1145,-168.8 1145,-116.8 997,-116.8"/>
</g>
<g id="clust28" class="cluster">
<title>cluster_HomeModule</title>
<polygon fill="none" stroke="black" stroke-dasharray="1,5" points="1891,-108.8 1891,-233.8 2626,-233.8 2626,-108.8 1891,-108.8"/>
</g>
<g id="clust29" class="cluster">
<title>cluster_HomeModule_declarations</title>
<polygon fill="none" stroke="black" points="2061,-116.8 2061,-168.8 2618,-168.8 2618,-116.8 2061,-116.8"/>
</g>
<g id="clust34" class="cluster">
<title>cluster_HomeModule_imports</title>
<polygon fill="none" stroke="black" points="1899,-116.8 1899,-168.8 2053,-168.8 2053,-116.8 1899,-116.8"/>
</g>
<g id="clust44" class="cluster">
<title>cluster_LogModule</title>
<polygon fill="none" stroke="black" stroke-dasharray="1,5" points="2634,-108.8 2634,-233.8 3100,-233.8 3100,-108.8 2634,-108.8"/>
</g>
<g id="clust45" class="cluster">
<title>cluster_LogModule_declarations</title>
<polygon fill="none" stroke="black" points="2794,-116.8 2794,-168.8 3092,-168.8 3092,-116.8 2794,-116.8"/>
</g>
<g id="clust48" class="cluster">
<title>cluster_LogModule_imports</title>
<polygon fill="none" stroke="black" points="2642,-116.8 2642,-168.8 2786,-168.8 2786,-116.8 2642,-116.8"/>
</g>
<g id="clust58" class="cluster">
<title>cluster_SharedModule</title>
<polygon fill="none" stroke="black" stroke-dasharray="1,5" points="8,-32.8 8,-100.8 3562,-100.8 3562,-32.8 8,-32.8"/>
</g>
<g id="clust59" class="cluster">
<title>cluster_SharedModule_declarations</title>
<polygon fill="none" stroke="black" points="1740,-40.8 1740,-92.8 3554,-92.8 3554,-40.8 1740,-40.8"/>
</g>
<g id="clust74" class="cluster">
<title>cluster_SharedModule_exports</title>
<polygon fill="none" stroke="black" points="16,-40.8 16,-92.8 1732,-92.8 1732,-40.8 16,-40.8"/>
</g>
<g id="clust77" class="cluster">
<title>cluster_ToolsModule</title>
<polygon fill="none" stroke="black" stroke-dasharray="1,5" points="3108,-108.8 3108,-233.8 5147,-233.8 5147,-108.8 3108,-108.8"/>
</g>
<g id="clust78" class="cluster">
<title>cluster_ToolsModule_declarations</title>
<polygon fill="none" stroke="black" points="3276,-116.8 3276,-168.8 5139,-168.8 5139,-116.8 3276,-116.8"/>
</g>
<g id="clust91" class="cluster">
<title>cluster_ToolsModule_imports</title>
<polygon fill="none" stroke="black" points="3116,-116.8 3116,-168.8 3268,-168.8 3268,-116.8 3116,-116.8"/>
</g>
<!-- AppComponent -->
<g id="node1" class="node">
<title>AppComponent</title>
<polygon fill="#ffffb3" stroke="black" points="1597.94,-160.8 1492.06,-160.8 1492.06,-124.8 1597.94,-124.8 1597.94,-160.8"/>
<text text-anchor="middle" x="1545" y="-138.6" font-family="Times,serif" font-size="14.00">AppComponent</text>
</g>
<!-- AppModule -->
<g id="node2" class="node">
<title>AppModule</title>
<polygon fill="#8dd3c7" stroke="black" points="1727.66,-225.8 1724.66,-229.8 1703.66,-229.8 1700.66,-225.8 1644.34,-225.8 1644.34,-189.8 1727.66,-189.8 1727.66,-225.8"/>
<text text-anchor="middle" x="1686" y="-203.6" font-family="Times,serif" font-size="14.00">AppModule</text>
</g>
<!-- AppComponent&#45;&gt;AppModule -->
<g id="edge1" class="edge">
<title>AppComponent&#45;&gt;AppModule</title>
<path fill="none" stroke="black" d="M1545,-160.91C1545,-180.14 1545,-207.8 1545,-207.8 1545,-207.8 1634.08,-207.8 1634.08,-207.8"/>
<polygon fill="black" stroke="black" points="1634.08,-211.3 1644.08,-207.8 1634.08,-204.3 1634.08,-211.3"/>
</g>
<!-- AppComponent  -->
<g id="node5" class="node">
<title>AppComponent </title>
<polygon fill="#80b1d3" stroke="black" points="1740.44,-290.8 1631.56,-290.8 1631.56,-254.8 1740.44,-254.8 1740.44,-290.8"/>
<text text-anchor="middle" x="1686" y="-268.6" font-family="Times,serif" font-size="14.00">AppComponent </text>
</g>
<!-- AppModule&#45;&gt;AppComponent  -->
<g id="edge4" class="edge">
<title>AppModule&#45;&gt;AppComponent </title>
<path fill="none" stroke="black" stroke-dasharray="1,5" d="M1686,-225.91C1686,-225.91 1686,-244.79 1686,-244.79"/>
<polygon fill="black" stroke="black" points="1682.5,-244.79 1686,-254.79 1689.5,-244.79 1682.5,-244.79"/>
</g>
<!-- AppRoutingModule -->
<g id="node3" class="node">
<title>AppRoutingModule</title>
<polygon fill="#8dd3c7" stroke="black" points="1750.28,-160.8 1747.28,-164.8 1726.28,-164.8 1723.28,-160.8 1621.72,-160.8 1621.72,-124.8 1750.28,-124.8 1750.28,-160.8"/>
<text text-anchor="middle" x="1686" y="-138.6" font-family="Times,serif" font-size="14.00">AppRoutingModule</text>
</g>
<!-- AppRoutingModule&#45;&gt;AppModule -->
<g id="edge2" class="edge">
<title>AppRoutingModule&#45;&gt;AppModule</title>
<path fill="none" stroke="black" d="M1686,-160.91C1686,-160.91 1686,-179.79 1686,-179.79"/>
<polygon fill="black" stroke="black" points="1682.5,-179.79 1686,-189.79 1689.5,-179.79 1682.5,-179.79"/>
</g>
<!-- SharedModule -->
<g id="node4" class="node">
<title>SharedModule</title>
<polygon fill="#8dd3c7" stroke="black" points="1867.43,-160.8 1864.43,-164.8 1843.43,-164.8 1840.43,-160.8 1768.57,-160.8 1768.57,-124.8 1867.43,-124.8 1867.43,-160.8"/>
<text text-anchor="middle" x="1818" y="-138.6" font-family="Times,serif" font-size="14.00">SharedModule</text>
</g>
<!-- SharedModule&#45;&gt;AppModule -->
<g id="edge3" class="edge">
<title>SharedModule&#45;&gt;AppModule</title>
<path fill="none" stroke="black" d="M1849.32,-161.09C1849.32,-183.01 1849.32,-216.8 1849.32,-216.8 1849.32,-216.8 1738.06,-216.8 1738.06,-216.8"/>
<polygon fill="black" stroke="black" points="1738.06,-213.3 1728.06,-216.8 1738.06,-220.3 1738.06,-213.3"/>
</g>
<!-- BlogModule -->
<g id="node8" class="node">
<title>BlogModule</title>
<polygon fill="#8dd3c7" stroke="black" points="1346.28,-225.8 1343.28,-229.8 1322.28,-229.8 1319.28,-225.8 1259.72,-225.8 1259.72,-189.8 1346.28,-189.8 1346.28,-225.8"/>
<text text-anchor="middle" x="1303" y="-203.6" font-family="Times,serif" font-size="14.00">BlogModule</text>
</g>
<!-- SharedModule&#45;&gt;BlogModule -->
<g id="edge8" class="edge">
<title>SharedModule&#45;&gt;BlogModule</title>
<path fill="none" stroke="black" d="M1804.58,-160.95C1804.58,-173.07 1804.58,-186.8 1804.58,-186.8 1804.58,-186.8 1334.13,-186.8 1334.13,-186.8 1334.13,-186.8 1334.13,-187.09 1334.13,-187.09"/>
<polygon fill="black" stroke="black" points="1330.63,-179.72 1334.13,-189.72 1337.63,-179.72 1330.63,-179.72"/>
</g>
<!-- HomeModule -->
<g id="node14" class="node">
<title>HomeModule</title>
<polygon fill="#8dd3c7" stroke="black" points="2240.77,-225.8 2237.77,-229.8 2216.77,-229.8 2213.77,-225.8 2147.23,-225.8 2147.23,-189.8 2240.77,-189.8 2240.77,-225.8"/>
<text text-anchor="middle" x="2194" y="-203.6" font-family="Times,serif" font-size="14.00">HomeModule</text>
</g>
<!-- SharedModule&#45;&gt;HomeModule -->
<g id="edge14" class="edge">
<title>SharedModule&#45;&gt;HomeModule</title>
<path fill="none" stroke="black" d="M1858.27,-160.91C1858.27,-180.14 1858.27,-207.8 1858.27,-207.8 1858.27,-207.8 2136.96,-207.8 2136.96,-207.8"/>
<polygon fill="black" stroke="black" points="2136.96,-211.3 2146.96,-207.8 2136.96,-204.3 2136.96,-211.3"/>
</g>
<!-- LogModule -->
<g id="node18" class="node">
<title>LogModule</title>
<polygon fill="#8dd3c7" stroke="black" points="2830.1,-225.8 2827.1,-229.8 2806.1,-229.8 2803.1,-225.8 2747.9,-225.8 2747.9,-189.8 2830.1,-189.8 2830.1,-225.8"/>
<text text-anchor="middle" x="2789" y="-203.6" font-family="Times,serif" font-size="14.00">LogModule</text>
</g>
<!-- SharedModule&#45;&gt;LogModule -->
<g id="edge18" class="edge">
<title>SharedModule&#45;&gt;LogModule</title>
<path fill="none" stroke="black" d="M1831.42,-160.9C1831.42,-171.89 1831.42,-183.8 1831.42,-183.8 1831.42,-183.8 2757.84,-183.8 2757.84,-183.8 2757.84,-183.8 2757.84,-184.38 2757.84,-184.38"/>
<polygon fill="black" stroke="black" points="2754.34,-179.61 2757.84,-189.61 2761.34,-179.61 2754.34,-179.61"/>
</g>
<!-- AdsComponent  -->
<g id="node33" class="node">
<title>AdsComponent </title>
<polygon fill="#fb8072" stroke="black" points="1476.89,-84.8 1369.11,-84.8 1369.11,-48.8 1476.89,-48.8 1476.89,-84.8"/>
<text text-anchor="middle" x="1423" y="-62.6" font-family="Times,serif" font-size="14.00">AdsComponent </text>
</g>
<!-- SharedModule&#45;&gt;AdsComponent  -->
<g id="edge32" class="edge">
<title>SharedModule&#45;&gt;AdsComponent </title>
<path fill="none" stroke="black" stroke-dasharray="5,2" d="M1803.24,-124.56C1803.24,-117.37 1803.24,-110.8 1803.24,-110.8 1803.24,-110.8 1464.54,-110.8 1464.54,-110.8 1464.54,-110.8 1464.54,-94.95 1464.54,-94.95"/>
<polygon fill="black" stroke="black" points="1468.04,-94.95 1464.54,-84.95 1461.04,-94.95 1468.04,-94.95"/>
</g>
<!-- AdsModalComponent  -->
<g id="node34" class="node">
<title>AdsModalComponent </title>
<polygon fill="#fb8072" stroke="black" points="1350.94,-84.8 1207.06,-84.8 1207.06,-48.8 1350.94,-48.8 1350.94,-84.8"/>
<text text-anchor="middle" x="1279" y="-62.6" font-family="Times,serif" font-size="14.00">AdsModalComponent </text>
</g>
<!-- SharedModule&#45;&gt;AdsModalComponent  -->
<g id="edge33" class="edge">
<title>SharedModule&#45;&gt;AdsModalComponent </title>
<path fill="none" stroke="black" stroke-dasharray="5,2" d="M1798.31,-124.66C1798.31,-118.34 1798.31,-112.8 1798.31,-112.8 1798.31,-112.8 1330.29,-112.8 1330.29,-112.8 1330.29,-112.8 1330.29,-94.98 1330.29,-94.98"/>
<polygon fill="black" stroke="black" points="1333.79,-94.98 1330.29,-84.98 1326.79,-94.98 1333.79,-94.98"/>
</g>
<!-- AmazonAdsComponent  -->
<g id="node35" class="node">
<title>AmazonAdsComponent </title>
<polygon fill="#fb8072" stroke="black" points="1189.32,-84.8 1034.68,-84.8 1034.68,-48.8 1189.32,-48.8 1189.32,-84.8"/>
<text text-anchor="middle" x="1112" y="-62.6" font-family="Times,serif" font-size="14.00">AmazonAdsComponent </text>
</g>
<!-- SharedModule&#45;&gt;AmazonAdsComponent  -->
<g id="edge34" class="edge">
<title>SharedModule&#45;&gt;AmazonAdsComponent </title>
<path fill="none" stroke="black" stroke-dasharray="5,2" d="M1793.39,-124.59C1793.39,-119.25 1793.39,-114.8 1793.39,-114.8 1793.39,-114.8 1175.12,-114.8 1175.12,-114.8 1175.12,-114.8 1175.12,-94.95 1175.12,-94.95"/>
<polygon fill="black" stroke="black" points="1178.62,-94.95 1175.12,-84.95 1171.62,-94.95 1178.62,-94.95"/>
</g>
<!-- LazyImgComponent  -->
<g id="node36" class="node">
<title>LazyImgComponent </title>
<polygon fill="#fb8072" stroke="black" points="1016.86,-84.8 881.14,-84.8 881.14,-48.8 1016.86,-48.8 1016.86,-84.8"/>
<text text-anchor="middle" x="949" y="-62.6" font-family="Times,serif" font-size="14.00">LazyImgComponent </text>
</g>
<!-- SharedModule&#45;&gt;LazyImgComponent  -->
<g id="edge35" class="edge">
<title>SharedModule&#45;&gt;LazyImgComponent </title>
<path fill="none" stroke="black" stroke-dasharray="5,2" d="M1788.47,-124.74C1788.47,-120.31 1788.47,-116.8 1788.47,-116.8 1788.47,-116.8 1010.87,-116.8 1010.87,-116.8 1010.87,-116.8 1010.87,-94.85 1010.87,-94.85"/>
<polygon fill="black" stroke="black" points="1014.37,-94.85 1010.87,-84.85 1007.37,-94.85 1014.37,-94.85"/>
</g>
<!-- LoadingComponent  -->
<g id="node37" class="node">
<title>LoadingComponent </title>
<polygon fill="#fb8072" stroke="black" points="863.99,-84.8 732.01,-84.8 732.01,-48.8 863.99,-48.8 863.99,-84.8"/>
<text text-anchor="middle" x="798" y="-62.6" font-family="Times,serif" font-size="14.00">LoadingComponent </text>
</g>
<!-- SharedModule&#45;&gt;LoadingComponent  -->
<g id="edge36" class="edge">
<title>SharedModule&#45;&gt;LoadingComponent </title>
<path fill="none" stroke="black" stroke-dasharray="5,2" d="M1783.55,-124.61C1783.55,-121.26 1783.55,-118.8 1783.55,-118.8 1783.55,-118.8 798,-118.8 798,-118.8 798,-118.8 798,-94.99 798,-94.99"/>
<polygon fill="black" stroke="black" points="801.5,-94.99 798,-84.99 794.5,-94.99 801.5,-94.99"/>
</g>
<!-- MdescapePipe  -->
<g id="node38" class="node">
<title>MdescapePipe </title>
<polygon fill="#fb8072" stroke="black" points="714.64,-84.8 613.36,-84.8 613.36,-48.8 714.64,-48.8 714.64,-84.8"/>
<text text-anchor="middle" x="664" y="-62.6" font-family="Times,serif" font-size="14.00">MdescapePipe </text>
</g>
<!-- SharedModule&#45;&gt;MdescapePipe  -->
<g id="edge37" class="edge">
<title>SharedModule&#45;&gt;MdescapePipe </title>
<path fill="none" stroke="black" stroke-dasharray="5,2" d="M1778.63,-124.63C1778.63,-122.35 1778.63,-120.8 1778.63,-120.8 1778.63,-120.8 664,-120.8 664,-120.8 664,-120.8 664,-95.08 664,-95.08"/>
<polygon fill="black" stroke="black" points="667.5,-95.08 664,-85.08 660.5,-95.08 667.5,-95.08"/>
</g>
<!-- MessageComponent  -->
<g id="node39" class="node">
<title>MessageComponent </title>
<polygon fill="#fb8072" stroke="black" points="595.82,-84.8 462.18,-84.8 462.18,-48.8 595.82,-48.8 595.82,-84.8"/>
<text text-anchor="middle" x="529" y="-62.6" font-family="Times,serif" font-size="14.00">MessageComponent </text>
</g>
<!-- SharedModule&#45;&gt;MessageComponent  -->
<g id="edge38" class="edge">
<title>SharedModule&#45;&gt;MessageComponent </title>
<path fill="none" stroke="black" stroke-dasharray="5,2" d="M1773.71,-124.65C1773.71,-123.5 1773.71,-122.8 1773.71,-122.8 1773.71,-122.8 529,-122.8 529,-122.8 529,-122.8 529,-94.83 529,-94.83"/>
<polygon fill="black" stroke="black" points="532.5,-94.83 529,-84.83 525.5,-94.83 532.5,-94.83"/>
</g>
<!-- NavComponent  -->
<g id="node40" class="node">
<title>NavComponent </title>
<polygon fill="#fb8072" stroke="black" points="444.16,-84.8 335.84,-84.8 335.84,-48.8 444.16,-48.8 444.16,-84.8"/>
<text text-anchor="middle" x="390" y="-62.6" font-family="Times,serif" font-size="14.00">NavComponent </text>
</g>
<!-- SharedModule&#45;&gt;NavComponent  -->
<g id="edge39" class="edge">
<title>SharedModule&#45;&gt;NavComponent </title>
<path fill="none" stroke="black" stroke-dasharray="5,2" d="M1777.73,-160.83C1777.73,-167.65 1777.73,-173.8 1777.73,-173.8 1777.73,-173.8 390,-173.8 390,-173.8 390,-173.8 390,-94.95 390,-94.95"/>
<polygon fill="black" stroke="black" points="393.5,-94.95 390,-84.95 386.5,-94.95 393.5,-94.95"/>
</g>
<!-- NewsbarComponent  -->
<g id="node41" class="node">
<title>NewsbarComponent </title>
<polygon fill="#fb8072" stroke="black" points="318.09,-84.8 183.91,-84.8 183.91,-48.8 318.09,-48.8 318.09,-84.8"/>
<text text-anchor="middle" x="251" y="-62.6" font-family="Times,serif" font-size="14.00">NewsbarComponent </text>
</g>
<!-- SharedModule&#45;&gt;NewsbarComponent  -->
<g id="edge40" class="edge">
<title>SharedModule&#45;&gt;NewsbarComponent </title>
<path fill="none" stroke="black" stroke-dasharray="5,2" d="M1786.68,-161.12C1786.68,-169.59 1786.68,-177.8 1786.68,-177.8 1786.68,-177.8 251,-177.8 251,-177.8 251,-177.8 251,-95.13 251,-95.13"/>
<polygon fill="black" stroke="black" points="254.5,-95.13 251,-85.13 247.5,-95.13 254.5,-95.13"/>
</g>
<!-- NotFoundComponent  -->
<g id="node42" class="node">
<title>NotFoundComponent </title>
<polygon fill="#fb8072" stroke="black" points="165.62,-84.8 24.38,-84.8 24.38,-48.8 165.62,-48.8 165.62,-84.8"/>
<text text-anchor="middle" x="95" y="-62.6" font-family="Times,serif" font-size="14.00">NotFoundComponent </text>
</g>
<!-- SharedModule&#45;&gt;NotFoundComponent  -->
<g id="edge41" class="edge">
<title>SharedModule&#45;&gt;NotFoundComponent </title>
<path fill="none" stroke="black" stroke-dasharray="5,2" d="M1795.63,-160.91C1795.63,-170.7 1795.63,-180.8 1795.63,-180.8 1795.63,-180.8 95,-180.8 95,-180.8 95,-180.8 95,-94.86 95,-94.86"/>
<polygon fill="black" stroke="black" points="98.5,-94.86 95,-84.86 91.5,-94.86 98.5,-94.86"/>
</g>
<!-- TweetBtnComponent  -->
<g id="node43" class="node">
<title>TweetBtnComponent </title>
<polygon fill="#fb8072" stroke="black" points="1724.04,-84.8 1583.96,-84.8 1583.96,-48.8 1724.04,-48.8 1724.04,-84.8"/>
<text text-anchor="middle" x="1654" y="-62.6" font-family="Times,serif" font-size="14.00">TweetBtnComponent </text>
</g>
<!-- SharedModule&#45;&gt;TweetBtnComponent  -->
<g id="edge42" class="edge">
<title>SharedModule&#45;&gt;TweetBtnComponent </title>
<path fill="none" stroke="black" stroke-dasharray="5,2" d="M1813.08,-124.38C1813.08,-115.52 1813.08,-106.8 1813.08,-106.8 1813.08,-106.8 1672.81,-106.8 1672.81,-106.8 1672.81,-106.8 1672.81,-94.93 1672.81,-94.93"/>
<polygon fill="black" stroke="black" points="1676.31,-94.93 1672.81,-84.93 1669.31,-94.93 1676.31,-94.93"/>
</g>
<!-- YearPipe  -->
<g id="node44" class="node">
<title>YearPipe </title>
<polygon fill="#fb8072" stroke="black" points="1565.59,-84.8 1494.41,-84.8 1494.41,-48.8 1565.59,-48.8 1565.59,-84.8"/>
<text text-anchor="middle" x="1530" y="-62.6" font-family="Times,serif" font-size="14.00">YearPipe </text>
</g>
<!-- SharedModule&#45;&gt;YearPipe  -->
<g id="edge43" class="edge">
<title>SharedModule&#45;&gt;YearPipe </title>
<path fill="none" stroke="black" stroke-dasharray="5,2" d="M1808.16,-124.61C1808.16,-116.52 1808.16,-108.8 1808.16,-108.8 1808.16,-108.8 1530,-108.8 1530,-108.8 1530,-108.8 1530,-94.86 1530,-94.86"/>
<polygon fill="black" stroke="black" points="1533.5,-94.86 1530,-84.86 1526.5,-94.86 1533.5,-94.86"/>
</g>
<!-- ToolsModule -->
<g id="node57" class="node">
<title>ToolsModule</title>
<polygon fill="#8dd3c7" stroke="black" points="4105.94,-225.8 4102.94,-229.8 4081.94,-229.8 4078.94,-225.8 4014.06,-225.8 4014.06,-189.8 4105.94,-189.8 4105.94,-225.8"/>
<text text-anchor="middle" x="4060" y="-203.6" font-family="Times,serif" font-size="14.00">ToolsModule</text>
</g>
<!-- SharedModule&#45;&gt;ToolsModule -->
<g id="edge56" class="edge">
<title>SharedModule&#45;&gt;ToolsModule</title>
<path fill="none" stroke="black" d="M1840.37,-161.01C1840.37,-166.35 1840.37,-170.8 1840.37,-170.8 1840.37,-170.8 4021.61,-170.8 4021.61,-170.8 4021.61,-170.8 4021.61,-179.73 4021.61,-179.73"/>
<polygon fill="black" stroke="black" points="4018.11,-179.73 4021.61,-189.73 4025.11,-179.73 4018.11,-179.73"/>
</g>
<!-- BlogDetailComponent -->
<g id="node6" class="node">
<title>BlogDetailComponent</title>
<polygon fill="#ffffb3" stroke="black" points="1452.27,-160.8 1309.73,-160.8 1309.73,-124.8 1452.27,-124.8 1452.27,-160.8"/>
<text text-anchor="middle" x="1381" y="-138.6" font-family="Times,serif" font-size="14.00">BlogDetailComponent</text>
</g>
<!-- BlogDetailComponent&#45;&gt;BlogModule -->
<g id="edge5" class="edge">
<title>BlogDetailComponent&#45;&gt;BlogModule</title>
<path fill="none" stroke="black" d="M1321.87,-160.91C1321.87,-160.91 1321.87,-179.79 1321.87,-179.79"/>
<polygon fill="black" stroke="black" points="1318.37,-179.79 1321.87,-189.79 1325.37,-179.79 1318.37,-179.79"/>
</g>
<!-- BlogListComponent -->
<g id="node7" class="node">
<title>BlogListComponent</title>
<polygon fill="#ffffb3" stroke="black" points="1291.34,-160.8 1160.66,-160.8 1160.66,-124.8 1291.34,-124.8 1291.34,-160.8"/>
<text text-anchor="middle" x="1226" y="-138.6" font-family="Times,serif" font-size="14.00">BlogListComponent</text>
</g>
<!-- BlogListComponent&#45;&gt;BlogModule -->
<g id="edge6" class="edge">
<title>BlogListComponent&#45;&gt;BlogModule</title>
<path fill="none" stroke="black" d="M1275.39,-160.91C1275.39,-160.91 1275.39,-179.79 1275.39,-179.79"/>
<polygon fill="black" stroke="black" points="1271.89,-179.79 1275.39,-189.79 1278.89,-179.79 1271.89,-179.79"/>
</g>
<!-- BlogRoutingModule -->
<g id="node9" class="node">
<title>BlogRoutingModule</title>
<polygon fill="#8dd3c7" stroke="black" points="1136.9,-160.8 1133.9,-164.8 1112.9,-164.8 1109.9,-160.8 1005.1,-160.8 1005.1,-124.8 1136.9,-124.8 1136.9,-160.8"/>
<text text-anchor="middle" x="1071" y="-138.6" font-family="Times,serif" font-size="14.00">BlogRoutingModule</text>
</g>
<!-- BlogRoutingModule&#45;&gt;BlogModule -->
<g id="edge7" class="edge">
<title>BlogRoutingModule&#45;&gt;BlogModule</title>
<path fill="none" stroke="black" d="M1071,-160.91C1071,-180.14 1071,-207.8 1071,-207.8 1071,-207.8 1249.63,-207.8 1249.63,-207.8"/>
<polygon fill="black" stroke="black" points="1249.63,-211.3 1259.63,-207.8 1249.63,-204.3 1249.63,-211.3"/>
</g>
<!-- ContactComponent -->
<g id="node10" class="node">
<title>ContactComponent</title>
<polygon fill="#ffffb3" stroke="black" points="2325.38,-160.8 2200.62,-160.8 2200.62,-124.8 2325.38,-124.8 2325.38,-160.8"/>
<text text-anchor="middle" x="2263" y="-138.6" font-family="Times,serif" font-size="14.00">ContactComponent</text>
</g>
<!-- ContactComponent&#45;&gt;HomeModule -->
<g id="edge9" class="edge">
<title>ContactComponent&#45;&gt;HomeModule</title>
<path fill="none" stroke="black" d="M2220.72,-160.91C2220.72,-160.91 2220.72,-179.79 2220.72,-179.79"/>
<polygon fill="black" stroke="black" points="2217.22,-179.79 2220.72,-189.79 2224.22,-179.79 2217.22,-179.79"/>
</g>
<!-- IndexComponent -->
<g id="node11" class="node">
<title>IndexComponent</title>
<polygon fill="#ffffb3" stroke="black" points="2182.71,-160.8 2069.29,-160.8 2069.29,-124.8 2182.71,-124.8 2182.71,-160.8"/>
<text text-anchor="middle" x="2126" y="-138.6" font-family="Times,serif" font-size="14.00">IndexComponent</text>
</g>
<!-- IndexComponent&#45;&gt;HomeModule -->
<g id="edge10" class="edge">
<title>IndexComponent&#45;&gt;HomeModule</title>
<path fill="none" stroke="black" d="M2164.86,-160.91C2164.86,-160.91 2164.86,-179.79 2164.86,-179.79"/>
<polygon fill="black" stroke="black" points="2161.36,-179.79 2164.86,-189.79 2168.36,-179.79 2161.36,-179.79"/>
</g>
<!-- NewsComponent -->
<g id="node12" class="node">
<title>NewsComponent</title>
<polygon fill="#ffffb3" stroke="black" points="2609.71,-160.8 2496.29,-160.8 2496.29,-124.8 2609.71,-124.8 2609.71,-160.8"/>
<text text-anchor="middle" x="2553" y="-138.6" font-family="Times,serif" font-size="14.00">NewsComponent</text>
</g>
<!-- NewsComponent&#45;&gt;HomeModule -->
<g id="edge11" class="edge">
<title>NewsComponent&#45;&gt;HomeModule</title>
<path fill="none" stroke="black" d="M2553,-161.08C2553,-182.12 2553,-213.8 2553,-213.8 2553,-213.8 2250.93,-213.8 2250.93,-213.8"/>
<polygon fill="black" stroke="black" points="2250.93,-210.3 2240.93,-213.8 2250.93,-217.3 2250.93,-210.3"/>
</g>
<!-- ToolsListComponent -->
<g id="node13" class="node">
<title>ToolsListComponent</title>
<polygon fill="#ffffb3" stroke="black" points="2478.5,-160.8 2343.5,-160.8 2343.5,-124.8 2478.5,-124.8 2478.5,-160.8"/>
<text text-anchor="middle" x="2411" y="-138.6" font-family="Times,serif" font-size="14.00">ToolsListComponent</text>
</g>
<!-- ToolsListComponent&#45;&gt;HomeModule -->
<g id="edge12" class="edge">
<title>ToolsListComponent&#45;&gt;HomeModule</title>
<path fill="none" stroke="black" d="M2411,-160.82C2411,-178.17 2411,-201.8 2411,-201.8 2411,-201.8 2250.82,-201.8 2250.82,-201.8"/>
<polygon fill="black" stroke="black" points="2250.82,-198.3 2240.82,-201.8 2250.82,-205.3 2250.82,-198.3"/>
</g>
<!-- HomeRoutingModule -->
<g id="node15" class="node">
<title>HomeRoutingModule</title>
<polygon fill="#8dd3c7" stroke="black" points="2045.38,-160.8 2042.38,-164.8 2021.38,-164.8 2018.38,-160.8 1906.62,-160.8 1906.62,-124.8 2045.38,-124.8 2045.38,-160.8"/>
<text text-anchor="middle" x="1976" y="-138.6" font-family="Times,serif" font-size="14.00">HomeRoutingModule</text>
</g>
<!-- HomeRoutingModule&#45;&gt;HomeModule -->
<g id="edge13" class="edge">
<title>HomeRoutingModule&#45;&gt;HomeModule</title>
<path fill="none" stroke="black" d="M1976,-160.83C1976,-177.2 1976,-198.8 1976,-198.8 1976,-198.8 2137.23,-198.8 2137.23,-198.8"/>
<polygon fill="black" stroke="black" points="2137.23,-202.3 2147.23,-198.8 2137.23,-195.3 2137.23,-202.3"/>
</g>
<!-- LogDetailComponent -->
<g id="node16" class="node">
<title>LogDetailComponent</title>
<polygon fill="#ffffb3" stroke="black" points="3084.09,-160.8 2945.91,-160.8 2945.91,-124.8 3084.09,-124.8 3084.09,-160.8"/>
<text text-anchor="middle" x="3015" y="-138.6" font-family="Times,serif" font-size="14.00">LogDetailComponent</text>
</g>
<!-- LogDetailComponent&#45;&gt;LogModule -->
<g id="edge15" class="edge">
<title>LogDetailComponent&#45;&gt;LogModule</title>
<path fill="none" stroke="black" d="M3015,-161.04C3015,-176.37 3015,-195.8 3015,-195.8 3015,-195.8 2840.19,-195.8 2840.19,-195.8"/>
<polygon fill="black" stroke="black" points="2840.19,-192.3 2830.19,-195.8 2840.19,-199.3 2840.19,-192.3"/>
</g>
<!-- LogListComponent -->
<g id="node17" class="node">
<title>LogListComponent</title>
<polygon fill="#ffffb3" stroke="black" points="2927.66,-160.8 2802.34,-160.8 2802.34,-124.8 2927.66,-124.8 2927.66,-160.8"/>
<text text-anchor="middle" x="2865" y="-138.6" font-family="Times,serif" font-size="14.00">LogListComponent</text>
</g>
<!-- LogListComponent&#45;&gt;LogModule -->
<g id="edge16" class="edge">
<title>LogListComponent&#45;&gt;LogModule</title>
<path fill="none" stroke="black" d="M2816.11,-160.91C2816.11,-160.91 2816.11,-179.79 2816.11,-179.79"/>
<polygon fill="black" stroke="black" points="2812.61,-179.79 2816.11,-189.79 2819.61,-179.79 2812.61,-179.79"/>
</g>
<!-- LogRoutingModule -->
<g id="node19" class="node">
<title>LogRoutingModule</title>
<polygon fill="#8dd3c7" stroke="black" points="2777.72,-160.8 2774.72,-164.8 2753.72,-164.8 2750.72,-160.8 2650.28,-160.8 2650.28,-124.8 2777.72,-124.8 2777.72,-160.8"/>
<text text-anchor="middle" x="2714" y="-138.6" font-family="Times,serif" font-size="14.00">LogRoutingModule</text>
</g>
<!-- LogRoutingModule&#45;&gt;LogModule -->
<g id="edge17" class="edge">
<title>LogRoutingModule&#45;&gt;LogModule</title>
<path fill="none" stroke="black" d="M2767.72,-160.91C2767.72,-160.91 2767.72,-179.79 2767.72,-179.79"/>
<polygon fill="black" stroke="black" points="2764.22,-179.79 2767.72,-189.79 2771.22,-179.79 2764.22,-179.79"/>
</g>
<!-- AdsComponent -->
<g id="node20" class="node">
<title>AdsComponent</title>
<polygon fill="#ffffb3" stroke="black" points="2009.89,-84.8 1906.11,-84.8 1906.11,-48.8 2009.89,-48.8 2009.89,-84.8"/>
<text text-anchor="middle" x="1958" y="-62.6" font-family="Times,serif" font-size="14.00">AdsComponent</text>
</g>
<!-- AdsComponent&#45;&gt;SharedModule -->
<g id="edge19" class="edge">
<title>AdsComponent&#45;&gt;SharedModule</title>
<path fill="none" stroke="black" d="M1905.86,-66.8C1900.59,-66.8 1897.14,-66.8 1897.14,-66.8 1897.14,-66.8 1897.14,-142.8 1897.14,-142.8 1897.14,-142.8 1877.22,-142.8 1877.22,-142.8"/>
<polygon fill="black" stroke="black" points="1877.22,-139.3 1867.22,-142.8 1877.22,-146.3 1877.22,-139.3"/>
</g>
<!-- AdsModalComponent -->
<g id="node21" class="node">
<title>AdsModalComponent</title>
<polygon fill="#ffffb3" stroke="black" points="1888.44,-84.8 1747.56,-84.8 1747.56,-48.8 1888.44,-48.8 1888.44,-84.8"/>
<text text-anchor="middle" x="1818" y="-62.6" font-family="Times,serif" font-size="14.00">AdsModalComponent</text>
</g>
<!-- AdsModalComponent&#45;&gt;SharedModule -->
<g id="edge20" class="edge">
<title>AdsModalComponent&#45;&gt;SharedModule</title>
<path fill="none" stroke="black" d="M1818,-84.81C1818,-84.81 1818,-114.65 1818,-114.65"/>
<polygon fill="black" stroke="black" points="1814.5,-114.65 1818,-124.65 1821.5,-114.65 1814.5,-114.65"/>
</g>
<!-- AmazonAdsComponent -->
<g id="node22" class="node">
<title>AmazonAdsComponent</title>
<polygon fill="#ffffb3" stroke="black" points="3545.82,-84.8 3394.18,-84.8 3394.18,-48.8 3545.82,-48.8 3545.82,-84.8"/>
<text text-anchor="middle" x="3470" y="-62.6" font-family="Times,serif" font-size="14.00">AmazonAdsComponent</text>
</g>
<!-- AmazonAdsComponent&#45;&gt;SharedModule -->
<g id="edge21" class="edge">
<title>AmazonAdsComponent&#45;&gt;SharedModule</title>
<path fill="none" stroke="black" d="M3427.14,-84.86C3427.14,-113.91 3427.14,-167.8 3427.14,-167.8 3427.14,-167.8 1813.53,-167.8 1813.53,-167.8 1813.53,-167.8 1813.53,-167.12 1813.53,-167.12"/>
<polygon fill="black" stroke="black" points="1817.03,-170.97 1813.53,-160.97 1810.03,-170.97 1817.03,-170.97"/>
</g>
<!-- LazyImgComponent -->
<g id="node23" class="node">
<title>LazyImgComponent</title>
<polygon fill="#ffffb3" stroke="black" points="3375.86,-84.8 3244.14,-84.8 3244.14,-48.8 3375.86,-48.8 3375.86,-84.8"/>
<text text-anchor="middle" x="3310" y="-62.6" font-family="Times,serif" font-size="14.00">LazyImgComponent</text>
</g>
<!-- LazyImgComponent&#45;&gt;SharedModule -->
<g id="edge22" class="edge">
<title>LazyImgComponent&#45;&gt;SharedModule</title>
<path fill="none" stroke="black" d="M3272.09,-85.23C3272.09,-113.62 3272.09,-164.8 3272.09,-164.8 3272.09,-164.8 1822.47,-164.8 1822.47,-164.8 1822.47,-164.8 1822.47,-164.42 1822.47,-164.42"/>
<polygon fill="black" stroke="black" points="1825.97,-170.97 1822.47,-160.97 1818.97,-170.97 1825.97,-170.97"/>
</g>
<!-- LoadingComponent -->
<g id="node24" class="node">
<title>LoadingComponent</title>
<polygon fill="#ffffb3" stroke="black" points="3225.99,-84.8 3098.01,-84.8 3098.01,-48.8 3225.99,-48.8 3225.99,-84.8"/>
<text text-anchor="middle" x="3162" y="-62.6" font-family="Times,serif" font-size="14.00">LoadingComponent</text>
</g>
<!-- LoadingComponent&#45;&gt;SharedModule -->
<g id="edge23" class="edge">
<title>LoadingComponent&#45;&gt;SharedModule</title>
<path fill="none" stroke="black" d="M3110.86,-84.87C3110.86,-94.26 3110.86,-103.8 3110.86,-103.8 3110.86,-103.8 1862.29,-103.8 1862.29,-103.8 1862.29,-103.8 1862.29,-114.67 1862.29,-114.67"/>
<polygon fill="black" stroke="black" points="1858.79,-114.67 1862.29,-124.67 1865.79,-114.67 1858.79,-114.67"/>
</g>
<!-- MdescapePipe -->
<g id="node25" class="node">
<title>MdescapePipe</title>
<polygon fill="#ffffb3" stroke="black" points="3079.64,-84.8 2982.36,-84.8 2982.36,-48.8 3079.64,-48.8 3079.64,-84.8"/>
<text text-anchor="middle" x="3031" y="-62.6" font-family="Times,serif" font-size="14.00">MdescapePipe</text>
</g>
<!-- MdescapePipe&#45;&gt;SharedModule -->
<g id="edge24" class="edge">
<title>MdescapePipe&#45;&gt;SharedModule</title>
<path fill="none" stroke="black" d="M3031,-85.12C3031,-93.59 3031,-101.8 3031,-101.8 3031,-101.8 1857.37,-101.8 1857.37,-101.8 1857.37,-101.8 1857.37,-114.7 1857.37,-114.7"/>
<polygon fill="black" stroke="black" points="1853.87,-114.7 1857.37,-124.7 1860.87,-114.7 1853.87,-114.7"/>
</g>
<!-- MessageComponent -->
<g id="node26" class="node">
<title>MessageComponent</title>
<polygon fill="#ffffb3" stroke="black" points="2964.32,-84.8 2833.68,-84.8 2833.68,-48.8 2964.32,-48.8 2964.32,-84.8"/>
<text text-anchor="middle" x="2899" y="-62.6" font-family="Times,serif" font-size="14.00">MessageComponent</text>
</g>
<!-- MessageComponent&#45;&gt;SharedModule -->
<g id="edge25" class="edge">
<title>MessageComponent&#45;&gt;SharedModule</title>
<path fill="none" stroke="black" d="M2880.84,-84.84C2880.84,-92.55 2880.84,-99.8 2880.84,-99.8 2880.84,-99.8 1852.45,-99.8 1852.45,-99.8 1852.45,-99.8 1852.45,-114.31 1852.45,-114.31"/>
<polygon fill="black" stroke="black" points="1848.95,-114.31 1852.45,-124.31 1855.95,-114.31 1848.95,-114.31"/>
</g>
<!-- NavComponent -->
<g id="node27" class="node">
<title>NavComponent</title>
<polygon fill="#ffffb3" stroke="black" points="2816.16,-84.8 2711.84,-84.8 2711.84,-48.8 2816.16,-48.8 2816.16,-84.8"/>
<text text-anchor="middle" x="2764" y="-62.6" font-family="Times,serif" font-size="14.00">NavComponent</text>
</g>
<!-- NavComponent&#45;&gt;SharedModule -->
<g id="edge26" class="edge">
<title>NavComponent&#45;&gt;SharedModule</title>
<path fill="none" stroke="black" d="M2744.64,-84.83C2744.64,-91.65 2744.64,-97.8 2744.64,-97.8 2744.64,-97.8 1847.53,-97.8 1847.53,-97.8 1847.53,-97.8 1847.53,-114.76 1847.53,-114.76"/>
<polygon fill="black" stroke="black" points="1844.03,-114.76 1847.53,-124.76 1851.03,-114.76 1844.03,-114.76"/>
</g>
<!-- NewsbarComponent -->
<g id="node28" class="node">
<title>NewsbarComponent</title>
<polygon fill="#ffffb3" stroke="black" points="2693.59,-84.8 2562.41,-84.8 2562.41,-48.8 2693.59,-48.8 2693.59,-84.8"/>
<text text-anchor="middle" x="2628" y="-62.6" font-family="Times,serif" font-size="14.00">NewsbarComponent</text>
</g>
<!-- NewsbarComponent&#45;&gt;SharedModule -->
<g id="edge27" class="edge">
<title>NewsbarComponent&#45;&gt;SharedModule</title>
<path fill="none" stroke="black" d="M2586.03,-85C2586.03,-90.83 2586.03,-95.8 2586.03,-95.8 2586.03,-95.8 1842.61,-95.8 1842.61,-95.8 1842.61,-95.8 1842.61,-114.76 1842.61,-114.76"/>
<polygon fill="black" stroke="black" points="1839.11,-114.76 1842.61,-124.76 1846.11,-114.76 1839.11,-114.76"/>
</g>
<!-- NotFoundComponent -->
<g id="node29" class="node">
<title>NotFoundComponent</title>
<polygon fill="#ffffb3" stroke="black" points="2544.12,-84.8 2405.88,-84.8 2405.88,-48.8 2544.12,-48.8 2544.12,-84.8"/>
<text text-anchor="middle" x="2475" y="-62.6" font-family="Times,serif" font-size="14.00">NotFoundComponent</text>
</g>
<!-- NotFoundComponent&#45;&gt;SharedModule -->
<g id="edge28" class="edge">
<title>NotFoundComponent&#45;&gt;SharedModule</title>
<path fill="none" stroke="black" d="M2442.22,-84.96C2442.22,-89.84 2442.22,-93.8 2442.22,-93.8 2442.22,-93.8 1837.69,-93.8 1837.69,-93.8 1837.69,-93.8 1837.69,-114.55 1837.69,-114.55"/>
<polygon fill="black" stroke="black" points="1834.19,-114.55 1837.69,-124.55 1841.19,-114.55 1834.19,-114.55"/>
</g>
<!-- ProfileComponent -->
<g id="node30" class="node">
<title>ProfileComponent</title>
<polygon fill="#ffffb3" stroke="black" points="2387.94,-84.8 2268.06,-84.8 2268.06,-48.8 2387.94,-48.8 2387.94,-84.8"/>
<text text-anchor="middle" x="2328" y="-62.6" font-family="Times,serif" font-size="14.00">ProfileComponent</text>
</g>
<!-- ProfileComponent&#45;&gt;SharedModule -->
<g id="edge29" class="edge">
<title>ProfileComponent&#45;&gt;SharedModule</title>
<path fill="none" stroke="black" d="M2296.86,-84.97C2296.86,-88.85 2296.86,-91.8 2296.86,-91.8 2296.86,-91.8 1832.76,-91.8 1832.76,-91.8 1832.76,-91.8 1832.76,-114.68 1832.76,-114.68"/>
<polygon fill="black" stroke="black" points="1829.26,-114.68 1832.76,-124.68 1836.26,-114.68 1829.26,-114.68"/>
</g>
<!-- TweetBtnComponent -->
<g id="node31" class="node">
<title>TweetBtnComponent</title>
<polygon fill="#ffffb3" stroke="black" points="2250.04,-84.8 2113.96,-84.8 2113.96,-48.8 2250.04,-48.8 2250.04,-84.8"/>
<text text-anchor="middle" x="2182" y="-62.6" font-family="Times,serif" font-size="14.00">TweetBtnComponent</text>
</g>
<!-- TweetBtnComponent&#45;&gt;SharedModule -->
<g id="edge30" class="edge">
<title>TweetBtnComponent&#45;&gt;SharedModule</title>
<path fill="none" stroke="black" d="M2148.17,-84.92C2148.17,-87.77 2148.17,-89.8 2148.17,-89.8 2148.17,-89.8 1827.84,-89.8 1827.84,-89.8 1827.84,-89.8 1827.84,-114.56 1827.84,-114.56"/>
<polygon fill="black" stroke="black" points="1824.34,-114.56 1827.84,-124.56 1831.34,-114.56 1824.34,-114.56"/>
</g>
<!-- YearPipe -->
<g id="node32" class="node">
<title>YearPipe</title>
<polygon fill="#ffffb3" stroke="black" points="2096.09,-84.8 2027.91,-84.8 2027.91,-48.8 2096.09,-48.8 2096.09,-84.8"/>
<text text-anchor="middle" x="2062" y="-62.6" font-family="Times,serif" font-size="14.00">YearPipe</text>
</g>
<!-- YearPipe&#45;&gt;SharedModule -->
<g id="edge31" class="edge">
<title>YearPipe&#45;&gt;SharedModule</title>
<path fill="none" stroke="black" d="M2036.7,-84.88C2036.7,-86.65 2036.7,-87.8 2036.7,-87.8 2036.7,-87.8 1822.92,-87.8 1822.92,-87.8 1822.92,-87.8 1822.92,-114.79 1822.92,-114.79"/>
<polygon fill="black" stroke="black" points="1819.42,-114.79 1822.92,-124.79 1826.42,-114.79 1819.42,-114.79"/>
</g>
<!-- AmazonAssociateComponent -->
<g id="node45" class="node">
<title>AmazonAssociateComponent</title>
<polygon fill="#ffffb3" stroke="black" points="4237.69,-160.8 4054.31,-160.8 4054.31,-124.8 4237.69,-124.8 4237.69,-160.8"/>
<text text-anchor="middle" x="4146" y="-138.6" font-family="Times,serif" font-size="14.00">AmazonAssociateComponent</text>
</g>
<!-- AmazonAssociateComponent&#45;&gt;ToolsModule -->
<g id="edge44" class="edge">
<title>AmazonAssociateComponent&#45;&gt;ToolsModule</title>
<path fill="none" stroke="black" d="M4080.06,-160.91C4080.06,-160.91 4080.06,-179.79 4080.06,-179.79"/>
<polygon fill="black" stroke="black" points="4076.56,-179.79 4080.06,-189.79 4083.56,-179.79 4076.56,-179.79"/>
</g>
<!-- Base64Component -->
<g id="node46" class="node">
<title>Base64Component</title>
<polygon fill="#ffffb3" stroke="black" points="4036.05,-160.8 3913.95,-160.8 3913.95,-124.8 4036.05,-124.8 4036.05,-160.8"/>
<text text-anchor="middle" x="3975" y="-138.6" font-family="Times,serif" font-size="14.00">Base64Component</text>
</g>
<!-- Base64Component&#45;&gt;ToolsModule -->
<g id="edge45" class="edge">
<title>Base64Component&#45;&gt;ToolsModule</title>
<path fill="none" stroke="black" d="M4028.94,-160.91C4028.94,-160.91 4028.94,-179.79 4028.94,-179.79"/>
<polygon fill="black" stroke="black" points="4025.44,-179.79 4028.94,-189.79 4032.44,-179.79 4025.44,-179.79"/>
</g>
<!-- FxCalcComponent -->
<g id="node47" class="node">
<title>FxCalcComponent</title>
<polygon fill="#ffffb3" stroke="black" points="3895.77,-160.8 3774.23,-160.8 3774.23,-124.8 3895.77,-124.8 3895.77,-160.8"/>
<text text-anchor="middle" x="3835" y="-138.6" font-family="Times,serif" font-size="14.00">FxCalcComponent</text>
</g>
<!-- FxCalcComponent&#45;&gt;ToolsModule -->
<g id="edge46" class="edge">
<title>FxCalcComponent&#45;&gt;ToolsModule</title>
<path fill="none" stroke="black" d="M3835,-160.83C3835,-177.86 3835,-200.8 3835,-200.8 3835,-200.8 4004.2,-200.8 4004.2,-200.8"/>
<polygon fill="black" stroke="black" points="4004.2,-204.3 4014.2,-200.8 4004.2,-197.3 4004.2,-204.3"/>
</g>
<!-- JsonFormatterComponent -->
<g id="node48" class="node">
<title>JsonFormatterComponent</title>
<polygon fill="#ffffb3" stroke="black" points="3755.94,-160.8 3594.06,-160.8 3594.06,-124.8 3755.94,-124.8 3755.94,-160.8"/>
<text text-anchor="middle" x="3675" y="-138.6" font-family="Times,serif" font-size="14.00">JsonFormatterComponent</text>
</g>
<!-- JsonFormatterComponent&#45;&gt;ToolsModule -->
<g id="edge47" class="edge">
<title>JsonFormatterComponent&#45;&gt;ToolsModule</title>
<path fill="none" stroke="black" d="M3675,-161.02C3675,-179.63 3675,-205.8 3675,-205.8 3675,-205.8 4003.94,-205.8 4003.94,-205.8"/>
<polygon fill="black" stroke="black" points="4003.94,-209.3 4013.94,-205.8 4003.94,-202.3 4003.94,-209.3"/>
</g>
<!-- JsonTyperComponent -->
<g id="node49" class="node">
<title>JsonTyperComponent</title>
<polygon fill="#ffffb3" stroke="black" points="3575.66,-160.8 3436.34,-160.8 3436.34,-124.8 3575.66,-124.8 3575.66,-160.8"/>
<text text-anchor="middle" x="3506" y="-138.6" font-family="Times,serif" font-size="14.00">JsonTyperComponent</text>
</g>
<!-- JsonTyperComponent&#45;&gt;ToolsModule -->
<g id="edge48" class="edge">
<title>JsonTyperComponent&#45;&gt;ToolsModule</title>
<path fill="none" stroke="black" d="M3506,-161.02C3506,-181.17 3506,-210.8 3506,-210.8 3506,-210.8 4004.19,-210.8 4004.19,-210.8"/>
<polygon fill="black" stroke="black" points="4004.19,-214.3 4014.19,-210.8 4004.19,-207.3 4004.19,-214.3"/>
</g>
<!-- MdwriterComponent -->
<g id="node50" class="node">
<title>MdwriterComponent</title>
<polygon fill="#ffffb3" stroke="black" points="3418.21,-160.8 3283.79,-160.8 3283.79,-124.8 3418.21,-124.8 3418.21,-160.8"/>
<text text-anchor="middle" x="3351" y="-138.6" font-family="Times,serif" font-size="14.00">MdwriterComponent</text>
</g>
<!-- MdwriterComponent&#45;&gt;ToolsModule -->
<g id="edge49" class="edge">
<title>MdwriterComponent&#45;&gt;ToolsModule</title>
<path fill="none" stroke="black" d="M3351,-160.84C3351,-182.46 3351,-215.8 3351,-215.8 3351,-215.8 4004.03,-215.8 4004.03,-215.8"/>
<polygon fill="black" stroke="black" points="4004.03,-219.3 4014.03,-215.8 4004.03,-212.3 4004.03,-219.3"/>
</g>
<!-- MermaidComponent -->
<g id="node51" class="node">
<title>MermaidComponent</title>
<polygon fill="#ffffb3" stroke="black" points="5131.15,-160.8 4998.85,-160.8 4998.85,-124.8 5131.15,-124.8 5131.15,-160.8"/>
<text text-anchor="middle" x="5065" y="-138.6" font-family="Times,serif" font-size="14.00">MermaidComponent</text>
</g>
<!-- MermaidComponent&#45;&gt;ToolsModule -->
<g id="edge50" class="edge">
<title>MermaidComponent&#45;&gt;ToolsModule</title>
<path fill="none" stroke="black" d="M5065,-160.89C5065,-183.93 5065,-220.8 5065,-220.8 5065,-220.8 4115.79,-220.8 4115.79,-220.8"/>
<polygon fill="black" stroke="black" points="4115.79,-217.3 4105.79,-220.8 4115.79,-224.3 4115.79,-217.3"/>
</g>
<!-- OpenapiComponent -->
<g id="node52" class="node">
<title>OpenapiComponent</title>
<polygon fill="#ffffb3" stroke="black" points="4980.26,-160.8 4851.74,-160.8 4851.74,-124.8 4980.26,-124.8 4980.26,-160.8"/>
<text text-anchor="middle" x="4916" y="-138.6" font-family="Times,serif" font-size="14.00">OpenapiComponent</text>
</g>
<!-- OpenapiComponent&#45;&gt;ToolsModule -->
<g id="edge51" class="edge">
<title>OpenapiComponent&#45;&gt;ToolsModule</title>
<path fill="none" stroke="black" d="M4916,-160.84C4916,-182.46 4916,-215.8 4916,-215.8 4916,-215.8 4116.02,-215.8 4116.02,-215.8"/>
<polygon fill="black" stroke="black" points="4116.02,-212.3 4106.02,-215.8 4116.02,-219.3 4116.02,-212.3"/>
</g>
<!-- RealtimeComponent -->
<g id="node53" class="node">
<title>RealtimeComponent</title>
<polygon fill="#ffffb3" stroke="black" points="4833.87,-160.8 4702.13,-160.8 4702.13,-124.8 4833.87,-124.8 4833.87,-160.8"/>
<text text-anchor="middle" x="4768" y="-138.6" font-family="Times,serif" font-size="14.00">RealtimeComponent</text>
</g>
<!-- RealtimeComponent&#45;&gt;ToolsModule -->
<g id="edge52" class="edge">
<title>RealtimeComponent&#45;&gt;ToolsModule</title>
<path fill="none" stroke="black" d="M4768,-161.02C4768,-181.17 4768,-210.8 4768,-210.8 4768,-210.8 4115.91,-210.8 4115.91,-210.8"/>
<polygon fill="black" stroke="black" points="4115.91,-207.3 4105.91,-210.8 4115.91,-214.3 4115.91,-207.3"/>
</g>
<!-- RegexComponent -->
<g id="node54" class="node">
<title>RegexComponent</title>
<polygon fill="#ffffb3" stroke="black" points="4684.6,-160.8 4567.4,-160.8 4567.4,-124.8 4684.6,-124.8 4684.6,-160.8"/>
<text text-anchor="middle" x="4626" y="-138.6" font-family="Times,serif" font-size="14.00">RegexComponent</text>
</g>
<!-- RegexComponent&#45;&gt;ToolsModule -->
<g id="edge53" class="edge">
<title>RegexComponent&#45;&gt;ToolsModule</title>
<path fill="none" stroke="black" d="M4626,-161.02C4626,-179.63 4626,-205.8 4626,-205.8 4626,-205.8 4115.84,-205.8 4115.84,-205.8"/>
<polygon fill="black" stroke="black" points="4115.84,-202.3 4105.84,-205.8 4115.84,-209.3 4115.84,-202.3"/>
</g>
<!-- UserInfoComponent -->
<g id="node55" class="node">
<title>UserInfoComponent</title>
<polygon fill="#ffffb3" stroke="black" points="4549.59,-160.8 4418.41,-160.8 4418.41,-124.8 4549.59,-124.8 4549.59,-160.8"/>
<text text-anchor="middle" x="4484" y="-138.6" font-family="Times,serif" font-size="14.00">UserInfoComponent</text>
</g>
<!-- UserInfoComponent&#45;&gt;ToolsModule -->
<g id="edge54" class="edge">
<title>UserInfoComponent&#45;&gt;ToolsModule</title>
<path fill="none" stroke="black" d="M4484,-160.83C4484,-177.86 4484,-200.8 4484,-200.8 4484,-200.8 4115.78,-200.8 4115.78,-200.8"/>
<polygon fill="black" stroke="black" points="4115.78,-197.3 4105.78,-200.8 4115.78,-204.3 4115.78,-197.3"/>
</g>
<!-- YearCheckComponent -->
<g id="node56" class="node">
<title>YearCheckComponent</title>
<polygon fill="#ffffb3" stroke="black" points="4400.3,-160.8 4255.7,-160.8 4255.7,-124.8 4400.3,-124.8 4400.3,-160.8"/>
<text text-anchor="middle" x="4328" y="-138.6" font-family="Times,serif" font-size="14.00">YearCheckComponent</text>
</g>
<!-- YearCheckComponent&#45;&gt;ToolsModule -->
<g id="edge55" class="edge">
<title>YearCheckComponent&#45;&gt;ToolsModule</title>
<path fill="none" stroke="black" d="M4328,-161.04C4328,-176.37 4328,-195.8 4328,-195.8 4328,-195.8 4115.77,-195.8 4115.77,-195.8"/>
<polygon fill="black" stroke="black" points="4115.77,-192.3 4105.77,-195.8 4115.77,-199.3 4115.77,-192.3"/>
</g>
<!-- ToolsRoutingModule -->
<g id="node58" class="node">
<title>ToolsRoutingModule</title>
<polygon fill="#8dd3c7" stroke="black" points="3260.06,-160.8 3257.06,-164.8 3236.06,-164.8 3233.06,-160.8 3123.94,-160.8 3123.94,-124.8 3260.06,-124.8 3260.06,-160.8"/>
<text text-anchor="middle" x="3192" y="-138.6" font-family="Times,serif" font-size="14.00">ToolsRoutingModule</text>
</g>
<!-- ToolsRoutingModule&#45;&gt;ToolsModule -->
<g id="edge57" class="edge">
<title>ToolsRoutingModule&#45;&gt;ToolsModule</title>
<path fill="none" stroke="black" d="M3192,-160.89C3192,-183.93 3192,-220.8 3192,-220.8 3192,-220.8 4004.25,-220.8 4004.25,-220.8"/>
<polygon fill="black" stroke="black" points="4004.25,-224.3 4014.25,-220.8 4004.25,-217.3 4004.25,-224.3"/>
</g>
</g>
</svg>
