<?xml version="1.0" encoding="UTF-8" standalone="no"?>
<!DOCTYPE svg PUBLIC "-//W3C//DTD SVG 1.1//EN"
 "http://www.w3.org/Graphics/SVG/1.1/DTD/svg11.dtd">
<!-- Generated by graphviz version 2.47.3 (20210619.1520)
 -->
<!-- Title: dependencies Pages: 1 -->
<svg width="5913pt" height="253pt"
 viewBox="0.00 0.00 5913.00 252.80" xmlns="http://www.w3.org/2000/svg" xmlns:xlink="http://www.w3.org/1999/xlink">
<g id="graph0" class="graph" transform="scale(1 1) rotate(0) translate(4 248.8)">
<title>dependencies</title>
<polygon fill="white" stroke="transparent" points="-4,4 -4,-248.8 5909,-248.8 5909,4 -4,4"/>
<text text-anchor="middle" x="2952.5" y="-8.2" font-family="sans-serif" font-size="14.00">dependencies</text>
<g id="clust1" class="cluster">
<title>cluster_AppModule</title>
<polygon fill="none" stroke="black" stroke-dasharray="1,5" points="8,-32.8 8,-236.8 415,-236.8 415,-32.8 8,-32.8"/>
</g>
<g id="clust2" class="cluster">
<title>cluster_AppModule_declarations</title>
<polygon fill="none" stroke="black" points="16,-40.8 16,-92.8 138,-92.8 138,-40.8 16,-40.8"/>
</g>
<g id="clust4" class="cluster">
<title>cluster_AppModule_imports</title>
<polygon fill="none" stroke="black" points="146,-40.8 146,-92.8 407,-92.8 407,-40.8 146,-40.8"/>
</g>
<g id="clust6" class="cluster">
<title>cluster_AppModule_bootstrap</title>
<polygon fill="none" stroke="black" points="156,-176.8 156,-228.8 280,-228.8 280,-176.8 156,-176.8"/>
</g>
<g id="clust14" class="cluster">
<title>cluster_BlogModule</title>
<polygon fill="none" stroke="black" stroke-dasharray="1,5" points="2752,-32.8 2752,-160.8 3231,-160.8 3231,-32.8 2752,-32.8"/>
</g>
<g id="clust15" class="cluster">
<title>cluster_BlogModule_declarations</title>
<polygon fill="none" stroke="black" points="2916,-40.8 2916,-92.8 3223,-92.8 3223,-40.8 2916,-40.8"/>
</g>
<g id="clust18" class="cluster">
<title>cluster_BlogModule_imports</title>
<polygon fill="none" stroke="black" points="2760,-40.8 2760,-92.8 2908,-92.8 2908,-40.8 2760,-40.8"/>
</g>
<g id="clust28" class="cluster">
<title>cluster_HomeModule</title>
<polygon fill="none" stroke="black" stroke-dasharray="1,5" points="3239,-32.8 3239,-160.8 3958,-160.8 3958,-32.8 3239,-32.8"/>
</g>
<g id="clust29" class="cluster">
<title>cluster_HomeModule_declarations</title>
<polygon fill="none" stroke="black" points="3409,-40.8 3409,-92.8 3950,-92.8 3950,-40.8 3409,-40.8"/>
</g>
<g id="clust34" class="cluster">
<title>cluster_HomeModule_imports</title>
<polygon fill="none" stroke="black" points="3247,-40.8 3247,-92.8 3401,-92.8 3401,-40.8 3247,-40.8"/>
</g>
<g id="clust44" class="cluster">
<title>cluster_LogModule</title>
<polygon fill="none" stroke="black" stroke-dasharray="1,5" points="3966,-32.8 3966,-160.8 4432,-160.8 4432,-32.8 3966,-32.8"/>
</g>
<g id="clust45" class="cluster">
<title>cluster_LogModule_declarations</title>
<polygon fill="none" stroke="black" points="4126,-40.8 4126,-92.8 4424,-92.8 4424,-40.8 4126,-40.8"/>
</g>
<g id="clust48" class="cluster">
<title>cluster_LogModule_imports</title>
<polygon fill="none" stroke="black" points="3974,-40.8 3974,-92.8 4118,-92.8 4118,-40.8 3974,-40.8"/>
</g>
<g id="clust58" class="cluster">
<title>cluster_SharedModule</title>
<polygon fill="none" stroke="black" stroke-dasharray="1,5" points="423,-100.8 423,-168.8 2744,-168.8 2744,-100.8 423,-100.8"/>
</g>
<g id="clust59" class="cluster">
<title>cluster_SharedModule_declarations</title>
<polygon fill="none" stroke="black" points="1601,-108.8 1601,-160.8 2736,-160.8 2736,-108.8 1601,-108.8"/>
</g>
<g id="clust69" class="cluster">
<title>cluster_SharedModule_exports</title>
<polygon fill="none" stroke="black" points="431,-108.8 431,-160.8 1593,-160.8 1593,-108.8 431,-108.8"/>
</g>
<g id="clust72" class="cluster">
<title>cluster_ToolsModule</title>
<polygon fill="none" stroke="black" stroke-dasharray="1,5" points="4440,-32.8 4440,-160.8 5897,-160.8 5897,-32.8 4440,-32.8"/>
</g>
<g id="clust73" class="cluster">
<title>cluster_ToolsModule_declarations</title>
<polygon fill="none" stroke="black" points="4608,-40.8 4608,-92.8 5889,-92.8 5889,-40.8 4608,-40.8"/>
</g>
<g id="clust82" class="cluster">
<title>cluster_ToolsModule_imports</title>
<polygon fill="none" stroke="black" points="4448,-40.8 4448,-92.8 4600,-92.8 4600,-40.8 4448,-40.8"/>
</g>
<!-- AppComponent -->
<g id="node1" class="node">
<title>AppComponent</title>
<polygon fill="#ffffb3" stroke="black" points="129.94,-84.8 24.06,-84.8 24.06,-48.8 129.94,-48.8 129.94,-84.8"/>
<text text-anchor="middle" x="77" y="-62.6" font-family="Times,serif" font-size="14.00">AppComponent</text>
</g>
<!-- AppModule -->
<g id="node2" class="node">
<title>AppModule</title>
<polygon fill="#8dd3c7" stroke="black" points="259.66,-152.8 256.66,-156.8 235.66,-156.8 232.66,-152.8 176.34,-152.8 176.34,-116.8 259.66,-116.8 259.66,-152.8"/>
<text text-anchor="middle" x="218" y="-130.6" font-family="Times,serif" font-size="14.00">AppModule</text>
</g>
<!-- AppComponent&#45;&gt;AppModule -->
<g id="edge1" class="edge">
<title>AppComponent&#45;&gt;AppModule</title>
<path fill="none" stroke="black" d="M77,-85.02C77,-105.17 77,-134.8 77,-134.8 77,-134.8 166.08,-134.8 166.08,-134.8"/>
<polygon fill="black" stroke="black" points="166.08,-138.3 176.08,-134.8 166.08,-131.3 166.08,-138.3"/>
</g>
<!-- AppComponent  -->
<g id="node5" class="node">
<title>AppComponent </title>
<polygon fill="#80b1d3" stroke="black" points="272.44,-220.8 163.56,-220.8 163.56,-184.8 272.44,-184.8 272.44,-220.8"/>
<text text-anchor="middle" x="218" y="-198.6" font-family="Times,serif" font-size="14.00">AppComponent </text>
</g>
<!-- AppModule&#45;&gt;AppComponent  -->
<g id="edge4" class="edge">
<title>AppModule&#45;&gt;AppComponent </title>
<path fill="none" stroke="black" stroke-dasharray="1,5" d="M218,-153.02C218,-153.02 218,-174.53 218,-174.53"/>
<polygon fill="black" stroke="black" points="214.5,-174.53 218,-184.53 221.5,-174.53 214.5,-174.53"/>
</g>
<!-- AppRoutingModule -->
<g id="node3" class="node">
<title>AppRoutingModule</title>
<polygon fill="#8dd3c7" stroke="black" points="282.27,-84.8 279.27,-88.8 258.27,-88.8 255.27,-84.8 153.73,-84.8 153.73,-48.8 282.27,-48.8 282.27,-84.8"/>
<text text-anchor="middle" x="218" y="-62.6" font-family="Times,serif" font-size="14.00">AppRoutingModule</text>
</g>
<!-- AppRoutingModule&#45;&gt;AppModule -->
<g id="edge2" class="edge">
<title>AppRoutingModule&#45;&gt;AppModule</title>
<path fill="none" stroke="black" d="M218,-85.02C218,-85.02 218,-106.53 218,-106.53"/>
<polygon fill="black" stroke="black" points="214.5,-106.53 218,-116.53 221.5,-106.53 214.5,-106.53"/>
</g>
<!-- SharedModule -->
<g id="node4" class="node">
<title>SharedModule</title>
<polygon fill="#8dd3c7" stroke="black" points="399.42,-84.8 396.42,-88.8 375.42,-88.8 372.42,-84.8 300.58,-84.8 300.58,-48.8 399.42,-48.8 399.42,-84.8"/>
<text text-anchor="middle" x="350" y="-62.6" font-family="Times,serif" font-size="14.00">SharedModule</text>
</g>
<!-- SharedModule&#45;&gt;AppModule -->
<g id="edge3" class="edge">
<title>SharedModule&#45;&gt;AppModule</title>
<path fill="none" stroke="black" d="M366.4,-85.09C366.4,-107.01 366.4,-140.8 366.4,-140.8 366.4,-140.8 269.73,-140.8 269.73,-140.8"/>
<polygon fill="black" stroke="black" points="269.73,-137.3 259.73,-140.8 269.73,-144.3 269.73,-137.3"/>
</g>
<!-- BlogModule -->
<g id="node8" class="node">
<title>BlogModule</title>
<polygon fill="#8dd3c7" stroke="black" points="2954.28,-152.8 2951.28,-156.8 2930.28,-156.8 2927.28,-152.8 2867.72,-152.8 2867.72,-116.8 2954.28,-116.8 2954.28,-152.8"/>
<text text-anchor="middle" x="2911" y="-130.6" font-family="Times,serif" font-size="14.00">BlogModule</text>
</g>
<!-- SharedModule&#45;&gt;BlogModule -->
<g id="edge8" class="edge">
<title>SharedModule&#45;&gt;BlogModule</title>
<path fill="none" stroke="black" d="M399.26,-51.8C741.27,-51.8 2748.19,-51.8 2748.19,-51.8 2748.19,-51.8 2748.19,-134.8 2748.19,-134.8 2748.19,-134.8 2857.37,-134.8 2857.37,-134.8"/>
<polygon fill="black" stroke="black" points="2857.37,-138.3 2867.37,-134.8 2857.37,-131.3 2857.37,-138.3"/>
</g>
<!-- HomeModule -->
<g id="node14" class="node">
<title>HomeModule</title>
<polygon fill="#8dd3c7" stroke="black" points="3588.76,-152.8 3585.76,-156.8 3564.76,-156.8 3561.76,-152.8 3495.24,-152.8 3495.24,-116.8 3588.76,-116.8 3588.76,-152.8"/>
<text text-anchor="middle" x="3542" y="-130.6" font-family="Times,serif" font-size="14.00">HomeModule</text>
</g>
<!-- SharedModule&#45;&gt;HomeModule -->
<g id="edge14" class="edge">
<title>SharedModule&#45;&gt;HomeModule</title>
<path fill="none" stroke="black" d="M317.19,-84.86C317.19,-96.24 317.19,-108.8 317.19,-108.8 317.19,-108.8 3506.95,-108.8 3506.95,-108.8 3506.95,-108.8 3506.95,-109.59 3506.95,-109.59"/>
<polygon fill="black" stroke="black" points="3503.45,-106.74 3506.95,-116.74 3510.45,-106.74 3503.45,-106.74"/>
</g>
<!-- LogModule -->
<g id="node18" class="node">
<title>LogModule</title>
<polygon fill="#8dd3c7" stroke="black" points="4162.1,-152.8 4159.1,-156.8 4138.1,-156.8 4135.1,-152.8 4079.9,-152.8 4079.9,-116.8 4162.1,-116.8 4162.1,-152.8"/>
<text text-anchor="middle" x="4121" y="-130.6" font-family="Times,serif" font-size="14.00">LogModule</text>
</g>
<!-- SharedModule&#45;&gt;LogModule -->
<g id="edge18" class="edge">
<title>SharedModule&#45;&gt;LogModule</title>
<path fill="none" stroke="black" d="M333.6,-84.99C333.6,-93.08 333.6,-100.8 333.6,-100.8 333.6,-100.8 4089.84,-100.8 4089.84,-100.8 4089.84,-100.8 4089.84,-106.61 4089.84,-106.61"/>
<polygon fill="black" stroke="black" points="4086.34,-106.61 4089.84,-116.61 4093.34,-106.61 4086.34,-106.61"/>
</g>
<!-- AdsComponent  -->
<g id="node28" class="node">
<title>AdsComponent </title>
<polygon fill="#fb8072" stroke="black" points="1300.88,-152.8 1193.12,-152.8 1193.12,-116.8 1300.88,-116.8 1300.88,-152.8"/>
<text text-anchor="middle" x="1247" y="-130.6" font-family="Times,serif" font-size="14.00">AdsComponent </text>
</g>
<!-- SharedModule&#45;&gt;AdsComponent  -->
<g id="edge27" class="edge">
<title>SharedModule&#45;&gt;AdsComponent </title>
<path fill="none" stroke="black" stroke-dasharray="5,2" d="M399.5,-74.8C587.55,-74.8 1247,-74.8 1247,-74.8 1247,-74.8 1247,-106.8 1247,-106.8"/>
<polygon fill="black" stroke="black" points="1243.5,-106.8 1247,-116.8 1250.5,-106.8 1243.5,-106.8"/>
</g>
<!-- AdsModalComponent  -->
<g id="node29" class="node">
<title>AdsModalComponent </title>
<polygon fill="#fb8072" stroke="black" points="1174.93,-152.8 1031.07,-152.8 1031.07,-116.8 1174.93,-116.8 1174.93,-152.8"/>
<text text-anchor="middle" x="1103" y="-130.6" font-family="Times,serif" font-size="14.00">AdsModalComponent </text>
</g>
<!-- SharedModule&#45;&gt;AdsModalComponent  -->
<g id="edge28" class="edge">
<title>SharedModule&#45;&gt;AdsModalComponent </title>
<path fill="none" stroke="black" stroke-dasharray="5,2" d="M399.41,-76.8C566.93,-76.8 1103,-76.8 1103,-76.8 1103,-76.8 1103,-106.77 1103,-106.77"/>
<polygon fill="black" stroke="black" points="1099.5,-106.77 1103,-116.77 1106.5,-106.77 1099.5,-106.77"/>
</g>
<!-- AmazonAdsComponent  -->
<g id="node30" class="node">
<title>AmazonAdsComponent </title>
<polygon fill="#fb8072" stroke="black" points="1013.31,-152.8 858.69,-152.8 858.69,-116.8 1013.31,-116.8 1013.31,-152.8"/>
<text text-anchor="middle" x="936" y="-130.6" font-family="Times,serif" font-size="14.00">AmazonAdsComponent </text>
</g>
<!-- SharedModule&#45;&gt;AmazonAdsComponent  -->
<g id="edge29" class="edge">
<title>SharedModule&#45;&gt;AmazonAdsComponent </title>
<path fill="none" stroke="black" stroke-dasharray="5,2" d="M399.46,-78.8C540.73,-78.8 936,-78.8 936,-78.8 936,-78.8 936,-106.77 936,-106.77"/>
<polygon fill="black" stroke="black" points="932.5,-106.77 936,-116.77 939.5,-106.77 932.5,-106.77"/>
</g>
<!-- LoadingComponent  -->
<g id="node31" class="node">
<title>LoadingComponent </title>
<polygon fill="#fb8072" stroke="black" points="840.99,-152.8 709.01,-152.8 709.01,-116.8 840.99,-116.8 840.99,-152.8"/>
<text text-anchor="middle" x="775" y="-130.6" font-family="Times,serif" font-size="14.00">LoadingComponent </text>
</g>
<!-- SharedModule&#45;&gt;LoadingComponent  -->
<g id="edge30" class="edge">
<title>SharedModule&#45;&gt;LoadingComponent </title>
<path fill="none" stroke="black" stroke-dasharray="5,2" d="M399.58,-80.8C511.7,-80.8 775,-80.8 775,-80.8 775,-80.8 775,-106.52 775,-106.52"/>
<polygon fill="black" stroke="black" points="771.5,-106.52 775,-116.52 778.5,-106.52 771.5,-106.52"/>
</g>
<!-- MdescapePipe  -->
<g id="node32" class="node">
<title>MdescapePipe </title>
<polygon fill="#fb8072" stroke="black" points="691.64,-152.8 590.36,-152.8 590.36,-116.8 691.64,-116.8 691.64,-152.8"/>
<text text-anchor="middle" x="641" y="-130.6" font-family="Times,serif" font-size="14.00">MdescapePipe </text>
</g>
<!-- SharedModule&#45;&gt;MdescapePipe  -->
<g id="edge31" class="edge">
<title>SharedModule&#45;&gt;MdescapePipe </title>
<path fill="none" stroke="black" stroke-dasharray="5,2" d="M399.36,-82.8C482.39,-82.8 641,-82.8 641,-82.8 641,-82.8 641,-106.61 641,-106.61"/>
<polygon fill="black" stroke="black" points="637.5,-106.61 641,-116.61 644.5,-106.61 637.5,-106.61"/>
</g>
<!-- MessageComponent  -->
<g id="node33" class="node">
<title>MessageComponent </title>
<polygon fill="#fb8072" stroke="black" points="572.81,-152.8 439.19,-152.8 439.19,-116.8 572.81,-116.8 572.81,-152.8"/>
<text text-anchor="middle" x="506" y="-130.6" font-family="Times,serif" font-size="14.00">MessageComponent </text>
</g>
<!-- SharedModule&#45;&gt;MessageComponent  -->
<g id="edge32" class="edge">
<title>SharedModule&#45;&gt;MessageComponent </title>
<path fill="none" stroke="black" stroke-dasharray="5,2" d="M382.81,-85.07C382.81,-103.36 382.81,-128.8 382.81,-128.8 382.81,-128.8 429,-128.8 429,-128.8"/>
<polygon fill="black" stroke="black" points="429,-132.3 439,-128.8 429,-125.3 429,-132.3"/>
</g>
<!-- NavComponent  -->
<g id="node34" class="node">
<title>NavComponent </title>
<polygon fill="#fb8072" stroke="black" points="1585.15,-152.8 1476.85,-152.8 1476.85,-116.8 1585.15,-116.8 1585.15,-152.8"/>
<text text-anchor="middle" x="1531" y="-130.6" font-family="Times,serif" font-size="14.00">NavComponent </text>
</g>
<!-- SharedModule&#45;&gt;NavComponent  -->
<g id="edge33" class="edge">
<title>SharedModule&#45;&gt;NavComponent </title>
<path fill="none" stroke="black" stroke-dasharray="5,2" d="M399.24,-70.8C622.76,-70.8 1531,-70.8 1531,-70.8 1531,-70.8 1531,-106.63 1531,-106.63"/>
<polygon fill="black" stroke="black" points="1527.5,-106.63 1531,-116.63 1534.5,-106.63 1527.5,-106.63"/>
</g>
<!-- TweetBtnComponent  -->
<g id="node35" class="node">
<title>TweetBtnComponent </title>
<polygon fill="#fb8072" stroke="black" points="1459.04,-152.8 1318.96,-152.8 1318.96,-116.8 1459.04,-116.8 1459.04,-152.8"/>
<text text-anchor="middle" x="1389" y="-130.6" font-family="Times,serif" font-size="14.00">TweetBtnComponent </text>
</g>
<!-- SharedModule&#45;&gt;TweetBtnComponent  -->
<g id="edge34" class="edge">
<title>SharedModule&#45;&gt;TweetBtnComponent </title>
<path fill="none" stroke="black" stroke-dasharray="5,2" d="M399.41,-72.8C605.9,-72.8 1389,-72.8 1389,-72.8 1389,-72.8 1389,-106.53 1389,-106.53"/>
<polygon fill="black" stroke="black" points="1385.5,-106.53 1389,-116.53 1392.5,-106.53 1385.5,-106.53"/>
</g>
<!-- ToolsModule -->
<g id="node44" class="node">
<title>ToolsModule</title>
<polygon fill="#8dd3c7" stroke="black" points="5143.94,-152.8 5140.94,-156.8 5119.94,-156.8 5116.94,-152.8 5052.06,-152.8 5052.06,-116.8 5143.94,-116.8 5143.94,-152.8"/>
<text text-anchor="middle" x="5098" y="-130.6" font-family="Times,serif" font-size="14.00">ToolsModule</text>
</g>
<!-- SharedModule&#45;&gt;ToolsModule -->
<g id="edge43" class="edge">
<title>SharedModule&#45;&gt;ToolsModule</title>
<path fill="none" stroke="black" d="M350,-84.86C350,-89.29 350,-92.8 350,-92.8 350,-92.8 5064.37,-92.8 5064.37,-92.8 5064.37,-92.8 5064.37,-106.74 5064.37,-106.74"/>
<polygon fill="black" stroke="black" points="5060.87,-106.74 5064.37,-116.74 5067.87,-106.74 5060.87,-106.74"/>
</g>
<!-- BlogDetailComponent -->
<g id="node6" class="node">
<title>BlogDetailComponent</title>
<polygon fill="#ffffb3" stroke="black" points="3215.27,-84.8 3072.73,-84.8 3072.73,-48.8 3215.27,-48.8 3215.27,-84.8"/>
<text text-anchor="middle" x="3144" y="-62.6" font-family="Times,serif" font-size="14.00">BlogDetailComponent</text>
</g>
<!-- BlogDetailComponent&#45;&gt;BlogModule -->
<g id="edge5" class="edge">
<title>BlogDetailComponent&#45;&gt;BlogModule</title>
<path fill="none" stroke="black" d="M3144,-85.07C3144,-103.36 3144,-128.8 3144,-128.8 3144,-128.8 2964.28,-128.8 2964.28,-128.8"/>
<polygon fill="black" stroke="black" points="2964.28,-125.3 2954.28,-128.8 2964.28,-132.3 2964.28,-125.3"/>
</g>
<!-- BlogListComponent -->
<g id="node7" class="node">
<title>BlogListComponent</title>
<polygon fill="#ffffb3" stroke="black" points="3054.34,-84.8 2923.66,-84.8 2923.66,-48.8 3054.34,-48.8 3054.34,-84.8"/>
<text text-anchor="middle" x="2989" y="-62.6" font-family="Times,serif" font-size="14.00">BlogListComponent</text>
</g>
<!-- BlogListComponent&#45;&gt;BlogModule -->
<g id="edge6" class="edge">
<title>BlogListComponent&#45;&gt;BlogModule</title>
<path fill="none" stroke="black" d="M2939.11,-85.02C2939.11,-85.02 2939.11,-106.53 2939.11,-106.53"/>
<polygon fill="black" stroke="black" points="2935.61,-106.53 2939.11,-116.53 2942.61,-106.53 2935.61,-106.53"/>
</g>
<!-- BlogRoutingModule -->
<g id="node9" class="node">
<title>BlogRoutingModule</title>
<polygon fill="#8dd3c7" stroke="black" points="2899.89,-84.8 2896.89,-88.8 2875.89,-88.8 2872.89,-84.8 2768.11,-84.8 2768.11,-48.8 2899.89,-48.8 2899.89,-84.8"/>
<text text-anchor="middle" x="2834" y="-62.6" font-family="Times,serif" font-size="14.00">BlogRoutingModule</text>
</g>
<!-- BlogRoutingModule&#45;&gt;BlogModule -->
<g id="edge7" class="edge">
<title>BlogRoutingModule&#45;&gt;BlogModule</title>
<path fill="none" stroke="black" d="M2883.78,-85.02C2883.78,-85.02 2883.78,-106.53 2883.78,-106.53"/>
<polygon fill="black" stroke="black" points="2880.28,-106.53 2883.78,-116.53 2887.28,-106.53 2880.28,-106.53"/>
</g>
<!-- ContactComponent -->
<g id="node10" class="node">
<title>ContactComponent</title>
<polygon fill="#ffffb3" stroke="black" points="3673.38,-84.8 3548.62,-84.8 3548.62,-48.8 3673.38,-48.8 3673.38,-84.8"/>
<text text-anchor="middle" x="3611" y="-62.6" font-family="Times,serif" font-size="14.00">ContactComponent</text>
</g>
<!-- ContactComponent&#45;&gt;HomeModule -->
<g id="edge9" class="edge">
<title>ContactComponent&#45;&gt;HomeModule</title>
<path fill="none" stroke="black" d="M3568.72,-85.02C3568.72,-85.02 3568.72,-106.53 3568.72,-106.53"/>
<polygon fill="black" stroke="black" points="3565.22,-106.53 3568.72,-116.53 3572.22,-106.53 3565.22,-106.53"/>
</g>
<!-- IndexComponent -->
<g id="node11" class="node">
<title>IndexComponent</title>
<polygon fill="#ffffb3" stroke="black" points="3530.71,-84.8 3417.29,-84.8 3417.29,-48.8 3530.71,-48.8 3530.71,-84.8"/>
<text text-anchor="middle" x="3474" y="-62.6" font-family="Times,serif" font-size="14.00">IndexComponent</text>
</g>
<!-- IndexComponent&#45;&gt;HomeModule -->
<g id="edge10" class="edge">
<title>IndexComponent&#45;&gt;HomeModule</title>
<path fill="none" stroke="black" d="M3518.78,-85.02C3518.78,-85.02 3518.78,-106.53 3518.78,-106.53"/>
<polygon fill="black" stroke="black" points="3515.28,-106.53 3518.78,-116.53 3522.28,-106.53 3515.28,-106.53"/>
</g>
<!-- NewsComponent -->
<g id="node12" class="node">
<title>NewsComponent</title>
<polygon fill="#ffffb3" stroke="black" points="3941.7,-84.8 3828.3,-84.8 3828.3,-48.8 3941.7,-48.8 3941.7,-84.8"/>
<text text-anchor="middle" x="3885" y="-62.6" font-family="Times,serif" font-size="14.00">NewsComponent</text>
</g>
<!-- NewsComponent&#45;&gt;HomeModule -->
<g id="edge11" class="edge">
<title>NewsComponent&#45;&gt;HomeModule</title>
<path fill="none" stroke="black" d="M3885,-85.09C3885,-107.01 3885,-140.8 3885,-140.8 3885,-140.8 3598.97,-140.8 3598.97,-140.8"/>
<polygon fill="black" stroke="black" points="3598.97,-137.3 3588.97,-140.8 3598.97,-144.3 3598.97,-137.3"/>
</g>
<!-- ProfileComponent -->
<g id="node13" class="node">
<title>ProfileComponent</title>
<polygon fill="#ffffb3" stroke="black" points="3810.93,-84.8 3691.07,-84.8 3691.07,-48.8 3810.93,-48.8 3810.93,-84.8"/>
<text text-anchor="middle" x="3751" y="-62.6" font-family="Times,serif" font-size="14.00">ProfileComponent</text>
</g>
<!-- ProfileComponent&#45;&gt;HomeModule -->
<g id="edge12" class="edge">
<title>ProfileComponent&#45;&gt;HomeModule</title>
<path fill="none" stroke="black" d="M3751,-85.07C3751,-103.36 3751,-128.8 3751,-128.8 3751,-128.8 3598.9,-128.8 3598.9,-128.8"/>
<polygon fill="black" stroke="black" points="3598.9,-125.3 3588.9,-128.8 3598.9,-132.3 3598.9,-125.3"/>
</g>
<!-- HomeRoutingModule -->
<g id="node15" class="node">
<title>HomeRoutingModule</title>
<polygon fill="#8dd3c7" stroke="black" points="3393.38,-84.8 3390.38,-88.8 3369.38,-88.8 3366.38,-84.8 3254.62,-84.8 3254.62,-48.8 3393.38,-48.8 3393.38,-84.8"/>
<text text-anchor="middle" x="3324" y="-62.6" font-family="Times,serif" font-size="14.00">HomeRoutingModule</text>
</g>
<!-- HomeRoutingModule&#45;&gt;HomeModule -->
<g id="edge13" class="edge">
<title>HomeRoutingModule&#45;&gt;HomeModule</title>
<path fill="none" stroke="black" d="M3324,-85.09C3324,-107.01 3324,-140.8 3324,-140.8 3324,-140.8 3485.23,-140.8 3485.23,-140.8"/>
<polygon fill="black" stroke="black" points="3485.23,-144.3 3495.23,-140.8 3485.23,-137.3 3485.23,-144.3"/>
</g>
<!-- LogDetailComponent -->
<g id="node16" class="node">
<title>LogDetailComponent</title>
<polygon fill="#ffffb3" stroke="black" points="4416.09,-84.8 4277.91,-84.8 4277.91,-48.8 4416.09,-48.8 4416.09,-84.8"/>
<text text-anchor="middle" x="4347" y="-62.6" font-family="Times,serif" font-size="14.00">LogDetailComponent</text>
</g>
<!-- LogDetailComponent&#45;&gt;LogModule -->
<g id="edge15" class="edge">
<title>LogDetailComponent&#45;&gt;LogModule</title>
<path fill="none" stroke="black" d="M4347,-85.12C4347,-108.46 4347,-145.8 4347,-145.8 4347,-145.8 4172.19,-145.8 4172.19,-145.8"/>
<polygon fill="black" stroke="black" points="4172.19,-142.3 4162.19,-145.8 4172.19,-149.3 4172.19,-142.3"/>
</g>
<!-- LogListComponent -->
<g id="node17" class="node">
<title>LogListComponent</title>
<polygon fill="#ffffb3" stroke="black" points="4259.66,-84.8 4134.34,-84.8 4134.34,-48.8 4259.66,-48.8 4259.66,-84.8"/>
<text text-anchor="middle" x="4197" y="-62.6" font-family="Times,serif" font-size="14.00">LogListComponent</text>
</g>
<!-- LogListComponent&#45;&gt;LogModule -->
<g id="edge16" class="edge">
<title>LogListComponent&#45;&gt;LogModule</title>
<path fill="none" stroke="black" d="M4148.11,-85.02C4148.11,-85.02 4148.11,-106.53 4148.11,-106.53"/>
<polygon fill="black" stroke="black" points="4144.61,-106.53 4148.11,-116.53 4151.61,-106.53 4144.61,-106.53"/>
</g>
<!-- LogRoutingModule -->
<g id="node19" class="node">
<title>LogRoutingModule</title>
<polygon fill="#8dd3c7" stroke="black" points="4109.72,-84.8 4106.72,-88.8 4085.72,-88.8 4082.72,-84.8 3982.28,-84.8 3982.28,-48.8 4109.72,-48.8 4109.72,-84.8"/>
<text text-anchor="middle" x="4046" y="-62.6" font-family="Times,serif" font-size="14.00">LogRoutingModule</text>
</g>
<!-- LogRoutingModule&#45;&gt;LogModule -->
<g id="edge17" class="edge">
<title>LogRoutingModule&#45;&gt;LogModule</title>
<path fill="none" stroke="black" d="M4099.72,-85.02C4099.72,-85.02 4099.72,-106.53 4099.72,-106.53"/>
<polygon fill="black" stroke="black" points="4096.22,-106.53 4099.72,-116.53 4103.22,-106.53 4096.22,-106.53"/>
</g>
<!-- AdsComponent -->
<g id="node20" class="node">
<title>AdsComponent</title>
<polygon fill="#ffffb3" stroke="black" points="2450.88,-152.8 2347.12,-152.8 2347.12,-116.8 2450.88,-116.8 2450.88,-152.8"/>
<text text-anchor="middle" x="2399" y="-130.6" font-family="Times,serif" font-size="14.00">AdsComponent</text>
</g>
<!-- AdsComponent&#45;&gt;SharedModule -->
<g id="edge19" class="edge">
<title>AdsComponent&#45;&gt;SharedModule</title>
<path fill="none" stroke="black" d="M2399,-116.55C2399,-93.78 2399,-57.8 2399,-57.8 2399,-57.8 409.38,-57.8 409.38,-57.8"/>
<polygon fill="black" stroke="black" points="409.38,-54.3 399.38,-57.8 409.38,-61.3 409.38,-54.3"/>
</g>
<!-- AdsModalComponent -->
<g id="node21" class="node">
<title>AdsModalComponent</title>
<polygon fill="#ffffb3" stroke="black" points="2329.43,-152.8 2188.57,-152.8 2188.57,-116.8 2329.43,-116.8 2329.43,-152.8"/>
<text text-anchor="middle" x="2259" y="-130.6" font-family="Times,serif" font-size="14.00">AdsModalComponent</text>
</g>
<!-- AdsModalComponent&#45;&gt;SharedModule -->
<g id="edge20" class="edge">
<title>AdsModalComponent&#45;&gt;SharedModule</title>
<path fill="none" stroke="black" d="M2259,-116.64C2259,-94.45 2259,-59.8 2259,-59.8 2259,-59.8 409.59,-59.8 409.59,-59.8"/>
<polygon fill="black" stroke="black" points="409.59,-56.3 399.59,-59.8 409.59,-63.3 409.59,-56.3"/>
</g>
<!-- AmazonAdsComponent -->
<g id="node22" class="node">
<title>AmazonAdsComponent</title>
<polygon fill="#ffffb3" stroke="black" points="2170.81,-152.8 2019.19,-152.8 2019.19,-116.8 2170.81,-116.8 2170.81,-152.8"/>
<text text-anchor="middle" x="2095" y="-130.6" font-family="Times,serif" font-size="14.00">AmazonAdsComponent</text>
</g>
<!-- AmazonAdsComponent&#45;&gt;SharedModule -->
<g id="edge21" class="edge">
<title>AmazonAdsComponent&#45;&gt;SharedModule</title>
<path fill="none" stroke="black" d="M2095,-116.76C2095,-95.14 2095,-61.8 2095,-61.8 2095,-61.8 409.41,-61.8 409.41,-61.8"/>
<polygon fill="black" stroke="black" points="409.41,-58.3 399.41,-61.8 409.41,-65.3 409.41,-58.3"/>
</g>
<!-- LoadingComponent -->
<g id="node23" class="node">
<title>LoadingComponent</title>
<polygon fill="#ffffb3" stroke="black" points="2000.99,-152.8 1873.01,-152.8 1873.01,-116.8 2000.99,-116.8 2000.99,-152.8"/>
<text text-anchor="middle" x="1937" y="-130.6" font-family="Times,serif" font-size="14.00">LoadingComponent</text>
</g>
<!-- LoadingComponent&#45;&gt;SharedModule -->
<g id="edge22" class="edge">
<title>LoadingComponent&#45;&gt;SharedModule</title>
<path fill="none" stroke="black" d="M1937,-116.52C1937,-95.48 1937,-63.8 1937,-63.8 1937,-63.8 409.24,-63.8 409.24,-63.8"/>
<polygon fill="black" stroke="black" points="409.24,-60.3 399.24,-63.8 409.24,-67.3 409.24,-60.3"/>
</g>
<!-- MdescapePipe -->
<g id="node24" class="node">
<title>MdescapePipe</title>
<polygon fill="#ffffb3" stroke="black" points="1854.64,-152.8 1757.36,-152.8 1757.36,-116.8 1854.64,-116.8 1854.64,-152.8"/>
<text text-anchor="middle" x="1806" y="-130.6" font-family="Times,serif" font-size="14.00">MdescapePipe</text>
</g>
<!-- MdescapePipe&#45;&gt;SharedModule -->
<g id="edge23" class="edge">
<title>MdescapePipe&#45;&gt;SharedModule</title>
<path fill="none" stroke="black" d="M1806,-116.67C1806,-96.23 1806,-65.8 1806,-65.8 1806,-65.8 409.28,-65.8 409.28,-65.8"/>
<polygon fill="black" stroke="black" points="409.28,-62.3 399.28,-65.8 409.28,-69.3 409.28,-62.3"/>
</g>
<!-- MessageComponent -->
<g id="node25" class="node">
<title>MessageComponent</title>
<polygon fill="#ffffb3" stroke="black" points="1739.31,-152.8 1608.69,-152.8 1608.69,-116.8 1739.31,-116.8 1739.31,-152.8"/>
<text text-anchor="middle" x="1674" y="-130.6" font-family="Times,serif" font-size="14.00">MessageComponent</text>
</g>
<!-- MessageComponent&#45;&gt;SharedModule -->
<g id="edge24" class="edge">
<title>MessageComponent&#45;&gt;SharedModule</title>
<path fill="none" stroke="black" d="M1674,-116.77C1674,-97.22 1674,-68.8 1674,-68.8 1674,-68.8 409.49,-68.8 409.49,-68.8"/>
<polygon fill="black" stroke="black" points="409.49,-65.3 399.49,-68.8 409.49,-72.3 409.49,-65.3"/>
</g>
<!-- NavComponent -->
<g id="node26" class="node">
<title>NavComponent</title>
<polygon fill="#ffffb3" stroke="black" points="2728.15,-152.8 2623.85,-152.8 2623.85,-116.8 2728.15,-116.8 2728.15,-152.8"/>
<text text-anchor="middle" x="2676" y="-130.6" font-family="Times,serif" font-size="14.00">NavComponent</text>
</g>
<!-- NavComponent&#45;&gt;SharedModule -->
<g id="edge25" class="edge">
<title>NavComponent&#45;&gt;SharedModule</title>
<path fill="none" stroke="black" d="M2676,-116.42C2676,-92.52 2676,-53.8 2676,-53.8 2676,-53.8 409.39,-53.8 409.39,-53.8"/>
<polygon fill="black" stroke="black" points="409.39,-50.3 399.39,-53.8 409.39,-57.3 409.39,-50.3"/>
</g>
<!-- TweetBtnComponent -->
<g id="node27" class="node">
<title>TweetBtnComponent</title>
<polygon fill="#ffffb3" stroke="black" points="2605.04,-152.8 2468.96,-152.8 2468.96,-116.8 2605.04,-116.8 2605.04,-152.8"/>
<text text-anchor="middle" x="2537" y="-130.6" font-family="Times,serif" font-size="14.00">TweetBtnComponent</text>
</g>
<!-- TweetBtnComponent&#45;&gt;SharedModule -->
<g id="edge26" class="edge">
<title>TweetBtnComponent&#45;&gt;SharedModule</title>
<path fill="none" stroke="black" d="M2537,-116.48C2537,-93.14 2537,-55.8 2537,-55.8 2537,-55.8 409.27,-55.8 409.27,-55.8"/>
<polygon fill="black" stroke="black" points="409.27,-52.3 399.27,-55.8 409.26,-59.3 409.27,-52.3"/>
</g>
<!-- AmazonAssociateComponent -->
<g id="node36" class="node">
<title>AmazonAssociateComponent</title>
<polygon fill="#ffffb3" stroke="black" points="4939.68,-84.8 4756.32,-84.8 4756.32,-48.8 4939.68,-48.8 4939.68,-84.8"/>
<text text-anchor="middle" x="4848" y="-62.6" font-family="Times,serif" font-size="14.00">AmazonAssociateComponent</text>
</g>
<!-- AmazonAssociateComponent&#45;&gt;ToolsModule -->
<g id="edge35" class="edge">
<title>AmazonAssociateComponent&#45;&gt;ToolsModule</title>
<path fill="none" stroke="black" d="M4848,-84.83C4848,-101.86 4848,-124.8 4848,-124.8 4848,-124.8 5042.15,-124.8 5042.15,-124.8"/>
<polygon fill="black" stroke="black" points="5042.15,-128.3 5052.15,-124.8 5042.15,-121.3 5042.15,-128.3"/>
</g>
<!-- Base64Component -->
<g id="node37" class="node">
<title>Base64Component</title>
<polygon fill="#ffffb3" stroke="black" points="4738.04,-84.8 4615.96,-84.8 4615.96,-48.8 4738.04,-48.8 4738.04,-84.8"/>
<text text-anchor="middle" x="4677" y="-62.6" font-family="Times,serif" font-size="14.00">Base64Component</text>
</g>
<!-- Base64Component&#45;&gt;ToolsModule -->
<g id="edge36" class="edge">
<title>Base64Component&#45;&gt;ToolsModule</title>
<path fill="none" stroke="black" d="M4677,-84.91C4677,-104.14 4677,-131.8 4677,-131.8 4677,-131.8 5042.14,-131.8 5042.14,-131.8"/>
<polygon fill="black" stroke="black" points="5042.14,-135.3 5052.14,-131.8 5042.14,-128.3 5042.14,-135.3"/>
</g>
<!-- JsonFormatterComponent -->
<g id="node38" class="node">
<title>JsonFormatterComponent</title>
<polygon fill="#ffffb3" stroke="black" points="5880.93,-84.8 5719.07,-84.8 5719.07,-48.8 5880.93,-48.8 5880.93,-84.8"/>
<text text-anchor="middle" x="5800" y="-62.6" font-family="Times,serif" font-size="14.00">JsonFormatterComponent</text>
</g>
<!-- JsonFormatterComponent&#45;&gt;ToolsModule -->
<g id="edge37" class="edge">
<title>JsonFormatterComponent&#45;&gt;ToolsModule</title>
<path fill="none" stroke="black" d="M5800,-85.12C5800,-108.46 5800,-145.8 5800,-145.8 5800,-145.8 5153.79,-145.8 5153.79,-145.8"/>
<polygon fill="black" stroke="black" points="5153.79,-142.3 5143.79,-145.8 5153.79,-149.3 5153.79,-142.3"/>
</g>
<!-- JsonTyperComponent -->
<g id="node39" class="node">
<title>JsonTyperComponent</title>
<polygon fill="#ffffb3" stroke="black" points="5700.65,-84.8 5561.35,-84.8 5561.35,-48.8 5700.65,-48.8 5700.65,-84.8"/>
<text text-anchor="middle" x="5631" y="-62.6" font-family="Times,serif" font-size="14.00">JsonTyperComponent</text>
</g>
<!-- JsonTyperComponent&#45;&gt;ToolsModule -->
<g id="edge38" class="edge">
<title>JsonTyperComponent&#45;&gt;ToolsModule</title>
<path fill="none" stroke="black" d="M5631,-84.97C5631,-106.3 5631,-138.8 5631,-138.8 5631,-138.8 5153.9,-138.8 5153.9,-138.8"/>
<polygon fill="black" stroke="black" points="5153.9,-135.3 5143.9,-138.8 5153.9,-142.3 5153.9,-135.3"/>
</g>
<!-- MdwriterComponent -->
<g id="node40" class="node">
<title>MdwriterComponent</title>
<polygon fill="#ffffb3" stroke="black" points="5543.2,-84.8 5408.8,-84.8 5408.8,-48.8 5543.2,-48.8 5543.2,-84.8"/>
<text text-anchor="middle" x="5476" y="-62.6" font-family="Times,serif" font-size="14.00">MdwriterComponent</text>
</g>
<!-- MdwriterComponent&#45;&gt;ToolsModule -->
<g id="edge39" class="edge">
<title>MdwriterComponent&#45;&gt;ToolsModule</title>
<path fill="none" stroke="black" d="M5476,-84.91C5476,-104.14 5476,-131.8 5476,-131.8 5476,-131.8 5153.97,-131.8 5153.97,-131.8"/>
<polygon fill="black" stroke="black" points="5153.97,-128.3 5143.97,-131.8 5153.97,-135.3 5153.97,-128.3"/>
</g>
<!-- RealtimeComponent -->
<g id="node41" class="node">
<title>RealtimeComponent</title>
<polygon fill="#ffffb3" stroke="black" points="5390.88,-84.8 5259.12,-84.8 5259.12,-48.8 5390.88,-48.8 5390.88,-84.8"/>
<text text-anchor="middle" x="5325" y="-62.6" font-family="Times,serif" font-size="14.00">RealtimeComponent</text>
</g>
<!-- RealtimeComponent&#45;&gt;ToolsModule -->
<g id="edge40" class="edge">
<title>RealtimeComponent&#45;&gt;ToolsModule</title>
<path fill="none" stroke="black" d="M5325,-84.83C5325,-101.86 5325,-124.8 5325,-124.8 5325,-124.8 5153.94,-124.8 5153.94,-124.8"/>
<polygon fill="black" stroke="black" points="5153.94,-121.3 5143.94,-124.8 5153.94,-128.3 5153.94,-121.3"/>
</g>
<!-- ToolsListComponent -->
<g id="node42" class="node">
<title>ToolsListComponent</title>
<polygon fill="#ffffb3" stroke="black" points="5241.5,-84.8 5106.5,-84.8 5106.5,-48.8 5241.5,-48.8 5241.5,-84.8"/>
<text text-anchor="middle" x="5174" y="-62.6" font-family="Times,serif" font-size="14.00">ToolsListComponent</text>
</g>
<!-- ToolsListComponent&#45;&gt;ToolsModule -->
<g id="edge41" class="edge">
<title>ToolsListComponent&#45;&gt;ToolsModule</title>
<path fill="none" stroke="black" d="M5125.11,-85.02C5125.11,-85.02 5125.11,-106.53 5125.11,-106.53"/>
<polygon fill="black" stroke="black" points="5121.61,-106.53 5125.11,-116.53 5128.61,-106.53 5121.61,-106.53"/>
</g>
<!-- UserInfoComponent -->
<g id="node43" class="node">
<title>UserInfoComponent</title>
<polygon fill="#ffffb3" stroke="black" points="5088.58,-84.8 4957.42,-84.8 4957.42,-48.8 5088.58,-48.8 5088.58,-84.8"/>
<text text-anchor="middle" x="5023" y="-62.6" font-family="Times,serif" font-size="14.00">UserInfoComponent</text>
</g>
<!-- UserInfoComponent&#45;&gt;ToolsModule -->
<g id="edge42" class="edge">
<title>UserInfoComponent&#45;&gt;ToolsModule</title>
<path fill="none" stroke="black" d="M5076.45,-85.02C5076.45,-85.02 5076.45,-106.53 5076.45,-106.53"/>
<polygon fill="black" stroke="black" points="5072.95,-106.53 5076.45,-116.53 5079.95,-106.53 5072.95,-106.53"/>
</g>
<!-- ToolsRoutingModule -->
<g id="node45" class="node">
<title>ToolsRoutingModule</title>
<polygon fill="#8dd3c7" stroke="black" points="4592.06,-84.8 4589.06,-88.8 4568.06,-88.8 4565.06,-84.8 4455.94,-84.8 4455.94,-48.8 4592.06,-48.8 4592.06,-84.8"/>
<text text-anchor="middle" x="4524" y="-62.6" font-family="Times,serif" font-size="14.00">ToolsRoutingModule</text>
</g>
<!-- ToolsRoutingModule&#45;&gt;ToolsModule -->
<g id="edge44" class="edge">
<title>ToolsRoutingModule&#45;&gt;ToolsModule</title>
<path fill="none" stroke="black" d="M4524,-84.97C4524,-106.3 4524,-138.8 4524,-138.8 4524,-138.8 5042,-138.8 5042,-138.8"/>
<polygon fill="black" stroke="black" points="5042,-142.3 5052,-138.8 5042,-135.3 5042,-142.3"/>
</g>
</g>
</svg>
