<?xml version="1.0" encoding="UTF-8" standalone="no"?>
<!DOCTYPE svg PUBLIC "-//W3C//DTD SVG 1.1//EN"
 "http://www.w3.org/Graphics/SVG/1.1/DTD/svg11.dtd">
<!-- Generated by graphviz version 2.47.0 (20210316.0004)
 -->
<!-- Title: dependencies Pages: 1 -->
<svg width="7144pt" height="290pt"
 viewBox="0.00 0.00 7144.00 290.00" xmlns="http://www.w3.org/2000/svg" xmlns:xlink="http://www.w3.org/1999/xlink">
<g id="graph0" class="graph" transform="scale(1 1) rotate(0) translate(4 286)">
<title>dependencies</title>
<polygon fill="white" stroke="transparent" points="-4,4 -4,-286 7140,-286 7140,4 -4,4"/>
<text text-anchor="start" x="3547.01" y="-42.4" font-family="Times-12" font-weight="bold" font-size="14.00">Legend</text>
<polygon fill="#ffffb3" stroke="transparent" points="3334,-10 3334,-30 3354,-30 3354,-10 3334,-10"/>
<text text-anchor="start" x="3357.63" y="-15.4" font-family="Times-12" font-size="14.00"> &#160;Declarations</text>
<polygon fill="#8dd3c7" stroke="transparent" points="3447,-10 3447,-30 3467,-30 3467,-10 3447,-10"/>
<text text-anchor="start" x="3470.73" y="-15.4" font-family="Times-12" font-size="14.00"> &#160;Module</text>
<polygon fill="#80b1d3" stroke="transparent" points="3533,-10 3533,-30 3553,-30 3553,-10 3533,-10"/>
<text text-anchor="start" x="3556.78" y="-15.4" font-family="Times-12" font-size="14.00"> &#160;Bootstrap</text>
<polygon fill="#fdb462" stroke="transparent" points="3630,-10 3630,-30 3650,-30 3650,-10 3630,-10"/>
<text text-anchor="start" x="3653.67" y="-15.4" font-family="Times-12" font-size="14.00"> &#160;Providers</text>
<polygon fill="#fb8072" stroke="transparent" points="3726,-10 3726,-30 3746,-30 3746,-10 3726,-10"/>
<text text-anchor="start" x="3749.73" y="-15.4" font-family="Times-12" font-size="14.00"> &#160;Exports</text>
<g id="clust1" class="cluster">
<title>cluster_AppModule</title>
<polygon fill="none" stroke="black" stroke-dasharray="1,5" points="8,-70 8,-274 415,-274 415,-70 8,-70"/>
</g>
<g id="clust2" class="cluster">
<title>cluster_AppModule_declarations</title>
<polygon fill="none" stroke="black" points="16,-78 16,-130 138,-130 138,-78 16,-78"/>
</g>
<g id="clust4" class="cluster">
<title>cluster_AppModule_imports</title>
<polygon fill="none" stroke="black" points="146,-78 146,-130 407,-130 407,-78 146,-78"/>
</g>
<g id="clust6" class="cluster">
<title>cluster_AppModule_bootstrap</title>
<polygon fill="none" stroke="black" points="156,-214 156,-266 280,-266 280,-214 156,-214"/>
</g>
<g id="clust14" class="cluster">
<title>cluster_BlogModule</title>
<polygon fill="none" stroke="black" stroke-dasharray="1,5" points="3847,-70 3847,-198 4326,-198 4326,-70 3847,-70"/>
</g>
<g id="clust15" class="cluster">
<title>cluster_BlogModule_declarations</title>
<polygon fill="none" stroke="black" points="4011,-78 4011,-130 4318,-130 4318,-78 4011,-78"/>
</g>
<g id="clust18" class="cluster">
<title>cluster_BlogModule_imports</title>
<polygon fill="none" stroke="black" points="3855,-78 3855,-130 4003,-130 4003,-78 3855,-78"/>
</g>
<g id="clust28" class="cluster">
<title>cluster_HomeModule</title>
<polygon fill="none" stroke="black" stroke-dasharray="1,5" points="4334,-70 4334,-198 4925,-198 4925,-70 4334,-70"/>
</g>
<g id="clust29" class="cluster">
<title>cluster_HomeModule_declarations</title>
<polygon fill="none" stroke="black" points="4504,-78 4504,-130 4917,-130 4917,-78 4504,-78"/>
</g>
<g id="clust33" class="cluster">
<title>cluster_HomeModule_imports</title>
<polygon fill="none" stroke="black" points="4342,-78 4342,-130 4496,-130 4496,-78 4342,-78"/>
</g>
<g id="clust43" class="cluster">
<title>cluster_SharedModule</title>
<polygon fill="none" stroke="black" stroke-dasharray="1,5" points="423,-138 423,-206 3839,-206 3839,-138 423,-138"/>
</g>
<g id="clust44" class="cluster">
<title>cluster_SharedModule_declarations</title>
<polygon fill="none" stroke="black" points="2155,-146 2155,-198 3831,-198 3831,-146 2155,-146"/>
</g>
<g id="clust58" class="cluster">
<title>cluster_SharedModule_exports</title>
<polygon fill="none" stroke="black" points="431,-146 431,-198 2147,-198 2147,-146 431,-146"/>
</g>
<g id="clust61" class="cluster">
<title>cluster_SnippetModule</title>
<polygon fill="none" stroke="black" stroke-dasharray="1,5" points="4933,-70 4933,-198 5283,-198 5283,-70 4933,-70"/>
</g>
<g id="clust62" class="cluster">
<title>cluster_SnippetModule_declarations</title>
<polygon fill="none" stroke="black" points="5113,-78 5113,-130 5275,-130 5275,-78 5113,-78"/>
</g>
<g id="clust64" class="cluster">
<title>cluster_SnippetModule_imports</title>
<polygon fill="none" stroke="black" points="4941,-78 4941,-130 5105,-130 5105,-78 4941,-78"/>
</g>
<g id="clust74" class="cluster">
<title>cluster_ToolsModule</title>
<polygon fill="none" stroke="black" stroke-dasharray="1,5" points="5291,-70 5291,-198 7128,-198 7128,-70 5291,-70"/>
</g>
<g id="clust75" class="cluster">
<title>cluster_ToolsModule_declarations</title>
<polygon fill="none" stroke="black" points="5459,-78 5459,-130 7120,-130 7120,-78 5459,-78"/>
</g>
<g id="clust87" class="cluster">
<title>cluster_ToolsModule_imports</title>
<polygon fill="none" stroke="black" points="5299,-78 5299,-130 5451,-130 5451,-78 5299,-78"/>
</g>
<!-- AppComponent -->
<g id="node1" class="node">
<title>AppComponent</title>
<polygon fill="#ffffb3" stroke="black" points="129.94,-122 24.06,-122 24.06,-86 129.94,-86 129.94,-122"/>
<text text-anchor="middle" x="77" y="-99.8" font-family="Times,serif" font-size="14.00">AppComponent</text>
</g>
<!-- AppModule -->
<g id="node2" class="node">
<title>AppModule</title>
<polygon fill="#8dd3c7" stroke="black" points="259.66,-190 256.66,-194 235.66,-194 232.66,-190 176.34,-190 176.34,-154 259.66,-154 259.66,-190"/>
<text text-anchor="middle" x="218" y="-167.8" font-family="Times,serif" font-size="14.00">AppModule</text>
</g>
<!-- AppComponent&#45;&gt;AppModule -->
<g id="edge1" class="edge">
<title>AppComponent&#45;&gt;AppModule</title>
<path fill="none" stroke="black" d="M77,-122.22C77,-142.37 77,-172 77,-172 77,-172 166.08,-172 166.08,-172"/>
<polygon fill="black" stroke="black" points="166.08,-175.5 176.08,-172 166.08,-168.5 166.08,-175.5"/>
</g>
<!-- AppComponent  -->
<g id="node5" class="node">
<title>AppComponent </title>
<polygon fill="#80b1d3" stroke="black" points="272.44,-258 163.56,-258 163.56,-222 272.44,-222 272.44,-258"/>
<text text-anchor="middle" x="218" y="-235.8" font-family="Times,serif" font-size="14.00">AppComponent </text>
</g>
<!-- AppModule&#45;&gt;AppComponent  -->
<g id="edge4" class="edge">
<title>AppModule&#45;&gt;AppComponent </title>
<path fill="none" stroke="black" stroke-dasharray="1,5" d="M218,-190.22C218,-190.22 218,-211.73 218,-211.73"/>
<polygon fill="black" stroke="black" points="214.5,-211.73 218,-221.73 221.5,-211.73 214.5,-211.73"/>
</g>
<!-- AppRoutingModule -->
<g id="node3" class="node">
<title>AppRoutingModule</title>
<polygon fill="#8dd3c7" stroke="black" points="282.27,-122 279.27,-126 258.27,-126 255.27,-122 153.73,-122 153.73,-86 282.27,-86 282.27,-122"/>
<text text-anchor="middle" x="218" y="-99.8" font-family="Times,serif" font-size="14.00">AppRoutingModule</text>
</g>
<!-- AppRoutingModule&#45;&gt;AppModule -->
<g id="edge2" class="edge">
<title>AppRoutingModule&#45;&gt;AppModule</title>
<path fill="none" stroke="black" d="M218,-122.22C218,-122.22 218,-143.73 218,-143.73"/>
<polygon fill="black" stroke="black" points="214.5,-143.73 218,-153.73 221.5,-143.73 214.5,-143.73"/>
</g>
<!-- SharedModule -->
<g id="node4" class="node">
<title>SharedModule</title>
<polygon fill="#8dd3c7" stroke="black" points="399.42,-122 396.42,-126 375.42,-126 372.42,-122 300.58,-122 300.58,-86 399.42,-86 399.42,-122"/>
<text text-anchor="middle" x="350" y="-99.8" font-family="Times,serif" font-size="14.00">SharedModule</text>
</g>
<!-- SharedModule&#45;&gt;AppModule -->
<g id="edge3" class="edge">
<title>SharedModule&#45;&gt;AppModule</title>
<path fill="none" stroke="black" d="M366.4,-122.29C366.4,-144.21 366.4,-178 366.4,-178 366.4,-178 269.73,-178 269.73,-178"/>
<polygon fill="black" stroke="black" points="269.73,-174.5 259.73,-178 269.73,-181.5 269.73,-174.5"/>
</g>
<!-- BlogModule -->
<g id="node8" class="node">
<title>BlogModule</title>
<polygon fill="#8dd3c7" stroke="black" points="4049.28,-190 4046.28,-194 4025.28,-194 4022.28,-190 3962.72,-190 3962.72,-154 4049.28,-154 4049.28,-190"/>
<text text-anchor="middle" x="4006" y="-167.8" font-family="Times,serif" font-size="14.00">BlogModule</text>
</g>
<!-- SharedModule&#45;&gt;BlogModule -->
<g id="edge8" class="edge">
<title>SharedModule&#45;&gt;BlogModule</title>
<path fill="none" stroke="black" d="M399.38,-88C823.91,-88 3842.85,-88 3842.85,-88 3842.85,-88 3842.85,-172 3842.85,-172 3842.85,-172 3952.71,-172 3952.71,-172"/>
<polygon fill="black" stroke="black" points="3952.71,-175.5 3962.71,-172 3952.71,-168.5 3952.71,-175.5"/>
</g>
<!-- HomeModule -->
<g id="node13" class="node">
<title>HomeModule</title>
<polygon fill="#8dd3c7" stroke="black" points="4625.76,-190 4622.76,-194 4601.76,-194 4598.76,-190 4532.24,-190 4532.24,-154 4625.76,-154 4625.76,-190"/>
<text text-anchor="middle" x="4579" y="-167.8" font-family="Times,serif" font-size="14.00">HomeModule</text>
</g>
<!-- SharedModule&#45;&gt;HomeModule -->
<g id="edge13" class="edge">
<title>SharedModule&#45;&gt;HomeModule</title>
<path fill="none" stroke="black" d="M317.19,-122.06C317.19,-133.44 317.19,-146 317.19,-146 317.19,-146 4563.37,-146 4563.37,-146 4563.37,-146 4563.37,-146.79 4563.37,-146.79"/>
<polygon fill="black" stroke="black" points="4559.87,-143.94 4563.37,-153.94 4566.87,-143.94 4559.87,-143.94"/>
</g>
<!-- AdsComponent  -->
<g id="node27" class="node">
<title>AdsComponent </title>
<polygon fill="#fb8072" stroke="black" points="708.88,-190 601.12,-190 601.12,-154 708.88,-154 708.88,-190"/>
<text text-anchor="middle" x="655" y="-167.8" font-family="Times,serif" font-size="14.00">AdsComponent </text>
</g>
<!-- SharedModule&#45;&gt;AdsComponent  -->
<g id="edge26" class="edge">
<title>SharedModule&#45;&gt;AdsComponent </title>
<path fill="none" stroke="black" stroke-dasharray="5,2" d="M399.34,-121C485.66,-121 655,-121 655,-121 655,-121 655,-143.88 655,-143.88"/>
<polygon fill="black" stroke="black" points="651.5,-143.88 655,-153.88 658.5,-143.88 651.5,-143.88"/>
</g>
<!-- AdsModalComponent  -->
<g id="node28" class="node">
<title>AdsModalComponent </title>
<polygon fill="#fb8072" stroke="black" points="582.93,-190 439.07,-190 439.07,-154 582.93,-154 582.93,-190"/>
<text text-anchor="middle" x="511" y="-167.8" font-family="Times,serif" font-size="14.00">AdsModalComponent </text>
</g>
<!-- SharedModule&#45;&gt;AdsModalComponent  -->
<g id="edge27" class="edge">
<title>SharedModule&#45;&gt;AdsModalComponent </title>
<path fill="none" stroke="black" stroke-dasharray="5,2" d="M382.81,-122.27C382.81,-140.56 382.81,-166 382.81,-166 382.81,-166 429.03,-166 429.03,-166"/>
<polygon fill="black" stroke="black" points="429.03,-169.5 439.03,-166 429.03,-162.5 429.03,-169.5"/>
</g>
<!-- AmazonAdsComponent  -->
<g id="node29" class="node">
<title>AmazonAdsComponent </title>
<polygon fill="#fb8072" stroke="black" points="2139.31,-190 1984.69,-190 1984.69,-154 2139.31,-154 2139.31,-190"/>
<text text-anchor="middle" x="2062" y="-167.8" font-family="Times,serif" font-size="14.00">AmazonAdsComponent </text>
</g>
<!-- SharedModule&#45;&gt;AmazonAdsComponent  -->
<g id="edge28" class="edge">
<title>SharedModule&#45;&gt;AmazonAdsComponent </title>
<path fill="none" stroke="black" stroke-dasharray="5,2" d="M399.39,-107C680.09,-107 2062,-107 2062,-107 2062,-107 2062,-143.89 2062,-143.89"/>
<polygon fill="black" stroke="black" points="2058.5,-143.89 2062,-153.89 2065.5,-143.89 2058.5,-143.89"/>
</g>
<!-- LazyImgComponent  -->
<g id="node30" class="node">
<title>LazyImgComponent </title>
<polygon fill="#fb8072" stroke="black" points="1966.87,-190 1831.13,-190 1831.13,-154 1966.87,-154 1966.87,-190"/>
<text text-anchor="middle" x="1899" y="-167.8" font-family="Times,serif" font-size="14.00">LazyImgComponent </text>
</g>
<!-- SharedModule&#45;&gt;LazyImgComponent  -->
<g id="edge29" class="edge">
<title>SharedModule&#45;&gt;LazyImgComponent </title>
<path fill="none" stroke="black" stroke-dasharray="5,2" d="M399.35,-108C663.57,-108 1899,-108 1899,-108 1899,-108 1899,-143.83 1899,-143.83"/>
<polygon fill="black" stroke="black" points="1895.5,-143.83 1899,-153.83 1902.5,-143.83 1895.5,-143.83"/>
</g>
<!-- LoadingComponent  -->
<g id="node31" class="node">
<title>LoadingComponent </title>
<polygon fill="#fb8072" stroke="black" points="1813.99,-190 1682.01,-190 1682.01,-154 1813.99,-154 1813.99,-190"/>
<text text-anchor="middle" x="1748" y="-167.8" font-family="Times,serif" font-size="14.00">LoadingComponent </text>
</g>
<!-- SharedModule&#45;&gt;LoadingComponent  -->
<g id="edge30" class="edge">
<title>SharedModule&#45;&gt;LoadingComponent </title>
<path fill="none" stroke="black" stroke-dasharray="5,2" d="M399.34,-110C647.58,-110 1748,-110 1748,-110 1748,-110 1748,-143.73 1748,-143.73"/>
<polygon fill="black" stroke="black" points="1744.5,-143.73 1748,-153.73 1751.5,-143.73 1744.5,-143.73"/>
</g>
<!-- MdescapePipe  -->
<g id="node32" class="node">
<title>MdescapePipe </title>
<polygon fill="#fb8072" stroke="black" points="1664.64,-190 1563.36,-190 1563.36,-154 1664.64,-154 1664.64,-190"/>
<text text-anchor="middle" x="1614" y="-167.8" font-family="Times,serif" font-size="14.00">MdescapePipe </text>
</g>
<!-- SharedModule&#45;&gt;MdescapePipe  -->
<g id="edge31" class="edge">
<title>SharedModule&#45;&gt;MdescapePipe </title>
<path fill="none" stroke="black" stroke-dasharray="5,2" d="M399.55,-111C633.25,-111 1614,-111 1614,-111 1614,-111 1614,-143.7 1614,-143.7"/>
<polygon fill="black" stroke="black" points="1610.5,-143.7 1614,-153.7 1617.5,-143.7 1610.5,-143.7"/>
</g>
<!-- MessageComponent  -->
<g id="node33" class="node">
<title>MessageComponent </title>
<polygon fill="#fb8072" stroke="black" points="1545.81,-190 1412.19,-190 1412.19,-154 1545.81,-154 1545.81,-190"/>
<text text-anchor="middle" x="1479" y="-167.8" font-family="Times,serif" font-size="14.00">MessageComponent </text>
</g>
<!-- SharedModule&#45;&gt;MessageComponent  -->
<g id="edge32" class="edge">
<title>SharedModule&#45;&gt;MessageComponent </title>
<path fill="none" stroke="black" stroke-dasharray="5,2" d="M399.24,-112C616.54,-112 1479,-112 1479,-112 1479,-112 1479,-144 1479,-144"/>
<polygon fill="black" stroke="black" points="1475.5,-144 1479,-154 1482.5,-144 1475.5,-144"/>
</g>
<!-- NavComponent  -->
<g id="node34" class="node">
<title>NavComponent </title>
<polygon fill="#fb8072" stroke="black" points="1394.15,-190 1285.85,-190 1285.85,-154 1394.15,-154 1394.15,-190"/>
<text text-anchor="middle" x="1340" y="-167.8" font-family="Times,serif" font-size="14.00">NavComponent </text>
</g>
<!-- SharedModule&#45;&gt;NavComponent  -->
<g id="edge33" class="edge">
<title>SharedModule&#45;&gt;NavComponent </title>
<path fill="none" stroke="black" stroke-dasharray="5,2" d="M399.43,-114C599.69,-114 1340,-114 1340,-114 1340,-114 1340,-143.97 1340,-143.97"/>
<polygon fill="black" stroke="black" points="1336.5,-143.97 1340,-153.97 1343.5,-143.97 1336.5,-143.97"/>
</g>
<!-- NewsbarComponent  -->
<g id="node35" class="node">
<title>NewsbarComponent </title>
<polygon fill="#fb8072" stroke="black" points="1268.08,-190 1133.92,-190 1133.92,-154 1268.08,-154 1268.08,-190"/>
<text text-anchor="middle" x="1201" y="-167.8" font-family="Times,serif" font-size="14.00">NewsbarComponent </text>
</g>
<!-- SharedModule&#45;&gt;NewsbarComponent  -->
<g id="edge34" class="edge">
<title>SharedModule&#45;&gt;NewsbarComponent </title>
<path fill="none" stroke="black" stroke-dasharray="5,2" d="M399.43,-115C581.06,-115 1201,-115 1201,-115 1201,-115 1201,-143.96 1201,-143.96"/>
<polygon fill="black" stroke="black" points="1197.5,-143.96 1201,-153.96 1204.5,-143.96 1197.5,-143.96"/>
</g>
<!-- NotFoundComponent  -->
<g id="node36" class="node">
<title>NotFoundComponent </title>
<polygon fill="#fb8072" stroke="black" points="1115.61,-190 974.39,-190 974.39,-154 1115.61,-154 1115.61,-190"/>
<text text-anchor="middle" x="1045" y="-167.8" font-family="Times,serif" font-size="14.00">NotFoundComponent </text>
</g>
<!-- SharedModule&#45;&gt;NotFoundComponent  -->
<g id="edge35" class="edge">
<title>SharedModule&#45;&gt;NotFoundComponent </title>
<path fill="none" stroke="black" stroke-dasharray="5,2" d="M399.43,-117C558.2,-117 1045,-117 1045,-117 1045,-117 1045,-143.99 1045,-143.99"/>
<polygon fill="black" stroke="black" points="1041.5,-143.99 1045,-153.99 1048.5,-143.99 1041.5,-143.99"/>
</g>
<!-- TweetBtnComponent  -->
<g id="node37" class="node">
<title>TweetBtnComponent </title>
<polygon fill="#fb8072" stroke="black" points="956.04,-190 815.96,-190 815.96,-154 956.04,-154 956.04,-190"/>
<text text-anchor="middle" x="886" y="-167.8" font-family="Times,serif" font-size="14.00">TweetBtnComponent </text>
</g>
<!-- SharedModule&#45;&gt;TweetBtnComponent  -->
<g id="edge36" class="edge">
<title>SharedModule&#45;&gt;TweetBtnComponent </title>
<path fill="none" stroke="black" stroke-dasharray="5,2" d="M399.46,-118C532.16,-118 886,-118 886,-118 886,-118 886,-143.72 886,-143.72"/>
<polygon fill="black" stroke="black" points="882.5,-143.72 886,-153.72 889.5,-143.72 882.5,-143.72"/>
</g>
<!-- YearPipe  -->
<g id="node38" class="node">
<title>YearPipe </title>
<polygon fill="#fb8072" stroke="black" points="797.59,-190 726.41,-190 726.41,-154 797.59,-154 797.59,-190"/>
<text text-anchor="middle" x="762" y="-167.8" font-family="Times,serif" font-size="14.00">YearPipe </text>
</g>
<!-- SharedModule&#45;&gt;YearPipe  -->
<g id="edge37" class="edge">
<title>SharedModule&#45;&gt;YearPipe </title>
<path fill="none" stroke="black" stroke-dasharray="5,2" d="M399.29,-120C508.65,-120 762,-120 762,-120 762,-120 762,-143.81 762,-143.81"/>
<polygon fill="black" stroke="black" points="758.5,-143.81 762,-153.81 765.5,-143.81 758.5,-143.81"/>
</g>
<!-- SnippetModule -->
<g id="node40" class="node">
<title>SnippetModule</title>
<polygon fill="#8dd3c7" stroke="black" points="5074.33,-190 5071.33,-194 5050.33,-194 5047.33,-190 4971.67,-190 4971.67,-154 5074.33,-154 5074.33,-190"/>
<text text-anchor="middle" x="5023" y="-167.8" font-family="Times,serif" font-size="14.00">SnippetModule</text>
</g>
<!-- SharedModule&#45;&gt;SnippetModule -->
<g id="edge39" class="edge">
<title>SharedModule&#45;&gt;SnippetModule</title>
<path fill="none" stroke="black" d="M333.6,-122.19C333.6,-130.28 333.6,-138 333.6,-138 333.6,-138 5005.95,-138 5005.95,-138 5005.95,-138 5005.95,-143.81 5005.95,-143.81"/>
<polygon fill="black" stroke="black" points="5002.45,-143.81 5005.95,-153.81 5009.45,-143.81 5002.45,-143.81"/>
</g>
<!-- ToolsModule -->
<g id="node53" class="node">
<title>ToolsModule</title>
<polygon fill="#8dd3c7" stroke="black" points="6200.94,-190 6197.94,-194 6176.94,-194 6173.94,-190 6109.06,-190 6109.06,-154 6200.94,-154 6200.94,-190"/>
<text text-anchor="middle" x="6155" y="-167.8" font-family="Times,serif" font-size="14.00">ToolsModule</text>
</g>
<!-- SharedModule&#45;&gt;ToolsModule -->
<g id="edge52" class="edge">
<title>SharedModule&#45;&gt;ToolsModule</title>
<path fill="none" stroke="black" d="M350,-122.06C350,-126.49 350,-130 350,-130 350,-130 6139.76,-130 6139.76,-130 6139.76,-130 6139.76,-143.94 6139.76,-143.94"/>
<polygon fill="black" stroke="black" points="6136.26,-143.94 6139.76,-153.94 6143.26,-143.94 6136.26,-143.94"/>
</g>
<!-- BlogDetailComponent -->
<g id="node6" class="node">
<title>BlogDetailComponent</title>
<polygon fill="#ffffb3" stroke="black" points="4310.27,-122 4167.73,-122 4167.73,-86 4310.27,-86 4310.27,-122"/>
<text text-anchor="middle" x="4239" y="-99.8" font-family="Times,serif" font-size="14.00">BlogDetailComponent</text>
</g>
<!-- BlogDetailComponent&#45;&gt;BlogModule -->
<g id="edge5" class="edge">
<title>BlogDetailComponent&#45;&gt;BlogModule</title>
<path fill="none" stroke="black" d="M4239,-122.27C4239,-140.56 4239,-166 4239,-166 4239,-166 4059.28,-166 4059.28,-166"/>
<polygon fill="black" stroke="black" points="4059.28,-162.5 4049.28,-166 4059.28,-169.5 4059.28,-162.5"/>
</g>
<!-- BlogListComponent -->
<g id="node7" class="node">
<title>BlogListComponent</title>
<polygon fill="#ffffb3" stroke="black" points="4149.34,-122 4018.66,-122 4018.66,-86 4149.34,-86 4149.34,-122"/>
<text text-anchor="middle" x="4084" y="-99.8" font-family="Times,serif" font-size="14.00">BlogListComponent</text>
</g>
<!-- BlogListComponent&#45;&gt;BlogModule -->
<g id="edge6" class="edge">
<title>BlogListComponent&#45;&gt;BlogModule</title>
<path fill="none" stroke="black" d="M4034.11,-122.22C4034.11,-122.22 4034.11,-143.73 4034.11,-143.73"/>
<polygon fill="black" stroke="black" points="4030.61,-143.73 4034.11,-153.73 4037.61,-143.73 4030.61,-143.73"/>
</g>
<!-- BlogRoutingModule -->
<g id="node9" class="node">
<title>BlogRoutingModule</title>
<polygon fill="#8dd3c7" stroke="black" points="3994.89,-122 3991.89,-126 3970.89,-126 3967.89,-122 3863.11,-122 3863.11,-86 3994.89,-86 3994.89,-122"/>
<text text-anchor="middle" x="3929" y="-99.8" font-family="Times,serif" font-size="14.00">BlogRoutingModule</text>
</g>
<!-- BlogRoutingModule&#45;&gt;BlogModule -->
<g id="edge7" class="edge">
<title>BlogRoutingModule&#45;&gt;BlogModule</title>
<path fill="none" stroke="black" d="M3978.78,-122.22C3978.78,-122.22 3978.78,-143.73 3978.78,-143.73"/>
<polygon fill="black" stroke="black" points="3975.28,-143.73 3978.78,-153.73 3982.28,-143.73 3975.28,-143.73"/>
</g>
<!-- IndexComponent -->
<g id="node10" class="node">
<title>IndexComponent</title>
<polygon fill="#ffffb3" stroke="black" points="4908.71,-122 4795.29,-122 4795.29,-86 4908.71,-86 4908.71,-122"/>
<text text-anchor="middle" x="4852" y="-99.8" font-family="Times,serif" font-size="14.00">IndexComponent</text>
</g>
<!-- IndexComponent&#45;&gt;HomeModule -->
<g id="edge9" class="edge">
<title>IndexComponent&#45;&gt;HomeModule</title>
<path fill="none" stroke="black" d="M4852,-122.29C4852,-144.21 4852,-178 4852,-178 4852,-178 4635.93,-178 4635.93,-178"/>
<polygon fill="black" stroke="black" points="4635.93,-174.5 4625.93,-178 4635.93,-181.5 4635.93,-174.5"/>
</g>
<!-- NewsComponent -->
<g id="node11" class="node">
<title>NewsComponent</title>
<polygon fill="#ffffb3" stroke="black" points="4777.7,-122 4664.3,-122 4664.3,-86 4777.7,-86 4777.7,-122"/>
<text text-anchor="middle" x="4721" y="-99.8" font-family="Times,serif" font-size="14.00">NewsComponent</text>
</g>
<!-- NewsComponent&#45;&gt;HomeModule -->
<g id="edge10" class="edge">
<title>NewsComponent&#45;&gt;HomeModule</title>
<path fill="none" stroke="black" d="M4721,-122.27C4721,-140.56 4721,-166 4721,-166 4721,-166 4635.89,-166 4635.89,-166"/>
<polygon fill="black" stroke="black" points="4635.89,-162.5 4625.89,-166 4635.89,-169.5 4635.89,-162.5"/>
</g>
<!-- ToolsListComponent -->
<g id="node12" class="node">
<title>ToolsListComponent</title>
<polygon fill="#ffffb3" stroke="black" points="4646.5,-122 4511.5,-122 4511.5,-86 4646.5,-86 4646.5,-122"/>
<text text-anchor="middle" x="4579" y="-99.8" font-family="Times,serif" font-size="14.00">ToolsListComponent</text>
</g>
<!-- ToolsListComponent&#45;&gt;HomeModule -->
<g id="edge11" class="edge">
<title>ToolsListComponent&#45;&gt;HomeModule</title>
<path fill="none" stroke="black" d="M4594.63,-122.22C4594.63,-122.22 4594.63,-143.73 4594.63,-143.73"/>
<polygon fill="black" stroke="black" points="4591.13,-143.73 4594.63,-153.73 4598.13,-143.73 4591.13,-143.73"/>
</g>
<!-- HomeRoutingModule -->
<g id="node14" class="node">
<title>HomeRoutingModule</title>
<polygon fill="#8dd3c7" stroke="black" points="4488.38,-122 4485.38,-126 4464.38,-126 4461.38,-122 4349.62,-122 4349.62,-86 4488.38,-86 4488.38,-122"/>
<text text-anchor="middle" x="4419" y="-99.8" font-family="Times,serif" font-size="14.00">HomeRoutingModule</text>
</g>
<!-- HomeRoutingModule&#45;&gt;HomeModule -->
<g id="edge12" class="edge">
<title>HomeRoutingModule&#45;&gt;HomeModule</title>
<path fill="none" stroke="black" d="M4419,-122.29C4419,-144.21 4419,-178 4419,-178 4419,-178 4521.86,-178 4521.86,-178"/>
<polygon fill="black" stroke="black" points="4521.86,-181.5 4531.86,-178 4521.86,-174.5 4521.86,-181.5"/>
</g>
<!-- AdsComponent -->
<g id="node15" class="node">
<title>AdsComponent</title>
<polygon fill="#ffffb3" stroke="black" points="2424.88,-190 2321.12,-190 2321.12,-154 2424.88,-154 2424.88,-190"/>
<text text-anchor="middle" x="2373" y="-167.8" font-family="Times,serif" font-size="14.00">AdsComponent</text>
</g>
<!-- AdsComponent&#45;&gt;SharedModule -->
<g id="edge14" class="edge">
<title>AdsComponent&#45;&gt;SharedModule</title>
<path fill="none" stroke="black" d="M2373,-153.78C2373,-133.63 2373,-104 2373,-104 2373,-104 409.25,-104 409.25,-104"/>
<polygon fill="black" stroke="black" points="409.25,-100.5 399.25,-104 409.25,-107.5 409.25,-100.5"/>
</g>
<!-- AdsModalComponent -->
<g id="node16" class="node">
<title>AdsModalComponent</title>
<polygon fill="#ffffb3" stroke="black" points="2303.43,-190 2162.57,-190 2162.57,-154 2303.43,-154 2303.43,-190"/>
<text text-anchor="middle" x="2233" y="-167.8" font-family="Times,serif" font-size="14.00">AdsModalComponent</text>
</g>
<!-- AdsModalComponent&#45;&gt;SharedModule -->
<g id="edge15" class="edge">
<title>AdsModalComponent&#45;&gt;SharedModule</title>
<path fill="none" stroke="black" d="M2233,-153.69C2233,-133.85 2233,-105 2233,-105 2233,-105 409.4,-105 409.4,-105"/>
<polygon fill="black" stroke="black" points="409.4,-101.5 399.4,-105 409.4,-108.5 409.4,-101.5"/>
</g>
<!-- AmazonAdsComponent -->
<g id="node17" class="node">
<title>AmazonAdsComponent</title>
<polygon fill="#ffffb3" stroke="black" points="3822.81,-190 3671.19,-190 3671.19,-154 3822.81,-154 3822.81,-190"/>
<text text-anchor="middle" x="3747" y="-167.8" font-family="Times,serif" font-size="14.00">AmazonAdsComponent</text>
</g>
<!-- AmazonAdsComponent&#45;&gt;SharedModule -->
<g id="edge16" class="edge">
<title>AmazonAdsComponent&#45;&gt;SharedModule</title>
<path fill="none" stroke="black" d="M3747,-153.99C3747,-129.58 3747,-89 3747,-89 3747,-89 409.33,-89 409.33,-89"/>
<polygon fill="black" stroke="black" points="409.33,-85.5 399.33,-89 409.33,-92.5 409.33,-85.5"/>
</g>
<!-- LazyImgComponent -->
<g id="node18" class="node">
<title>LazyImgComponent</title>
<polygon fill="#ffffb3" stroke="black" points="3652.87,-190 3521.13,-190 3521.13,-154 3652.87,-154 3652.87,-190"/>
<text text-anchor="middle" x="3587" y="-167.8" font-family="Times,serif" font-size="14.00">LazyImgComponent</text>
</g>
<!-- LazyImgComponent&#45;&gt;SharedModule -->
<g id="edge17" class="edge">
<title>LazyImgComponent&#45;&gt;SharedModule</title>
<path fill="none" stroke="black" d="M3587,-153.62C3587,-129.72 3587,-91 3587,-91 3587,-91 409.23,-91 409.23,-91"/>
<polygon fill="black" stroke="black" points="409.23,-87.5 399.23,-91 409.23,-94.5 409.23,-87.5"/>
</g>
<!-- LoadingComponent -->
<g id="node19" class="node">
<title>LoadingComponent</title>
<polygon fill="#ffffb3" stroke="black" points="3502.99,-190 3375.01,-190 3375.01,-154 3502.99,-154 3502.99,-190"/>
<text text-anchor="middle" x="3439" y="-167.8" font-family="Times,serif" font-size="14.00">LoadingComponent</text>
</g>
<!-- LoadingComponent&#45;&gt;SharedModule -->
<g id="edge18" class="edge">
<title>LoadingComponent&#45;&gt;SharedModule</title>
<path fill="none" stroke="black" d="M3439,-153.85C3439,-130.24 3439,-92 3439,-92 3439,-92 409.46,-92 409.46,-92"/>
<polygon fill="black" stroke="black" points="409.46,-88.5 399.46,-92 409.46,-95.5 409.46,-88.5"/>
</g>
<!-- MdescapePipe -->
<g id="node20" class="node">
<title>MdescapePipe</title>
<polygon fill="#ffffb3" stroke="black" points="3356.64,-190 3259.36,-190 3259.36,-154 3356.64,-154 3356.64,-190"/>
<text text-anchor="middle" x="3308" y="-167.8" font-family="Times,serif" font-size="14.00">MdescapePipe</text>
</g>
<!-- MdescapePipe&#45;&gt;SharedModule -->
<g id="edge19" class="edge">
<title>MdescapePipe&#45;&gt;SharedModule</title>
<path fill="none" stroke="black" d="M3308,-153.91C3308,-130.87 3308,-94 3308,-94 3308,-94 409.49,-94 409.49,-94"/>
<polygon fill="black" stroke="black" points="409.49,-90.5 399.49,-94 409.49,-97.5 409.49,-90.5"/>
</g>
<!-- MessageComponent -->
<g id="node21" class="node">
<title>MessageComponent</title>
<polygon fill="#ffffb3" stroke="black" points="3241.31,-190 3110.69,-190 3110.69,-154 3241.31,-154 3241.31,-190"/>
<text text-anchor="middle" x="3176" y="-167.8" font-family="Times,serif" font-size="14.00">MessageComponent</text>
</g>
<!-- MessageComponent&#45;&gt;SharedModule -->
<g id="edge20" class="edge">
<title>MessageComponent&#45;&gt;SharedModule</title>
<path fill="none" stroke="black" d="M3176,-153.75C3176,-130.98 3176,-95 3176,-95 3176,-95 409.35,-95 409.35,-95"/>
<polygon fill="black" stroke="black" points="409.35,-91.5 399.35,-95 409.35,-98.5 409.35,-91.5"/>
</g>
<!-- NavComponent -->
<g id="node22" class="node">
<title>NavComponent</title>
<polygon fill="#ffffb3" stroke="black" points="3093.15,-190 2988.85,-190 2988.85,-154 3093.15,-154 3093.15,-190"/>
<text text-anchor="middle" x="3041" y="-167.8" font-family="Times,serif" font-size="14.00">NavComponent</text>
</g>
<!-- NavComponent&#45;&gt;SharedModule -->
<g id="edge21" class="edge">
<title>NavComponent&#45;&gt;SharedModule</title>
<path fill="none" stroke="black" d="M3041,-153.84C3041,-131.65 3041,-97 3041,-97 3041,-97 409.3,-97 409.3,-97"/>
<polygon fill="black" stroke="black" points="409.3,-93.5 399.3,-97 409.3,-100.5 409.3,-93.5"/>
</g>
<!-- NewsbarComponent -->
<g id="node23" class="node">
<title>NewsbarComponent</title>
<polygon fill="#ffffb3" stroke="black" points="2970.58,-190 2839.42,-190 2839.42,-154 2970.58,-154 2970.58,-190"/>
<text text-anchor="middle" x="2905" y="-167.8" font-family="Times,serif" font-size="14.00">NewsbarComponent</text>
</g>
<!-- NewsbarComponent&#45;&gt;SharedModule -->
<g id="edge22" class="edge">
<title>NewsbarComponent&#45;&gt;SharedModule</title>
<path fill="none" stroke="black" d="M2905,-153.71C2905,-131.79 2905,-98 2905,-98 2905,-98 409.32,-98 409.32,-98"/>
<polygon fill="black" stroke="black" points="409.32,-94.5 399.32,-98 409.32,-101.5 409.32,-94.5"/>
</g>
<!-- NotFoundComponent -->
<g id="node24" class="node">
<title>NotFoundComponent</title>
<polygon fill="#ffffb3" stroke="black" points="2821.11,-190 2682.89,-190 2682.89,-154 2821.11,-154 2821.11,-190"/>
<text text-anchor="middle" x="2752" y="-167.8" font-family="Times,serif" font-size="14.00">NotFoundComponent</text>
</g>
<!-- NotFoundComponent&#45;&gt;SharedModule -->
<g id="edge23" class="edge">
<title>NotFoundComponent&#45;&gt;SharedModule</title>
<path fill="none" stroke="black" d="M2752,-153.96C2752,-132.34 2752,-99 2752,-99 2752,-99 409.34,-99 409.34,-99"/>
<polygon fill="black" stroke="black" points="409.34,-95.5 399.34,-99 409.34,-102.5 409.34,-95.5"/>
</g>
<!-- TweetBtnComponent -->
<g id="node25" class="node">
<title>TweetBtnComponent</title>
<polygon fill="#ffffb3" stroke="black" points="2665.04,-190 2528.96,-190 2528.96,-154 2665.04,-154 2665.04,-190"/>
<text text-anchor="middle" x="2597" y="-167.8" font-family="Times,serif" font-size="14.00">TweetBtnComponent</text>
</g>
<!-- TweetBtnComponent&#45;&gt;SharedModule -->
<g id="edge24" class="edge">
<title>TweetBtnComponent&#45;&gt;SharedModule</title>
<path fill="none" stroke="black" d="M2597,-153.72C2597,-132.68 2597,-101 2597,-101 2597,-101 409.29,-101 409.29,-101"/>
<polygon fill="black" stroke="black" points="409.29,-97.5 399.29,-101 409.29,-104.5 409.29,-97.5"/>
</g>
<!-- YearPipe -->
<g id="node26" class="node">
<title>YearPipe</title>
<polygon fill="#ffffb3" stroke="black" points="2511.08,-190 2442.92,-190 2442.92,-154 2511.08,-154 2511.08,-190"/>
<text text-anchor="middle" x="2477" y="-167.8" font-family="Times,serif" font-size="14.00">YearPipe</text>
</g>
<!-- YearPipe&#45;&gt;SharedModule -->
<g id="edge25" class="edge">
<title>YearPipe&#45;&gt;SharedModule</title>
<path fill="none" stroke="black" d="M2477,-153.97C2477,-133.23 2477,-102 2477,-102 2477,-102 409.45,-102 409.45,-102"/>
<polygon fill="black" stroke="black" points="409.45,-98.5 399.45,-102 409.45,-105.5 409.45,-98.5"/>
</g>
<!-- SnippetListComponent -->
<g id="node39" class="node">
<title>SnippetListComponent</title>
<polygon fill="#ffffb3" stroke="black" points="5266.89,-122 5121.11,-122 5121.11,-86 5266.89,-86 5266.89,-122"/>
<text text-anchor="middle" x="5194" y="-99.8" font-family="Times,serif" font-size="14.00">SnippetListComponent</text>
</g>
<!-- SnippetListComponent&#45;&gt;SnippetModule -->
<g id="edge38" class="edge">
<title>SnippetListComponent&#45;&gt;SnippetModule</title>
<path fill="none" stroke="black" d="M5194,-122.03C5194,-138.4 5194,-160 5194,-160 5194,-160 5084.31,-160 5084.31,-160"/>
<polygon fill="black" stroke="black" points="5084.31,-156.5 5074.31,-160 5084.31,-163.5 5084.31,-156.5"/>
</g>
<!-- SnippetRoutingModule -->
<g id="node41" class="node">
<title>SnippetRoutingModule</title>
<polygon fill="#8dd3c7" stroke="black" points="5096.95,-122 5093.95,-126 5072.95,-126 5069.95,-122 4949.05,-122 4949.05,-86 5096.95,-86 5096.95,-122"/>
<text text-anchor="middle" x="5023" y="-99.8" font-family="Times,serif" font-size="14.00">SnippetRoutingModule</text>
</g>
<!-- SnippetRoutingModule&#45;&gt;SnippetModule -->
<g id="edge40" class="edge">
<title>SnippetRoutingModule&#45;&gt;SnippetModule</title>
<path fill="none" stroke="black" d="M5040.05,-122.22C5040.05,-122.22 5040.05,-143.73 5040.05,-143.73"/>
<polygon fill="black" stroke="black" points="5036.55,-143.73 5040.05,-153.73 5043.55,-143.73 5036.55,-143.73"/>
</g>
<!-- Base64Component -->
<g id="node42" class="node">
<title>Base64Component</title>
<polygon fill="#ffffb3" stroke="black" points="6516.04,-122 6393.96,-122 6393.96,-86 6516.04,-86 6516.04,-122"/>
<text text-anchor="middle" x="6455" y="-99.8" font-family="Times,serif" font-size="14.00">Base64Component</text>
</g>
<!-- Base64Component&#45;&gt;ToolsModule -->
<g id="edge41" class="edge">
<title>Base64Component&#45;&gt;ToolsModule</title>
<path fill="none" stroke="black" d="M6455,-122.3C6455,-140.27 6455,-165 6455,-165 6455,-165 6210.89,-165 6210.89,-165"/>
<polygon fill="black" stroke="black" points="6210.89,-161.5 6200.89,-165 6210.89,-168.5 6210.89,-161.5"/>
</g>
<!-- FxCalcComponent -->
<g id="node43" class="node">
<title>FxCalcComponent</title>
<polygon fill="#ffffb3" stroke="black" points="6375.77,-122 6254.23,-122 6254.23,-86 6375.77,-86 6375.77,-122"/>
<text text-anchor="middle" x="6315" y="-99.8" font-family="Times,serif" font-size="14.00">FxCalcComponent</text>
</g>
<!-- FxCalcComponent&#45;&gt;ToolsModule -->
<g id="edge42" class="edge">
<title>FxCalcComponent&#45;&gt;ToolsModule</title>
<path fill="none" stroke="black" d="M6315,-122.03C6315,-138.4 6315,-160 6315,-160 6315,-160 6210.85,-160 6210.85,-160"/>
<polygon fill="black" stroke="black" points="6210.85,-156.5 6200.85,-160 6210.85,-163.5 6210.85,-156.5"/>
</g>
<!-- JsonFormatterComponent -->
<g id="node44" class="node">
<title>JsonFormatterComponent</title>
<polygon fill="#ffffb3" stroke="black" points="6235.93,-122 6074.07,-122 6074.07,-86 6235.93,-86 6235.93,-122"/>
<text text-anchor="middle" x="6155" y="-99.8" font-family="Times,serif" font-size="14.00">JsonFormatterComponent</text>
</g>
<!-- JsonFormatterComponent&#45;&gt;ToolsModule -->
<g id="edge43" class="edge">
<title>JsonFormatterComponent&#45;&gt;ToolsModule</title>
<path fill="none" stroke="black" d="M6170.24,-122.22C6170.24,-122.22 6170.24,-143.73 6170.24,-143.73"/>
<polygon fill="black" stroke="black" points="6166.74,-143.73 6170.24,-153.73 6173.74,-143.73 6166.74,-143.73"/>
</g>
<!-- JsonTyperComponent -->
<g id="node45" class="node">
<title>JsonTyperComponent</title>
<polygon fill="#ffffb3" stroke="black" points="6055.65,-122 5916.35,-122 5916.35,-86 6055.65,-86 6055.65,-122"/>
<text text-anchor="middle" x="5986" y="-99.8" font-family="Times,serif" font-size="14.00">JsonTyperComponent</text>
</g>
<!-- JsonTyperComponent&#45;&gt;ToolsModule -->
<g id="edge44" class="edge">
<title>JsonTyperComponent&#45;&gt;ToolsModule</title>
<path fill="none" stroke="black" d="M5986,-122.3C5986,-140.27 5986,-165 5986,-165 5986,-165 6099.27,-165 6099.27,-165"/>
<polygon fill="black" stroke="black" points="6099.27,-168.5 6109.27,-165 6099.27,-161.5 6099.27,-168.5"/>
</g>
<!-- MdwriterComponent -->
<g id="node46" class="node">
<title>MdwriterComponent</title>
<polygon fill="#ffffb3" stroke="black" points="5898.2,-122 5763.8,-122 5763.8,-86 5898.2,-86 5898.2,-122"/>
<text text-anchor="middle" x="5831" y="-99.8" font-family="Times,serif" font-size="14.00">MdwriterComponent</text>
</g>
<!-- MdwriterComponent&#45;&gt;ToolsModule -->
<g id="edge45" class="edge">
<title>MdwriterComponent&#45;&gt;ToolsModule</title>
<path fill="none" stroke="black" d="M5831,-122.03C5831,-141.58 5831,-170 5831,-170 5831,-170 6099.27,-170 6099.27,-170"/>
<polygon fill="black" stroke="black" points="6099.27,-173.5 6109.27,-170 6099.27,-166.5 6099.27,-173.5"/>
</g>
<!-- MermaidComponent -->
<g id="node47" class="node">
<title>MermaidComponent</title>
<polygon fill="#ffffb3" stroke="black" points="5746.15,-122 5613.85,-122 5613.85,-86 5746.15,-86 5746.15,-122"/>
<text text-anchor="middle" x="5680" y="-99.8" font-family="Times,serif" font-size="14.00">MermaidComponent</text>
</g>
<!-- MermaidComponent&#45;&gt;ToolsModule -->
<g id="edge46" class="edge">
<title>MermaidComponent&#45;&gt;ToolsModule</title>
<path fill="none" stroke="black" d="M5680,-122.28C5680,-143.32 5680,-175 5680,-175 5680,-175 6099.02,-175 6099.02,-175"/>
<polygon fill="black" stroke="black" points="6099.02,-178.5 6109.02,-175 6099.02,-171.5 6099.02,-178.5"/>
</g>
<!-- OpenapiComponent -->
<g id="node48" class="node">
<title>OpenapiComponent</title>
<polygon fill="#ffffb3" stroke="black" points="5595.26,-122 5466.74,-122 5466.74,-86 5595.26,-86 5595.26,-122"/>
<text text-anchor="middle" x="5531" y="-99.8" font-family="Times,serif" font-size="14.00">OpenapiComponent</text>
</g>
<!-- OpenapiComponent&#45;&gt;ToolsModule -->
<g id="edge47" class="edge">
<title>OpenapiComponent&#45;&gt;ToolsModule</title>
<path fill="none" stroke="black" d="M5531,-122.01C5531,-144.49 5531,-180 5531,-180 5531,-180 6099.12,-180 6099.12,-180"/>
<polygon fill="black" stroke="black" points="6099.12,-183.5 6109.12,-180 6099.12,-176.5 6099.12,-183.5"/>
</g>
<!-- RealtimeComponent -->
<g id="node49" class="node">
<title>RealtimeComponent</title>
<polygon fill="#ffffb3" stroke="black" points="7111.88,-122 6980.12,-122 6980.12,-86 7111.88,-86 7111.88,-122"/>
<text text-anchor="middle" x="7046" y="-99.8" font-family="Times,serif" font-size="14.00">RealtimeComponent</text>
</g>
<!-- RealtimeComponent&#45;&gt;ToolsModule -->
<g id="edge48" class="edge">
<title>RealtimeComponent&#45;&gt;ToolsModule</title>
<path fill="none" stroke="black" d="M7046,-122.38C7046,-146.28 7046,-185 7046,-185 7046,-185 6211.03,-185 6211.03,-185"/>
<polygon fill="black" stroke="black" points="6211.03,-181.5 6201.03,-185 6211.03,-188.5 6211.03,-181.5"/>
</g>
<!-- RegexComponent -->
<g id="node50" class="node">
<title>RegexComponent</title>
<polygon fill="#ffffb3" stroke="black" points="6962.6,-122 6845.4,-122 6845.4,-86 6962.6,-86 6962.6,-122"/>
<text text-anchor="middle" x="6904" y="-99.8" font-family="Times,serif" font-size="14.00">RegexComponent</text>
</g>
<!-- RegexComponent&#45;&gt;ToolsModule -->
<g id="edge49" class="edge">
<title>RegexComponent&#45;&gt;ToolsModule</title>
<path fill="none" stroke="black" d="M6904,-122.01C6904,-144.49 6904,-180 6904,-180 6904,-180 6210.73,-180 6210.73,-180"/>
<polygon fill="black" stroke="black" points="6210.73,-176.5 6200.73,-180 6210.73,-183.5 6210.73,-176.5"/>
</g>
<!-- StarNoteComponent -->
<g id="node51" class="node">
<title>StarNoteComponent</title>
<polygon fill="#ffffb3" stroke="black" points="6827.59,-122 6696.41,-122 6696.41,-86 6827.59,-86 6827.59,-122"/>
<text text-anchor="middle" x="6762" y="-99.8" font-family="Times,serif" font-size="14.00">StarNoteComponent</text>
</g>
<!-- StarNoteComponent&#45;&gt;ToolsModule -->
<g id="edge50" class="edge">
<title>StarNoteComponent&#45;&gt;ToolsModule</title>
<path fill="none" stroke="black" d="M6762,-122.28C6762,-143.32 6762,-175 6762,-175 6762,-175 6210.87,-175 6210.87,-175"/>
<polygon fill="black" stroke="black" points="6210.87,-171.5 6200.87,-175 6210.87,-178.5 6210.87,-171.5"/>
</g>
<!-- YearCheckComponent -->
<g id="node52" class="node">
<title>YearCheckComponent</title>
<polygon fill="#ffffb3" stroke="black" points="6678.29,-122 6533.71,-122 6533.71,-86 6678.29,-86 6678.29,-122"/>
<text text-anchor="middle" x="6606" y="-99.8" font-family="Times,serif" font-size="14.00">YearCheckComponent</text>
</g>
<!-- YearCheckComponent&#45;&gt;ToolsModule -->
<g id="edge51" class="edge">
<title>YearCheckComponent&#45;&gt;ToolsModule</title>
<path fill="none" stroke="black" d="M6606,-122.03C6606,-141.58 6606,-170 6606,-170 6606,-170 6210.73,-170 6210.73,-170"/>
<polygon fill="black" stroke="black" points="6210.73,-166.5 6200.73,-170 6210.73,-173.5 6210.73,-166.5"/>
</g>
<!-- ToolsRoutingModule -->
<g id="node54" class="node">
<title>ToolsRoutingModule</title>
<polygon fill="#8dd3c7" stroke="black" points="5443.06,-122 5440.06,-126 5419.06,-126 5416.06,-122 5306.94,-122 5306.94,-86 5443.06,-86 5443.06,-122"/>
<text text-anchor="middle" x="5375" y="-99.8" font-family="Times,serif" font-size="14.00">ToolsRoutingModule</text>
</g>
<!-- ToolsRoutingModule&#45;&gt;ToolsModule -->
<g id="edge53" class="edge">
<title>ToolsRoutingModule&#45;&gt;ToolsModule</title>
<path fill="none" stroke="black" d="M5375,-122.38C5375,-146.28 5375,-185 5375,-185 5375,-185 6099.12,-185 6099.12,-185"/>
<polygon fill="black" stroke="black" points="6099.12,-188.5 6109.12,-185 6099.12,-181.5 6099.12,-188.5"/>
</g>
</g>
</svg>
