<?xml version="1.0" encoding="UTF-8" standalone="no"?>
<!DOCTYPE svg PUBLIC "-//W3C//DTD SVG 1.1//EN"
 "http://www.w3.org/Graphics/SVG/1.1/DTD/svg11.dtd">
<!-- Generated by graphviz version 2.47.3 (20210619.1520)
 -->
<!-- Title: dependencies Pages: 1 -->
<svg width="490pt" height="174pt"
 viewBox="0.00 0.00 490.00 173.80" xmlns="http://www.w3.org/2000/svg" xmlns:xlink="http://www.w3.org/1999/xlink">
<g id="graph0" class="graph" transform="scale(1 1) rotate(0) translate(4 169.8)">
<title>dependencies</title>
<polygon fill="white" stroke="transparent" points="-4,4 -4,-169.8 486,-169.8 486,4 -4,4"/>
<text text-anchor="middle" x="241" y="-8.2" font-family="sans-serif" font-size="14.00">dependencies</text>
<g id="clust1" class="cluster">
<title>cluster_LogModule</title>
<polygon fill="none" stroke="black" stroke-dasharray="1,5" points="8,-32.8 8,-157.8 474,-157.8 474,-32.8 8,-32.8"/>
</g>
<g id="clust2" class="cluster">
<title>cluster_LogModule_declarations</title>
<polygon fill="none" stroke="black" points="168,-40.8 168,-92.8 466,-92.8 466,-40.8 168,-40.8"/>
</g>
<g id="clust5" class="cluster">
<title>cluster_LogModule_imports</title>
<polygon fill="none" stroke="black" points="16,-40.8 16,-92.8 160,-92.8 160,-40.8 16,-40.8"/>
</g>
<!-- LogDetailComponent -->
<g id="node1" class="node">
<title>LogDetailComponent</title>
<polygon fill="#ffffb3" stroke="black" points="458.09,-84.8 319.91,-84.8 319.91,-48.8 458.09,-48.8 458.09,-84.8"/>
<text text-anchor="middle" x="389" y="-62.6" font-family="Times,serif" font-size="14.00">LogDetailComponent</text>
</g>
<!-- LogModule -->
<g id="node3" class="node">
<title>LogModule</title>
<polygon fill="#8dd3c7" stroke="black" points="280.1,-149.8 277.1,-153.8 256.1,-153.8 253.1,-149.8 197.9,-149.8 197.9,-113.8 280.1,-113.8 280.1,-149.8"/>
<text text-anchor="middle" x="239" y="-127.6" font-family="Times,serif" font-size="14.00">LogModule</text>
</g>
<!-- LogDetailComponent&#45;&gt;LogModule -->
<g id="edge1" class="edge">
<title>LogDetailComponent&#45;&gt;LogModule</title>
<path fill="none" stroke="black" d="M389,-84.91C389,-104.14 389,-131.8 389,-131.8 389,-131.8 290.39,-131.8 290.39,-131.8"/>
<polygon fill="black" stroke="black" points="290.39,-128.3 280.39,-131.8 290.39,-135.3 290.39,-128.3"/>
</g>
<!-- LogListComponent -->
<g id="node2" class="node">
<title>LogListComponent</title>
<polygon fill="#ffffb3" stroke="black" points="301.66,-84.8 176.34,-84.8 176.34,-48.8 301.66,-48.8 301.66,-84.8"/>
<text text-anchor="middle" x="239" y="-62.6" font-family="Times,serif" font-size="14.00">LogListComponent</text>
</g>
<!-- LogListComponent&#45;&gt;LogModule -->
<g id="edge2" class="edge">
<title>LogListComponent&#45;&gt;LogModule</title>
<path fill="none" stroke="black" d="M239,-84.91C239,-84.91 239,-103.79 239,-103.79"/>
<polygon fill="black" stroke="black" points="235.5,-103.79 239,-113.79 242.5,-103.79 235.5,-103.79"/>
</g>
<!-- LogRoutingModule -->
<g id="node4" class="node">
<title>LogRoutingModule</title>
<polygon fill="#8dd3c7" stroke="black" points="151.72,-84.8 148.72,-88.8 127.72,-88.8 124.72,-84.8 24.28,-84.8 24.28,-48.8 151.72,-48.8 151.72,-84.8"/>
<text text-anchor="middle" x="88" y="-62.6" font-family="Times,serif" font-size="14.00">LogRoutingModule</text>
</g>
<!-- LogRoutingModule&#45;&gt;LogModule -->
<g id="edge3" class="edge">
<title>LogRoutingModule&#45;&gt;LogModule</title>
<path fill="none" stroke="black" d="M88,-84.91C88,-104.14 88,-131.8 88,-131.8 88,-131.8 187.74,-131.8 187.74,-131.8"/>
<polygon fill="black" stroke="black" points="187.74,-135.3 197.74,-131.8 187.74,-128.3 187.74,-135.3"/>
</g>
</g>
</svg>
