<?xml version="1.0" encoding="UTF-8" standalone="no"?>
<!DOCTYPE svg PUBLIC "-//W3C//DTD SVG 1.1//EN"
 "http://www.w3.org/Graphics/SVG/1.1/DTD/svg11.dtd">
<!-- Generated by graphviz version 5.0.0 (20220707.1540)
 -->
<!-- Title: dependencies Pages: 1 -->
<svg width="606pt" height="174pt"
 viewBox="0.00 0.00 606.00 173.80" xmlns="http://www.w3.org/2000/svg" xmlns:xlink="http://www.w3.org/1999/xlink">
<g id="graph0" class="graph" transform="scale(1 1) rotate(0) translate(4 169.8)">
<title>dependencies</title>
<polygon fill="white" stroke="transparent" points="-4,4 -4,-169.8 602,-169.8 602,4 -4,4"/>
<text text-anchor="middle" x="299" y="-8.2" font-family="sans-serif" font-size="14.00">dependencies</text>
<g id="clust1" class="cluster">
<title>cluster_LogModule</title>
<polygon fill="none" stroke="black" stroke-dasharray="1,5" points="8,-32.8 8,-157.8 590,-157.8 590,-32.8 8,-32.8"/>
</g>
<g id="clust5" class="cluster">
<title>cluster_LogModule_imports</title>
<polygon fill="none" stroke="black" points="322,-40.8 322,-92.8 582,-92.8 582,-40.8 322,-40.8"/>
</g>
<g id="clust2" class="cluster">
<title>cluster_LogModule_declarations</title>
<polygon fill="none" stroke="black" points="16,-40.8 16,-92.8 314,-92.8 314,-40.8 16,-40.8"/>
</g>
<!-- LogDetailComponent -->
<g id="node1" class="node">
<title>LogDetailComponent</title>
<polygon fill="#ffffb3" stroke="black" points="306.09,-84.8 167.91,-84.8 167.91,-48.8 306.09,-48.8 306.09,-84.8"/>
<text text-anchor="middle" x="237" y="-62.6" font-family="Times,serif" font-size="14.00">LogDetailComponent</text>
</g>
<!-- LogModule -->
<g id="node3" class="node">
<title>LogModule</title>
<polygon fill="#8dd3c7" stroke="black" points="349.1,-149.8 346.1,-153.8 325.1,-153.8 322.1,-149.8 266.9,-149.8 266.9,-113.8 349.1,-113.8 349.1,-149.8"/>
<text text-anchor="middle" x="308" y="-127.6" font-family="Times,serif" font-size="14.00">LogModule</text>
</g>
<!-- LogDetailComponent&#45;&gt;LogModule -->
<g id="edge1" class="edge">
<title>LogDetailComponent&#45;&gt;LogModule</title>
<path fill="none" stroke="black" d="M286.5,-84.91C286.5,-84.91 286.5,-103.79 286.5,-103.79"/>
<polygon fill="black" stroke="black" points="283,-103.79 286.5,-113.79 290,-103.79 283,-103.79"/>
</g>
<!-- LogListComponent -->
<g id="node2" class="node">
<title>LogListComponent</title>
<polygon fill="#ffffb3" stroke="black" points="149.66,-84.8 24.34,-84.8 24.34,-48.8 149.66,-48.8 149.66,-84.8"/>
<text text-anchor="middle" x="87" y="-62.6" font-family="Times,serif" font-size="14.00">LogListComponent</text>
</g>
<!-- LogListComponent&#45;&gt;LogModule -->
<g id="edge2" class="edge">
<title>LogListComponent&#45;&gt;LogModule</title>
<path fill="none" stroke="black" d="M87,-84.91C87,-104.14 87,-131.8 87,-131.8 87,-131.8 256.69,-131.8 256.69,-131.8"/>
<polygon fill="black" stroke="black" points="256.69,-135.3 266.69,-131.8 256.69,-128.3 256.69,-135.3"/>
</g>
<!-- LogRoutingModule -->
<g id="node4" class="node">
<title>LogRoutingModule</title>
<polygon fill="#8dd3c7" stroke="black" points="573.72,-84.8 570.72,-88.8 549.72,-88.8 546.72,-84.8 446.28,-84.8 446.28,-48.8 573.72,-48.8 573.72,-84.8"/>
<text text-anchor="middle" x="510" y="-62.6" font-family="Times,serif" font-size="14.00">LogRoutingModule</text>
</g>
<!-- LogRoutingModule&#45;&gt;LogModule -->
<g id="edge3" class="edge">
<title>LogRoutingModule&#45;&gt;LogModule</title>
<path fill="none" stroke="black" d="M510,-84.91C510,-104.14 510,-131.8 510,-131.8 510,-131.8 359.37,-131.8 359.37,-131.8"/>
<polygon fill="black" stroke="black" points="359.37,-128.3 349.37,-131.8 359.37,-135.3 359.37,-128.3"/>
</g>
<!-- SharedModule -->
<g id="node5" class="node">
<title>SharedModule</title>
<polygon fill="#8dd3c7" stroke="black" points="428.43,-84.8 425.43,-88.8 404.43,-88.8 401.43,-84.8 329.57,-84.8 329.57,-48.8 428.43,-48.8 428.43,-84.8"/>
<text text-anchor="middle" x="379" y="-62.6" font-family="Times,serif" font-size="14.00">SharedModule</text>
</g>
<!-- SharedModule&#45;&gt;LogModule -->
<g id="edge4" class="edge">
<title>SharedModule&#45;&gt;LogModule</title>
<path fill="none" stroke="black" d="M339.42,-84.91C339.42,-84.91 339.42,-103.79 339.42,-103.79"/>
<polygon fill="black" stroke="black" points="335.92,-103.79 339.42,-113.79 342.92,-103.79 335.92,-103.79"/>
</g>
</g>
</svg>
