<?xml version="1.0" encoding="UTF-8" standalone="no"?>
<!DOCTYPE svg PUBLIC "-//W3C//DTD SVG 1.1//EN"
 "http://www.w3.org/Graphics/SVG/1.1/DTD/svg11.dtd">
<!-- Generated by graphviz version 3.0.0 (20220226.1711)
 -->
<!-- Title: dependencies Pages: 1 -->
<svg width="606pt" height="174pt"
 viewBox="0.00 0.00 606.00 173.80" xmlns="http://www.w3.org/2000/svg" xmlns:xlink="http://www.w3.org/1999/xlink">
<g id="graph0" class="graph" transform="scale(1 1) rotate(0) translate(4 169.8)">
<title>dependencies</title>
<polygon fill="white" stroke="transparent" points="-4,4 -4,-169.8 602,-169.8 602,4 -4,4"/>
<text text-anchor="middle" x="299" y="-8.2" font-family="sans-serif" font-size="14.00">dependencies</text>
<g id="clust1" class="cluster">
<title>cluster_LogModule</title>
<polygon fill="none" stroke="black" stroke-dasharray="1,5" points="8,-32.8 8,-157.8 590,-157.8 590,-32.8 8,-32.8"/>
</g>
<g id="clust2" class="cluster">
<title>cluster_LogModule_declarations</title>
<polygon fill="none" stroke="black" points="284,-40.8 284,-92.8 582,-92.8 582,-40.8 284,-40.8"/>
</g>
<g id="clust5" class="cluster">
<title>cluster_LogModule_imports</title>
<polygon fill="none" stroke="black" points="16,-40.8 16,-92.8 276,-92.8 276,-40.8 16,-40.8"/>
</g>
<!-- LogDetailComponent -->
<g id="node1" class="node">
<title>LogDetailComponent</title>
<polygon fill="#ffffb3" stroke="black" points="574.09,-84.8 435.91,-84.8 435.91,-48.8 574.09,-48.8 574.09,-84.8"/>
<text text-anchor="middle" x="505" y="-62.6" font-family="Times,serif" font-size="14.00">LogDetailComponent</text>
</g>
<!-- LogModule -->
<g id="node3" class="node">
<title>LogModule</title>
<polygon fill="#8dd3c7" stroke="black" points="320.1,-149.8 317.1,-153.8 296.1,-153.8 293.1,-149.8 237.9,-149.8 237.9,-113.8 320.1,-113.8 320.1,-149.8"/>
<text text-anchor="middle" x="279" y="-127.6" font-family="Times,serif" font-size="14.00">LogModule</text>
</g>
<!-- LogDetailComponent&#45;&gt;LogModule -->
<g id="edge1" class="edge">
<title>LogDetailComponent&#45;&gt;LogModule</title>
<path fill="none" stroke="black" d="M505,-84.91C505,-104.14 505,-131.8 505,-131.8 505,-131.8 330.19,-131.8 330.19,-131.8"/>
<polygon fill="black" stroke="black" points="330.19,-128.3 320.19,-131.8 330.19,-135.3 330.19,-128.3"/>
</g>
<!-- LogListComponent -->
<g id="node2" class="node">
<title>LogListComponent</title>
<polygon fill="#ffffb3" stroke="black" points="417.66,-84.8 292.34,-84.8 292.34,-48.8 417.66,-48.8 417.66,-84.8"/>
<text text-anchor="middle" x="355" y="-62.6" font-family="Times,serif" font-size="14.00">LogListComponent</text>
</g>
<!-- LogListComponent&#45;&gt;LogModule -->
<g id="edge2" class="edge">
<title>LogListComponent&#45;&gt;LogModule</title>
<path fill="none" stroke="black" d="M306.11,-84.91C306.11,-84.91 306.11,-103.79 306.11,-103.79"/>
<polygon fill="black" stroke="black" points="302.61,-103.79 306.11,-113.79 309.61,-103.79 302.61,-103.79"/>
</g>
<!-- LogRoutingModule -->
<g id="node4" class="node">
<title>LogRoutingModule</title>
<polygon fill="#8dd3c7" stroke="black" points="267.72,-84.8 264.72,-88.8 243.72,-88.8 240.72,-84.8 140.28,-84.8 140.28,-48.8 267.72,-48.8 267.72,-84.8"/>
<text text-anchor="middle" x="204" y="-62.6" font-family="Times,serif" font-size="14.00">LogRoutingModule</text>
</g>
<!-- LogRoutingModule&#45;&gt;LogModule -->
<g id="edge3" class="edge">
<title>LogRoutingModule&#45;&gt;LogModule</title>
<path fill="none" stroke="black" d="M252.78,-84.91C252.78,-84.91 252.78,-103.79 252.78,-103.79"/>
<polygon fill="black" stroke="black" points="249.28,-103.79 252.78,-113.79 256.28,-103.79 249.28,-103.79"/>
</g>
<!-- SharedModule -->
<g id="node5" class="node">
<title>SharedModule</title>
<polygon fill="#8dd3c7" stroke="black" points="122.43,-84.8 119.43,-88.8 98.43,-88.8 95.43,-84.8 23.57,-84.8 23.57,-48.8 122.43,-48.8 122.43,-84.8"/>
<text text-anchor="middle" x="73" y="-62.6" font-family="Times,serif" font-size="14.00">SharedModule</text>
</g>
<!-- SharedModule&#45;&gt;LogModule -->
<g id="edge4" class="edge">
<title>SharedModule&#45;&gt;LogModule</title>
<path fill="none" stroke="black" d="M73,-84.91C73,-104.14 73,-131.8 73,-131.8 73,-131.8 227.81,-131.8 227.81,-131.8"/>
<polygon fill="black" stroke="black" points="227.81,-135.3 237.81,-131.8 227.81,-128.3 227.81,-135.3"/>
</g>
</g>
</svg>
