<?xml version="1.0" encoding="UTF-8" standalone="no"?>
<!DOCTYPE svg PUBLIC "-//W3C//DTD SVG 1.1//EN"
 "http://www.w3.org/Graphics/SVG/1.1/DTD/svg11.dtd">
<!-- Generated by graphviz version 3.0.0 (20220226.1711)
 -->
<!-- Title: dependencies Pages: 1 -->
<svg width="490pt" height="174pt"
 viewBox="0.00 0.00 490.00 173.80" xmlns="http://www.w3.org/2000/svg" xmlns:xlink="http://www.w3.org/1999/xlink">
<g id="graph0" class="graph" transform="scale(1 1) rotate(0) translate(4 169.8)">
<title>dependencies</title>
<polygon fill="white" stroke="transparent" points="-4,4 -4,-169.8 486,-169.8 486,4 -4,4"/>
<text text-anchor="middle" x="241" y="-8.2" font-family="sans-serif" font-size="14.00">dependencies</text>
<g id="clust1" class="cluster">
<title>cluster_SnippetModule</title>
<polygon fill="none" stroke="black" stroke-dasharray="1,5" points="8,-32.8 8,-157.8 474,-157.8 474,-32.8 8,-32.8"/>
</g>
<g id="clust4" class="cluster">
<title>cluster_SnippetModule_imports</title>
<polygon fill="none" stroke="black" points="186,-40.8 186,-92.8 466,-92.8 466,-40.8 186,-40.8"/>
</g>
<g id="clust2" class="cluster">
<title>cluster_SnippetModule_declarations</title>
<polygon fill="none" stroke="black" points="16,-40.8 16,-92.8 178,-92.8 178,-40.8 16,-40.8"/>
</g>
<!-- SnippetListComponent -->
<g id="node1" class="node">
<title>SnippetListComponent</title>
<polygon fill="#ffffb3" stroke="black" points="169.89,-84.8 24.11,-84.8 24.11,-48.8 169.89,-48.8 169.89,-84.8"/>
<text text-anchor="middle" x="97" y="-62.6" font-family="Times,serif" font-size="14.00">SnippetListComponent</text>
</g>
<!-- SnippetModule -->
<g id="node2" class="node">
<title>SnippetModule</title>
<polygon fill="#8dd3c7" stroke="black" points="319.33,-149.8 316.33,-153.8 295.33,-153.8 292.33,-149.8 216.67,-149.8 216.67,-113.8 319.33,-113.8 319.33,-149.8"/>
<text text-anchor="middle" x="268" y="-127.6" font-family="Times,serif" font-size="14.00">SnippetModule</text>
</g>
<!-- SnippetListComponent&#45;&gt;SnippetModule -->
<g id="edge1" class="edge">
<title>SnippetListComponent&#45;&gt;SnippetModule</title>
<path fill="none" stroke="black" d="M97,-84.91C97,-104.14 97,-131.8 97,-131.8 97,-131.8 206.69,-131.8 206.69,-131.8"/>
<polygon fill="black" stroke="black" points="206.69,-135.3 216.69,-131.8 206.69,-128.3 206.69,-135.3"/>
</g>
<!-- SharedModule -->
<g id="node3" class="node">
<title>SharedModule</title>
<polygon fill="#8dd3c7" stroke="black" points="458.43,-84.8 455.43,-88.8 434.43,-88.8 431.43,-84.8 359.57,-84.8 359.57,-48.8 458.43,-48.8 458.43,-84.8"/>
<text text-anchor="middle" x="409" y="-62.6" font-family="Times,serif" font-size="14.00">SharedModule</text>
</g>
<!-- SharedModule&#45;&gt;SnippetModule -->
<g id="edge2" class="edge">
<title>SharedModule&#45;&gt;SnippetModule</title>
<path fill="none" stroke="black" d="M409,-84.91C409,-104.14 409,-131.8 409,-131.8 409,-131.8 329.3,-131.8 329.3,-131.8"/>
<polygon fill="black" stroke="black" points="329.3,-128.3 319.3,-131.8 329.3,-135.3 329.3,-128.3"/>
</g>
<!-- SnippetRoutingModule -->
<g id="node4" class="node">
<title>SnippetRoutingModule</title>
<polygon fill="#8dd3c7" stroke="black" points="341.95,-84.8 338.95,-88.8 317.95,-88.8 314.95,-84.8 194.05,-84.8 194.05,-48.8 341.95,-48.8 341.95,-84.8"/>
<text text-anchor="middle" x="268" y="-62.6" font-family="Times,serif" font-size="14.00">SnippetRoutingModule</text>
</g>
<!-- SnippetRoutingModule&#45;&gt;SnippetModule -->
<g id="edge3" class="edge">
<title>SnippetRoutingModule&#45;&gt;SnippetModule</title>
<path fill="none" stroke="black" d="M268,-84.91C268,-84.91 268,-103.79 268,-103.79"/>
<polygon fill="black" stroke="black" points="264.5,-103.79 268,-113.79 271.5,-103.79 264.5,-103.79"/>
</g>
</g>
</svg>
