<?xml version="1.0" encoding="UTF-8" standalone="no"?>
<!DOCTYPE svg PUBLIC "-//W3C//DTD SVG 1.1//EN"
 "http://www.w3.org/Graphics/SVG/1.1/DTD/svg11.dtd">
<!-- Generated by graphviz version 3.0.0 (20220226.1711)
 -->
<!-- Title: dependencies Pages: 1 -->
<svg width="490pt" height="174pt"
 viewBox="0.00 0.00 490.00 173.80" xmlns="http://www.w3.org/2000/svg" xmlns:xlink="http://www.w3.org/1999/xlink">
<g id="graph0" class="graph" transform="scale(1 1) rotate(0) translate(4 169.8)">
<title>dependencies</title>
<polygon fill="white" stroke="transparent" points="-4,4 -4,-169.8 486,-169.8 486,4 -4,4"/>
<text text-anchor="middle" x="241" y="-8.2" font-family="sans-serif" font-size="14.00">dependencies</text>
<g id="clust1" class="cluster">
<title>cluster_SnippetModule</title>
<polygon fill="none" stroke="black" stroke-dasharray="1,5" points="8,-32.8 8,-157.8 474,-157.8 474,-32.8 8,-32.8"/>
</g>
<g id="clust2" class="cluster">
<title>cluster_SnippetModule_declarations</title>
<polygon fill="none" stroke="black" points="304,-40.8 304,-92.8 466,-92.8 466,-40.8 304,-40.8"/>
</g>
<g id="clust4" class="cluster">
<title>cluster_SnippetModule_imports</title>
<polygon fill="none" stroke="black" points="16,-40.8 16,-92.8 296,-92.8 296,-40.8 16,-40.8"/>
</g>
<!-- SnippetListComponent -->
<g id="node1" class="node">
<title>SnippetListComponent</title>
<polygon fill="#ffffb3" stroke="black" points="457.89,-84.8 312.11,-84.8 312.11,-48.8 457.89,-48.8 457.89,-84.8"/>
<text text-anchor="middle" x="385" y="-62.6" font-family="Times,serif" font-size="14.00">SnippetListComponent</text>
</g>
<!-- SnippetModule -->
<g id="node2" class="node">
<title>SnippetModule</title>
<polygon fill="#8dd3c7" stroke="black" points="290.33,-149.8 287.33,-153.8 266.33,-153.8 263.33,-149.8 187.67,-149.8 187.67,-113.8 290.33,-113.8 290.33,-149.8"/>
<text text-anchor="middle" x="239" y="-127.6" font-family="Times,serif" font-size="14.00">SnippetModule</text>
</g>
<!-- SnippetListComponent&#45;&gt;SnippetModule -->
<g id="edge1" class="edge">
<title>SnippetListComponent&#45;&gt;SnippetModule</title>
<path fill="none" stroke="black" d="M385,-84.91C385,-104.14 385,-131.8 385,-131.8 385,-131.8 300.47,-131.8 300.47,-131.8"/>
<polygon fill="black" stroke="black" points="300.47,-128.3 290.47,-131.8 300.47,-135.3 300.47,-128.3"/>
</g>
<!-- SharedModule -->
<g id="node3" class="node">
<title>SharedModule</title>
<polygon fill="#8dd3c7" stroke="black" points="288.43,-84.8 285.43,-88.8 264.43,-88.8 261.43,-84.8 189.57,-84.8 189.57,-48.8 288.43,-48.8 288.43,-84.8"/>
<text text-anchor="middle" x="239" y="-62.6" font-family="Times,serif" font-size="14.00">SharedModule</text>
</g>
<!-- SharedModule&#45;&gt;SnippetModule -->
<g id="edge2" class="edge">
<title>SharedModule&#45;&gt;SnippetModule</title>
<path fill="none" stroke="black" d="M239,-84.91C239,-84.91 239,-103.79 239,-103.79"/>
<polygon fill="black" stroke="black" points="235.5,-103.79 239,-113.79 242.5,-103.79 235.5,-103.79"/>
</g>
<!-- SnippetRoutingModule -->
<g id="node4" class="node">
<title>SnippetRoutingModule</title>
<polygon fill="#8dd3c7" stroke="black" points="171.95,-84.8 168.95,-88.8 147.95,-88.8 144.95,-84.8 24.05,-84.8 24.05,-48.8 171.95,-48.8 171.95,-84.8"/>
<text text-anchor="middle" x="98" y="-62.6" font-family="Times,serif" font-size="14.00">SnippetRoutingModule</text>
</g>
<!-- SnippetRoutingModule&#45;&gt;SnippetModule -->
<g id="edge3" class="edge">
<title>SnippetRoutingModule&#45;&gt;SnippetModule</title>
<path fill="none" stroke="black" d="M98,-84.91C98,-104.14 98,-131.8 98,-131.8 98,-131.8 177.7,-131.8 177.7,-131.8"/>
<polygon fill="black" stroke="black" points="177.7,-135.3 187.7,-131.8 177.7,-128.3 177.7,-135.3"/>
</g>
</g>
</svg>
